<svg enable-background="new 0 0 470.551 340.159" height="340.159" viewBox="0 0 470.551 340.159" width="470.551" xmlns="http://www.w3.org/2000/svg"><g fill="#0C0B28"><path d="m37.058 233.471c-.174.135-.204.387-.067.561.136.174.388.205.562.068l69.371-54.439-40.817 43.957c-.15.162-.141.416.021.566s.415.141.565-.021l40.754-43.891-24.344 36.867c-.122.184-.07.432.114.555.184.121.432.07.554-.113l24.041-36.408-12.43 25.936c-.095.199-.012.438.188.533.199.096.438.014.534-.188l13.09-27.313-6.587 24.537c-.058.213.069.432.283.49.213.057.433-.07.49-.283l6.829-25.436-.658 24.113c-.006.221.168.404.389.41s.405-.168.411-.389l.66-24.191 4.842 22.348c.047.217.26.354.476.307s.353-.26.307-.477l-4.761-21.975 9.758 21.316c.092.201.33.291.53.197.201-.092.289-.328.197-.529l-9.401-20.537 13.869 20.07c.125.182.375.229.557.102.182-.125.227-.375.102-.557l-13.675-19.789 18.216 18.863c.153.158.407.162.565.01.159-.154.163-.408.01-.566l-18.73-19.396 23.516 16.455c.181.125.431.082.557-.1.127-.182.083-.43-.098-.557l-23.696-16.577 27.053 11.689c.203.088.44-.008.526-.209.087-.203-.007-.439-.208-.525l-26.433-11.42 28.351 6.783c.215.051.431-.082.482-.297s-.081-.43-.296-.48l-27.712-6.631 28.779 2.406c.22.018.414-.145.432-.365.019-.221-.145-.414-.365-.432l-28.117-2.352 27.981-1.859c.221-.016.387-.205.373-.426s-.205-.389-.425-.373l-28.457 1.891 27.588-6.354c.215-.049.35-.264.3-.479-.049-.215-.264-.35-.479-.301l-28.632 6.596 26.631-11.508c.203-.088.296-.322.208-.525s-.323-.297-.526-.209l-27.053 11.689 23.691-16.576c.181-.127.225-.377.098-.559-.126-.18-.376-.225-.557-.098l-23.516 16.453 18.73-19.395c.154-.16.149-.414-.01-.566-.159-.154-.412-.148-.565.01l-17.848 18.48 15.302-21.404c.128-.18.087-.428-.093-.557s-.429-.088-.558.092l-16.043 22.441 9.024-19.756c.092-.201.002-.438-.198-.529-.201-.092-.439-.002-.53.197l-9.183 20.104 4.66-21.148c.047-.215-.089-.428-.305-.477-.216-.047-.429.09-.477.305l-4.75 21.561-.478-22.408c-.005-.221-.188-.396-.408-.393-.221.006-.396.189-.392.41l.477 22.379-6.265-23.785c-.056-.215-.275-.342-.489-.285-.213.057-.341.275-.285.488l6.277 23.834-16.798-30.961c-.105-.193-.348-.266-.542-.16-.194.105-.266.348-.161.543l16.049 29.578-26.232-33.787c-.135-.176-.387-.207-.561-.07-.175.135-.207.387-.071.561l26.169 33.703-42.392-38.1c-.165-.148-.417-.135-.565.029s-.134.418.03.564l42.706 38.383-74.998-46.658c-.188-.117-.434-.059-.551.129s-.059.434.128.551l74.905 46.602-106.578-43.19v.863l105.813 42.879-105.813-23.31v.818l106.7 23.508-106.7-2.225v.801l106.328 2.217-106.328 17.703v.811l107.187-17.846-107.187 40.301v.854l105.847-39.797-105.847 58.931v.916l106.505-59.297zm234.318 99.479c.156-.156.154-.41-.004-.564l-31.528-31.035 32.724 24.105c.178.131.428.092.559-.086s.094-.428-.084-.559l-34.251-25.23 30.585 14.609c.201.094.439.01.535-.189.094-.199.01-.438-.189-.533l-29.978-14.32 27.123 7.869c.213.063.434-.061.496-.271.061-.213-.061-.434-.273-.496l-28.828-8.363 24.385.664c.221.008.404-.168.41-.389.008-.221-.168-.404-.389-.41l-24.193-.66 22.35-4.84c.217-.047.354-.26.307-.477-.047-.215-.26-.352-.477-.305l-21.979 4.76 21.322-9.76c.201-.092.289-.33.197-.529-.092-.201-.33-.291-.529-.197l-20.539 9.4 20.07-13.867c.182-.125.229-.375.102-.557-.125-.182-.375-.227-.557-.102l-19.787 13.674 18.861-18.217c.158-.152.164-.406.01-.566-.152-.158-.406-.162-.566-.01l-19.395 18.73 16.453-23.516c.125-.182.082-.43-.1-.557s-.43-.082-.557.098l-16.576 23.693 11.688-27.055c.088-.203-.006-.438-.209-.525s-.438.004-.525.209l-11.42 26.434 6.783-28.352c.051-.215-.082-.43-.297-.48-.215-.053-.43.08-.48.295l-6.631 27.711 2.406-28.777c.018-.221-.145-.414-.365-.432-.221-.02-.414.145-.432.365l-2.35 28.113-1.861-27.98c-.015-.221-.205-.387-.426-.373-.221.016-.388.205-.373.426l1.893 28.459-6.355-27.588c-.05-.215-.265-.35-.479-.301-.216.051-.35.266-.301.48l6.597 28.631-11.507-26.631c-.088-.203-.324-.297-.526-.209s-.296.322-.208.525l11.689 27.055-16.579-23.693c-.126-.18-.376-.225-.558-.098-.18.127-.225.377-.098.557l16.453 23.514-19.395-18.729c-.158-.152-.412-.148-.565.01-.153.16-.149.414.01.566l18.863 18.217-19.792-13.674c-.182-.125-.432-.08-.557.102s-.08.432.102.557l21.135 14.602-23.367-8.805c-.207-.078-.439.025-.516.234-.078.205.026.438.233.514l22.899 8.629-23.898-3.574c-.219-.033-.422.119-.455.336-.032.219.118.424.337.455l24.667 3.689-28.595 3.398c-.22.027-.376.227-.35.445s.225.375.444.35l27.847-3.311-29.737 10.242c-.209.072-.32.301-.248.508.072.209.3.32.509.248l28.561-9.838-30.422 16.303c-.194.105-.269.348-.163.541.104.195.346.27.541.164l29.906-16.027-33.588 24.775c-.178.131-.215.381-.084.559s.381.217.559.086l34.53-25.469-33.387 37.146.299.865 33.559-37.338-24.358 39.154h.941l24.039-38.639-15.658 38.639h.863l15.348-37.873-8.344 37.873h.818l8.541-38.762-.809 38.762h.801l.801-38.389 6.391 38.389h.811l-6.533-39.248 14.756 39.248h.854l-14.254-37.91 21.107 37.91h.914l-21.471-38.566 30.264 38.566h1.019l-29.856-38.045 31.331 30.842c.155.156.409.154.563-.004zm-36.604-35.641v.002-.002-.002zm.457.479v-.002h.002zm.335-.069h-.002l.002-.002zm.082-.088v-.002zm-46.02-283.529 41.336 26.35-25.69-11.02c-.203-.087-.438.007-.525.21s.007.438.21.525l26.035 11.167-24.287-5.675c-.215-.05-.43.084-.48.299s.084.431.299.48l24.795 5.794-24.113-.751c-.221-.008-.405.166-.412.387s.166.406.387.412l24.662.77-24.181 4.857c-.217.043-.356.254-.313.471s.254.357.471.313l24.119-4.846-22.965 10.355c-.201.091-.291.327-.2.529.091.201.327.291.529.2l22.168-9.996-20.188 13.947c-.182.126-.227.375-.102.557.126.182.375.228.557.102l19.794-13.676-18.865 18.219c-.159.154-.163.408-.01.566s.407.164.565.01l19.396-18.731-16.455 23.516c-.127.182-.082.432.098.557.182.127.432.084.558-.098l16.579-23.693-11.689 27.054c-.088.203.006.439.208.527.202.086.438-.006.526-.209l11.506-26.631-6.596 28.631c-.049.215.085.43.301.479.215.051.43-.084.479-.299l6.355-27.589-1.893 28.458c-.015.221.152.41.373.426.221.014.411-.152.426-.373l1.861-27.981 2.35 28.116c.018.219.211.383.432.365.221-.02.383-.213.365-.432l-2.406-28.779 6.631 27.71c.051.215.266.348.48.297.215-.053.348-.268.297-.482l-6.783-28.35 11.42 26.434c.088.203.322.295.525.209.203-.088.297-.324.209-.527l-11.688-27.053 16.576 23.692c.127.182.375.225.557.098.182-.125.225-.375.1-.557l-16.453-23.517 19.393 18.734c.16.154.412.148.566-.01s.148-.412-.01-.566l-18.863-18.217 19.789 13.674c.182.126.432.08.557-.102.127-.182.08-.431-.102-.557l-20.068-13.866 20.537 9.401c.199.092.438.004.529-.197s.004-.438-.197-.53l-21.318-9.76 21.975 4.761c.217.047.43-.09.477-.307.047-.216-.09-.429-.307-.476l-22.348-4.841 24.191-.66c.221-.006.396-.189.389-.41-.006-.222-.189-.396-.41-.39l-24.113.657 25.436-6.829c.213-.058.34-.276.283-.489-.059-.214-.277-.34-.49-.283l-24.561 6.595 29.336-14.099c.199-.096.283-.334.188-.533s-.334-.283-.533-.188l-28.164 13.535 40.38-27.074c.184-.123.232-.371.109-.555s-.371-.232-.555-.109l-40.479 27.142 42.275-39.377h-1.174l-41.81 38.942 30.562-38.942h-1.019l-30.262 38.563 21.469-38.563h-.914l-21.107 37.908 14.254-37.908h-.854l-14.756 39.247 6.534-39.247h-.811l-6.391 38.387-.801-38.387h-.801l.816 39.177-9.566-39.177h-.824l9.557 39.134-19.453-39.134h-.895l19.576 39.379-30.543-39.379h-1.012l30.383 39.175-40.779-37.853c-.162-.15-.415-.142-.565.021-.15.162-.141.416.021.565l40.792 37.864-41.331-26.346c-.186-.119-.433-.063-.552.123-.118.186-.063.433.123.553zm45.813 28.278h-.002s-.002-.002-.004-.002c.003 0 .005.002.006.002zm-.293.025c.001 0-.001.001-.002.002.001-.001.002-.002.002-.002zm-.141.714s0 .001 0 0c0 .001 0 .001 0 0 0 0 0 0-.001 0zm-.244-.375c-.001.001-.001.001 0 0zm-36.314 277.78c.104.195.346.271.541.168s.27-.346.167-.541l-16.565-31.391 17.316 23.545c.131.178.381.217.559.086s.217-.381.086-.561l-17.942-24.396 18.549 17.352c.161.152.414.143.564-.018.151-.162.143-.416-.018-.566l-19.717-18.443 24.516 12.154c.197.098.438.018.535-.18.099-.199.018-.438-.18-.537l-23.069-11.438 21.009 5.959c.213.061.434-.064.494-.275.061-.213-.063-.434-.275-.494l-21.632-6.137 23.402 1.416c.22.014.409-.154.423-.375s-.154-.41-.375-.424l-22.542-1.363 24.229-2.797c.22-.025.377-.223.352-.443-.025-.219-.224-.377-.443-.352l-23.895 2.758 25.216-7.201c.212-.061.335-.283.274-.494-.061-.213-.281-.336-.494-.275l-25.931 7.406 25.584-13.016c.197-.1.275-.34.175-.537s-.34-.275-.537-.176l-25.775 13.113 23.042-18.379c.173-.139.201-.389.063-.563-.139-.172-.39-.201-.563-.063l-22.51 17.955 19.321-21.828c.146-.164.131-.418-.034-.564s-.419-.131-.564.035l-18.886 21.336 15.66-24.266c.119-.186.066-.434-.119-.553-.186-.121-.434-.066-.553.119l-15.302 23.709 11.522-25.572c.091-.201 0-.439-.2-.529-.202-.09-.438 0-.529.201l-11.717 26.006 7.37-27.338c.058-.213-.069-.434-.282-.49s-.433.068-.49.281l-7.648 28.369 2.374-28.912c.018-.221-.146-.414-.366-.432-.22-.02-.413.145-.431.365l-2.412 29.377-3.484-28.711c-.026-.219-.226-.375-.445-.35-.219.027-.375.227-.349.445l3.458 28.5-8.306-25.658c-.068-.211-.293-.326-.503-.258s-.326.293-.257.504l8.087 24.98-10.355-20.018c-.102-.197-.343-.273-.539-.172-.196.102-.273.342-.172.539l10.484 20.268-13.684-17.938c-.134-.176-.385-.211-.561-.076s-.209.385-.075.561l14.499 19.004-17.441-13.906c-.173-.139-.424-.109-.563.063-.138.174-.109.424.063.563l17.418 13.889-21.652-9.914c-.201-.094-.438-.006-.53.195s-.004.439.197.531l21.54 9.863-25.636-5.049c-.217-.043-.427.098-.47.314-.042.217.099.428.315.471l25.233 4.969-46.422.723c-.221.004-.397.186-.394.406s.185.396.406.395l45.518-.709-55.245 10.363c-.217.041-.36.25-.319.469.041.217.25.359.467.318l54.748-10.27-67.295 25.09c-.207.076-.313.307-.235.514s.308.313.515.236l67.669-25.229-89.25 51.57c-.191.111-.257.355-.146.547.11.191.355.258.546.146l89.373-51.643-63.796 53.305h1.247l62.666-52.359-44.696 52.359h1.052l44.953-52.662-29.498 52.662h.917l29.109-51.967-17.497 51.967h.844l17.644-52.404-6.857 52.404h.807l6.619-50.584.924 50.584h.8l-.93-50.904 9.033 50.904h.813l-9.04-50.941 16.911 48.941.611-.682-16.607-48.061zm-104.68 8.225c-.083.205.015.439.22.521.205.084.438-.014.521-.219l34.273-84.119-14.132 57.949c-.052.215.079.432.294.484.214.053.431-.08.483-.295l14.11-57.857-3.937 46.48c-.019.221.145.414.365.434.22.018.414-.145.432-.365l4.039-47.686 3.675 38.27c.021.221.216.381.436.361.22-.021.381-.217.36-.438l-3.593-37.418 5.971 23.701c.054.213.271.344.485.289.214-.053.344-.271.29-.484l-6.434-25.539 11.18 21.377c.103.195.344.271.54.168.196-.102.271-.344.169-.539l-11.214-21.443 15.12 17.15c.146.166.399.182.565.035.166-.145.182-.398.036-.564l-14.869-16.867 18.915 13.857c.178.131.429.092.559-.086s.092-.43-.086-.559l-18.221-13.347 21.168 10.408.697-.549-21.21-10.43 25.103 7.592c.211.064.435-.057.499-.268s-.056-.436-.267-.498l-25.815-7.807 28.56 2.902c.22.023.416-.137.438-.357.022-.219-.138-.416-.357-.438l-28.773-2.924 29.326-2.984c.22-.021.38-.217.357-.438s-.219-.379-.438-.357l-28.648 2.914 28.061-7.896c.212-.061.336-.281.277-.494-.06-.213-.281-.336-.494-.275l-27.424 7.719 26.297-11.928c.201-.09.291-.328.199-.529s-.328-.289-.529-.199l-25.697 11.654 23.529-15.266c.185-.121.238-.369.118-.555s-.368-.238-.553-.117l-23.922 15.521 20.986-18.992c.164-.148.176-.402.028-.566s-.401-.176-.565-.027l-21.783 19.713 17.644-23.027c.134-.174.101-.426-.074-.561s-.426-.102-.561.074l-17.926 23.396 12.608-26.027c.097-.199.013-.438-.186-.535-.199-.096-.438-.012-.534.186l-12.518 25.835 6.902-26.068c.057-.215-.071-.434-.284-.49-.214-.057-.433.07-.489.285l-6.713 25.357 2.293-23.954c.021-.219-.14-.414-.36-.436s-.415.141-.436.359l-2.325 24.283-1.801-22.514c-.018-.219-.21-.383-.431-.365s-.385.209-.367.43l1.87 23.373-6.556-21.51c-.064-.211-.288-.33-.5-.266s-.331.287-.266.498l6.667 21.875-12.369-20.803c-.113-.189-.358-.252-.548-.139s-.252.357-.139.547l12.328 20.734-18.362-18.881c-.154-.158-.407-.162-.565-.008s-.162.406-.008.566l18.483 19.006-37.558-23.109c-.188-.115-.435-.057-.55.131-.116.189-.057.436.131.551l36.738 22.605-48.206-18.18c-.207-.078-.438.025-.516.232s.026.439.233.516l47.322 17.846-70.573-13.301c-.217-.039-.426.104-.467.32s.102.426.319.467l71.134 13.41-122.276-1.184c-.221-.002-.402.176-.404.396-.002.221.175.4.396.404l120.829 1.17-124.516 15.536v.805l125.422-15.646-125.422 37.74v.834l126.692-38.123-126.692 67.298v.906l126.754-67.33-122.801 98.116h1.281l122.594-97.951-82.843 97.951h1.048l81.286-96.109-59.408 96.109h.94l59.46-96.193zm349.114-204.317c.186-.119.242-.365.125-.553s-.363-.242-.551-.125l-79.066 49.676 44.668-40.715c.164-.148.176-.4.027-.564-.15-.164-.402-.176-.566-.025l-43.379 39.539 27.908-33.885c.141-.17.117-.422-.055-.563-.17-.141-.422-.115-.563.055l-28.678 34.818 19.068-32.477c.111-.189.049-.436-.143-.547s-.436-.049-.547.143l-19.537 33.275 8.576-24.455c.072-.209-.037-.434-.246-.51-.209-.072-.434.035-.51.244l-8.711 24.844 2.912-23.736c.025-.219-.131-.418-.35-.445s-.418.129-.445.348l-2.941 23.967-2.469-22.941c-.023-.221-.221-.379-.439-.355-.221.023-.379.221-.355.441l2.443 22.701-7.221-21.666c-.07-.211-.297-.324-.506-.254s-.322.297-.254.506l7.23 21.699-12.434-20.828c-.113-.189-.359-.252-.549-.139s-.252.359-.139.549l12.543 21.012-19.203-19.885c-.152-.158-.406-.164-.566-.01-.158.152-.162.406-.01.566l18.73 19.395-23.516-16.453c-.182-.127-.43-.082-.557.098-.127.182-.082.432.098.559l23.693 16.576-27.055-11.689c-.203-.088-.438.006-.525.209s.006.438.209.525l26.631 11.508-28.633-6.596c-.215-.049-.43.086-.479.301-.051.215.084.43.299.479l27.588 6.354-28.457-1.891c-.221-.016-.41.152-.426.373-.014.221.152.41.373.426l27.982 1.859-28.117 2.352c-.221.018-.383.211-.365.432.02.221.213.383.432.365l28.779-2.406-27.711 6.631c-.215.051-.348.266-.297.48s.268.348.482.297l28.352-6.785-26.434 11.422c-.203.088-.297.322-.209.525s.322.297.525.209l27.06-11.692-23.693 16.578c-.18.127-.225.377-.098.557.127.182.377.225.557.1l23.654-16.551-20.238 21.297c-.152.16-.146.414.014.566s.414.145.566-.016l19.953-20.996-16.295 24.955c-.121.186-.07.434.115.555s.434.068.555-.117l16.133-24.707-10.154 23.473c-.088.203.006.439.207.527.203.088.439-.008.527-.209l10.393-24.025-4.676 21.584c-.047.217.09.43.307.477.215.047.428-.09.475-.307l4.842-22.352.66 24.195c.006.221.189.395.41.389s.396-.189.389-.41l-.648-23.783 7.307 29.65c.053.215.27.346.484.293s.346-.27.293-.484l-7.086-28.758 16.951 38.607c.088.203.324.295.527.205.201-.088.293-.324.205-.527l-16.734-38.113 28.707 45c.117.186.365.24.551.121.188-.117.242-.365.123-.551l-29.051-45.537 51.207 53.906c.152.16.404.166.564.014s.168-.404.016-.564l-50.729-53.404 92.625 71.131c.176.135.426.102.561-.074.135-.174.102-.426-.074-.561l-92.438-70.986 106.188 59.121v-.916l-105.85-58.932 105.85 39.797v-.854l-107.188-40.301 107.188 17.846v-.811l-106.328-17.703 106.328-2.217v-.801l-106.699 2.225 106.699-23.508v-.818l-105.813 23.311 105.813-42.879v-.863l-106.688 43.234 79.017-49.647zm-70.695 205.836-77.094-44.053 57.916 21.307c.207.076.438-.029.512-.238.078-.207-.029-.438-.236-.512l-57.488-21.148 46.141 8.555c.217.041.426-.104.467-.32.039-.217-.104-.426-.32-.467l-47.344-8.779 28.572-.389c.221-.004.398-.186.395-.406s-.184-.398-.406-.395l-28.811.393 24.83-5.623c.217-.047.352-.262.303-.477-.049-.217-.264-.352-.479-.303l-25.293 5.729 21.207-10.535c.199-.098.279-.338.182-.535-.1-.199-.34-.279-.537-.182l-20.941 10.402 17.297-13.992c.172-.139.199-.391.059-.563-.139-.172-.391-.199-.563-.059l-17.421 14.094 14.933-19.186c.137-.176.105-.426-.068-.563-.176-.135-.426-.104-.563.07l-14.419 18.525 11.296-21.891c.102-.197.023-.439-.172-.539-.197-.102-.439-.025-.539.172l-11.03 21.377 8.075-24.949c.066-.211-.049-.436-.258-.504-.211-.068-.436.047-.504.258l-8.304 25.652 3.456-28.494c.027-.219-.129-.418-.35-.445-.219-.025-.418.131-.445.35l-3.481 28.707-2.412-29.373c-.018-.221-.211-.385-.432-.365-.221.018-.385.211-.365.432l2.375 28.914-7.65-28.371c-.057-.213-.275-.338-.49-.281-.213.057-.338.277-.281.49l7.371 27.338-11.719-26.006c-.09-.201-.326-.291-.527-.201s-.291.328-.201.529l11.523 25.574-15.301-23.711c-.121-.186-.367-.24-.553-.119-.186.119-.24.367-.119.553l15.658 24.264-18.886-21.334c-.146-.166-.398-.182-.564-.035s-.182.4-.035.564l19.323 21.828-22.515-17.955c-.172-.139-.424-.109-.561.063-.139.172-.109.424.063.563l23.044 18.379-25.776-13.113c-.197-.1-.439-.021-.539.176s-.021.438.176.537l25.587 13.016-25.933-7.406c-.213-.061-.434.063-.494.275-.061.211.063.434.275.494l25.218 7.201-23.899-2.758c-.219-.025-.418.133-.443.352-.025.221.133.418.352.443l24.233 2.797-22.546 1.363c-.221.014-.389.203-.375.424s.203.389.424.375l23.405-1.416-21.632 6.137c-.213.061-.336.281-.275.494.061.211.281.336.494.275l21.999-6.24-21.04 11.963c-.193.109-.26.354-.15.545s.354.26.545.15l19.423-11.043-20.315 16.143c-.174.139-.201.391-.064.563.137.174.389.201.563.064l21.136-16.795-19.806 23.246c-.143.168-.123.42.045.564.168.143.42.123.564-.045l19.757-23.189-17.154 30.27c-.109.191-.041.436.15.545.193.109.438.041.545-.15l16.873-29.773-17.836 51.625h.846l17.605-50.955-9.041 50.955h.811l9.033-50.904-.93 50.904h.801l.924-50.582 6.618 50.582h.807l-6.856-52.404 17.644 52.404h.844l-17.495-51.965 29.106 51.965h.916l-29.497-52.664 44.954 52.664h1.053l-44.693-52.357 62.662 52.357h1.248l-63.893-53.385 77.334 44.189c.191.109.438.043.547-.15.103-.193.037-.438-.156-.547zm58.918-94.154c.221-.01.391-.195.381-.416s-.195-.393-.416-.383l-86.586 3.773 56.102-12.723c.215-.049.35-.262.301-.479-.049-.215-.262-.35-.479-.301l-56.291 12.766 37.264-17.135c.201-.092.289-.33.197-.531s-.33-.289-.531-.195l-38.023 17.484 14.953-11.662c.174-.135.205-.387.07-.561-.137-.174-.387-.205-.563-.07l-15.578 12.15 9.639-13.824c.127-.182.082-.43-.1-.557-.18-.127-.43-.082-.557.1l-9.725 13.947 5.584-18.594c.064-.213-.057-.436-.268-.498-.211-.064-.434.057-.498.268l-5.223 17.389 1.865-23.305c.018-.221-.146-.412-.367-.43s-.412.146-.43.365l-1.801 22.514-2.326-24.283c-.021-.219-.217-.381-.438-.359-.219.021-.381.217-.359.436l2.293 23.949-6.713-25.354c-.057-.215-.275-.342-.488-.285-.215.057-.342.275-.285.49l6.902 26.066-12.514-25.832c-.098-.197-.336-.281-.535-.186-.199.098-.281.336-.186.535l12.607 26.025-17.926-23.395c-.133-.176-.385-.209-.561-.074s-.209.387-.074.561l17.645 23.027-21.785-19.713c-.164-.148-.416-.137-.564.027s-.137.418.027.566l20.986 18.99-23.92-15.52c-.186-.121-.434-.066-.555.117-.119.186-.066.434.119.555l23.531 15.268-25.701-11.656c-.201-.09-.438-.002-.529.199-.09.201-.002.438.199.529l26.299 11.928-27.426-7.719c-.213-.061-.434.063-.492.275-.061.213.063.434.275.494l28.063 7.896-28.648-2.914c-.221-.021-.416.137-.438.357-.023.221.137.416.357.438l29.324 2.984-28.773 2.924c-.219.021-.379.219-.357.438.021.221.219.381.438.357l28.561-2.902-25.816 7.807c-.211.063-.33.287-.266.498.063.211.287.332.498.268l25.102-7.592-21.586 10.615c-.197.098-.279.338-.182.535.098.199.338.279.535.184l21.91-10.773-16.055 11.787c-.18.131-.217.381-.086.559s.381.217.559.086l16.719-12.275-14.859 16.855c-.146.166-.131.42.035.564.166.146.42.131.564-.035l15.121-17.152-11.215 21.445c-.104.195-.027.438.168.539.197.104.438.027.541-.168l11.316-21.641-6.574 28.811c-.049.215.086.43.301.479.215.051.43-.084.479-.301l6.293-27.57-1.92 46.143c-.01.221.162.408.383.416.221.01.408-.162.416-.383l1.863-44.779 5.418 55.135c.021.219.219.381.438.359.221-.021.381-.219.359-.438l-5.385-54.793 18.133 73.602c.053.215.27.346.484.293s.346-.27.293-.484l-18.264-74.133 39.15 95.248h.865l-39.51-96.119 59.416 96.119h.938l-59.408-96.109 81.287 96.109h1.049l-82.84-97.947 122.592 97.947h1.281l-122.803-98.117 126.754 67.33v-.906l-126.687-67.293 126.689 38.121v-.834l-125.422-37.74 125.422 15.646v-.805l-125.719-15.686zm-380.908-102.543c-.215.049-.35.264-.3.479.05.217.264.35.479.301l70.251-16.221-48.05 19.229c-.205.082-.305.314-.223.52s.315.305.52.223l49.683-19.881-34.947 22.799c-.185.121-.237.369-.116.555s.369.236.554.115l36.151-23.584-12.306 14.979c-.14.172-.116.424.055.564.171.139.422.115.563-.057l12.415-15.111-6.013 15.898c-.078.205.027.438.232.516.207.078.438-.027.516-.232l5.938-15.699-.953 15.533c-.013.219.154.41.375.424.22.012.41-.154.424-.375l.963-15.697 7.329 27.682c.057.213.275.34.489.283.213-.057.341-.275.284-.488l-6.901-26.068 12.514 25.834c.096.197.335.281.534.186.199-.098.282-.336.186-.535l-12.608-26.027 17.927 23.395c.134.176.385.209.561.074.175-.133.208-.385.074-.561l-17.645-23.027 21.785 19.715c.164.148.417.137.565-.027s.136-.418-.028-.564l-20.992-18.996 23.925 15.523c.186.119.433.066.553-.119s.067-.432-.118-.553l-23.531-15.268 25.701 11.656c.201.092.438.002.529-.199s.002-.438-.199-.529l-26.295-11.926 27.422 7.717c.213.061.434-.064.494-.277s-.064-.434-.277-.492l-28.056-7.896 28.641 2.914c.22.021.416-.139.438-.357.022-.221-.138-.416-.357-.439l-29.319-2.982 28.768-2.924c.22-.023.38-.219.357-.439-.022-.219-.219-.379-.438-.357l-28.556 2.904 25.813-7.807c.211-.064.331-.287.267-.498-.064-.213-.287-.332-.499-.268l-25.104 7.592 21.588-10.615c.198-.098.28-.336.183-.535-.098-.197-.337-.279-.535-.182l-21.89 10.764 18.218-13.35c.178-.131.217-.381.086-.559s-.381-.217-.559-.086l-18.912 13.855 14.867-16.867c.146-.166.13-.418-.036-.564s-.418-.129-.565.035l-15.119 17.154 11.214-21.445c.103-.195.027-.438-.169-.541-.196-.102-.438-.025-.54.17l-11.178 21.375 6.434-25.537c.054-.213-.076-.432-.29-.484-.214-.055-.432.076-.485.289l-6.206 24.633 1.882-30.227c.014-.221-.154-.41-.375-.426-.221-.014-.411.154-.424.375l-1.775 28.518-3.258-46.317c-.016-.221-.207-.387-.427-.371-.221.016-.387.207-.371.428l3.32 47.202-14.226-58.333c-.052-.215-.269-.346-.483-.293-.215.052-.346.269-.294.482l14.21 58.267-34.032-81.343c-.085-.203-.32-.299-.523-.215-.204.086-.3.32-.215.523l34.073 81.433-69.178-111.914h-.941l69.277 112.075-94.788-112.075h-1.047l96.344 113.915-123.495-98.67v1.024l122.428 97.817-122.428-65.032v.905l122.639 65.145-122.639-34.664v.832l121.102 34.228-121.102-12.939v.805l121.394 12.971-121.394 7.511v.801l121.355-7.508zm20.683-114.183c-.204-.084-.438.014-.522.217-.084.205.013.439.217.522l95.525 39.417-65.612-13.434c-.216-.045-.428.095-.472.312-.044.216.095.428.312.472l65.599 13.432-50.035.357c-.221.001-.398.182-.397.402s.182.398.403.396l49.25-.35-39.395 6.575c-.218.037-.365.242-.329.461.036.217.243.365.46.328l40.778-6.806-22.316 8.832c-.206.082-.306.314-.225.52.082.205.314.307.519.225l22.667-8.971-18.222 13.244c-.179.129-.218.381-.088.559.13.18.38.219.559.088l17.99-13.074-14.886 17.028c-.146.168-.128.42.038.564.166.146.419.129.564-.037l14.8-16.931-11.29 20.552c-.106.193-.036.438.158.543.193.107.437.035.543-.158l10.996-20.017-8.959 27.327c-.069.209.045.436.255.504s.436-.045.504-.256l8.772-26.757-4.319 27.858c-.034.219.116.422.334.457.219.033.423-.115.457-.334l4.399-28.378.815 28.468c.006.221.19.395.411.389.221-.008.395-.191.389-.412l-.826-28.907 6.758 28.688c.05.215.266.348.481.297s.348-.266.297-.48l-6.651-28.237 11.787 26.913c.088.203.324.295.527.205.202-.088.294-.324.206-.525l-11.358-25.937 15.459 23.972c.12.186.367.24.553.119.186-.119.239-.367.119-.553l-15.199-23.569 18.659 21.165c.146.166.399.182.565.035.166-.146.182-.398.035-.564l-19.098-21.66 21.849 18.282c.169.143.422.119.564-.049.142-.17.119-.422-.051-.564l-22.352-18.704 24.931 14.4c.191.111.436.045.546-.146s.046-.436-.146-.545l-25.521-14.742 27.439 9.127c.21.07.437-.043.506-.254.07-.209-.043-.436-.253-.506l-27.238-9.06 26.746 3.464c.219.029.419-.127.448-.346.028-.219-.127-.42-.346-.447l-26.01-3.369 24.041-.831c.221-.008.395-.192.387-.413s-.193-.394-.414-.386l-24.376.842 22.089-4.705c.216-.046.354-.258.308-.475-.046-.216-.259-.354-.475-.308l-22.933 4.884 20.478-9.288c.201-.091.291-.328.199-.529s-.328-.29-.529-.199l-20.825 9.446 19.024-14.963c.174-.137.204-.388.067-.561-.137-.174-.388-.205-.562-.068l-18.962 14.914 16.339-20.654c.137-.174.108-.425-.065-.562-.173-.138-.425-.108-.562.065l-15.554 19.661 19.618-36.095c.105-.193.033-.436-.161-.543-.194-.105-.436-.033-.542.161l-19.902 36.622 17.72-57.04h-.837l-16.786 54.031 9.602-54.031h-.813l-9.839 55.361 1.451-55.361h-.8l-1.459 55.699-7.349-55.699h-.807l7.322 55.5-15.932-55.5h-.832l16.474 57.385-29.454-57.385h-.899l29.308 57.1-44.32-57.1h-1.012l44.913 57.866-66.677-57.866h-1.221l66.552 57.757-94.928-57.757h-1.54l96.067 58.45zm210.216-15.237c-.076-.209-.305-.316-.512-.242-.209.074-.316.303-.242.512l18.485 51.641-21.892-36.684c-.113-.189-.359-.251-.549-.138-.189.112-.252.358-.139.548l21.177 35.488-19.177-23.555c-.139-.172-.391-.197-.563-.059-.172.14-.197.392-.059.563l20.423 25.084-21.384-16.652c-.174-.136-.426-.104-.561.07-.137.174-.105.425.068.561l21.085 16.42-22.202-10.934c-.197-.098-.438-.017-.535.182s-.016.438.182.535l22.106 10.887-23.88-6.327c-.215-.057-.434.071-.49.284-.057.214.07.433.285.489l24.331 6.447-25.378-.876c-.221-.008-.406.165-.414.386s.166.405.387.413l24.04.831-26.009 3.369c-.219.027-.373.229-.344.447.027.219.229.375.447.346l26.745-3.464-27.237 9.06c-.21.07-.323.297-.255.506.07.211.298.324.507.254l27.438-9.128-25.521 14.744c-.191.109-.256.354-.146.545.111.191.355.258.547.146l24.931-14.4-22.35 18.703c-.168.143-.191.395-.049.564.141.168.393.191.563.049l21.849-18.282-19.095 21.659c-.146.166-.131.42.035.564.166.146.42.131.564-.035l18.661-21.169-15.202 23.573c-.119.186-.066.434.119.553.186.121.434.068.553-.119l15.458-23.968-11.356 25.933c-.088.201.004.439.207.525.201.09.438-.002.525-.205l11.784-26.909-6.649 28.233c-.051.215.082.43.297.48s.432-.082.482-.297l6.757-28.688-.828 28.907c-.008.221.166.404.387.412.221.006.406-.168.412-.389l.826-28.874 5.059 29.048c.039.217.246.363.463.326.219-.039.363-.246.326-.463l-4.869-27.958 9.059 26.444c.072.209.299.32.508.25.209-.072.32-.299.248-.508l-9.191-26.841 12.912 23.567c.105.193.35.266.543.158.193-.105.266-.348.158-.543l-13.388-24.43 14.814 16.946c.145.166.396.184.564.037.166-.145.182-.398.037-.564l-15.148-17.325 21.91 15.014c.184.125.432.078.557-.104s.078-.432-.104-.557l-21.948-15.041 24.709 8.885c.207.074.439-.033.512-.242.074-.207-.033-.438-.24-.512l-24.119-8.672 34.328 4.563c.219.029.42-.125.449-.344.029-.221-.125-.42-.344-.449l-32.768-4.356 45.938-.83c.223-.004.398-.186.395-.407-.006-.221-.188-.396-.408-.393l-46.344.837 55.957-11.313c.217-.043.357-.254.313-.471-.043-.217-.254-.357-.471-.313l-55.908 11.303 74.809-28.281c.207-.078.311-.309.232-.516s-.309-.311-.516-.232l-75.387 28.5 95.134-57.883h-1.539l-93.289 56.761 65.405-56.761h-1.221l-65.525 56.866 44.136-56.866h-1.012l-43.543 56.101 28.794-56.101h-.898l-28.938 56.38 16.185-56.38h-.834l-15.645 54.497 7.19-54.497h-.807l-7.217 54.702-1.433-54.702h-.799l1.428 54.447-9.802-54.447h-.813l9.849 54.711zm189.456 13.356-118.16 94.408 94.654-111.915h-1.049l-93.098 110.075 68.041-110.075h-.939l-67.838 109.747 44.004-103.418c.086-.203-.01-.438-.213-.525-.203-.086-.436.01-.523.212l-43.897 103.164 18.785-71.901c.057-.214-.072-.433-.285-.488s-.432.072-.488.286l-18.732 71.699 5.984-56.653c.023-.22-.137-.417-.355-.44-.221-.022-.418.137-.439.356l-6.041 57.184-2.213-47.48c-.01-.221-.197-.391-.418-.381s-.393.197-.381.418l2.283 48.974-8.205-31.025c-.057-.215-.275-.342-.49-.285-.213.057-.34.275-.283.488l8.281 31.314-13.709-25.779c-.104-.195-.346-.27-.541-.166s-.27.346-.166.541l13.613 25.6-16.93-19.846c-.143-.168-.396-.188-.564-.045s-.188.396-.045.564l17.104 20.051-24.58-17.928c-.178-.129-.428-.09-.559.088-.129.178-.09.43.088.559l23.393 17.061-26.746-13.459c-.197-.098-.438-.02-.537.178s-.02.439.178.537l26.762 13.467-27.49-8.553c-.211-.066-.436.053-.5.264-.066.211.051.436.262.5l28.32 8.811-28.721-2.92c-.221-.021-.416.139-.438.357-.023.221.137.416.357.439l28.768 2.924-29.32 2.982c-.219.023-.379.219-.357.439.021.219.219.379.438.357l28.643-2.914-28.055 7.896c-.213.059-.338.279-.277.492s.281.338.494.277l27.422-7.717-26.295 11.926c-.201.092-.291.328-.199.529.09.201.328.291.529.199l25.697-11.654-23.529 15.266c-.186.121-.238.367-.117.553s.367.238.553.119l23.93-15.527-20.994 19c-.164.146-.176.4-.029.564.148.164.402.176.566.027l21.785-19.715-17.645 23.027c-.135.176-.102.428.074.561.174.135.426.102.561-.074l17.926-23.393-12.609 26.025c-.096.197-.012.439.186.533.199.098.439.014.535-.186l12.514-25.83-6.9 26.066c-.057.213.07.432.283.488.215.057.434-.07.49-.283l6.916-26.123-1.453 22.723c-.014.221.152.41.373.424s.41-.152.426-.373l1.432-22.389 2.65 22.654c.025.221.225.377.443.352s.377-.225.352-.443l-2.709-23.162 7.398 22.322c.07.209.297.322.506.254.211-.07.324-.297.254-.506l-7.441-22.451 13.145 22.387c.111.189.355.254.547.141.189-.111.254-.355.143-.547l-13.287-22.629 20.434 21.564c.152.16.406.166.566.014s.166-.404.014-.564l-20.041-21.148 30.416 21.545c.18.127.43.084.557-.096.129-.18.086-.43-.094-.557l-30.154-21.359 43.801 20.334c.201.094.439.008.531-.193.094-.201.008-.439-.195-.531l-43.717-20.297 67.607 16.252c.215.051.432-.08.482-.295.053-.215-.08-.432-.295-.482l-67.293-16.176 116.088 7.994v-.803l-116.67-8.033 116.67-14.557v-.807l-115.752 14.441 115.752-34.832v-.833l-117.025 35.214 117.025-62.164v-.905l-117.09 62.198 117.09-93.552v-1.023z"/><path d="m156.744 252.581c-.097.199-.337.279-.535.184l-.721-.355-1.515 1.195-.442.381c-.078.084-.238.252.242.703.375.354.606.395.711.391.123-.01.438-.088 1.155-.525 2.004-1.184 2.599-1.414 2.87-1.486.516-.137 1.029.033 1.525.502l.925.869-9.373 9.951-1.233-1.162c-.26-.244-.379-.521-.355-.822.016-.191.102-.498.633-1.336.521-.781.559-.99.561-1.014 0 0 .006-.135-.287-.41-.447-.422-.612-.48-.608-.488-.002 0-.11.029-.364.299l-4.234 4.496c-.248.262-.34.402-.378.469.073.102.281.348.878.91.037.035.049.033.092.018.034-.014.252-.115 1.191-.85.479-.365.842-.539 1.143-.547.307-.006.602.129.902.41l1.105 1.043-7.826 8.309-1.083-1.02c-.319-.301-.404-.77-.257-1.393.125-.52.445-1.303.981-2.391.346-.705.341-.957.331-1.018-.014-.08-.102-.318-.629-.814-.271-.256-.393-.244-.404-.232l-.249.352-2.687 4.104c-.21.324-.213.441-.213.441.002.02.025.127.223.313l7.816 7.363c.125.117.193.164.236.188.065-.049.188-.156.42-.402.5-.529.572-.686.576-.691 0-.004.022-.127-.127-.5-.17-.426-.355-1.037.009-1.467l15.982-16.967c.317-.338.905-.668 1.896-.332.373.115.557-.012.688-.15.521-.553.633-.748.65-.766 0-.002.002-.002.002-.002 0-.002-.013-.068-.152-.199l-8.167-7.693c-.193-.182-.293-.219-.29-.23-.042.02-.248.129-1.029.754l-1.143.9.376.186c.198.093.279.333.182.531z"/><path d="m156.208 252.764c.198.096.438.016.535-.184.098-.197.017-.438-.183-.535l-.376-.186-.697.549z"/><path d="m126.018 202.536c-1.235-.645-2.759-.754-4.524-.322l-19.847 4.846c-.767.186-1.392-.045-1.804-.666 0 0-.146-.166-.127-.176-.016 0-.137-.004-.568.102l-.862.211c-.204.049-.253.094-.198.314l.876 3.59c.026.109.068.186.077.197.007.002.146.033.669-.096.528-.129.867-.357 1.038-.701.178-.35.344-.576.523-.713.178-.133.456-.244.874-.346l20.398-4.979c.56-.137 1.116-.098 1.654.115.566.229.918.598 1.042 1.102.129.529.019 1.025-.328 1.475-.336.436-.84.738-1.494.896l-20.416 4.986c-.53.129-.895.16-1.148.098-.251-.063-.498-.221-.754-.482-.063-.063-.252-.256-.898-.098-.504.123-.714.203-.798.24.005.043.017.176.017.176l1.738 7.119c.064.262.137.33.133.334.025.004.237.025 1.131-.193.298-.072.41-.123.428-.127.001-.002.002 0 .002 0 .005-.008.054-.078.105-.342.195-.883.789-1.203 1.252-1.316l19.212-4.689c2.087-.51 3.579-1.381 4.434-2.59.854-1.203 1.062-2.738.617-4.559-.396-1.617-1.221-2.762-2.454-3.406z"/><path d="m126.341 137.194c-.318.291-.75.398-1.249.307l-4.364-.801c-3.367-.617-5.598.379-6.817 3.043l-.559 1.219-.204-1.332c-.501-3.273-2.431-5.174-5.901-5.811-2.431-.447-4.513-.143-6.185.902-1.679 1.049-2.686 2.426-2.99 4.09l-1.627 8.867c-.051.275.492.436.957.52.396.074.563.08.6.086.004 0 .006.002.006.004.009-.006.082-.059.217-.287.24-.438.785-.914 2.016-.689l21.512 3.947c.943.172 1.546.672 1.746 1.463.021.098.055.111.072.117.083.031.339.104 1.113.246.314.059.459.029.518.008.031-.012.078-.029.1-.137l1.238-6.756c.037-.205.008-.322-.031-.361-.016-.014-.188-.137-1.074-.299-.473-.086-.672.037-.775.135-.261.254-.508.393-.754.426-.21.029-.523 0-1.018-.09l-9.488-1.74.197-1.07c.27-1.469 1.326-2.109 2.978-1.807l7.411 1.359c.908.166 1.703.154 2.362-.033.591-.168.911-.438.981-.82l.786-4.289c.038-.207.021-.297.035-.303-.04-.021-.241-.109-1.063-.26-.432-.081-.635.046-.746.146zm-14.057 5.428-.257 1.396-13.12-2.406.063-.34.102-.553c.149-.818.518-1.395 1.096-1.711.575-.314 1.408-.367 2.547-.158l5.894 1.082c2.675.49 3.912 1.397 3.675 2.69z"/><path d="m147.386 76.503c-2.363-2.57-4.602-4.445-6.648-5.572-2.032-1.121-3.901-1.732-5.554-1.818-1.614-.084-3.011.404-4.151 1.453-1.814 1.668-2.307 3.953-1.504 6.99.811 3.067 2.787 6.325 5.875 9.685 3.014 3.277 6.039 5.488 8.99 6.57 2.92 1.068 5.215.783 7.021-.879 1.904-1.75 2.411-4.084 1.549-7.137-.874-3.087-2.749-6.214-5.578-9.292zm3.227 15.455c-.362.334-.845.436-1.429.307-.551-.119-1.123-.498-1.697-1.123l-15.267-16.607c-.441-.479-.699-1.004-.77-1.559-.072-.592.076-1.063.447-1.402.587-.541 1.607-.834 3.137.83l15.181 16.511c.414.449.685.967.807 1.535.131.619-.009 1.14-.409 1.508z"/><path d="m205.357 57.159s.014-.006.021-.01c-.016-.197-.111-1.38-.111-1.38l-2.031-24.651c-.072-1.055-.039-1.381-.002-1.547.061-.268.24-.572.58-.977 0 0 .051-.072.051-.07l-.225-.963c-.104-.387-.164-.565-.199-.652-.012.002-.025.004-.025.004l-4.072 1.082s-.059.023-.092.037c.01.09.043.311.178.816l.086.341s.029.142.021.151c.006.006.084.082.4.156.98.217 1.328.792 1.445 1.236l.082.467 1.211 14.68-.682.173-6.003-13.39-.198-.521c-.188-.705-.024-1.328.477-1.804.09-.084.107-.135.117-.104-.01-.04-.234-1.009-.234-1.009-.063-.24-.123-.329-.127-.349 0-.002 0-.001 0-.002-.014.004-7.35 1.941-7.35 1.941s-.017.055.026.219l.064.245.079.229s.091.413.094.434l.039.196s.049.139.068.211c.006.026.01.043.006.045.011.004.365.143.367.143.617.195 1.089.642 1.398 1.323l10.62 22.927c.471 1.011.607 1.191.66 1.236z"/><path d="m188.745 31.222.022.062-.001-.003z"/><path d="m270.96 56.902s.125.015.209.027c.031-.12.078-.308.078-.308l.139-.699c.072-.369.051-.486.051-.492-.002-.004-.041-.116-.313-.363-.594-.555-.617-1.184-.533-1.613l4.334-22.063c.199-1.017.736-1.588 1.518-1.608.068 0 .119-.015.133-.036.01-.017.094-.191.264-1.052.064-.324.064-.437.063-.484-.031-.019-.094-.052-.275-.088l-6.904-1.355c-.17-.033-.178.01-.207.155l-.193.989c-.059.291-.049.392-.049.396.002.005.041.093.252.277.354.287.563.623.623 1.003.051.341.021.784-.09 1.356l-4.263 21.697c-.096.486-.393 1.094-1.262 1.223-.279.049-.33.142-.332.143-.023.053-.121.315-.369 1.477l.109.041z"/><path d="m317.264 86.278c.539-.176.834.041.963.186.182.207.307.52.393.984.172.9.539 1.676 1.094 2.303.891 1.006 2.115 1.504 3.742 1.52 1.623.016 3.318-.746 5.041-2.268 1.479-1.309 2.611-2.754 3.367-4.291.773-1.572 1.809-4.422 3.074-8.47 1.133-3.662 2.107-5.82 2.984-6.596 1.113-.986 1.85-.49 2.188-.107.729.822.496 2.482-.73 5.221-.719 1.596-.758 1.938-.76 1.988.002.023.021.242.553.844.43.486.586.588.584.601.006-.004.121-.079.119-.077 0 0 .357-.414.357-.412l4.068-4.982c.166-.203.24-.33.277-.408-.166-.24-.477-.693-.477-.693-.164-.188-.355-.258-.623-.229-.893.092-1.07.082-1.166.066l-.291-.049-.051-.291c-.271-1.555-.717-2.689-1.322-3.373-.873-.986-2.041-1.408-3.568-1.285-1.559.121-3.152.9-4.746 2.309-1.43 1.266-2.576 2.832-3.406 4.654-.85 1.857-1.797 4.615-2.816 8.198-.43 1.512-.861 2.867-1.285 4.025-.445 1.209-.99 2.109-1.625 2.67-.406.359-.865.545-1.361.547-.518.004-.965-.203-1.326-.611-.891-1.006-.537-2.971 1.082-6.01.51-.943.666-1.342.705-1.504 0-.012.012-.268-.723-1.098-.232-.262-.447-.416-.496-.373 0 0-.793.953-.795.955l-4.021 4.838c-.23.264-.283.385-.293.395 0 .006.021.094.201.297.604.684.968.565 1.089.526z"/><path d="m346.713 150.354c.125-.008.318-.018.318-.018l.707-.08c.373-.043.48-.098.484-.102.004-.002.1-.07.254-.404.35-.727.941-.936 1.377-.986l22.342-2.533c1.029-.115 1.736.219 1.99.953.021.063.051.107.074.113.02.004.211.033 1.082-.066.33-.037.436-.07.48-.086.01-.035.021-.105.002-.287l-.787-6.938c-.02-.168-.063-.164-.211-.146l-1.002.113c-.293.033-.387.072-.391.072-.006.002-.076.066-.189.324-.166.42-.426.719-.77.887-.309.152-.74.258-1.318.324l-21.973 2.49c-.492.057-1.16-.041-1.545-.824-.131-.248-.236-.271-.236-.271-.057-.008-.338-.02-1.518.094l-.006.117.799 7.049c.002 0 .025.123.037.205z"/><path d="m362.803 207.723c-3.975-2.01-7.584-3.018-10.727-2.992-3.109.025-5.158 1.1-6.266 3.289-1.166 2.309-.82 4.674 1.059 7.227 1.904 2.584 4.758 4.854 8.488 6.738 3.115 1.578 5.869 2.545 8.184 2.883 2.297.332 4.262.25 5.838-.25 1.541-.488 2.676-1.436 3.377-2.82 1.111-2.197.768-4.512-1.051-7.072-1.838-2.589-4.832-4.946-8.902-7.003zm8.789 13.436c-.361.713-1.213 1.346-3.23.326l-20.016-10.125c-.543-.275-.98-.662-1.293-1.152-.342-.533-.393-1.072-.148-1.555.223-.441.637-.707 1.232-.791.555-.08 1.223.072 1.98.455l20.131 10.184c.58.293 1.006.693 1.268 1.189.275.527.302 1.021.076 1.469z"/><path d="m325.473 284.502c.027.273-.076.611-.316 1.051-.066.135-.059.193-.057.191.004.014.055.146.406.605.367.475.547.584.604.607.115-.09 3.637-2.793 3.637-2.793s.047-.045.078-.078c-.025-.051-.076-.137-.225-.33-.445-.582-.648-.727-.713-.76-.07-.035-.236-.086-.586-.018-.928.217-1.51-.24-1.834-.664l-6.547-8.529.449-.543s12.691 7.789 13.119 8.051c.336-.258 3.484-2.674 3.484-2.674.186-.143-.182-.664-.35-.881-.359-.469-.52-.555-.551-.57-.063-.025-.213-.066-.531-.016-.441.064-.83-.012-1.148-.227-.275-.188-.584-.504-.939-.969l-13.424-17.492c-.324-.422-.309-.998.045-1.723.084-.162.072-.277-.041-.426-.596-.777-.793-.961-.848-1.006l-.072.039-3.516 2.699s-.066.063-.123.115c.086.133.271.395.709.963.061.08.225.295.766.188.951-.193 1.51.236 1.811.629l8.068 10.512-.449.541s-14.936-9.166-15.365-9.43c-.273.209-1.414 1.084-1.809 1.387.471.613 15.891 20.707 15.891 20.707.222.294.349.575.377.844z"/></g></svg>
