<svg viewBox="0 0 495.5 538.2" xmlns="http://www.w3.org/2000/svg"><g fill="#fff"><path d="m482.6 0h-469.7c-7.1 0-12.9 5.8-12.9 12.9v512.4c0 7.1 5.8 12.9 12.9 12.9h300.3c5.3 0 10.5-1.8 14.7-5l33.7-25.5c.5-.3.2-1-.3-1h.5v-142.4l-182.5 116.9v24c0 .8.7 1.5 1.5 1.5h-143.2c-7.1 0-12.9-5.8-12.9-12.9v-456.2c0-7.1 5.8-12.9 12.9-12.9h418.1c7.1 0 12.9 5.8 12.9 12.9v456.2c0 7.1-5.8 12.9-12.9 12.9h-35.4l-36 27.2c-1.8 1.4-.9 4.3 1.4 4.3h96.9c7.1 0 12.9-5.8 12.9-12.9v-512.4c0-7.1-5.8-12.9-12.9-12.9z"/><path d="m361.7 236.9v-105.7c0-.8-.7-1.5-1.5-1.5h-226.1c-.8 0-1.5.7-1.5 1.5v105.2c0 .8.7 1.5 1.5 1.5h45.1v115.9z"/><path d="m179.2 371.8v30.4l182.5-116.9v-30.3z"/><path d="m179.2 427.9v30.4l182.5-116.9v-30.4z"/></g></svg>