<svg viewBox="0 0 495.5 538.2" xmlns="http://www.w3.org/2000/svg" xmlns:xlink="http://www.w3.org/1999/xlink"><linearGradient id="a" gradientTransform="matrix(1 0 0 -1 0 538.2)" gradientUnits="userSpaceOnUse" x1="179.2" x2="361.7" y1="179.1" y2="179.1"><stop offset="0" stop-color="#4c7abd"/><stop offset="1" stop-color="#45c6e8"/></linearGradient><path d="m313.2 538.2h-300.3c-7.1 0-12.9-5.8-12.9-12.9v-512.4c0-7.1 5.8-12.9 12.9-12.9h469.7c7.1 0 12.9 5.8 12.9 12.9v512.4c0 7.1-5.8 12.9-12.9 12.9h-96.9c-2.3 0-3.2-2.9-1.4-4.3l36-27.2h35.4c7.1 0 12.9-5.8 12.9-12.9v-456.2c0-7.1-5.8-12.9-12.9-12.9h-418.1c-7.1 0-12.9 5.8-12.9 12.9v456.2c0 7.1 5.8 12.9 12.9 12.9h323.6c.5 0 .8.7.3 1l-33.7 25.5c-4.2 3.2-9.4 4.9-14.7 4.9z" fill="#f1f2f2"/><path d="m361.7 131.2v375.5h-181c-.8 0-1.5-.7-1.5-1.5v-267.3h-45.1c-.8 0-1.5-.7-1.5-1.5v-105.2c0-.8.7-1.5 1.5-1.5h226.1c.8 0 1.5.7 1.5 1.5z" fill="#fbfbfb"/><path d="m361.7 236.9v127.4l-182.5 116.9v-127.4z" fill="url(#a)"/></svg>