<svg xmlns="http://www.w3.org/2000/svg" xml:space="preserve" viewBox="0 14 79 40" fill="white"><title>ARD-Logo</title><style>.st0{fill-rule:evenodd;clip-rule:evenodd}</style><path d="M66.5 39.5V24.7L51.7 30v3.7l4.9-1.8V43z" class="st0"></path><path d="M60.8 16.1c-6.1 0-11.5 3.1-14.8 7.7l2.6 1.8c2.7-3.8 7.1-6.4 12.1-6.4 8.1 0 14.6 6.6 14.6 14.8s-6.4 14.8-14.6 14.8c-5 0-9.4-2.6-12.1-6.4l-2.7 1.9c3.2 4.6 8.5 7.7 14.6 7.7 10 0 18-8 18-18 .1-9.8-7.8-17.9-17.7-17.9" class="st0"></path><path d="M38 25.8c-1.7 0-2.9 0-3.8.1h-1.6v16.4h.6c1.3 0 2.7.1 4.3.1 5.7 0 8.7-2.9 8.7-8.4-.1-5.4-2.9-8.2-8.2-8.2m-.2 13.7c-.6 0-1.5 0-1.9-.1V28.6c.5 0 1.2-.1 1.9-.1 3.3 0 4.9 1.8 4.9 5.5 0 3.8-1.5 5.5-4.9 5.5M10.1 25.9 6 25.8.3 42.3h3.4l1-3.4H11l1 3.4h3.6zM5.7 36.1l1.6-5c.2-.7.4-1.5.6-2.2.1.6.3 1.3.6 2.2l1.6 5zM26.9 36.7c-.3-.4-.6-.8-.8-1.2 2.1-.8 3.4-2.4 3.4-4.7 0-3.3-2-5-5.9-5-1.7 0-3.3 0-4.4.1h-1.4v16.4H21V36h1.8l3.7 6.3h4zM21 28.6h2.3q2.7 0 2.7 2.4c0 1.5-.9 2.4-2.8 2.4H21z"></path></svg>
