<svg fill="#fff" viewBox="0 14 79 40" xmlns="http://www.w3.org/2000/svg"><path clip-rule="evenodd" d="m66.5 39.5v-14.8l-14.8 5.3v3.7l4.9-1.8v11.1z" fill-rule="evenodd"/><path clip-rule="evenodd" d="m60.8 16.1c-6.1 0-11.5 3.1-14.8 7.7l2.6 1.8c2.7-3.8 7.1-6.4 12.1-6.4 8.1 0 14.6 6.6 14.6 14.8s-6.4 14.8-14.6 14.8c-5 0-9.4-2.6-12.1-6.4l-2.7 1.9c3.2 4.6 8.5 7.7 14.6 7.7 10 0 18-8 18-18 .1-9.8-7.8-17.9-17.7-17.9" fill-rule="evenodd"/><path d="m38 25.8c-1.7 0-2.9 0-3.8.1h-1.6v16.4h.6c1.3 0 2.7.1 4.3.1 5.7 0 8.7-2.9 8.7-8.4-.1-5.4-2.9-8.2-8.2-8.2m-.2 13.7c-.6 0-1.5 0-1.9-.1v-10.8c.5 0 1.2-.1 1.9-.1 3.3 0 4.9 1.8 4.9 5.5 0 3.8-1.5 5.5-4.9 5.5m-27.7-13.6-4.1-.1-5.7 16.5h3.4l1-3.4h6.3l1 3.4h3.6zm-4.4 10.2 1.6-5c.2-.7.4-1.5.6-2.2.1.6.3 1.3.6 2.2l1.6 5zm21.2.6c-.3-.4-.6-.8-.8-1.2 2.1-.8 3.4-2.4 3.4-4.7 0-3.3-2-5-5.9-5-1.7 0-3.3 0-4.4.1h-1.4v16.4h3.2v-6.3h1.8l3.7 6.3h4zm-5.9-8.1h2.3q2.7 0 2.7 2.4c0 1.5-.9 2.4-2.8 2.4h-2.2z"/></svg>