<svg viewBox="0 0 2000 1483" xmlns="http://www.w3.org/2000/svg"><path d="m1864.1 451.8h-8.2c-41.5 0-75.2 13.6-98.4 37.5s-36.1 58-36.1 99.2c0 40.8 12.9 74.2 36.1 97.5s56.9 36.4 98.4 36.4h8.2c42.2 0 76.2-13.1 99.6-36.4s36.3-56.8 36.3-97.5-12.9-74.9-36.3-98.9c-23.4-24.1-57.4-37.8-99.6-37.8m-2.1 182h-2.6c-13.4 0-23.8-4.5-30.8-12.4s-10.7-19.3-10.7-33.2c0-15.2 3.7-27.2 10.7-35.5s17.4-12.7 30.8-12.7h2.6c13.4 0 23.8 4.5 30.8 12.7s10.7 20.3 10.7 35.5c0 13.8-3.7 25.2-10.7 33.2-7 8.1-17.4 12.4-30.8 12.4m-547.7-283.7v352.2c0 5.1 2.1 9.8 5.4 13.1s8 5.4 13.1 5.4h100.8c5.1 0 9.8-2.1 13.1-5.4s5.4-8 5.4-13.1v-91.2h59l19.8 49.1 19.8 49.1c1.4 3.5 3.8 6.4 6.8 8.5s6.6 3.2 10.4 3.2h120.8c4.9 0 9-2.5 11.4-6.2 2.4-3.6 3.1-8.4 1.1-12.9l-25.4-58.8-25.4-58.8c16.8-12.1 30.1-27.5 39.3-45.9s14.2-39.9 14.2-64c0-45.5-15.4-82.1-43.5-107.2s-69-38.8-119.9-38.8h-204.8c-6 0-11.4 2.4-15.3 6.3s-6.1 9.4-6.1 15.4m138 90.9h68.4c12.1 0 21.8 3 28.5 8.9s10.4 14.6 10.4 26c0 10.7-3.7 19.1-10.4 24.8s-16.4 8.7-28.5 8.7h-68.4zm68.5 318.8h-16c-63.6 0-115.2 19.8-150.9 55.3s-55.4 86.7-55.4 149.7 19.8 113.5 55.4 148.4 87.2 53.9 150.9 53.9h17.4c62.3 0 112.5-19.1 147.2-53.9s53.8-85.4 53.8-148.4-19.4-114.2-54.4-149.7c-35.1-35.6-85.7-55.3-148-55.3m-6.7 278.6h-4c-20.8 0-36.8-6.7-47.7-19.3s-16.6-31-16.6-54.4c0-24.1 5.7-43.2 16.6-56.3s27-20.1 47.7-20.1h4c20.1 0 35.5 7 45.9 20.1s15.7 32.2 15.7 56.3c0 23.4-5.4 41.9-15.7 54.4-10.4 12.7-25.8 19.3-45.9 19.3m-314.8 74.7c24.8-17.4 42.5-39.9 54.1-66s16.9-55.9 16.9-88.1c0-61-20.8-109.8-58.6-143.5s-92.8-52.1-161.1-52.1h-285.5c-6.2 0-11.9 2.5-16 6.6s-6.6 9.8-6.6 16v497.2c0 6.2 2.5 11.9 6.6 16s9.8 6.6 16 6.6h140.9c6.2 0 11.9-2.5 16-6.6s6.6-9.8 6.6-16v-131.4h81.8l28.6 70 28.6 70c1.7 4.3 4.7 7.8 8.3 10.2 3.7 2.5 8 3.8 12.6 3.8h168.2c6 0 11.1-3.1 14.1-7.6s3.8-10.3 1.4-15.9l-36.5-84.7zm-172.8-101.9h-97.8v-92.4h97.8c15.4 0 28.1 4.3 37 12.4 8.9 8 13.9 19.8 13.9 34.5s-5 26.1-13.9 33.8-21.6 11.7-37 11.7m882.7-145.5-22.8-4-22.8-4c-7.4-1.3-12.7-3.3-16.2-6-3.5-2.8-5.2-6.4-5.2-11.1 0-5 2.3-9 6.8-11.8s11.1-4.3 19.8-4.3c9.5 0 16.2 1.9 20.7 4.9s6.8 7 7.5 11.2c.7 3.9 2 6.4 3.9 7.9s4.3 2.1 7.1 2.1h66.4c4.4 0 7.5-1.3 9.5-3.5s3-5.1 3-8.4c-1.3-23.3-11.1-43-30-56.9s-47.1-21.9-85.2-21.9h-8c-37.5 0-66.3 8.8-85.7 23.9-19.4 15-29.5 36.3-29.5 61.1 0 19.4 6.3 35.9 19 48.8s31.8 22.1 57.4 27l24.8 4.7 24.8 4.7c8 1.3 13.7 3.3 17.4 6.4s5.4 7 5.4 12.4c0 5.1-2.3 9.5-6.8 12.5s-11.2 4.8-19.9 4.8c-9.4 0-16.2-1.6-20.9-4.7-4.7-3.2-7.3-7.9-8.3-14.3-.2-2.2-1.1-4.3-2.8-5.8s-4.2-2.5-7.5-2.5h-70.4c-4.3 0-7.3 1.5-9.3 3.9s-2.9 5.5-2.9 8.8c1.1 23.9 9.9 44 29.3 58.1s49.4 22.2 92.9 22.2h6.6c34.8 0 63.6-8 83.6-22.8 20-14.7 31.3-36.2 31.3-63 0-21.4-6.7-39.2-20.4-52.8-13.7-13.5-34.5-23-62.6-27.6m-1443.4 594.5v-495.9h202.4c6.2 0 11.9-2.5 16-6.6s6.6-9.8 6.6-16v-155.5c0-6.2-2.5-11.9-6.6-16s-9.8-6.6-16-6.6h-640.6c-6.2 0-11.9 2.5-16 6.6s-6.6 9.8-6.6 16v155.6c0 6.2 2.5 11.9 6.6 16s9.8 6.6 16 6.6h202.4v495.8c0 6.2 2.5 11.9 6.6 16s9.8 6.6 16 6.6h190.4c6.2 0 11.9-2.5 16-6.6 4.2-4.1 6.8-9.8 6.8-16m417.7-756.7c2 5.3 5.5 9.7 9.9 12.7s9.7 4.8 15.3 4.8h216.2c5.8 0 11.2-1.8 15.7-5s7.9-7.8 9.8-13.2l88.2-252.8 88.2-252.8c1.7-4.9.7-9.9-2-13.7s-7.1-6.3-12.3-6.3h-172c-5 0-9.8 1.7-13.6 4.6s-6.8 7-8.2 11.8l-47.3 153.7-47.4 153.7c-.9 2.8-3.8 4.1-6.7 4.1s-5.7-1.5-6.5-4.2l-50-154-50-154c-1.5-4.7-4.4-8.6-8.2-11.4s-8.4-4.3-13.3-4.3h-183c-5.3 0-9.8 2.6-12.5 6.5s-3.6 9-1.8 13.9l95.7 253zm-866.7 17.5h203.8c4.9 0 9.4-1.5 13.2-4.2s6.7-6.5 8.2-11.2l16.3-49.7 16.3-49.7h260l16.8 49.7 16.8 49.7c1.5 4.6 4.5 8.5 8.2 11.2 3.8 2.7 8.3 4.2 13.2 4.2h211.4c5.9 0 10.8-2.9 13.8-7.2s4-10 1.9-15.5l-128.3-340.3-128.3-340.2c-2-5.3-5.5-9.6-9.9-12.7s-9.7-4.8-15.3-4.8h-265.7c-5.7 0-11.1 1.8-15.5 4.9s-7.9 7.6-9.8 13l-121.5 340.2-121.4 340.1c-1.9 5.5-.9 11.1 2.1 15.3s7.9 7.2 13.7 7.2m392.5-486.1 33.9 100.4 33.9 100.4h-146.6l32.9-100.2 32.8-100.3c.9-2.9 3.6-4.4 6.5-4.4 2.8 0 5.6 1.3 6.6 4.1" fill="#fff"/></svg>