<svg fill="#fff" viewBox="0 0 112 32" xmlns="http://www.w3.org/2000/svg"><path d="m111.99999.00004444v31.99999996h-31.9999995v-31.99999996zm-39.9999781-.00004444v32h-32v-32zm-40.0000119 0v32h-32v-32zm65.469329 6.80826869c-1.4398893 0-2.7398897.21400007-3.9000012.64155575-1.1603336.42800013-2.1555561 1.0448892-2.9852231 1.85066722-.8302224.80622244-1.4652226 1.77277834-1.9055561 2.89944534-.4406668 1.1270003-.660778 2.3896673-.660778 3.7876678 0 1.4312226.211889 2.7186674.6353336 3.8617789.4232223 1.1435559 1.0330003 2.1097784 1.8293338 2.8994453.7960003.7895558 1.7697783 1.3942226 2.9217787 1.8136672 1.151667.4194446 2.4474452.6292224 3.8872234.6292224 1.0837781 0 2.1172228-.1195556 3.0997789-.357889.982111-.2382223 1.845889-.5632224 2.591445-.9745558v-3.4300011c-1.575334.9708892-3.2945566 1.4558894-5.1575571 1.4558894-1.219667 0-2.2572229-.2302223-3.1124454-.6908891-.8554447-.4604446-1.5076671-1.1308893-1.9562228-2.0111117-.4491112-.8798892-.6733335-1.9451117-.6733335-3.1955565 0-1.2498893.2325556-2.3110007.6985557-3.1831121.465778-.871778 1.1346671-1.5380005 2.0072229-1.9986673.8721113-.4604445 1.9266672-.6910002 3.1632231-.6910002.8975559 0 1.7531117.1194445 2.5660011.3577779.813111.2386668 1.566556.5883335 2.261334 1.048667v-3.50388994c-.762223-.39477789-1.588001-.69477798-2.477223-.90066693-.8892227-.20544451-1.8336675-.30844454-2.83289-.30844454zm-41.7140902.19173339h-6.7552242v18.00000002h7.1713355c1.4195559 0 2.6350007-.2096614 3.6467788-.6293282 1.011667-.4193334 1.7906672-1.0153336 2.3374452-1.787445.5464446-.771778.8198891-1.6950005.8198891-2.769223 0-1.0907781-.2813334-2.0180006-.8442225-2.7818897-.5631113-.7634447-1.3748893-1.3216671-2.4354452-1.6741116.7667781-.368889 1.3462227-.8685558 1.7377783-1.4978894.3916668-.6293335.5874447-1.3720004.5874447-2.2280006 0-1.493556-.546778-2.63900081-1.6397783-3.43633438-1.0934448-.79688913-2.6354452-1.19577814-4.6260014-1.19577814zm-40.0000119 0h-6.75522422v18.00000002h7.17133542c1.419556 0 2.6348897-.2096614 3.64689-.6293282 1.0114448-.4193334 1.7905561-1.0153336 2.337334-1.787445.5465558-.771778.8200003-1.6950005.8200003-2.769223 0-1.0907781-.2814445-2.0180006-.8444447-2.7818897-.5628891-.7634447-1.3747782-1.3216671-2.4353341-1.6741116.766778-.368889 1.3461116-.8685558 1.7377783-1.4978894.3916668-.6293335.5874447-1.3720004.5874447-2.2280006 0-1.493556-.5468891-2.63900081-1.6398894-3.43633438-1.0933337-.79688913-2.6353341-1.19577814-4.6258903-1.19577814zm40.1223564 10.22093642c2.2352229 0 3.3532232.8225558 3.3532232 2.4672229 0 .7721114-.293889 1.3636671-.8811114 1.7747783-.5874446.4114446-1.4280004.616778-2.5210007.616778h-3.1817787v-4.8587792zm-40.0000119 0c2.235334 0 3.3532232.8225558 3.3532232 2.4672229 0 .7721114-.2937779 1.3636671-.8811114 1.7747783-.5874446.4114446-1.4280004.616778-2.5210007.616778h-3.1817787v-4.8587792zm39.5350006-7.30065777c1.9415562 0 2.9126676.71355577 2.9126676 2.13977837 0 .738778-.248889 1.3134449-.7465558 1.7245561-.497889.4114446-1.2198892.616778-2.1661118.616778h-2.7656674v-4.48111247zm-40.0000119 0c1.9415562 0 2.9126676.71355577 2.9126676 2.13977837 0 .738778-.2490001 1.3134449-.7465558 1.7245561-.497889.4114446-1.2198893.616778-2.1661118.616778h-2.7656674v-4.48111247z"/></svg>