<svg viewBox="0 0 79.3 27.1" xmlns="http://www.w3.org/2000/svg"><g fill="#fefefe" fill-rule="evenodd"><path d="m4.9 0h69.4s0 0 0 0c.9 0 1.8.3 2.5.7.2.1.5.3.7.5 1.1.9 1.8 2.3 1.8 3.8v17.2c0 .9-.2 1.8-.7 2.5-.2.3-.3.5-.5.8-.2.2-.4.5-.7.6-.8.7-1.9 1.1-3 1.1s-69.4 0-69.4 0c-1.1 0-2.1-.4-2.9-1-.2-.1-.4-.3-.6-.5-.9-.9-1.5-2.1-1.5-3.5v-17.2c0-1.4.6-2.6 1.4-3.5s.3-.3.5-.4c.9-.7 1.9-1.1 3-1.1zm69.4 1.6h-69.4c-.8 0-1.5.3-2 .7-.1 0-.2.2-.3.3-.6.6-1 1.4-1 2.3v17.2c0 .9.4 1.7 1 2.3.1.1.2.2.4.3.5.4 1.2.6 2 .6s0 0 0 0h69.4c.8 0 1.5-.3 2-.7.2-.1.3-.3.5-.4.1-.2.3-.3.4-.5.3-.5.5-1.1.5-1.7v-17c0-1-.5-1.9-1.2-2.5-.1-.1-.3-.2-.5-.3-.5-.3-1.1-.5-1.7-.5s0 0 0 0z"/><path d="m25.9 8.3h1.7c.5 0 .9.4.9.9v2.9h7.3v-2.9c0-.4.4-.8.9-.8h1.7c.5 0 .9.4.9.9v8.8c0 .5-.4.9-.9.9h-1.6c-.5 0-.8-.4-.9-.8v-3h-7.3v2.9c0 .5-.4.9-.9.9h-1.6c-.5 0-.8-.4-.9-.9v-8.9c0-.5.4-.8.9-.9m43.3 0h-11.1c-.5 0-.9.4-.9.9v.9c0 .5.4.9.9.9h3.8v7c0 .5.4.9.9.9h1.5c.5 0 .9-.4.9-.9v-7h3.8c.5 0 .9-.4.9-.9v-.9c0-.5-.4-.8-.9-.9m-60.2 9.7v-8.9c0-.5.4-.9.9-.9h6.7 1.9 1c.3 0 .6 0 .9.1.2 0 .5.2.7.3.3.2.5.5.7.8.2.4.2.9.2 1.5s-.1 1.3-.3 1.7-.6.6-1.1.8c.5 0 .8.2 1 .4.5.3.8 1.1.8 2.2s-.1 1.5-.4 1.9c-.2.3-.4.5-.7.6-.2 0-.4.1-.6.2-.2 0-.5 0-.7 0-.5 0-1 0-1.5 0s-1.1 0-1.7 0h-6.8c-.5 0-.8-.4-.9-.9zm3.1-5.6h4.6c1 0 1.6 0 1.8-.1.3-.1.4-.4.4-.8s-.2-.7-.5-.7c0 0-.2 0-.5 0s-.7 0-1.2 0h-4.6v1.7zm0 3.9h5.8.5.4c.3-.1.4-.4.4-.8s-.2-.7-.5-.8c0 0-.2 0-.6 0-.3 0-.8 0-1.5 0h-4.6v1.7zm30.6-8h6.7 1.9 1c.3 0 .6 0 .9.1 1.5.4 1.5 1.8 1.5 3.2 0 1.8-.7 2.6-2.1 2.9l1.3 3.5c.2.5 0 .9-.5.9h-1.7c-.5 0-.6-.5-.8-.9l-1.2-3.3h-4.7v3.3c0 .5-.4.9-.9.9h-1.3c-.5 0-.8-.4-.9-.8v-8.7c0-.5.3-1 .9-1zm2.2 2.5v1.7h4.6c1 0 1.6 0 1.8-.1.3-.1.4-.4.4-.8s-.2-.7-.5-.7c0 0-.2 0-.5 0s-.7 0-1.2 0h-4.6z"/></g></svg>