<svg viewBox="0 0 40.4 40.4" xmlns="http://www.w3.org/2000/svg"><g fill="#fff"><path d="m0 0h40.4v13.5h-40.4z"/><path d="m0 26.9h40.4v13.5h-40.4z"/><path d="m6.6 16.6h5.9v1.5h-3.9v1.1h1.8c.9 0 1.5.2 2 .5.5.4.7.9.7 1.6s-.3 1.3-.8 1.7-1.2.6-2.2.6h-3.5v-7.1zm3.4 5.7c.3 0 .6 0 .8-.2.2-.1.3-.3.3-.6 0-.5-.3-.7-1-.7h-1.4v1.5h1.4z"/><path d="m24.1 16.6v7.1h-2v-2.8h-2.7v2.8h-2v-7.1h2v2.7h2.7v-2.7z"/><path d="m34.6 18.2h-2.2v5.5h-2v-5.5h-2.2v-1.6h6.3v1.6z"/><path d="m3.3 19.3h1.7v1.7h-1.7z"/><path d="m14 19.3h1.7v1.7h-1.7z"/><path d="m25.8 19.3h1.7v1.7h-1.7z"/><path d="m35.4 19.3h1.7v1.7h-1.7z"/></g></svg>