<?xml version="1.0" encoding="UTF-8"?>
<!-- Generator: Adobe Illustrator 16.0.3, SVG Export Plug-In . SVG Version: 6.00 Build 0)  -->
<!DOCTYPE svg PUBLIC "-//W3C//DTD SVG 1.1//EN" "http://www.w3.org/Graphics/SVG/1.1/DTD/svg11.dtd">
<svg version="1.1" id="Layer_1" xmlns="http://www.w3.org/2000/svg" xmlns:xlink="http://www.w3.org/1999/xlink" x="0px" y="0px" width="144.25px" height="42.75px" viewBox="0 0 144.25 42.75" enable-background="new 0 0 144.25 42.75" xml:space="preserve">
<polygon fill="#FFFFFF" points="57.199,1.477 77.376,1.477 97.553,1.477 97.553,8.203 97.553,14.928 77.376,14.928 57.199,14.928   57.199,8.203 "/>
<rect x="57.199" y="28.379" fill="#FFFFFF" width="40.354" height="13.452"/>
<g>
	<defs>
		<rect id="SVGID_1_" x="-14.75" y="-6.693" width="184.252" height="56.693"/>
	</defs>
	<clipPath id="SVGID_2_">
		<use xlink:href="#SVGID_1_" overflow="visible"/>
	</clipPath>
	<path clip-path="url(#SVGID_2_)" fill="#FFFFFF" d="M63.832,18.113h5.915v1.549h-3.944v1.142h1.831   c0.856,0,1.513,0.183,1.971,0.546c0.458,0.365,0.688,0.887,0.688,1.568c0,0.714-0.256,1.271-0.769,1.673   c-0.512,0.401-1.23,0.603-2.153,0.603h-3.539V18.113z M67.239,23.757c0.337,0,0.594-0.067,0.769-0.203   c0.175-0.134,0.262-0.326,0.262-0.575c0-0.498-0.344-0.748-1.031-0.748h-1.436v1.526H67.239z"/>
	<polygon clip-path="url(#SVGID_2_)" fill="#FFFFFF" points="81.294,18.114 81.294,25.192 79.292,25.192 79.292,22.432    76.563,22.432 76.563,25.192 74.561,25.192 74.561,18.114 76.563,18.114 76.563,20.774 79.292,20.774 79.292,18.114  "/>
	<polygon clip-path="url(#SVGID_2_)" fill="#FFFFFF" points="91.749,19.702 89.585,19.702 89.585,25.192 87.613,25.192    87.613,19.702 85.439,19.702 85.439,18.114 91.749,18.114  "/>
	<rect x="60.516" y="20.773" clip-path="url(#SVGID_2_)" fill="#FFFFFF" width="1.658" height="1.658"/>
	<rect x="71.243" y="20.773" clip-path="url(#SVGID_2_)" fill="#FFFFFF" width="1.658" height="1.658"/>
	<rect x="82.952" y="20.773" clip-path="url(#SVGID_2_)" fill="#FFFFFF" width="1.658" height="1.658"/>
	<rect x="92.578" y="20.773" clip-path="url(#SVGID_2_)" fill="#FFFFFF" width="1.658" height="1.658"/>
	<path clip-path="url(#SVGID_2_)" fill="#FFFFFF" d="M10.535,10.391h3.587v0.819h-2.564v0.914h1.231   c1.072,0,1.651,0.457,1.651,1.308c0,0.889-0.655,1.402-1.797,1.402h-2.108V10.391z M12.586,14.072c0.526,0,0.812-0.209,0.812-0.609   c0-0.394-0.273-0.583-0.812-0.583h-1.028v1.193H12.586z"/>
	<path clip-path="url(#SVGID_2_)" fill="#FFFFFF" d="M19.62,13.285c0,1.021-0.685,1.549-1.828,1.549h-2v-3.605h-1.25v-0.838h2.266   v1.46h1.136C19.011,11.851,19.62,12.326,19.62,13.285 M18.585,13.305c0-0.489-0.317-0.692-0.851-0.692h-0.926v1.459h0.926   C18.268,14.072,18.585,13.806,18.585,13.305"/>
	<polygon clip-path="url(#SVGID_2_)" fill="#FFFFFF" points="23.524,14.834 22.178,11.666 20.808,14.834 19.779,14.834    21.704,10.391 22.718,10.391 24.642,14.834  "/>
	<polygon clip-path="url(#SVGID_2_)" fill="#FFFFFF" points="28.375,11.229 26.262,11.229 26.268,14.834 25.246,14.834    25.246,10.391 28.382,10.391  "/>
	<path clip-path="url(#SVGID_2_)" fill="#FFFFFF" d="M31.245,13.882h-2.062l-0.394,0.952h-1.061l1.981-4.443h1.016l1.987,4.443   h-1.073L31.245,13.882z M30.915,13.102l-0.704-1.701l-0.705,1.701H30.915z"/>
	<path clip-path="url(#SVGID_2_)" fill="#FFFFFF" d="M37.162,12.003c0,0.99-0.736,1.606-1.93,1.606h-0.888v1.225H33.31v-4.443h1.922   C36.426,10.391,37.162,11.006,37.162,12.003 M36.128,12.003c0-0.489-0.324-0.774-0.946-0.774h-0.838v1.543h0.838   C35.804,12.772,36.128,12.485,36.128,12.003"/>
	<path clip-path="url(#SVGID_2_)" fill="#FFFFFF" d="M37.602,12.612c0-1.339,1.021-2.298,2.412-2.298   c0.768,0,1.409,0.279,1.828,0.787l-0.66,0.61c-0.299-0.343-0.673-0.521-1.117-0.521c-0.832,0-1.422,0.584-1.422,1.422   s0.59,1.422,1.422,1.422c0.444,0,0.818-0.178,1.117-0.526l0.66,0.609c-0.419,0.514-1.06,0.793-1.835,0.793   C38.623,14.91,37.602,13.951,37.602,12.612"/>
	<polygon clip-path="url(#SVGID_2_)" fill="#FFFFFF" points="44.235,13.044 43.524,13.044 43.524,14.834 42.502,14.834    42.502,10.391 43.524,10.391 43.524,12.188 44.26,12.188 45.428,10.391 46.513,10.391 45.06,12.536 46.558,14.834 45.39,14.834     "/>
	<path clip-path="url(#SVGID_2_)" fill="#FFFFFF" d="M49.962,13.882h-2.063l-0.394,0.952h-1.06l1.981-4.443h1.016l1.986,4.443   h-1.072L49.962,13.882z M49.632,13.102l-0.705-1.701l-0.704,1.701H49.632z"/>
	<polygon clip-path="url(#SVGID_2_)" fill="#FFFFFF" points="4.319,19.379 4.319,23.822 3.284,23.822 3.284,22 1.272,22    1.272,23.822 0.237,23.822 0.237,19.379 1.272,19.379 1.272,21.131 3.284,21.131 3.284,19.379  "/>
	<path clip-path="url(#SVGID_2_)" fill="#FFFFFF" d="M8.434,22.87H6.371l-0.394,0.952h-1.06l1.981-4.443h1.016l1.986,4.443H8.828   L8.434,22.87z M8.104,22.09l-0.705-1.701L6.694,22.09H8.104z"/>
	<polygon clip-path="url(#SVGID_2_)" fill="#FFFFFF" points="15.156,22.984 15.156,24.762 14.211,24.762 14.211,23.822    10.497,23.822 10.497,19.379 11.519,19.379 11.519,22.984 13.5,22.984 13.5,19.379 14.521,19.379 14.521,22.984  "/>
	<polygon clip-path="url(#SVGID_2_)" fill="#FFFFFF" points="15.837,19.379 16.858,19.379 16.858,22.273 18.979,19.379    19.943,19.379 19.943,23.822 18.928,23.822 18.928,20.934 16.808,23.822 15.837,23.822  "/>
	<path clip-path="url(#SVGID_2_)" fill="#FFFFFF" d="M20.738,21.601c0-1.319,1.028-2.298,2.43-2.298   c1.397,0,2.425,0.971,2.425,2.298s-1.028,2.298-2.425,2.298C21.767,23.898,20.738,22.921,20.738,21.601 M24.56,21.601   c0-0.845-0.604-1.422-1.391-1.422c-0.793,0-1.389,0.577-1.389,1.422s0.596,1.422,1.389,1.422   C23.956,23.022,24.56,22.445,24.56,21.601"/>
	<polygon clip-path="url(#SVGID_2_)" fill="#FFFFFF" points="30.477,19.379 30.477,23.822 29.442,23.822 29.442,22 27.43,22    27.43,23.822 26.396,23.822 26.396,19.379 27.43,19.379 27.43,21.131 29.442,21.131 29.442,19.379  "/>
	<path clip-path="url(#SVGID_2_)" fill="#FFFFFF" d="M34.591,22.87h-2.062l-0.394,0.952h-1.061l1.981-4.443h1.016l1.987,4.443   h-1.073L34.591,22.87z M34.261,22.09l-0.704-1.701l-0.705,1.701H34.261z"/>
	<polygon clip-path="url(#SVGID_2_)" fill="#FFFFFF" points="40.045,23.822 38.699,20.654 37.328,23.822 36.3,23.822 38.223,19.379    39.238,19.379 41.162,23.822  "/>
	<polygon clip-path="url(#SVGID_2_)" fill="#FFFFFF" points="45.848,19.379 45.848,23.822 44.813,23.822 44.813,22 42.801,22    42.801,23.822 41.766,23.822 41.766,19.379 42.801,19.379 42.801,21.131 44.813,21.131 44.813,19.379  "/>
	<path clip-path="url(#SVGID_2_)" fill="#FFFFFF" d="M49.962,22.87h-2.063l-0.394,0.952h-1.06l1.981-4.443h1.016l1.986,4.443h-1.072   L49.962,22.87z M49.632,22.09l-0.705-1.701l-0.704,1.701H49.632z"/>
	<polygon clip-path="url(#SVGID_2_)" fill="#FFFFFF" points="13.887,29.206 12.465,29.206 12.465,32.812 11.449,32.812    11.449,29.206 10.034,29.206 10.034,28.368 13.887,28.368  "/>
	<polygon clip-path="url(#SVGID_2_)" fill="#FFFFFF" points="17.982,31.986 17.982,32.812 14.535,32.812 14.535,28.368    17.894,28.368 17.894,29.193 15.558,29.193 15.558,30.158 17.627,30.158 17.627,30.958 15.558,30.958 15.558,31.986  "/>
	<polygon clip-path="url(#SVGID_2_)" fill="#FFFFFF" points="22.052,32.812 20.706,29.645 19.334,32.812 18.307,32.812    20.229,28.368 21.245,28.368 23.168,32.812  "/>
	<polygon clip-path="url(#SVGID_2_)" fill="#FFFFFF" points="27.22,31.986 27.22,32.812 23.772,32.812 23.772,28.368 27.131,28.368    27.131,29.193 24.795,29.193 24.795,30.158 26.865,30.158 26.865,30.958 24.795,30.958 24.795,31.986  "/>
	<path clip-path="url(#SVGID_2_)" fill="#FFFFFF" d="M31.962,31.561c0,0.775-0.603,1.251-1.727,1.251h-2.189v-4.443h2.069   c1.029,0,1.638,0.413,1.638,1.149c0,0.45-0.235,0.787-0.629,0.977C31.664,30.653,31.962,31.021,31.962,31.561 M29.067,30.209h0.959   c0.445,0,0.679-0.184,0.679-0.539c0-0.35-0.234-0.54-0.679-0.54h-0.959V30.209z M30.921,31.479c0-0.375-0.247-0.553-0.724-0.553   h-1.13v1.124h1.13C30.674,32.05,30.921,31.865,30.921,31.479"/>
	<polygon clip-path="url(#SVGID_2_)" fill="#FFFFFF" points="32.775,28.368 33.797,28.368 33.797,31.264 35.918,28.368    36.882,28.368 36.882,32.812 35.867,32.812 35.867,29.924 33.748,32.812 32.775,32.812  "/>
	<path clip-path="url(#SVGID_2_)" fill="#FFFFFF" d="M41.34,31.567c0,0.838-0.914,1.32-1.98,1.32c-0.591,0-1.219-0.146-1.772-0.464   l0.317-0.736c0.407,0.248,0.902,0.362,1.333,0.362c0.584,0,1.061-0.215,1.061-0.628c0-0.336-0.305-0.501-0.769-0.501h-1.085v-0.775   h1.009c0.419,0,0.66-0.184,0.66-0.475c0-0.363-0.393-0.554-0.894-0.554c-0.375,0-0.813,0.102-1.193,0.317l-0.312-0.8   c0.482-0.248,1.016-0.361,1.523-0.361c1.029,0,1.917,0.469,1.917,1.275c0,0.432-0.247,0.774-0.64,0.945   C41.028,30.672,41.34,31.066,41.34,31.567"/>
	<polygon clip-path="url(#SVGID_2_)" fill="#FFFFFF" points="42.153,28.368 43.174,28.368 43.174,31.264 45.295,28.368    46.259,28.368 46.259,32.812 45.244,32.812 45.244,29.924 43.125,32.812 42.153,32.812  "/>
	<path clip-path="url(#SVGID_2_)" fill="#FFFFFF" d="M50.914,28.368v4.443h-1.016v-1.181h-0.939l-0.787,1.181h-1.086l0.927-1.339   c-0.597-0.242-0.933-0.75-0.933-1.447c0-1.034,0.742-1.657,1.917-1.657H50.914z M48.121,30.012c0,0.515,0.298,0.807,0.876,0.807   h0.901v-1.612h-0.876C48.438,29.206,48.121,29.479,48.121,30.012"/>
	<path clip-path="url(#SVGID_2_)" fill="#FFFFFF" d="M107.968,13.695c0,0.781-0.62,1.234-1.808,1.234h-2.336v-4.52h2.207   c1.13,0,1.71,0.472,1.71,1.175c0,0.452-0.231,0.801-0.6,0.994C107.644,12.74,107.968,13.128,107.968,13.695 M104.863,11.198v1.065   h1.039c0.51,0,0.787-0.181,0.787-0.535c0-0.356-0.277-0.53-0.787-0.53H104.863z M106.915,13.586c0-0.381-0.29-0.563-0.832-0.563   h-1.22v1.119h1.22C106.625,14.143,106.915,13.975,106.915,13.586"/>
	<path clip-path="url(#SVGID_2_)" fill="#FFFFFF" d="M108.728,12.94v-2.53h1.046v2.492c0,0.858,0.374,1.213,1.007,1.213   c0.639,0,1.007-0.354,1.007-1.213v-2.492h1.032v2.53c0,1.33-0.762,2.065-2.046,2.065S108.728,14.271,108.728,12.94"/>
	<polygon clip-path="url(#SVGID_2_)" fill="#FFFFFF" points="113.857,10.41 114.902,10.41 114.902,14.077 117.168,14.077    117.168,14.93 113.857,14.93  "/>
	<path clip-path="url(#SVGID_2_)" fill="#FFFFFF" d="M120.734,12.599h0.955v1.833c-0.497,0.374-1.183,0.574-1.826,0.574   c-1.421,0-2.466-0.975-2.466-2.336c0-1.362,1.045-2.337,2.483-2.337c0.795,0,1.453,0.272,1.893,0.782l-0.671,0.619   c-0.33-0.349-0.71-0.51-1.169-0.51c-0.878,0-1.478,0.588-1.478,1.446c0,0.846,0.6,1.445,1.465,1.445   c0.284,0,0.549-0.052,0.813-0.193V12.599z"/>
	<path clip-path="url(#SVGID_2_)" fill="#FFFFFF" d="M125.638,13.961h-2.099l-0.399,0.969h-1.071l2.014-4.52h1.032l2.021,4.52   h-1.099L125.638,13.961z M125.308,13.167l-0.716-1.73l-0.717,1.73H125.308z"/>
	<path clip-path="url(#SVGID_2_)" fill="#FFFFFF" d="M130.489,14.929l-0.871-1.259h-0.052h-0.91v1.259h-1.045V10.41h1.955   c1.207,0,1.962,0.627,1.962,1.64c0,0.678-0.342,1.175-0.929,1.427l1.014,1.452H130.489z M129.509,11.263h-0.853v1.575h0.853   c0.639,0,0.962-0.297,0.962-0.788C130.471,11.553,130.147,11.263,129.509,11.263"/>
	<rect x="132.359" y="10.41" clip-path="url(#SVGID_2_)" fill="#FFFFFF" width="1.045" height="4.52"/>
	<path clip-path="url(#SVGID_2_)" fill="#FFFFFF" d="M137.454,13.961h-2.099l-0.399,0.969h-1.071l2.014-4.52h1.032l2.021,4.52   h-1.099L137.454,13.961z M137.124,13.167l-0.716-1.73l-0.717,1.73H137.124z"/>
	<polygon clip-path="url(#SVGID_2_)" fill="#FFFFFF" points="143.57,10.41 143.57,14.93 142.712,14.93 140.459,12.185    140.459,14.93 139.427,14.93 139.427,10.41 140.291,10.41 142.537,13.153 142.537,10.41  "/>
	<polygon clip-path="url(#SVGID_2_)" fill="#FFFFFF" points="107.968,19.398 107.968,23.918 107.109,23.918 104.856,21.174    104.856,23.918 103.823,23.918 103.823,19.398 104.688,19.398 106.935,22.142 106.935,19.398  "/>
	<path clip-path="url(#SVGID_2_)" fill="#FFFFFF" d="M112.019,22.949h-2.099l-0.398,0.968h-1.071l2.014-4.519h1.032l2.021,4.519   h-1.099L112.019,22.949z M111.689,22.155l-0.716-1.729l-0.717,1.729H111.689z"/>
	<polygon clip-path="url(#SVGID_2_)" fill="#FFFFFF" points="114.275,20.251 112.829,20.251 112.829,19.398 116.767,19.398    116.767,20.251 115.321,20.251 115.321,23.917 114.275,23.917  "/>
	<rect x="117.333" y="19.398" clip-path="url(#SVGID_2_)" fill="#FFFFFF" width="1.045" height="4.52"/>
	<path clip-path="url(#SVGID_2_)" fill="#FFFFFF" d="M119.168,21.658c0-1.343,1.045-2.337,2.472-2.337   c1.42,0,2.473,0.987,2.473,2.337c0,1.349-1.053,2.336-2.473,2.336C120.213,23.994,119.168,23,119.168,21.658 M123.054,21.658   c0-0.857-0.607-1.445-1.414-1.445s-1.413,0.588-1.413,1.445s0.606,1.445,1.413,1.445S123.054,22.516,123.054,21.658"/>
	<polygon clip-path="url(#SVGID_2_)" fill="#FFFFFF" points="129.048,19.398 129.048,23.918 128.189,23.918 125.937,21.174    125.937,23.918 124.903,23.918 124.903,19.398 125.769,19.398 128.015,22.142 128.015,19.398  "/>
	<path clip-path="url(#SVGID_2_)" fill="#FFFFFF" d="M133.099,22.949H131l-0.398,0.968h-1.071l2.014-4.519h1.032l2.021,4.519h-1.099   L133.099,22.949z M132.77,22.155l-0.716-1.729l-0.717,1.729H132.77z"/>
	<polygon clip-path="url(#SVGID_2_)" fill="#FFFFFF" points="135.072,19.398 136.117,19.398 136.117,23.065 138.383,23.065    138.383,23.918 135.072,23.918  "/>
	<polygon clip-path="url(#SVGID_2_)" fill="#FFFFFF" points="104.76,29.24 103.313,29.24 103.313,28.388 107.251,28.388    107.251,29.24 105.806,29.24 105.806,32.906 104.76,32.906  "/>
	<polygon clip-path="url(#SVGID_2_)" fill="#FFFFFF" points="111.314,32.067 111.314,32.906 107.816,32.906 107.816,28.388    111.23,28.388 111.23,29.228 108.855,29.228 108.855,30.209 110.953,30.209 110.953,31.021 108.855,31.021 108.855,32.067  "/>
	<polygon clip-path="url(#SVGID_2_)" fill="#FFFFFF" points="112.151,28.388 113.196,28.388 113.196,32.055 115.462,32.055    115.462,32.907 112.151,32.907  "/>
	<polygon clip-path="url(#SVGID_2_)" fill="#FFFFFF" points="119.552,32.067 119.552,32.906 116.054,32.906 116.054,28.388    119.468,28.388 119.468,29.228 117.093,29.228 117.093,30.209 119.19,30.209 119.19,31.021 117.093,31.021 117.093,32.067  "/>
	<polygon clip-path="url(#SVGID_2_)" fill="#FFFFFF" points="124.668,28.388 122.712,32.907 121.68,32.907 119.73,28.388    120.859,28.388 122.234,31.616 123.629,28.388  "/>
	<rect x="125.046" y="28.388" clip-path="url(#SVGID_2_)" fill="#FFFFFF" width="1.045" height="4.52"/>
	<path clip-path="url(#SVGID_2_)" fill="#FFFFFF" d="M126.81,32.461l0.354-0.787c0.382,0.277,0.949,0.471,1.491,0.471   c0.62,0,0.872-0.205,0.872-0.484c0-0.845-2.627-0.264-2.627-1.942c0-0.769,0.619-1.407,1.903-1.407c0.568,0,1.149,0.136,1.568,0.4   l-0.322,0.794c-0.42-0.239-0.852-0.355-1.252-0.355c-0.62,0-0.858,0.232-0.858,0.517c0,0.833,2.627,0.258,2.627,1.917   c0,0.755-0.626,1.4-1.917,1.4C127.933,32.983,127.21,32.771,126.81,32.461"/>
	<rect x="131.287" y="28.388" clip-path="url(#SVGID_2_)" fill="#FFFFFF" width="1.045" height="4.52"/>
	<path clip-path="url(#SVGID_2_)" fill="#FFFFFF" d="M133.121,30.647c0-1.343,1.045-2.337,2.472-2.337   c1.42,0,2.473,0.987,2.473,2.337s-1.053,2.336-2.473,2.336C134.166,32.983,133.121,31.989,133.121,30.647 M137.007,30.647   c0-0.857-0.607-1.446-1.414-1.446s-1.413,0.589-1.413,1.446c0,0.858,0.606,1.445,1.413,1.445S137.007,31.506,137.007,30.647"/>
	<polygon clip-path="url(#SVGID_2_)" fill="#FFFFFF" points="143.002,28.388 143.002,32.907 142.144,32.907 139.891,30.163    139.891,32.907 138.857,32.907 138.857,28.388 139.723,28.388 141.969,31.131 141.969,28.388  "/>
</g>
</svg>