<svg enable-background="new 0 0 144.25 42.75" height="42.75" viewBox="0 0 144.25 42.75" width="144.25" xmlns="http://www.w3.org/2000/svg" xmlns:xlink="http://www.w3.org/1999/xlink"><clipPath id="a"><path d="m-14.75-6.693h184.252v56.693h-184.252z"/></clipPath><g fill="#fff"><path d="m57.199 1.477h20.177 20.177v6.726 6.725h-20.177-20.177v-6.725z"/><path d="m57.199 28.379h40.354v13.452h-40.354z"/><path clip-path="url(#a)" d="m63.832 18.113h5.915v1.549h-3.944v1.142h1.831c.856 0 1.513.183 1.971.546.458.365.688.887.688 1.568 0 .714-.256 1.271-.769 1.673-.512.401-1.23.603-2.153.603h-3.539zm3.407 5.644c.337 0 .594-.067.769-.203.175-.134.262-.326.262-.575 0-.498-.344-.748-1.031-.748h-1.436v1.526z"/><path clip-path="url(#a)" d="m81.294 18.114v7.078h-2.002v-2.76h-2.729v2.76h-2.002v-7.078h2.002v2.66h2.729v-2.66z"/><path clip-path="url(#a)" d="m91.749 19.702h-2.164v5.49h-1.972v-5.49h-2.174v-1.588h6.31z"/><path clip-path="url(#a)" d="m60.516 20.773h1.658v1.658h-1.658z"/><path clip-path="url(#a)" d="m71.243 20.773h1.658v1.658h-1.658z"/><path clip-path="url(#a)" d="m82.952 20.773h1.658v1.658h-1.658z"/><path clip-path="url(#a)" d="m92.578 20.773h1.658v1.658h-1.658z"/><path clip-path="url(#a)" d="m10.535 10.391h3.587v.819h-2.564v.914h1.231c1.072 0 1.651.457 1.651 1.308 0 .889-.655 1.402-1.797 1.402h-2.108zm2.051 3.681c.526 0 .812-.209.812-.609 0-.394-.273-.583-.812-.583h-1.028v1.193h1.028z"/><path clip-path="url(#a)" d="m19.62 13.285c0 1.021-.685 1.549-1.828 1.549h-2v-3.605h-1.25v-.838h2.266v1.46h1.136c1.067 0 1.676.475 1.676 1.434m-1.035.02c0-.489-.317-.692-.851-.692h-.926v1.459h.926c.534 0 .851-.266.851-.767"/><path clip-path="url(#a)" d="m23.524 14.834-1.346-3.168-1.37 3.168h-1.029l1.925-4.443h1.014l1.924 4.443z"/><path clip-path="url(#a)" d="m28.375 11.229h-2.113l.006 3.605h-1.022v-4.443h3.136z"/><path clip-path="url(#a)" d="m31.245 13.882h-2.062l-.394.952h-1.061l1.981-4.443h1.016l1.987 4.443h-1.073zm-.33-.78-.704-1.701-.705 1.701z"/><path clip-path="url(#a)" d="m37.162 12.003c0 .99-.736 1.606-1.93 1.606h-.888v1.225h-1.034v-4.443h1.922c1.194 0 1.93.615 1.93 1.612m-1.034 0c0-.489-.324-.774-.946-.774h-.838v1.543h.838c.622 0 .946-.287.946-.769"/><path clip-path="url(#a)" d="m37.602 12.612c0-1.339 1.021-2.298 2.412-2.298.768 0 1.409.279 1.828.787l-.66.61c-.299-.343-.673-.521-1.117-.521-.832 0-1.422.584-1.422 1.422s.59 1.422 1.422 1.422c.444 0 .818-.178 1.117-.526l.66.609c-.419.514-1.06.793-1.835.793-1.384 0-2.405-.959-2.405-2.298"/><path clip-path="url(#a)" d="m44.235 13.044h-.711v1.79h-1.022v-4.443h1.022v1.797h.736l1.168-1.797h1.085l-1.453 2.145 1.498 2.298h-1.168z"/><path clip-path="url(#a)" d="m49.962 13.882h-2.063l-.394.952h-1.06l1.981-4.443h1.016l1.986 4.443h-1.072zm-.33-.78-.705-1.701-.704 1.701z"/><path clip-path="url(#a)" d="m4.319 19.379v4.443h-1.035v-1.822h-2.012v1.822h-1.035v-4.443h1.035v1.752h2.012v-1.752z"/><path clip-path="url(#a)" d="m8.434 22.87h-2.063l-.394.952h-1.06l1.981-4.443h1.016l1.986 4.443h-1.072zm-.33-.78-.705-1.701-.705 1.701z"/><path clip-path="url(#a)" d="m15.156 22.984v1.778h-.945v-.94h-3.714v-4.443h1.022v3.605h1.981v-3.605h1.021v3.605z"/><path clip-path="url(#a)" d="m15.837 19.379h1.021v2.894l2.121-2.894h.964v4.443h-1.015v-2.888l-2.12 2.888h-.971z"/><path clip-path="url(#a)" d="m20.738 21.601c0-1.319 1.028-2.298 2.43-2.298 1.397 0 2.425.971 2.425 2.298s-1.028 2.298-2.425 2.298c-1.401-.001-2.43-.978-2.43-2.298m3.822 0c0-.845-.604-1.422-1.391-1.422-.793 0-1.389.577-1.389 1.422s.596 1.422 1.389 1.422c.787-.001 1.391-.578 1.391-1.422"/><path clip-path="url(#a)" d="m30.477 19.379v4.443h-1.035v-1.822h-2.012v1.822h-1.034v-4.443h1.034v1.752h2.012v-1.752z"/><path clip-path="url(#a)" d="m34.591 22.87h-2.062l-.394.952h-1.061l1.981-4.443h1.016l1.987 4.443h-1.073zm-.33-.78-.704-1.701-.705 1.701z"/><path clip-path="url(#a)" d="m40.045 23.822-1.346-3.168-1.371 3.168h-1.028l1.923-4.443h1.015l1.924 4.443z"/><path clip-path="url(#a)" d="m45.848 19.379v4.443h-1.035v-1.822h-2.012v1.822h-1.035v-4.443h1.035v1.752h2.012v-1.752z"/><path clip-path="url(#a)" d="m49.962 22.87h-2.063l-.394.952h-1.06l1.981-4.443h1.016l1.986 4.443h-1.072zm-.33-.78-.705-1.701-.704 1.701z"/><path clip-path="url(#a)" d="m13.887 29.206h-1.422v3.606h-1.016v-3.606h-1.415v-.838h3.853z"/><path clip-path="url(#a)" d="m17.982 31.986v.826h-3.447v-4.444h3.359v.825h-2.336v.965h2.069v.8h-2.069v1.028z"/><path clip-path="url(#a)" d="m22.052 32.812-1.346-3.167-1.372 3.167h-1.027l1.922-4.444h1.016l1.923 4.444z"/><path clip-path="url(#a)" d="m27.22 31.986v.826h-3.448v-4.444h3.359v.825h-2.336v.965h2.07v.8h-2.07v1.028z"/><path clip-path="url(#a)" d="m31.962 31.561c0 .775-.603 1.251-1.727 1.251h-2.189v-4.443h2.069c1.029 0 1.638.413 1.638 1.149 0 .45-.235.787-.629.977.54.158.838.526.838 1.066m-2.895-1.352h.959c.445 0 .679-.184.679-.539 0-.35-.234-.54-.679-.54h-.959zm1.854 1.27c0-.375-.247-.553-.724-.553h-1.13v1.124h1.13c.477 0 .724-.185.724-.571"/><path clip-path="url(#a)" d="m32.775 28.368h1.022v2.896l2.121-2.896h.964v4.444h-1.015v-2.888l-2.119 2.888h-.973z"/><path clip-path="url(#a)" d="m41.34 31.567c0 .838-.914 1.32-1.98 1.32-.591 0-1.219-.146-1.772-.464l.317-.736c.407.248.902.362 1.333.362.584 0 1.061-.215 1.061-.628 0-.336-.305-.501-.769-.501h-1.085v-.775h1.009c.419 0 .66-.184.66-.475 0-.363-.393-.554-.894-.554-.375 0-.813.102-1.193.317l-.312-.8c.482-.248 1.016-.361 1.523-.361 1.029 0 1.917.469 1.917 1.275 0 .432-.247.774-.64.945.513.18.825.574.825 1.075"/><path clip-path="url(#a)" d="m42.153 28.368h1.021v2.896l2.121-2.896h.964v4.444h-1.015v-2.888l-2.119 2.888h-.972z"/><path clip-path="url(#a)" d="m50.914 28.368v4.443h-1.016v-1.181h-.939l-.787 1.181h-1.086l.927-1.339c-.597-.242-.933-.75-.933-1.447 0-1.034.742-1.657 1.917-1.657zm-2.793 1.644c0 .515.298.807.876.807h.901v-1.612h-.876c-.584-.001-.901.272-.901.805"/><path clip-path="url(#a)" d="m107.968 13.695c0 .781-.62 1.234-1.808 1.234h-2.336v-4.52h2.207c1.13 0 1.71.472 1.71 1.175 0 .452-.231.801-.6.994.503.162.827.55.827 1.117m-3.105-2.497v1.065h1.039c.51 0 .787-.181.787-.535 0-.356-.277-.53-.787-.53zm2.052 2.388c0-.381-.29-.563-.832-.563h-1.22v1.119h1.22c.542.001.832-.167.832-.556"/><path clip-path="url(#a)" d="m108.728 12.94v-2.53h1.046v2.492c0 .858.374 1.213 1.007 1.213.639 0 1.007-.354 1.007-1.213v-2.492h1.032v2.53c0 1.33-.762 2.065-2.046 2.065s-2.046-.734-2.046-2.065"/><path clip-path="url(#a)" d="m113.857 10.41h1.045v3.667h2.266v.853h-3.311z"/><path clip-path="url(#a)" d="m120.734 12.599h.955v1.833c-.497.374-1.183.574-1.826.574-1.421 0-2.466-.975-2.466-2.336 0-1.362 1.045-2.337 2.483-2.337.795 0 1.453.272 1.893.782l-.671.619c-.33-.349-.71-.51-1.169-.51-.878 0-1.478.588-1.478 1.446 0 .846.6 1.445 1.465 1.445.284 0 .549-.052.813-.193v-1.323z"/><path clip-path="url(#a)" d="m125.638 13.961h-2.099l-.399.969h-1.071l2.014-4.52h1.032l2.021 4.52h-1.099zm-.33-.794-.716-1.73-.717 1.73z"/><path clip-path="url(#a)" d="m130.489 14.929-.871-1.259h-.052-.91v1.259h-1.045v-4.519h1.955c1.207 0 1.962.627 1.962 1.64 0 .678-.342 1.175-.929 1.427l1.014 1.452zm-.98-3.666h-.853v1.575h.853c.639 0 .962-.297.962-.788 0-.497-.324-.787-.962-.787"/><path clip-path="url(#a)" d="m132.359 10.41h1.045v4.52h-1.045z"/><path clip-path="url(#a)" d="m137.454 13.961h-2.099l-.399.969h-1.071l2.014-4.52h1.032l2.021 4.52h-1.099zm-.33-.794-.716-1.73-.717 1.73z"/><path clip-path="url(#a)" d="m143.57 10.41v4.52h-.858l-2.253-2.745v2.745h-1.032v-4.52h.864l2.246 2.743v-2.743z"/><path clip-path="url(#a)" d="m107.968 19.398v4.52h-.859l-2.253-2.744v2.744h-1.033v-4.52h.865l2.247 2.744v-2.744z"/><path clip-path="url(#a)" d="m112.019 22.949h-2.099l-.398.968h-1.071l2.014-4.519h1.032l2.021 4.519h-1.099zm-.33-.794-.716-1.729-.717 1.729z"/><path clip-path="url(#a)" d="m114.275 20.251h-1.446v-.853h3.938v.853h-1.446v3.666h-1.046z"/><path clip-path="url(#a)" d="m117.333 19.398h1.045v4.52h-1.045z"/><path clip-path="url(#a)" d="m119.168 21.658c0-1.343 1.045-2.337 2.472-2.337 1.42 0 2.473.987 2.473 2.337 0 1.349-1.053 2.336-2.473 2.336-1.427 0-2.472-.994-2.472-2.336m3.886 0c0-.857-.607-1.445-1.414-1.445s-1.413.588-1.413 1.445.606 1.445 1.413 1.445 1.414-.587 1.414-1.445"/><path clip-path="url(#a)" d="m129.048 19.398v4.52h-.859l-2.252-2.744v2.744h-1.034v-4.52h.866l2.246 2.744v-2.744z"/><path clip-path="url(#a)" d="m133.099 22.949h-2.099l-.398.968h-1.071l2.014-4.519h1.032l2.021 4.519h-1.099zm-.329-.794-.716-1.729-.717 1.729z"/><path clip-path="url(#a)" d="m135.072 19.398h1.045v3.667h2.266v.853h-3.311z"/><path clip-path="url(#a)" d="m104.76 29.24h-1.447v-.852h3.938v.852h-1.445v3.666h-1.046z"/><path clip-path="url(#a)" d="m111.314 32.067v.839h-3.498v-4.518h3.414v.84h-2.375v.981h2.098v.812h-2.098v1.046z"/><path clip-path="url(#a)" d="m112.151 28.388h1.045v3.667h2.266v.852h-3.311z"/><path clip-path="url(#a)" d="m119.552 32.067v.839h-3.498v-4.518h3.414v.84h-2.375v.981h2.097v.812h-2.097v1.046z"/><path clip-path="url(#a)" d="m124.668 28.388-1.956 4.519h-1.032l-1.95-4.519h1.129l1.375 3.228 1.395-3.228z"/><path clip-path="url(#a)" d="m125.046 28.388h1.045v4.52h-1.045z"/><path clip-path="url(#a)" d="m126.81 32.461.354-.787c.382.277.949.471 1.491.471.62 0 .872-.205.872-.484 0-.845-2.627-.264-2.627-1.942 0-.769.619-1.407 1.903-1.407.568 0 1.149.136 1.568.4l-.322.794c-.42-.239-.852-.355-1.252-.355-.62 0-.858.232-.858.517 0 .833 2.627.258 2.627 1.917 0 .755-.626 1.4-1.917 1.4-.716-.002-1.439-.214-1.839-.524"/><path clip-path="url(#a)" d="m131.287 28.388h1.045v4.52h-1.045z"/><path clip-path="url(#a)" d="m133.121 30.647c0-1.343 1.045-2.337 2.472-2.337 1.42 0 2.473.987 2.473 2.337s-1.053 2.336-2.473 2.336c-1.427 0-2.472-.994-2.472-2.336m3.886 0c0-.857-.607-1.446-1.414-1.446s-1.413.589-1.413 1.446c0 .858.606 1.445 1.413 1.445s1.414-.586 1.414-1.445"/><path clip-path="url(#a)" d="m143.002 28.388v4.519h-.858l-2.253-2.744v2.744h-1.034v-4.519h.866l2.246 2.743v-2.743z"/></g></svg>