<svg fill="#fff" viewBox="82 41 78 54" xmlns="http://www.w3.org/2000/svg"><path clip-rule="evenodd" d="m148.3 43.9c-5.2 0-9.5 4.3-9.5 9.7s4.3 9.7 9.5 9.7 9.5-4.3 9.5-9.7-4.2-9.7-9.5-9.7m0 17.7c-4.3 0-7.8-3.6-7.8-7.9 0-4.4 3.5-7.9 7.8-7.9s7.8 3.6 7.8 7.9-3.5 7.9-7.8 7.9" fill-rule="evenodd"/><path clip-rule="evenodd" d="m151.4 56.5v-7.9l-7.8 2.9v2l2.6-1v6c0-.1 5.2-2 5.2-2" fill-rule="evenodd"/><path d="m138 92.2v.2h-8.1l-15.5-22.4v-.2h4.4c5.4 0 8.6-3.5 8.6-7.9s-3.2-7.6-8.6-7.6h-3.8l-4.9-5.7v-.2h9.1c9.4 0 15.2 5 15.2 13.1 0 6.5-3.7 10.8-9.6 12zm-34.5-23.6c4.7-1.2 7.2-4.6 7.2-9.2 0-6.6-5.2-10.9-14.6-10.9h-11.8v43.8h12.9c10.4 0 16.1-5.3 16.1-12.9-.1-5.7-3.3-9.7-9.8-10.8m-6.6 17.9h-6v-32.1h4.9c5.5 0 8 2.6 8 6.3 0 3.9-2.9 6.8-8.6 7.1v3.2c7.4.3 11.2 2.6 11.2 7.7 0 4.9-3.5 7.8-9.5 7.8"/></svg>