<svg viewBox="0 0 321.82 143.35" xmlns="http://www.w3.org/2000/svg" fill="#ffffff"><path d="m315.2 22.12h-278.96l6.61-22.12h278.97z"/><path d="m33.79 30.31h65.05l-6.61 22.12h-65.05z"/><path d="m266.07 30.31-6.61 22.12h-62.31l6.61-22.12z"/><path d="m140.49 60.62-6.61 22.1h-115.76l6.61-22.1z"/><path d="m257.01 60.62-6.61 22.1h-62.31l6.61-22.1z"/><path d="m131.43 90.93-6.61 22.11h-115.76l6.61-22.11z"/><path d="m247.95 90.93-6.61 22.11h-62.31l6.61-22.11z"/><path d="m122.37 121.22-6.61 22.13h-115.76l6.61-22.13z"/><path d="m238.89 121.22-6.61 22.13h-62.31l6.61-22.13z"/></svg>
