<?xml version="1.0" encoding="UTF-8" standalone="no"?>
<!DOCTYPE svg PUBLIC "-//W3C//DTD SVG 1.1//EN" "http://www.w3.org/Graphics/SVG/1.1/DTD/svg11.dtd">
<svg width="100%" height="100%" viewBox="0 0 252 37" version="1.1" xmlns="http://www.w3.org/2000/svg" xmlns:xlink="http://www.w3.org/1999/xlink" xml:space="preserve" xmlns:serif="http://www.serif.com/" style="fill-rule:evenodd;clip-rule:evenodd;stroke-linejoin:round;stroke-miterlimit:2;">
    <path d="M13.67,0.72C17.27,0.44 21.17,0.3 24.33,0.25L24.33,4.93C22.83,4.98 21.16,5.08 19.59,5.25C14.07,5.85 13.03,7.05 12.36,12.35C11.878,16.436 11.878,20.564 12.36,24.65C13.03,29.95 14.06,31.15 19.59,31.74C21.16,31.91 22.83,32.01 24.33,32.06L24.33,36.74C20.773,36.693 17.218,36.537 13.67,36.27C3.77,35.47 1.92,33.87 0.71,26.76C-0.163,21.288 -0.163,15.712 0.71,10.24C1.91,3.12 3.77,1.52 13.67,0.72" style="fill:white;fill-rule:nonzero;"/>
    <path d="M54.02,18.5C54.02,20.64 53.87,23.8 53.37,26.76C52.17,33.86 50.32,35.48 40.41,36.27C36.81,36.55 32.91,36.7 29.75,36.75L29.75,32.06C31.25,32.01 32.93,31.91 34.49,31.74C40.02,31.15 41.05,29.95 41.72,24.64C42.203,20.554 42.203,16.426 41.72,12.34C41.05,7.04 40.02,5.84 34.49,5.26C32.914,5.095 31.333,4.985 29.75,4.93L29.75,0.25C32.92,0.3 36.81,0.44 40.41,0.73C50.32,1.53 52.17,3.13 53.37,10.24C53.87,13.2 54.02,16.35 54.02,18.5" style="fill:rgb(255,0,25);fill-rule:nonzero;"/>
    <path d="M245.05,12.68C240.07,12.68 237.41,16 237.41,20.18C237.41,25.43 241.06,27.68 245.37,27.68C247.3,27.68 249.42,27.28 251.18,26.64L250.83,23.5C249.12,23.9 247.57,24.17 246.17,24.17C243.97,24.17 242.42,23.45 241.89,21.71L251.69,21.71C252.69,17.39 250.65,12.68 245.05,12.68M247.49,18.52L241.94,18.52C242.4,17.02 243.47,15.89 245.02,15.89C246.47,15.89 247.49,16.69 247.49,18.52M223.19,27.28L235.95,27.28L235.95,24.06L228.82,24.06L228.82,23.96L235.68,16.29L235.68,13.08L223.46,13.08L223.46,16.29L230.08,16.29L230.08,16.4L223.19,24.09L223.19,27.28ZM220.6,9.6C220.6,8.15 219.99,7.4 218,7.4C216.03,7.4 215.4,8.15 215.4,9.6C215.4,11.02 216.03,11.77 218,11.77C219.99,11.77 220.6,11.02 220.6,9.6M208.8,27.28L214.19,13.08L209.59,13.08L206.21,22.83L206.1,22.83L202.72,13.08L198.01,13.08L203.42,27.28L208.8,27.28ZM197.14,21.71C198.12,17.39 196.09,12.68 190.49,12.68C185.51,12.68 182.85,16 182.85,20.18C182.85,25.43 186.5,27.68 190.81,27.68C192.74,27.68 194.86,27.28 196.62,26.64L196.28,23.5C194.57,23.9 193.01,24.17 191.62,24.17C189.42,24.17 187.86,23.45 187.33,21.71L197.14,21.71ZM192.94,18.51L187.39,18.51C187.84,17.01 188.91,15.89 190.46,15.89C191.91,15.89 192.93,16.69 192.93,18.52M175.7,27.28L180.09,27.28L180.09,8.04L175.69,8.04L175.7,27.28ZM172.8,21.71C173.8,17.39 171.76,12.68 166.16,12.68C161.18,12.68 158.53,16 158.53,20.18C158.53,25.43 162.17,27.68 166.48,27.68C168.41,27.68 170.53,27.28 172.3,26.64L171.95,23.5C170.23,23.9 168.68,24.17 167.29,24.17C165.09,24.17 163.54,23.45 163,21.71L172.8,21.71ZM168.6,18.51L163.05,18.51C163.51,17.01 164.58,15.89 166.14,15.89C167.58,15.89 168.6,16.69 168.6,18.52M153.8,22.72L153.8,16.3L157,16.3L157,13.09L153.8,13.09L153.8,9.65L149.9,9.65L149.4,13.08L147.25,13.35L147.25,16.29L149.4,16.29L149.4,23.18C149.4,27.92 153.52,28.24 157.27,27.04L156.92,23.94C154.67,24.3 153.79,23.98 153.79,22.72M135.53,27.28L139.66,27.28L139.66,17.64C139.66,13.96 136.63,12.68 133.28,12.68C131.08,12.68 128.75,13.21 127.09,14.1L127.47,17.2C129.34,16.48 131.24,16.24 132.59,16.24C134.22,16.24 135.27,16.78 135.27,18.09L135.27,18.62C130.44,17.58 126.16,19.05 126.16,23.29C126.16,25.91 128.22,27.68 130.79,27.68C132.59,27.68 134.06,27.15 135.27,26.05L135.53,27.28ZM135.27,23.23C134.587,23.987 133.629,24.441 132.61,24.49C131.54,24.49 130.68,23.99 130.68,22.99C130.68,21.55 132.18,20.74 135.27,21.46L135.27,23.23ZM134.44,11.87L138.08,7.57L133.15,7.57L130.9,11.87L134.44,11.87ZM120.14,19.64L120.14,19.54L125.2,13.08L120.22,13.08L115.18,19.83L120.46,27.28L125.73,27.28L120.14,19.64ZM110.44,27.28L114.84,27.28L114.84,8.04L110.44,8.04L110.44,27.28ZM99.72,17.05C99.72,16.32 100.15,15.92 101.78,15.92C102.91,15.92 104.62,16.14 106.79,16.75L107.17,13.75C105.388,13.043 103.487,12.68 101.57,12.68C98.27,12.68 95.35,13.8 95.35,17.18C95.35,23.02 103.47,21.35 103.47,23.34C103.47,24.11 102.88,24.44 101.35,24.44C99.8,24.44 98.05,24.25 95.83,23.61L95.48,26.61C97.2,27.33 99.48,27.68 101.59,27.68C104.94,27.68 107.83,26.37 107.83,23.21C107.83,17.34 99.72,19.03 99.72,17.05M93.18,21.71C94.18,17.39 92.14,12.68 86.54,12.68C81.56,12.68 78.91,16 78.91,20.18C78.91,25.43 82.55,27.68 86.86,27.68C88.79,27.68 90.91,27.28 92.67,26.64L92.32,23.5C90.61,23.9 89.06,24.17 87.67,24.17C85.47,24.17 83.91,23.45 83.38,21.71L93.18,21.71ZM88.98,18.51L83.43,18.51C83.89,17.01 84.96,15.89 86.51,15.89C87.96,15.89 88.97,16.69 88.97,18.52M67.68,18.42C67.68,15.06 69.61,12.92 73.07,12.92C74.78,12.92 76.07,13.29 77.38,13.54L77.75,10.05C76.059,9.446 74.276,9.138 72.48,9.14C66.21,9.14 62.94,13.29 62.94,18.44C62.94,23.8 66.21,27.68 72.48,27.68C74.33,27.68 76.12,27.36 77.75,26.74L77.38,23.29C76.07,23.53 74.81,23.87 73.07,23.87C69.64,23.87 67.68,22 67.68,18.41M74.68,8.29L77.54,4.29L73.36,4.29L72.13,6.3L70.9,4.3L66.7,4.3L69.56,8.29L74.68,8.29ZM220.2,13.08L215.8,13.08L215.8,27.28L220.2,27.28L220.2,13.08Z" style="fill:white;fill-rule:nonzero;"/>
</svg>