<svg clip-rule="evenodd" fill-rule="evenodd" stroke-linejoin="round" stroke-miterlimit="2" viewBox="0 0 103 56" xmlns="http://www.w3.org/2000/svg"><g fill="#fff" fill-rule="nonzero"><path d="m15.76 2.05v.73c-3.261 2.816-5.138 6.917-5.138 11.225s1.877 8.409 5.138 11.225v25.77c.017 2.084-1.676 3.817-3.76 3.85h-7.19c-2.092-.005-3.81-1.728-3.81-3.82 0-.01 0-.02 0-.03v-49z"/><path d="m40.06 2.05h14.76v48.95.04c0 2.09-1.72 3.81-3.81 3.81-.003 0-.007 0-.01 0h-7.13c-2.09 0-3.81-1.72-3.81-3.81 0-.013 0-.027 0-.04v-49z"/><path d="m100.56 50c.267.487.407 1.034.407 1.59 0 1.816-1.494 3.31-3.31 3.31-.002 0-.005 0-.007 0h-9.91c-1.239.003-2.379-.695-2.94-1.8l-11.62-22.61v20.51c-.005 2.088-1.722 3.805-3.81 3.81h-7.14c-2.088-.005-3.805-1.722-3.81-3.81v-49h14.76v21.53l11-21.48h17.52l-11.94 21.75-1 1.89-.76 1.31.71 1.33.76 1.38.28.53z"/><path d="m38.77 14c.005 1.615-.297 3.217-.89 4.72-1.945 4.975-6.766 8.267-12.108 8.267-7.131 0-13-5.869-13-13 0-7.132 5.869-13 13-13 5.576 0 10.558 3.586 12.328 8.873.443 1.335.669 2.733.67 4.14z"/></g></svg>