<?xml version="1.0" encoding="UTF-8" standalone="no"?>
<!DOCTYPE svg PUBLIC "-//W3C//DTD SVG 1.1//EN" "http://www.w3.org/Graphics/SVG/1.1/DTD/svg11.dtd">
<svg width="100%" height="100%" viewBox="0 0 103 56" version="1.1" xmlns="http://www.w3.org/2000/svg" xmlns:xlink="http://www.w3.org/1999/xlink" xml:space="preserve" xmlns:serif="http://www.serif.com/" style="fill-rule:evenodd;clip-rule:evenodd;stroke-linejoin:round;stroke-miterlimit:2;">
    <path d="M15.76,2.05L15.76,2.78C12.499,5.596 10.622,9.697 10.622,14.005C10.622,18.313 12.499,22.414 15.76,25.23L15.76,51C15.777,53.084 14.084,54.817 12,54.85L4.81,54.85C2.718,54.845 1,53.122 1,51.03C1,51.02 1,51.01 1,51L1,2L15.76,2.05Z" style="fill:white;fill-rule:nonzero;"/>
    <path d="M40.06,2.05L54.82,2.05L54.82,51C54.82,51.013 54.82,51.027 54.82,51.04C54.82,53.13 53.1,54.85 51.01,54.85C51.007,54.85 51.003,54.85 51,54.85C51,54.85 43.87,54.85 43.87,54.85C41.78,54.85 40.06,53.13 40.06,51.04C40.06,51.027 40.06,51.013 40.06,51L40.06,2L40.06,2.05Z" style="fill:white;fill-rule:nonzero;"/>
    <path d="M100.56,50C100.827,50.487 100.967,51.034 100.967,51.59C100.967,53.406 99.473,54.9 97.657,54.9C97.655,54.9 97.652,54.9 97.65,54.9L87.74,54.9C86.501,54.903 85.361,54.205 84.8,53.1L73.18,30.49L73.18,51C73.175,53.088 71.458,54.805 69.37,54.81L62.23,54.81C60.142,54.805 58.425,53.088 58.42,51L58.42,2L73.18,2L73.18,23.53L84.18,2.05L101.7,2.05L89.76,23.8L88.76,25.69L88,27L88.71,28.33L89.47,29.71L89.75,30.24L100.56,50Z" style="fill:white;fill-rule:nonzero;"/>
    <path d="M38.77,14C38.775,15.615 38.473,17.217 37.88,18.72C35.935,23.695 31.114,26.987 25.772,26.987C18.641,26.987 12.772,21.118 12.772,13.987C12.772,6.855 18.641,0.987 25.772,0.987C31.348,0.987 36.33,4.573 38.1,9.86C38.543,11.195 38.769,12.593 38.77,14Z" style="fill:white;fill-rule:nonzero;"/>
</svg>