<svg clip-rule="evenodd" fill-rule="evenodd" stroke-linejoin="round" stroke-miterlimit="2" viewBox="0 0 134 40" xmlns="http://www.w3.org/2000/svg"><path d="m0 40v-40h133.322v40zm53.208-30.22h-28.532c-.253 0-.379.151-.379.379v19.216c0 .228.126.38.379.38h28.532c8.381 0 12.609-2.785 12.609-10.05 0-7.216-4.228-9.925-12.609-9.925zm-7.388 16.304h-8.938c-.254 0-.304-.102-.304-.304v-12.027c0-.2.05-.302.304-.302h8.938c5.315 0 7.442 1.517 7.442 6.303s-2.127 6.33-7.442 6.33zm65.01 2.86-8.253-5.822c-.203-.153-.329-.228-.329-.33 0-.1.076-.152.254-.152 4.176 0 7.417-1.948 7.417-6.252 0-4.278-2.785-6.609-7.924-6.609h-31.267c-.253 0-.38.152-.38.379v19.216c0 .229.127.381.38.381h11.506c.253 0 .38-.152.38-.381v-4.556c0-.228.075-.303.303-.303h6.621c.33 0 .456.025.683.202l5.749 4.759c.279.228.481.279.809.279h14.305c.203 0 .304-.077.304-.229 0-.202-.354-.43-.558-.582zm-17.921-8h-9.975c-.229 0-.304-.077-.304-.303v-6.887c0-.227.075-.304.304-.304h9.975c3.342 0 4.76.912 4.76 3.671 0 2.785-1.418 3.823-4.76 3.823z" fill="#fff"/></svg>