<svg clip-rule="evenodd" fill-rule="evenodd" stroke-linejoin="round" stroke-miterlimit="2" viewBox="0 0 490 180" xmlns="http://www.w3.org/2000/svg"><path d="m400.532 88.202-12.575-16.702h.264c17.602 0 31.863-14.185 31.871-31.754-.008-17.573-14.254-31.854-31.86-31.86h-31.752c-12.557 0-26.727 6.379-32.873 24.396l-17.109 51.312c-2.839 7.185-7.123 9.255-11.126 9.255h-5.378c-3.549 0-6.555-1.476-8.568-4.117v.003l-12.95-17.235h.264c17.605 0 31.864-14.185 31.871-31.754-.007-17.573-14.254-31.854-31.86-31.86h-31.749c-12.556 0-26.728 6.379-32.874 24.396l-17.116 51.312c-2.84 7.185-7.125 9.255-11.127 9.255h-74.412c-5.953-.007-10.779-4.678-10.789-10.621 0-1.182.186-2.221.511-3.256l13.501-40.591c1.569-4.854 5.426-9.048 11.225-9.253h33.343c5.964.004 10.609 4.667 10.621 10.618-.011 5.952-4.657 10.61-10.621 10.621h-26.549l-7.009 21.239h33.558c17.609 0 31.856-14.291 31.859-31.86-.003-17.573-14.25-31.854-31.859-31.86h-31.861c-12.557 0-26.727 6.379-32.87 24.396l-13.365 40.155c-1.021 3.165-1.563 6.41-1.555 9.791.004 17.456 14.401 31.685 31.86 31.86.029 0 .037 0 .033 0h74.378c11.631 0 25.125-6.352 31.291-24.365l17.12-51.342c1.566-4.854 5.422-9.048 11.225-9.253h33.23c5.953.004 10.6 4.667 10.62 10.618-.021 5.952-4.667 10.61-10.62 10.621h-21.237c-3.996 0-7.738 2.347-9.531 5.916-1.789 3.571-1.394 7.819.999 11.013l25.521 33.972c.025.037.055.073.081.103 5.773 7.698 15.016 12.726 25.41 12.718h5.378c11.628 0 25.118-6.352 31.282-24.365l17.119-51.342c1.566-4.854 5.423-9.048 11.226-9.253h33.232c5.952.004 10.599 4.667 10.621 10.618-.022 5.952-4.669 10.61-10.621 10.621h-21.239c-3.995 0-7.742 2.347-9.531 5.916-1.789 3.571-1.397 7.819.999 11.013 0 0 25.304 33.745 25.329 33.774 6.069 8.262 12.355 11.843 20.471 13.018l6.582-20.328c-3.877-.733-7.898-2.489-10.309-5.559z" fill="#fff" transform="matrix(1.37082 0 0 1.37082 -90.6495 6.3969)"/></svg>