<svg clip-rule="evenodd" fill-rule="evenodd" stroke-linejoin="round" stroke-miterlimit="2" viewBox="0 0 632 250" xmlns="http://www.w3.org/2000/svg"><g fill="#fff" transform="translate(-492 -301)"><path d="m495.5 301h171.1c1.9 0 3.5 1.6 3.5 3.5v58c0 1.9-1.5 3.5-3.5 3.5h-97.7v33.1h74c1.8 0 3.3 1.5 3.3 3.3v47.9c0 1.8-1.5 3.3-3.3 3.3h-74v32.2h97.6c2 0 3.5 1.6 3.5 3.5v58.4c0 1.9-1.6 3.5-3.5 3.5h-171c-2 0-3.5-1.6-3.5-3.5v-243c0-2.1 1.6-3.7 3.5-3.7z"/><path d="m1117.8 301h-195.7v.2c20.7 16.7 35.6 39.2 41.6 64.7h31.9v180.8c0 2.4 1.9 4.3 4.3 4.3h68.2c2.4 0 4.3-1.9 4.3-4.3v-180.8h45.4c3.1 0 5.6-2.5 5.6-5.6v-53.7c0-3.1-2.5-5.6-5.6-5.6z"/><path d="m791 367.6v55.2h33c15.2 0 27.6-12.3 27.6-27.6 0-15.2-12.3-27.6-27.6-27.6zm-72.8-66.6h109.6c52.1 0 94.3 42.2 94.3 94.3s-42.2 94.3-94.3 94.3h-36.8v57.7c0 2.1-1.7 3.8-3.8 3.8h-69c-2.1 0-3.8-1.7-3.8-3.8v-242.5c.1-2.1 1.8-3.8 3.8-3.8z"/></g></svg>