<?xml version="1.0" encoding="UTF-8" standalone="no"?>
<!DOCTYPE svg PUBLIC "-//W3C//DTD SVG 1.1//EN" "http://www.w3.org/Graphics/SVG/1.1/DTD/svg11.dtd">
<svg width="100%" height="100%" viewBox="0 0 632 250" version="1.1" xmlns="http://www.w3.org/2000/svg" xmlns:xlink="http://www.w3.org/1999/xlink" xml:space="preserve" xmlns:serif="http://www.serif.com/" style="fill-rule:evenodd;clip-rule:evenodd;stroke-linejoin:round;stroke-miterlimit:2;">
    <g transform="matrix(1,0,0,1,-492,-301)">
        <path d="M495.5,301L666.6,301C668.5,301 670.1,302.6 670.1,304.5L670.1,362.5C670.1,364.4 668.6,366 666.6,366L568.9,366L568.9,399.1L642.9,399.1C644.7,399.1 646.2,400.6 646.2,402.4L646.2,450.3C646.2,452.1 644.7,453.6 642.9,453.6L568.9,453.6L568.9,485.8L666.5,485.8C668.5,485.8 670,487.4 670,489.3L670,547.7C670,549.6 668.4,551.2 666.5,551.2L495.5,551.2C493.5,551.2 492,549.6 492,547.7L492,304.7C492,302.6 493.6,301 495.5,301Z" style="fill:white;"/>
        <path d="M1117.8,301L922.1,301L922.1,301.2C942.8,317.9 957.7,340.4 963.7,365.9L995.6,365.9L995.6,546.7C995.6,549.1 997.5,551 999.9,551L1068.1,551C1070.5,551 1072.4,549.1 1072.4,546.7L1072.4,365.9L1117.8,365.9C1120.9,365.9 1123.4,363.4 1123.4,360.3L1123.4,306.6C1123.4,303.5 1120.9,301 1117.8,301Z" style="fill:white;"/>
        <path d="M791,367.6L791,422.8L824,422.8C839.2,422.8 851.6,410.5 851.6,395.2C851.6,380 839.3,367.6 824,367.6L791,367.6ZM718.2,301L827.8,301C879.9,301 922.1,343.2 922.1,395.3C922.1,447.4 879.9,489.6 827.8,489.6L791,489.6L791,547.3C791,549.4 789.3,551.1 787.2,551.1L718.2,551.1C716.1,551.1 714.4,549.4 714.4,547.3L714.4,304.8C714.5,302.7 716.2,301 718.2,301Z" style="fill:white;"/>
    </g>
</svg>