<svg clip-rule="evenodd" fill-rule="evenodd" stroke-linejoin="round" stroke-miterlimit="2" viewBox="0 0 531 92" xmlns="http://www.w3.org/2000/svg" xmlns:xlink="http://www.w3.org/1999/xlink"><radialGradient id="a" cx="0" cy="0" gradientTransform="matrix(-139.41 0 0 -139.41 396.99 59.694)" gradientUnits="userSpaceOnUse" r="1"><stop offset="0" stop-color="#64c8d7"/><stop offset=".28" stop-color="#60c4d6"/><stop offset=".57" stop-color="#53b9d2"/><stop offset=".86" stop-color="#3fa7cc"/><stop offset="1" stop-color="#329bc8"/></radialGradient><linearGradient id="b"><stop offset="0" stop-color="#ff503c"/><stop offset=".46" stop-color="#ff5447"/><stop offset="1" stop-color="#ff5a5a"/></linearGradient><radialGradient id="c" cx="396.999" cy="59.705" gradientUnits="userSpaceOnUse" r="47.42" xlink:href="#b"/><radialGradient id="d" cx="0" cy="0" gradientTransform="matrix(-100.12 0 0 -100.12 396.99 59.694)" gradientUnits="userSpaceOnUse" r="1"><stop offset="0" stop-color="#ffaa46"/><stop offset=".75" stop-color="#fdab48"/><stop offset=".81" stop-color="#f6b04f"/><stop offset=".86" stop-color="#e9b85b"/><stop offset=".93" stop-color="#c1d182"/><stop offset=".96" stop-color="#a4e39d"/><stop offset=".99" stop-color="#83f8bd"/><stop offset="1" stop-color="#78ffc8"/></radialGradient><radialGradient id="e" cx="0" cy="0" gradientTransform="matrix(1260.46 0 0 2540.29 12731.4 6776.53)" gradientUnits="userSpaceOnUse" r="1" xlink:href="#b"/><path d="m43.25 14.374c1.646.015 3.284.227 4.88.63l2.5-13.88c-3.147-.794-6.385-1.17-9.63-1.119-8.25 0-14.61 2.99-18.87 7.12s-6.51 10-6.51 19.76v2.5h-15.62v13.75h15.62v46.88h16.26v-46.88h18.75v-13.75h-18.75v-1.88c0-5.63.87-7.88 2.25-9.63 2-2.37 5.12-3.5 9.12-3.5zm117.4 75.64h-15.62v-4.87c-4.693 4.029-10.696 6.205-16.88 6.12-4.322.011-8.598-.897-12.543-2.664-3.944-1.767-7.468-4.353-10.337-7.586-5.044-5.931-7.793-13.474-7.75-21.26 0-17.88 13.25-31.63 29.75-31.63 6.45-.079 12.728 2.084 17.76 6.12v-4.86h15.62zm-16.25-39.38c-1.741-2.334-4.005-4.228-6.61-5.531-2.604-1.302-5.478-1.976-8.39-1.969-9.5 0-15.63 7.88-15.63 16.63 0 9.5 6.88 16.5 16 16.5 2.863.022 5.688-.648 8.236-1.954 2.547-1.306 4.741-3.209 6.394-5.546zm29.469-21.25v60.63h16.26v-39.38c1.752-2.262 3.983-4.108 6.534-5.405 2.55-1.296 5.356-2.012 8.216-2.095 3.37-.122 6.652 1.093 9.13 3.38 2.25 2.25 3.62 5.37 3.62 11.37v32.13h16.26v-30.88c0-10.37-2.26-16.5-6.26-21.25-2.572-3.064-5.787-5.526-9.416-7.21-3.628-1.685-7.583-2.552-11.584-2.54-6.249-.023-12.31 2.142-17.13 6.12v-4.87zm164.83 61.88c9.38 0 19-3.87 24.88-10.87l-9.2-9.26c-2.88 3.12-8.38 7-15.25 7-8.63 0-15.51-5.88-16.38-14.38h42c.244-1.527.354-3.073.33-4.62 0-16.88-11.88-31-28.63-31-18 0-29.51 14.75-29.51 31.63 0 19 13.63 31.5 31.76 31.5zm5.766-46.97c2.21 1.959 3.628 4.658 3.984 7.59h-25c.75-5.5 6.25-10.63 13-10.63 2.954 0 5.805 1.082 8.016 3.04zm-68.744 46.97c11.37 0 20.38-4.12 27.5-13.62l-12.5-9.39c-1.587 2.41-3.736 4.397-6.262 5.791-2.526 1.393-5.353 2.152-8.238 2.209-9.88 0-16.76-7-16.76-16.5-.072-3.277.848-6.499 2.639-9.243 1.791-2.745 4.369-4.885 7.397-6.14 2.011-.832 4.168-1.253 6.344-1.236 2.737.033 5.429.706 7.86 1.965 2.43 1.259 4.533 3.069 6.14 5.285l11.51-10.13c-3.06-3.816-6.945-6.89-11.363-8.989-4.419-2.099-9.255-3.17-14.147-3.131-18.5 0-32.63 14.13-32.63 31.63s13.75 31.5 32.51 31.5zm-180.7-47.51c-1.925-.46-3.901-.668-5.88-.62-7.13 0-12.75 5.13-14.75 8.75v38.13h-16.261v-60.63h15.62v6.12c3.63-4.5 10.26-7.37 17.63-7.37 1.844.013 3.684.18 5.5.5l-1.86 15.12z" fill="#fff"/><g fill-rule="nonzero"><path d="m530.41 29.384h-16.88l-16.63 37-16.63-37h-30.52v-16.88h-16.29v16.88h-15.62v13.75h15.62v21.25c0 8.63 1.38 14 4.5 18.13 4.13 5.5 11.26 8.75 21 8.75 3.416.017 6.82-.403 10.13-1.25l-2.5-13.75c-2.188.395-4.406.606-6.63.63-4 0-6.63-1.13-8.25-3-1.38-1.63-2-3.88-2-7.63v-23.13h20l21.56 46.88h11.25z" fill="url(#a)"/><path d="m396.999 76.264c9.146 0 16.56-7.414 16.56-16.56 0-9.145-7.414-16.56-16.56-16.56-9.145 0-16.56 7.415-16.56 16.56 0 9.146 7.415 16.56 16.56 16.56z" fill="url(#c)"/><path d="m480.27 29.384h-30.52v-16.88h-16.29v16.88h-15.62v13.75h15.62v21.25c0 8.63 1.38 14 4.5 18.13 4.13 5.5 11.26 8.75 21 8.75 3.416.017 6.82-.403 10.13-1.25l-2.5-13.75c-2.188.395-4.406.606-6.63.63-4 0-6.63-1.13-8.25-3-1.38-1.63-2-3.88-2-7.63v-23.13h20l21.56 46.88h1.16c2.436-7.67 3.93-15.609 4.45-23.64z" fill="url(#d)"/><path d="m433.46 29.384h-15.62v13.75h15.62v21.25c0 8.63 1.38 14 4.5 18.13l.36.44c4.715-8.369 6.775-17.974 5.907-27.541s-4.623-18.645-10.767-26.029z" fill="url(#e)"/></g></svg>