<svg viewBox="0 0 111.2 36.1" xmlns="http://www.w3.org/2000/svg"><g fill="#fff"><path d="m33.2 0h-30.6c-1.4 0-2.6 1.2-2.6 2.6v30.8c0 1.5 1.2 2.6 2.6 2.6h30.5c1.4 0 2.6-1.2 2.6-2.6v-30.8c0-1.5-1.2-2.6-2.6-2.6m-10.7 22.5c0 .2 0 .4-.2.5l-8.7 8.7v-17.5c0-.2 0-.4.2-.5l8.7-8.7v17.6z"/><g stroke="#fff" stroke-miterlimit="10" stroke-width=".2"><path d="m47.9 14.7c1.8 0 3.1-1 3.1-2.6v-.9c0-1.3-.9-1.8-.9-1.8s.8-.4.8-1.6-.9-1.9-2.6-2.2c-.8-.1-1.3-.4-1.4-.7h-1.2c0 1 .7 1.4 2.4 1.6.9.2 1.6.5 1.6 1.2s-.5 1.1-1.6 1.1h-.8v1.1h.9c1.1 0 1.6.5 1.6 1.3v.9c0 1-.7 1.4-1.9 1.4s-1.9-.5-1.9-1.5v-.6h-1.2v.6c0 1.6 1.2 2.6 3.1 2.6"/><path d="m53.1 14.5h1.2c-.3-1.3-.3-2-.3-3.7v-2.8c0-1.3.7-2 2.2-2s2.2.7 2.2 2v2.8c0 1.7 0 2.3-.3 3.7h1.2c.3-1.1.4-2 .4-3.5v-3.1c0-1.9-1.2-3-3.3-3s-3.3 1.2-3.3 3v3.1c0 1.5 0 2.4.4 3.5"/><path d="m61.4 14.5h1.2c-.3-1.2-.3-1.9-.3-3.2 0-1.2.6-1.7 1.7-1.7s1.6.6 1.7 1.8v1.3h1.2v-1.3c0-1.2.6-1.8 1.7-1.8s1.7.6 1.7 1.8c0 1.3 0 1.9-.3 3.1h1.2c.3-1 .4-1.8.4-3.2 0-2-1.1-2.9-2.8-2.9s-2.4 1.1-2.4 1.1-.3-1.1-2.2-1.1-1.3.2-1.8.7c0-1.5.8-2.4 2.5-2.4h1.1c2.2 0 3.7-.5 3.8-1.9h-1.1c0 .6-1.4.8-2.2.8h-1.4c-2.5 0-3.8 1.2-3.8 3.2v2.6c0 1.2.2 2 .4 3"/><path d="m76 14.7c1.8 0 3.1-1 3.1-2.6v-.9c0-.8-.3-1.4-.9-1.8.5-.4.8-1 .8-1.7v-.4c0-1.5-1.2-2.5-3-2.5s-3 1-3 2.6v.5h1.2v-.5c0-1 .6-1.5 1.8-1.5s1.8.5 1.8 1.4v.3c0 .8-.5 1.2-1.6 1.2h-.8v1.1h.9c1.1 0 1.6.5 1.6 1.3v.9c0 1-.7 1.4-1.9 1.4s-1.9-.5-1.9-1.5v-.6h-1.2v.6c0 1.6 1.2 2.6 3.1 2.6"/><path d="m84.2 14.7c2.1 0 3.3-1.2 3.3-3v-3.8c0-1.9-1.2-3-3.3-3s-3.3 1.2-3.3 3c0 .1 1.2.1 1.2.1 0-1.3.6-2 2.1-2s2.1.7 2.1 2v3.6c0 1.3-.7 2-2.2 2s-2.2-.7-2.2-2c0-.1-1.2-.1-1.2-.1v.2c0 1.8 1.2 3 3.4 3"/><path d="m100.1 14.7h1.3c-.1-1.2-.9-1.9-3.8-1.9h-5.2c-1.3 0-2.1-.7-2.1-1.9v-2.9c0-1.4.7-1.9 1.5-1.9s1.5.5 1.5 1.7v2.8h1.2v-2.8c0-1.1.7-1.7 1.5-1.7s1.4.5 1.5 1.7v2.8h1.2v-2.8c0-1.1.6-1.7 1.5-1.7s1.5.5 1.5 2.1 0 2.3-.4 3.7h1.2c.3-1.1.4-2.8.4-3.5 0-2.3-.6-3.4-2.5-3.4s-2.2 1.1-2.2 1.1-.5-1.1-2.1-1.1-2.1 1.1-2.1 1.1-.4-1.1-2.2-1.1-2.5 1.2-2.5 3.4v2.6c0 1.7 1.2 3 3.3 3h5.3c1 0 2.3 0 2.4.8"/><path d="m104.9 14.6h1.2c-.3-1.3-.4-2-.4-3.7v-2.8c0-1.3.7-2 2.1-2s2.1.7 2.1 2v2.8c0 1.7 0 2.3-.3 3.7h1.1c.3-1.1.4-2 .4-3.5v-3.1c0-1.9-1.2-3-3.3-3s-3.3 1.2-3.3 3v3.1c0 1.5.1 2.4.4 3.5"/><path d="m47.9 28.9c2.1 0 3.3-1.2 3.3-3v-2.7c0-1.8-1.1-2.5-2.6-2.9s-1.7-.8-1.7-1.1h-1.2c0 1.2 1 1.7 2.5 2.1s1.9 1 1.9 1.9v2.6c0 1.3-.7 2-2.2 2s-2.2-.7-2.2-2v-.5h-1.2v.6c0 1.8 1.2 3 3.3 3"/><path d="m53.1 28.7h1.2c-.3-1.2-.3-1.9-.3-3.2 0-1.2.6-1.7 1.7-1.7s1.6.6 1.7 1.8v1.3h1.2v-1.3c0-1.2.6-1.8 1.7-1.8s1.7.6 1.7 1.8c0 1.3 0 1.9-.3 3.1h1.2c.2-1 .4-1.8.4-3.2 0-2-1.1-2.9-2.8-2.9s-2.4 1.1-2.4 1.1-.3-1.1-2.2-1.1-1.3.2-1.8.7c0-1.5.8-2.3 2.5-2.3h1.1c2.2 0 3.7-.5 3.8-1.9h-1.1c0 .6-1.4.8-2.2.8h-1.4c-2.5 0-3.8 1.2-3.8 3.2v2.6c0 1.2.2 2 .4 3"/><path d="m67.9 27.8c-1.5 0-2.2-.7-2.2-2v-.4c.1-1.1 1.1-1.6 2.2-1.6s2.1.6 2.1 1.9v.3c0 1.1-.8 1.8-2.1 1.8m.1 1.1c2.1 0 3.3-1.1 3.3-2.9v-.3c0-2.1-1.3-3-3.1-3s-1.9.2-2.4.8v-4.2h-1.2v6.7c0 1.8 1.2 3 3.3 3z"/><path d="m73 28.7h1.2c-.3-1.3-.3-2-.3-3.7v-2.8c0-1.3.7-2 2.2-2s2.2.7 2.2 2v2.8c0 1.7 0 2.3-.3 3.7h1.2c.3-1.1.4-2 .4-3.5v-3.1c0-1.9-1.2-3-3.3-3s-3.3 1.2-3.3 3v3.1c0 1.5 0 2.4.4 3.5"/></g></g></svg>