<svg enable-background="new 0 0 212 81" viewBox="0 0 212 81" xmlns="http://www.w3.org/2000/svg"><g fill="#cf1020"><path d="m60.01 22.58h-30.54c-1.44 0-2.61 1.18-2.61 2.63v30.82c0 1.45 1.17 2.63 2.61 2.63h30.54c1.44 0 2.61-1.18 2.61-2.63v-30.82c-.01-1.45-1.18-2.63-2.61-2.63m-10.8 22.52c0 .2-.08.39-.22.53l-8.72 8.72v-17.57c0-.2.08-.39.22-.53l8.72-8.72z"/><g stroke="#cf1020" stroke-miterlimit="10" stroke-width=".25"><path d="m74.8 37.27c1.85 0 3.14-.98 3.14-2.56v-.91c0-1.34-.94-1.82-.94-1.82s.83-.42.83-1.6c0-1.37-.89-1.88-2.59-2.2-.75-.13-1.31-.36-1.38-.71h-1.15c.07 1.03.74 1.35 2.39 1.65.95.17 1.57.51 1.57 1.22 0 .72-.51 1.14-1.57 1.14h-.82v1.09h.89c1.09 0 1.6.47 1.6 1.29v.86c0 .95-.74 1.43-1.94 1.43-1.19 0-1.92-.55-1.92-1.52v-.56h-1.18v.56c-.02 1.61 1.25 2.64 3.07 2.64"/><path d="m79.98 37.1h1.17c-.29-1.35-.35-2.03-.35-3.67v-2.83c0-1.29.68-2 2.15-2 1.46 0 2.15.71 2.15 2v2.83c0 1.65-.04 2.32-.34 3.67h1.15c.27-1.09.36-2 .36-3.53v-3.07c0-1.86-1.21-3.03-3.33-3.03s-3.33 1.17-3.33 3.03v3.07c-0 1.53.1 2.44.37 3.53"/><path d="m88.24 37.1h1.17c-.28-1.21-.35-1.88-.35-3.21.03-1.18.62-1.73 1.7-1.73 1.11 0 1.62.59 1.66 1.78v1.3h1.18v-1.3c.04-1.19.56-1.78 1.68-1.78 1.13 0 1.7.59 1.7 1.84-.01 1.26-.08 1.92-.35 3.1h1.15c.26-.99.36-1.85.38-3.17 0-1.97-1.05-2.86-2.76-2.86-1.9 0-2.39 1.09-2.39 1.09s-.29-1.09-2.2-1.09c-.75 0-1.31.2-1.76.67v-.12c-.08-1.39.79-2.23 2.53-2.23h1.07c2.21 0 3.71-.46 3.85-1.93h-1.14c-.07.62-1.37.8-2.25.8h-1.41c-2.51 0-3.84 1.22-3.84 3.25v2.63c.04 1.2.15 2.02.38 2.96"/><path d="m102.86 37.27c1.85 0 3.14-.98 3.14-2.56v-.91c0-.75-.32-1.37-.95-1.82.54-.39.84-.97.84-1.66v-.35c0-1.54-1.17-2.49-2.99-2.49s-2.98 1.03-2.98 2.63v.52h1.18v-.53c0-.97.6-1.5 1.8-1.5 1.18 0 1.82.46 1.82 1.37v.3c0 .78-.51 1.22-1.57 1.22h-.83v1.09h.9c1.09 0 1.6.47 1.6 1.29v.86c0 .95-.74 1.43-1.94 1.43-1.19 0-1.92-.55-1.92-1.52v-.56h-1.18v.56c-.01 1.6 1.25 2.63 3.08 2.63"/><path d="m111.01 37.27c2.12 0 3.31-1.15 3.31-2.99v-3.78c0-1.86-1.17-3.03-3.29-3.03s-3.26 1.17-3.26 3.03v.12h1.18c0-1.29.62-2.03 2.09-2.03 1.46 0 2.09.71 2.09 2v3.58c0 1.27-.67 1.97-2.15 1.97-1.46 0-2.15-.7-2.15-1.97v-.11h-1.18v.21c.02 1.85 1.23 3 3.36 3"/><path d="m126.98 37.27h1.3c-.13-1.17-.93-1.93-3.8-1.93h-5.24c-1.35 0-2.13-.71-2.13-1.9v-2.91c0-1.39.67-1.93 1.46-1.93s1.49.54 1.49 1.69v2.75h1.18v-2.75c0-1.15.67-1.69 1.48-1.69.79 0 1.42.54 1.48 1.69v2.75h1.18v-2.75c.05-1.15.62-1.69 1.48-1.69s1.5.54 1.5 2.15c0 1.65-.04 2.32-.36 3.67h1.17c.28-1.09.38-2.76.38-3.53 0-2.33-.64-3.42-2.52-3.42-1.89 0-2.2 1.11-2.2 1.11s-.47-1.11-2.09-1.11c-1.61 0-2.07 1.11-2.07 1.11s-.44-1.11-2.25-1.11c-1.8 0-2.47 1.25-2.47 3.42v2.61c0 1.74 1.21 2.96 3.31 2.96h5.32c1.02.01 2.32.08 2.4.81"/><path d="m131.79 37.19h1.17c-.29-1.35-.35-2.03-.35-3.67v-2.83c0-1.29.68-2 2.15-2 1.46 0 2.15.71 2.15 2v2.83c0 1.65-.04 2.32-.34 3.67h1.15c.27-1.09.36-2 .36-3.53v-3.07c0-1.86-1.21-3.03-3.33-3.03s-3.33 1.17-3.33 3.03v3.07c.01 1.53.1 2.44.37 3.53"/><path d="m74.79 51.47c2.12 0 3.31-1.15 3.31-2.99v-2.68c0-1.76-1.11-2.51-2.63-2.9-1.52-.4-1.69-.83-1.74-1.07h-1.22c0 1.18.98 1.65 2.51 2.08 1.54.44 1.9 1.03 1.9 1.9v2.56c0 1.27-.67 1.97-2.15 1.97-1.46 0-2.15-.7-2.15-1.97v-.54h-1.18v.64c.01 1.85 1.21 3 3.35 3"/><path d="m79.94 51.3h1.17c-.28-1.21-.35-1.88-.35-3.21.03-1.18.62-1.73 1.7-1.73 1.11 0 1.62.59 1.66 1.78v1.3h1.18v-1.3c.04-1.19.56-1.78 1.68-1.78 1.13 0 1.7.59 1.7 1.84-.01 1.26-.08 1.92-.35 3.1h1.15c.25-.99.36-1.85.38-3.17 0-1.97-1.05-2.86-2.76-2.86-1.9 0-2.39 1.09-2.39 1.09s-.29-1.09-2.2-1.09c-.75 0-1.31.2-1.76.67v-.12c-.08-1.39.79-2.23 2.53-2.23h1.07c2.21 0 3.71-.46 3.85-1.93h-1.14c-.07.62-1.37.8-2.25.8h-1.41c-2.51 0-3.84 1.22-3.84 3.25v2.63c.04 1.2.15 2.02.38 2.96"/><path d="m94.8 50.34c-1.46 0-2.15-.7-2.15-1.97v-.42c.13-1.07 1.13-1.56 2.17-1.56 1.19 0 2.11.56 2.11 1.9v.29c0 1.11-.75 1.76-2.13 1.76m.01 1.13c2.05 0 3.31-1.13 3.31-2.9v-.34c0-2.11-1.35-2.96-3.08-2.96-.86 0-1.89.25-2.39.8v-4.25h-1.18v6.65c0 1.85 1.21 3 3.34 3z"/><path d="m99.89 51.3h1.17c-.29-1.35-.35-2.03-.35-3.67v-2.83c0-1.29.68-2 2.15-2 1.46 0 2.15.71 2.15 2v2.83c0 1.65-.04 2.32-.34 3.67h1.15c.27-1.09.36-2 .36-3.53v-3.07c0-1.86-1.21-3.03-3.33-3.03s-3.33 1.17-3.33 3.03v3.07c.01 1.53.1 2.44.37 3.53"/></g></g></svg>