<svg xmlns="http://www.w3.org/2000/svg" xml:space="preserve" viewBox="0 0 243 137"><title>Hessischer Rundfunk-Logo</title><path d="M147.6 62.6c-4.2 0-7.7-3.5-7.7-7.9 0-4.3 3.4-7.9 7.7-7.9 4.2 0 7.7 3.5 7.7 7.9s-3.4 7.9-7.7 7.9m0-17.5c-5.2 0-9.4 4.3-9.4 9.6s4.2 9.6 9.4 9.6 9.4-4.3 9.4-9.6-4.2-9.6-9.4-9.6m-44 47.8V75.7c0-2.2 0-3.2-.6-3.8-.5-.5-1.5-.8-3.3-.8-1.3 0-2.8.2-4.7.5v21.3h-9V50.4l9-.6v13.9c1.9-.3 4.3-.6 6.4-.6 4.1 0 6.9 1.2 8.6 3.1 2.4 2.4 2.6 5.3 2.6 8.7v18zm22 0h-9V75.4c0-3.1.1-5.9 2.5-8.4 2.7-2.7 6.9-3.8 16.2-3.9v7.8c-6.9.2-8.4.7-9.1 1.4-.5.5-.6 1.2-.6 2.7z"></path><path d="M150.7 57.6v-7.9l-7.7 2.8v2l2.6-1v5.9z"></path></svg>
