<svg fill="none" height="31" viewBox="0 0 61 31" width="61" xmlns="http://www.w3.org/2000/svg"><path d="m51.2299 12.2379h-8.9599v8.9486h8.9599z" fill="#f00"/><path d="m60.1102 21.1787h-8.9569v8.9594h8.9569z" fill="#f00"/><g fill="#b2b1b1"><path d="m1.2251.138062h8.49258v12.256838h7.82542v-12.256838h8.493v29.897238h-8.493v-10.5575h-7.82542v10.5575h-8.49258z"/><path d="m17.4595 30.0846v-29.946538h11.4246v6.831938c-.2898-.03529-.6041-.05984-.9439-.05984h-1.9129v5.58614h1.9129c.3398 0 .6541-.0138.9439-.0628v11.9393l-2.8314-4.8692v10.581zm11.4246-29.946538h.743c13.5621 0 14.2286 13.968338 4.7421 17.490338-.0117 0-.2777.0775-.2895.0775l8.4181 12.3787h-10.2931l-3.3206-5.7118v-11.9393c2.0248-.2777 2.856-1.5119 2.856-2.73225 0-1.21777-.8312-2.45255-2.856-2.73125z"/><path d="m33.3105.424805h26.3195v7.421335h-8.4662v4.39146h-8.9481v-4.39146h-8.9052z"/></g><g fill="#fff"><path d="m34.0522.424805h-1.6601v7.413175h1.6601z"/><path d="m2.10315.138062h-2.10315v29.896938h2.10315z"/><path d="m18.2916.294067h-1.6744v12.268933h1.6744z"/></g></svg>