<svg enable-background="new 0 0 1024 1024" viewBox="0 0 1024 1024" xmlns="http://www.w3.org/2000/svg"><path d="m1024 491.7-41.5.1c-.2-277.3-239-484.5-486-484.5-297.4.1-496.5 237.1-496.5 485 0 341 267.2 528.7 496.4 528.7 288 0 527.6-207.6 527.6-528.7 0-.2 0-.4 0-.6zm-933.6.6c0-271.7 241.6-430.2 406-430.2 365.3 0 454.7 303.3 454.8 429.9 0 0-53.6.2-53.6.3 0 257.2-196.2 418-401.9 418-227.3-.4-405.3-176.9-405.3-418zm775.8-.1-34.8.1c-.2-186.2-169.1-332.3-335-332.3-199.6 0-338.5 166-338.5 332.5 0 297.5 248.7 370.6 338.5 370.6 225.1 0 369.8-160.6 369.8-370.6 0-.1 0-.2 0-.3zm-628.6.3c0-150.4 146.6-271.6 258.8-271.6 266.1 0 301.9 229.4 301.9 271.4-1.8 0-48.1.1-48.1.2 0 187.7-147.4 270.3-254.3 270.3-137.8 0-258.3-108.4-258.3-270.3zm482.3.3h-33.8c-.1-97.5-88.2-182.5-189.2-182.5-120.4 0-194.5 95.6-194.5 182.7 0 200 168.7 223.4 194.5 223.4 172.5 0 223-128.9 223-223.4-0-.1-0-.1-0-.2zm-336 .2c0-49.7 37-117.7 113-126.6 150-17.5 153.5 130 154.6 126.5 0 0-47.7.1-47.7.1 0 120.4-101 124.2-107.1 124.2-33.1-.1-112.8-16.2-112.8-124.2z" fill="#fff"/></svg>