<svg viewBox="0 0 512 836.1" xmlns="http://www.w3.org/2000/svg"><path d="m437.2 4.8-181.3 82.3-210.8 95.8c-27.5 12.4-45.1 39.8-45.1 69.9v508.8l141.9-64.4 114.1 51.8 181.2 82.3c35 15.9 74.8-9.7 74.8-48.2v-730.1c0-38.5-39.7-64.1-74.8-48.2z" fill="#fff"/><g fill="#151b1f"><path d="m71.3 237.6c8.5 0 15.8 3 21.9 9.1s9.1 13.4 9.1 21.9-3 15.8-9.1 21.9-13.4 9.1-21.9 9.1-15.8-3-21.9-9.1-9.1-13.4-9.1-21.9 3-15.8 9.1-21.9c6-6 13.3-9.1 21.9-9.1zm28.3 271.5h-56.3v-182.3h56.2v182.3z"/><path d="m266.1 365.2h-65.1v76.8c0 8.8 2.4 15.8 7.2 20.9 4.8 5.2 11.6 7.7 20.4 7.7s11.8-.8 17.6-2.3 12.5-4.3 20-8.1v40.7c-9.8 4.1-18.7 7.1-26.8 8.7-8 1.7-16.4 2.5-25.2 2.5s-18.2-1.2-26.6-3.5-15.8-6.1-22.1-11.2c-6.3-5.2-11.4-12.1-15.1-20.7-3.8-8.7-5.6-19.2-5.6-31.6v-79.9h-25.6v-10.9l74.8-83.8h7v56.2h65.1z"/><path d="m276.3 326.8h60.1l38 98.5 38.4-98.5h59.7l-82.2 182.3h-31.4z"/></g><path d="m141.9 697.2 295.3 134.1c35 15.9 74.8-9.7 74.8-48.2v-254z" fill="#f7f7f7"/></svg>