<svg viewBox="0 0 452.74 466.55" xmlns="http://www.w3.org/2000/svg"><path d="m452.54 205.89c-7.8-43.82-65-54.72-88.35-16.83v-29.14a48.87 48.87 0 0 0 5.57-.31 48.07 48.07 0 0 0 42.53-47.71c.14-26.65-22.07-48.23-48.13-48h-.1v-19.5c-1.46-24.75-23.26-45.04-48.21-44.53a48 48 0 0 0 -47.54 46.57l-.09-.16a.81.81 0 0 0 0 .15c-23.36-40.36-84.31-27.43-89.42 18.84-.36 3-.22 8.23-.25 11.3l-.09-.16v.15a48 48 0 0 0 -89.52 24v190.83a1.4 1.4 0 0 1 -.1-.16v.15c-18.84-31.38-64.65-30.45-82.55.76l-.18.29a47.78 47.78 0 0 0 -6.11 19.67v66.79c2.26 40.54 32.3 75.93 72.28 84.6 1.48.34 3 .63 4.49.88 43.21 7.82 86.77-18.06 101.67-57.23v.24c0-.08.06-.15.09-.24v11.39a48.16 48.16 0 0 0 35.17 46.27c30 8.75 61.19-15.27 60.77-46a1 1 0 0 0 0-.24v-11.11l.1.24v-.23a92.76 92.76 0 0 0 65.91 56c44.8 10.54 91.92-16.31 106.72-57.83a91.85 91.85 0 0 0 5.54-24.43v-174c-.06-.43-.12-.87-.2-1.31zm-274 175.32c-4.16 51.13-56.22 88.47-106.57 75.45a86.36 86.36 0 0 1 -65.77-83.86v-32.51a3.14 3.14 0 0 1 -.2-.29c0-.07-.08-.14-.13-.22.11-.25.2-.5.31-.75v-26.69c2.67-31.94 40.55-49 66.36-29.72a41.58 41.58 0 0 1 16.38 26.44v64.7a3.11 3.11 0 1 0 6.21 0v-273.2a41.76 41.76 0 0 1 83.4-3.2zm95.87-169a85.31 85.31 0 0 0 -6.3 27.84v182.18c-5.9 50.35-77.23 50.6-83.21-.09v-355.58c5.85-50.39 77.08-50.77 83.21-.08v11.38a3.19 3.19 0 1 0 6.37 0v-30a41.69 41.69 0 0 1 41.27-41.7h2.08a41.76 41.76 0 0 1 39.9 36.84v27.68c.26 0 .52-.09.79-.12a42.11 42.11 0 0 1 12 .09c50.73 9.14 45.3 81.57-6.3 83v.07h-.22c-.81 0-1.62-.05-2.43-.05h-.43c-.67 0-1.35 0-2 0h-.09-1.34-.16-.79a90 90 0 0 0 -13.22 1.5 91.05 91.05 0 0 0 -21.24 6.69l-.16.07a92.91 92.91 0 0 0 -47.55 49.89c-.06.18-.12.29-.17.42zm172.33 169c-4 47.58-48.48 83.84-96.6 77.56-40.89-4.89-73.57-39.06-75.66-81.13v-136c2.2-44.85 39.21-80.4 83.15-81.71v213.86a3.21 3.21 0 0 0 3 3.06h.25a3.22 3.22 0 0 0 3.33-3.06v-167.09a41.74 41.74 0 0 1 41.45-34.52 3.38 3.38 0 0 1 .45 0c1.21 0 2.43.1 3.63.23.3 0 .59.06.89.1a41.78 41.78 0 0 1 36.14 36.75v155.6a86.6 86.6 0 0 1 -.02 16.35z" fill="#fff"/></svg>