<svg viewBox="0 0 423.1 399.8" xmlns="http://www.w3.org/2000/svg"><g fill="#fff"><path d="m125.3 75.8c-21.6 0-39.1 17.5-39.1 39.1v202.7c0 2.2-1.8 4-4 4s-4-1.8-4-4v-78.3c0-21.6-17.5-39.1-39.1-39.1s-39.1 17.6-39.1 39.1v78.3c0 45.3 36.9 82.2 82.2 82.2s82.2-36.9 82.2-82.2v-202.7c0-21.5-17.5-39.1-39.1-39.1z"/><path d="m384 161.2c-21.6 0-39.1 17.5-39.1 39.1v117.3c0 2.2-1.8 4-4 4s-4-1.8-4-4v-183.9c-46.9 19-78.2 65.4-78.2 116.1v67.8c0 45.3 36.9 82.2 82.2 82.2s82.2-36.9 82.2-82.2v-117.3c0-21.5-17.6-39.1-39.1-39.1z"/><path d="m335.6 125.6c1.3-.6 2.6-1.1 4.1-1.5 2.7-1 5.5-1.8 8.3-2.6 22.7-8 32-20.1 32-41.6s-4.1-19.8-11.6-26.9c-7.4-6.9-17.3-10.5-27.2-9.9-2 0-3.8-1.2-4.3-3.4.3-22.1-17.7-40.1-39.8-39.7-21.4.4-38.4 18.4-38.4 39.8v37.4c0 2.1-1.5 4-3.6 4.2-2.4.2-4.4-1.6-4.4-4 0-21.9-18.1-39.6-40-39.1-21.3.5-38.2 18.5-38.2 39.8v264.2c0 21.4 16.8 39.3 38.2 39.8 22 .5 40-17.2 40-39.1v-93.2c0-27.4 8.3-53.8 23.9-76.2 15.2-21.7 36.3-38.4 61-48z"/></g></svg>