<svg fill="none" viewBox="0 0 46 29" xmlns="http://www.w3.org/2000/svg"><path d="m14.82 21.292h-3.516v-16.242h3.516zm13.165-1.642-6.489-6.49 6.477-6.475-2.538-2.535-9.008 9.009 9.023 9.024zm16.666-6.5c-.0021-2.1476-.8562-4.20664-2.3748-5.72522-1.5185-1.51859-3.5776-2.37266-5.7252-2.37478h-3.92v3.52h3.922c.6049 0 1.2038.11914 1.7627.35061.5588.23148 1.0666.57075 1.4943.99846.4277.42773.7669.93543.9984 1.49433.2315.5588.3506 1.1577.3506 1.7626s-.1191 1.2038-.3506 1.7626c-.2315.5589-.5707 1.0666-.9984 1.4943s-.9355.767-1.4943.9985c-.5589.2315-1.1578.3506-1.7627.3506h-3.922v3.515h3.922c2.1531-.0079 4.2151-.8696 5.7337-2.396 1.5185-1.5265 2.3695-3.5929 2.3663-5.746m-39.73697-10.805h-3.51601v24.332h3.51601z" fill="#fff"/></svg>