<?xml version="1.0" encoding="UTF-8" standalone="no"?>
<!DOCTYPE svg PUBLIC "-//W3C//DTD SVG 1.1//EN" "http://www.w3.org/Graphics/SVG/1.1/DTD/svg11.dtd">
<svg width="100%" height="100%" viewBox="0 0 1110 316" version="1.1" xmlns="http://www.w3.org/2000/svg" xmlns:xlink="http://www.w3.org/1999/xlink" xml:space="preserve" xmlns:serif="http://www.serif.com/" style="fill-rule:evenodd;clip-rule:evenodd;stroke-linejoin:round;stroke-miterlimit:2;">
    <g transform="matrix(1,0,0,1,997.621,47.845)">
        <path d="M0,46.811L36.117,44.267C38.523,58.181 43.87,67.385 57.802,67.385C65.824,67.385 74.46,64.204 74.46,53.589C74.46,49.813 73.426,46.811 70.495,43.591C67.81,41.047 61.122,38.006 51.144,35.541C30.015,30.91 4.94,21.268 4.94,-7.395C4.94,-23.375 13.963,-35.819 26.636,-42.219C33.831,-45.956 44.356,-47.845 57.177,-47.845C83.166,-47.845 104.147,-38.402 107.715,-6.737L71.598,-4.333C71.092,-10.515 68.765,-14.769 65.525,-17.969C60.864,-22.164 47.635,-23.792 43.402,-18.506C39.785,-15.563 38.392,-7.851 42.746,-5.506C44.356,-3.658 48.918,-1.809 55.567,-0.596C79.429,5.764 111.591,12.96 111.591,47.308C111.591,66.51 101.473,80.683 86.606,88.991C78.893,92.907 68.765,94.656 57.177,94.656C36.117,94.656 21.537,90.402 13.884,80.959C5.565,72.295 1.004,60.526 0,46.811" style="fill:white;"/>
    </g>
    <g transform="matrix(1,0,0,1,301.051,139.916)">
        <path d="M0,-137.41L115.617,-137.41L115.617,-103.202L76.608,-103.202L76.608,0L38.871,0L38.871,-103.202L0,-103.202L0,-137.41Z" style="fill:white;"/>
    </g>
    <g transform="matrix(1,0,0,1,459.662,139.916)">
        <path d="M0,-137.41L40.112,-137.41L67.762,-38.482L95.132,-137.41L133.486,-137.41L87.908,0L46.762,0L0,-137.41Z" style="fill:white;"/>
    </g>
    <g transform="matrix(1,0,0,1,-405.394,-555.295)">
        <rect x="1039.22" y="557.801" width="37.688" height="137.41" style="fill:white;"/>
    </g>
    <g transform="matrix(1,0,0,1,769.32,142.501)">
        <path d="M0,-139.995L37.747,-139.995L37.747,-65.417C37.747,-49.852 36.672,-37.35 34.556,-29.239C27.36,-8.826 9.164,0 -9.442,0C-27.311,0 -44.804,-3.519 -54.444,-22.361C-57.812,-29.239 -60.09,-37.985 -60.467,-49.137L-24.429,-54.147C-24.429,-48.521 -23.833,-43.611 -23.346,-41.067C-21.12,-35.341 -17.999,-31.665 -12.225,-31.665C-1.292,-31.665 0,-46.155 0,-55.419L0,-139.995Z" style="fill:white;"/>
    </g>
    <g transform="matrix(1,0,0,1,0,139.916)">
        <path d="M0,-137.41L37.717,-137.41L37.717,-33.511L96.583,-33.511L96.583,0L0,0L0,-137.41Z" style="fill:white;"/>
    </g>
    <g transform="matrix(1,0,0,1,203.474,139.916)">
        <path d="M-19.968,-137.41L21.189,-137.41L67.204,0L27.839,0L21.696,-22.223L-21.588,-22.223L-27.301,0L-66.131,0L-19.968,-137.41ZM-13.338,-52.138L13.894,-52.138L0,-101.314L0,-101.949L-13.338,-52.138Z" style="fill:white;"/>
    </g>
    <g transform="matrix(1,0,0,1,904.427,54.6435)">
        <path d="M13.367,33.134L-13.766,33.134L0,-16.676L0,-16.041L13.367,33.134ZM21.099,-52.138L-20.513,-52.138L-66.569,85.272L-27.65,85.272L-21.558,63.049L21.099,63.049L27.242,85.272L67.275,85.272L21.099,-52.138Z" style="fill:white;"/>
    </g>
    <g transform="matrix(1,0,0,1,1053.54,244.909)">
        <path d="M10.802,26.575L-10.704,26.575L0,-13.438L0,-12.941L10.802,26.575ZM16.945,-41.901L-16.479,-41.901L-53.51,68.476L-22.243,68.476L-17.344,50.607L17.48,50.607L21.855,68.476L53.896,68.476L16.945,-41.901Z" style="fill:white;"/>
    </g>
    <g transform="matrix(1,0,0,1,0,313.385)">
        <path d="M0,-110.377L91.912,-110.377L91.912,-82.927L61.61,-82.927L61.61,0L30.82,0L30.82,-82.927L0,-82.927L0,-110.377Z" style="fill:white;"/>
    </g>
    <g transform="matrix(1,0,0,1,129.411,313.385)">
        <path d="M0,-110.377L81.655,-110.377L81.655,-86.902L30.759,-86.902L30.759,-69.392L78.118,-69.392L78.118,-46.89L30.759,-46.89L30.759,-24.966L83.424,-24.966L83.424,0L0,0L0,-110.377Z" style="fill:white;"/>
    </g>
    <g transform="matrix(1,0,0,1,251.437,313.385)">
        <path d="M0,-110.377L30.334,-110.377L30.334,-26.932L78.087,-26.932L78.087,0L0,0L0,-110.377Z" style="fill:white;"/>
    </g>
    <g transform="matrix(1,0,0,1,369.816,313.385)">
        <path d="M0,-110.377L81.755,-110.377L81.755,-86.902L30.761,-86.902L30.761,-69.392L78.089,-69.392L78.089,-46.89L30.761,-46.89L30.761,-24.966L83.506,-24.966L83.506,0L0,0L0,-110.377Z" style="fill:white;"/>
    </g>
    <g transform="matrix(1,0,0,1,486.525,313.385)">
        <path d="M0,-110.377L31.714,-110.377L53.927,-30.908L75.793,-110.377L106.553,-110.377L70.037,0L37.409,0L0,-110.377Z" style="fill:white;"/>
    </g>
    <g transform="matrix(1,0,0,1,629.732,313.385)">
        <rect x="0" y="-110.377" width="30.829" height="110.377" style="fill:white;"/>
    </g>
    <g transform="matrix(1,0,0,1,705.106,313.385)">
        <path d="M0,-110.377L86.099,-110.377L86.099,-88.413L30.91,-23.374L87.947,-23.374L87.947,0L-5.306,0L-5.306,-22.937L49.207,-86.902L0,-86.902L0,-110.377Z" style="fill:white;"/>
    </g>
    <g transform="matrix(1,0,0,1,830.452,313.385)">
        <rect x="0" y="-110.377" width="30.69" height="110.377" style="fill:white;"/>
    </g>
    <g transform="matrix(1,0,0,1,941.836,315.433)">
        <path d="M0,-112.425L30.829,-112.425L30.829,-52.516C30.829,-40.033 29.438,-29.994 27.609,-23.495C25.433,-16.916 21.407,-11.529 15.632,-6.937C9.343,-2.424 1.797,0 -7.594,0C-17.383,0 -25.433,-1.41 -30.8,-4.551C-36.198,-7.553 -40.609,-11.946 -43.284,-17.969C-46.345,-23.495 -48.193,-30.493 -48.6,-39.477L-19.64,-43.491C-19.64,-38.96 -19.192,-35.024 -18.248,-32.956C-17.741,-30.493 -16.528,-28.504 -14.73,-27.014C-13.338,-26.001 -12.017,-25.422 -9.87,-25.422C-6.281,-25.422 -3.926,-27.014 -2.107,-29.994C-0.875,-32.956 0,-37.468 0,-44.505L0,-112.425Z" style="fill:white;"/>
    </g>
    <g transform="matrix(1,0,0,1,619.883,192.253)">
        <rect x="-1.838" y="-14.708" width="55.476" height="14.708" style="fill:white;"/>
    </g>
</svg>