<svg clip-rule="evenodd" fill-rule="evenodd" stroke-linejoin="round" stroke-miterlimit="2" viewBox="0 0 1110 316" xmlns="http://www.w3.org/2000/svg"><g fill="#fff"><path d="m0 46.811 36.117-2.544c2.406 13.914 7.753 23.118 21.685 23.118 8.022 0 16.658-3.181 16.658-13.796 0-3.776-1.034-6.778-3.965-9.998-2.685-2.544-9.373-5.585-19.351-8.05-21.129-4.631-46.204-14.273-46.204-42.936 0-15.98 9.023-28.424 21.696-34.824 7.195-3.737 17.72-5.626 30.541-5.626 25.989 0 46.97 9.443 50.538 41.108l-36.117 2.404c-.506-6.182-2.833-10.436-6.073-13.636-4.661-4.195-17.89-5.823-22.123-.537-3.617 2.943-5.01 10.655-.656 13 1.61 1.848 6.172 3.697 12.821 4.91 23.862 6.36 56.024 13.556 56.024 47.904 0 19.202-10.118 33.375-24.985 41.683-7.713 3.916-17.841 5.665-29.429 5.665-21.06 0-35.64-4.254-43.293-13.697-8.319-8.664-12.88-20.433-13.884-34.148" transform="translate(997.621 47.845)"/><path d="m0-137.41h115.617v34.208h-39.009v103.202h-37.737v-103.202h-38.871z" transform="translate(301.051 139.916)"/><path d="m0-137.41h40.112l27.65 98.928 27.37-98.928h38.354l-45.578 137.41h-41.146z" transform="translate(459.662 139.916)"/><path d="m633.826 2.506h37.688v137.41h-37.688z"/><path d="m0-139.995h37.747v74.578c0 15.565-1.075 28.067-3.191 36.178-7.196 20.413-25.392 29.239-43.998 29.239-17.869 0-35.362-3.519-45.002-22.361-3.368-6.878-5.646-15.624-6.023-26.776l36.038-5.01c0 5.626.596 10.536 1.083 13.08 2.226 5.726 5.347 9.402 11.121 9.402 10.933 0 12.225-14.49 12.225-23.754z" transform="translate(769.32 142.501)"/><path d="m0-137.41h37.717v103.899h58.866v33.511h-96.583z" transform="translate(0 139.916)"/><path d="m-19.968-137.41h41.157l46.015 137.41h-39.365l-6.143-22.223h-43.284l-5.713 22.223h-38.83zm6.63 85.272h27.232l-13.894-49.176v-.635z" transform="translate(203.474 139.916)"/><path d="m13.367 33.134h-27.133l13.766-49.81v.635zm7.732-85.272h-41.612l-46.056 137.41h38.919l6.092-22.223h42.657l6.143 22.223h40.033z" transform="translate(904.427 54.6435)"/><path d="m10.802 26.575h-21.506l10.704-40.013v.497zm6.143-68.476h-33.424l-37.031 110.377h31.267l4.899-17.869h34.824l4.375 17.869h32.041z" transform="translate(1053.54 244.909)"/><path d="m0-110.377h91.912v27.45h-30.302v82.927h-30.79v-82.927h-30.82z" transform="translate(0 313.385)"/><path d="m0-110.377h81.655v23.475h-50.896v17.51h47.359v22.502h-47.359v21.924h52.665v24.966h-83.424z" transform="translate(129.411 313.385)"/><path d="m0-110.377h30.334v83.445h47.753v26.932h-78.087z" transform="translate(251.437 313.385)"/><path d="m0-110.377h81.755v23.475h-50.994v17.51h47.328v22.502h-47.328v21.924h52.745v24.966h-83.506z" transform="translate(369.816 313.385)"/><path d="m0-110.377h31.714l22.213 79.469 21.866-79.469h30.76l-36.516 110.377h-32.628z" transform="translate(486.525 313.385)"/><path d="m629.732 203.008h30.829v110.377h-30.829z"/><path d="m0-110.377h86.099v21.964l-55.189 65.039h57.037v23.374h-93.253v-22.937l54.513-63.965h-49.207z" transform="translate(705.106 313.385)"/><path d="m830.452 203.008h30.69v110.377h-30.69z"/><path d="m0-112.425h30.829v59.909c0 12.483-1.391 22.522-3.22 29.021-2.176 6.579-6.202 11.966-11.977 16.558-6.289 4.513-13.835 6.937-23.226 6.937-9.789 0-17.839-1.41-23.206-4.551-5.398-3.002-9.809-7.395-12.484-13.418-3.061-5.526-4.909-12.524-5.316-21.508l28.96-4.014c0 4.531.448 8.467 1.392 10.535.507 2.463 1.72 4.452 3.518 5.942 1.392 1.013 2.713 1.592 4.86 1.592 3.589 0 5.944-1.592 7.763-4.572 1.232-2.962 2.107-7.474 2.107-14.511z" transform="translate(941.836 315.433)"/><path d="m618.045 177.545h55.476v14.708h-55.476z"/></g></svg>