<svg viewBox="0 0 1141.2 1141.2" xmlns="http://www.w3.org/2000/svg"><g fill="#fff"><path d="m313.2 497.9v145.4h26.4v-102.6l35.7 102.6h25.4l35.7-102.6v102.6h26.4v-145.4h-41.2l-33.6 102.1-33.6-102.1z"/><path d="m477.5 497.9v27.8h38.3v117.7h31.4v-117.7h38.1v-27.8h-107.7z"/><path d="m594.5 497.9 47.7 145.4h37.1l47.7-145.4h-34.1l-32.1 103-32.1-103h-34.1z"/><path d="m756.9 497.9-36.3 112.8-10.5 32.6h29.3l7.6-24.6 2.8-8h45.5l2.8 8 8.1 24.6h29.8l-10.5-32.6-36.3-112.8h-32.4zm16.2 30.9 16 52.8h-32z"/><path d="m570.6 191.9c-6.5 0-13.1.2-19.5.5s-12.9.8-19.3 1.5c-6.4.6-12.7 1.4-19 2.4s-12.5 2.1-18.7 3.3c-6.2 1.3-12.3 2.7-18.3 4.2-6.1 1.6-12.1 3.3-18 5.1s-11.8 3.8-17.6 5.9-11.5 4.4-17.2 6.8-11.3 4.9-16.8 7.6-11 5.4-16.3 8.4c-5.4 2.9-10.7 5.9-15.9 9.1s-10.3 6.4-15.4 9.8-10 6.9-14.8 10.5-9.6 7.4-14.3 11.2-9.3 7.8-13.7 11.9-8.9 8.2-13.1 12.5-8.5 8.7-12.5 13.1c-4.1 4.5-8 9.1-11.9 13.7s-7.6 9.4-11.2 14.3-7.1 9.8-10.5 14.8-6.7 10.2-9.8 15.4c-3.2 5.2-6.2 10.5-9.1 15.9s-5.7 10.8-8.4 16.3-5.2 11.1-7.6 16.8-4.6 11.4-6.8 17.2-4.1 11.7-5.9 17.6-3.5 11.9-5.1 18-3 12.2-4.2 18.3-2.4 12.4-3.3 18.7c-1 6.3-1.8 12.6-2.4 19s-1.1 12.8-1.5 19.3c-.3 6.5-.5 13-.5 19.5s.2 13.1.5 19.5.8 12.9 1.5 19.3c.6 6.4 1.4 12.7 2.4 19s2.1 12.5 3.3 18.7 2.7 12.3 4.2 18.3c1.6 6.1 3.3 12.1 5.1 18s3.8 11.8 5.9 17.6 4.4 11.5 6.8 17.2 4.9 11.3 7.6 16.8 5.4 11 8.4 16.3c2.9 5.4 5.9 10.7 9.1 15.9s6.4 10.3 9.8 15.4 6.9 10 10.5 14.8c3.6 4.9 7.4 9.6 11.2 14.3 3.9 4.7 7.8 9.3 11.9 13.7 4.1 4.5 8.2 8.9 12.5 13.1s8.7 8.5 13.1 12.5 9.1 8 13.7 11.9 9.4 7.6 14.3 11.2 9.8 7.1 14.8 10.5 10.2 6.7 15.4 9.8c5.2 3.2 10.5 6.2 15.9 9.1s10.8 5.7 16.3 8.4 11.1 5.2 16.8 7.6 11.4 4.6 17.2 6.8 11.7 4.1 17.6 5.9 11.9 3.5 18 5.1 12.2 3 18.3 4.2 12.4 2.4 18.7 3.3c6.3 1 12.6 1.8 19 2.4s12.8 1.1 19.3 1.5c6.5.3 13 .5 19.5.5s13.1-.2 19.5-.5c6.5-.3 12.9-.8 19.3-1.5 6.4-.6 12.7-1.4 19-2.4s12.5-2.1 18.7-3.3 12.3-2.7 18.3-4.2 12.1-3.3 18-5.1 11.8-3.8 17.6-5.9 11.5-4.4 17.2-6.8 11.3-4.9 16.8-7.6 11-5.4 16.3-8.4 10.7-5.9 15.9-9.1 10.3-6.4 15.4-9.8c5-3.4 10-6.9 14.8-10.5 4.9-3.6 9.6-7.4 14.3-11.2s9.3-7.8 13.7-11.9 8.9-8.2 13.1-12.5 8.5-8.7 12.5-13.1c4.1-4.5 8-9.1 11.9-13.7 3.9-4.7 7.6-9.4 11.2-14.3s7.1-9.8 10.5-14.8 6.7-10.2 9.8-15.4 6.2-10.5 9.1-15.9 5.7-10.8 8.4-16.3 5.2-11.1 7.6-16.8 4.6-11.4 6.8-17.2c2.1-5.8 4.1-11.7 5.9-17.6s3.5-11.9 5.1-18 3-12.2 4.2-18.3c1.3-6.2 2.4-12.4 3.3-18.7 1-6.3 1.8-12.6 2.4-19s1.1-12.8 1.5-19.3c.3-6.5.5-13 .5-19.5s-.2-13.1-.5-19.5c-.3-6.5-.8-12.9-1.5-19.3-.6-6.4-1.4-12.7-2.4-19s-2.1-12.5-3.3-18.7c-1.3-6.2-2.7-12.3-4.2-18.3-1.6-6.1-3.3-12.1-5.1-18s-3.8-11.8-5.9-17.6-4.4-11.5-6.8-17.2-4.9-11.3-7.6-16.8-5.4-11-8.4-16.3c-2.9-5.4-5.9-10.7-9.1-15.9s-6.4-10.3-9.8-15.4-6.9-10-10.5-14.8-7.4-9.6-11.2-14.3-7.8-9.3-11.9-13.7-8.2-8.9-12.5-13.1-8.7-8.5-13.1-12.5c-4.5-4.1-9.1-8-13.7-11.9s-9.4-7.6-14.3-11.2-9.8-7.1-14.8-10.5-10.2-6.7-15.4-9.8c-5.2-3.2-10.5-6.2-15.9-9.1s-10.8-5.7-16.3-8.4-11.1-5.2-16.8-7.6-11.4-4.6-17.2-6.8c-5.8-2.1-11.7-4.1-17.6-5.9s-11.9-3.5-18-5.1-12.2-3-18.3-4.2c-6.2-1.3-12.4-2.4-18.7-3.3-6.3-1-12.6-1.8-19-2.4s-12.8-1.1-19.3-1.5c-6.5-.3-13-.5-19.5-.5zm0 0c6.5 0 13 .2 19.5.5s12.9.8 19.2 1.5c6.4.6 12.7 1.5 18.9 2.4 6.3 1 12.5 2.1 18.6 3.3 6.2 1.3 12.2 2.7 18.3 4.2 6 1.6 12 3.3 17.9 5.1s11.8 3.8 17.6 6c5.8 2.1 11.5 4.4 17.2 6.8s11.2 4.9 16.8 7.6c5.5 2.7 11 5.5 16.3 8.4 5.4 2.9 10.7 6 15.9 9.1 5.2 3.2 10.3 6.5 15.4 9.9 5 3.4 10 6.9 14.9 10.6 4.9 3.6 9.6 7.4 14.3 11.3s9.3 7.8 13.8 11.9 8.9 8.3 13.2 12.6 8.5 8.7 12.6 13.2 8.1 9.1 11.9 13.8c3.9 4.7 7.6 9.5 11.3 14.3 3.6 4.9 7.2 9.8 10.6 14.9 3.4 5 6.7 10.2 9.9 15.4s6.2 10.5 9.1 15.9 5.7 10.8 8.4 16.3c2.7 5.5 5.2 11.1 7.6 16.8s4.7 11.4 6.8 17.2 4.1 11.6 6 17.6c1.8 5.9 3.5 11.9 5.1 17.9s3 12.1 4.2 18.3c1.3 6.2 2.4 12.4 3.3 18.6 1 6.3 1.8 12.6 2.4 18.9.6 6.4 1.1 12.8 1.5 19.2.3 6.5.5 13 .5 19.5s-.2 13-.5 19.5-.8 12.9-1.5 19.2c-.6 6.4-1.5 12.7-2.4 18.9-1 6.3-2.1 12.5-3.3 18.6-1.3 6.2-2.7 12.2-4.2 18.3-1.6 6-3.3 12-5.1 17.9s-3.8 11.8-6 17.6c-2.1 5.8-4.4 11.5-6.8 17.2s-4.9 11.2-7.6 16.8c-2.7 5.5-5.4 10.9-8.4 16.3-2.9 5.4-6 10.7-9.1 15.9-3.2 5.2-6.5 10.3-9.9 15.4-3.4 5-6.9 10-10.6 14.9-3.6 4.9-7.4 9.6-11.3 14.3s-7.8 9.3-11.9 13.8-8.3 8.9-12.6 13.2-8.7 8.5-13.2 12.6-9.1 8.1-13.8 11.9c-4.7 3.9-9.5 7.6-14.3 11.3-4.9 3.6-9.8 7.2-14.9 10.6-5 3.4-10.2 6.7-15.4 9.9s-10.5 6.2-15.9 9.1-10.8 5.7-16.3 8.4-11.1 5.2-16.8 7.6-11.4 4.7-17.2 6.8-11.6 4.1-17.6 6c-5.9 1.8-11.9 3.5-17.9 5.1s-12.1 3-18.3 4.2c-6.2 1.3-12.4 2.4-18.6 3.3-6.2 1-12.6 1.8-18.9 2.4-6.4.6-12.8 1.1-19.2 1.5-6.5.3-13 .5-19.5.5s-13-.2-19.5-.5-12.9-.8-19.2-1.5c-6.4-.6-12.7-1.5-18.9-2.4-6.3-1-12.5-2.1-18.6-3.3-6.2-1.3-12.2-2.7-18.3-4.2-6-1.6-12-3.3-17.9-5.1s-11.8-3.8-17.6-6c-5.8-2.1-11.5-4.4-17.2-6.8s-11.2-4.9-16.8-7.6c-5.5-2.7-10.9-5.4-16.3-8.4-5.4-2.9-10.7-6-15.9-9.1-5.2-3.2-10.3-6.5-15.4-9.9-5-3.4-10-6.9-14.9-10.6-4.9-3.6-9.6-7.4-14.3-11.3s-9.3-7.8-13.8-11.9-8.9-8.3-13.2-12.6-8.5-8.7-12.6-13.2-8.1-9.1-11.9-13.8c-3.9-4.7-7.6-9.5-11.3-14.3-3.6-4.9-7.2-9.8-10.6-14.9-3.4-5-6.7-10.2-9.9-15.4s-6.2-10.5-9.1-15.9-5.7-10.8-8.4-16.3-5.2-11.1-7.6-16.8-4.7-11.4-6.8-17.2-4.1-11.6-6-17.6c-1.8-5.9-3.5-11.9-5.1-17.9s-3-12.1-4.2-18.3c-1.3-6.2-2.4-12.4-3.3-18.6-1-6.3-1.8-12.6-2.4-18.9-.6-6.4-1.1-12.8-1.5-19.2-.3-6.5-.5-13-.5-19.5s.2-13 .5-19.5.8-12.9 1.5-19.2c.6-6.4 1.5-12.7 2.4-18.9 1-6.3 2.1-12.5 3.3-18.6 1.3-6.2 2.7-12.2 4.2-18.3 1.6-6 3.3-12 5.1-17.9s3.8-11.8 6-17.6c2.1-5.8 4.4-11.5 6.8-17.2s4.9-11.2 7.6-16.8c2.7-5.5 5.5-11 8.4-16.3 2.9-5.4 6-10.7 9.1-15.9 3.2-5.2 6.5-10.3 9.9-15.4 3.4-5 6.9-10 10.6-14.9 3.6-4.9 7.4-9.6 11.3-14.3s7.8-9.3 11.9-13.8 8.3-8.9 12.6-13.2 8.7-8.5 13.2-12.6 9.1-8.1 13.8-11.9c4.7-3.9 9.5-7.6 14.3-11.3 4.9-3.6 9.8-7.2 14.9-10.6 5-3.4 10.2-6.7 15.4-9.9s10.5-6.2 15.9-9.1 10.8-5.7 16.3-8.4 11.1-5.2 16.8-7.6 11.4-4.7 17.2-6.8 11.6-4.1 17.6-6c5.9-1.8 11.9-3.5 17.9-5.1s12.1-3 18.3-4.2c6.2-1.3 12.4-2.4 18.6-3.3 6.3-1 12.6-1.8 18.9-2.4 6.4-.6 12.8-1.1 19.2-1.5 6.5-.3 13-.5 19.5-.5z"/><path d="m131.5 525.5c-.8 7.4-1.3 14.9-1.7 22.4s-.6 15.1-.6 22.7.2 15.2.6 22.7 1 15 1.7 22.4c.8 7.4 1.7 14.8 2.8 22.1s2.4 14.5 3.9 21.7 3.1 14.3 4.9 21.3 3.8 14 6 20.9 4.5 13.7 6.9 20.5c2.5 6.8 5.1 13.4 7.9 20s5.7 13.1 8.8 19.5 6.4 12.8 9.8 19c3.4 6.3 6.9 12.4 10.6 18.5s7.5 12 11.5 17.9 8.1 11.6 12.3 17.3 8.6 11.2 13.1 16.7 9.1 10.8 13.9 16 9.6 10.3 14.6 15.3 10.1 9.9 15.3 14.6c5.2 4.8 10.6 9.4 16 13.9 5.5 4.5 11 8.9 16.7 13.1s11.4 8.3 17.3 12.3 11.8 7.8 17.9 11.5 12.2 7.2 18.5 10.6 12.6 6.7 19 9.8 12.9 6.1 19.5 8.8 13.3 5.4 20 7.9c6.8 2.5 13.6 4.8 20.5 6.9s13.9 4.1 20.9 6 14.2 3.5 21.3 4.9c7.2 1.5 14.4 2.8 21.7 3.9s14.7 2.1 22.1 2.8c7.4.8 14.9 1.3 22.4 1.7s15.1.6 22.7.6 15.2-.2 22.7-.6 15-1 22.4-1.7c7.4-.8 14.8-1.7 22.1-2.8s14.5-2.4 21.7-3.9 14.3-3.1 21.3-4.9 14-3.8 20.9-6 13.7-4.5 20.5-6.9c6.8-2.5 13.4-5.1 20-7.9s13.1-5.7 19.5-8.8 12.8-6.4 19-9.8c6.3-3.4 12.4-6.9 18.5-10.6s12-7.5 17.9-11.5 11.6-8.1 17.3-12.3 11.2-8.6 16.7-13.1 10.8-9.1 16-13.9 10.3-9.6 15.3-14.6 9.9-10.1 14.6-15.3 9.4-10.6 13.9-16 8.9-11 13.1-16.7 8.3-11.4 12.3-17.3 7.8-11.8 11.5-17.9 7.2-12.2 10.6-18.5 6.7-12.6 9.8-19 6.1-12.9 8.8-19.5 5.4-13.3 7.9-20c2.5-6.8 4.8-13.6 6.9-20.5s4.1-13.9 6-20.9c1.8-7 3.5-14.2 4.9-21.3 1.5-7.2 2.8-14.4 3.9-21.7s2.1-14.7 2.8-22.1c.8-7.4 1.3-14.9 1.7-22.4s.6-15.1.6-22.7-.2-15.2-.6-22.7-1-15-1.7-22.4c-.8-7.4-1.7-14.8-2.8-22.1s-2.4-14.5-3.9-21.7-3.1-14.3-4.9-21.3-3.8-14-6-20.9-4.5-13.7-6.9-20.5-5.1-13.4-7.9-20-5.7-13.1-8.8-19.5-6.4-12.8-9.8-19c-3.4-6.3-6.9-12.4-10.6-18.5s-7.5-12-11.5-17.9-8.1-11.6-12.3-17.3-8.6-11.2-13.1-16.7-9.1-10.8-13.9-16-9.6-10.3-14.6-15.3-10.1-9.9-15.3-14.6c-5.2-4.8-10.6-9.4-16-13.9s-11-8.9-16.7-13.1-11.4-8.3-17.3-12.3-11.8-7.8-17.9-11.5-12.2-7.2-18.5-10.6-12.6-6.7-19-9.8-12.9-6.1-19.5-8.8-13.3-5.4-20-7.9c-6.8-2.5-13.6-4.8-20.5-6.9-6.9-2.2-13.9-4.1-20.9-6-7-1.8-14.2-3.5-21.3-4.9s-14.4-2.8-21.7-3.9-14.7-2.1-22.1-2.8-14.9-1.3-22.4-1.7-15.1-.6-22.7-.6-15.2.2-22.7.6-15 1-22.4 1.7-14.8 1.7-22.1 2.8-14.5 2.4-21.7 3.9-14.3 3.1-21.3 4.9-14 3.8-20.9 6-13.7 4.5-20.5 6.9-13.4 5.1-20 7.9-13.1 5.7-19.5 8.8-12.8 6.4-19 9.8c-6.3 3.4-12.4 7-18.5 10.6-6.1 3.7-12 7.5-17.9 11.5s-11.6 8.1-17.3 12.3-11.2 8.6-16.7 13.1-10.8 9.1-16 13.9-10.3 9.6-15.3 14.6-9.9 10.1-14.6 15.3c-4.8 5.2-9.4 10.6-13.9 16-4.5 5.5-8.9 11-13.1 16.7s-8.3 11.4-12.3 17.3-7.8 11.8-11.5 17.9-7.2 12.2-10.6 18.5-6.7 12.6-9.8 19-6.1 12.9-8.8 19.5c-2.8 6.6-5.4 13.3-7.9 20-2.5 6.8-4.8 13.6-6.9 20.5s-4.1 13.9-6 20.9c-1.8 7-3.5 14.2-4.9 21.3-1.5 7.2-2.8 14.4-3.9 21.7s-2.1 14.7-2.8 22.1zm439.1-333.6c6.5 0 13.1.2 19.5.5 6.5.3 12.9.8 19.3 1.5 6.4.6 12.7 1.4 19 2.4s12.5 2.1 18.7 3.3c6.2 1.3 12.3 2.7 18.3 4.2 6.1 1.6 12.1 3.3 18 5.1s11.8 3.8 17.6 5.9 11.5 4.4 17.2 6.8 11.3 4.9 16.8 7.6 11 5.4 16.3 8.4 10.7 5.9 15.9 9.1 10.3 6.4 15.4 9.8 10 6.9 14.8 10.5c4.9 3.6 9.6 7.4 14.3 11.2s9.3 7.8 13.7 11.9c4.5 4.1 8.9 8.2 13.1 12.5s8.5 8.7 12.5 13.1 8 9.1 11.9 13.7 7.6 9.4 11.2 14.3 7.1 9.8 10.5 14.8 6.7 10.2 9.8 15.4 6.2 10.5 9.1 15.9 5.7 10.8 8.4 16.3 5.2 11.1 7.6 16.8 4.6 11.4 6.8 17.2 4.1 11.7 5.9 17.6 3.5 11.9 5.1 18 3 12.2 4.2 18.3c1.3 6.2 2.4 12.4 3.3 18.7 1 6.3 1.8 12.6 2.4 19s1.1 12.8 1.5 19.3c.3 6.5.5 13 .5 19.5s-.2 13.1-.5 19.5c-.3 6.5-.8 12.9-1.5 19.3s-1.4 12.7-2.4 19-2.1 12.5-3.3 18.7c-1.3 6.2-2.7 12.3-4.2 18.3-1.6 6.1-3.3 12.1-5.1 18s-3.8 11.8-5.9 17.6-4.4 11.5-6.8 17.2-4.9 11.3-7.6 16.8-5.4 11-8.4 16.3-5.9 10.7-9.1 15.9-6.4 10.3-9.8 15.4-6.9 10-10.5 14.8c-3.6 4.9-7.4 9.6-11.2 14.3-3.9 4.7-7.8 9.3-11.9 13.7-4.1 4.5-8.2 8.9-12.5 13.1s-8.7 8.5-13.1 12.5-9.1 8-13.7 11.9-9.4 7.6-14.3 11.2-9.8 7.1-14.8 10.5-10.2 6.7-15.4 9.8-10.5 6.2-15.9 9.1-10.8 5.7-16.3 8.4-11.1 5.2-16.8 7.6-11.4 4.6-17.2 6.8c-5.8 2.1-11.7 4.1-17.6 5.9s-11.9 3.5-18 5.1-12.2 3-18.3 4.2-12.4 2.4-18.7 3.3c-6.3 1-12.6 1.8-19 2.4s-12.8 1.1-19.3 1.5c-6.5.3-13 .5-19.5.5s-13.1-.2-19.5-.5-12.9-.8-19.3-1.5-12.7-1.4-19-2.4-12.5-2.1-18.7-3.3-12.3-2.7-18.3-4.2-12.1-3.3-18-5.1-11.8-3.8-17.6-5.9-11.5-4.4-17.2-6.8-11.3-4.9-16.8-7.6-11-5.4-16.3-8.4c-5.4-2.9-10.7-5.9-15.9-9.1s-10.3-6.4-15.4-9.8c-5-3.4-10-6.9-14.8-10.5s-9.6-7.4-14.3-11.2-9.3-7.8-13.7-11.9-8.9-8.2-13.1-12.5c-4.3-4.3-8.5-8.7-12.5-13.1-4.1-4.5-8-9.1-11.9-13.7-3.9-4.7-7.6-9.4-11.2-14.3s-7.1-9.8-10.5-14.8-6.7-10.2-9.8-15.4c-3.2-5.2-6.2-10.5-9.1-15.9s-5.7-10.8-8.4-16.3-5.2-11.1-7.6-16.8-4.6-11.4-6.8-17.2c-2.1-5.8-4.1-11.7-5.9-17.6s-3.5-11.9-5.1-18-3-12.2-4.2-18.3-2.4-12.4-3.3-18.7c-1-6.3-1.8-12.6-2.4-19s-1.1-12.8-1.5-19.3c-.3-6.5-.5-13-.5-19.5s.2-13.1.5-19.5c.3-6.5.8-12.9 1.5-19.3.6-6.4 1.4-12.7 2.4-19s2.1-12.5 3.3-18.7 2.7-12.3 4.2-18.3c1.6-6.1 3.3-12.1 5.1-18s3.8-11.8 5.9-17.6 4.4-11.5 6.8-17.2 4.9-11.3 7.6-16.8 5.4-11 8.4-16.3c2.9-5.4 5.9-10.7 9.1-15.9s6.4-10.3 9.8-15.4 6.9-10 10.5-14.8c3.6-4.9 7.4-9.6 11.2-14.3s7.8-9.3 11.9-13.7c4.1-4.5 8.2-8.9 12.5-13.1s8.7-8.5 13.1-12.5c4.5-4.1 9.1-8 13.7-11.9s9.4-7.6 14.3-11.2 9.8-7.1 14.8-10.5 10.2-6.7 15.4-9.8c5.2-3.2 10.5-6.2 15.9-9.1s10.8-5.7 16.3-8.4 11.1-5.2 16.8-7.6 11.4-4.6 17.2-6.8c5.8-2.1 11.7-4.1 17.6-5.9s11.9-3.5 18-5.1 12.2-3 18.3-4.2c6.2-1.3 12.4-2.4 18.7-3.3 6.3-1 12.6-1.8 19-2.4s12.8-1.1 19.3-1.5c6.5-.3 13-.5 19.5-.5z"/><path d="m570.6 0c-313.6 0-570.6 257-570.6 570.6s257 570.6 570.6 570.6 570.6-257 570.6-570.6-257-570.6-570.6-570.6zm0 62.7c279.5 0 507.9 228.4 507.9 507.9s-228.4 507.9-507.9 507.9-490.6-211.6-506.9-476.6h66.6c.3 4.6.7 9.2 1.2 13.7-.8-7.4-1.3-14.9-1.7-22.4s-.6-15.1-.6-22.7.2-15.2.6-22.7 1-15 1.7-22.4c-.5 4.6-.9 9.1-1.2 13.7h-66.6c16.3-264.9 237.9-476.4 506.9-476.4z"/></g></svg>