<svg xmlns="http://www.w3.org/2000/svg" xml:space="preserve" id="Ebene_1" x="0" y="0" viewBox="0 0 243 137"><title>Norddeutscher Rundfunk-Logo</title><style>.st1{fill-rule:evenodd;clip-rule:evenodd}</style><path d="M88.9 60.2h6.9v32.3h-7.6L77.8 73.6v18.9h-6.9V60.2H78l10.9 20.2zm6.9-30.4h3.8v30.5h-3.8zm0 62.8h3.8v13.8h-3.8zm15.3-32.4c3.9 0 6.9 1 8.9 3.1 2.1 2 3.1 5 3.1 9.1v8.3c0 4-1 7.1-3.1 9.1s-5 2.9-9.1 2.9H99.4V60.2zm-4.2 6.1v20.1h3.4c.9 0 1.6-.1 2.3-.2.7-.2 1.3-.5 1.8-1s.9-1.1 1.2-1.8c.2-.7.4-1.7.4-2.8v-8.3q0-3.15-1.5-4.5c-1-1-2.4-1.3-4.3-1.3.2-.2-3.3-.2-3.3-.2m26.7 26.2h-7.2V60.2h11.3q3.15 0 5.4.6c1.5.4 2.7 1 3.7 1.8 1 .9 1.6 1.8 2.1 3.1q.6 2.1.6 4.2 0 3.15-1.2 5.4c-.9 1.5-2.2 2.7-4.2 3.4l6.9 13.7h-7.7L137.4 80h-3.8zm-.1-26.6v8.3h4.5c1.5 0 2.6-.4 3.3-1.1.9-.7 1.2-1.8 1.2-3.2 0-1.5-.4-2.4-1.1-3.1s-1.8-.9-3.6-.9h-4.4z"></path><path d="M162.4 56.4c-5 0-9.2 4-9.2 9.2s4 9.2 9.2 9.2c5.1 0 9.2-4 9.2-9.2s-4-9.2-9.2-9.2m0 16.5c-4.1 0-7.4-3.3-7.5-7.4v-.1c0-4.1 3.3-7.4 7.4-7.5h.1c4.1 0 7.4 3.3 7.5 7.4v.1c.1 4.2-3.3 7.5-7.5 7.5" class="st1"></path><path d="M165.4 68.1v-7.5l-7.5 2.7v2l2.4-1V70z" class="st1"></path></svg>
