<svg fill="none" viewBox="0 0 115 41" xmlns="http://www.w3.org/2000/svg"><g clip-rule="evenodd" fill-rule="evenodd"><path d="m33.6749 39.321v-38.344804h-10.2009v10.462704c0 3.1234.055 8.2168.328 9.9141-.8222-1.5876-4.2225-6.6826-5.9784-9.0365l-8.44497-11.340304h-9.37863v38.344804h10.2024v-11.7211c0-3.1234-.0565-8.2184-.3295-9.9157.987 1.6973 4.2774 6.6277 5.9784 8.9848l9.1573 12.652z" fill="#fff"/><path d="m114.161 27.5425c0-7.1746-4.279-10.132-13.933-12.4326-4.9345-1.1504-6.3043-1.8086-6.3043-3.2332 0-1.3681.7673-2.35548 3.9479-2.35548 3.8934 0 7.2934 1.31648 10.6954 3.61708l5.154-8.32654c-4.059-2.84761-8.774-4.43676-15.3002-4.43676-9.2704 0-15.1389 4.87401-15.1389 12.1051 0 7.6683 4.4437 10.1884 13.7125 12.3245 5.1546 1.2052 6.5246 2.0813 6.5246 3.5043 0 1.8101-1.205 2.4668-4.9884 2.4668-3.5651 0-8.4466-1.9167-11.2443-3.835l-5.1546 8.3266c4.0044 2.6282 9.9812 4.6562 16.1776 4.6562 9.2157 0 15.8517-3.6156 15.8517-12.381z" fill="#fff"/><path d="m59.128 29.9117c-5.4433 0-9.8556-4.4085-9.8556-9.8436 0-5.4367 4.4123-9.8452 9.8556-9.8452s9.8572 4.4085 9.8572 9.8452c0 5.4351-4.4139 9.8436-9.8572 9.8436zm0-29.9117c-11.0952 0-20.091 8.98323-20.091 20.0681 0 11.0817 8.9958 20.0665 20.091 20.0665 11.0968 0 20.0926-8.9848 20.0926-20.0665 0-11.08487-8.9958-20.0681-20.0926-20.0681z" fill="#e61e14"/></g></svg>