<svg height="380.33438" width="1000" xmlns="http://www.w3.org/2000/svg" xmlns:xlink="http://www.w3.org/1999/xlink"><clipPath><path d="m0 595.276h841.89v-595.276h-841.89z"/></clipPath><clipPath id="a"><path d="m0 0h841.89v595.276h-841.89z"/></clipPath><g clip-path="url(#a)" transform="matrix(7.5293515 0 0 -7.5293515 -1064.518865 758.179395)"><path d="m0 0c-2.055-2.055-2.055-4.413 0-6.468l20.417-20.416c2.055-2.057 4.412-2.057 6.467 0l20.418 20.416c2.055 2.055 2.055 4.413 0 6.468l-20.418 20.415c-2.056 2.052-4.411 2.052-6.466 0z" fill="#ff6d00" transform="translate(142.9902 78.6761)"/><path d="m0 0c-.697-.696-1.276-.715-1.896-.096l-1.488 1.492c-.621.618-.601 1.201.091 1.892l1.304 1.304c.694.695 1.275.714 1.894.095l1.492-1.492c.618-.616.598-1.2-.092-1.891zm-4.859 4.929c-1.724-1.725-1.697-3.57-.161-5.11l1.55-1.546c1.537-1.539 3.385-1.567 5.11.158l1.227 1.23c1.727 1.725 1.699 3.57.163 5.11l-1.551 1.546c-1.536 1.539-3.384 1.566-5.11-.158zm-2.906-12.695c-.696-.695-1.275-.713-1.896-.093l-1.489 1.491c-.619.618-.601 1.2.091 1.891l1.303 1.305c.698.695 1.277.713 1.896.096l1.493-1.493c.617-.618.599-1.201-.095-1.893zm-.047-5.147c.572-.573 1.218-.488 1.661-.047.438.441.514 1.077-.057 1.65l-1.144 1.143c.309.065.694.302 1.144.752l1.312 1.313c1.727 1.724 1.697 3.57.162 5.11l-1.551 1.546c-1.538 1.539-3.384 1.566-5.109-.16l-1.229-1.229c-1.725-1.725-1.698-3.57-.162-5.11zm-4.689-1.331c.571-.573 1.21-.497 1.651-.058.441.443.526 1.088-.048 1.66l-3.29 3.29c-1.539 1.54-3.386 1.568-5.111-.158l-1.229-1.227c-1.725-1.726-1.697-3.573-.159-5.111l3.291-3.293c.574-.573 1.219-.489 1.659-.049.442.442.517 1.083-.058 1.653l-3.26 3.265c-.621.616-.601 1.199.095 1.893l1.303 1.303c.693.695 1.275.713 1.893.094z" fill="#fff" transform="translate(167.5869 89.0002)"/><g fill="#ff6d00"><path d="m0 0c-.446 0-.636.192-.636.636v4.98c0 .432.19.673.624.762.775.166 1.498.23 1.954.23 2.301 0 3.317-.7 3.317-2.91v-3.062c0-.444-.191-.636-.634-.636h-.459c-.444 0-.633.192-.633.636v2.49c0 1.271-.127 1.994-1.463 1.994-.317 0-.737-.05-.979-.114v-4.37c0-.444-.191-.636-.633-.636z" transform="translate(203.8828 85.1174)"/><path d="m0 0h-3.686c.026-.802.572-1.411 1.932-1.411.417 0 .8.076 1.129.177.457.141.687.026.853-.419l.049-.139c.139-.381.026-.673-.355-.813-.598-.204-1.272-.293-1.945-.293-2.26 0-3.416 1.207-3.416 3.378 0 2.378 1.41 3.382 3.086 3.382 1.843 0 2.986-1.133 2.986-3.227 0-.446-.191-.635-.633-.635m-3.686 1.168h2.618c-.052.902-.522 1.449-1.321 1.449-.788 0-1.234-.547-1.297-1.449" transform="translate(215.8013 87.8636)"/><path d="m0 0c.444 0 .636-.19.636-.635v-7.558c0-.433-.192-.635-.611-.751-.623-.165-1.22-.228-1.752-.228-2.631 0-3.723 1.321-3.723 3.379s1.245 3.38 3.455 3.38c.282 0 .636-.038.903-.102v1.88c-0 .445.191.635.635.635zm-3.697-5.805c0-1.131.533-1.88 1.753-1.88.306 0 .648.05.852.126v3.532c-.204.076-.521.127-.839.127-1.219 0-1.766-.749-1.766-1.905" transform="translate(222.8384 94.1379)"/><path d="m0 0h-3.685c.026-.802.572-1.411 1.931-1.411.417 0 .799.076 1.13.177.457.141.687.026.853-.419l.049-.139c.14-.381.027-.673-.356-.813-.597-.204-1.269-.293-1.942-.293-2.264 0-3.418 1.207-3.418 3.378 0 2.378 1.41 3.382 3.086 3.382 1.843 0 2.987-1.133 2.987-3.227 0-.446-.191-.635-.635-.635m-3.685 1.168h2.617c-.051.902-.523 1.449-1.321 1.449-.787 0-1.232-.547-1.296-1.449" transform="translate(230.2085 87.8636)"/><path d="m0 0c.419-.062.596-.292.533-.712l-.05-.279c-.076-.445-.243-.584-.687-.534-.215.025-.444.038-.635.038-.368 0-.762-.038-1.003-.101v-4.32c0-.444-.19-.636-.635-.636h-.457c-.444 0-.638.192-.638.636v4.942c0 .432.194.674.612.788.672.19 1.359.242 1.88.242.393 0 .749-.014 1.08-.064" transform="translate(235.709 91.6613)"/><path d="m0 0c-.445 0-.636.192-.636.636v7.749c0 .445.191.636.636.636h.457c.443 0 .636-.191.636-.636v-7.749c0-.444-.193-.636-.636-.636z" transform="translate(237.8061 85.1174)"/><path d="m0 0c-.457-.151-.66-.062-.838.383l-.05.126c-.154.393-.038.659.355.801.571.176 1.22.292 1.944.292 1.853 0 2.833-.726 2.833-2.644v-3.163c0-.432-.19-.66-.623-.736-.724-.14-1.548-.216-2.224-.216-1.815 0-2.984.609-2.984 2.096 0 1.501 1.181 2.11 2.782 2.11.623 0 1.068-.091 1.321-.153v.227c0 .599-.33 1.069-1.346 1.069-.419 0-.813-.078-1.17-.192m2.516-3.798v1.485c-.266.089-.611.129-.966.129-.927 0-1.384-.266-1.384-.865 0-.584.444-.865 1.36-.865.393 0 .737.054.99.116" transform="translate(241.6294 90.1232)"/><path d="m0 0c-.445 0-.635.192-.635.636v4.98c0 .432.19.673.623.762.773.166 1.499.23 1.957.23 2.299 0 3.314-.7 3.314-2.91v-3.062c0-.444-.191-.636-.635-.636h-.457c-.445 0-.636.192-.636.636v2.49c0 1.271-.125 1.994-1.46 1.994-.319 0-.738-.05-.979-.114v-4.37c0-.444-.191-.636-.634-.636z" transform="translate(248.0083 85.1174)"/><path d="m0 0c.445 0 .635-.19.635-.635v-7.558c0-.433-.19-.635-.611-.751-.622-.165-1.22-.228-1.753-.228-2.63 0-3.722 1.321-3.722 3.379s1.244 3.38 3.455 3.38c.281 0 .637-.038.903-.102v1.88c-0 .445.189.635.634.635zm-3.698-5.805c0-1.131.534-1.88 1.752-1.88.307 0 .648.05.853.126v3.532c-.205.076-.521.127-.839.127-1.219 0-1.766-.749-1.766-1.905" transform="translate(259.9391 94.1379)"/><path d="m0 0c-.381.139-.508.443-.345.811l.077.178c.192.433.396.534.853.369.469-.165 1.002-.266 1.499-.266.824 0 1.181.203 1.181.571 0 .421-.421.521-1.045.648-1.419.305-2.577.597-2.577 2.033 0 1.245.916 2.085 2.86 2.085.546 0 1.206-.089 1.791-.308.38-.138.509-.431.343-.799l-.064-.138c-.202-.446-.393-.535-.864-.382-.432.138-.889.203-1.232.203-.724 0-1.105-.192-1.105-.56 0-.369.317-.469 1.04-.623 1.386-.292 2.581-.584 2.581-2.057 0-1.245-.877-2.096-2.923-2.096-.687 0-1.447.102-2.07.331" transform="translate(262.213 85.2971)"/><path d="m0 0h-3.683c.024-.802.57-1.411 1.931-1.411.418 0 .798.076 1.13.177.457.141.686.026.852-.419l.051-.139c.14-.381.025-.673-.357-.813-.597-.204-1.269-.293-1.944-.293-2.26 0-3.417 1.207-3.417 3.378 0 2.378 1.41 3.382 3.086 3.382 1.844 0 2.987-1.133 2.987-3.227-0-.446-.191-.635-.636-.635m-3.683 1.168h2.615c-.048.902-.52 1.449-1.321 1.449-.787 0-1.231-.547-1.294-1.449" transform="translate(273.4937 87.8636)"/><path d="m0 0c-.446 0-.636.19-.636.636v7.278c0 .433.19.637.611.75.624.165 1.219.23 1.754.23 2.628 0 3.721-1.322 3.721-3.38 0-2.059-1.245-3.379-3.456-3.379-.279 0-.636.038-.902.101v-1.6c0-.446-.191-.636-.633-.636zm3.697 5.526c0 1.13-.534 1.88-1.754 1.88-.306 0-.647-.051-.851-.127v-3.531c.204-.076.521-.128.839-.128 1.22 0 1.766.75 1.766 1.906" transform="translate(203.8823 69.6624)"/><path d="m0 0c.445 0 .635-.19.635-.636v-4.979c0-.433-.19-.674-.622-.763-.763-.164-1.487-.227-1.932-.227-2.284 0-3.289.723-3.289 2.908v3.061c0 .446.19.636.634.636h.458c.445 0 .635-.19.635-.636v-2.489c0-1.27.127-1.995 1.436-1.995.305 0 .711.052.953.115v4.369c0 .446.19.636.635.636z" transform="translate(215.7607 78.4026)"/><path d="m0 0c.444 0 .635-.19.635-.635v-1.881c.266.064.623.103.902.103 2.209 0 3.456-1.321 3.456-3.38s-1.092-3.379-3.724-3.379c-.533 0-1.13.064-1.753.229-.418.114-.608.317-.608.749v7.559c-0 .445.19.635.633.635zm.635-4.027v-3.531c.204-.078.545-.128.85-.128 1.22 0 1.755.75 1.755 1.879 0 1.157-.549 1.907-1.767 1.907-.318 0-.634-.051-.838-.127" transform="translate(219.0654 80.9689)"/><path d="m0 0c-.445 0-.634.191-.634.636v7.75c0 .444.189.634.634.634h.459c.443 0 .635-.19.635-.634v-7.75c0-.445-.192-.636-.635-.636z" transform="translate(225.9883 71.9485)"/><path d="m0 0c-.624 0-1.042.394-1.042.99 0 .598.418.991 1.042.991.621 0 1.042-.393 1.042-.991 0-.596-.421-.99-1.042-.99m-.229-7.191c-.446 0-.636.191-.636.635v5.184c0 .445.19.635.636.635h.457c.444 0 .637-.19.637-.635v-5.184c0-.444-.193-.635-.637-.635z" transform="translate(229.522 79.1398)"/><path d="m0 0h-3.684c.024-.799.57-1.409 1.93-1.409.42 0 .8.077 1.131.179.458.138.686.025.852-.419l.05-.14c.14-.383.026-.675-.355-.814-.598-.204-1.27-.292-1.945-.292-2.261 0-3.417 1.206-3.417 3.379 0 2.376 1.409 3.379 3.087 3.379 1.842 0 2.986-1.131 2.986-3.226 0-.446-.191-.637-.635-.637m-3.684 1.171h2.616c-.05.901-.52 1.447-1.32 1.447-.789 0-1.232-.546-1.296-1.447" transform="translate(237.1186 74.6917)"/><path d="m0 0c.306-.381.14-.712-.293-.712h-.634c-.458 0-.75.127-1.029.496l-1.919 2.464v-2.325c0-.444-.191-.635-.636-.635h-.455c-.447 0-.636.191-.636.635v7.751c0 .444.189.634.636.634h.455c.445 0 .636-.19.636-.634v-4.613l1.969 2.212c.306.342.596.469 1.054.469h.484c.432 0 .621-.356.292-.712l-2.096-2.337z" transform="translate(244.6533 72.6605)"/><path d="m0 0h-3.685c.026-.799.572-1.409 1.932-1.409.418 0 .8.077 1.131.179.458.138.685.025.851-.419l.051-.14c.14-.383.025-.675-.356-.814-.597-.204-1.271-.292-1.943-.292-2.262 0-3.417 1.206-3.417 3.379 0 2.376 1.409 3.379 3.086 3.379 1.843 0 2.987-1.131 2.987-3.226 0-.446-.192-.637-.637-.637m-3.685 1.171h2.618c-.051.901-.521 1.447-1.322 1.447-.787 0-1.231-.546-1.296-1.447" transform="translate(250.7388 74.6917)"/><path d="m0 0c-1.993 0-3.278 1.208-3.278 3.381 0 2.171 1.285 3.379 3.278 3.379 1.995 0 3.278-1.208 3.278-3.379 0-2.173-1.283-3.381-3.278-3.381m0 1.487c1.019 0 1.526.724 1.526 1.894 0 1.168-.507 1.893-1.526 1.893-1.017 0-1.524-.725-1.524-1.893 0-1.17.507-1.894 1.524-1.894" transform="translate(206.2446 59.1906)"/><path d="m0 0c.115-.356.166-.776.166-1.283v-3.062c0-.444-.192-.635-.636-.635h-.457c-.445 0-.636.191-.636.635v2.489c0 1.272-.113 1.996-1.385 1.996-.305 0-.699-.051-.928-.116v-4.369c0-.444-.189-.635-.634-.635h-.457c-.446 0-.635.191-.635.635v4.98c0 .431.189.673.621.761.75.166 1.462.23 1.908.23.836 0 1.51-.103 2.02-.343.699.24 1.471.343 1.953.343 2.187 0 3.178-.698 3.178-2.909v-3.062c0-.444-.19-.635-.636-.635h-.457c-.445 0-.633.191-.633.635v2.489c-0 1.272-.115 1.996-1.387 1.996-.318 0-.659-.051-.965-.14" transform="translate(216.4219 64.3245)"/><path d="m0 0c.42-.064.599-.292.536-.712l-.053-.279c-.075-.446-.241-.585-.684-.533-.215.025-.444.037-.636.037-.37 0-.762-.037-1.003-.101v-4.319c0-.446-.191-.635-.634-.635h-.46c-.443 0-.633.189-.633.635v4.941c0 .433.19.674.609.788.672.191 1.359.24 1.879.24.395 0 .751-.012 1.079-.062" transform="translate(225.5683 65.887)"/><path d="m0 0c-1.994 0-3.279 1.208-3.279 3.381 0 2.171 1.285 3.379 3.279 3.379s3.279-1.208 3.279-3.379c0-2.173-1.285-3.381-3.279-3.381m0 1.487c1.016 0 1.523.724 1.523 1.894 0 1.168-.507 1.893-1.523 1.893-1.019 0-1.524-.725-1.524-1.893 0-1.17.505-1.894 1.524-1.894" transform="translate(229.6489 59.1906)"/><path d="m0 0h-3.684c.025-.8.571-1.411 1.93-1.411.42 0 .802.077 1.132.177.458.142.686.027.852-.417l.05-.141c.14-.38.027-.673-.356-.813-.598-.202-1.27-.292-1.944-.292-2.262 0-3.418 1.208-3.418 3.38 0 2.375 1.412 3.379 3.089 3.379 1.841 0 2.984-1.131 2.984-3.227 0-.445-.189-.635-.635-.635m-3.684 1.168h2.618c-.052.902-.521 1.449-1.321 1.449-.789 0-1.234-.547-1.297-1.449" transform="translate(239.3799 62.0881)"/><path d="m0 0c-.444 0-.634.19-.634.634v7.28c0 .432.19.637.609.75.624.166 1.221.23 1.755.23 2.629 0 3.72-1.323 3.72-3.38 0-2.058-1.243-3.38-3.454-3.38-.279 0-.636.038-.902.101v-1.601c0-.444-.19-.634-.637-.634zm3.698 5.526c0 1.131-.534 1.881-1.753 1.881-.306 0-.65-.051-.851-.128v-3.531c.201-.077.521-.127.839-.127 1.219 0 1.765.749 1.765 1.905" transform="translate(241.9463 57.0569)"/></g></g></svg>