<?xml version="1.0" encoding="UTF-8" standalone="no"?>
<!-- Created with Inkscape (http://www.inkscape.org/) -->
<svg xmlns:dc="http://purl.org/dc/elements/1.1/" xmlns:cc="http://creativecommons.org/ns#" xmlns:rdf="http://www.w3.org/1999/02/22-rdf-syntax-ns#" xmlns:svg="http://www.w3.org/2000/svg" xmlns="http://www.w3.org/2000/svg" xmlns:sodipodi="http://sodipodi.sourceforge.net/DTD/sodipodi-0.dtd" xmlns:inkscape="http://www.inkscape.org/namespaces/inkscape" id="svg2985" version="1.1" inkscape:version="0.48.5 r10040" width="1000" height="380.33438" xml:space="preserve" sodipodi:docname="MJB_2016-2020_def-1442301033.pdf"><metadata id="metadata2991"><rdf:RDF><cc:Work rdf:about=""><dc:format>image/svg+xml</dc:format><dc:type rdf:resource="http://purl.org/dc/dcmitype/StillImage"/><dc:title/></cc:Work></rdf:RDF></metadata><defs id="defs2989"><clipPath clipPathUnits="userSpaceOnUse" id="clipPath3001"><path d="m 0,595.276 841.89,0 L 841.89,0 0,0 0,595.276 z" id="path3003" inkscape:connector-curvature="0"/></clipPath><clipPath clipPathUnits="userSpaceOnUse" id="clipPath3013"><path d="m 16.615,0 825.275,0 0,595.275 -825.275,0 0,-595.275 z" id="path3015" inkscape:connector-curvature="0"/></clipPath><clipPath clipPathUnits="userSpaceOnUse" id="clipPath3027"><path d="m 0,0 841.89,0 0,595.276 L 0,595.276 0,0 z" id="path3029" inkscape:connector-curvature="0"/></clipPath></defs><sodipodi:namedview pagecolor="#ffffff" bordercolor="#666666" borderopacity="1" objecttolerance="10" gridtolerance="10" guidetolerance="10" inkscape:pageopacity="0" inkscape:pageshadow="2" inkscape:window-width="1008" inkscape:window-height="1024" id="namedview2987" showgrid="false" fit-margin-left="0.5" fit-margin-bottom="0.5" fit-margin-top="0.5" fit-margin-right="0.5" inkscape:zoom="0.51111002" inkscape:cx="501.84764" inkscape:cy="61.739777" inkscape:window-x="900" inkscape:window-y="-9" inkscape:window-maximized="0" inkscape:current-layer="g2993"/><g id="g2993" inkscape:groupmode="layer" inkscape:label="MJB_2016-2020_def-1442301033" transform="matrix(1.25,0,0,-1.25,-176.31119,442.64607)"><g id="g2995"><g id="g2997"><g id="g2999" clip-path="url(#clipPath3001)"/></g></g><g id="g3023" transform="matrix(6.0234812,0,0,6.0234812,-710.56614,-252.42666)"><g id="g3025" clip-path="url(#clipPath3027)"><g id="g3031" transform="translate(142.9902,78.6761)"><path d="m 0,0 c -2.055,-2.055 -2.055,-4.413 0,-6.468 l 20.417,-20.416 c 2.055,-2.057 4.412,-2.057 6.467,0 l 20.418,20.416 c 2.055,2.055 2.055,4.413 0,6.468 L 26.884,20.415 c -2.056,2.052 -4.411,2.052 -6.466,0 L 0,0 z" style="fill:#ff6d00;fill-opacity:1;fill-rule:nonzero;stroke:none" id="path3033" inkscape:connector-curvature="0"/></g><g id="g3035" transform="translate(167.5869,89.0002)"><path d="m 0,0 c -0.697,-0.696 -1.276,-0.715 -1.896,-0.096 l -1.488,1.492 c -0.621,0.618 -0.601,1.201 0.091,1.892 l 1.304,1.304 c 0.694,0.695 1.275,0.714 1.894,0.095 L 1.397,3.195 C 2.015,2.579 1.995,1.995 1.305,1.304 L 0,0 z M -4.859,4.929 C -6.583,3.204 -6.556,1.359 -5.02,-0.181 l 1.55,-1.546 c 1.537,-1.539 3.385,-1.567 5.11,0.158 l 1.227,1.23 c 1.727,1.725 1.699,3.57 0.163,5.11 L 1.479,6.317 C -0.057,7.856 -1.905,7.883 -3.631,6.159 L -4.859,4.929 z M -7.765,-7.766 C -8.461,-8.461 -9.04,-8.479 -9.661,-7.859 l -1.489,1.491 c -0.619,0.618 -0.601,1.2 0.091,1.891 l 1.303,1.305 c 0.698,0.695 1.277,0.713 1.896,0.096 l 1.493,-1.493 c 0.617,-0.618 0.599,-1.201 -0.095,-1.893 l -1.303,-1.304 z m -0.047,-5.147 c 0.572,-0.573 1.218,-0.488 1.661,-0.047 0.438,0.441 0.514,1.077 -0.057,1.65 l -1.144,1.143 c 0.309,0.065 0.694,0.302 1.144,0.752 l 1.312,1.313 c 1.727,1.724 1.697,3.57 0.162,5.11 l -1.551,1.546 c -1.538,1.539 -3.384,1.566 -5.109,-0.16 l -1.229,-1.229 c -1.725,-1.725 -1.698,-3.57 -0.162,-5.11 l 4.973,-4.968 z m -4.689,-1.331 c 0.571,-0.573 1.21,-0.497 1.651,-0.058 0.441,0.443 0.526,1.088 -0.048,1.66 l -3.29,3.29 c -1.539,1.54 -3.386,1.568 -5.111,-0.158 l -1.229,-1.227 c -1.725,-1.726 -1.697,-3.573 -0.159,-5.111 l 3.291,-3.293 c 0.574,-0.573 1.219,-0.489 1.659,-0.049 0.442,0.442 0.517,1.083 -0.058,1.653 l -3.26,3.265 c -0.621,0.616 -0.601,1.199 0.095,1.893 l 1.303,1.303 c 0.693,0.695 1.275,0.713 1.893,0.094 l 3.263,-3.262 z" style="fill:#ffffff;fill-opacity:1;fill-rule:nonzero;stroke:none" id="path3037" inkscape:connector-curvature="0"/></g><g id="g3039" transform="translate(203.8828,85.1174)"><path d="m 0,0 c -0.446,0 -0.636,0.192 -0.636,0.636 l 0,4.98 c 0,0.432 0.19,0.673 0.624,0.762 0.775,0.166 1.498,0.23 1.954,0.23 2.301,0 3.317,-0.7 3.317,-2.91 l 0,-3.062 C 5.259,0.192 5.068,0 4.625,0 L 4.166,0 C 3.722,0 3.533,0.192 3.533,0.636 l 0,2.49 C 3.533,4.397 3.406,5.12 2.07,5.12 1.753,5.12 1.333,5.07 1.091,5.006 l 0,-4.37 C 1.091,0.192 0.9,0 0.458,0 L 0,0 z" style="fill:#ff6d00;fill-opacity:1;fill-rule:nonzero;stroke:none" id="path3041" inkscape:connector-curvature="0"/></g><g id="g3043" transform="translate(215.8013,87.8636)"><path d="m 0,0 -3.686,0 c 0.026,-0.802 0.572,-1.411 1.932,-1.411 0.417,0 0.8,0.076 1.129,0.177 0.457,0.141 0.687,0.026 0.853,-0.419 l 0.049,-0.139 c 0.139,-0.381 0.026,-0.673 -0.355,-0.813 -0.598,-0.204 -1.272,-0.293 -1.945,-0.293 -2.26,0 -3.416,1.207 -3.416,3.378 0,2.378 1.41,3.382 3.086,3.382 1.843,0 2.986,-1.133 2.986,-3.227 C 0.633,0.189 0.442,0 0,0 m -3.686,1.168 2.618,0 C -1.12,2.07 -1.59,2.617 -2.389,2.617 -3.177,2.617 -3.623,2.07 -3.686,1.168" style="fill:#ff6d00;fill-opacity:1;fill-rule:nonzero;stroke:none" id="path3045" inkscape:connector-curvature="0"/></g><g id="g3047" transform="translate(222.8384,94.1379)"><path d="m 0,0 c 0.444,0 0.636,-0.19 0.636,-0.635 l 0,-7.558 c 0,-0.433 -0.192,-0.635 -0.611,-0.751 -0.623,-0.165 -1.22,-0.228 -1.752,-0.228 -2.631,0 -3.723,1.321 -3.723,3.379 0,2.058 1.245,3.38 3.455,3.38 0.282,0 0.636,-0.038 0.903,-0.102 l 0,1.88 C -1.092,-0.19 -0.901,0 -0.457,0 L 0,0 z m -3.697,-5.805 c 0,-1.131 0.533,-1.88 1.753,-1.88 0.306,0 0.648,0.05 0.852,0.126 l 0,3.532 c -0.204,0.076 -0.521,0.127 -0.839,0.127 -1.219,0 -1.766,-0.749 -1.766,-1.905" style="fill:#ff6d00;fill-opacity:1;fill-rule:nonzero;stroke:none" id="path3049" inkscape:connector-curvature="0"/></g><g id="g3051" transform="translate(230.2085,87.8636)"><path d="m 0,0 -3.685,0 c 0.026,-0.802 0.572,-1.411 1.931,-1.411 0.417,0 0.799,0.076 1.13,0.177 0.457,0.141 0.687,0.026 0.853,-0.419 l 0.049,-0.139 c 0.14,-0.381 0.027,-0.673 -0.356,-0.813 -0.597,-0.204 -1.269,-0.293 -1.942,-0.293 -2.264,0 -3.418,1.207 -3.418,3.378 0,2.378 1.41,3.382 3.086,3.382 1.843,0 2.987,-1.133 2.987,-3.227 C 0.635,0.189 0.444,0 0,0 m -3.685,1.168 2.617,0 c -0.051,0.902 -0.523,1.449 -1.321,1.449 -0.787,0 -1.232,-0.547 -1.296,-1.449" style="fill:#ff6d00;fill-opacity:1;fill-rule:nonzero;stroke:none" id="path3053" inkscape:connector-curvature="0"/></g><g id="g3055" transform="translate(235.709,91.6613)"><path d="M 0,0 C 0.419,-0.062 0.596,-0.292 0.533,-0.712 L 0.483,-0.991 C 0.407,-1.436 0.24,-1.575 -0.204,-1.525 c -0.215,0.025 -0.444,0.038 -0.635,0.038 -0.368,0 -0.762,-0.038 -1.003,-0.101 l 0,-4.32 c 0,-0.444 -0.19,-0.636 -0.635,-0.636 l -0.457,0 c -0.444,0 -0.638,0.192 -0.638,0.636 l 0,4.942 c 0,0.432 0.194,0.674 0.612,0.788 0.672,0.19 1.359,0.242 1.88,0.242 C -0.687,0.064 -0.331,0.05 0,0" style="fill:#ff6d00;fill-opacity:1;fill-rule:nonzero;stroke:none" id="path3057" inkscape:connector-curvature="0"/></g><g id="g3059" transform="translate(237.8061,85.1174)"><path d="m 0,0 c -0.445,0 -0.636,0.192 -0.636,0.636 l 0,7.749 c 0,0.445 0.191,0.636 0.636,0.636 l 0.457,0 C 0.9,9.021 1.093,8.83 1.093,8.385 l 0,-7.749 C 1.093,0.192 0.9,0 0.457,0 L 0,0 z" style="fill:#ff6d00;fill-opacity:1;fill-rule:nonzero;stroke:none" id="path3061" inkscape:connector-curvature="0"/></g><g id="g3063" transform="translate(241.6294,90.1232)"><path d="m 0,0 c -0.457,-0.151 -0.66,-0.062 -0.838,0.383 l -0.05,0.126 c -0.154,0.393 -0.038,0.659 0.355,0.801 0.571,0.176 1.22,0.292 1.944,0.292 1.853,0 2.833,-0.726 2.833,-2.644 l 0,-3.163 c 0,-0.432 -0.19,-0.66 -0.623,-0.736 -0.724,-0.14 -1.548,-0.216 -2.224,-0.216 -1.815,0 -2.984,0.609 -2.984,2.096 0,1.501 1.181,2.11 2.782,2.11 0.623,0 1.068,-0.091 1.321,-0.153 l 0,0.227 c 0,0.599 -0.33,1.069 -1.346,1.069 C 0.751,0.192 0.357,0.114 0,0 m 2.516,-3.798 0,1.485 c -0.266,0.089 -0.611,0.129 -0.966,0.129 -0.927,0 -1.384,-0.266 -1.384,-0.865 0,-0.584 0.444,-0.865 1.36,-0.865 0.393,0 0.737,0.054 0.99,0.116" style="fill:#ff6d00;fill-opacity:1;fill-rule:nonzero;stroke:none" id="path3065" inkscape:connector-curvature="0"/></g><g id="g3067" transform="translate(248.0083,85.1174)"><path d="m 0,0 c -0.445,0 -0.635,0.192 -0.635,0.636 l 0,4.98 c 0,0.432 0.19,0.673 0.623,0.762 0.773,0.166 1.499,0.23 1.957,0.23 2.299,0 3.314,-0.7 3.314,-2.91 l 0,-3.062 C 5.259,0.192 5.068,0 4.624,0 L 4.167,0 C 3.722,0 3.531,0.192 3.531,0.636 l 0,2.49 C 3.531,4.397 3.406,5.12 2.071,5.12 1.752,5.12 1.333,5.07 1.092,5.006 l 0,-4.37 C 1.092,0.192 0.901,0 0.458,0 L 0,0 z" style="fill:#ff6d00;fill-opacity:1;fill-rule:nonzero;stroke:none" id="path3069" inkscape:connector-curvature="0"/></g><g id="g3071" transform="translate(259.9391,94.1379)"><path d="m 0,0 c 0.445,0 0.635,-0.19 0.635,-0.635 l 0,-7.558 c 0,-0.433 -0.19,-0.635 -0.611,-0.751 -0.622,-0.165 -1.22,-0.228 -1.753,-0.228 -2.63,0 -3.722,1.321 -3.722,3.379 0,2.058 1.244,3.38 3.455,3.38 0.281,0 0.637,-0.038 0.903,-0.102 l 0,1.88 C -1.093,-0.19 -0.904,0 -0.459,0 L 0,0 z m -3.698,-5.805 c 0,-1.131 0.534,-1.88 1.752,-1.88 0.307,0 0.648,0.05 0.853,0.126 l 0,3.532 c -0.205,0.076 -0.521,0.127 -0.839,0.127 -1.219,0 -1.766,-0.749 -1.766,-1.905" style="fill:#ff6d00;fill-opacity:1;fill-rule:nonzero;stroke:none" id="path3073" inkscape:connector-curvature="0"/></g><g id="g3075" transform="translate(262.213,85.2971)"><path d="m 0,0 c -0.381,0.139 -0.508,0.443 -0.345,0.811 l 0.077,0.178 c 0.192,0.433 0.396,0.534 0.853,0.369 0.469,-0.165 1.002,-0.266 1.499,-0.266 0.824,0 1.181,0.203 1.181,0.571 0,0.421 -0.421,0.521 -1.045,0.648 -1.419,0.305 -2.577,0.597 -2.577,2.033 0,1.245 0.916,2.085 2.86,2.085 0.546,0 1.206,-0.089 1.791,-0.308 C 4.674,5.983 4.803,5.69 4.637,5.322 L 4.573,5.184 C 4.371,4.738 4.18,4.649 3.709,4.802 3.277,4.94 2.82,5.005 2.477,5.005 1.753,5.005 1.372,4.813 1.372,4.445 1.372,4.076 1.689,3.976 2.412,3.822 3.798,3.53 4.993,3.238 4.993,1.765 4.993,0.52 4.116,-0.331 2.07,-0.331 1.383,-0.331 0.623,-0.229 0,0" style="fill:#ff6d00;fill-opacity:1;fill-rule:nonzero;stroke:none" id="path3077" inkscape:connector-curvature="0"/></g><g id="g3079" transform="translate(273.4937,87.8636)"><path d="m 0,0 -3.683,0 c 0.024,-0.802 0.57,-1.411 1.931,-1.411 0.418,0 0.798,0.076 1.13,0.177 0.457,0.141 0.686,0.026 0.852,-0.419 l 0.051,-0.139 c 0.14,-0.381 0.025,-0.673 -0.357,-0.813 -0.597,-0.204 -1.269,-0.293 -1.944,-0.293 -2.26,0 -3.417,1.207 -3.417,3.378 0,2.378 1.41,3.382 3.086,3.382 1.844,0 2.987,-1.133 2.987,-3.227 C 0.636,0.189 0.445,0 0,0 m -3.683,1.168 2.615,0 c -0.048,0.902 -0.52,1.449 -1.321,1.449 -0.787,0 -1.231,-0.547 -1.294,-1.449" style="fill:#ff6d00;fill-opacity:1;fill-rule:nonzero;stroke:none" id="path3081" inkscape:connector-curvature="0"/></g><g id="g3083" transform="translate(203.8823,69.6624)"><path d="m 0,0 c -0.446,0 -0.636,0.19 -0.636,0.636 l 0,7.278 c 0,0.433 0.19,0.637 0.611,0.75 0.624,0.165 1.219,0.23 1.754,0.23 2.628,0 3.721,-1.322 3.721,-3.38 0,-2.059 -1.245,-3.379 -3.456,-3.379 -0.279,0 -0.636,0.038 -0.902,0.101 l 0,-1.6 C 1.092,0.19 0.901,0 0.459,0 L 0,0 z m 3.697,5.526 c 0,1.13 -0.534,1.88 -1.754,1.88 -0.306,0 -0.647,-0.051 -0.851,-0.127 l 0,-3.531 C 1.296,3.672 1.613,3.62 1.931,3.62 c 1.22,0 1.766,0.75 1.766,1.906" style="fill:#ff6d00;fill-opacity:1;fill-rule:nonzero;stroke:none" id="path3085" inkscape:connector-curvature="0"/></g><g id="g3087" transform="translate(215.7607,78.4026)"><path d="m 0,0 c 0.445,0 0.635,-0.19 0.635,-0.636 l 0,-4.979 c 0,-0.433 -0.19,-0.674 -0.622,-0.763 -0.763,-0.164 -1.487,-0.227 -1.932,-0.227 -2.284,0 -3.289,0.723 -3.289,2.908 l 0,3.061 c 0,0.446 0.19,0.636 0.634,0.636 l 0.458,0 c 0.445,0 0.635,-0.19 0.635,-0.636 l 0,-2.489 c 0,-1.27 0.127,-1.995 1.436,-1.995 0.305,0 0.711,0.052 0.953,0.115 l 0,4.369 C -1.092,-0.19 -0.902,0 -0.457,0 L 0,0 z" style="fill:#ff6d00;fill-opacity:1;fill-rule:nonzero;stroke:none" id="path3089" inkscape:connector-curvature="0"/></g><g id="g3091" transform="translate(219.0654,80.9689)"><path d="m 0,0 c 0.444,0 0.635,-0.19 0.635,-0.635 l 0,-1.881 c 0.266,0.064 0.623,0.103 0.902,0.103 2.209,0 3.456,-1.321 3.456,-3.38 0,-2.059 -1.092,-3.379 -3.724,-3.379 -0.533,0 -1.13,0.064 -1.753,0.229 -0.418,0.114 -0.608,0.317 -0.608,0.749 l 0,7.559 C -1.092,-0.19 -0.902,0 -0.459,0 L 0,0 z m 0.635,-4.027 0,-3.531 c 0.204,-0.078 0.545,-0.128 0.85,-0.128 1.22,0 1.755,0.75 1.755,1.879 0,1.157 -0.549,1.907 -1.767,1.907 -0.318,0 -0.634,-0.051 -0.838,-0.127" style="fill:#ff6d00;fill-opacity:1;fill-rule:nonzero;stroke:none" id="path3093" inkscape:connector-curvature="0"/></g><g id="g3095" transform="translate(225.9883,71.9485)"><path d="m 0,0 c -0.445,0 -0.634,0.191 -0.634,0.636 l 0,7.75 C -0.634,8.83 -0.445,9.02 0,9.02 l 0.459,0 c 0.443,0 0.635,-0.19 0.635,-0.634 l 0,-7.75 C 1.094,0.191 0.902,0 0.459,0 L 0,0 z" style="fill:#ff6d00;fill-opacity:1;fill-rule:nonzero;stroke:none" id="path3097" inkscape:connector-curvature="0"/></g><g id="g3099" transform="translate(229.522,79.1398)"><path d="m 0,0 c -0.624,0 -1.042,0.394 -1.042,0.99 0,0.598 0.418,0.991 1.042,0.991 0.621,0 1.042,-0.393 1.042,-0.991 C 1.042,0.394 0.621,0 0,0 m -0.229,-7.191 c -0.446,0 -0.636,0.191 -0.636,0.635 l 0,5.184 c 0,0.445 0.19,0.635 0.636,0.635 l 0.457,0 c 0.444,0 0.637,-0.19 0.637,-0.635 l 0,-5.184 C 0.865,-7 0.672,-7.191 0.228,-7.191 l -0.457,0 z" style="fill:#ff6d00;fill-opacity:1;fill-rule:nonzero;stroke:none" id="path3101" inkscape:connector-curvature="0"/></g><g id="g3103" transform="translate(237.1186,74.6917)"><path d="m 0,0 -3.684,0 c 0.024,-0.799 0.57,-1.409 1.93,-1.409 0.42,0 0.8,0.077 1.131,0.179 0.458,0.138 0.686,0.025 0.852,-0.419 l 0.05,-0.14 c 0.14,-0.383 0.026,-0.675 -0.355,-0.814 -0.598,-0.204 -1.27,-0.292 -1.945,-0.292 -2.261,0 -3.417,1.206 -3.417,3.379 0,2.376 1.409,3.379 3.087,3.379 1.842,0 2.986,-1.131 2.986,-3.226 C 0.635,0.191 0.444,0 0,0 m -3.684,1.171 2.616,0 c -0.05,0.901 -0.52,1.447 -1.32,1.447 -0.789,0 -1.232,-0.546 -1.296,-1.447" style="fill:#ff6d00;fill-opacity:1;fill-rule:nonzero;stroke:none" id="path3105" inkscape:connector-curvature="0"/></g><g id="g3107" transform="translate(244.6533,72.6605)"><path d="m 0,0 c 0.306,-0.381 0.14,-0.712 -0.293,-0.712 l -0.634,0 c -0.458,0 -0.75,0.127 -1.029,0.496 l -1.919,2.464 0,-2.325 c 0,-0.444 -0.191,-0.635 -0.636,-0.635 l -0.455,0 c -0.447,0 -0.636,0.191 -0.636,0.635 l 0,7.751 c 0,0.444 0.189,0.634 0.636,0.634 l 0.455,0 c 0.445,0 0.636,-0.19 0.636,-0.634 l 0,-4.613 1.969,2.212 c 0.306,0.342 0.596,0.469 1.054,0.469 l 0.484,0 c 0.432,0 0.621,-0.356 0.292,-0.712 L -2.172,2.693 0,0 z" style="fill:#ff6d00;fill-opacity:1;fill-rule:nonzero;stroke:none" id="path3109" inkscape:connector-curvature="0"/></g><g id="g3111" transform="translate(250.7388,74.6917)"><path d="m 0,0 -3.685,0 c 0.026,-0.799 0.572,-1.409 1.932,-1.409 0.418,0 0.8,0.077 1.131,0.179 0.458,0.138 0.685,0.025 0.851,-0.419 l 0.051,-0.14 c 0.14,-0.383 0.025,-0.675 -0.356,-0.814 -0.597,-0.204 -1.271,-0.292 -1.943,-0.292 -2.262,0 -3.417,1.206 -3.417,3.379 0,2.376 1.409,3.379 3.086,3.379 1.843,0 2.987,-1.131 2.987,-3.226 C 0.637,0.191 0.445,0 0,0 m -3.685,1.171 2.618,0 c -0.051,0.901 -0.521,1.447 -1.322,1.447 -0.787,0 -1.231,-0.546 -1.296,-1.447" style="fill:#ff6d00;fill-opacity:1;fill-rule:nonzero;stroke:none" id="path3113" inkscape:connector-curvature="0"/></g><g id="g3115" transform="translate(206.2446,59.1906)"><path d="M 0,0 C -1.993,0 -3.278,1.208 -3.278,3.381 -3.278,5.552 -1.993,6.76 0,6.76 1.995,6.76 3.278,5.552 3.278,3.381 3.278,1.208 1.995,0 0,0 m 0,1.487 c 1.019,0 1.526,0.724 1.526,1.894 0,1.168 -0.507,1.893 -1.526,1.893 -1.017,0 -1.524,-0.725 -1.524,-1.893 0,-1.17 0.507,-1.894 1.524,-1.894" style="fill:#ff6d00;fill-opacity:1;fill-rule:nonzero;stroke:none" id="path3117" inkscape:connector-curvature="0"/></g><g id="g3119" transform="translate(216.4219,64.3245)"><path d="m 0,0 c 0.115,-0.356 0.166,-0.776 0.166,-1.283 l 0,-3.062 c 0,-0.444 -0.192,-0.635 -0.636,-0.635 l -0.457,0 c -0.445,0 -0.636,0.191 -0.636,0.635 l 0,2.489 c 0,1.272 -0.113,1.996 -1.385,1.996 -0.305,0 -0.699,-0.051 -0.928,-0.116 l 0,-4.369 c 0,-0.444 -0.189,-0.635 -0.634,-0.635 l -0.457,0 c -0.446,0 -0.635,0.191 -0.635,0.635 l 0,4.98 c 0,0.431 0.189,0.673 0.621,0.761 0.75,0.166 1.462,0.23 1.908,0.23 0.836,0 1.51,-0.103 2.02,-0.343 0.699,0.24 1.471,0.343 1.953,0.343 2.187,0 3.178,-0.698 3.178,-2.909 l 0,-3.062 c 0,-0.444 -0.19,-0.635 -0.636,-0.635 l -0.457,0 c -0.445,0 -0.633,0.191 -0.633,0.635 l 0,2.489 C 2.352,-0.584 2.237,0.14 0.965,0.14 0.647,0.14 0.306,0.089 0,0" style="fill:#ff6d00;fill-opacity:1;fill-rule:nonzero;stroke:none" id="path3121" inkscape:connector-curvature="0"/></g><g id="g3123" transform="translate(225.5683,65.887)"><path d="M 0,0 C 0.42,-0.064 0.599,-0.292 0.536,-0.712 L 0.483,-0.991 c -0.075,-0.446 -0.241,-0.585 -0.684,-0.533 -0.215,0.025 -0.444,0.037 -0.636,0.037 -0.37,0 -0.762,-0.037 -1.003,-0.101 l 0,-4.319 c 0,-0.446 -0.191,-0.635 -0.634,-0.635 l -0.46,0 c -0.443,0 -0.633,0.189 -0.633,0.635 l 0,4.941 c 0,0.433 0.19,0.674 0.609,0.788 0.672,0.191 1.359,0.24 1.879,0.24 C -0.684,0.062 -0.328,0.05 0,0" style="fill:#ff6d00;fill-opacity:1;fill-rule:nonzero;stroke:none" id="path3125" inkscape:connector-curvature="0"/></g><g id="g3127" transform="translate(229.6489,59.1906)"><path d="M 0,0 C -1.994,0 -3.279,1.208 -3.279,3.381 -3.279,5.552 -1.994,6.76 0,6.76 1.994,6.76 3.279,5.552 3.279,3.381 3.279,1.208 1.994,0 0,0 m 0,1.487 c 1.016,0 1.523,0.724 1.523,1.894 0,1.168 -0.507,1.893 -1.523,1.893 -1.019,0 -1.524,-0.725 -1.524,-1.893 0,-1.17 0.505,-1.894 1.524,-1.894" style="fill:#ff6d00;fill-opacity:1;fill-rule:nonzero;stroke:none" id="path3129" inkscape:connector-curvature="0"/></g><g id="g3131" transform="translate(239.3799,62.0881)"><path d="m 0,0 -3.684,0 c 0.025,-0.8 0.571,-1.411 1.93,-1.411 0.42,0 0.802,0.077 1.132,0.177 0.458,0.142 0.686,0.027 0.852,-0.417 l 0.05,-0.141 c 0.14,-0.38 0.027,-0.673 -0.356,-0.813 -0.598,-0.202 -1.27,-0.292 -1.944,-0.292 -2.262,0 -3.418,1.208 -3.418,3.38 0,2.375 1.412,3.379 3.089,3.379 1.841,0 2.984,-1.131 2.984,-3.227 C 0.635,0.19 0.446,0 0,0 m -3.684,1.168 2.618,0 c -0.052,0.902 -0.521,1.449 -1.321,1.449 -0.789,0 -1.234,-0.547 -1.297,-1.449" style="fill:#ff6d00;fill-opacity:1;fill-rule:nonzero;stroke:none" id="path3133" inkscape:connector-curvature="0"/></g><g id="g3135" transform="translate(241.9463,57.0569)"><path d="m 0,0 c -0.444,0 -0.634,0.19 -0.634,0.634 l 0,7.28 c 0,0.432 0.19,0.637 0.609,0.75 0.624,0.166 1.221,0.23 1.755,0.23 2.629,0 3.72,-1.323 3.72,-3.38 0,-2.058 -1.243,-3.38 -3.454,-3.38 -0.279,0 -0.636,0.038 -0.902,0.101 l 0,-1.601 C 1.094,0.19 0.904,0 0.457,0 L 0,0 z m 3.698,5.526 c 0,1.131 -0.534,1.881 -1.753,1.881 -0.306,0 -0.65,-0.051 -0.851,-0.128 l 0,-3.531 C 1.295,3.671 1.615,3.621 1.933,3.621 c 1.219,0 1.765,0.749 1.765,1.905" style="fill:#ff6d00;fill-opacity:1;fill-rule:nonzero;stroke:none" id="path3137" inkscape:connector-curvature="0"/></g></g></g></g></svg>