<svg viewBox="0 0 26 9.2" xmlns="http://www.w3.org/2000/svg"><path d="m0 9.2v-9h3v9zm7-7.6 1.7 7.6h-3.2l-2.1-9h1.8c.4 0 .8.1 1.1.4s.5.6.6 1zm2.1 7.6v-9h3v9zm5.2-5.6c-1 0-1.8-.8-1.8-1.8 0-.3 0-.6.2-.9.5-.9 1.6-1.1 2.5-.6.3.2.5.4.6.6.2.3.2.6.2.9s0 .6-.2.9-.4.5-.6.7c-.3.2-.6.2-.9.2zm2.2 5.6v-9h3v9zm6.7-4.1s0 .1.2.3.3.5.5.8c.4.7.8 1.3 1.2 2 .2.3.4.7.6 1h-3.2c-.2-.3-.4-.6-.6-.9s-.3-.6-.5-.9-.4-.6-.6-.9-.3-.5-.5-.8c-.1-.2-.2-.4-.3-.4-.1-.2-.2-.4-.2-.6s0-.4.2-.6c0 0 .1-.2.3-.4s.3-.5.5-.8.4-.6.6-.9l.5-.9.6-.9h3.2l-2.5 4.1c0 .1-.1.3-.1.4 0 .2 0 .3.2.4z" fill="#fff"/></svg>