<svg clip-rule="evenodd" fill-rule="evenodd" stroke-linejoin="round" stroke-miterlimit="2" viewBox="0 0 39 17" xmlns="http://www.w3.org/2000/svg"><path d="m39.073 17h-39.073v-17h39.073zm-26.115-8.5c0-2.776-2.196-4.917-4.938-4.917-2.743 0-4.94 2.142-4.94 4.917s2.197 4.917 4.94 4.917c2.742 0 4.938-2.141 4.938-4.917zm-2.343 0c0 1.493-1.253 2.685-2.595 2.685-1.357 0-2.595-1.192-2.595-2.685 0-1.494 1.238-2.685 2.595-2.685 1.341 0 2.595 1.192 2.595 2.685zm17.556 4.73h2.27v-3.188h4.288v-2.23h-4.289v-1.817h5.261v-2.232h-7.53zm-11.942.006h2.271v-2.76h1.696l1.784 2.76h2.83l-2.285-3.318c1.076-.483 1.828-1.523 1.828-2.805 0-1.886-1.355-3.35-3.42-3.35h-4.704zm4.571-4.992h-2.3v-2.248h2.3c.987 0 1.282.498 1.282 1.117 0 .633-.295 1.131-1.282 1.131z" fill="#fff"/></svg>