<svg clip-rule="evenodd" fill-rule="evenodd" stroke-linejoin="round" stroke-miterlimit="2" viewBox="0 0 2013 580" xmlns="http://www.w3.org/2000/svg"><g fill="#fff" transform="scale(4.16667)"><path d="m69.309 1.622h412.952l-19.659 109.887c-2.757 15.636-14.926 25.981-30.561 25.981h-375.867l47.784-26.011c.319-.131.631-.279.933-.445l14.896-8.08c6.428-3.156 11.969-7.959 16.041-13.907 6.095-8.904 8.374-19.743 6.254-29.742-1.949-9.203-7.374-16.953-15.293-21.842l-13.978-8.623c-.319-.256-.656-.494-1.008-.709l-37.709-23.176-5.361-3.308c.197-.004.376-.025.576-.025zm256.052 93.813c2.622 13.113 12.945 22.031 31.549 22.031 19.236 0 34.702-10.19 37.733-27.382 3.324-18.847-10.905-23.56-23.602-27.636-13.054-4.205-14.712-7.004-13.993-11.08.63-3.566 4.356-6.75 10.684-6.75 8.099 0 11.578 3.949 13.494 10.317l18.858-10.062c-4.142-13.118-14.295-20.123-28.849-20.123-15.314 0-31.492 9.935-34.524 27.127-3.01 17.067 8.776 23.434 21.287 27.127 12.636 3.693 17.317 5.858 16.351 11.335-.606 3.438-3.685 7.258-13.301 7.258-10 0-14.567-4.966-16.427-12.352zm-3.391-5.86c1.594-9.042-1.496-15.921-7.337-20.122 5.551-4.204 9.494-10.063 10.797-17.448 2.717-15.409-8.038-25.471-23.478-25.471h-34.677l-15.719 89.148h37.208c15.819 0 30.422-10.316 33.206-26.107zm-19.981-1.529c-.875 4.968-4.795 8.533-9.856 8.533h-16.959l3.01-17.066h16.959c5.061 0 7.722 3.567 6.846 8.533zm-17.833-42.408h14.427c4.682 0 7.138 3.31 6.329 7.896-.808 4.585-4.557 7.894-9.113 7.894h-14.427zm-32.389 11.461c2.987-16.938-8.152-30.565-25.616-30.565h-33.538l-15.72 89.148h20.25l4.941-28.019h13.289c17.464 0 33.408-13.626 36.394-30.564zm-20.248 0c-1.145 6.495-6.576 11.463-12.777 11.463h-13.289l4.041-22.924h13.289c6.201 0 9.882 4.967 8.736 11.461z"/><path d="m120.99 46.088c-.068-.042-.138-.078-.206-.119l.004-.005-14.618-9.019.009-.083-19.505-11.988-17.748-10.91-16.27-10.038-.003.006c-.068-.042-.131-.089-.199-.13-.081-.05-.165-.094-.247-.143-.202-.122-.407-.239-.613-.356-.257-.144-.516-.282-.777-.416-.228-.117-.454-.238-.686-.348-.418-.199-.84-.385-1.265-.558-.263-.107-.53-.203-.796-.301-.235-.086-.471-.17-.708-.249-.277-.093-.556-.183-.838-.266-.272-.08-.546-.151-.82-.221-.436-.112-.876-.213-1.322-.303-.259-.052-.518-.103-.778-.147-.291-.049-.582-.095-.877-.134-.287-.039-.575-.068-.864-.097-.464-.046-.932-.081-1.405-.104-.25-.011-.501-.023-.751-.027-.185-.004-.365-.021-.552-.021-14.813 0-28.081 11.817-30.023 26.534-.058.893.956 1.053 1.611.561 1.458-1.096 2.886-2.441 2.886-2.441l15.584-13.587s1.418-1.234 2.907-1.165c.527-.006 1.07.138 1.565.556 1.846 1.552.086 3.942.086 3.942l-26.849 49.215 54.482-19.467s2.549-1.508 3.89.5-1.058 4.262-1.058 4.262l-15.074 14.155s-1.52 1.251-2.717 2.63c-.151.172-.225.367-.268.571.001.203.034.399.147.571.908 1.379 2.165 2.63 2.165 2.63l12.099 14.156s1.925 2.253.162 4.261c-1.764 2.008-3.996.5-3.996.5l-49.832-17.311 15.837 48.097s1.257 2.391-.915 3.943c-.583.417-1.154.561-1.681.556-1.504.069-2.663-1.166-2.663-1.166l-12.728-13.586s-1.202-1.281-2.373-2.44c-.612-.607-1.519-.527-1.769.591l-.452 4.301h.007c-.01.083-.024.165-.033.248-1.582 15.062 9.343 27.272 24.405 27.272 5.45 0 10.69-1.604 15.239-4.359l37.486-20.403 22.024-11.989.022-.208h.477l14.896-8.08c4.761-2.304 9.068-5.888 12.296-10.603 8.92-13.033 6.232-29.719-6.007-37.27z" fill-rule="nonzero"/></g></svg>