<svg fill="none" height="100" viewBox="0 0 100 100" width="100" xmlns="http://www.w3.org/2000/svg"><path clip-rule="evenodd" d="m0 100h100v-100h-100zm31.352-30.302-9.608-15.062h-.103v15.062h-10.181v-39.16h15.218c7.738 0 13.606 3.686 13.606 12.049 0 5.401-3.01 10.075-8.569 11.063l12.309 16.048zm42.084 0h-9.451v-2.96h-.105c-1.662 2.648-4.934 3.842-8.05 3.842-7.894 0-13.451-6.595-13.451-14.23s5.453-14.179 13.347-14.179c3.065 0 6.284 1.143 8.259 3.48v-2.596h9.45v26.643zm5.443 0h9.452v-26.643h-9.451v26.643zm4.731-31.578c-2.908 0-5.299-2.39-5.299-5.298s2.39-5.297 5.3-5.297c2.908 0 5.295 2.389 5.295 5.297 0 2.909-2.387 5.298-5.296 5.298zm-60.984.209h-.986v9.764h.986c3.324 0 7.063-.623 7.063-4.882 0-4.26-3.74-4.882-7.063-4.882zm29.514 18.073c0-3.273 2.232-6.025 6.076-6.025 3.843 0 6.076 2.752 6.076 6.025 0 3.375-2.233 5.974-6.076 5.974-3.844 0-6.076-2.599-6.076-5.974z" fill="#fff" fill-rule="evenodd"/></svg>