<svg clip-rule="evenodd" fill-rule="evenodd" stroke-linejoin="round" stroke-miterlimit="2" viewBox="0 0 3508 877" xmlns="http://www.w3.org/2000/svg"><g fill="#fff" fill-rule="nonzero" transform="matrix(8.71757695 0 0 8.71757695 1261.197824 278.606247)"><path d="m36.381 52.394c-1.869-1.734-3.942-2.721-6.681-2.721l-53.916.006h-.039l-.038.006c-1.623.422-3.621-.8-5.265-1.792-1.378-1.187-1.988-2.837-1.988-5v-34.711l61.192.004c2.003 0 4.31-.274 6.438-2.239 1.754-1.863 2.639-3.947 2.639-6.619 0-2.535-.895-4.774-2.8-6.548-1.771-1.905-4.01-2.798-6.546-2.798h-60.922l.001-12.577c0-2.484-1.002-4.682-2.725-6.434-1.73-1.886-3.947-2.768-6.487-2.768-2.535 0-4.772.894-6.679 2.802-1.907 1.771-2.798 4.009-2.798 6.678v73.006c0 11.713 5.615 17.346 17.285 17.346l62.918-.007c2.486 0 4.554-1.002 6.438-2.725 1.756-1.73 2.771-3.948 2.771-6.353 0-2.622-.866-4.489-2.798-6.556z"/><path d="m87.782-9.969c-2.221 0-4.628.268-6.572 2.182-1.755 1.73-2.638 3.946-2.638 6.486 0 2.535.894 4.773 2.799 6.679 1.774 1.773 4.012 2.8 6.548 2.8l1.391.006h33.769c2.215 0 3.902.595 5.245 1.938 1.209 1.21 1.936 2.875 1.936 5.044l.051 27.742c0 2.157-.611 3.806-1.986 4.991-1.391 1.199-3.239 1.789-5.331 1.789h-44.668c-2.275 0-4.143-.59-5.532-1.789-1.377-1.185-1.988-2.83-1.988-4.993l-.052-65.655c0-2.353-1.001-4.554-2.725-6.437-1.731-1.757-3.946-2.773-6.487-2.773-2.534 0-4.772 1.026-6.678 2.931-1.907 1.776-2.799 4.012-2.799 6.549v73.039c0 11.447 5.921 17.479 17.678 17.479l61.396.014c11.625 0 17.679-5.741 17.679-17.398v-43.538c0-11.27-5.63-16.857-17.327-17.065z"/><path d="m254.943 6.022c1.755-1.729 2.774-3.945 2.774-6.485 0-2.537-1.028-4.774-2.8-6.679-2.076-1.943-4.312-2.856-6.681-2.856l-68.698.005c-11.3.263-17.221 5.936-16.911 17.065l-.469 52.439c0 2.363 1.014 4.572 2.767 6.326s3.952 2.77 6.311 2.77c2.667 0 4.895-1.016 6.649-2.77 2.052-1.799 2.821-4.007 2.821-6.329l.342-46.788c0-3.043 1.279-4.512 4.091-4.512l63.239-.003c2.217.001 4.49-.27 6.565-2.183z"/><path d="m-64.984-7.405c-1.715-1.717-3.922-2.564-6.679-2.564-17.415-.018-34.966.041-52.38-.027-1.355-.023-2.183-.526-2.989-1.64-1.698-2.473-5.343-3.327-8.165-3.327-2.804 0-5.353 1.124-7.268 3.124-1.858 1.944-2.183 4.086-2.183 6.588l-.026 64.256c0 2.356.894 4.57 2.8 6.342 1.904 2.035 4.14 2.799 6.677 2.799s4.752-.74 6.481-2.468c1.86-1.993 2.731-3.942 2.731-6.612v-43.806c0-2.078.642-3.986 1.987-5.144 1.372-1.315 3.085-1.904 5.325-1.92h47.279c2.765 0 4.9-.791 6.438-2.436 1.888-1.729 2.772-3.946 2.772-6.485s-.894-4.772-2.8-6.68z"/><path d="m234.947 33.804v-.007c0-2.793-1.093-5.357-2.999-7.154-2.128-1.885-4.498-2.766-7.604-2.766h-17.898c-2.841 0-5.213.881-7.342 2.766-2.164 1.797-3.26 4.361-3.26 7.154v.007c0 2.792 1.094 5.101 3.26 6.887 2.129 1.753 4.501 2.77 7.342 2.77h17.898c3.106 0 5.476-1.017 7.604-2.77 1.902-1.786 2.999-4.095 2.999-6.887z"/></g></svg>