<svg clip-rule="evenodd" fill-rule="evenodd" stroke-linejoin="round" stroke-miterlimit="2" viewBox="0 0 87 46" xmlns="http://www.w3.org/2000/svg"><g fill="#fff"><path d="m78.217 39.793c-6.672 0-12.197-4.742-13.242-11.478h12.574c1.394 0 4.359.298 4.359.298v-5.536s-2.937.217-4.576.217h-12.299c1.177-6.546 6.628-11.135 13.184-11.135 3.395 0 7.669 1.584 7.669 1.584l.112-5.827s-3.046-1.16-7.781-1.16c-11.075 0-20.697 8.477-20.697 19.218 0 11.57 9.623 19.449 20.697 19.449 5.122 0 8.249-1.384 8.249-1.384l-.115-6.065c0 .001-3.823 1.819-8.134 1.819"/><path d="m40.604 45.241s.485-2.785.485-5.258v-26.666h-1.804c-2.463 0-6.268.034-9.097.305l-.183-6.187h29.245l-.183 6.187c-2.829-.271-6.635-.305-9.097-.305h-2.27v26.667c0 2.473.489 5.258.489 5.258h-7.585"/><path d="m86.052 4.355c-2.184-.624-4.972-1.038-7.377-1.038-6.421 0-11.932 1.96-16.546 6.051l.102-4.505c4.891-3.316 10.406-4.863 16.444-4.863 2.666 0 5.016.38 7.448 1.038z"/><path d="m27.515 40.092-10.121-9.85c6.261-.577 11.471-5.149 11.471-11.173 0-6.587-3.935-12.407-15.942-12.407-7.574 0-12.804.339-12.804.339s.37 3.762.37 5.641v27.45c0 2.476-.489 5.156-.489 5.156h7.639s-.489-2.68-.489-5.644v-11.228l10.796 11.248c2.201 2.476 6.122 5.624 6.122 5.624h10.082s-4.501-3.134-6.635-5.156m-20.365-14.31v-13.734s2.646-.119 5.858-.119c6.007 0 8.49 3.012 8.49 6.621 0 4.199-3.758 7.238-8.914 7.238-2.252 0-4.216-.003-5.434-.006z"/></g></svg>