<?xml version="1.0" encoding="UTF-8" standalone="no"?>
<!DOCTYPE svg PUBLIC "-//W3C//DTD SVG 1.1//EN" "http://www.w3.org/Graphics/SVG/1.1/DTD/svg11.dtd">
<svg width="100%" height="100%" viewBox="0 0 87 46" version="1.1" xmlns="http://www.w3.org/2000/svg" xmlns:xlink="http://www.w3.org/1999/xlink" xml:space="preserve" xmlns:serif="http://www.serif.com/" style="fill-rule:evenodd;clip-rule:evenodd;stroke-linejoin:round;stroke-miterlimit:2;">
    <g>
        <path d="M78.217,39.793C71.545,39.793 66.02,35.051 64.975,28.315L77.549,28.315C78.943,28.315 81.908,28.613 81.908,28.613L81.908,23.077C81.908,23.077 78.971,23.294 77.332,23.294L65.033,23.294C66.21,16.748 71.661,12.159 78.217,12.159C81.612,12.159 85.886,13.743 85.886,13.743L85.998,7.916C85.998,7.916 82.952,6.756 78.217,6.756C67.142,6.756 57.52,15.233 57.52,25.974C57.52,37.544 67.143,45.423 78.217,45.423C83.339,45.423 86.466,44.039 86.466,44.039L86.351,37.974C86.351,37.975 82.528,39.793 78.217,39.793" style="fill:white;"/>
        <path d="M40.604,45.241C40.604,45.241 41.089,42.456 41.089,39.983L41.089,13.317L39.285,13.317C36.822,13.317 33.017,13.351 30.188,13.622L30.005,7.435L59.25,7.435L59.067,13.622C56.238,13.351 52.432,13.317 49.97,13.317L47.7,13.317L47.7,39.984C47.7,42.457 48.189,45.242 48.189,45.242L40.604,45.242" style="fill:white;"/>
        <path d="M86.052,4.355C83.868,3.731 81.08,3.317 78.675,3.317C72.254,3.317 66.743,5.277 62.129,9.368L62.231,4.863C67.122,1.547 72.637,0 78.675,0C81.341,0 83.691,0.38 86.123,1.038L86.052,4.355" style="fill:white;"/>
        <path d="M27.515,40.092L17.394,30.242C23.655,29.665 28.865,25.093 28.865,19.069C28.865,12.482 24.93,6.662 12.923,6.662C5.349,6.662 0.119,7.001 0.119,7.001C0.119,7.001 0.489,10.763 0.489,12.642L0.489,40.092C0.489,42.568 0,45.248 0,45.248L7.639,45.248C7.639,45.248 7.15,42.568 7.15,39.604L7.15,28.376L17.946,39.624C20.147,42.1 24.068,45.248 24.068,45.248L34.15,45.248C34.15,45.248 29.649,42.114 27.515,40.092M7.15,25.782L7.15,12.048C7.15,12.048 9.796,11.929 13.008,11.929C19.015,11.929 21.498,14.941 21.498,18.55C21.498,22.749 17.74,25.788 12.584,25.788C10.332,25.788 8.368,25.785 7.15,25.782Z" style="fill:white;"/>
    </g>
</svg>