<svg clip-rule="evenodd" fill-rule="evenodd" stroke-linejoin="round" stroke-miterlimit="2" viewBox="0 0 454 80" xmlns="http://www.w3.org/2000/svg"><g fill="#fff"><path d="m453.53 0v79.71h-141.74v-79.71zm-97.69 18.32v43.06h53.64v-8.49h-43.8v-34.57z"/><path d="m297.64 0v79.71h-141.74v-79.71zm-75.8 26.81v34.58h9.85v-34.58h24.91v-8.49h-59.67v8.49z"/><path d="m141.74 0v79.71h-141.74v-79.71zm-101.48 18.32v43.07h9.84v-15.07h19.75l17.41 15.07h14.21l-18.52-15.63c8.18-1.17 12.98-6.16 12.98-13.6 0-8.67-6.4-13.84-17.9-13.84zm36.48 19.93v-.01h-26.64v-11.87h26.64c6.09 0 9.04 1.91 9.04 5.91s-2.95 5.97-9.04 5.97z"/></g></svg>