<?xml version="1.0" encoding="UTF-8"?>
<svg id="Layer_1" xmlns="http://www.w3.org/2000/svg" version="1.1" viewBox="0 0 467.5 141.1">
  <!-- Generator: Adobe Illustrator 30.1.0, SVG Export Plug-In . SVG Version: 2.1.1 Build 136)  -->
  <defs>
    <style>
      .st0 {
        fill: none;
      }

      .st1 {
        fill: #fff;
      }
    </style>
  </defs>
  <rect class="st0" x="0" y="0" width="753.8" height="150"/>
  <path class="st1" d="M419.6.4h-86c-7.9,0-14.3,6.4-14.3,14.3v123h35.3v-39c0-1.3,1.1-2.4,2.4-2.4h62.6c26.5,0,47.9-21.5,47.9-47.9S446,.5,419.6.5h0ZM432.2,61.4c0,1.3-1.1,2.4-2.4,2.4h-73.2c-1.3,0-2.4-1.1-2.4-2.4v-26.2c0-1.3,1.1-2.4,2.4-2.4h73.2c1.3,0,2.4,1.1,2.4,2.4v26.2ZM126.8,87.9c-.3-.5-.1-1.2.3-1.5,11.4-8.8,18.8-22.5,18.8-38.1C145.9,21.8,124.4.4,98,.4H0v123.1C0,133.2,7.9,141.1,17.6,141.1s17.7-7.9,17.7-17.6v-24.8c0-1.3,1.1-2.4,2.4-2.4h51.4c.9,0,1.7.5,2.1,1.2l22.1,40.2h40.8l-27.3-49.8ZM110.6,48.3c0,8.6-6.9,15.5-15.5,15.5h-57.8c-1.3,0-2.4-1.1-2.4-2.4v-26.2c0-1.3,1.1-2.4,2.4-2.4h57.8c8.6,0,15.5,6.9,15.5,15.5M290.9,32.8h-39.4c-1.3,0-2.4,1.1-2.4,2.4v102.5h-35.7V35.2c0-1.3-1.1-2.4-2.4-2.4h-55.2V.4h135.1c8.9,0,16.2,7.2,16.2,16.2s-7.2,16.2-16.2,16.2h0Z"/>
</svg>