<svg viewBox="0 0 763 154.2" xmlns="http://www.w3.org/2000/svg" xmlns:xlink="http://www.w3.org/1999/xlink"><clipPath id="a"><path d="m4.4 4.2h753.8v150h-753.8z"/></clipPath><g clip-path="url(#a)" fill="#fff"><path d="m555.6 9.5 1.9-3.7h4l-2.8 5.4c-.3.6-.9 1-1.6 1-1.3 0-2.2-1.4-1.6-2.6zm-20.9 15.8 7 12.8h-4.7l-6.3-12.3h-8.1v10.2c0 1.2-.9 2.1-2.1 2.1s-2.1-.9-2.1-2.1v-29.2h12.6c2.9 0 5.3.9 7.2 2.6 2 1.7 3 4 3 7s-.6 4.1-1.8 5.7c-1.2 1.5-2.8 2.6-4.7 3.3zm.5-4.6c1.2-1.1 1.8-2.5 1.8-4.2s-.6-3.2-1.8-4.3-2.7-1.6-4.6-1.6h-8v11.7h8c1.9 0 3.5-.5 4.6-1.6zm11.3 14.5c-2-2.2-3.1-4.9-3.1-8.1s1-5.9 3.1-8.1 4.6-3.3 7.6-3.3 6.4 1.2 8.5 3.6v-1.3c0-1.1.9-2 2-2s2 .9 2 2v20.1h-4v-3.3c-2.2 2.4-5 3.6-8.5 3.6s-5.5-1.1-7.6-3.3zm.9-8.1c0 2.2.7 4.1 2.2 5.6s3.3 2.3 5.4 2.3 3.9-.7 5.4-2.3c1.5-1.5 2.2-3.4 2.2-5.6s-.7-4.1-2.2-5.6-3.3-2.3-5.4-2.3-3.9.8-5.4 2.3-2.2 3.4-2.2 5.6zm26.4 8.1c-2-2.2-3.1-4.9-3.1-8.1s1-5.9 3.1-8.1c2-2.2 4.6-3.3 7.6-3.3s6.4 1.2 8.5 3.6v-14.7h4v31.5c0 1.1-.9 2-2 2s-2-.9-2-2v-1.3c-2.2 2.4-5 3.6-8.5 3.6s-5.5-1.1-7.6-3.3zm1-8.1c0 2.2.7 4.1 2.1 5.6s3.2 2.3 5.4 2.3 3.9-.7 5.4-2.3 2.2-3.4 2.2-5.6-.7-4.1-2.2-5.6-3.3-2.3-5.4-2.3-3.9.7-5.4 2.3-2.1 3.4-2.1 5.6zm26.5-15.4c.7 0 1.3-.2 1.7-.7.5-.5.7-1 .7-1.7s-.2-1.1-.7-1.6-1-.7-1.7-.7-1.2.2-1.7.7-.7 1-.7 1.6.2 1.2.7 1.7 1 .7 1.7.7zm-2 24.5c0 1.1.9 2 2 2s2-.9 2-2v-20.2h-3.9v20.2zm28.1-17.4c2.3 2.3 3.4 5 3.4 8.3s-1.1 6-3.4 8.2c-2.3 2.3-5 3.4-8.3 3.4s-6-1.1-8.3-3.4-3.4-5-3.4-8.2 1.1-6 3.4-8.3 5-3.4 8.3-3.4 6 1.1 8.3 3.4zm-.8 8.3c0-2.2-.7-4.1-2.2-5.6s-3.2-2.3-5.4-2.3-3.9.8-5.3 2.3-2.2 3.4-2.2 5.6.7 4.1 2.2 5.6c1.4 1.5 3.2 2.3 5.3 2.3s3.9-.8 5.4-2.3 2.2-3.4 2.2-5.6zm-90.7 81.3h4v31.5c0 1.1-.9 2-2 2s-2-.9-2-2v-1.3c-2.2 2.4-5 3.6-8.5 3.6s-5.5-1.1-7.6-3.3-3.1-4.9-3.1-8.1 1-5.9 3.1-8.1c2-2.2 4.6-3.3 7.6-3.3s6.4 1.2 8.5 3.6v-14.7zm0 22.5c0-2.2-.7-4.1-2.2-5.6s-3.3-2.3-5.4-2.3-3.9.8-5.4 2.3c-1.4 1.5-2.1 3.4-2.1 5.6s.7 4.1 2.1 5.6 3.2 2.3 5.4 2.3 3.9-.8 5.4-2.3 2.2-3.4 2.2-5.6zm27.6-8.6c2.1 2.1 3.2 4.9 3.3 8.3v1.2h-18.9c.2 2.1 1.1 3.9 2.5 5.2 1.5 1.3 3.2 2 5.3 2s4.3-.7 5.8-2c.6-.6 1.5-.6 2.2 0 .8.6.8 1.8 0 2.5s-1.7 1.4-2.8 1.9c-1.7.8-3.5 1.1-5.4 1.1-3.2 0-5.9-1.1-8.2-3.4s-3.4-5-3.4-8.2 1.1-6.1 3.3-8.3 4.9-3.3 8.2-3.3 5.9 1.1 8 3.1zm-.6 6.3c-.4-1.8-1.3-3.3-2.6-4.4s-2.9-1.7-4.8-1.7-3.5.5-4.8 1.7-2.2 2.6-2.7 4.4zm38.2-15.3c2 1.8 3 4.2 3 7.3s-1 5.5-3 7.2c-2 1.8-4.4 2.7-7.3 2.7h-7.8v9.3c0 1.2-.9 2.1-2.1 2.1s-2.1-.9-2.1-2.1v-29.2h12c2.9 0 5.3.9 7.3 2.7zm-1.2 7.2c0-1.9-.6-3.4-1.7-4.6-1.2-1.1-2.7-1.7-4.6-1.7h-7.6v12.6h7.6c1.9 0 3.4-.6 4.6-1.7s1.7-2.7 1.7-4.6zm25.9 2c2.3 2.3 3.4 5 3.4 8.3s-1.1 6-3.4 8.2c-2.3 2.3-5 3.4-8.3 3.4s-6-1.1-8.3-3.4-3.4-5-3.4-8.2 1.1-6 3.4-8.3 5-3.4 8.3-3.4 6 1.1 8.3 3.4zm-.7 8.4c0-2.2-.7-4.1-2.2-5.6s-3.3-2.3-5.4-2.3-3.9.8-5.3 2.3-2.2 3.4-2.2 5.6.7 4.1 2.2 5.6c1.4 1.5 3.2 2.3 5.3 2.3s3.9-.8 5.4-2.3 2.2-3.4 2.2-5.6zm12.4-8.1v-3h-4v20.1c0 1.1.9 2 2 2s2-.9 2-2v-9.7c0-2.1.6-3.8 1.7-5.1 1.1-1.2 2.5-1.9 4.1-1.9s2 .1 2.7.4v-4.3c-4 0-6.8 1-8.5 3.4zm23.9 15.5c-2.7 0-4-1.3-4-3.9v-11.1h4.5c1 0 1.8-.8 1.8-1.8s-.8-1.8-1.8-1.8h-4.5v-6.4h-4v6.4h-5.2v3.5h5.2v11.9c0 2.1.7 3.8 2 5s3 1.8 5.1 1.8 2.6-.2 3.8-.6l-.4-3.5c-1 .3-1.8.4-2.5.4zm25.6-18.5c-1.1 0-2 .9-2 2v8.9c0 2.5-.6 4.5-1.8 5.9s-2.8 2.1-4.8 2.1-3.3-.6-4.5-1.9-1.7-3.3-1.7-5.9v-11.1h-4v11.4c0 3.6.9 6.3 2.7 8.2s4.1 2.8 7.1 2.8 5.2-1.1 7-3.2v2.9h4v-20.1c0-1.1-.9-2-2-2zm25.3 0h4v21.1c0 3.9-1.2 6.9-3.5 9s-5.1 3.2-8.5 3.2c-2.4 0-4.5-.4-6.4-1.4-1.2-.6-2.3-1.4-3.2-2.3-.8-.8-.8-2.2 0-2.9s2-.6 2.7.1c1.8 1.8 4.1 2.7 6.8 2.7s4-.7 5.5-2.1c1.6-1.4 2.3-3.4 2.3-6v-2.4c-1.9 2.4-4.6 3.6-8.4 3.6s-5.7-1.1-7.7-3.3c-2.1-2.2-3.1-4.9-3.1-8.1s1-5.9 3.1-8.1 4.6-3.3 7.7-3.3 6.3 1.2 8.4 3.6v-3.3zm0 11.1c0-2.2-.7-4.1-2.2-5.6s-3.3-2.3-5.4-2.3-3.9.8-5.4 2.3-2.1 3.4-2.1 5.6.7 4.1 2.1 5.6 3.2 2.3 5.4 2.3 3.9-.8 5.4-2.3 2.2-3.4 2.2-5.6zm31.4-9.1v20.1h-4v-3.3c-2.2 2.4-5 3.6-8.5 3.6s-5.5-1.1-7.6-3.3c-2-2.2-3.1-4.9-3.1-8.1s1-5.9 3.1-8.1c2-2.2 4.6-3.3 7.6-3.3s6.4 1.2 8.5 3.6v-1.3c0-1.1.9-2 2-2s2 .9 2 2zm-4.1 9.1c0-2.2-.7-4.1-2.2-5.6s-3.3-2.3-5.4-2.3-3.9.8-5.4 2.3-2.2 3.4-2.2 5.6.7 4.1 2.2 5.6 3.3 2.3 5.4 2.3 3.9-.8 5.4-2.3 2.2-3.4 2.2-5.6zm18.1 7.2c-.6.2-1.1.2-1.5.2-1 0-1.7-.3-2.3-.9s-.9-1.4-.9-2.5v-24.5c0-1.1-.9-2-2-2s-2 .9-2 2v25.2c0 2 .5 3.6 1.7 4.7 1.1 1.1 2.6 1.7 4.5 1.7s1.9-.2 3-.4l-.4-3.5zm-218.3-57.1h-18.9c.2 2.1 1.1 3.9 2.5 5.2 1.5 1.3 3.2 2 5.3 2s4.3-.7 5.8-2c.6-.5 1.5-.6 2.2 0 .8.6.8 1.8 0 2.5-.8.8-1.7 1.4-2.8 1.9-1.7.8-3.5 1.1-5.4 1.1-3.2 0-5.9-1.1-8.2-3.4s-3.4-5-3.4-8.2 1.1-6.1 3.3-8.3 4.9-3.4 8.2-3.4 5.9 1.1 8 3.1c2.1 2.1 3.2 4.9 3.3 8.3v1.2zm-3.8-3.3c-.4-1.8-1.3-3.3-2.6-4.4s-2.9-1.7-4.8-1.7-3.5.6-4.8 1.7c-1.4 1.1-2.2 2.6-2.7 4.4zm36.7-16.1c0-1-.8-1.9-1.9-1.9h-23.8v3.8h10.7v27.5h4.2v-27.5h8.9c1 0 1.9-.8 1.9-1.9zm9.7 29.9c-3.2 0-5.9-1.1-8.2-3.4s-3.4-5-3.4-8.2 1.1-6.1 3.3-8.3 4.9-3.4 8.2-3.4 5.9 1.1 8 3.1c2.1 2.1 3.2 4.9 3.3 8.3v1.2h-18.9c.2 2.1 1.1 3.9 2.5 5.2 1.5 1.3 3.2 2 5.3 2s4.3-.7 5.8-2c.6-.6 1.5-.6 2.2 0 .8.6.8 1.8 0 2.5s-1.7 1.4-2.8 1.9c-1.7.8-3.5 1.1-5.4 1.1zm-7.5-13.8h14.9c-.4-1.8-1.3-3.3-2.6-4.4s-2.9-1.7-4.8-1.7-3.5.6-4.8 1.7c-1.4 1.1-2.2 2.6-2.7 4.4zm31.4 11.2c-.1-.9-.9-1.5-1.7-1.5-1 0-1.7-.3-2.3-.9s-.9-1.4-.9-2.5v-26.5h-4v27.2c0 2 .5 3.6 1.7 4.7 1.1 1.1 2.6 1.7 4.5 1.7s.9 0 1.3 0c.9-.1 1.6-1 1.4-1.9v-.2zm21.2-17.4c2.1 2.1 3.2 4.9 3.3 8.3v1.2h-18.9c.2 2.1 1.1 3.9 2.5 5.2 1.5 1.3 3.2 2 5.3 2s4.3-.7 5.8-2c.6-.6 1.5-.6 2.2 0 .8.6.8 1.8 0 2.5s-1.7 1.4-2.8 1.9c-1.7.8-3.5 1.1-5.4 1.1-3.2 0-5.9-1.1-8.2-3.4s-3.4-5-3.4-8.2 1.1-6.1 3.3-8.3 4.9-3.4 8.2-3.4 5.9 1.1 8 3.2zm-.5 6.2c-.4-1.8-1.3-3.3-2.6-4.4s-2.9-1.7-4.8-1.7-3.5.5-4.8 1.7-2.2 2.6-2.7 4.4zm18.4 13.3 8.2-19.4c.5-1.3-.4-2.7-1.8-2.7s-1.5.5-1.8 1.2l-6.8 16.9-7.3-18.1h-4.2l9.3 22.1h4.5zm14.3-26.4c.7 0 1.3-.2 1.7-.7.5-.5.7-1 .7-1.7s-.2-1.1-.7-1.6-1-.7-1.7-.7-1.2.2-1.7.7-.7 1-.7 1.6.2 1.2.7 1.7 1 .7 1.7.7zm-2 24.4c0 1.1.9 2 2 2s2-.9 2-2v-20.2h-3.9v20.2zm17.7 2.8c2.8 0 5.1-.7 6.8-2s2.6-3.1 2.6-5.3-1.1-4-3.3-4.9c-.8-.4-1.9-.6-3.4-.8s-2.7-.3-3.8-.4-2-.4-2.9-.9c-.8-.5-1.3-1.3-1.3-2.3s.5-1.9 1.4-2.6c.9-.8 2.1-1.1 3.5-1.1s2.6.4 3.5 1.1 1.5 1.6 1.8 2.8l3.4-.9c-.5-1.8-1.5-3.2-3-4.3s-3.4-1.7-5.8-1.7-4.5.7-6.1 2c-1.7 1.3-2.5 3-2.5 4.8s1.2 4.3 3.7 5.3c1 .4 2.6.7 4.5.9 2 .2 3.5.4 4.6.8s1.6 1.2 1.6 2.3-.5 2.2-1.5 2.9-2.3 1.1-4 1.1c-2.7 0-4.6-.9-5.8-2.8-.4-.7-1.3-1-2.1-.8-1.1.4-1.6 1.8-.9 2.7.7 1 1.6 1.9 2.7 2.5 1.8 1.1 3.8 1.6 6.1 1.6zm23-.5c-3 0-5.5-1.1-7.6-3.3-2-2.2-3.1-4.9-3.1-8.1s1-5.9 3.1-8.1c2-2.2 4.6-3.3 7.6-3.3s6.4 1.2 8.5 3.6v-3.3h4v20.1c0 1.1-.9 2-2 2s-2-.9-2-2v-1.3c-2.2 2.4-5 3.6-8.5 3.6zm-4.5-5.8c1.5 1.5 3.3 2.3 5.4 2.3s3.9-.7 5.4-2.3 2.2-3.4 2.2-5.6-.7-4.1-2.2-5.6-3.3-2.3-5.4-2.3-3.9.8-5.4 2.3-2.2 3.4-2.2 5.6.7 4.1 2.2 5.6zm32.8 6.1c-3.2 0-6-1.1-8.3-3.4s-3.4-5-3.4-8.2 1.1-6 3.4-8.3 5-3.4 8.3-3.4 6 1.1 8.3 3.4 3.4 5 3.4 8.3-1.1 6-3.4 8.2c-2.3 2.3-5 3.4-8.3 3.4zm-5.4-6.1c1.4 1.5 3.2 2.3 5.3 2.3s3.9-.7 5.4-2.3 2.2-3.4 2.2-5.6-.7-4.1-2.2-5.6-3.2-2.3-5.4-2.3-3.9.8-5.3 2.3-2.2 3.4-2.2 5.6.7 4.1 2.2 5.6zm-13.4-23.7c0-1.1-.9-1.9-1.9-1.9h-13.8v3.8h13.8c1.1 0 1.9-.9 1.9-1.9z"/><path d="m424 4.6h-86c-7.9 0-14.3 6.4-14.3 14.3v123h35.3v-39c0-1.3 1.1-2.4 2.4-2.4h62.6c26.5 0 47.9-21.5 47.9-47.9s-21.5-47.9-47.9-47.9zm12.6 61c0 1.3-1.1 2.4-2.4 2.4h-73.2c-1.3 0-2.4-1.1-2.4-2.4v-26.2c0-1.3 1.1-2.4 2.4-2.4h73.2c1.3 0 2.4 1.1 2.4 2.4zm-305.4 26.5c-.3-.5-.1-1.2.3-1.5 11.4-8.8 18.8-22.5 18.8-38.1 0-26.5-21.5-47.9-47.9-47.9h-98v123.1c0 9.7 7.9 17.6 17.6 17.6s17.7-7.9 17.7-17.6v-24.8c0-1.3 1.1-2.4 2.4-2.4h51.4c.9 0 1.7.5 2.1 1.2l22.1 40.2h40.8zm-16.2-39.6c0 8.6-6.9 15.5-15.5 15.5h-57.8c-1.3 0-2.4-1.1-2.4-2.4v-26.2c0-1.3 1.1-2.4 2.4-2.4h57.8c8.6 0 15.5 6.9 15.5 15.5m180.3-15.5h-39.4c-1.3 0-2.4 1.1-2.4 2.4v102.5h-35.7v-102.5c0-1.3-1.1-2.4-2.4-2.4h-55.2v-32.4h135.1c8.9 0 16.2 7.2 16.2 16.2s-7.2 16.2-16.2 16.2z"/></g></svg>