<svg width="142" height="58" viewBox="0 0 142 58" fill="none" xmlns="http://www.w3.org/2000/svg">
<path d="M142 0H0V43.4858H142V0Z" fill="url(#paint0_linear)"/>
<path d="M142 43.5H0V58H142V43.5Z" fill="#C40000"/>
<path d="M14.0904 48.0901H12.181V46.6265H17.7073V48.0901H15.798V54.5481H14.0904V48.0901Z" fill="white"/>
<path d="M18.8093 46.6265H23.4951V48.0901H20.5169V49.8471H23.0318L22.9623 51.2541H20.5169V53.0812H23.6109V54.5481H18.8093V46.6265Z" fill="white"/>
<path d="M25.0074 46.6265H26.7183V53.0812H29.8554L29.7859 54.5481H25.0074V46.6265Z" fill="white"/>
<path d="M30.9606 46.6265H35.6596V48.0901H32.6813V49.8471H35.193L35.1235 51.2541H32.6714V53.0812H35.7622V54.5481H30.9606V46.6265Z" fill="white"/>
<path d="M36.5763 46.6265H38.3103L39.634 51.4308C39.7366 51.8042 39.8424 52.331 39.9351 52.8378C40.0278 52.331 40.1337 51.8042 40.2362 51.4308L41.5599 46.6265H43.2906L40.9312 54.5481H38.9457L36.5763 46.6265Z" fill="white"/>
<path d="M44.3198 46.6265H46.0307V54.5481H44.3198V46.6265Z" fill="white"/>
<path d="M47.576 52.7778C48.2758 53.06 49.0198 53.2146 49.7733 53.2346C49.8966 53.2489 50.0216 53.2364 50.1397 53.198C50.2578 53.1595 50.3663 53.0959 50.4579 53.0115C50.5495 52.9271 50.6221 52.8238 50.6707 52.7087C50.7193 52.5937 50.7428 52.4694 50.7396 52.3444C50.7396 50.9274 47.4602 51.2908 47.4602 48.7003C47.4602 47.33 48.6349 46.4731 50.1075 46.4731C50.8765 46.4927 51.6347 46.6602 52.3412 46.9666L51.9011 48.3435C51.3358 48.0948 50.7276 47.96 50.1108 47.9468C49.449 47.9468 49.2273 48.2802 49.2273 48.6836C49.2273 50.0172 52.5067 49.5971 52.5067 52.351C52.5067 53.9347 51.183 54.7182 49.7733 54.7182C48.9103 54.7095 48.056 54.5434 47.2517 54.2281L47.576 52.7778Z" fill="white"/>
<path d="M53.7278 46.6265H55.4353V54.5481H53.7278V46.6265Z" fill="white"/>
<path d="M56.8649 49.7538C56.8649 47.5767 58.2613 46.4731 59.9722 46.4731C61.683 46.4731 63.0861 47.5767 63.0861 49.7538V51.4208C63.0861 53.6113 61.693 54.6882 59.9722 54.6882C58.2514 54.6882 56.8649 53.6113 56.8649 51.4208V49.7538ZM61.3786 51.3008V49.8705C61.3786 48.4436 60.7862 47.9401 59.9722 47.9401C59.1581 47.9401 58.5724 48.4436 58.5724 49.8705V51.3008C58.5724 52.7645 59.1416 53.2346 59.9689 53.2346C60.7962 53.2346 61.3786 52.7645 61.3786 51.3008Z" fill="white"/>
<path d="M64.5289 46.6264H65.9155L68.6125 51.1507C68.5893 50.7039 68.5761 50.2838 68.5761 49.9438V46.6097H70.2869V54.5314H68.8904L66.1835 50.0471C66.2199 50.5039 66.2298 50.9373 66.2298 51.2907V54.5481H64.5289V46.6264Z" fill="white"/>
<path d="M76.2367 46.6265H78.2223L80.5817 54.5481H78.8477L78.3248 52.6377H76.1408L75.6146 54.5481H73.8839L76.2367 46.6265ZM77.9343 51.2441L77.5273 49.7438C77.4247 49.3804 77.3188 48.8869 77.2262 48.4102C77.1335 48.9003 77.0177 49.4104 76.9251 49.7438L76.518 51.2441H77.9343Z" fill="white"/>
<path d="M81.6208 46.6264H83.004L85.7076 51.1507C85.6844 50.7039 85.6745 50.2838 85.6745 49.9438V46.6097H87.3622V54.5314H85.969L83.2721 50.0305C83.3051 50.4872 83.3184 50.9206 83.3184 51.2741V54.5314H81.6075L81.6208 46.6264Z" fill="white"/>
<path d="M89.0168 54.5482V47.1666C89.9627 46.7648 90.9702 46.5302 91.9951 46.4731C93.6001 46.4731 94.9734 47.54 94.9734 49.4738V51.6042C94.9734 53.538 93.8449 54.5348 91.9951 54.5348L89.0168 54.5482ZM93.2625 49.6271C93.2625 48.4536 92.7496 47.9401 91.9951 47.9401C91.5631 47.9413 91.1345 48.0169 90.7277 48.1635V53.0812H91.9951C92.8919 53.0812 93.2625 52.6944 93.2625 51.4875V49.6271Z" fill="white"/>
<path d="M98.9443 46.6264H101.744C102.081 46.6128 102.417 46.6684 102.732 46.7898C103.047 46.9112 103.334 47.0959 103.575 47.3326C103.817 47.5694 104.009 47.8532 104.138 48.1668C104.267 48.4804 104.332 48.8173 104.328 49.1569C104.338 49.6205 104.21 50.0764 103.961 50.4666C103.713 50.8567 103.354 51.1633 102.932 51.3474L104.421 54.5481H102.512L101.234 51.5941H100.652V54.5481H98.9443V46.6264ZM101.664 50.2238C101.925 50.1944 102.165 50.0694 102.34 49.8726C102.515 49.6757 102.611 49.421 102.611 49.1569C102.611 48.8929 102.515 48.6381 102.34 48.4413C102.165 48.2445 101.925 48.1194 101.664 48.09H100.652V50.2238H101.664Z" fill="white"/>
<path d="M107.366 46.6265H109.352L111.711 54.5481H109.981L109.454 52.6377H107.27L106.747 54.5481H105.013L107.366 46.6265ZM109.061 51.2441L108.657 49.7438C108.551 49.3804 108.445 48.8869 108.352 48.4102C108.26 48.9003 108.144 49.4104 108.051 49.7438L107.644 51.2441H109.061Z" fill="white"/>
<path d="M112.747 54.5482V47.1666C113.693 46.7648 114.7 46.5302 115.725 46.4731C117.33 46.4731 118.703 47.54 118.703 49.4738V51.6042C118.703 53.538 117.572 54.5348 115.725 54.5348L112.747 54.5482ZM116.993 49.6271C116.993 48.4536 116.48 47.9401 115.725 47.9401C115.293 47.9413 114.865 48.0169 114.458 48.1635V53.0812H115.725C116.619 53.0812 116.993 52.6944 116.993 51.4875V49.6271Z" fill="white"/>
<path d="M120.123 46.6265H121.831V54.5481H120.123V46.6265Z" fill="white"/>
<path d="M123.27 49.7538C123.27 47.5767 124.666 46.4731 126.374 46.4731C128.082 46.4731 129.491 47.5767 129.491 49.7538V51.4208C129.491 53.6113 128.098 54.6882 126.374 54.6882C124.65 54.6882 123.27 53.6113 123.27 51.4208V49.7538ZM127.784 51.3008V49.8705C127.784 48.4436 127.188 47.9401 126.374 47.9401C125.56 47.9401 124.981 48.4436 124.981 49.8705V51.3008C124.981 52.7645 125.55 53.2346 126.374 53.2346C127.198 53.2346 127.784 52.7645 127.784 51.3008Z" fill="white"/>
<path d="M14.0375 9.64539H23.1344C28.3066 9.64539 31.5165 13.5229 31.5165 17.8604C31.5441 19.3643 31.1284 20.8426 30.322 22.1085C29.5156 23.3743 28.3548 24.3708 26.9863 24.9719L31.8177 35.3408H25.6262L21.4732 25.7688H19.587V35.3408H14.0375V9.64539ZM22.8697 21.3378C24.6434 21.3378 25.9273 19.9676 25.9273 17.8771C25.9273 15.7867 24.6434 14.4131 22.8697 14.4131H19.587V21.3378H22.8697Z" fill="white"/>
<path d="M35.4082 9.64539H40.9544V26.3155C40.9544 29.3162 42.5792 31.1066 45.0313 31.1066C47.4834 31.1066 49.1082 29.3195 49.1082 26.3155V9.64539H54.6577V26.759C54.6577 32.1601 50.2796 35.8475 45.0313 35.8475C39.7829 35.8475 35.4082 32.1601 35.4082 26.759V9.64539Z" fill="white"/>
<path d="M59.4857 29.6095C61.9411 30.523 64.2807 31.0932 66.6203 31.0932C68.5859 31.0932 69.754 29.9163 69.754 28.2026C69.754 23.6016 59.1084 24.7818 59.1084 16.3767C59.1084 11.9258 62.9206 9.14856 67.7123 9.14856C70.128 9.14856 72.5073 9.75869 74.9594 10.7456L73.5298 15.1965C71.455 14.3597 69.6415 13.9029 67.7156 13.9029C65.5646 13.9029 64.8465 15.0065 64.8465 16.3001C64.8465 20.5976 75.4922 19.2674 75.4922 28.1659C75.4922 33.3003 71.2266 35.8342 66.6203 35.8342C63.867 35.8342 61.3256 35.3041 58.4301 34.2372L59.4857 29.6095Z" fill="white"/>
<path d="M79.1919 29.6095C81.644 30.523 83.9836 31.0932 86.3265 31.0932C88.2888 31.0932 89.4602 29.9163 89.4602 28.2026C89.4602 23.6016 78.8146 24.7818 78.8146 16.3767C78.8146 11.9258 82.6268 9.14856 87.4185 9.14856C89.8342 9.14856 92.2102 9.75869 94.6656 10.7456L93.2294 15.1965C91.1545 14.3597 89.3411 13.9029 87.4185 13.9029C85.2642 13.9029 84.5494 15.0065 84.5494 16.3001C84.5494 20.5976 95.195 19.2674 95.195 28.1659C95.195 33.3003 90.9295 35.8342 86.3231 35.8342C83.5666 35.8342 81.0285 35.3041 78.1296 34.2372L79.1919 29.6095Z" fill="white"/>
<path d="M99.1594 9.64539H104.709V35.3408H99.1594V9.64539Z" fill="white"/>
<path d="M115.768 9.64539H122.185L129.849 35.3408H124.223L122.526 29.1428H115.427L113.73 35.3408H108.104L115.768 9.64539ZM121.281 24.6285L119.958 19.7608C119.627 18.5806 119.279 16.9836 118.965 15.3866C118.66 16.9836 118.283 18.5806 117.972 19.7608L116.648 24.6285H121.281Z" fill="white"/>
<defs>
<linearGradient id="paint0_linear" x1="70.9983" y1="-23.3982" x2="70.9983" y2="68.2276" gradientUnits="userSpaceOnUse">
<stop stop-color="#0085FF"/>
<stop offset="0.16" stop-color="#0076F0"/>
<stop offset="0.48" stop-color="#004DC8"/>
<stop offset="0.92" stop-color="#000C87"/>
<stop offset="1" stop-color="#00007B"/>
</linearGradient>
</defs>
</svg>