<svg viewBox="0 0 142 58" xmlns="http://www.w3.org/2000/svg"><g fill="#fff"><path d="m141 44.5v12.5h-140v-12.5zm1-1h-142v14.5h142z"/><path d="m117.5 18.6c0 1.8 1.1 3.1 2.7 3.1h3.1v-6.2h-3.1c-1.6 0-2.7 1.3-2.7 3.1z"/><path d="m40.4 15.1c-2.3 0-4 1.5-4 5.6v4.1c0 4.2 1.7 5.6 4 5.6s4.1-1.4 4.1-5.6v-4.1c0-4.1-1.7-5.6-4.1-5.6z"/><path d="m0 0v43.5h142v-43.5zm21.4 25.8h-3.2v8.3h-4.9v-22.8h8.1c4.6 0 7.5 3.5 7.5 7.3s-2.9 7.2-7.5 7.2zm28-.6c0 6.3-4 9.4-9 9.4s-9-3.1-9-9.4v-4.8c0-6.3 4-9.5 9-9.5s9 3.2 9 9.5zm12.9 5.2c1.9 0 3.8-.3 5.6-.9l.9 4.1c-2.1.7-4.3 1.1-6.5 1.1-5.3 0-9.2-3.1-9.2-9.4v-4.9c0-6.3 4-9.4 9.2-9.4 2.2 0 4.4.4 6.5 1l-.9 4.1c-1.8-.6-3.7-.9-5.6-.9-2.7 0-4.4 1.5-4.4 5.6v4.1c0 4.2 1.7 5.6 4.4 5.6zm19.1 0c1.9 0 3.8-.3 5.6-.9l.9 4.1c-2.1.7-4.3 1.1-6.5 1.1-5.3 0-9.2-3.1-9.2-9.4v-4.9c0-6.3 4-9.4 9.2-9.4 2.2 0 4.4.4 6.5 1l-.9 4.1c-1.8-.6-3.7-.9-5.6-.9-2.7 0-4.4 1.5-4.4 5.6v4.1c0 4.2 1.7 5.6 4.4 5.6zm27.5 3.8h-4.9v-9.7c0-1 0-2.3.1-3.6l-8.4 13.3h-4v-22.9h4.9v9.9 3.5l8.4-13.4h4v22.9zm19.3 0h-4.9v-8.3h-1.9l-3.6 8.3h-5.5l4.2-9.1c-2.5-1.1-4-3.7-4-6.5s2.9-7.3 7.5-7.3h8.2z"/><path d="m21.3 15.6h-3v6.2h3c1.6 0 2.6-1.2 2.6-3.1s-1-3.1-2.6-3.1z"/><path d="m14.1 47.9h-1.8v-1.4h5.2v1.4h-1.8v6h-1.6z"/><path d="m18.5 46.6h4.4v1.4h-2.8v1.7h2.3v1.3h-2.3v1.7h2.9v1.4h-4.5v-7.4z"/><path d="m23.5 52.7c1.3-.2 1.7-.8 1.7-6.2h4.8v7.4h-1.6v-6.1h-1.7c0 5.5-1.1 6.1-3.2 6.2z"/><path d="m31.5 46.6h4.4v1.4h-2.8v1.7h2.3v1.3h-2.3v1.7h2.9v1.4h-4.5v-7.4z"/><path d="m37.3 53.9v-7.4h2.4c1.6 0 2.5.9 2.5 2.1 0 .6-.3 1.2-.9 1.4.7.2 1.2.9 1.2 1.6 0 1.2-1.1 2.3-2.7 2.3zm2.3-4.4c.7 0 1-.3 1-.8s-.3-.8-.9-.8h-.8v1.6zm1.3 2.2c0 .5-.4.9-1.1.9h-.8v-1.8h.9c.7 0 1 .4 1 .9z" fill-rule="evenodd"/><path d="m49.2 53.9h-1.6v-3.1c0-.3 0-.7 0-1.2l-2.7 4.3h-1.3v-7.4h1.6v3.2 1.1l2.7-4.3h1.3z"/><path d="m51.9 46.6c0 2.2-.5 5.2-1.2 6.1h-.7v2.8l1.5-.2v-1.2h4.3v1.4l1.5-.2v-2.5h-.8v-6.1h-4.6zm3 1.3v4.7h-2.5c.4-.7.8-2.8.9-4.7z" fill-rule="evenodd"/><path d="m58.2 46.6h4.4v1.4h-2.8v1.7h2.3v1.3h-2.3v1.7h2.9v1.4h-4.5v-7.4z"/><path d="m64 46.6h1.6v3h2.3v-3h1.6v7.4h-1.6v-3.1h-2.3v3.1h-1.6z"/><path d="m76.5 53.9h-1.6v-3.1c0-.3 0-.7 0-1.2l-2.7 4.3h-1.3v-7.4h1.6v3.2 1.1l2.7-4.3h1.3z"/><path d="m78.1 46.6h4.4v1.4h-2.8v1.7h2.3v1.3h-2.3v1.7h2.9v1.4h-4.5v-7.4z"/><path d="m91.8 53.9h-1.6v-3.1c0-.3 0-.7 0-1.2l-2.7 4.3h-1.3v-7.4h1.6v3.2 1.1l2.7-4.3h1.3z"/><g fill-rule="evenodd"><path d="m98.3 46.6h-2.6v7.4h1.6v-2.7h1c.6 0 1.2-.2 1.7-.6s.7-1.1.7-1.7-.2-1.3-.7-1.7-1.1-.7-1.7-.7zm.8 2.3c0 .6-.3 1-.8 1h-1v-2h1c.5 0 .8.4.8 1z"/><path d="m105.2 46.6h-1.8l-2.2 7.4h1.6l.5-1.8h2l.5 1.8h1.6zm-.6 2.9.4 1.4h-1.3l.4-1.4c0-.3.2-.8.3-1.3 0 .5.2.9.3 1.3z"/><path d="m109.6 46.6c0 2.2-.5 5.2-1.2 6.1h-.7v2.8l1.5-.2v-1.2h4.3v1.4l1.5-.2v-2.5h-.8v-6.1h-4.6zm3 1.3v4.7h-2.5c.4-.7.8-2.8.9-4.7z"/></g><path d="m121.5 53.9h-1.6v-3.1c0-.3 0-.7 0-1.2l-2.7 4.3h-1.3v-7.4h1.6v3.2 1.1l2.7-4.3h1.3z"/><path d="m125.7 46.4c-1.6 0-2.9 1-2.9 3.1v1.6c0 2.1 1.3 3.1 2.9 3.1s2.9-1 2.9-3.1v-1.6c0-2-1.3-3.1-2.9-3.1zm1.4 3.2v1.3c0 1.4-.6 1.8-1.3 1.8s-1.3-.4-1.3-1.8v-1.3c0-1.3.5-1.8 1.3-1.8s1.3.5 1.3 1.8z" fill-rule="evenodd"/></g></svg>