<svg fill="none" height="58" viewBox="0 0 142 58" width="142" xmlns="http://www.w3.org/2000/svg" xmlns:xlink="http://www.w3.org/1999/xlink"><linearGradient id="a" gradientUnits="userSpaceOnUse" x1="-77.656" x2="-77.656" y1="-23.558" y2="68.0332"><stop offset="0" stop-color="#0085ff"/><stop offset=".16" stop-color="#0076f0"/><stop offset=".48" stop-color="#004dc8"/><stop offset=".92" stop-color="#000c87"/><stop offset="1" stop-color="#00007b"/></linearGradient><path d="m0 0h142v43.5h-142z" fill="url(#a)"/><path d="m0 43.5h142v14.5h-142z" fill="#c40000"/><g fill="#fff"><path clip-rule="evenodd" d="m21.4253 11.3422h-8.0874v22.8507h4.9337v-8.3477h3.1537c4.5968 0 7.45-3.3738 7.45-7.2133s-2.8532-7.2897-7.45-7.2897zm2.4536 7.303c0 1.8566-1.0402 3.0743-2.6154 3.0743h-2.9721v-6.1519h2.9721c1.5752 0 2.6154 1.2211 2.6154 3.0776z" fill-rule="evenodd"/><path clip-rule="evenodd" d="m40.4471 10.903c-4.9304 0-8.9559 3.1774-8.9559 9.4657v4.8343c0 6.3216 3.9892 9.4324 8.9559 9.4324s8.9923-3.1108 8.9923-9.4324v-4.8343c0-6.2883-4.0619-9.4657-8.9923-9.4657zm4.0619 9.8051v4.1223c0 4.2254-1.6875 5.5763-4.0619 5.5763s-4.0255-1.3509-4.0255-5.5763v-4.1223c0-4.1257 1.6776-5.5796 4.0255-5.5796 2.348 0 4.0619 1.4539 4.0619 5.5796z" fill-rule="evenodd"/><path d="m68.7943 33.5841c-2.1114.6983-4.3197 1.0532-6.5419 1.0513-5.2838 0-9.2465-3.0776-9.2465-9.3991v-4.9408c0-6.3215 3.9627-9.3991 9.2465-9.3991 2.2219-.0014 4.43.3524 6.5419 1.048l-.9379 4.0558c-1.8027-.573-3.6808-.8691-5.571-.8784-2.6848 0-4.3624 1.454-4.3624 5.5796v4.0957c0 4.1589 1.6776 5.6096 4.3624 5.6096 1.8947.014 3.7781-.2942 5.571-.9117z"/><path d="m87.8812 33.5841c-2.1114.6983-4.3197 1.0532-6.5419 1.0513-5.3002 0-9.2465-3.0776-9.2465-9.3991v-4.9408c0-6.3215 3.9628-9.3991 9.2465-9.3991 2.2219-.0014 4.43.3524 6.5419 1.048l-.9379 4.0558c-1.8015-.573-3.6785-.8691-5.5677-.8784-2.6848 0-4.3657 1.454-4.3657 5.5796v4.0957c0 4.1589 1.6809 5.6096 4.3657 5.6096 1.8936.0136 3.7759-.2946 5.5677-.9117z"/><path d="m108.917 34.1929h-4.934v-9.7352c0-1.0147.033-2.2624.136-3.5833l-8.3552 13.3085h-4.0255v-22.8407h4.9304v9.9049c0 .9981-.0331 2.1959-.0991 3.4835l8.3544-13.3884h3.993z"/><path clip-rule="evenodd" d="m123.276 34.1929h4.93l.007-22.8507h-8.219c-4.597 0-7.451 3.4502-7.451 7.303 0 2.7715 1.414 5.3401 3.963 6.488l-4.227 9.0597h5.485l3.633-8.3477h1.879zm0-18.6253v6.1519h-3.055c-1.578 0-2.717-1.2477-2.717-3.0743 0-1.8265 1.139-3.0776 2.717-3.0776z" fill-rule="evenodd"/><path d="m14.0511 47.9107h-1.7767v-1.3641h5.1516v1.3641h-1.7799v6.0221h-1.595z"/><path d="m18.4531 46.5599h4.3822v1.3508h-2.7872v1.6636h2.3414l-.0627 1.3109h-2.2787v1.6835h2.8863v1.3674h-4.4813z"/><path d="m23.4727 52.7217c1.2581-.2395 1.7469-.8184 1.7469-6.1618h4.7851v7.3862h-1.605v-6.0554h-1.6511c0 5.5297-1.1393 6.0554-3.1901 6.1652z"/><path d="m31.5205 46.5599h4.3789v1.3508h-2.7839v1.6636h2.3414l-.0661 1.3109h-2.2753v1.6835h2.8797v1.3674h-4.4747z"/><path clip-rule="evenodd" d="m37.2969 53.9461v-7.3862h2.3975c1.5521 0 2.5163.8617 2.5163 2.0761.0198.624-.3476 1.1946-.9213 1.4307.7165.2088 1.2051.8756 1.1921 1.6269 0 1.2477-1.1162 2.2525-2.731 2.2525zm2.2786-4.4351c.6604 0 1.0204-.3327 1.0204-.7985s-.2708-.7885-.9445-.7885h-.7595v1.587zm1.2912 2.1826c0 .5024-.4227.8851-1.1294.8851l-.8454-.01v-1.7601h.9345c.71 0 1.0403.3826 1.0403.885z" fill-rule="evenodd"/><path d="m49.1718 53.9461h-1.595v-3.1475c0-.3327 0-.7319.0429-1.1578l-2.7079 4.3053h-1.3044v-7.3862h1.595v3.2007c0 .3161 0 .7087-.033 1.1246l2.7013-4.3253h1.2912z"/><path clip-rule="evenodd" d="m51.8798 46.5599c-.0297 2.1959-.4854 5.167-1.1921 6.052h-.6506v2.7649l1.453-.2163v-1.2144h4.3195v1.4307l1.453-.2163v-2.5486h-.7595v-6.052zm3.0382 1.3308v4.7212h-2.5065c.393-.6887.7925-2.8413.9015-4.7212z" fill-rule="evenodd"/><path d="m58.2432 46.5599h4.3821v1.3508h-2.7871v1.6636h2.3446l-.066 1.3109h-2.2786v1.6835h2.8862v1.3674h-4.4812z"/><path d="m64.0225 46.5599h1.595v2.9611h2.2555v-2.9611h1.595v7.3862h-1.595v-3.0942h-2.2555v3.0942h-1.595z"/><path d="m76.5347 53.9461h-1.5917v-3.1475c0-.3327 0-.7319.0429-1.1578l-2.7013 4.3053h-1.2846v-7.3862h1.595v3.2007c0 .3161 0 .7087-.033 1.1246l2.7013-4.3253h1.2879z"/><path d="m78.0537 46.5599h4.3789v1.3508h-2.7839v1.6636h2.3414l-.0628 1.3109h-2.2786v1.6835h2.883v1.3674h-4.478z"/><path d="m91.7714 53.9461h-1.595v-3.1475c0-.3327 0-.7319.043-1.1578l-2.708 4.3053h-1.3044v-7.3862h1.5951v3.2007c0 .3161 0 .7087-.0331 1.1246l2.7013-4.3253h1.2912z"/><path clip-rule="evenodd" d="m98.284 46.5599h-2.6121v7.3862h1.5917v-2.6983h1.0204c.6316.0341 1.2489-.197 1.7052-.6383.4558-.4414.7108-1.0535.7018-1.6907.009-.6399-.244-1.2553-.6993-1.7015-.4554-.4462-1.073-.684-1.7077-.6574zm.7926 2.3489c0 .6056-.3369.9982-.8454.9982h-.9676v-1.9963h.9676c.5151 0 .8454.3926.8454.9981z" fill-rule="evenodd"/><path clip-rule="evenodd" d="m105.225 46.5599h-1.846l-2.199 7.3862h1.615l.488-1.78h2.038l.489 1.78h1.614zm-.641 2.9046.38 1.4007h-1.324l.38-1.4007c.089-.3361.195-.7952.28-1.2544.09.4592.185.9217.284 1.2544z" fill-rule="evenodd"/><path clip-rule="evenodd" d="m109.591 46.5599c-.03 2.1959-.486 5.167-1.192 6.052h-.661v2.7649l1.457-.2163v-1.2144h4.326v1.4307l1.453-.2163v-2.5486h-.76v-6.052zm3.038 1.3308v4.7212h-2.506c.393-.6887.792-2.8413.901-4.7212z" fill-rule="evenodd"/><path d="m121.526 53.9461h-1.595v-3.1475c0-.3327 0-.7319.043-1.1578l-2.698 4.3053h-1.301v-7.3862h1.588v3.2007c0 .3161 0 .7087-.03 1.1246l2.698-4.3253h1.295z"/><path clip-rule="evenodd" d="m125.743 46.4168c-1.592 0-2.896 1.0281-2.896 3.061v1.5604c0 2.0528 1.291 3.051 2.896 3.051s2.909-1.0081 2.909-3.051v-1.5604c0-2.0329-1.317-3.061-2.909-3.061zm1.308 3.1575v1.3308c0 1.3808-.552 1.8033-1.321 1.8033-.77 0-1.301-.4358-1.301-1.8033v-1.3308c0-1.3309.531-1.8 1.301-1.8.769 0 1.321.4691 1.321 1.8z" fill-rule="evenodd"/></g></svg>