<svg height="26" viewBox="0 0 73 26" width="73" xmlns="http://www.w3.org/2000/svg"><path d="m79.5808325 28.0521554c-1.3350826 1.7883842-4.4291193 1.3508971-5.6508671 1.4017677l1.6977535-6.2706493s1.039279 0 2.5228299.0316528c2.359628.0474793 2.833367 2.958408 1.4302837 4.8372288m44.2027915-2.3886572c3.96558-.5041842 7.124218 1.5249875 7.124218 1.5249875l2.092158-8.9046159c-2.958035-1.3215051-8.857105-1.6267287-11.981742-.8975834-4.78159 1.1168922-7.654624 3.3936342-9.872584 6.1971695-.0238.0305223-.048734.0553924-.073668.0836538l1.519818-6.3147371-23.2075418-.0135655-1.2047476 5.0554072s-1.542485-5.0395807-8.7041034-5.0576681c-5.6599338-.0146959-12.8578193 0-12.8578193 0l-6.6176119 24.9514639h10.5015913l1.7804878-6.7793552s3.4963749.093828 6.4260763-.0361747c2.9263014-.1300026 6.542811-1.2141116 8.5907687-4.2335643 1.6172859-2.3852659 1.6376861-5.6375929 1.6376861-5.6375929h5.0807937l-4.4959868 16.7737324h10.3417895l4.4880534-16.8212116 5.141994.02487s-1.316949 2.7244032-1.670553 5.6443757c-1.195681 9.8553308 8.562435 12.3084241 14.235969 11.6866724 2.344895-.2566139 5.455932-.9699328 5.455932-.9699328l2.102358-8.860528s-3.695844 1.3248965-6.45781 1.3848108c-2.7631.0599142-5.019593-1.2152421-4.694323-3.7632939.340004-2.6441407 2.567031-4.6891389 5.318797-5.0373198" fill="#fff" fill-rule="evenodd" transform="translate(-60 -17)"/></svg>