<?xml version="1.0" encoding="UTF-8" standalone="no"?>
<!DOCTYPE svg PUBLIC "-//W3C//DTD SVG 1.1//EN" "http://www.w3.org/Graphics/SVG/1.1/DTD/svg11.dtd">
<svg width="100%" height="100%" viewBox="0 0 497 218" version="1.1" xmlns="http://www.w3.org/2000/svg" xmlns:xlink="http://www.w3.org/1999/xlink" xml:space="preserve" xmlns:serif="http://www.serif.com/" style="fill-rule:evenodd;clip-rule:evenodd;stroke-linejoin:round;stroke-miterlimit:2;">
    <path d="M179.023,0L0,0L0,179.21L24.651,179.21L24.651,24.605L179.023,24.605L179.023,0Z" style="fill:rgb(235,18,47);fill-rule:nonzero;"/>
    <path d="M70.325,145.21L61.023,145.21L61.023,157.442L70.511,157.442C75.069,157.442 77.674,155.023 77.674,151.396L77.674,151.255C77.674,147.256 74.883,145.164 70.325,145.21" style="fill:rgb(235,18,47);fill-rule:nonzero;"/>
    <path d="M203.674,179.303L194.325,179.303L194.325,162.234L177.069,162.234L177.069,179.303L167.674,179.303L167.674,136.744L177.023,136.744L177.023,153.582L194.279,153.582L194.279,136.744L203.628,136.744L203.628,179.303L203.674,179.303ZM157.721,176.559C154.791,178.791 151.023,179.862 146.419,179.862C141.303,179.862 137.21,178.653 134.047,176.28C130.884,173.909 129.303,170.094 129.256,165.815L138.233,165.815C138.419,169.675 141.768,172.28 146.419,172.28C150.558,172.28 153.163,170.699 153.163,167.35C153.163,164.327 150.698,163.118 144.326,161.536C140.652,160.606 138.791,160.048 136,158.745C132.233,156.886 130.372,154.187 130.14,149.211C130.047,145.723 131.489,142.327 134.094,139.955C136.745,137.443 140.512,136.234 145.396,136.234C150.094,136.234 153.861,137.397 156.745,139.722C159.628,142.047 161.163,145.21 161.256,149.256L152.233,149.256C152.186,145.629 149.675,143.815 145.582,143.815C141.628,143.815 139.21,145.909 139.21,148.931C139.21,150.466 139.768,151.582 140.978,152.327C142.187,153.071 144.373,153.723 147.582,154.467C152.512,155.723 156.186,157.257 158.512,159.025C160.838,160.793 162.14,163.398 162.14,166.886C162.186,171.117 160.697,174.373 157.721,176.559M126.233,145.396L113.256,145.396L113.256,179.302L103.907,179.302L103.907,145.349L90.93,145.349L90.93,136.698L126.185,136.698L126.185,145.396L126.233,145.396ZM77.535,179.35L68.419,165.675L61.07,165.675L61.07,179.303L51.721,179.303L51.721,136.744L71.163,136.744C76.558,136.744 80.791,138.279 83.581,141.07C85.953,143.442 87.255,146.791 87.255,150.791L87.255,150.931C87.255,157.815 83.534,162.094 78.139,164.141L88.557,179.35L77.535,179.35ZM38.139,217.07L217.162,217.07L217.162,38.047L38.186,38.047L38.139,217.07Z" style="fill:rgb(235,18,47);fill-rule:nonzero;"/>
    <path d="M252.186,86.559C254.837,86.559 256.511,85.164 256.511,83.071L256.511,83.025C256.511,80.793 254.884,79.537 252.186,79.537L246.837,79.537L246.837,86.607L252.186,86.607L252.186,86.559ZM243.116,76.14L252.465,76.14C255.116,76.14 257.163,76.931 258.511,78.233C259.675,79.442 260.279,81.07 260.233,82.744L260.233,82.791C260.233,86.233 258.14,88.326 255.255,89.163L260.93,97.116L256.558,97.116L251.396,89.814L246.791,89.814L246.791,97.116L243.117,97.116L243.117,76.14L243.116,76.14Z" style="fill:white;fill-rule:nonzero;"/>
    <path d="M283.488,88.791L279.86,80.419L276.278,88.791L283.488,88.791ZM278.233,76L281.629,76L290.837,97.117L286.93,97.117L284.79,92.047L274.884,92.047L272.744,97.117L268.976,97.117L278.233,76Z" style="fill:white;fill-rule:nonzero;"/>
    <path d="M304.14,79.489L304.14,93.768L308.279,93.768C312.698,93.768 315.582,90.791 315.582,86.698L315.582,86.652C315.582,82.559 312.698,79.536 308.279,79.536L304.14,79.489ZM300.465,76.14L308.278,76.14C314.883,76.14 319.441,80.652 319.441,86.558L319.441,86.605C319.441,92.512 314.883,97.116 308.278,97.116L300.465,97.116L300.465,76.14Z" style="fill:white;fill-rule:nonzero;"/>
    <rect x="330.093" y="76.14" width="3.675" height="20.977" style="fill:white;"/>
    <path d="M362.512,86.698L362.512,86.652C362.512,82.559 359.534,79.21 355.396,79.21C351.256,79.21 348.326,82.559 348.326,86.606L348.326,86.652C348.326,90.745 351.303,94.094 355.442,94.094C359.581,94.094 362.512,90.791 362.512,86.698M344.465,86.698L344.465,86.652C344.465,80.745 349.023,75.815 355.442,75.815C361.861,75.815 366.373,80.699 366.373,86.606L366.373,86.652C366.373,92.559 361.814,97.489 355.35,97.489C348.886,97.489 344.465,92.605 344.465,86.698" style="fill:white;fill-rule:nonzero;"/>
    <path d="M248.279,121.023L241.628,121.023L241.628,117.582L258.605,117.582L258.605,121.023L251.999,121.023L251.999,138.559L248.279,138.559L248.279,121.023Z" style="fill:white;fill-rule:nonzero;"/>
    <path d="M268.511,117.582L284.093,117.582L284.093,120.885L272.233,120.885L272.233,126.326L282.744,126.326L282.744,129.629L272.233,129.629L272.233,135.256L284.233,135.256L284.233,138.559L268.511,138.559L268.511,117.582Z" style="fill:white;fill-rule:nonzero;"/>
    <path d="M294.605,117.582L298.278,117.582L298.278,135.21L309.302,135.21L309.302,138.559L294.605,138.559L294.605,117.582Z" style="fill:white;fill-rule:nonzero;"/>
    <path d="M319.162,117.582L334.697,117.582L334.697,120.885L322.837,120.885L322.837,126.326L333.349,126.326L333.349,129.629L322.837,129.629L322.837,135.256L334.884,135.256L334.884,138.559L319.162,138.559L319.162,117.582Z" style="fill:white;fill-rule:nonzero;"/>
    <path d="M343.441,117.582L347.534,117.582L353.86,133.722L360.14,117.582L364.14,117.582L355.441,138.744L352.14,138.744L343.441,117.582Z" style="fill:white;fill-rule:nonzero;"/>
    <rect x="373.906" y="117.582" width="3.675" height="20.977" style="fill:white;"/>
    <path d="M388.465,135.861L400.837,120.838L388.837,120.838L388.837,117.582L405.674,117.582L405.674,120.326L393.256,135.303L405.674,135.303L405.674,138.559L388.465,138.559L388.465,135.861Z" style="fill:white;fill-rule:nonzero;"/>
    <rect x="416.465" y="117.582" width="3.675" height="20.977" style="fill:white;"/>
    <path d="M448.884,128.141L448.884,128.094C448.884,124 445.906,120.653 441.768,120.653C437.628,120.653 434.698,124.001 434.698,128.048L434.698,128.095C434.698,132.188 437.675,135.536 441.814,135.536C446,135.535 448.884,132.233 448.884,128.141M430.837,128.186L430.837,128.14C430.837,122.233 435.396,117.302 441.86,117.302C448.324,117.302 452.79,122.186 452.79,128.093L452.79,128.14C452.837,134.093 448.093,138.93 442.14,138.977L441.814,138.977C435.302,138.978 430.837,134.094 430.837,128.186" style="fill:white;fill-rule:nonzero;"/>
    <path d="M463.209,117.582L466.651,117.582L477.86,132.094L477.86,117.582L481.534,117.582L481.534,138.559L478.418,138.559L466.837,123.629L466.837,138.559L463.209,138.559L463.209,117.582Z" style="fill:white;fill-rule:nonzero;"/>
    <rect x="493.116" y="117.582" width="3.674" height="20.977" style="fill:white;"/>
    <path d="M241.721,176.931L243.953,174.28C245.953,176.001 247.999,177.024 250.557,177.024C252.836,177.024 254.278,175.955 254.278,174.374L254.278,174.327C254.278,172.839 253.441,172.001 249.534,171.118C245.069,170.048 242.557,168.699 242.557,164.839L242.557,164.792C242.557,161.211 245.534,158.699 249.72,158.699C252.51,158.653 255.208,159.583 257.348,161.35L255.348,164.141C253.488,162.745 251.58,162 249.674,162C247.534,162 246.278,163.117 246.278,164.512L246.278,164.559C246.278,166.187 247.208,166.885 251.254,167.862C255.674,168.931 257.952,170.559 257.952,174.001L257.952,174.048C257.952,177.955 254.883,180.327 250.464,180.327C247.209,180.326 244.093,179.117 241.721,176.931" style="fill:white;fill-rule:nonzero;"/>
    <path d="M268.278,159.023L271.953,159.023L271.953,167.768L281.999,167.768L281.999,159.023L285.675,159.023L285.675,180L281.999,180L281.999,171.164L271.953,171.164L271.953,180L268.278,180L268.278,159.023Z" style="fill:white;fill-rule:nonzero;"/>
    <path d="M310.744,176L307.116,172.931L309.488,170.234L313.162,173.583C313.86,172.374 314.185,170.979 314.14,169.583L314.14,169.536C314.14,165.443 311.162,162.095 307.023,162.095C302.884,162.095 299.954,165.398 299.954,169.491L299.954,169.537C299.954,173.631 302.931,176.979 307.07,176.979C308.372,176.978 309.628,176.652 310.744,176M315.953,180.652L313.441,178.42C311.581,179.722 309.348,180.42 307.069,180.42C300.651,180.42 296.139,175.535 296.139,169.629L296.139,169.582C296.139,163.675 300.697,158.744 307.116,158.744C313.534,158.744 318.046,163.629 318.046,169.535L318.046,169.582C318.046,171.908 317.302,174.141 315.953,176L318.372,178.047L315.953,180.652Z" style="fill:white;fill-rule:nonzero;"/>
    <rect x="328.744" y="159.023" width="3.674" height="20.977" style="fill:white;"/>
    <path d="M352,169.954C354.79,169.954 356.512,168.373 356.512,166.233L356.512,166.186C356.512,163.721 354.744,162.419 352,162.419L347.721,162.419L347.721,169.953L352,169.953L352,169.954ZM344.045,159.023L352.325,159.023C357.256,159.023 360.278,161.814 360.278,166.046L360.278,166.093C360.278,170.79 356.511,173.255 351.906,173.255L347.72,173.255L347.72,179.999L344.045,179.999L344.045,159.023Z" style="fill:white;fill-rule:nonzero;"/>
    <path d="M375.209,162.466L368.558,162.466L368.558,159.023L385.581,159.023L385.581,162.466L378.93,162.466L378.93,180L375.209,180L375.209,162.466Z" style="fill:white;fill-rule:nonzero;"/>
    <path d="M405.488,171.675L401.86,163.303L398.278,171.675L405.488,171.675ZM400.233,158.885L403.629,158.885L412.837,180L408.93,180L406.79,174.931L396.837,174.931L394.697,180L390.929,180L400.233,158.885Z" style="fill:white;fill-rule:nonzero;"/>
    <path d="M431.534,169.442C434.185,169.442 435.86,168.046 435.86,165.954L435.86,165.908C435.86,163.675 434.232,162.42 431.534,162.42L426.185,162.42L426.185,169.442L431.534,169.442ZM422.465,159.023L431.814,159.023C434.465,159.023 436.512,159.814 437.861,161.117C439.023,162.326 439.629,163.954 439.582,165.629L439.582,165.675C439.582,169.117 437.489,171.21 434.605,172L440.279,179.954L435.907,179.954L430.745,172.698L426.141,172.698L426.141,180L422.466,180L422.466,159.023L422.465,159.023Z" style="fill:white;fill-rule:nonzero;"/>
</svg>