<svg clip-rule="evenodd" fill-rule="evenodd" stroke-linejoin="round" stroke-miterlimit="2" viewBox="0 0 497 218" xmlns="http://www.w3.org/2000/svg"><path d="m179.023 0h-179.023v179.21h24.651v-154.605h154.372z" fill="#ffffff" fill-rule="nonzero"/><path d="m70.325 145.21h-9.302v12.232h9.488c4.558 0 7.163-2.419 7.163-6.046v-.141c0-3.999-2.791-6.091-7.349-6.045" fill="#ffffff" fill-rule="nonzero"/><path d="m203.674 179.303h-9.349v-17.069h-17.256v17.069h-9.395v-42.559h9.349v16.838h17.256v-16.838h9.349v42.559zm-45.953-2.744c-2.93 2.232-6.698 3.303-11.302 3.303-5.116 0-9.209-1.209-12.372-3.582-3.163-2.371-4.744-6.186-4.791-10.465h8.977c.186 3.86 3.535 6.465 8.186 6.465 4.139 0 6.744-1.581 6.744-4.93 0-3.023-2.465-4.232-8.837-5.814-3.674-.93-5.535-1.488-8.326-2.791-3.767-1.859-5.628-4.558-5.86-9.534-.093-3.488 1.349-6.884 3.954-9.256 2.651-2.512 6.418-3.721 11.302-3.721 4.698 0 8.465 1.163 11.349 3.488 2.883 2.325 4.418 5.488 4.511 9.534h-9.023c-.047-3.627-2.558-5.441-6.651-5.441-3.954 0-6.372 2.094-6.372 5.116 0 1.535.558 2.651 1.768 3.396 1.209.744 3.395 1.396 6.604 2.14 4.93 1.256 8.604 2.79 10.93 4.558s3.628 4.373 3.628 7.861c.046 4.231-1.443 7.487-4.419 9.673m-31.488-31.163h-12.977v33.906h-9.349v-33.953h-12.977v-8.651h35.255v8.698zm-48.698 33.954-9.116-13.675h-7.349v13.628h-9.349v-42.559h19.442c5.395 0 9.628 1.535 12.418 4.326 2.372 2.372 3.674 5.721 3.674 9.721v.14c0 6.884-3.721 11.163-9.116 13.21l10.418 15.209zm-39.396 37.72h179.023v-179.023h-178.976z" fill="#ffffff" fill-rule="nonzero"/><g fill="#fff"><path d="m252.186 86.559c2.651 0 4.325-1.395 4.325-3.488v-.046c0-2.232-1.627-3.488-4.325-3.488h-5.349v7.07h5.349zm-9.07-10.419h9.349c2.651 0 4.698.791 6.046 2.093 1.164 1.209 1.768 2.837 1.722 4.511v.047c0 3.442-2.093 5.535-4.978 6.372l5.675 7.953h-4.372l-5.162-7.302h-4.605v7.302h-3.674v-20.976z" fill-rule="nonzero"/><path d="m283.488 88.791-3.628-8.372-3.582 8.372zm-5.255-12.791h3.396l9.208 21.117h-3.907l-2.14-5.07h-9.906l-2.14 5.07h-3.768z" fill-rule="nonzero"/><path d="m304.14 79.489v14.279h4.139c4.419 0 7.303-2.977 7.303-7.07v-.046c0-4.093-2.884-7.116-7.303-7.116zm-3.675-3.349h7.813c6.605 0 11.163 4.512 11.163 10.418v.047c0 5.907-4.558 10.511-11.163 10.511h-7.813z" fill-rule="nonzero"/><path d="m330.093 76.14h3.675v20.977h-3.675z"/><path d="m362.512 86.698v-.046c0-4.093-2.978-7.442-7.116-7.442-4.14 0-7.07 3.349-7.07 7.396v.046c0 4.093 2.977 7.442 7.116 7.442s7.07-3.303 7.07-7.396m-18.047 0v-.046c0-5.907 4.558-10.837 10.977-10.837s10.931 4.884 10.931 10.791v.046c0 5.907-4.559 10.837-11.023 10.837s-10.885-4.884-10.885-10.791" fill-rule="nonzero"/><path d="m248.279 121.023h-6.651v-3.441h16.977v3.441h-6.606v17.536h-3.72z" fill-rule="nonzero"/><path d="m268.511 117.582h15.582v3.303h-11.86v5.441h10.511v3.303h-10.511v5.627h12v3.303h-15.722z" fill-rule="nonzero"/><path d="m294.605 117.582h3.673v17.628h11.024v3.349h-14.697z" fill-rule="nonzero"/><path d="m319.162 117.582h15.535v3.303h-11.86v5.441h10.512v3.303h-10.512v5.627h12.047v3.303h-15.722z" fill-rule="nonzero"/><path d="m343.441 117.582h4.093l6.326 16.14 6.28-16.14h4l-8.699 21.162h-3.301z" fill-rule="nonzero"/><path d="m373.906 117.582h3.675v20.977h-3.675z"/><path d="m388.465 135.861 12.372-15.023h-12v-3.256h16.837v2.744l-12.418 14.977h12.418v3.256h-17.209z" fill-rule="nonzero"/><path d="m416.465 117.582h3.675v20.977h-3.675z"/><path d="m448.884 128.141v-.047c0-4.094-2.978-7.441-7.116-7.441-4.14 0-7.07 3.348-7.07 7.395v.047c0 4.093 2.977 7.441 7.116 7.441 4.186-.001 7.07-3.303 7.07-7.395m-18.047.045v-.046c0-5.907 4.559-10.838 11.023-10.838s10.93 4.884 10.93 10.791v.047c.047 5.953-4.697 10.79-10.65 10.837h-.326c-6.512.001-10.977-4.883-10.977-10.791" fill-rule="nonzero"/><path d="m463.209 117.582h3.442l11.209 14.512v-14.512h3.674v20.977h-3.116l-11.581-14.93v14.93h-3.628z" fill-rule="nonzero"/><path d="m493.116 117.582h3.674v20.977h-3.674z"/><path d="m241.721 176.931 2.232-2.651c2 1.721 4.046 2.744 6.604 2.744 2.279 0 3.721-1.069 3.721-2.65v-.047c0-1.488-.837-2.326-4.744-3.209-4.465-1.07-6.977-2.419-6.977-6.279v-.047c0-3.581 2.977-6.093 7.163-6.093 2.79-.046 5.488.884 7.628 2.651l-2 2.791c-1.86-1.396-3.768-2.141-5.674-2.141-2.14 0-3.396 1.117-3.396 2.512v.047c0 1.628.93 2.326 4.976 3.303 4.42 1.069 6.698 2.697 6.698 6.139v.047c0 3.907-3.069 6.279-7.488 6.279-3.255-.001-6.371-1.21-8.743-3.396" fill-rule="nonzero"/><path d="m268.278 159.023h3.675v8.745h10.046v-8.745h3.676v20.977h-3.676v-8.836h-10.046v8.836h-3.675z" fill-rule="nonzero"/><path d="m310.744 176-3.628-3.069 2.372-2.697 3.674 3.349c.698-1.209 1.023-2.604.978-4v-.047c0-4.093-2.978-7.441-7.117-7.441s-7.069 3.303-7.069 7.396v.046c0 4.094 2.977 7.442 7.116 7.442 1.302-.001 2.558-.327 3.674-.979m5.209 4.652-2.512-2.232c-1.86 1.302-4.093 2-6.372 2-6.418 0-10.93-4.885-10.93-10.791v-.047c0-5.907 4.558-10.838 10.977-10.838 6.418 0 10.93 4.885 10.93 10.791v.047c0 2.326-.744 4.559-2.093 6.418l2.419 2.047z" fill-rule="nonzero"/><path d="m328.744 159.023h3.674v20.977h-3.674z"/><path d="m352 169.954c2.79 0 4.512-1.581 4.512-3.721v-.047c0-2.465-1.768-3.767-4.512-3.767h-4.279v7.534h4.279zm-7.955-10.931h8.28c4.931 0 7.953 2.791 7.953 7.023v.047c0 4.697-3.767 7.162-8.372 7.162h-4.186v6.744h-3.675z" fill-rule="nonzero"/><path d="m375.209 162.466h-6.651v-3.443h17.023v3.443h-6.651v17.534h-3.721z" fill-rule="nonzero"/><path d="m405.488 171.675-3.628-8.372-3.582 8.372zm-5.255-12.79h3.396l9.208 21.115h-3.907l-2.14-5.069h-9.953l-2.14 5.069h-3.768z" fill-rule="nonzero"/><path d="m431.534 169.442c2.651 0 4.326-1.396 4.326-3.488v-.046c0-2.233-1.628-3.488-4.326-3.488h-5.349v7.022zm-9.069-10.419h9.349c2.651 0 4.698.791 6.047 2.094 1.162 1.209 1.768 2.837 1.721 4.512v.046c0 3.442-2.093 5.535-4.977 6.325l5.674 7.954h-4.372l-5.162-7.256h-4.604v7.302h-3.675v-20.977z" fill-rule="nonzero"/></g></svg>
