<svg viewBox="0 0 500 178.9" xmlns="http://www.w3.org/2000/svg"><g fill="#fff"><g fill-rule="evenodd"><path d="m63 106.5 90.4-15.8-31.5 86.2z"/><path d="m1.9 33.5 90.4-15.8-31.5 86.2z"/><path d="m94.1 18.4 58.9 70.4-90.3 15.8z" fill-opacity=".7"/></g><path d="m214.3 38.7v101.5h11v-42.9h23.9 2.2l18.4 42.9h12.9l-20.7-44.9c1-.4 2-.8 3-1.2 4.5-2.1 7.9-5.2 10.3-9.1 2.4-4 3.7-8.7 3.7-14v-6.2c0-5.3-1.2-9.9-3.7-13.8-2.4-4-5.8-7-10.3-9.1s-9.7-3.1-15.8-3.1h-34.8zm246.1 0-26.4 101.4h18.7l3.4-15.8h21.8l3.4 15.8h18.7l-26.4-101.4zm-172 .1v9.3h27.2v92.1h11v-92.1h27.2v-9.3zm73 0 30 101.4h12.6l30-101.4h-11.6l-24.7 88.6-24.7-88.6zm-136.1 9.3h24.6c3.8 0 7 .7 9.7 2.2 2.7 1.4 4.8 3.4 6.3 6s2.2 5.7 2.2 9.3v5.4c0 3.4-.8 6.5-2.3 9.1s-3.6 4.5-6.3 5.9c-2.7 1.3-5.9 2-9.6 2h-24.6zm241.7 25.6 7.4 34.5h-14.9l7.4-34.5z"/><path d="m95.7 17.1 90.4-15.8-31.5 86.2z" fill-rule="evenodd"/></g></svg>