<svg clip-rule="evenodd" fill-rule="evenodd" stroke-linejoin="round" stroke-miterlimit="2" viewBox="0 0 829 501" xmlns="http://www.w3.org/2000/svg"><g fill="#fff" transform="translate(245.833 -24.6)"><path d="m205.4 214-61.2-83.1v-.6c16.2-2 29-7.2 38.3-15.7 9.3-8.4 14-19 14.3-32 0-17.7-6.9-31.7-20.7-42-13.9-10.4-35.1-15.7-63.8-16-12 0-24 1-35.9 3-11.1 2-20.7 4.6-28.8 7.7v178.7h47.2v-83.9h.5l55.6 83.9zm-56.1-129.5c0 11.6-3.4 20.7-10.1 27.2-6.7 6.6-17.1 9.9-30.9 10-2.7 0-5.2-.1-7.6-.3-2-.2-4-.6-5.9-1v-68.2c2-.9 4.5-1.6 7.5-2.3 2.9-.6 6.3-.9 10.1-1 13.1 0 22.6 2.9 28.4 8.8s8.6 14.9 8.5 26.8zm220.3-30.3v-27.7h-132.4v27.7h42.4v157.8h47.7v-157.8zm206.8-25.8h-46.7l-33.4 110.6c-1.5 5.2-2.8 10.6-3.8 16-.9 4.8-1.4 7.4-1.4 7.7h-.6c0-.3-.5-2.9-1.3-7.8-1-5.4-2.3-10.7-3.8-15.9l-32.5-110.6h-51.5l67.7 185.6h40.4zm-397 434.1c-.4-15-4.6-26.2-12.6-33.7s-17.4-13.3-27.7-17.1c-9.5-3.4-18.7-7.5-27.7-12.1-8-4.2-12.2-10.5-12.6-18.9.1-7.1 2.9-12.8 8.4-17s12.8-6.4 22.1-6.5c6.4.1 12.9.9 19.1 2.7 5.9 1.7 10.8 3.6 14.6 5.7l10.8-26.5c-5-2.8-11.9-5.2-20.6-7.4-8.7-2.1-18.9-3.3-30.7-3.4-21.8.5-38.9 6.1-51.5 17-12.5 10.9-18.9 24.5-19.2 40.7.4 13.8 4.4 24.2 12 31.3 7.7 7.1 16.7 12.8 26.6 16.6 10 3.9 18.8 8.1 26.5 12.4 7.6 4.4 11.7 10.7 12 19-.2 7.4-3.2 13.2-9.1 17.6s-13.9 6.6-23.9 6.7c-7.2-.1-14.3-1-21.3-2.8-6.7-1.7-12-3.7-15.8-5.8l-11.6 29.7c6 3.1 14 5.7 23.9 7.7s21.4 3 34.4 3.1c22-.4 39.8-6 53.2-17 13.5-10.9 20.4-24.9 20.7-42zm186.6 55.3v-27.8h-61v-157.8h-47.7v185.5h108.7zm216.5-92.8c.1-17.7-2.9-33.8-9-48.3s-15.5-26.1-28.3-34.8-29.3-13.2-49.5-13.4c-20.2.2-36.7 4.7-49.5 13.4-12.8 8.6-22.6 20.7-28.5 34.8-6.1 14.5-9.1 30.7-9.1 48.3-.1 17.7 3 33.9 9.1 48.4 5.9 14.2 15.7 26.3 28.5 34.8 12.9 8.7 29.4 13.1 49.5 13.4 20.2-.2 36.7-4.7 49.5-13.4s22.3-20.3 28.3-34.8 9-30.6 9-48.4zm-49.3-1.3c.1 10.7-.9 21.3-3.1 31.8-2.1 10.1-5.9 18.5-11.4 25s-13.1 9.9-23 10.2c-10-.3-17.8-3.6-23.3-10.2s-9.4-14.9-11.6-25c-2.2-10.4-3.3-21.1-3.1-31.8-.1-11.1 1-21.8 3.3-31.9 2.3-10.2 6.2-18.6 11.8-25.1 5.5-6.5 13.2-9.9 22.9-10.2 9.6.3 17.2 3.6 22.7 10.2s9.3 15 11.5 25.1c2.3 10.1 3.4 20.8 3.3 31.9zm-753.8-319.2c-2.9-10.8-2-21.5-18.5-30.3-10.7-4.9-8.8-36.1 6.8-41 11.7 0 14.6-7.8 21.4-5.9 9.8 1.9 18.5 7.8 28.3 15.6 1.9 3.9-6.8 8.8-4.8 13.6.9 4.9 5.9 6.8 8.8 12.7l-4.9 1c1.9 1.9 1 2.9 1.9 5.9l49.8-3.9-6.8 10.7c-3.9 1.9-9.8 0-12.7-2.9l-32.2 2.9c0 4.9 0 8.8-2.9 10.7-3.9 2.9-15.6-6.8-9.8 2.9l7.8 15.6c-1 2 6.8 6.9-5.9 1-7.8-5.6-17.5-12.5-26.3-8.6z"/><path d="m-78.1 63.6c-8.8 1.9-17.6 4.9-24.4 4.9-7.8-2.9-15.6-2.9-20.5-1-4.9 1-9.8 11.7-21.5 27.3-2.9 5.9-8.8 11.7-13.7 18.6-5.8 11.7-11.7 10.7-19.5 9.8-17.6-2.9-26.3-17.6-35.1-16.6-10.7-3.9-19.5 5.9-21.5 15.6-2.9 12.7-.9 22.4 2.9 32.2 49.8 59.5 24.4 74.2 25.4 77.1-7.8 19.6-2.9 35.1 6.9 48.8 5.9 28.3 13.6 56.6 22.4 84.9-4.9 37.1 0 66.4 8.8 90.7 5.9 17.6 9.8 39.1 6.8 53.7 0 8.8 4.9 13.7 15.6 12.7 11.7-5.9 33.1 4.9 48.8 1.9 1.9 0 1-2.9-1-3.9-14.6 0-23.4-12.7-36.1-15.6-7.8-3.9-10.8-20.5-9.8-36.1 1-31.2-1-61.5-3.9-92.7 5.9-7.8 5.9-16.6 0-26.3 2.9-30.2 2-60.5-1.9-91.7 3.9-5.9 5.9 6.9 9.8 3.9-.1-10.3-2.8-20.4-7.8-29.3 9.8-38-9.7-58.5-14.6-81.9-18.5-1-29.3-3.9-36.1-7.8 7.8 2 17.6 3.9 29.3 3.9 12.7 1 19.5-6.8 24.4-19.6 4.9-17.6 11.7-33.1 21.4-46.8 4.9-6.8 13.7-9.7 23.4-9.7l20.5 1.9z"/><path d="m-125 87.9c-8.8 14.7-3.9 40-.9 57.6-5.9-3.9-12.7-5.9-20.5-6.9-.9 3.9-6.8 7.8-12.6 9.8 6.8 7.8 18.5 13.7 35.1 17.6 9.8 0 15.6-2.9 17.6-11.7 1-9.7-18.5-40-14.6-73.2-.2-1-2.1 2.9-4.1 6.8zm2.9-24.3c-11.7-7.8-20.5 0-19.5 6.8 3.9 0 8.8-.9 11.7-.9 1-3 4-5 7.8-5.9zm-79 218.6c4.9 25.4 11.7 55.6 20.5 81 1 8.8-2.9 15.6-10.7 22.4-4.9 34.2-12.7 66.4-22.5 98.6-5.9 11.7 1 23.4 5.9 24.4 7.8 1.9 12.7 3.9 19.5 8.8 2.9.9 8.8 2.9 12.7 3.9 1 1 2 2.9 1 2.9-14.6-1.9-35.1 2-45.8-2.9-13.7 4.9-21.5 1-18.5-6.8 2.9-4.9 4.8-10.8 7.8-15.6-2.9-28.3-4.8-86.9 14.6-118.1 12.6-46.9 9.6-102.6 15.5-98.6z"/></g></svg>