<svg fill="none" height="43" viewBox="0 0 139 43" width="139" xmlns="http://www.w3.org/2000/svg"><g fill="#fff"><path d="m26.4791 21.1686 1.7409-.1843c4.6697-.4915 9.3072-1.4834 13.772-2.9522l.0381-.0117-.0059-.038c-.2428-1.618-.6729-3.2038-1.2815-4.7194l-.0234-.0586-.0468.0381c-3.7247 2.9844-7.9701 5.0325-12.6164 6.0916l-1.6765.3804 1.6268-.5588c4.6375-1.5917 8.605-4.7809 11.168-8.9795l.0176-.0234-.0176-.0234c-.9128-1.49809-2.0188-2.88495-3.2828-4.11967l-.0673-.06437-.0117.0907c-.8602 7.44344-7.1654 13.05524-14.6644 13.05524-3.7627 0-7.3498-1.4161-10.0943-3.9909-2.55718-2.3963-4.18104-5.62352-4.57603-9.09359l-.0117-.09071-.0673.06437c-1.26397 1.23472-2.3758 2.61865-3.29453 4.11963l-.01462.0263.01462.0234c2.63329 4.3362 6.73828 7.578 11.55136 9.1317l1.6385.5266-1.6824-.3482c-4.81307-1.0035-9.2048-3.0633-13.06109-6.1209l-.04974-.0409-.02341.0585c-.582245 1.4775-.997718 3.0224-1.237639 4.5936l-.005852.038.038037.0117c4.494134 1.4835 9.160894 2.4899 13.868594 2.9844l1.7438.1843h-15.8845v.0439c.0087776 2.2442.368659 4.4561 1.07087 6.5715l.01755.0556.04682-.0322c3.97918-2.4401 8.31531-4.1196 12.88556-4.9798l1.1381-.2165-1.0884.3921c-4.58484 1.6502-8.4938 4.8686-10.99834 9.0702l-.0117.0234.0117.0234c.93628 1.5331 2.06859 2.9492 3.36475 4.2044l.07022.0673.00878-.0936c.73731-7.5955 7.05719-13.3215 14.69369-13.3215 3.7656 0 7.3498 1.4191 10.0943 3.9909 2.5806 2.4168 4.2073 5.6791 4.5848 9.1814l.0117.0936.0644-.0644c1.2727-1.2551 2.3816-2.6654 3.3003-4.1956l.0117-.0234-.0146-.0264c-2.4928-4.0991-6.3403-7.2591-10.8345-8.8946l-1.0884-.3979 1.1352.2223c4.4912.8632 8.7484 2.5133 12.6603 4.9038l.0468.0292.0175-.0556c.6905-2.1007 1.0446-4.2951 1.0504-6.5246v-.0439l-15.7763.0058zm-5.3514-19.57693c4.2454 0 7.7009 3.45545 7.7009 7.70088 0 4.24545-3.4526 7.70085-7.7009 7.70085-4.2484 0-7.7009-3.4554-7.7009-7.70085 0-4.24543 3.4555-7.70088 7.7009-7.70088zm0 16.57213c6.2087 0 11.2587-5.0501 11.2587-11.25875 0-1.41027-.2633-2.79713-.7812-4.11377l-.0058-.01463-.0117-.00878c-3.1746-1.811111-6.788-2.76787-10.46-2.76787s-7.2854.956759-10.4571 2.76494l-.0117.00878-.0087.01463c-.5179 1.31957-.78125 2.7035-.78125 4.11377 0 6.20868 5.05005 11.25878 11.25585 11.25878m.0029 22.4882c-4.2454 0-7.7009-3.4555-7.7009-7.7009s3.4555-7.7038 7.7009-7.7038 7.7009 3.4584 7.7009 7.7038-3.4526 7.7009-7.7009 7.7009zm0-16.5721c-6.2087 0-11.25582 5.0471-11.25582 11.2558 0 1.4219.26622 2.8117.79002 4.1342l.0058.0176.0146.0088c.1405.0819.2956.1726.4711.2691 3.0458 1.6356 6.4954 2.5017 9.9772 2.5017 3.6661 0 7.2766-.9539 10.4454-2.7591l.0146-.0088.0058-.0146c.5238-1.3255.7929-2.7182.7929-4.146 0-6.2087-5.05-11.2558-11.2587-11.2558"/><path d="m138.033 8.11003h-6.779l-4.801 20.60107-4.948-20.60107h-6.852l7.697 25.75057h8.099l7.587-25.75057zm-30.534-7.727218h-7.587l-3.7744 5.775658h4.6554zm2.197 7.727218h-6.451v15.96647c0 3.3852-1.358 5.1144-4.5092 5.1144s-4.5088-1.5829-4.5088-5.1144v-15.96647h-6.4866v16.00157c0 5.8868 3.2623 10.4102 10.9574 10.4102 7.6952 0 10.9952-4.4502 10.9952-10.4102v-16.00157zm-37.571 5.14957c2.3466 0 3.6661.9918 3.6661 3.0897 0 2.4284-1.577 3.236-3.8475 3.236h-3.7743v-6.3257h3.9587zm-10.4453-5.14957v25.75057h6.4866v-9.3803h2.8235l5.3514 9.3803h7.6599l-6.6709-10.4483c3.3706-1.3254 5.1319-3.7158 5.1319-7.2093 0-4.6726-3.116-8.09297-10.6297-8.09297z"/></g></svg>