<svg viewBox="0 0 48 23" xmlns="http://www.w3.org/2000/svg"><path d="m28.252 12.923h4.029c1.385 0 2.187.73 2.187 2.005 0 1.313-.802 2.06-2.187 2.06h-4.029zm-2.278 5.924h5.979c3.372 0 4.794-1.586 4.794-3.627 0-1.768-.857-3.008-2.443-3.354v-.036c1.185-.51 1.86-1.459 1.86-2.77 0-2.17-1.532-3.227-3.865-3.227h-6.325zm2.278-11.155h3.72c1.238 0 1.913.474 1.913 1.786 0 1.167-.82 1.805-1.914 1.805h-3.719zm-13.796 6.817c.055 3.226 2.46 4.648 5.432 4.648 2.588 0 5.176-1.166 5.176-4.083 0-1.349-.82-2.807-2.533-3.317-.675-.2-3.555-.948-3.755-1.003-.93-.255-1.55-.765-1.55-1.677 0-1.312 1.331-1.695 2.388-1.695 1.568 0 2.698.62 2.807 2.297h2.279c0-2.716-2.279-4.156-4.995-4.156-2.351 0-4.757 1.221-4.757 3.828 0 1.348.656 2.697 2.88 3.299 1.786.492 2.97.729 3.882 1.075.529.2 1.076.602 1.076 1.604 0 .985-.748 1.969-2.753 1.969-1.822 0-3.299-.784-3.299-2.789zm22.888 0c.055 3.226 2.46 4.648 5.431 4.648 2.589 0 5.177-1.166 5.177-4.083 0-1.349-.82-2.807-2.533-3.317-.675-.2-3.555-.948-3.756-1.003-.93-.255-1.55-.765-1.55-1.677 0-1.312 1.332-1.695 2.389-1.695 1.568 0 2.697.62 2.807 2.297h2.279c0-2.716-2.28-4.156-4.995-4.156-2.352 0-4.758 1.221-4.758 3.828 0 1.348.657 2.697 2.88 3.299 1.787.492 2.972.729 3.883 1.075.529.2 1.075.602 1.075 1.604 0 .985-.747 1.969-2.752 1.969-1.823 0-3.299-.784-3.299-2.789zm-22.256-14.509s-3.516 3.049-6.534 9.446c1.817-4.704 1.698-8.005 1.698-8.005s-2.55 2.213-4.77 6.853c1.29-3.408 1.204-5.787 1.204-5.787s-1.85 1.605-3.48 4.97c.913-2.47.851-4.185.851-4.185s-1.597 1.385-2.865 4.3c-1.268 2.917-1.191 5.03-1.191 5.03s1.294-1.123 2.477-3.472c-1.346 3.484-1.258 5.929-1.258 5.929s1.8-1.561 3.413-4.831c-1.883 4.79-1.76 8.166-1.76 8.166s2.494-2.163 4.695-6.699c-2.621 6.571-2.453 11.222-2.453 11.222s3.928-3.406 7.044-10.573c3.117-7.169 2.929-12.364 2.929-12.364" fill="#fff" fill-rule="evenodd"/></svg>