<svg enable-background="new 0 0 500 500" viewBox="0 0 500 500" xmlns="http://www.w3.org/2000/svg" xmlns:xlink="http://www.w3.org/1999/xlink"><radialGradient id="a" cx="201.4093" cy="785.4053" gradientTransform="matrix(46.03 0 0 -46.03 -9338.4062 36117.9922)" gradientUnits="userSpaceOnUse" r="12.5"><stop offset=".22" stop-color="#80cef3"/><stop offset=".34" stop-color="#7ac8ef"/><stop offset=".49" stop-color="#69b8e4"/><stop offset=".66" stop-color="#4e9ed1"/><stop offset=".85" stop-color="#2879b7"/><stop offset="1" stop-color="#03559e"/></radialGradient><path clip-rule="evenodd" d="m0 0h500v500h-500z" fill="#fff" fill-rule="evenodd"/><path d="m303.337 150.413h-7.087v-10.825h7.087c2.075 0 3.75.413 5 1.25 1.25.825 1.663 2.5 1.663 4.162.082 1.564-.526 3.085-1.663 4.163-1.506.902-3.246 1.337-5 1.25zm-36.25-9.163-5.425 14.163h10.838zm-133.337 0-5.413 14.163h10.825c.001 0-5.412-14.163-5.412-14.163zm15.838 87.913c-6.25-4.575-14.587-7.075-25.837-7.075h-35.413v55h35.412c11.25 0 19.588-2.087 25.838-7.087 6.25-4.587 9.162-11.663 9.162-20.412s-2.913-15.426-9.162-20.426zm350.412-229.163v500h-500v-500zm-124.162 151.663c0 2.5.413 5 1.25 7.088.825 1.663 2.075 3.75 3.75 5.412 1.662 1.675 3.325 2.925 5.825 3.75 2.087.838 4.587 1.25 7.087 1.25s5-.412 7.088-1.25c4.272-1.676 7.712-4.968 9.575-9.162.838-2.088 1.25-4.587 1.25-7.088 0-2.5-.413-5-1.25-7.075-.825-2.088-2.075-4.175-3.75-5.425-1.6-1.714-3.602-3.003-5.825-3.75-2.264-.853-4.668-1.277-7.087-1.25-2.5 0-5 .425-7.087 1.25-2.172.849-4.153 2.124-5.825 3.75-1.617 1.525-2.895 3.374-3.75 5.425-.839 2.075-1.251 4.575-1.251 7.075zm-37.5 16.674h6.25v-24.587l17.5 24.587h6.662v-33.75h-5.837v24.575l-17.913-24.574h-6.662zm-14.175.413h5.837v-34.162h-5.837zm-33.326-.413h5.825v-12.925h7.087l7.5 12.925h6.662l-7.911-13.75c1.984-.759 3.716-2.058 5-3.75 1.25-1.675 1.662-3.75 1.662-5.837.094-2.075-.489-4.124-1.662-5.838-1.067-1.565-2.495-2.851-4.163-3.75-2.109-.893-4.386-1.32-6.675-1.25h-13.325zm-40.837 0h6.25l3.337-7.925h15l2.912 7.925h6.25l-13.749-34.175h-6.25zm-41.25 0h5.837v-25.425l9.575 19.587h4.588l9.587-19.588v25.425h5.825v-33.75h-7.5l-10.412 21.664-10-21.662h-7.5zm-52.087 0h5.837v-24.587l17.912 24.587h6.675v-33.75h-5.837v24.575l-17.912-24.575h-6.675zm-40 0h6.25l3.338-7.925h15l2.912 7.925h6.25l-13.75-34.175h-6.25s-13.751 34.175-13.75 34.175zm-10-8.337c0 .838-.412 1.663-.825 2.5-.886.087-1.74.374-2.5.838-.838.412-2.088.412-3.338.412-.838 0-2.087 0-2.912-.412-.838-.425-2.087-.838-2.925-1.25-1.065-.554-2.045-1.257-2.912-2.087l-2.912 4.587c1.662 1.25 3.75 2.5 5.825 3.325 4.142 1.67 8.77 1.67 12.912 0 1.706-.644 3.166-1.807 4.175-3.325.838-1.675 1.663-3.337 1.663-5 .021-1.297-.261-2.582-.825-3.75-.448-1.13-1.164-2.134-2.088-2.925-.838-.825-2.087-1.25-3.338-2.075-1.25-.425-2.075-1.25-3.325-1.675-1.19-.383-2.315-.944-3.338-1.662-.838-.412-1.662-1.25-2.5-1.663-.412-.837-.837-1.675-.837-2.5 0-.837.425-1.675.837-2.087.413-.838 1.25-1.25 2.088-1.25.825-.413 1.663-.413 2.912-.413s2.087 0 3.338.413c1.25.412 2.5.838 3.325 1.663l2.5-5c-1.599-.74-3.276-1.298-5-1.663-1.663-.412-3.325-.412-4.575-.412-2.087 0-4.175.412-5.837 1.25-1.662.825-2.912 2.075-4.163 3.325-.837 1.25-1.25 2.925-1.25 5 0 1.675.413 2.925.825 3.75.425 1.25 1.25 2.087 2.087 2.5.838.837 2.088 1.25 2.912 2.087 1.25.412 2.088.838 3.338 1.663 1.25.425 2.5.837 3.338 1.675 1.25.413 2.075 1.25 2.5 1.663.824.836.824 1.661.825 2.498zm89.587 206.25-40.413-69.163c10.825-3.75 19.163-10 25-17.925 5.825-8.325 8.75-18.325 8.75-30 0-11.663-2.5-20.825-7.5-28.75-5-7.912-12.5-14.162-21.675-18.325-9.575-4.175-20.825-6.25-34.162-6.25h-67.913v170.413h30v-64.163h37.075l37.5 64.163zm66.25-144.162h51.663l-10.413-26.675h-124.588l15.425 26.675h37.913v144.162h30zm179.163-26.675h-31.663l-52.913 137.087-38.75-100h-31.25l53.75 133.75h32.075s68.751-170.838 68.751-170.837zm-56.25-35c1.25.837 2.5 2.087 3.75 2.5 1.25.425 2.925.837 4.587.837s3.337-.412 4.587-.837c1.663-.413 2.5-1.25 3.75-2.5 1.284-.882 2.18-2.225 2.5-3.75.413-1.663.825-3.325.825-5 0-1.663-.413-3.325-.825-5-.837-1.25-1.25-2.5-2.5-3.75-1.25-.825-2.5-2.075-3.75-2.5-1.477-.512-3.025-.791-4.587-.825-1.563.034-3.111.313-4.587.825-1.663.425-2.5 1.25-3.75 2.5-1.283.883-2.178 2.226-2.5 3.75-.413 1.25-.825 2.925-.825 5 0 1.675.413 3.337.825 5 .837 1.25 1.25 2.499 2.5 3.75z" fill="url(#a)"/></svg>