<svg viewBox="0 0 500 500" xmlns="http://www.w3.org/2000/svg"><path d="m303.3 150.4h-7.1v-10.8h7.1c2.1 0 3.8.4 5 1.2s1.7 2.5 1.7 4.2c0 1.6-.5 3.1-1.7 4.2-1.5.9-3.2 1.3-5 1.2zm-36.2-9.2-5.4 14.2h10.8zm-133.3 0-5.4 14.2h10.8s-5.4-14.2-5.4-14.2zm15.8 88c-6.2-4.6-14.6-7.1-25.8-7.1h-35.4v55h35.4c11.2 0 19.6-2.1 25.8-7.1 6.2-4.6 9.2-11.7 9.2-20.4s-2.9-15.4-9.2-20.4zm350.4-229.2v500h-500v-500zm-124.2 151.7c0 2.5.4 5 1.2 7.1.8 1.7 2.1 3.8 3.8 5.4 1.7 1.7 3.3 2.9 5.8 3.8 2.1.8 4.6 1.2 7.1 1.2s5-.4 7.1-1.2c4.3-1.7 7.7-5 9.6-9.2.8-2.1 1.2-4.6 1.2-7.1s-.4-5-1.2-7.1-2.1-4.2-3.8-5.4c-1.6-1.7-3.6-3-5.8-3.8-2.3-.9-4.7-1.3-7.1-1.2-2.5 0-5 .4-7.1 1.2-2.2.8-4.2 2.1-5.8 3.8-1.6 1.5-2.9 3.4-3.8 5.4-.8 2.1-1.3 4.6-1.3 7.1zm-37.5 16.6h6.2v-24.6l17.5 24.6h6.7v-33.8h-5.8v24.6l-17.9-24.6h-6.7v33.7zm-14.1.4h5.8v-34.2h-5.8zm-33.4-.4h5.8v-12.9h7.1l7.5 12.9h6.7l-7.9-13.8c2-.8 3.7-2.1 5-3.8 1.2-1.7 1.7-3.8 1.7-5.8 0-2.1-.5-4.1-1.7-5.8-1.1-1.6-2.5-2.9-4.2-3.8-2.1-.9-4.4-1.3-6.7-1.2h-13.3zm-40.8 0h6.2l3.3-7.9h15l2.9 7.9h6.2l-13.7-34.2h-6.2l-13.8 34.2zm-41.2 0h5.8v-25.4l9.6 19.6h4.6l9.6-19.6v25.4h5.8v-33.8h-7.5l-10.4 21.7-10-21.7h-7.5v33.7zm-52.1 0h5.8v-24.6l17.9 24.6h6.7v-33.8h-5.8v24.6l-17.9-24.6h-6.7zm-40 0h6.2l3.3-7.9h15l2.9 7.9h6.2l-13.8-34.2h-6.2s-13.8 34.2-13.8 34.2zm-10-8.3c0 .8-.4 1.7-.8 2.5-.9 0-1.7.4-2.5.8s-2.1.4-3.3.4-2.1 0-2.9-.4-2.1-.8-2.9-1.2c-1.1-.6-2-1.3-2.9-2.1l-2.9 4.6c1.7 1.2 3.8 2.5 5.8 3.3 4.1 1.7 8.8 1.7 12.9 0 1.7-.6 3.2-1.8 4.2-3.3.8-1.7 1.7-3.3 1.7-5 0-1.3-.3-2.6-.8-3.8-.4-1.1-1.2-2.1-2.1-2.9-.8-.8-2.1-1.2-3.3-2.1-1.2-.4-2.1-1.2-3.3-1.7-1.2-.4-2.3-.9-3.3-1.7-.8-.4-1.7-1.2-2.5-1.7-.4-.8-.8-1.7-.8-2.5s.4-1.7.8-2.1c.4-.8 1.2-1.2 2.1-1.2.8-.4 1.7-.4 2.9-.4s2.1 0 3.3.4 2.5.8 3.3 1.7l2.5-5c-1.6-.7-3.3-1.3-5-1.7s-3.3-.4-4.6-.4c-2.1 0-4.2.4-5.8 1.2-1.7.8-2.9 2.1-4.2 3.3-.8 1.2-1.2 2.9-1.2 5s.4 2.9.8 3.8c.4 1.2 1.2 2.1 2.1 2.5.8.8 2.1 1.2 2.9 2.1 1.2.4 2.1.8 3.3 1.7 1.2.4 2.5.8 3.3 1.7 1.2.4 2.1 1.2 2.5 1.7.8.8.8 1.7.8 2.5zm89.6 206.2-40.4-69.2c10.8-3.8 19.2-10 25-17.9 5.8-8.3 8.8-18.3 8.8-30s-2.5-20.8-7.5-28.8c-5-7.9-12.5-14.2-21.7-18.3-9.6-4.2-20.8-6.2-34.2-6.2h-68v170.4h30v-64.2h37.1l37.5 64.2h33.3zm66.2-144.1h51.7l-10.4-26.7h-124.6l15.4 26.7h37.9v144.2h30zm179.2-26.7h-31.7l-52.9 137.1-38.8-100h-31.2l53.8 133.8h32.1s68.8-170.8 68.8-170.8zm-56.3-35c1.2.8 2.5 2.1 3.8 2.5 1.2.4 2.9.8 4.6.8s3.3-.4 4.6-.8c1.7-.4 2.5-1.2 3.8-2.5 1.3-.9 2.2-2.2 2.5-3.8.4-1.7.8-3.3.8-5s-.4-3.3-.8-5c-.8-1.2-1.2-2.5-2.5-3.8-1.2-.8-2.5-2.1-3.8-2.5-1.5-.5-3-.8-4.6-.8s-3.1.3-4.6.8c-1.7.4-2.5 1.2-3.8 2.5-1.3.9-2.2 2.2-2.5 3.8-.4 1.2-.8 2.9-.8 5s.4 3.3.8 5c.8 1.2 1.2 2.5 2.5 3.8z" fill="#fff"/></svg>