<svg viewBox="0 0 460.3 439.3" xmlns="http://www.w3.org/2000/svg"><g fill="#fff"><path d="m224.9 150.8 66.5 59.4c1.3 1.1 3.1 1.3 4.5.4s2-2.6 1.5-4.2l-63.5-203.8c-.5-1.5-1.9-2.6-3.5-2.6s-3 1-3.6 2.5l-48.7 144.3c-.4 1.1-.2 2.4.5 3.4s1.8 1.6 3 1.6h45.7c-.9 0-1.8-.3-2.5-1"/><path d="m315.4 210.5-35.1 82c-.6 1.5-.2 3.3 1.1 4.4 1.3 1 3.1 1.1 4.5.1l172.7-125.3c1.3-.9 1.9-2.6 1.4-4.2-.5-1.5-1.9-2.6-3.6-2.6h-152.3c-1.2 0-2.3.6-3 1.6s-.9 2.2-.5 3.4l14.6 43.2c-.3-.9-.2-1.8.1-2.7"/><path d="m178.5 318.2-19.6-87c-.4-1.7-1.8-2.8-3.5-2.9-1.7 0-3.2 1-3.7 2.6l-63.9 203.6c-.5 1.6 0 3.2 1.4 4.2 1.3.9 3.1.9 4.4 0l120.6-89.9c1-.7 1.5-1.8 1.5-3s-.6-2.3-1.6-3l-37.2-26.6c.7.6 1.3 1.3 1.5 2.2"/><path d="m283.4 312.8-88.8-8.5c-1.7-.2-3.3.8-3.8 2.4-.6 1.6 0 3.3 1.3 4.3l171.7 126.6c1.3 1 3 1 4.4 0 1.3-.9 1.9-2.6 1.4-4.1l-46-145.1c-.4-1.2-1.3-2.1-2.4-2.4-1.1-.4-2.4-.2-3.3.5l-36.9 27.1c.7-.5 1.7-.8 2.6-.7"/><path d="m142.5 217.7c.8-.5 1.4-1.2 1.6-2.1l-13.6 43.7c-.4 1.1-1.3 2.1-2.4 2.4-1.1.4-2.4.2-3.4-.5l-123.2-89.5c-1.3-.9-1.8-2.6-1.4-4.2.5-1.5 1.9-2.6 3.6-2.6h213.3c1.7 0 3.2 1.1 3.6 2.8.5 1.6-.2 3.3-1.6 4.2z"/></g></svg>