<svg viewBox="0 0 141 23.6" xmlns="http://www.w3.org/2000/svg"><path d="m46.4 1v1.8h-1.2v-2.8h1.2zm12.4 14.2c-.6 1.7-2.2 2.8-4 2.8h-.3c-1.8 0-3.4-1.1-4-2.8 0-.2-.3-1-.3-3.5s.2-3.1.3-3.5c.6-1.7 2.2-2.8 4-2.8h.3c1.8 0 3.4 1.1 4 2.8 0 .2.3 1 .3 3.5s-.1 2.9-.3 3.5zm.3-10.7v2.1c-1-1.4-2.6-2.3-4.3-2.3h-.3c-2.2 0-4.2 1.4-5 3.5-.2.5-.4 1.5-.4 3.9s.2 3.4.4 3.9c.7 2.1 2.7 3.5 5 3.5h.3c1.7 0 3.4-.9 4.3-2.3 0 1.4-.1 2.3-.3 2.9-.6 1.7-2.2 2.8-4 2.8h-.3c-1.6 0-3.1-.7-3.9-1.9h-1.2c.9 1.7 2.9 2.9 5.1 2.9h.3c2.2 0 4.2-1.4 5-3.5.2-.5.4-1.4.4-3.9v-11.6h-1zm-37.8 0-4.5 13.5-4.5-13.6h-1.1l4.7 14.4h1.6l4.7-14.4s-1.1 0-1.1 0zm46.2.9c-1.8 0-3.4 1.1-4 2.8-.1.3-.3.9-.3 2.4h8.9c0-1.6-.3-2.2-.3-2.4-.6-1.7-2.2-2.8-4-2.8zm4.6 9.9h1.1v.4c-.8 2-3 3.3-5.4 3.3h-.3c-2.2 0-4.2-1.4-4.9-3.5-.2-.5-.4-1.4-.4-3.8s.2-3.3.4-3.8c.7-2.1 2.7-3.5 4.9-3.5h.3c2.2 0 4.2 1.4 4.9 3.5.2.4.4 1.3.4 3.2v.5s-9.9 0-9.9 0c0 2.6.3 3.3.3 3.6.6 1.7 2.2 2.8 3.9 2.8h.3c1.9 0 3.7-1.1 4.3-2.6zm-48.1-7.1c.6-1.7 2.2-2.9 4-2.9h.4c1.8 0 3.4 1.2 4 2.9 0 .2.3.8.3 2.4h-9c0-1.5.2-2.1.3-2.4zm8.7 7.2c-.5 1.6-2.3 2.8-4.3 2.8h-.4c-1.8 0-3.4-1.2-4-2.9 0-.2-.3-1-.3-3.6h10v-.5c0-2-.2-2.9-.4-3.3-.7-2.1-2.7-3.6-4.9-3.6h-.4c-2.2 0-4.2 1.4-4.9 3.6-.2.5-.4 1.5-.4 3.9s.2 3.4.4 3.9c.7 2.1 2.7 3.6 4.9 3.6h.4c2.4 0 4.6-1.4 5.3-3.4v-.4h-.9zm-31.2-7.3c0 1.7 1.3 2.6 3.9 2.6s5.3 1.4 5.3 4.4-1.8 4.2-5 4.2h-.7c-3.2 0-5-1.5-5-4.2h1c0 2.1 1.4 3.1 4 3.1h.7c2.7 0 4-1.1 4-3.1s-.5-3.3-4.3-3.3-4.9-2.4-4.9-3.7c0-1.7.8-3.8 4.7-3.8h.4c3.6 0 4.6 1.8 4.7 3.5h-1c0-1.1-.6-2.4-3.6-2.4h-.4c-3.3 0-3.6 1.6-3.6 2.8zm44.9-3.3v14.3h-1.2v-14.3zm81.5-3v1h-1.2v-2.8h1.2zm0 3v14.3h-1.2v-14.3zm-84.6-.3c-.4-.1-.9-.2-1.3-.2h-.4c-1.7 0-3.4.9-4.4 2.3v-2.1h-1v14.4h1v-7.5c0-2.1.2-2.9.3-3.3.6-1.7 2.2-2.8 4-2.9h.4c.5 0 .9 0 1.3.2v-1.1zm87.9 3.7c.6-1.7 2.2-2.8 4-2.8h.4c1.8 0 3.4 1.1 4 2.8 0 .2.3 1 .3 3.5s-.1 2.8-.3 3.5c-.6 1.7-2.2 2.8-4 2.8h-.4c-1.8 0-3.4-1.1-4-2.8 0-.2-.3-1-.3-3.5s.2-3.1.3-3.5zm4 10.8h.4c2.2 0 4.2-1.4 4.9-3.5.2-.5.4-1.4.4-3.8s-.2-3.3-.4-3.8c-.7-2.1-2.7-3.5-4.9-3.5h-.4c-2.2 0-4.2 1.4-4.9 3.5-.2.5-.4 1.4-.4 3.8s.2 3.4.4 3.8c.7 2.1 2.7 3.5 4.9 3.5zm-12.6-3.8c-.6 1.7-2.2 2.8-4 2.8h-.3c-1.8 0-3.4-1.1-4-2.8 0-.2-.3-1-.3-3.5s.2-3.1.3-3.5c.6-1.7 2.2-2.8 4-2.8h.3c1.8 0 3.4 1.1 4 2.8 0 .2.3 1 .3 3.5s-.1 2.9-.3 3.5zm.3 3.6h1v-18.8h-1v6.6c-1-1.4-2.6-2.3-4.3-2.3h-.3c-2.2 0-4.2 1.4-4.9 3.5-.2.5-.4 1.5-.4 3.9s.2 3.4.4 3.9c.7 2.1 2.7 3.5 4.9 3.5h.3c1.7 0 3.3-.9 4.3-2.3v2.1zm-13.3-7.1h-4.4c-3.7 0-4.2 1.5-4.2 3.1v.2c0 2 1.3 3.1 4 3.1h.4c1.8 0 3.3-1.1 3.9-2.8.2-.7.3-1.8.3-3.5zm-3.6-7.3c2.9 0 4.6 1.5 4.6 4v10.4s-1 0-1 0v-2.1c-1 1.4-2.5 2.3-4.2 2.3h-.4c-3.2 0-5-1.5-5-4.1v-.2c0-2.8 1.7-4.2 5.2-4.2h4.4v-2.2c0-2.6-2.3-3-3.6-3h-.4c-1.7 0-3.7.4-3.9 2.4h-1c.1-2.2 1.9-3.4 4.9-3.4h.4zm-12 3.9c0-3.1-2.7-3.3-4.1-3.5-.2 0-.4 0-.6 0h5.2c1.5 0 3.9 1 3.9 3.6s-1.9 3.6-3.4 3.6h-2.4s1.4 0 1.4-3.6zm-12.5 10.7h-6.3v-6.3zm0-7.1h-3c-1.4 0-3.2-1-3.2-3.6s1.8-3.6 3.2-3.6h3c-1.1.2-1.9.9-1.9 3.6s.9 3.4 1.9 3.6zm0 0c1.1.2 1.9.9 1.9 3.6s-.9 3.4-1.9 3.6h3c1.4 0 3.2-1 3.2-3.6s-1.8-3.6-3.2-3.6zm0-7.1 5.9 7.1 5.9 7.1h5.5l-6.2-7.1h-5.2v-7.1z" fill="#fff" fill-rule="evenodd"/></svg>