<?xml version="1.0" encoding="UTF-8" standalone="no"?>
<!DOCTYPE svg PUBLIC "-//W3C//DTD SVG 1.1//EN" "http://www.w3.org/Graphics/SVG/1.1/DTD/svg11.dtd">
<svg width="100%" height="100%" viewBox="0 0 1003 348" version="1.1" xmlns="http://www.w3.org/2000/svg" xmlns:xlink="http://www.w3.org/1999/xlink" xml:space="preserve" xmlns:serif="http://www.serif.com/" style="fill-rule:evenodd;clip-rule:evenodd;stroke-linejoin:round;stroke-miterlimit:2;">
    <path d="M0,347.2L0,0L1002.6,0L1002.6,347.2L0,347.2ZM673.1,228.8L670.1,248.2C669.6,252 671.4,253.5 674.6,254C681.9,255 700.4,256.3 718.3,256.3C758.4,256.3 787.7,243.2 787.7,205.8C787.7,183.8 778.1,167.4 744.8,158.8L726.1,154C713.5,150.7 707.7,146.7 707.7,137.3C707.7,124.2 719.8,121.6 731.4,121.6C747.1,121.6 763,122.9 769.3,123.4C775.8,123.9 777.6,123.1 778.6,117.6L781.6,98.7C782.1,94.9 780.4,93.4 777.1,92.9C769.8,91.9 753.6,90.6 733.2,90.6C691.5,90.6 671.3,108.8 671.3,137.6C671.3,163.6 685.5,179 709.9,185.3L728.6,190.1C744,194.1 750.6,198.7 750.6,208.3C750.6,222.4 741,225 717.8,225C707.2,225 688.8,223.5 682.5,223C675.9,222.4 674.1,223.2 673.1,228.8ZM868.5,170.9L866,181.5C865.3,184.5 865,186.1 865,187.1C865,189.6 865.8,191.7 867.6,194.7L897.6,248.7C900.1,253 902.1,254.8 908.2,254.8L935.7,254.8C939.3,254.8 943.5,252.5 939.5,246.2L902.6,185.1C915,177.3 928.9,166.2 928.9,141.7C928.9,110.1 911.2,92.5 872.4,92.5L816,92.5C811,92.5 809.4,94.3 809.4,99.3L809.4,248C809.4,253.1 810.9,254.8 816,254.8L839.2,254.8C844.2,254.8 845.8,253 845.8,248L845.8,122.5L869.8,122.5C884.9,122.5 892.3,128.1 892.3,142.2C892.3,155.1 886.5,159.1 880.7,161.6C873.3,164.6 870.8,161.3 868.5,170.9ZM473.7,245.2L473.7,164.1C473.7,159.1 472.2,157.3 467.1,157.3L425.7,157.3C420.6,157.3 419.1,159.1 419.1,164.1L419.1,181.5C419.1,186.5 420.6,188.3 425.7,188.3L437.6,188.3L437.6,223.7C436.1,224 431,224.2 425.2,224.2C390.9,224.2 382,202 382,171.4C382,132.8 396.7,122.9 428.5,122.9C438.1,122.9 451,123.7 458.3,124.2C464.9,124.7 466.6,123.9 467.6,118.4L470.6,100.2C471.4,95.2 470.4,92.9 465,92.4C463.2,92.1 451.9,90.6 425.9,90.6C366.6,90.6 342.6,121.2 342.6,171.4C342.6,221.2 362.3,256.5 423.6,256.5C451.1,256.5 461.5,255.2 466.8,254C472.2,252.8 473.7,250.7 473.7,245.2ZM542.6,228.8L539.6,248.2C539.1,252 540.9,253.5 544.2,254C551.5,255 569.9,256.3 587.9,256.3C628,256.3 657.3,243.2 657.3,205.8C657.3,183.8 647.7,167.4 614.4,158.8L595.7,154C583.1,150.7 577.3,146.7 577.3,137.3C577.3,124.2 589.4,121.6 601,121.6C616.6,121.6 632.6,122.9 638.8,123.4C645.4,123.9 647.1,123.1 648.2,117.6L651.2,98.7C651.7,94.9 649.9,93.4 646.7,92.9C639.4,91.9 623.2,90.6 602.8,90.6C561.1,90.6 540.9,108.8 540.9,137.6C540.9,163.6 555,179 579.5,185.3L598.2,190.1C613.6,194.1 620.2,198.7 620.2,208.3C620.2,222.4 610.6,225 587.4,225C576.8,225 558.3,223.5 552.1,223C545.4,222.4 543.6,223.2 542.6,228.8ZM64.6,228.8L61.6,248.2C61.1,252 62.9,253.5 66.2,254C73.5,255 91.9,256.3 109.9,256.3C150,256.3 179.3,243.2 179.3,205.8C179.3,183.8 169.7,167.4 136.4,158.8L117.7,154C105.1,150.7 99.3,146.7 99.3,137.3C99.3,124.2 111.4,121.6 123,121.6C138.6,121.6 154.6,122.9 160.9,123.4C167.5,123.9 169.2,123.1 170.2,117.6L173.2,98.7C173.7,94.9 171.9,93.4 168.6,92.9C161.3,91.9 145.1,90.6 124.7,90.6C83.1,90.6 62.9,108.8 62.9,137.6C62.9,163.6 77,179 101.5,185.3L120.2,190.1C135.6,194.1 142.2,198.7 142.2,208.3C142.2,222.4 132.6,225 109.4,225C98.8,225 80.4,223.5 74.1,223C67.4,222.4 65.6,223.2 64.6,228.8ZM260.1,170.9L257.6,181.5C256.8,184.5 256.6,186.1 256.6,187.1C256.6,189.6 257.3,191.7 259.1,194.7L289.1,248.7C291.6,253 293.7,254.8 299.7,254.8L327.2,254.8C330.7,254.8 335,252.5 331,246.2L294.1,185.1C306.5,177.3 320.4,166.2 320.4,141.7C320.4,110.1 302.7,92.5 263.8,92.5L207.5,92.5C202.4,92.5 200.9,94.3 200.9,99.3L200.9,248C200.9,253.1 202.4,254.8 207.5,254.8L230.7,254.8C235.8,254.8 237.3,253 237.3,248L237.3,122.5L261.3,122.5C276.4,122.5 283.7,128.1 283.7,142.2C283.7,155.1 277.9,159.1 272.1,161.6C264.9,164.6 262.4,161.3 260.1,170.9Z" style="fill:white;"/>
</svg>