<svg viewBox="0 0 284 159.2" xmlns="http://www.w3.org/2000/svg" fill="#ffffff"><path d="m146 118.6-31.3-83.8h-27.3l44.9 120.5h27.3l44.9-120.5h-27.3z"/><path d="m61 87.1c-2.4-1.1-12.4-5.5-14.3-6.3-9.2-4-13.7-8.4-13.7-13.6s4.2-10.7 12.9-10.7 11.6 2.9 17 8.7l19-13.8c-7.6-11.6-21.6-18.8-36.7-18.8s-37.5 12.9-37.5 34.5 8.5 26.7 26 34.1c5.1 2.2 8.7 3.7 12.7 5.4 5.8 2.5 15.1 6.3 15.1 14.6s-8.2 12.5-17 12.5-16.3-5-23.5-14.1l-19.9 14.5c7.7 11.5 23.3 23.6 44.2 23.6s41.8-14.4 41.8-36.8-8.5-25.8-26.1-33.8z"/><path d="m255.4 133.2c-5.8 0-10.7-3.5-13.3-8.5-2-3.8-2-9.8-2-14.9v-50h27.8l9.3-24.9h-37.2v-34.4h-25.5v113.2c0 5.2.3 10 2.3 16.3 5.5 16.1 20.6 27.6 38.6 27.6s20.8-4 28.6-11.2l-16-18.3c-3.4 3-8 5.1-12.6 5.1z"/></svg>
