<svg fill="#fff" viewBox="46 45 152 46" xmlns="http://www.w3.org/2000/svg"><path clip-rule="evenodd" d="m187.1 47.4c-5 0-9.2 4.1-9.2 9.2 0 5 4.1 9.2 9.2 9.2 5.2 0 9.2-4.1 9.2-9.2.1-5-4-9.2-9.2-9.2m0 16.8c-4.1 0-7.5-3.3-7.5-7.4v-.1c0-4.1 3.3-7.5 7.4-7.5h.1c4.1 0 7.5 3.3 7.5 7.4v.1c.1 4.1-3.2 7.4-7.5 7.5q.15 0 0 0" fill-rule="evenodd"/><path clip-rule="evenodd" d="m190.1 59.4v-7.5l-7.5 2.7v2l2.5-1v5.7c-.1-.1 5-1.9 5-1.9" fill-rule="evenodd"/><path d="m141.3 50v12.4l6.8 6.8-6.8 6.6v12.6l19.1-19.2zm-42.1 2.1-3.4 21.4-3.4-21.4h-8.1l-3.4 21.4-3.4-21.4h-8.1l6.2 34.6h9l3.9-22.3 3.9 22.3h9l6.2-34.6zm36.3 34.6h-9.7l-8.2-13.5h-.4v13.5h-8v-34.6c3-.2 6.7-.2 10.8-.2 8.1 0 12.9 3 12.9 10.2 0 4.7-2.8 8.5-7.5 9.6.9 1.4 1.8 2.6 2.7 3.9.1 0 7.4 11.1 7.4 11.1m-10.7-24c0-2.7-1.6-4.3-5.3-4.3-.9 0-1.7 0-2.2.1v8.9c.4 0 1.2.1 2 .1 3.3 0 5.5-1.9 5.5-4.8m-69.4 24.5c-2.5 0-4.9-.2-7.1-.7l.4-7.6c2 .7 4.9 1.5 7.4 1.5 3 0 5-1.2 5-3.7 0-5.9-13.5-3-13.8-14.4-.1-6.5 5.2-10.8 13.8-10.8 1.8 0 4.2.2 6.3.6v7c-2-.6-4.6-1.1-6.5-1.1-3.3 0-4.9 1.5-4.9 3.3 0 5.4 13.8 3.3 13.8 14.2-.3 6.6-5.7 11.7-14.4 11.7"/><path d="m158.4 50v12.4l6.8 6.8-6.8 6.6v12.6l19.1-19.2z"/></svg>