<svg enable-background="new 0 0 870.8 268.5" height="268.5" viewBox="0 0 870.8 268.5" width="870.8" xmlns="http://www.w3.org/2000/svg"><path fill="#fff" d="m238.1 0h-206.5c-17.5 0-31.6 14.1-31.6 31.6s14.1 31.5 31.6 31.5h71.7v205.4h63.1v-205.4h71.7c17.4 0 31.5-14.1 31.5-31.5.1-17.5-14.1-31.6-31.5-31.6m582 176.7c-12.1 16.2-31 27-52.8 28.2-39 2.1-72.4-27.8-74.5-66.8s27.8-72.4 66.8-74.5c21.7-1.2 41.8 7.5 55.6 22.3.6.7 1.3 1.2 2 1.9 13 11.6 32.9 10.5 44.5-2.4 11-12.3 10.7-30.9-.4-42.7-26.1-28.1-64-44.7-105.2-42.5-74 4-130.7 67.3-126.7 141.3s67.3 130.8 141.3 126.7c41.2-2.2 77.1-22.9 100.1-53.5zm-235.9-169.3c-13.3-11.2-33.3-9.5-44.5 3.9l-94.9 113.1-94.9-113.1c-11.2-13.3-31.1-15.1-44.5-3.9-7.4 6.2-11.3 15.2-11.3 24.2v236.9h63.1v-150.3l63.2 75.3.2.2c5.8 6.9 14.5 11.3 24.2 11.3s18.4-4.4 24.2-11.3l63.4-75.5v150.2h63.1v-236.9c-.1-8.9-3.9-17.9-11.3-24.1"/></svg>
