<svg height="400" width="307" xmlns="http://www.w3.org/2000/svg"><g fill="#fff"><path d="m0 0c-.523.096-.427.067-.52.521 0 0-.118.557-.118 1.683 0 1.125.118 2.204.118 2.204.083.412.006.402.52.515 0 0 1.573.232 2.745.22 1.171-.012 2.761-.22 2.761-.22.529-.113.433-.103.532-.515 0 0 .112-1.249.112-2.204 0-.956-.112-1.683-.112-1.683-.071-.454-.003-.406-.532-.521 0 0-1.503-.232-2.761-.232s-2.745.232-2.745.232m10.309.598c-.224.599-.503 1.223-.856 1.864.346.632.622 1.248.842 1.84 1.441-.941 2.048-1.86 2.048-1.86s-.603-.91-2.034-1.844m-.773-4.93s-1.068-.218-2.739.133c.265.579.507 1.215.709 1.914.694.202 1.324.443 1.899.706.352-1.679.131-2.753.131-2.753m-6.775-2.816s-.914.605-1.85 2.043c.595.224 1.214.504 1.852.856.638-.351 1.26-.629 1.858-.851-.941-1.441-1.86-2.048-1.86-2.048m-6.792 2.812s-.231 1.071.12 2.752c.586-.267 1.231-.511 1.941-.715.203-.697.445-1.331.709-1.908-1.692-.36-2.77-.129-2.77-.129m-2.804 6.778s.595.922 2.034 1.863c.222-.592.499-1.209.849-1.843-.356-.643-.638-1.267-.863-1.868-1.429.936-2.02 1.848-2.02 1.848m2.81 6.787s1.074.23 2.76-.122c-.264-.579-.505-1.213-.708-1.913-.705-.202-1.345-.445-1.928-.71-.351 1.677-.124 2.745-.124 2.745m6.786 2.801s.917-.593 1.857-2.025c-.597-.222-1.217-.499-1.855-.848-.637.351-1.255.63-1.85.853.935 1.429 1.848 2.02 1.848 2.02m6.769-2.805s.218-1.071-.135-2.746c-.572.261-1.197.5-1.886.701-.202.702-.444 1.339-.708 1.92 1.665.344 2.729.125 2.729.125m4.736-6.777s-1.02 1.8-3.52 3.318c.691 2.834.14 4.822.14 4.822s-1.978.548-4.8-.134c-1.517 2.498-3.32 3.498-3.32 3.498s-1.798-.998-3.314-3.489c-2.846.697-4.832.129-4.832.129s-.567-1.982.126-4.822c-2.502-1.518-3.503-3.322-3.503-3.322s.998-1.798 3.49-3.315c-.694-2.841-.127-4.824-.127-4.824s1.994-.571 4.848.132c1.516-2.494 3.312-3.512 3.312-3.512s1.801 1.02 3.318 3.521c2.831-.687 4.816-.138 4.816-.138s.55 1.99-.142 4.826c2.492 1.515 3.508 3.31 3.508 3.31" transform="matrix(13.334934 0 0 -13.334934 116.7740134794 186.0436622404)"/><path d="m0 0h3.985v-.659h-1.311v-4.196h-1.363v4.196h-1.311z" transform="matrix(13.334934 0 0 -13.334934 28.168711023 333.4720255576)"/><path d="m0 0v4.854h2.442c.809 0 1.723-.546 1.723-1.453 0-.697-.494-1.169-1.146-1.326l1.176-2.075h-1.543l-1.206 2.472h.15c.636 0 1.161.113 1.161.907 0 .546-.382.891-.884.891h-.51v-4.27z" transform="matrix(13.334934 0 0 -13.334934 90.4988595258 398.2064626606)"/><path d="m0 0c.936 0 1.101 1.236 1.101 1.978 0 .741-.165 1.977-1.101 1.977s-1.101-1.236-1.101-1.977c0-.742.165-1.978 1.101-1.978m0 4.54c1.453 0 2.584-1.139 2.584-2.562 0-1.424-1.131-2.562-2.584-2.562s-2.585 1.138-2.585 2.562c0 1.423 1.132 2.562 2.585 2.562" transform="matrix(13.334934 0 0 -13.334934 188.0025634404 392.2124098276)"/><path d="m0 0c.172-.345.449-.734.884-.734.389 0 .629.225.629.592 0 .854-2.112.666-2.112 2.225 0 .996.681 1.648 1.678 1.648.779 0 1.243-.3 1.64-.952l-.547-.427c-.217.375-.441.72-.928.72-.39 0-.57-.255-.57-.615 0-.846 2.158-.607 2.158-2.225 0-1.026-.764-1.625-1.753-1.625-.802 0-1.364.269-1.761.974z" transform="matrix(13.334934 0 0 -13.334934 239.3367253668 381.4231147282)"/></g></svg>