<svg enable-background="new 0 0 85 30" viewBox="0 0 85 30" xmlns="http://www.w3.org/2000/svg"><path d="m51.8 20.4c2.9-1.8 4.8-5.5 4.8-9.3-.1-7.6-6.2-11.1-12-11.1h-14c-.7 0-1.3.6-1.3 1.3v28.7h4.9c.7 0 1.4-.3 1.9-.8s.8-1.2.8-1.9v-5.1h6.8l5.4 7.8h8.1l-6.4-9zm-7.1-5h-7.9v-8.6h7.9c1.2 0 2.3.4 3.1 1.2s1.3 1.9 1.2 3.1c0 1.1-.4 2.3-1.3 3.1-.7.7-1.8 1.2-3 1.2zm13.3-14.1v5.5h9.7v23.2h4.9c1.5 0 2.6-1.2 2.6-2.6v-20.6h7.5c1.2 0 2.2-1 2.2-2.2v-4.6h-25.5c-.8 0-1.4.6-1.4 1.3zm-58 0v5.5h9.7v23.2h4.9c1.5 0 2.6-1.2 2.7-2.6v-20.6h7.5c1.2 0 2.2-1 2.2-2.2v-4.6h-25.7c-.7 0-1.3.6-1.3 1.3z" fill="#ffffff"/></svg>
