<svg clip-rule="evenodd" fill-rule="evenodd" stroke-linejoin="round" stroke-miterlimit="2" viewBox="0 0 604 294" xmlns="http://www.w3.org/2000/svg"><path d="m862.178-9.389h135.426v178.083h-135.426zm145.312 0h135.43v178.083h-135.43zm29.29 29.319v121.348h24.52v-37.048l5.29.173c33.03 0 49.25-21.464 49.25-42.752 0-20.943-15.71-41.721-46.99-41.721zm24.48 23.485h8.84c14.01.214 21 4.966 22 18.933-.87 14.494-9.06 19.105-23.17 19.346h-7.67zm-131.369 101.536-56.076-126.466h27.229l27.873 63.957.974 3.804.985-3.855 27.862-63.906h27.233zm-98.367-101.519v-23.478h-93.871v23.478h33.913v97.846h26.045v-97.846zm-114.647-52.821h135.426v178.083h-135.426zm-9.888-8.805h445.811v195.696h-445.811z" fill="#fff" transform="translate(-627.903 65.1422)"/></svg>