<svg viewBox="0 0 445.8 195.7" xmlns="http://www.w3.org/2000/svg"><path d="m155.2 8.8h135.4v178.1h-135.4zm145.3 0h135.4v178.1h-135.4zm29.3 29.3v121.3h24.5v-37l5.3.2c33 0 49.2-21.5 49.2-42.8s-15.7-41.7-47-41.7h-32.1zm24.5 23.5h8.8c14 .2 21 5 22 18.9-.9 14.5-9.1 19.1-23.2 19.3h-7.7v-38.3zm-131.4 101.5-56.1-126.5h27.2l27.9 64 1 3.8 1-3.9 27.9-63.9h27.2zm-98.4-101.5v-23.5h-93.8v23.5h33.9v97.8h26v-97.8zm-114.6-52.8h135.4v178.1h-135.4zm-9.9-8.8h445.8v195.7h-445.8z" fill="#fff" fill-rule="evenodd"/></svg>