<?xml version="1.0" encoding="UTF-8" standalone="no"?>
<!DOCTYPE svg PUBLIC "-//W3C//DTD SVG 1.1//EN" "http://www.w3.org/Graphics/SVG/1.1/DTD/svg11.dtd">
<svg width="100%" height="100%" viewBox="0 0 604 294" version="1.1" xmlns="http://www.w3.org/2000/svg" xmlns:xlink="http://www.w3.org/1999/xlink" xml:space="preserve" xmlns:serif="http://www.serif.com/" style="fill-rule:evenodd;clip-rule:evenodd;stroke-linejoin:round;stroke-miterlimit:2;">
    <g id="g2415" transform="matrix(1,0,0,1,-627.903,65.1422)">
        <path id="path5" d="M862.178,-9.389L997.604,-9.389L997.604,168.694L862.178,168.694L862.178,-9.389ZM1007.49,-9.389L1142.92,-9.389L1142.92,168.694L1007.49,168.694L1007.49,-9.389ZM1036.78,19.93L1036.78,141.278L1061.3,141.278L1061.3,104.23L1066.59,104.403C1099.62,104.403 1115.84,82.939 1115.84,61.651C1115.84,40.708 1100.13,19.93 1068.85,19.93L1036.78,19.93ZM1061.26,43.415L1070.1,43.415C1084.11,43.629 1091.1,48.381 1092.1,62.348C1091.23,76.842 1083.04,81.453 1068.93,81.694L1061.26,81.694L1061.26,43.415ZM929.891,144.951L873.815,18.485L901.044,18.485L928.917,82.442L929.891,86.246L930.876,82.391L958.738,18.485L985.971,18.485L929.891,144.951ZM831.524,43.432L831.524,19.954L737.653,19.954L737.653,43.432L771.566,43.432L771.566,141.278L797.611,141.278L797.611,43.432L831.524,43.432ZM716.877,-9.389L852.303,-9.389L852.303,168.694L716.877,168.694L716.877,-9.389ZM706.989,-18.194L1152.8,-18.194L1152.8,177.502L706.989,177.502L706.989,-18.194Z" style="fill:white;"/>
    </g>
</svg>