<svg viewBox="0 0 790 372.8" xmlns="http://www.w3.org/2000/svg"><path d="m591.8 6.4c-32.2 6.4-58.2 19.8-79.1 37.6-6 5.1-11.6 10.6-16.9 16.4-19.4 21.4-39.4 53.9-51 84.6-19.4 51.4-25.8 99.7-54.6 127-21.5 20.1 5 28.8 22.4 20.9 20.6-7.6 39.6-23.4 65.5-62.5 21.9-33.8 52.9-95.7 112.9-122.7 51-23.2 92.8-12.5 83 16.7 4.2-8.2 7-17 8.2-26.2 3.8-48.2-37.5-91.9-88.4-91.9h-2z" fill="#618cbb"/><path d="m648.6 186.1c-63.2 28.4-56.8 58.9-51.2 70.3.7 1.5 1.5 2.9 2.4 4.3 58.7 90.4 170.5 109.8 188 112h2.1c-63.5-57.7-128.5-159.1-106.6-200-11.2 4.3-22.8 8.8-34.7 13.4z" fill="#e1322c"/><path d="m641.4 2.2c-16.6 0-33.2 1.3-49.6 4.2 51.7-1.2 94.3 43 90.4 91.9-1.2 9.1-4 18-8.2 26.2-10.1 20.5-28.1 40.6-48.3 58.7-42.1 36.9-34.5 62.1-28.3 73.2-5.6-11.4-12.1-42 51.2-70.3 84.6-33.1 156.9-55.1 133.6-113.2-26.7-59.2-93.1-70.6-140-70.7z" fill="#f5c122"/><path d="m3 49.3v53.9h60.4v192h60.5v-192h60.4v-53.9zm351.4 0-40.7 137.4-41.5-137.4h-62.5l81.2 245.9h44.9l81.5-245.9h-62.8z" fill="#fff"/></svg>