<svg viewBox="0 0 789.96 372.79" xmlns="http://www.w3.org/2000/svg" xmlns:xlink="http://www.w3.org/1999/xlink"><clipPath id="a"><path d="m591.79 6.39c-32.18 6.39-58.17 19.78-79.13 37.61a175.27 175.27 0 0 0 -16.85 16.39c-19.4 21.43-39.44 53.92-51 84.58-19.41 51.4-25.83 99.68-54.62 127-21.5 20.06 5 28.78 22.36 20.91 20.56-7.64 39.64-23.43 65.52-62.47 21.93-33.79 52.93-95.73 112.93-122.66 51-23.18 92.84-12.51 83 16.69a80.45 80.45 0 0 0 8.18-26.16c3.82-48.23-37.54-91.91-88.36-91.92-.68 0-1.34 0-2 0"/></clipPath><linearGradient id="b" gradientUnits="userSpaceOnUse" x1="652.1" x2="390.5" y1="28.09" y2="291.13"><stop offset="0" stop-color="#3b5791"/><stop offset="1" stop-color="#8dc8ec"/></linearGradient><clipPath id="c"><path d="m648.59 186.06c-63.24 28.36-56.78 58.87-51.21 70.32a36 36 0 0 0 2.42 4.26c58.7 90.35 170.45 109.76 188 112h2.09c-63.55-57.71-128.48-159.12-106.59-200-11.16 4.34-22.79 8.77-34.67 13.41"/></clipPath><linearGradient id="d" gradientTransform="matrix(-10.96 -30.11 30.11 -10.96 13927.36 19745.14)" gradientUnits="userSpaceOnUse" x1="708.34" x2="715.35" y1="-180.42" y2="-180.42"><stop offset="0" stop-color="#eb4c3a"/><stop offset=".5" stop-color="#e1322c"/><stop offset="1" stop-color="#852424"/></linearGradient><clipPath id="e"><path d="m641.4 2.18a282.53 282.53 0 0 0 -49.61 4.21c51.74-1.19 94.28 43 90.44 91.89a80.45 80.45 0 0 1 -8.18 26.16c-10.12 20.48-28.13 40.59-48.32 58.72-42.09 36.91-34.45 62.1-28.34 73.23-5.57-11.44-12.07-42 51.2-70.33 84.56-33.06 156.94-55.06 133.65-113.16-26.7-59.21-93.15-70.63-140-70.72z"/></clipPath><linearGradient id="f" gradientTransform="matrix(11.55344044 31.74281673 -31.74281673 11.55344044 -12398.92 -20264.69)" gradientUnits="userSpaceOnUse" x1="695.37" x2="702.38" y1="-157.73" y2="-157.73"><stop offset="0" stop-color="#fde51a"/><stop offset=".01" stop-color="#fde51a"/><stop offset=".5" stop-color="#f0ac25"/><stop offset=".67" stop-color="#e98f2d"/><stop offset=".92" stop-color="#e56b27"/><stop offset="1" stop-color="#e56b27"/></linearGradient><clipPath id="g"><path d="m3.05 49.29v53.87h60.43v192h60.45v-192h60.43v-53.87zm351.32 0-40.74 137.44-41.45-137.44h-62.5l81.16 245.88h44.89l81.49-245.88z"/></clipPath><linearGradient id="h" gradientTransform="matrix(-41.25968068 -41.25968068 41.25968068 -41.25968068 37414.67 22115.79)" gradientUnits="userSpaceOnUse" x1="713.71" x2="720.72" y1="-184.92" y2="-184.92"><stop offset="0" stop-color="#9d9d9c"/><stop offset=".25" stop-color="#d0d0d0"/><stop offset=".5" stop-color="#e7e7e7"/><stop offset=".75" stop-color="#d0d0d0"/><stop offset="1" stop-color="#9d9d9c"/></linearGradient><g clip-path="url(#a)"><path d="m221.52 153.52 305.83-305.83 305.83 305.83-305.83 305.83z" fill="url(#b)"/></g><g clip-path="url(#c)"><path d="m609.27 438.33-88.19-242.29 244.85-89.11 88.19 242.28z" fill="url(#d)"/></g><g clip-path="url(#e)"><path d="m779.57-69.14 107.66 295.79-277.63 101.05-107.66-295.79z" fill="url(#f)"/></g><g clip-path="url(#g)"><path d="m210.14 502.26-330.03-330.03 330.03-330.03 330.03 330.03z" fill="url(#h)"/></g></svg>