<svg fill="none" height="48" viewBox="0 0 154 48" width="154" xmlns="http://www.w3.org/2000/svg" xmlns:xlink="http://www.w3.org/1999/xlink"><clipPath id="a"><path d="m0 0h154v48h-154z"/></clipPath><g clip-path="url(#a)"><g fill="#fff"><path d="m35.4882 26.5776h3.8151l4.0279 9.8688h.1697l4.0302-9.8688h3.8151v14.688h-2.9999v-9.5592h-.1219l-3.7865 9.4872h-2.0438l-3.7864-9.5232h-.1219v9.5952h-3v-14.688z"/><path d="m66.927 33.9216c0 1.6008-.3012 2.964-.9036 4.0872s-1.4199 1.98-2.4573 2.5704c-1.0351.5928-2.1992.8856-3.4876.8856-1.2885 0-2.4669-.2952-3.502-.888-1.0327-.5928-1.8502-1.452-2.4478-2.5728-.6-1.1232-.9012-2.484-.9012-4.08s.2988-2.964.9012-4.0896c.6-1.1232 1.4151-1.98 2.4478-2.5704 1.0351-.5904 2.1992-.8856 3.502-.8856 1.3027 0 2.4525.2952 3.4876.8856 1.035.5904 1.8549 1.4472 2.4573 2.5704s.9036 2.4864.9036 4.0896zm-3.1338 0c0-1.0392-.153-1.9128-.4614-2.6256-.306-.7128-.7386-1.2528-1.2956-1.6224-.557-.3672-1.2095-.552-1.9553-.552-.7459 0-1.4008.1848-1.9578.552s-.9896.9096-1.2956 1.6224c-.3084.7128-.459 1.5864-.459 2.6256s.153 1.9104.459 2.6256c.3084.7128.741 1.2528 1.2956 1.62.557.3672 1.2096.552 1.9578.552s1.3983-.1848 1.9553-.552c.5594-.3672.9896-.9096 1.2956-1.62.3084-.7128.4614-1.5864.4614-2.6256z"/><path d="m68.8105 41.2632v-14.688h5.8566c1.078 0 1.9744.1608 2.6916.4824.7195.3216 1.2597.7632 1.6231 1.3296.3609.5664.5426 1.2168.5426 1.9536 0 .5736-.1124 1.0776-.3418 1.5096-.2295.432-.5427.7848-.9395 1.0608-.3968.2736-.851.468-1.3601.5832v.144c.5569.024 1.0781.1824 1.5681.4728.4876.2928.8844.7008 1.188 1.2216.3036.5232.459 1.1472.459 1.8696 0 .78-.1936 1.4736-.5761 2.0832s-.9466 1.092-1.6948 1.4448-1.6685.5304-2.7657.5304h-6.2486zm3.0932-8.5416h2.2925c.4231 0 .8031-.0744 1.133-.2256.3299-.1488.5928-.3624.7865-.6408.1936-.2784.2892-.6096.2892-.9984 0-.5304-.1888-.9576-.5618-1.284-.3729-.3264-.9035-.4872-1.5896-.4872h-2.3498zm0 6.0024h2.5219c.8606 0 1.4893-.1656 1.8861-.4968.3944-.3312.5928-.7752.5928-1.3296 0-.408-.098-.7656-.294-1.0776-.1937-.3096-.4733-.5544-.8319-.732-.3609-.1776-.7864-.2664-1.2836-.2664h-2.5936v3.9024z"/><path d="m81.3101 41.2632v-2.496l.4135-.0336c.5331-.0432.9633-.2472 1.2932-.612.3299-.3672.5737-.9504.741-1.7592.1626-.8064.2702-1.8888.318-3.2496l.2414-6.5352h9.9298v14.688h-3.0072v-12.1992h-4.0517l-.2271 5.1144c-.0765 1.644-.2701 2.988-.5833 4.0296-.3107 1.0416-.8079 1.812-1.4868 2.3088-.6765.4968-1.6064.7464-2.7801.7464h-.8007z"/><path d="m96.3862 41.2632v-14.688h9.8578v2.5608h-6.7646v3.5016h6.2586v2.5584h-6.2586v3.5064h6.7936v2.5608h-9.8844z"/><path d="m108.14 41.2632v-14.688h3.093v6.06h6.28v-6.06h3.086v14.688h-3.086v-6.0672h-6.28v6.0672z"/><path d="m122.624 41.2632v-14.688h3.093v6.06h6.279v-6.06h3.086v14.688h-3.086v-6.0672h-6.279v6.0672z"/><path d="m140.26 34.5792h3.337l-3.557 6.684h-3.414l3.636-6.684zm7.893 6.684h-3.086v-12.1488h-2.087c-.595 0-1.087.0864-1.482.2616-.392.1752-.688.4296-.882.7632-.194.336-.294.7464-.294 1.2336s.098.8856.294 1.212.488.5688.88.732c.389.1632.879.2424 1.472.2424h3.356v2.496h-3.858c-1.118 0-2.075-.1848-2.871-.5592-.796-.372-1.403-.9096-1.821-1.6104s-.629-1.5384-.629-2.5128.206-1.8168.619-2.5368c.411-.72 1.009-1.2768 1.793-1.6704.782-.3936 1.726-.5928 2.833-.5928h5.765v14.688z"/><path d="m42.7408 20.8703c-4.1187 0-7.0255-3.0864-7.0255-7.5576 0-4.47119 2.9498-7.60079 7.047-7.60079 3.3035 0 5.7298 1.9512 6.5043 5.16479l-2.9689.252c-.502-1.53359-1.8-2.49839-3.4924-2.49839-2.2805 0-3.8677 1.84559-3.8677 4.66079s1.5896 4.6608 3.8677 4.6608c1.6924 0 2.9904-.9648 3.4924-2.4984l2.9689.252c-.7745 3.2112-3.1984 5.1648-6.5258 5.1648z"/><path d="m53.8253 20.8272c-.8366 0-1.6733-.2112-2.3832-.6288l.4805-2.7096c.6693.3984 1.3171.6096 1.8597.6096.7315 0 1.3602-.42 1.7809-1.1976l-5.8972-10.95842h3.404l3.9537 7.78802 3.4303-7.78802h3.2629l-5.4573 11.75762c-.9204 2.016-2.4885 3.1272-4.4343 3.1272z"/><path d="m70.6993 20.8703c-4.1187 0-7.0255-3.0864-7.0255-7.5576 0-4.47119 2.9498-7.60079 7.047-7.60079 3.3035 0 5.7298 1.9512 6.5019 5.16479l-2.9689.252c-.502-1.53359-1.8-2.49839-3.4924-2.49839-2.2805 0-3.8677 1.84559-3.8677 4.66079s1.5896 4.6608 3.8677 4.6608c1.6924 0 2.9904-.9648 3.4924-2.4984l2.9689.252c-.7721 3.2112-3.1984 5.1648-6.5234 5.1648z"/><path d="m79.4624 5.94238h12.356v14.69762h-3.0525v-12.13682h-6.2509v12.13682h-3.0526z"/><path d="m113.268 5.94238v14.69522h-3.053v-12.13442h-4.747v1.51202c0 7.8936-.94 10.812-3.471 10.812-.564 0-1.422-.1464-2.1347-.3768l.2107-2.6448c.313.1032.71.1464.898.1464 1.234 0 1.612-2.0568 1.612-8.83922v-3.1704h10.687z"/><path d="m97.5648 5.94238h-3.0526v14.69522h3.0526z"/><path d="m118.847 13.9008v4.1784h2.531c1.317 0 2.197-.8616 2.197-2.1s-.899-2.0784-2.238-2.0784h-2.488zm-3.053-7.95602h3.053v5.39522h2.971c2.907 0 4.977 1.932 4.977 4.6392s-2.07 4.6608-4.934 4.6608h-6.065v-14.69762z"/><path d="m128.858 5.94238h3.055v5.96402h6.334v-5.96402h3.053v14.69762h-3.053v-6.1728h-6.334v6.1728h-3.055z"/><path d="m143.838 5.94238h10.059v2.5608h-7.006v3.38162h6.294v2.5608h-6.294v3.6312h7.109v2.5632h-10.162z"/></g><path d="m23.9041 24v24c-13.1138 0-23.9041-10.8336-23.9041-24s10.7903-24 23.9041-24z" fill="#41cfff"/></g></svg>