<svg viewBox="0 0 107 56" xmlns="http://www.w3.org/2000/svg"><g fill="#fff"><path d="m23.2 12v10.7c0 5.4-2.1 6.8-5.3 6.8s-2.9-.3-4-.6l-.9 6.3c1.5.5 3.9.8 5.7.8 7.5 0 12.2-3.5 12.2-13.2v-10.8s-7.8 0-7.8 0z"/><path d="m61 25.7c-.9-3.2-2.2-5.4-4.6-6.4v-.2c3-1.1 6.1-4.1 6.1-8.5s-1.1-5.6-3.2-7.2c-2.5-2-6-2.7-11.1-2.7s-7.8.3-10.4.7v20.4h10c3.2 0 4.7 1.2 5.6 5.5 1 4.3 1.8 7 2.4 8h8c-.7-1.3-1.7-5.8-2.8-9.7zm-12.4-9.4h-3v-9.5c.5-.1 1.6-.3 3.5-.3 3.6 0 5.7 1.6 5.7 4.8s-2.3 5-6.2 5z"/><path d="m91.5 1v6.5h-9.4v27.9h-7.8v-34.4z"/><circle cx="27.5" cy="4.5" r="4.5"/><circle cx="41.5" cy="31.5" r="4.5"/><circle cx="68.5" cy="4.5" r="4.5"/><path d="m107 15c0 7.6-1.2 15.1-3.5 22.2-2.7 8-9.5 14.1-17.9 15.8-10.1 2-20.7 3-31.6 3s-22.3-1.1-32.8-3.3c-8.4-1.8-15.2-7.8-17.8-15.8-2.3-7-3.4-14.4-3.4-21.9s.5-9.5 1.4-14h8.2c-1 4.5-1.6 9.2-1.6 14s1 13.2 3 19.4c1.7 5.3 6.2 10.3 11.8 11.5 10 2.1 20.4 3.1 31.2 3.1s20.4-1 30-2.9c5.6-1.1 10.1-6.1 11.9-11.4 2.1-6.3 3.1-12.9 3.1-19.7s-.5-9.5-1.6-14h8.2c.9 4.5 1.4 9.2 1.4 14z"/></g></svg>