<svg viewBox="0 0 41 21" xmlns="http://www.w3.org/2000/svg"><g fill="#fff"><path d="m35.364 2.64153c-.6772-.60598-1.0693-1.51588-1.1444-2.64153h-4.0823c.0288.81294.1676 1.61823.4127 2.39388.3928 1.2625 1.1156 2.39721 2.0937 3.2869.9561.85002 2.122 1.42907 3.377 1.67722.5624.115 1.135.1722 1.7091.17073h1.302v-4.08236h-1.2945c-.9531 0-1.7692-.27391-2.3658-.8086"/><path d="m27.4713 4.33188c-4.9491 0-11.2677 1.09-9.6468 15.54152h4.3901c-.1689-1.8761-.2927-3.4145-.3058-4.921 0-4.2944 1.1256-6.78956 5.4988-6.61133l.8967.03377v-3.99606c-.2945-.03377-.7392-.04502-.833-.0469z"/><path d="m13.0386 4.37878c-.6135 2.2513-1.392 4.75775-2.1669 7.08222-.5628 1.6885-1.73908 4.8778-1.73908 4.8778h-.18761c-.62474-1.6359-1.17068-3.1893-1.73913-4.8778-.79171-2.32259-1.60593-4.82904-2.21566-7.08222h-4.70897c.8236 2.58712 1.726 5.17049 2.72407 7.79892.99808 2.6284 1.96051 5.193 3.10868 7.6919h5.6789c1.1369-2.5027 2.0975-5.0654 3.1012-7.6919 1.0037-2.62655 1.9079-5.2118 2.7316-7.79892z"/><path d="m39.0243 15.3351c-.7974.3996-1.7842.6754-2.4633.6754-1.2795 0-1.9981-.454-2.2513-2.0037-.1876-1.15-.2646-3.5045-.0451-5.62821h-4.1986c-.2064 2.53271-.2195 4.09361.1107 6.30741.5196 3.4933 2.6265 5.4087 6.1554 5.3844 1.2832 0 2.3901-.2665 3.9491-1.0844z"/></g></svg>