<svg xmlns="http://www.w3.org/2000/svg" viewBox="0 0 127.18 131.2"><defs><clipPath id="clippath"><path d="m59.85 123.72 1.09-7.64c1.53-10.73 12.6-22.98 23.31-34.83 12.86-14.24 26.17-28.96 26.17-43.78 0-12.9-7.08-25.91-22.9-25.91-9.71 0-21.58 5.67-28.67 17.91l-.58 1.04a43 43 0 0 0-2.8 6.37c-2.89-7.29-8.87-11.7-16.18-11.7-11.18 0-23.06 10.65-23.06 30.38 0 24.67 14.42 37.21 26.01 47.29 5.71 4.97 10.65 9.26 13.17 14.17l3.94 7.65.51-.94Z" style="fill:none"/></clipPath><style>.cls-1{fill:#7c4830}.cls-3{fill:#fde000}.cls-4{fill:#fbdd00}.cls-5{fill:#fde200}.cls-6{fill:#d93121}.cls-7{fill:#fff}.cls-8{fill:#cdba89}.cls-9{fill:#0069bf}.cls-11{fill:#ccb280}</style></defs><g id="ANDORRA" style="clip-path:url(#clippath)"><path d="M65.79 11 169.71.82v126.09L65.8 137.09V11Z" style="fill:#d90039"/><path d="m-1.07 10.61 44.33-4.18v126.09l-44.33 4.18z" style="fill:#0e02a8"/><path d="M39.84-1.8h29.93v123.58H39.84z" class="cls-3"/><path d="M51.91 54.81c1.05-.11 1.47.74 2.52.63.65-.07 1.02-.32 1.59-.7.39-.26.64-.41 1.09-.46s.75.06.98.43c.13.21.24.64.19.89-.08.4-.21.79-.37 1.16-.09.22-.18.36-.18.59 0 .56.76.67 1.27.62.11-.01 1.05-.09 1.63-.74-.31.02-.67-.19-.67-.5 0-.36.25-.62.59-.76.06-.03.17.02.23-.02.08-.05.04-.14.12-.21.17-.15.28-.25.49-.27.12-.02.24 0 .34.07.06.04.08.09.16.08.16-.02.23-.12.39-.14.11-.02.22 0 .31.04s.09.19.19.18c.05 0 .33-.15.47-.16.3-.03.46.06.65.27.05.06.09.18.14.17a.77.77 0 0 1 .66.33c.04.05.09.19.15.2.08 0 .16.03.23.06.23.12.37.35.38.62-.01.1-.03.2-.07.29-.26.92-.86 1.27-1.48 2.1-.26.35-.47.64-.47 1.06 0 .1.12.27.18.35-.03-.19.06-.44.26-.48.28-.04.52.15.54.43 0 .08-.01.17-.05.25.16-.12.35-.21.54-.25.09-.02.17-.03.26-.04.46-.04.96.17 1.26.39.93.69 1.05 1.84 1 2.17-.11.73-.04 2.02-1.87 2.73.34.11.57.34.57.65 0 .34-.26.65-.6.7a.53.53 0 0 1-.47-.14c-.38.42-.45.82-.45 1.35 0 .28.06.55.2.78.14.29.25.46.5.66.14-.22.28-.39.53-.41s.44.03.54.24c.03.06 0 .12.04.18.04.08.12.09.16.17.07.12 0 .24.06.36.04.08.12.09.16.17.05.11.08.23.07.36 0 .41-.37.74-.78.78-.12.01-.19-.03-.31 0 .23.21.41.29.59.55.26.38.32.66.38 1.13 0 .08.01.15.01.23 0 .61-.1.99-.37 1.56-.26.55-.48.86-.96 1.25-.74.61-1.28.82-2.17 1.09-.49.15-.99.27-1.49.35l-1.91.3c-.98.17-1.65.38-2.34 1.14.33.2.55.42.55.82s-.26.74-.65.91c-.09.04-.16.02-.25.07-.1.06-.1.18-.2.25-.15.12-.33.18-.52.19-.37.04-.61-.02-.87-.25-.3.28-.4.51-.74.74-.11.07-.17.16-.29.18-.2.02-.29-.1-.45-.2-.22-.13-.43-.3-.6-.49-.31.21-.49.38-.85.42-.19.03-.38 0-.54-.09-.1-.05-.11-.14-.21-.19s-.19-.02-.29-.06c-.41-.13-.68-.41-.68-.86 0-.39.25-.67.6-.87-.68-.61-1.35-.66-2.31-.62l-1.9.1c-.5.02-1 0-1.5-.04-.44-.03-.7-.02-1.1-.17-1.39-.5-2.27-1.3-2.46-2.8-.01-.11-.02-.22-.01-.34 0-.79.31-1.31.87-1.93-.14-.02-.24.04-.38 0-.35-.09-.6-.31-.6-.68-.01-.12.02-.24.07-.36.05-.09.14-.12.16-.21.03-.13 0-.21.05-.34.04-.08.11-.11.15-.19.12-.26.27-.48.55-.51.24-.03.39.08.52.28.23-.13.3-.31.43-.55.22-.39.32-.66.32-1.08 0-.26-.04-.51-.12-.74-.07-.2-.1-.33-.25-.47-.12.14-.29.23-.47.23-.39.03-.7-.26-.69-.65 0-.27.15-.54.41-.67-.21-.16-.39-.16-.63-.28-.35-.19-.48-.41-.71-.74-.15-.21-.19-.37-.27-.62-.1-.26-.15-.53-.15-.82 0-.07 0-.15.01-.22.09-.68.21-1.11.63-1.67.25-.34.42-.55.79-.75.31-.17.5-.29.84-.32.09-.01.18-.02.26-.02.14 0 .27.02.39.07.05.02.15.1.15.04 0-.07-.04-.1-.04-.17 0-.28.2-.56.48-.59.2-.02.29.15.39.32.06-.1.1-.21.1-.32 0-.47-.25-.68-.54-1.01-.63-.72-1.42-1.01-1.42-2.02 0-.3.15-.52.41-.71.08-.05.18-.02.25-.07.06-.05.06-.13.1-.2q.09-.135.21-.24c.14-.14.27-.12.43-.24.08-.06.1-.14.16-.22.18-.23.34-.35.62-.38.12-.02.24-.02.35.02.04.01.13.07.14.06.05-.07.12-.13.19-.18.09-.06.19-.1.3-.11.15-.02.25.06.4.04.06 0 .07-.06.11-.1.13-.1.21-.16.37-.18.14-.01.27.02.37.1.12.07.14.17.27.23.07.03.13 0 .21.03.35.08.61.29.61.65.01.18-.06.36-.2.49-.12.12-.23.11-.38.18.49.34.91.39 1.54.32.57-.06 1.27-.37 1.27-.94 0-.27-.15-.39-.25-.63-.19-.41-.29-.66-.29-1.13 0-.37.04-.61.26-.93.22-.34.5-.44.88-.48Z" class="cls-11"/><path d="M48.56 58.58h-.12a.47.47 0 0 1-.37-.32v-.01s0-.03.01-.04l.69-.77s.04-.02.06-.01c.12.07.2.17.25.3.07.19.04.41-.08.6-.11.15-.27.25-.44.27Zm-.4-.34c.05.13.16.22.29.25.18.02.36-.07.47-.22.1-.16.13-.35.07-.51a.5.5 0 0 0-.19-.24zM66.06 72c-.1.01-.2 0-.3 0q-.3-.06-.57-.18a2.9 2.9 0 0 1-.79-.48 2.8 2.8 0 0 1-.81-1.47c-.1-.54-.09-1.1.03-1.66.22-.92.88-1.95 1.68-2.03.2-.02.35-.03.48.04.15.08.26.22.31.38.05.17.03.37-.06.55-.08.15-.21.27-.37.32-.21.08-.43.05-.58-.06-.09-.07-.2-.21-.16-.48.02-.13.15-.26.3-.3.17-.04.32.04.39.22 0 .02 0 .05-.02.06s-.05 0-.06-.02c-.06-.14-.17-.2-.3-.17-.11.03-.21.12-.22.21-.02.18.03.32.13.41.12.09.32.11.5.05.13-.05.24-.15.31-.27.08-.15.1-.32.05-.48a.65.65 0 0 0-.27-.34c-.11-.06-.24-.05-.43-.03-.76.08-1.39 1.07-1.6 1.95q-.18.825-.03 1.62c.11.56.38 1.05.78 1.42.23.19.49.35.77.47.18.07.37.13.56.17.17.03.34.01.51-.04.21-.07.36-.2.44-.37a.6.6 0 0 0-.04-.55.57.57 0 0 0-.52-.28c-.11 0-.28.07-.39.28-.03.06-.05.13-.05.19 0 .11.04.21.12.27.1.05.23.05.31 0 .07-.05.11-.14.1-.25 0-.02.02-.05.04-.05s.05.01.05.04c0 .15-.05.27-.15.34-.11.08-.28.08-.41.01a.4.4 0 0 1-.16-.34q0-.12.06-.24c.11-.2.28-.32.47-.33.23-.02.48.11.59.32.11.2.13.43.04.63s-.27.35-.5.43c-.08.03-.17.05-.25.06Z" class="cls-1"/><path d="m57.45 79.72-.09-.06c.77-1.03 2.1-1.23 3.51-1.43 1.12-.16 2.53-.41 3.46-.89 1.48-.77 1.87-1.66 2.01-2 .02-.04.03-.07.04-.09.12-.24.25-.77.26-1.28 0-.26-.03-.51-.11-.75-.24-.68-.6-1.05-1.32-1.36-.41-.18-.73-.22-1.08-.14-.33.09-.64.29-.86.57l-.08-.06c.24-.3.57-.51.93-.61.37-.08.72-.04 1.15.15.75.32 1.12.71 1.38 1.42.08.25.12.52.12.79-.01.47-.13 1.03-.27 1.33-.01.02-.02.05-.04.09-.15.35-.55 1.27-2.07 2.06-.95.49-2.37.74-3.5.9-1.38.2-2.69.39-3.43 1.38Z" class="cls-1"/><path d="M55.24 81.11c-.53-.05-.77-.36-.77-.65 0-.07 0-.15.01-.23.06-.39.32-.69.6-1l.1-.1c.03-.03.06-.05.08-.08.11-.1.22-.2.35-.28.42-.29.87-.53 1.34-.71l.16-.07q.09-.045.18-.06l.06-.02c.21-.07.41-.12.58-.17.06-.01.11-.03.16-.04.26-.07.5-.11.78-.16.08-.01.16-.03.25-.04.33-.06.66-.09.98-.12l.61-.06c.21-.02.43-.04.69-.08.09-.01.17-.03.25-.04.22-.03.39-.05.64-.11.88-.2 1.46-.42 1.93-.75.67-.47 1.2-1.53.87-2.42-.04-.11-.08-.22-.14-.31l-.15-.2c-.09-.1-.2-.18-.33-.23a.61.61 0 0 0-.74.18c-.11.16-.14.29-.11.42l-.09.04c-.04-.16 0-.32.12-.51.18-.27.55-.36.86-.23.14.06.26.14.36.26l.16.2c.07.11.12.22.15.34.34.94-.21 2.05-.91 2.54-.48.34-1.07.57-1.97.77-.26.06-.43.08-.65.11-.08.01-.16.02-.25.04-.26.04-.48.06-.69.08l-.61.06c-.32.02-.65.06-.98.12-.09.02-.17.03-.25.04-.28.05-.52.09-.77.16-.05.01-.11.03-.16.04-.18.05-.37.1-.58.17l-.06.02-.18.06-.16.07c-.46.18-.9.41-1.31.7q-.18.12-.33.27c-.02.03-.05.05-.08.08l-.1.1c-.28.3-.52.58-.57.94 0 .07-.01.14-.01.21 0 .25.21.52.69.56l-.02.1Zm.38-22.21a.65.65 0 0 1-.64-.32.73.73 0 0 1-.02-.73c.44-.78 1.26-.5 2-.23 0-.02-.01-.04-.02-.06-.03-.09-.06-.17-.05-.32.01-.35.16-.6.32-.86.11-.18.22-.36.29-.57.1-.33.13-.58-.08-.75-.17-.15-.37-.15-.64-.01-.14.07-.29.17-.46.29-.45.3-1 .67-1.81.77-.81.07-1.37-.18-1.82-.39-.17-.08-.32-.15-.46-.19-.28-.08-.47-.03-.64.15-.2.22-.18.46-.08.77.07.2.18.36.29.51.16.23.31.44.32.79 0 .16-.02.24-.05.34 0 .02-.01.04-.02.06.75-.43 1.6-.91 2-.19.12.22.11.51-.04.76-.14.24-.36.4-.62.42s-.44-.1-.53-.36c-.06-.2-.02-.42.12-.59l.08.05c-.11.15-.15.34-.1.5.07.21.23.32.43.3.22-.02.42-.16.53-.37.13-.22.14-.48.04-.67-.36-.65-1.13-.21-1.88.22l-.18.1.02-.1c.01-.07.03-.12.05-.17.03-.09.05-.16.05-.3 0-.32-.15-.52-.31-.74-.11-.16-.23-.32-.3-.54-.09-.27-.16-.58.1-.87.2-.21.43-.27.75-.18.15.04.31.11.47.19.44.2.98.45 1.77.38.78-.09 1.33-.46 1.76-.75.17-.11.33-.22.47-.29.31-.16.55-.15.75.02.27.23.19.56.1.85-.07.23-.19.42-.3.6-.15.25-.3.48-.31.81 0 .14.02.21.05.29.02.04.03.1.05.16l.02.09-.13-.05c-.75-.27-1.52-.55-1.92.16-.11.19-.1.43.02.63s.33.3.55.28c.21-.02.36-.16.43-.39.06-.19 0-.29-.1-.48l.09-.06c.12.2.18.33.11.56-.08.27-.27.44-.53.47Z" class="cls-1"/><path d="M53.79 59.1s-.03 0-.04-.02c-.02-.02 0-.05.01-.07l.01-.01s-.01-.01-.01-.02c0-.02 0-.05.03-.06a.43.43 0 0 0 .27-.41c0-.03.02-.05.05-.05v-.05c.02-.26-.07-.44-.31-.6-.02-.01-.03-.04 0-.07.02-.02.05-.03.07-.02.18.12.38.3.35.68-.03.37-.12.47-.4.69 0 0-.02.01-.03.01" class="cls-1"/><path d="m48.7 57.4.09.06.1.1.07.13.03.11v.25l-.03.12-.07.09-.08.1-.11.07-.15.05-.13.03-.14-.05-.12-.07-.07-.1-.05-.13v-.05l.66-.7Z" class="cls-11"/><path d="M50.22 59.47c-.75.08-1.38-.03-1.88-.32-.55-.32-1.08-.73-.82-1.38.09-.22.26-.39.48-.47.25-.09.54-.07.75.07h.02c.29.19.35.58.15.88-.13.19-.35.29-.57.27a.47.47 0 0 1-.36-.3.43.43 0 0 1 .06-.38c.06-.08.16-.12.26-.11.11.02.2.1.22.22 0 .02-.01.05-.04.06-.02 0-.05 0-.05-.03-.02-.08-.07-.14-.15-.15-.07 0-.13.02-.17.07-.06.09-.08.19-.04.3.04.13.15.22.3.25.17.02.36-.07.47-.22.17-.26.12-.59-.13-.74h-.02a.73.73 0 0 0-.67-.08c-.2.07-.35.22-.42.42-.23.59.27.97.79 1.27.5.29 1.13.39 1.88.3 1.12-.13 1.98-.7 2.61-1.12.06-.04.12-.08.17-.11.16-.1.33-.11.42 0 .11.12.09.31-.04.44-.02.02-.05.02-.06 0-.02-.02-.01-.05 0-.06.09-.09.1-.23.03-.31-.06-.07-.19-.06-.31.02-.05.04-.11.07-.17.11-.6.4-1.51 1-2.65 1.14h-.05Zm-6.35 17.2h-.09l.03-.2.05-.26.07-.22.16-.29.13-.2.3-.25.28-.13.03.08-.27.13-.27.24-.12.18-.15.28-.07.21-.05.25-.03.19Zm1.62-.27-.02-.09.2-.07.14-.08.19-.18.18-.26.12-.3.04-.17.02-.24h.09l-.02.24-.04.18-.13.32-.2.28-.21.19-.16.09-.21.07Zm8.25 4.97-.02-.1.09-.03c.54-.17.66-.51.68-.61h.1c-.03.13-.16.52-.76.71zm3.8-1.64-.09-.07c.78-1 2.09-1.19 3.48-1.39 1.12-.16 2.53-.41 3.46-.89 1.48-.77 1.86-1.66 2.01-2 .02-.04.03-.07.04-.09.12-.24.25-.77.26-1.28 0-.26-.03-.51-.11-.75-.12-.38-.34-.71-.63-.96l.08-.09c.31.26.54.61.67 1.01.08.25.12.52.12.79-.01.47-.13 1.03-.27 1.33-.01.02-.02.05-.04.09-.15.35-.55 1.28-2.07 2.06-.95.49-2.37.74-3.5.9-1.36.2-2.65.38-3.39 1.34Z" class="cls-1"/><path d="M64.8 73.44a.67.67 0 0 0-.31-.24c-.3-.13-.65.09-.73.21l-.07-.04c.11-.16.51-.4.84-.25.13.05.25.14.34.26l-.07.05Zm1.33-1.35c-.1.01-.21 0-.31-.02l-.2-.05.04-.12.19.05c.16.03.34.02.5-.04.19-.08.33-.21.41-.37.07-.16.07-.35-.02-.53a.56.56 0 0 0-.22-.24l.07-.1c.11.07.2.17.25.28.1.22.1.43.01.63s-.26.35-.48.44c-.09.03-.18.05-.26.06Zm-23.38-6.36h-.01c-.02 0-.04-.03-.03-.05.08-.33.2-.66.36-.97.14-.19.28-.27.44-.37.07-.04.14-.09.22-.15.02-.02.05-.01.06 0 .01.02 0 .05-.01.06-.08.06-.16.11-.23.15-.15.09-.28.17-.41.33-.16.3-.27.62-.35.95 0 .02-.02.04-.04.04Zm5.85-7.19s-.04-.01-.04-.03.01-.05.03-.06c.23-.07.37-.23.37-.42 0-.02.02-.05.05-.05s.05.02.05.04c0 .24-.16.43-.44.52Zm17.1 7.72-.03-.08c.56-.21 1.86-.69 1.84-2.81 0-.79-.25-1.41-.74-1.83-.61-.53-1.4-.59-1.74-.55v-.09c.34-.04 1.17.02 1.8.57.5.44.76 1.07.76 1.89.01 2.19-1.38 2.71-1.9 2.9Z" class="cls-1"/><path d="m65.89 66.15-.02-.08c.46-.17 1.63-.96 1.59-2.58-.02-.98-.31-1.72-.83-2.15-.38-.32-.89-.45-1.43-.37v-.09c.55-.08 1.08.05 1.49.39.53.44.83 1.21.85 2.21.04 1.67-1.18 2.49-1.66 2.67Zm-2.15 8.37-.02-.07.21-.07.16-.1.08-.09.06-.1.04-.17v-.11h.08v.12l-.05.19-.07.12-.1.11-.18.11-.22.07Zm-20.73-.07h-.17v-.07H43l.2-.04.2-.09.03.07-.22.1-.21.04Zm21.62-5.81h-.08l.02-.22.07-.36.1-.29.12-.24.15-.2.06.04-.15.19-.11.23-.1.27-.07.35-.02.21Zm.88-1.1h-.12l.01-.08h.11l.13-.02.16-.07.1-.08.09-.14.05-.14.02-.21h.08l-.02.22-.06.15-.11.17-.12.1-.18.08-.15.03Zm-21.94 2.3v-.08l.08-.02.12-.03.09-.05.08-.07.06-.08.04-.08.03-.19h.08l-.03.21-.04.09-.07.1-.1.08-.11.06-.13.03-.09.02Zm.49-1.31-.02-.07.31-.11.15-.09.15-.13.11-.17.05-.12.05-.29h.08l-.05.31-.06.13-.13.19-.16.14-.17.1-.32.11Zm1.38-4.85h-.09v-.07h.08l.14-.05.16-.09.14-.14.1-.15.07-.13.06-.17.07.02-.06.18-.08.14-.1.16-.16.16-.17.1-.16.05Zm-.07-.74v-.13h.07v.13zm18.13-2.4h-.07l.05-.25.1-.22.13-.23.23-.32.18-.22.54-.61.16-.2.21-.27.18-.3.11-.23.06-.3.02-.36-.03-.1.07-.03.04.11-.02.38-.06.32-.11.24-.19.3-.21.28-.16.2-.54.61-.18.22-.22.31-.13.22-.1.22-.05.23Zm2.52 11.01c-.06 0-.13 0-.18-.03h-.02c-.02 0-.04 0-.06-.02q-.03-.03 0-.06t.06 0h.05c.09.05.25.01.34-.07.05-.05.1-.13.06-.24 0-.02 0-.05.03-.06.02-.01.05 0 .06.02.05.12.02.25-.08.34-.07.07-.17.11-.26.12m-20.65-3.98s-.03 0-.04-.02c0-.02 0-.05.02-.06.1-.05.19-.12.27-.2q.03-.03.06 0c.02.02.01.04 0 .06-.09.09-.19.16-.3.22h-.02Z" class="cls-1"/><path d="M54.55 82.57h-.01c-.43-.12-.86-.47-1.05-.75l.07-.05c.18.26.59.6 1 .71.4-.2.81-.62 1-.92l.07.04c-.19.32-.63.76-1.05.96h-.01Zm2.92-2.88-.06-.06.24-.25.17-.15.32-.23.3-.18.22-.08.42-.14.49-.13v.08l-.47.13-.42.14-.21.08-.29.17-.31.23-.17.14-.24.25Zm9.22-8.89h-.08a.49.49 0 0 0-.15-.45.4.4 0 0 0-.11-.09l.04-.06c-.04-.17-.2-.3-.42-.31v-.09c.3.02.5.19.52.44.02.01.03.03.04.04.14.12.21.31.18.51Zm-1.33-.47c-.06-.04-.12-.08-.18-.13-.38-.36-.59-.86-.6-1.42 0-.55.21-1.17.5-1.44l.04.05.03-.03c.13.16.38.16.55.1.13-.05.25-.15.31-.28.08-.15.1-.33.05-.48a.6.6 0 0 0-.11-.2.7.7 0 0 0-.18-.17s-.01 0-.02-.01c0 0-.01 0-.02-.01l.05-.08s.02.01.02.02a.9.9 0 0 1 .22.19c.05.06.1.14.12.22.05.17.03.37-.06.54-.08.15-.21.27-.37.32-.19.07-.47.07-.63-.1-.22.24-.44.79-.44 1.34 0 .53.21 1.01.57 1.36.05.04.11.09.17.12l-.05.07Z" class="cls-1"/><path d="M53.52 81.83h-.03c-.02-.01-.02-.04 0-.06.14-.17.24-.37.29-.57 0-.02.03-.04.05-.04s.04.03.03.05c-.06.22-.16.43-.31.61 0 .01-.02.02-.03.02Z" class="cls-1"/><path d="M54.51 82.53h-.01c-.39-.11-.79-.41-1-.67l-.12.13-.24.16-.26.11-.03-.08.26-.11.22-.15.12-.13.07-.05c.18.26.59.6 1 .71.4-.2.81-.62 1-.92l.07.04c-.19.32-.63.76-1.05.96h-.01Zm-.67-1.31h-.08l.06-.31h.08zm11.53-10.89c-.53-.34-.86-.95-.86-1.62 0-.55.21-1.17.5-1.44l.06.06c-.23.22-.47.8-.47 1.37 0 .64.31 1.22.83 1.55l-.05.07ZM52.1 58.19l-.08-.03c.05-.11.07-.22.07-.34 0-.32-.15-.53-.3-.75-.11-.16-.22-.32-.29-.53-.1-.29-.18-.62.08-.89.24-.26.55-.21.76-.15.15.04.31.11.47.19.44.2.98.45 1.77.38v-.04c.74-.12 1.42-.55 1.86-.83.2-.13.35-.23.45-.26.3-.09.45-.07.65.09l-.06.07c-.17-.13-.36-.13-.63 0-.14.07-.29.17-.46.29-.44.3-1 .67-1.81.77v-.04.04c-.81.07-1.37-.18-1.81-.39-.16-.07-.31-.14-.44-.18h-.02c-.28-.08-.48-.03-.64.15-.21.22-.18.46-.08.77.07.2.18.36.29.52.16.23.31.44.32.79 0 .13-.02.25-.06.37h-.03Zm1.35.4h-.03q-.03-.03 0-.06c.09-.1.1-.24.02-.33-.06-.07-.22-.06-.34.02l-.31.21s-.05 0-.06-.01c-.01-.02 0-.05.02-.06l.31-.21c.16-.1.35-.11.44 0 .11.12.1.31-.02.44 0 0-.02.01-.03.02Z" class="cls-1"/><path d="M57.16 80.86c-.2.02-.38-.08-.46-.26l.08-.04c.07.16.25.25.43.2.02 0 .03 0 .04-.01.06-.02.12-.07.16-.13s.05-.13.03-.19c0-.03-.02-.07-.04-.1a.3.3 0 0 0-.09-.11l.05-.07s.09.08.11.13c.02.04.04.08.05.12.02.09 0 .18-.04.26s-.12.14-.21.17c-.02 0-.04.01-.05.01h-.06ZM66 71.55c-.07 0-.15 0-.25-.04-.06-.02-.13-.05-.2-.09l-.05-.02c-.33-.15-.76-.42-1.16-1.12-.1-.18-.18-.38-.24-.59-.04-.15-.06-.3-.07-.45 0-.29.02-.58.08-.86.08-.46.27-.91.56-1.31.14-.21.29-.39.61-.43v.09c-.26.03-.38.15-.54.39-.28.38-.47.82-.55 1.27-.06.28-.09.57-.08.84 0 .15.03.3.07.44.05.2.13.4.23.57.39.69.8.94 1.12 1.09l.05.03.19.08c.17.06.23.06.36 0l.03.08a1 1 0 0 1-.17.06Zm-21.34-5.08c-.29.03-.56-.03-.8-.16-.27-.15-.46-.39-.54-.7l.08-.03c.07.28.25.51.5.65.24.13.51.19.79.15.44-.06.86-.3 1.16-.65.15-.18.24-.37.24-.51.01-.15-.05-.29-.16-.36-.01.02-.03.04-.04.07-.16.22-.45.53-.95.72-.3.11-.62.11-.89-.01l.04-.08c.25.11.55.12.82.01.86-.33 1.18-1.06 1.18-1.43 0-.29-.12-.55-.34-.71l.05-.07c.24.17.38.46.37.77 0 .2-.07.43-.2.66.14.09.22.25.2.44 0 .15-.1.36-.26.56-.31.38-.76.63-1.22.69h-.04Zm6.49-7.11v-.04h-.04l-.02-.08c.76-.24 1.38-.65 1.8-.93l.03.04h.01l.04.07c-.42.28-1.06.7-1.82.94" class="cls-1"/><path d="M52.74 82.29v-.08l.23-.06v.08zm4.35-.81v-.08l.23-.05.23-.12.15-.11.21-.28.04-.09.03-.23v-.1h.1v.11l-.05.25-.05.11-.23.3-.16.12-.25.13-.25.05Zm-2.5-4.96-.03-.04c-.08-.1-.49-.31-.85-.42a2.7 2.7 0 0 0-.69-.12c-.26-.02-.52 0-.77.03s-.51.07-.76.13c-.17.03-.3.06-.42.1-.15.04-.3.07-.49.11-.29.06-.58.09-.87.11-.31.03-.63.02-.94-.02-.31-.02-.62-.09-.9-.21-.3-.11-.57-.27-.8-.48l-.08-.07.06-.07.08.07c.22.2.49.36.78.46.28.11.58.18.88.2.3.04.61.04.92.02.29-.02.57-.06.86-.11.19-.03.34-.07.49-.11l.43-.1c.25-.06.51-.1.76-.13.26-.04.53-.04.79-.03.24.01.48.05.71.12.32.1.71.28.85.41.14-.15.53-.42.85-.59.23-.12.47-.21.71-.27.26-.07.52-.12.79-.14.25-.02.51-.03.76-.03h.43c.15 0 .3.01.49 0 .28 0 .57-.03.86-.07.31-.04.62-.11.92-.21.31-.09.6-.22.88-.39.29-.16.55-.38.78-.63.23-.24.42-.52.56-.82l.08.03c-.14.31-.34.59-.58.84-.23.26-.5.48-.8.65-.28.17-.59.3-.9.39-.31.1-.62.17-.94.21-.29.04-.58.07-.87.07h-.91c-.25 0-.51 0-.76.03-.26.02-.52.07-.77.14q-.36.09-.69.27c-.36.18-.77.48-.85.6l-.03.05Zm-8.92-7.08-.04-.07c.23-.16.39-.4.47-.66l.08.02c-.08.28-.26.54-.51.71m-.26-1.87-.04-.07c.09-.06.18-.13.26-.21.34-.33.48-.63.48-.98 0-.27-.06-.44-.22-.56l.06-.07c.17.14.24.33.24.62 0 .38-.15.7-.51 1.05-.08.08-.17.16-.27.22m17.54-4.32h-.09v-.67h.09v.11h.04v.48h-.04zm0-1.13h-.09v-1.2h.09v.19h.04v.88h-.04zm-17.54 1.61a.76.76 0 0 1-.49-.12l.05-.07c.16.11.43.16.65.04.23-.12.4-.33.47-.57l.08.02c-.08.27-.27.49-.52.62-.08.04-.16.07-.25.08Zm19.04-2.51-.08-.02c.06-.22.04-.43-.06-.54-.06-.08-.16-.11-.27-.09v-.09c.14-.02.25.02.34.12.12.14.14.37.07.62M44.37 64.6c-.05 0-.1 0-.15-.02-.02 0-.03-.03-.02-.06.01-.02.04-.03.06-.02.08.03.16.02.22-.03.07-.06.11-.17.09-.28-.03-.14-.15-.23-.3-.23-.02 0-.04-.02-.04-.04s.02-.04.05-.04c.19 0 .34.11.38.29.02.15-.02.29-.12.37-.05.04-.1.06-.16.07Zm.13 13.71c-.46-.4-.88-1.2-.57-2.11q.06-.18.15-.36l.16-.24c.1-.13.22-.25.36-.33.28-.17.62-.15.84.05.13.15.2.4.07.58-.1.14-.19.13-.27.12h-.03c-.06 0-.08-.04-.1-.07-.01-.01-.02-.03-.03-.04l.06-.07s.03.03.04.05c.02.03.03.04.05.04h.03c.07.01.11.02.18-.08.1-.14.04-.35-.06-.47-.19-.17-.49-.19-.74-.04-.13.08-.24.18-.33.31l-.15.23c-.06.11-.11.22-.14.34-.3.87.11 1.64.55 2.03l-.06.07Zm12.62 2.52a.42.42 0 0 1-.44-.26c0-.02 0-.05.02-.06s.05 0 .06.02c.06.16.23.24.41.2.02 0 .03 0 .04-.01.13-.04.22-.19.19-.32 0-.04-.02-.07-.03-.1-.02-.03-.05-.06-.08-.09q-.03-.03 0-.06c.03-.03.04-.02.06 0 .03.03.07.07.09.1.02.04.04.08.04.13.04.17-.07.37-.25.42-.02 0-.04.01-.05.01-.02 0-.04 0-.06.01Z" class="cls-1"/><path d="M52.63 82.27h-.16c-.27 0-.54-.17-.58-.32l.08-.03c.03.11.26.27.51.27.32.01.63-.12.87-.36.28-.29.44-.67.44-1.05 0-.22-.05-.44-.16-.63-.4-.6-.88-.76-1.53-.98l.03-.08c.64.22 1.15.39 1.57 1.01.11.2.17.43.17.67 0 .4-.17.81-.47 1.11-.22.22-.49.35-.78.38Zm12.85-11.48a.48.48 0 0 1-.15-.37c0-.27.19-.53.46-.6.29-.07.57.1.61.39l-.08.02a.414.414 0 0 0-.52-.33c-.23.06-.39.27-.39.5 0 .12.05.23.13.31l-.06.07Zm-19.85-1.38-.04-.07c.34-.24.54-.64.52-1.03 0-.42-.14-.69-.51-.93l.05-.07c.39.26.54.54.54 1 .02.42-.2.85-.56 1.11Zm-2.22-1.8c-.05-.03-.11-.07-.16-.11a.8.8 0 0 1-.15-.16 1.9 1.9 0 0 1-.32-.75c-.06-.3-.07-.61-.02-.92.08-.37.18-.67.32-.88.17-.25.41-.44.68-.56l.03.08c-.25.1-.48.29-.63.52-.13.2-.23.48-.31.84-.04.3-.04.6.02.88.05.26.16.5.31.72.04.05.08.1.13.15.05.04.1.07.15.1l-.05.08Zm21.11-3.96c-.14.01-.28 0-.44-.02-.5-.09-.8-.33-.95-.52-.18-.22-.29-.49-.29-.74 0-.29.12-.59.34-.81-.23-.19-.34-.5-.34-.97 0-.74.63-1.46 1.09-2 .15-.17.28-.32.36-.44l.07-.1c.28-.4.44-.64.44-1.18a.85.85 0 0 0-.81-.83v-.09c.51.02.88.4.9.9 0 .57-.18.84-.46 1.24l-.07.1c-.09.13-.22.28-.37.45-.45.52-1.07 1.23-1.07 1.93 0 .59.17.91.56 1.04.26.09.56-.08.68-.2.19-.19.21-.43.17-.58-.05-.16-.16-.26-.3-.27a.31.31 0 0 0-.28.13c-.06.1-.07.22-.02.3.04.06.11.09.21.06v.08c-.12.03-.22 0-.28-.1-.07-.1-.06-.27.03-.39.08-.12.21-.19.36-.18.18.01.31.13.37.32.07.23 0 .49-.19.67-.14.14-.48.33-.78.23a1 1 0 0 1-.2-.1c-.21.2-.32.48-.32.75 0 .38.32 1.03 1.18 1.19.33.06.63.01.81-.12l.04.07a1 1 0 0 1-.44.15Z" class="cls-1"/><path d="M45.46 72.83h-.03c-.02-.01-.02-.04 0-.06.5-.65.69-1.2.68-1.89-.02-.81-.3-1.17-.85-1.8a.06.06 0 0 1 0-.06c.02-.02.05-.02.06 0 .55.62.86 1.01.87 1.85.01.72-.19 1.28-.7 1.95 0 .01-.02.02-.03.02Zm17.48-.28h-.08l.04-.24c.01-.1.02-.2.02-.29v-2.23h.09v2.18c0 .11 0 .23-.01.34l-.04.24Zm-6.95-13.7-.03-.03s-.03.02-.04.04l-.05-.07c.1-.08.17-.18.2-.3.07-.22.06-.37-.04-.49l.07-.06c.15.18.15.34.12.55-.03.14-.11.23-.21.33l-.02.02Z" class="cls-1"/><path d="M54.59 82.6h-.01c-.41-.11-.82-.44-1.02-.71-.26.29-.64.46-1 .45-.24 0-.47-.11-.61-.3-.26 0-.51-.09-.69-.27-.02-.02-.03-.03-.04-.05l.07-.06s.02.03.04.04c.17.17.41.26.66.25V82l.03-.02c.13.17.33.27.55.27.35 0 .7-.16.94-.43l-.02-.03.07-.05.04.06c.18.26.59.6 1 .71.4-.2.81-.62 1-.92l.04.02.04-.04s.06.06.1.08c.24.19.56.25.87.18.21-.05.41-.19.52-.39.03-.03.05-.06.06-.1l.08.02s-.04.08-.07.12c-.12.21-.34.37-.58.43-.34.08-.68.01-.94-.19-.02-.02-.05-.04-.07-.06-.2.31-.62.73-1.03.92h-.01Zm-.09-2.41c-.09-.28-.31-.48-.54-.69l.06-.07c.24.21.47.43.56.72l-.08.03Zm-2.9.11c-.76-.76-2.02-.68-3.36-.59-1.13.07-2.55.12-3.5-.17-.62-.19-1.12-.46-1.49-.81l.06-.07c.36.34.85.61 1.46.8.93.29 2.34.24 3.47.16 1.35-.09 2.63-.17 3.42.61l-.06.06Zm2.95-3.81-.03-.04c-.08-.1-.49-.31-.85-.42q-.33-.105-.69-.12c-.25-.02-.51 0-.77.03-.25.03-.51.07-.76.13-.17.03-.3.06-.42.1-.15.04-.3.07-.49.11-.29.06-.58.09-.87.11-.32.03-.63.02-.94-.02-.31-.02-.62-.09-.9-.21-.3-.11-.57-.27-.8-.48-.12-.1-.24-.22-.34-.35l.07-.06c.1.12.21.24.33.34.23.21.49.36.78.46.28.11.58.18.88.2.3.04.61.04.92.02.29-.02.57-.06.86-.11.19-.03.34-.07.49-.11l.43-.1c.25-.06.51-.1.76-.13.26-.04.53-.04.79-.03.24.01.48.05.71.12.32.1.71.28.85.41.14-.15.53-.42.85-.58.23-.12.47-.21.71-.27.26-.07.52-.12.79-.14.25-.02.51-.03.76-.03h.43c.15 0 .3.01.49 0 .28 0 .57-.03.86-.07.31-.04.62-.11.92-.21.31-.09.6-.22.88-.39.29-.16.55-.38.78-.63.23-.24.42-.52.56-.82l.05-.1.08.03-.05.1c-.14.31-.34.59-.58.84-.23.26-.5.48-.8.65-.28.17-.59.3-.9.39-.31.1-.62.18-.94.21-.29.04-.58.06-.87.07h-.91c-.25 0-.51 0-.76.03-.26.02-.52.07-.77.14q-.36.09-.69.27c-.36.18-.76.48-.85.6l-.03.05Zm-9.1-.04c-.52.05-.68-.28-.72-.38l.08-.04c.03.09.18.38.64.34h.01c.27-.03.5-.24.64-.41.23-.3.34-.68.29-1.04l.09-.02c.05.38-.07.79-.32 1.11-.23.27-.47.42-.71.45h-.02Zm.62-.46-.07-.04s.03-.04.04-.06c.1-.2.13-.59.01-.8-.06-.12-.15-.22-.24-.31l.06-.07c.1.09.19.2.26.33.13.23.1.66-.01.88-.01.03-.03.05-.04.07Zm16.8-3.35h-.08l.06-.37c0-.1.02-.19.02-.29v-2.4h.09v2.35c0 .11 0 .23-.01.34l-.06.37Zm.08-3.87h-.09v-1.96h.09v.15h.04v1.6h-.04v.22Zm0-2.52h-.09v-1.47h.09v.13h.04v1.2h-.04zm0-1.98h-.09v-.67h.09v.09h.04v.46h-.04z" class="cls-1"/><path d="M56.46 81.9v-.08l.2-.03.22-.12.14-.13.1-.17.07.04-.11.18-.16.16-.25.12z" class="cls-1"/><path d="M57.09 81.51v-.04a.9.9 0 0 1-.71-.23l.06-.07c.17.17.42.24.67.21v.04h.04c.27-.03.52-.18.7-.4a.8.8 0 0 0 .18-.55c0-.11-.03-.21-.07-.3a.83.83 0 0 0-.3-.34l.05-.07c.14.09.25.22.33.38.04.1.07.21.07.33.01.22-.06.43-.2.61-.2.24-.47.39-.76.43zm7.94-10.38c-.27-.23-.49-.5-.66-.82-.1-.18-.18-.38-.24-.59-.04-.15-.06-.3-.07-.45 0-.29.02-.58.08-.86.08-.46.28-.91.56-1.3.08-.12.18-.24.29-.34l.05.06c-.1.1-.2.2-.27.32-.28.38-.47.82-.55 1.27-.06.28-.09.56-.08.84 0 .15.03.29.07.44.05.2.13.4.23.57.16.31.38.57.64.8l-.06.07Zm-1.28-9.37c-.09 0-.18 0-.26-.02a.8.8 0 0 1-.29-.17l.06-.07q.12.105.27.15c.18.05.37.02.54-.09l.04.07c-.11.07-.23.11-.35.13Zm-.13-.7a.77.77 0 0 1-.17-.39c-.02-.58.56-1.21 1.03-1.71.16-.17.3-.32.39-.44.41-.56.58-.79.59-1.3 0-.34-.3-.66-.62-.65v-.09c.37 0 .71.35.71.73 0 .54-.19.79-.6 1.35-.1.13-.24.28-.4.46-.43.47-1.02 1.11-1 1.64.01.13.06.25.15.34l-.07.06Zm-4.04-2.6v-.08c.39-.11.76-.3 1.1-.56.52-.41 1.02-.9.79-1.44a.7.7 0 0 0-.28-.3l.05-.08c.14.08.25.19.31.34.26.6-.27 1.12-.82 1.55q-.525.405-1.14.57Zm-1.51-.55a.6.6 0 0 1-.19-.12.58.58 0 0 1-.12-.63c.02-.07.08-.19.14-.33.15-.35.37-.84.38-1.19.03-.7-.21-1.14-.69-1.27l.03-.08c.51.14.78.62.75 1.35-.01.37-.23.86-.39 1.22-.06.13-.11.25-.13.32-.08.2-.04.41.1.54.05.05.1.08.17.1l-.04.08Zm2.56-.59a.54.54 0 0 1-.46-.17.3.3 0 0 1-.1-.13l.08-.04s.05.08.09.11c.1.11.25.16.4.15v.09Z" class="cls-1"/><path d="M63.73 74.53h-.02c-.31.03-.67-.19-.77-.34-.04-.03-.06-.07-.09-.11-.01-.02 0-.05.02-.06s.05 0 .06.01c.02.04.04.07.07.09.08.13.41.35.7.32h.01c.52-.05.59-.45.59-.46.06-.37-.05-.45-.25-.54a.3.3 0 0 0-.23 0c-.02 0-.05 0-.05-.03 0-.02.01-.05.04-.05.1-.02.2-.02.28.01.21.09.36.2.29.62 0 0-.08.48-.68.54ZM57.74 57.5s-.04-.01-.04-.03l-.02-.13.03-.14.06-.19.12-.27.11-.27.15-.41.08-.3.02-.28s.02-.04.05-.04c.02 0 .04.02.04.04l-.02.29-.08.31-.15.42-.11.27-.12.27-.06.18-.02.12.02.12s-.01.05-.04.05Zm-14.69 17h-.26c-.24-.05-.43-.18-.53-.37a.7.7 0 0 1-.03-.57l.08.02c-.06.18-.05.36.03.5.09.17.27.29.48.33.16.03.32 0 .48-.05l.02.08c-.09.03-.18.06-.27.07Zm.57-4.62h-.18a.7.7 0 0 1-.43-.28.63.63 0 0 1-.09-.33h.09c0 .09.03.19.08.27.09.13.23.22.38.25.18.03.38-.03.5-.15a.5.5 0 0 0 .13-.43c0-.05-.02-.09-.05-.12l.07-.06s.06.1.07.16a.59.59 0 0 1-.16.51c-.1.1-.25.16-.4.18Zm2.46-3.9a.54.54 0 0 0-.16-.21l.06-.07q.12.09.18.24zm.01-.98a.5.5 0 0 0-.15-.15l.05-.08c.07.04.13.1.17.17l-.08.05Z" class="cls-1"/><path d="M44.7 66.5c-.29.03-.56-.03-.8-.16-.28-.15-.48-.41-.57-.72 0-.02 0-.05.03-.06.02 0 .05 0 .05.02.08.29.27.53.54.68.24.13.51.19.79.15.44-.06.86-.3 1.16-.65.09-.1.15-.21.2-.33 0-.02.03-.04.06-.03s.03.03.02.05c-.05.13-.13.25-.22.36-.31.37-.76.62-1.22.69zm1.39-2.65a.85.85 0 0 0-.31-.41l.05-.07c.15.11.27.26.33.44l-.08.04Z" class="cls-1"/><path d="M44.71 65.74c-.27.03-.55-.02-.67-.11-.02-.01-.02-.04 0-.06s.04-.02.06-.01c.13.1.54.16.86.04.53-.18.97-.62 1.14-1.16 0-.02.03-.04.05-.03.02 0 .03.03.03.05-.18.57-.64 1.03-1.2 1.22-.08.03-.18.05-.27.06m-.24-.53h-.01c-.44.04-.73-.18-.77-.59l.09-.02c.04.37.29.56.69.52.26-.02.48-.2.6-.48a.98.98 0 0 0-.18-1.07l.06-.06c.29.31.37.76.19 1.16-.13.3-.39.5-.67.53Zm-.35 3.35s-.04-.01-.04-.03.01-.05.04-.05c.27-.06.49-.2.63-.4.13-.18.19-.4.16-.63-.05-.36-.39-.59-.59-.59-.02 0-.04-.02-.04-.04s.02-.04.05-.04c.27 0 .62.27.67.65.03.25-.03.49-.17.69-.16.22-.4.37-.69.44Zm-.71.01h-.01c-.3-.06-.58-.19-.82-.37a1.8 1.8 0 0 1-.32-.29.06.06 0 0 1 0-.06c.02-.02.05-.02.06 0 .09.1.2.2.31.28.23.18.5.3.79.36.02 0 .04.03.03.05 0 .02-.02.03-.04.03m2.07-5.7h-.09c0-.09-.04-.17-.1-.23a.3.3 0 0 0-.24-.08v-.09c.24-.02.43.15.43.39v.02Zm19.21.18a.67.67 0 0 1-.64-.29c-.01-.02 0-.05.01-.06.02-.01.05-.01.06 0 .12.18.34.28.57.26.35-.04.5-.25.55-.38.09-.2.08-.43-.03-.57-.01-.02 0-.04 0-.06.02-.02.05-.01.06 0 .13.17.15.43.04.66-.11.24-.34.4-.63.43Zm-19.01-3.17h-.02a1.37 1.37 0 0 1-.7-.74c0-.02 0-.05.02-.06s.05 0 .06.02c.13.31.36.56.66.7.02 0 .03.03.02.06 0 .01-.02.02-.04.03Zm17.31.31-.09.01v-2.14l.09-.01z" class="cls-1"/><path d="M43.86 68.52c-.48.05-.94-.08-1.36-.39-.09-.08-.18-.16-.26-.24a1 1 0 0 1-.18-.21c-.31-.45-.48-.99-.49-1.56 0-.24.03-.47.08-.71.14-.64.49-1.24.97-1.7.66-.6 1.68-.86 2.25-.27.29.31.37.76.19 1.16-.14.31-.4.51-.68.54-.33.03-.58-.12-.67-.4-.08-.25 0-.54.2-.69.2-.16.35-.16.45-.14.14.03.23.13.26.22.06.16 0 .32-.1.41-.1.08-.22.1-.31.04-.02-.01-.02-.04 0-.06.01-.02.04-.03.06-.02q.105.06.21-.03c.07-.06.12-.18.08-.3a.27.27 0 0 0-.21-.17c-.11-.02-.24.02-.38.12-.16.13-.23.38-.17.6.07.24.3.37.59.35.25-.02.48-.2.6-.48a.98.98 0 0 0-.18-1.07c-.53-.56-1.5-.3-2.13.26a3.24 3.24 0 0 0-1.02 2.34c.01.55.18 1.08.48 1.51.05.07.11.14.17.2.08.08.17.16.25.23.43.31.9.44 1.39.36.3-.04.55-.18.71-.39.14-.19.21-.42.18-.65a.57.57 0 0 0-.38-.49.48.48 0 0 0-.47.09c-.12.1-.19.3-.17.45.02.09.07.21.25.24.11.02.2-.05.24-.13a.17.17 0 0 0-.02-.22q-.03-.03 0-.06t.06 0c.08.08.09.2.03.32-.06.11-.19.2-.34.18a.36.36 0 0 1-.31-.31c-.03-.19.06-.42.2-.54.16-.13.37-.17.56-.1.23.08.39.29.43.56.03.26-.04.52-.2.72-.18.23-.45.38-.78.43-.03 0-.06 0-.08.01Zm19.49-10.49s-.03 0-.04-.02 0-.05.02-.06c.45-.3.73-.78.75-1.29.01-.35-.04-.55-.21-.78-.24-.33-.66-.37-1.03-.11.17.27.23.59.17.92-.08.39-.19.56-.48.86q-.03.03-.06 0c-.02-.02-.01-.04 0-.06.28-.28.38-.44.46-.81.06-.34-.01-.67-.2-.93-.19-.25-.45-.26-.8-.03-.02.01-.05 0-.06-.01-.01-.02 0-.05.02-.06.39-.25.69-.24.91.04.41-.29.88-.24 1.15.12.18.24.24.47.22.83a1.8 1.8 0 0 1-.8 1.37h-.02Zm.52 3.13c-.24 0-.48-.27-.49-.55-.02-.57.56-1.2 1.03-1.71.16-.17.3-.32.39-.44.42-.56.55-.79.55-1.29 0-.34-.25-.6-.58-.6v-.09c.39 0 .67.29.67.68 0 .53-.15.78-.57 1.35-.09.13-.23.28-.39.45-.43.47-1.02 1.11-1 1.64 0 .27.24.49.42.48v.09Zm1.33 5.12h-.12c-.32.02-.6-.07-.78-.27-.16-.17-.23-.41-.2-.68.03-.26.17-.48.38-.61.19-.12.42-.14.6-.05.23.1.3.32.26.5-.04.19-.18.33-.37.38-.14.03-.29-.03-.35-.14-.05-.09-.03-.2.04-.29q.03-.03.06 0c.02.01.02.04 0 .06-.07.08-.05.15-.03.19.04.07.14.13.26.11.16-.04.27-.15.3-.3a.364.364 0 0 0-.22-.41.57.57 0 0 0-.52.05c-.18.11-.31.31-.33.54-.03.24.03.46.18.62.16.17.42.26.72.24.5-.03 1-.22 1.41-.54.77-.64 1.05-1.6.84-2.91-.11-.74-.64-1.28-.93-1.49-.79-.55-1.75-.32-2.18.21-.34.41-.33.83-.2 1.09.12.25.36.39.62.37h.01c.29-.04.52-.21.59-.47.07-.23 0-.47-.17-.56-.12-.07-.24-.09-.34-.05-.14.06-.21.2-.23.24-.05.12 0 .22.06.27.05.04.13.05.22-.02.02-.02.05-.01.06 0s0 .04 0 .06c-.1.08-.22.09-.32.02-.09-.06-.15-.2-.08-.36.02-.05.11-.22.28-.29.13-.05.27-.03.41.05.2.11.28.38.2.65-.09.3-.34.5-.67.54h-.01c-.29.03-.56-.12-.7-.41-.13-.28-.15-.74.22-1.18.59-.71 1.65-.67 2.3-.23.3.21.85.77.97 1.54.21 1.34-.08 2.32-.88 2.99-.4.31-.87.51-1.34.56Z" class="cls-1"/><path d="M65.29 65.71c-.18.02-.42-.01-.57-.13a.3.3 0 0 1-.12-.24h.09c0 .06.03.12.09.17.13.11.37.14.54.11.94-.14 1.47-.94 1.46-2.21 0-.98-.61-1.98-1.48-1.9-.34.03-.7.12-.8.56h-.08c.11-.52.53-.62.88-.65.92-.08 1.55.96 1.56 1.98.01 1.3-.56 2.16-1.54 2.3h-.03Z" class="cls-1"/><path d="m64.9 65.62-.02-.08h.04c1.22-.44 1.32-1.26 1.32-1.99 0-1.4-.87-1.65-1.24-1.7h-.04l.02-.09h.04c.82.1 1.31.76 1.31 1.78 0 .55 0 1.58-1.39 2.07h-.04Zm.79 5.55a.51.51 0 0 1-.21-.53c.03-.15.11-.29.24-.39s.28-.15.43-.14c.31.03.52.3.46.62h-.08c.05-.28-.13-.51-.39-.53a.48.48 0 0 0-.36.12c-.11.08-.18.2-.2.33-.03.18.03.36.18.45l-.05.07Z" class="cls-1"/><path d="M63.65 74.46h-.02c-.24.02-.48-.08-.71-.3a1.31 1.31 0 0 1-.25-1.31c.1-.29.29-.5.6-.68.84-.5 1.75-.11 2.09.08.02.01.03.04.01.06-.01.02-.04.03-.06.02-.34-.19-1.21-.56-2.01-.08-.29.18-.46.36-.56.63-.14.44-.06.91.23 1.23.21.2.43.29.64.27h.01c.52-.05.59-.45.59-.46.06-.39-.19-.47-.24-.49-.04-.01-.17 0-.27.06a.23.23 0 0 0-.11.13c-.02.08-.01.17.03.24.01.02 0 .05-.02.06s-.05 0-.06-.01a.4.4 0 0 1-.03-.3.3.3 0 0 1 .15-.19c.12-.07.27-.09.34-.07.06.02.37.12.3.58 0 0-.08.48-.68.54Zm1.87-3.58h-.02c-.35-.15-.65-.41-.86-.73-.01-.02 0-.05.01-.06.02-.01.05-.01.06 0 .2.31.49.55.83.7.02 0 .03.03.02.06 0 .02-.02.02-.04.03" class="cls-1"/><path d="M56.4 81.88c-.28.03-.56-.05-.78-.22-.3-.24-.47-.61-.47-1.02 0-.24.05-.48.17-.7.42-.71.93-.99 1.57-1.34.02-.01.05 0 .06.02 0 .02 0 .05-.02.06-.65.36-1.12.62-1.53 1.3-.1.2-.16.43-.16.65 0 .38.16.73.44.96.24.19.55.25.87.17.22-.04.42-.21.49-.32a.88.88 0 0 1-.66-.21c-.22-.19-.36-.48-.36-.79 0-1.27 2.11-2.01 2.2-2.04.74-.25 1.2-.37 2.44-.57.18-.03.34-.05.5-.07.28-.04.54-.07.88-.14.41-.07.82-.18 1.22-.31.63-.2 1.21-.55 1.68-1.03.4-.41.61-.68.79-1.17.15-.42.23-1.26-.17-1.83-.3-.46-.8-.74-1.37-.75-.5-.02-.92.25-1.17.75-.12.23-.09.62.01.8.13.21.36.33.61.32h.01c.52-.05.59-.45.59-.46.06-.39-.19-.47-.24-.49-.04-.01-.17 0-.27.06a.23.23 0 0 0-.11.13c-.02.08-.01.17.03.24.01.02 0 .05-.02.06s-.05 0-.06-.01a.4.4 0 0 1-.03-.3.3.3 0 0 1 .15-.19c.12-.07.27-.09.34-.07.06.02.37.12.3.58 0 0-.08.48-.68.54h-.02a.77.77 0 0 1-.69-.35c-.11-.2-.14-.62-.01-.88.27-.53.73-.82 1.26-.8.6.02 1.12.3 1.43.79.41.6.33 1.47.17 1.91-.18.51-.41.8-.82 1.21-.49.49-1.08.85-1.72 1.06-.4.14-.82.24-1.23.32-.34.07-.6.11-.88.14-.16.02-.32.04-.5.07-1.23.2-1.69.32-2.42.57-.74.25-2.13.99-2.13 1.95 0 .28.12.55.33.73.18.16.41.22.65.19.27-.03.52-.18.7-.4a.8.8 0 0 0 .18-.55c0-.11-.03-.21-.07-.3-.1-.25-.35-.4-.64-.38h-.04c-.3.06-.53.35-.51.65.01.12.07.22.15.28.07.05.16.07.27.04.1-.02.17-.07.21-.14s.03-.17-.03-.28c-.01-.02 0-.05.02-.06s.05 0 .06.01c.09.17.06.29.02.36-.05.09-.15.16-.27.19a.45.45 0 0 1-.33-.05c-.1-.07-.17-.2-.18-.33-.03-.35.24-.68.59-.75h.05c.32-.03.6.14.72.42.04.1.07.21.07.33.01.22-.06.43-.2.61-.18.22-.44.37-.71.42-.06.16-.32.37-.58.42l-.16.03Zm7-14.34c-.36-.18-.58-.56-.56-.99 0-.43.21-.96.56-1.12l.03.08c-.27.12-.5.58-.5 1.03-.02.4.18.75.52.92l-.04.08Z" class="cls-1"/><path d="M63.57 70.93s-.02 0-.03-.01c-.51-.56-.71-1.09-.7-1.8.02-.84.33-1.3.87-2.04.01-.02.04-.03.06-.01.02.01.02.04 0 .06-.55.74-.84 1.17-.85 1.98-.01.7.18 1.2.68 1.75.02.02.01.04 0 .06 0 0-.02.01-.03.01M61.6 57.6l-.04-.07c.26-.18.46-.46.53-.77.1-.52-.02-.93-.34-1.14a.53.53 0 0 0-.43-.06c-.17.05-.33.17-.44.35l-.05.08-.07-.04.05-.08c.13-.2.3-.34.5-.39.17-.05.35-.02.49.07.35.23.48.66.37 1.22-.08.33-.29.63-.57.83m-15.07 1.63h-.03c-.29-.23-.41-.38-.48-.75-.05-.22-.05-.69.22-1.04.22-.29.53-.37.91-.23.02 0 .03.03.02.05 0 .02-.04.03-.06.03-.34-.12-.61-.06-.81.2-.25.32-.24.76-.2.96.07.35.18.48.46.71.02.01.02.04 0 .06 0 .01-.02.02-.03.02Z" class="cls-1"/><path d="M45.66 59.88c-.47-.21-.77-.66-.8-1.2-.01-.36.05-.6.22-.88.28-.44.76-.58 1.18-.35l-.05.08c-.38-.21-.81-.08-1.06.31-.17.27-.22.48-.21.83.03.51.31.93.75 1.13l-.04.08Z" class="cls-1"/><path d="M45.33 63.66a.82.82 0 0 1-.53-.14.58.58 0 0 1-.19-.63c.06-.2.19-.35.37-.4.15-.04.28 0 .36.1.05.06.07.15.07.23.05-.11.09-.24.09-.35.02-.55-.55-1.07-.97-1.45-.15-.13-.27-.25-.36-.35l-.04-.04c-.4-.45-.59-.68-.59-1.19 0-.39.36-.73.7-.8.13-.33.42-.6.78-.68v.08c-.43.1-.76.5-.77.95 0 .57.13.79.48 1.23.08.1.21.23.36.37.46.43 1.09 1.03 1.09 1.77 0 .63-.19 1.01-.61 1.24a.6.6 0 0 1-.25.08Zm-.27-1.11s-.04 0-.06.01a.44.44 0 0 0-.3.33c-.05.16-.03.39.17.55.13.1.42.21.68.06.38-.21.56-.57.56-1.16 0-.7-.62-1.28-1.07-1.71a4 4 0 0 1-.37-.38c-.32-.41-.49-.65-.49-1.28 0-.09.01-.18.04-.26-.29.08-.58.37-.58.7 0 .49.19.71.57 1.14l.04.04c.09.1.21.21.36.34.45.41 1.02.92.99 1.51 0 .22-.12.48-.25.6-.06.05-.13.08-.19.07s-.05 0-.07 0v-.09c.11 0 .18-.04.22-.11.05-.09.04-.21-.02-.3-.03-.04-.1-.1-.21-.09Zm-2.09 11.88h-.26c-.22-.04-.39-.16-.47-.33s-.08-.39.01-.62c.09-.22.32-.4.56-.44.21-.04.4.05.51.23.04.07.06.14.06.22 0 .13-.05.27-.15.36-.14.1-.3.13-.42.08-.1-.05-.15-.16-.15-.31 0-.02.02-.04.04-.05.02 0 .04.02.04.04 0 .12.03.2.11.23.09.04.22.01.32-.06a.4.4 0 0 0 .07-.48.42.42 0 0 0-.43-.2c-.2.03-.4.19-.48.38-.08.21-.09.39-.02.55.07.15.22.26.42.29.17.03.34 0 .51-.07.19-.08.38-.18.56-.29.28-.18.54-.39.77-.63.4-.46.67-1.01.78-1.59.1-.55.09-1.09-.03-1.61-.21-.84-.84-1.7-1.6-1.62-.19.02-.32.04-.43.12a.85.85 0 0 0-.27.39c-.05.16-.03.33.05.47.07.11.18.19.31.21.18.03.38-.03.5-.15.11-.11.16-.26.14-.44-.01-.09-.11-.16-.23-.17-.13 0-.24.08-.3.23 0 .02-.03.04-.06.03-.02 0-.03-.03-.02-.05.08-.19.22-.3.39-.3.15 0 .28.11.3.24a.59.59 0 0 1-.16.51c-.14.14-.37.21-.58.18a.5.5 0 0 1-.37-.25.7.7 0 0 1-.06-.53c.03-.09.07-.17.12-.25.05-.07.11-.14.18-.19.13-.1.27-.12.48-.14.8-.08 1.47.8 1.68 1.68.13.53.14 1.09.03 1.65-.11.6-.39 1.16-.81 1.63a4.1 4.1 0 0 1-1.36.95c-.1.04-.2.07-.3.08Z" class="cls-1"/><path d="M43.03 73.97c-.05 0-.11 0-.17-.02l.03-.08c.13.04.19.02.36-.07.06-.03.12-.08.2-.13l.05-.04c.32-.22.74-.56 1.12-1.33.1-.2.18-.41.23-.62.04-.15.06-.3.07-.45 0-.28-.02-.56-.08-.82a2.4 2.4 0 0 0-.55-1.15c-.16-.21-.29-.3-.55-.28v-.09c.33-.03.47.12.62.3.29.33.48.74.56 1.19.06.27.09.56.08.84 0 .16-.03.31-.07.47-.05.22-.13.44-.24.64-.4.79-.83 1.14-1.16 1.37l-.05.04c-.08.05-.14.1-.2.13-.11.06-.18.09-.25.1m.31-.45-.05-.06c.14-.13.21-.32.18-.49a.41.41 0 0 0-.2-.29.45.45 0 0 0-.36-.04c-.26.08-.44.35-.39.61l-.08.02c-.04-.21.05-.43.21-.58a.62.62 0 0 1 .61-.51c.27.01.47.23.46.5 0 .14-.05.28-.14.39 0 .16-.09.32-.22.44Zm-.36-.98c.11-.01.23.01.32.07.13.07.21.19.24.34.04-.08.07-.16.07-.25 0-.23-.16-.41-.39-.42-.22 0-.42.14-.49.34a.35.35 0 0 1 .14-.06c.04-.01.07-.02.11-.02" class="cls-1"/><path d="m43.66 72.62-.05-.06c.51-.44.82-1.08.83-1.73 0-.58-.24-1.1-.47-1.27l.06-.07c.29.21.5.79.5 1.34 0 .67-.33 1.34-.86 1.8Zm-.15.57s-.03 0-.04-.02 0-.05.02-.06c.34-.22.63-.52.83-.87.01-.02.04-.03.06-.02s.03.04.01.06c-.21.37-.51.68-.86.91zm8.1 7.12c-.74-.84-2.05-.75-3.44-.66-1.13.07-2.55.12-3.5-.17-1.52-.47-1.91-1.3-2.06-1.62-.02-.03-.03-.06-.04-.08-.15-.27-.26-.8-.27-1.27 0-.27.03-.54.12-.81.25-.76.63-1.22 1.37-1.7.42-.27.77-.39 1.14-.39.44 0 .69.13.82.42l-.08.04c-.12-.26-.34-.37-.75-.37-.35 0-.69.11-1.09.37-.72.47-1.08.91-1.33 1.65-.08.26-.12.52-.11.78.01.51.15 1.01.26 1.23.01.02.02.05.04.08.15.31.53 1.12 2.02 1.58.93.29 2.34.24 3.47.16 1.41-.09 2.73-.18 3.5.69l-.07.06Z" class="cls-1"/><path d="M45.38 76.38c-.59.06-.67-.39-.68-.4-.07-.44.24-.61.3-.64.07-.03.22-.05.34 0 .08.03.13.09.15.16.03.1.02.21-.03.31-.01.02-.04.03-.06.02-.02 0-.03-.03-.02-.06q.06-.12.03-.24a.17.17 0 0 0-.11-.11.4.4 0 0 0-.27 0c-.05.02-.3.16-.24.54 0 0 .07.39.59.33h.01c.21-.02.43-.17.64-.41.29-.38.38-.87.23-1.28-.1-.24-.26-.4-.56-.51-.8-.31-1.67.25-2.01.51-.02.02-.05.01-.06 0-.01-.02 0-.05.01-.06.35-.27 1.25-.85 2.09-.52.31.12.5.29.6.55.16.44.06.96-.25 1.37-.23.27-.47.42-.71.45h-.02Z" class="cls-1"/><path d="m53.79 81.26-.02-.08c.48-.15.7-.46.7-.71 0-.07 0-.14-.01-.21-.06-.34-.29-.57-.57-.82-.03-.02-.05-.04-.08-.06l-.11-.08c-.1-.07-.21-.14-.33-.19q-.615-.3-1.32-.42l-.16-.03c-.06-.01-.12-.02-.18-.02h-.06c-.2-.03-.4-.04-.58-.05h-.16c-.26-.02-.5 0-.77 0h-.25c-.32.01-.65.04-.97.09l-.61.07c-.21.03-.43.05-.69.07h-.12c-.28.02-.46.04-.77.04-.78.01-1.39-.04-1.97-.35-.71-.38-1.24-1.36-.91-2.34q.06-.18.15-.36l.16-.24c.1-.13.22-.25.36-.33.28-.17.62-.15.85.04.13.12.18.3.13.48l-.08-.02c.04-.15 0-.3-.1-.4-.2-.17-.5-.19-.75-.04-.13.08-.24.18-.33.31l-.15.23c-.06.11-.11.22-.14.34-.32.95.19 1.89.87 2.25.57.3 1.16.36 1.93.34.3 0 .49-.02.77-.03h.12c.25-.02.47-.05.69-.07l.61-.07c.33-.05.66-.08.98-.09h.25c.28-.01.52-.02.78 0h.16c.18 0 .38.02.58.04h.06l.18.03.16.03c.47.08.92.23 1.33.43.12.05.24.12.34.2.04.03.07.06.1.08s.06.04.08.07c.28.25.54.5.6.87.01.07.01.15.01.22 0 .28-.24.64-.77.8Z" class="cls-1"/><path d="M51.98 81.97h-.04c-.29.02-.57-.07-.76-.27a.73.73 0 0 1-.2-.57c0-.12.03-.23.07-.34.12-.31.4-.53.71-.58h.05c.35-.01.62.27.59.62-.01.14-.08.28-.18.37-.09.08-.21.13-.33.12-.13 0-.23-.05-.27-.13-.04-.06-.06-.18.02-.36l.08.03c-.06.12-.06.22-.03.28s.11.1.21.1.19-.03.27-.1c.08-.08.14-.19.15-.31a.49.49 0 0 0-.51-.54h-.04c-.28.04-.53.24-.63.52-.04.1-.06.21-.07.31-.01.2.05.38.18.51.18.18.43.27.7.25.24-.02.47-.13.65-.32.21-.22.33-.52.33-.8 0-.96-1.4-1.4-2.13-1.5-.74-.1-1.19-.12-2.42-.06-.18 0-.34.02-.5.03-.28.02-.54.04-.88.04-.41.01-.82 0-1.23-.06-.64-.07-1.23-.31-1.72-.69-.41-.33-.63-.57-.82-1.04-.16-.41-.24-1.26.17-1.95a2.3 2.3 0 0 1 1.43-1.09c.53-.13.99.06 1.26.54.13.23.1.66-.01.88a.99.99 0 0 1-.68.5h-.02c-.59.06-.68-.39-.68-.4-.07-.44.24-.61.3-.64.07-.03.22-.05.34 0 .08.03.13.09.15.16.03.1.02.21-.03.31l-.08-.03q.06-.12.03-.24a.17.17 0 0 0-.11-.11.4.4 0 0 0-.27 0c-.05.02-.3.16-.24.54 0 0 .07.39.59.33h.01c.25-.04.48-.21.61-.45.1-.2.13-.59.01-.8-.25-.45-.67-.63-1.17-.5-.57.14-1.07.52-1.37 1.04-.4.66-.32 1.48-.17 1.87.18.46.39.68.79 1.01.48.38 1.06.61 1.68.68.4.05.81.07 1.22.06.34 0 .6-.02.88-.04l.5-.03c1.24-.06 1.7-.04 2.44.06.35.05.89.18 1.33.41.58.3.87.69.87 1.16 0 .3-.13.62-.36.86-.19.2-.43.33-.67.35Zm-4.53-22.88h-.02c-.28-.14-.49-.39-.57-.71-.11-.54.02-1 .37-1.3a.7.7 0 0 1 .49-.18c.2.01.37.11.5.28l.05.07s0 .05-.01.06c-.02.02-.05.01-.06 0l-.05-.07a.6.6 0 0 0-.44-.25c-.15 0-.3.04-.43.15-.32.27-.44.7-.33 1.21.07.29.26.53.53.66.02 0 .03.04.02.06 0 .01-.02.02-.04.03Zm11.52-1.06c-.26.03-.73-.01-1.02-.18s-.38-.43-.27-.76c.02-.08.08-.2.14-.33.15-.35.37-.84.38-1.19.03-.68-.21-1.11-.69-1.23-.58-.14-1.21.28-1.72.62-.21.14-.4.27-.57.34-.23.11-.47.17-.71.18-.24.03-.48.02-.71-.04-.16-.04-.36-.13-.56-.22-.5-.23-1.13-.53-1.72-.26-.48.22-.72.7-.69 1.37.01.35.23.79.38 1.11.06.12.11.23.14.3.11.31.01.58-.27.81-.3.24-.8.38-1.05.4-.89.06-1.41-.1-1.94-.62l.06-.06c.51.5 1.02.66 1.88.6.24-.02.72-.15 1-.38.26-.21.33-.44.24-.71-.02-.07-.07-.17-.13-.29-.16-.33-.37-.78-.39-1.14-.04-.91.39-1.3.75-1.46.62-.28 1.27.02 1.79.26.2.09.4.18.55.22q.33.09.69.03c.24-.02.46-.08.68-.18.16-.07.35-.2.55-.34.52-.35 1.17-.79 1.79-.63.36.09.79.39.75 1.31-.01.37-.23.86-.39 1.22-.06.13-.11.25-.13.32q-.135.435.24.66c.28.17.76.2 1 .17.86-.12 1.37-.39 1.88-.99l.06.05c-.53.63-1.05.91-1.94 1.03h-.03Z" class="cls-1"/><path d="M53.87 81.23h-.01c-.02 0-.04-.02-.03-.05.03-.11.04-.22.04-.33 0-.22-.05-.44-.16-.62-.41-.61-.89-.8-1.51-1.01-.51-.17-.59-.18-.64-.19-.02 0-.04 0-.07-.01-.02 0-.03-.03-.02-.05 0-.02.03-.04.06-.03.03 0 .04 0 .06.01.06 0 .14.02.66.19.64.22 1.13.42 1.55 1.05.11.2.17.43.17.67 0 .12-.01.23-.04.35 0 .02-.02.04-.04.04Z" class="cls-1"/><path d="M52.02 82.01h-.04c-.16.01-.31-.01-.46-.07l.04-.08c.13.05.28.07.42.06.24-.02.46-.13.65-.32.21-.22.33-.52.33-.8q0-.495-.48-.87l.06-.07c.34.26.51.58.51.93 0 .3-.13.62-.36.86-.19.2-.43.33-.67.35Z" class="cls-1"/><path d="M51.97 81.37h-.05c-.13 0-.24-.06-.3-.15-.04-.07-.07-.19 0-.38 0-.02.03-.04.06-.03.02 0 .03.03.02.05-.05.12-.06.23-.01.3.04.07.13.11.23.11a.43.43 0 0 0 .42-.38v-.03c.02-.21-.08-.4-.26-.5-.02-.01-.03-.04-.01-.06.01-.02.04-.03.06-.02.21.11.32.33.3.57v.03c-.02.13-.08.25-.18.33a.48.48 0 0 1-.29.13ZM63.8 58.86l-.06-.05.08-.09c.2-.22.37-.41.52-.61v-.02c.24-.29.52-.65.52-1.2 0-.48-.38-.9-.77-.86v-.09c.45-.05.86.4.86.94 0 .58-.3.97-.53 1.26v.02c-.17.21-.34.4-.54.62l-.08.09Z" class="cls-1"/><path d="M43.02 73.97c-.07 0-.14 0-.19-.03-.11-.05-.17-.16-.16-.31 0-.02.02-.04.04-.05.02 0 .04.02.04.04q0 .18.12.24c.1.05.24.02.34-.05.08-.07.12-.17.12-.28 0-.07-.02-.13-.05-.18-.1-.17-.25-.25-.41-.24-.02 0-.04-.01-.04-.04 0-.02.02-.05.04-.05.19-.03.37.08.48.27a.47.47 0 0 1-.09.57.56.56 0 0 1-.24.1Zm21.41-10.29c-.1.01-.21 0-.31-.01a1.64 1.64 0 0 1-.85-.4c-.02-.02-.04-.04-.06-.05-.06-.06-.12-.1-.16-.21 0-.02 0-.05.03-.06.02 0 .05 0 .05.02.03.08.07.12.13.17.02.02.04.03.06.05.22.2.51.33.82.38.28.05.58-.02.82-.2.02-.01.05-.01.06 0 .01.02 0 .05-.01.06-.18.13-.38.21-.58.23Zm-1.07-5.65s-.03 0-.04-.02 0-.05.01-.06c.35-.26.76-.7.78-1.26.01-.35-.04-.55-.21-.78a.77.77 0 0 0-.36-.28c-.02 0-.03-.03-.02-.06.01-.02.04-.03.06-.03.16.06.3.17.39.31.18.24.24.47.22.83-.02.6-.46 1.06-.82 1.33h-.02Zm-.86-.48s-.03 0-.03-.01a.06.06 0 0 1 0-.06c.3-.25.41-.42.49-.77.05-.22.04-.65-.2-.92-.02-.03-.05-.05-.08-.07-.02-.01-.02-.04 0-.06s.04-.02.06-.01c.03.03.06.05.09.08.25.27.29.7.22.99-.09.37-.21.55-.52.82 0 0-.02.01-.03.01m-.91.07s-.03 0-.04-.02 0-.05.01-.06c.31-.22.48-.45.55-.75.12-.5 0-.93-.33-1.14-.02-.01-.02-.04 0-.06.01-.02.04-.03.06-.01.36.23.49.69.36 1.22-.1.41-.37.64-.59.8h-.02Z" class="cls-1"/><path d="m44.28 73.81-.05-.07.14-.11c.1-.08.19-.17.28-.27.4-.46.67-1.01.78-1.59.1-.55.09-1.09-.03-1.61-.21-.87-.85-1.57-1.49-1.62l.02-.09c.67.05 1.34.78 1.56 1.68.13.53.14 1.09.03 1.65-.11.6-.39 1.16-.81 1.63-.09.1-.19.2-.29.28l-.14.11Zm-.9-.25-.05-.06c.12-.11.18-.25.18-.4-.01-.28-.23-.48-.52-.47v-.09c.3-.01.54.18.59.45a.6.6 0 0 0 .07-.25c0-.26-.23-.48-.47-.45v-.09c.29-.03.56.22.56.53 0 .14-.05.28-.14.39 0 .17-.09.32-.22.44m2.07-.7s-.02 0-.03-.01q-.03-.03 0-.06c.19-.2.35-.42.47-.67.09-.18.15-.37.19-.56 0-.02.03-.04.05-.04s.04.02.03.05c-.04.2-.11.39-.2.58-.13.25-.29.49-.49.69 0 0-.02.01-.03.01Zm.68-2.4s-.04 0-.04-.03c-.08-.39-.26-.67-.51-.98a.06.06 0 0 1 0-.06c.02-.02.05-.02.06 0 .25.31.44.6.52 1.01 0 .02-.01.05-.03.05Zm-.04-2.48a1.06 1.06 0 0 0-.46-.58l.05-.08c.23.14.41.36.49.62l-.08.03Z" class="cls-1"/><path d="M45.68 67.37s-.02 0-.03-.01c-.02-.02-.01-.04 0-.06.23-.23.38-.42.44-.65 0-.02.03-.04.05-.03.02 0 .04.03.03.05-.07.25-.23.45-.47.69 0 0-.02.01-.03.01Zm-1.24-2.2s-.04 0-.04-.03c0-.02 0-.05.03-.06l.28-.1.16-.14.1-.16.09-.25.04-.2s.03-.04.05-.04.04.02.03.05l-.04.2-.1.27-.12.18-.19.16-.29.11h-.01Zm-.76 2.48c-.2.02-.35-.06-.5-.2-.05-.05-.1-.11-.15-.17a1.9 1.9 0 0 1-.32-.75c-.06-.3-.07-.61-.02-.92.08-.37.18-.67.32-.88.13-.19.3-.35.5-.46.11-.06.22-.11.34-.15l.02.08c-.11.04-.22.09-.32.15-.18.1-.34.25-.46.43-.13.2-.23.48-.31.84-.04.3-.04.6.02.88.05.26.16.5.31.72.04.06.09.11.14.16.17.16.32.23.57.16l.02.08c-.05.02-.1.03-.14.03Zm1.43-4.5h-.04c-.02 0-.04-.02-.04-.04s.02-.04.05-.04c.24 0 .32-.2.37-.37 0-.02.03-.04.05-.04s.04.03.03.05c-.03.1-.11.41-.42.44" class="cls-1"/><path d="M43.77 67.98h-.07c-.67 0-.98-.48-1.08-.64a2.4 2.4 0 0 1-.31-.82c-.02-.1-.03-.2-.04-.31v-.05c-.02-.29 0-.59.08-.87.03-.13.07-.26.13-.38.05-.12.12-.24.19-.36.06-.09.13-.17.2-.25a2 2 0 0 1 .22-.19c.58-.43 1.15-.41 1.43-.17l-.06.07c-.25-.22-.78-.23-1.32.17l-.21.18c-.07.07-.13.15-.19.23-.07.11-.13.23-.19.34-.05.12-.1.24-.12.36-.07.28-.1.57-.09.85v.05c.02.11.03.21.05.3.05.29.15.55.3.79.1.15.39.61 1.01.6.16 0 .38-.07.52-.2.07-.07.11-.15.11-.23h.09c0 .1-.05.2-.14.29-.14.13-.35.2-.51.22Zm19.93-2.35h-.02c-.03-.02-.06-.02-.09-.02-.05 0-.1 0-.18-.06-.21-.09-.46-.43-.53-.83-.03-.21-.03-.52.2-.8q.03-.03.06 0c.02.01.02.04 0 .06-.21.25-.21.53-.18.72.06.37.3.69.49.78.07.04.1.05.15.05.04 0 .08 0 .13.03.02 0 .03.04.02.06 0 .01-.02.02-.04.03Zm-4.9-7.07h-.05c-1.14.11-2.05-.3-2.65-.58-.06-.03-.11-.05-.17-.08-.12-.05-.25-.03-.31.05-.07.1-.06.24.03.31.02.01.02.04 0 .06s-.04.02-.06.01c-.13-.1-.14-.28-.04-.43.09-.12.26-.15.42-.08.05.02.11.05.17.08.59.27 1.49.68 2.61.57.76-.07 1.39-.31 1.89-.7.52-.41 1.02-.9.79-1.44A.57.57 0 0 0 61 56a.84.84 0 0 0-.67.2l-.03.02c-.24.2-.3.55-.13.77.11.13.3.18.48.12.14-.06.24-.17.29-.31.04-.11.02-.23-.04-.3a.16.16 0 0 0-.18-.03c-.08.03-.14.1-.16.19 0 .02-.03.04-.05.04s-.04-.02-.03-.05c.02-.12.11-.22.22-.26.02 0 .04-.01.06-.02.1-.02.19.02.25.1.08.09.1.23.05.37a.6.6 0 0 1-.35.38c-.02 0-.05 0-.05-.02-.21.06-.42 0-.55-.15-.2-.26-.14-.67.15-.9l.03-.02c.21-.18.49-.27.74-.22.22.04.39.17.48.37.26.6-.27 1.12-.82 1.55-.5.39-1.13.63-1.88.71Z" class="cls-1"/><path d="m54.51 76.45-.03-.04c-.08-.1-.49-.31-.85-.42q-.33-.105-.69-.12c-.26-.02-.52 0-.77.03s-.51.07-.76.13c-.17.03-.3.06-.42.1-.15.04-.3.07-.49.11-.29.06-.58.09-.87.11-.32.03-.63.02-.94-.02-.31-.02-.62-.09-.9-.21-.3-.11-.57-.27-.8-.48-.48-.41-.78-.99-.86-1.64-.01-.11-.02-.23-.02-.34V59.81l16.81-1.77v5.17c.03-.11.1-.2.2-.28l.05.07c-.14.11-.19.22-.2.43-.02.19.05.37.18.5.22.21.7.41 1.22.37.29-.02.56-.13.79-.31.25-.19.43-.46.5-.76h.08c-.08.33-.27.62-.54.82-.25.19-.54.31-.84.33-.46.04-.99-.12-1.28-.39a.6.6 0 0 1-.17-.28v8.19c0 .11 0 .23-.02.34-.08.67-.39 1.31-.86 1.83-.23.26-.5.48-.8.65-.28.17-.59.3-.9.39-.31.1-.62.17-.94.21-.29.04-.58.07-.87.07h-.91c-.25 0-.5 0-.76.03-.26.02-.52.07-.77.14q-.36.09-.69.27c-.36.18-.77.48-.85.6l-.03.05Zm-2.23-.65c.22-.02.45-.03.67-.01.24.01.48.05.71.12.32.1.71.28.85.41.14-.15.53-.42.85-.58.23-.12.47-.21.71-.27.26-.07.52-.12.79-.14.25-.02.51-.03.76-.03h.43c.15 0 .3.01.49 0 .28 0 .57-.03.86-.07.31-.04.62-.11.92-.21.31-.09.6-.22.88-.39.29-.16.55-.38.78-.63.46-.5.76-1.12.84-1.77.01-.1.02-.19.02-.29V58.13l-16.63 1.75v13.77c0 .11 0 .22.02.33.08.63.37 1.2.84 1.59.23.21.49.36.78.46.28.11.58.18.88.2.3.04.61.04.92.02.29-.02.57-.06.86-.11.19-.03.34-.07.49-.11l.43-.1c.25-.06.51-.1.76-.13.04 0 .08 0 .11-.01Z" class="cls-1"/><path d="M44.8 75.77c0-.19.15-.36.34-.38a.3.3 0 0 1 .34.3c0 .19-.15.36-.34.38a.3.3 0 0 1-.34-.3m-2.09-2.18c0-.17.11-.32.24-.33s.24.11.24.28-.11.32-.24.33-.24-.11-.24-.28" class="cls-11"/><path d="M45.14 76.1c-.2.02-.36-.12-.36-.32s.16-.38.36-.4.36.12.36.32-.16.38-.36.4m-.32-.33c0 .17.14.3.32.28.17-.02.32-.18.32-.35 0-.18-.14-.3-.32-.28-.17.02-.32.18-.32.35m-1.87-1.87c-.14.02-.26-.12-.26-.3s.12-.34.26-.35.26.12.26.3-.12.34-.26.35m0-.61c-.12.01-.22.15-.22.3s.1.27.22.26.22-.15.22-.3-.1-.27-.22-.26" class="cls-8"/><path d="M43.9 67.45c0-.13.12-.24.25-.24s.22.1.21.23c0 .12-.11.23-.23.24-.13 0-.24-.09-.23-.23m4.15-9.34c0-.12.11-.22.23-.23.12 0 .21.09.2.21 0 .11-.09.2-.19.22-.13.02-.23-.07-.24-.2" class="cls-11"/><path d="M43.56 74.65s-.03 0-.03-.01a.06.06 0 0 1 0-.06l.17-.15.17-.13.15-.1.21-.12s.05 0 .06.02c0 .02 0 .05-.02.06l-.21.12-.14.1-.17.13-.16.15s-.02.01-.03.01Zm.49-1.79h-.03c-.02-.01-.02-.04 0-.06l.12-.16s.06-.09.09-.13c.02-.04.03-.06.05-.09l.11-.22s.04-.03.06-.02c.02 0 .03.03.02.06l-.11.22-.05.1c-.03.05-.06.1-.1.14l-.12.16s-.02.02-.03.02Zm1.54-3.56h-.03l-.11-.1-.12-.1s-.05-.04-.08-.05c-.01 0-.03-.02-.05-.03s-.02-.04 0-.06c.01-.02.04-.03.06-.01.02.01.03.02.05.03.03.02.05.03.08.06l.12.1.11.1s.02.04 0 .06c0 0-.02.01-.03.02Zm-2.18 0c-.02 0-.04-.02-.04-.04 0-.06.02-.12.04-.18.04-.1.11-.19.21-.24.02-.01.05 0 .06.02 0 .02 0 .05-.02.06-.07.04-.13.11-.16.18q-.03.075-.03.15c0 .02-.02.04-.04.05Zm1.87-1.66v-.09c.06-.01.13-.03.19-.06.05-.03.11-.06.16-.09l.04.07c-.05.03-.11.07-.17.09-.07.03-.14.06-.22.07Zm-1.16-1.32h-.02l-.21-.09a1.1 1.1 0 0 1-.38-.34 1 1 0 0 1-.13-.23l-.06-.2c0-.02 0-.05.03-.05.02 0 .05 0 .05.03.01.06.03.13.06.19q.045.105.12.21c.05.07.1.14.17.19.06.05.12.09.18.13.06.03.13.06.2.08.02 0 .03.03.02.05 0 .02-.02.03-.04.03Zm.47-.68h-.28c-.06 0-.12-.02-.17-.04a1 1 0 0 1-.17-.08c-.02-.01-.03-.04-.01-.06.01-.02.04-.03.06-.02.05.03.11.05.16.07s.1.03.16.03c.07.01.15.01.22 0 .08 0 .16-.02.24-.05.02 0 .05 0 .05.03s-.01.05-.03.05c-.07.02-.15.04-.22.05Zm1.19-5.66h-.02l-.28-.13c-.1-.05-.18-.11-.26-.18-.06-.05-.11-.1-.16-.16a1 1 0 0 1-.07-.11.2.2 0 0 0-.04-.06c-.01-.02 0-.05.01-.06.02-.01.05-.01.06 0 .02.02.03.04.04.06a1 1 0 0 0 .22.25c.08.07.16.13.25.18l.28.13s.03.04.02.06c0 .01-.02.02-.04.03Zm.87-.64h-.03c-.05-.03-.09-.06-.14-.08a.9.9 0 0 1-.24-.17c-.08-.08-.15-.17-.2-.27-.03-.07-.06-.15-.09-.23 0-.02 0-.05.03-.06.02 0 .05 0 .05.02.02.07.05.15.09.22.05.09.11.17.18.25.08.08.15.11.22.16.04.02.09.05.14.08.02.01.02.04 0 .06 0 .01-.02.02-.03.02Zm.83-.18h-.02c-.09-.04-.18-.08-.26-.13-.07-.05-.14-.1-.19-.17-.04-.05-.08-.1-.12-.16l-.09-.21c0-.02 0-.05.03-.06.02-.01.05 0 .05.02.02.07.05.13.08.2.03.05.07.1.11.15q.075.09.18.15c.08.05.16.09.25.12.02 0 .03.03.02.06 0 .02-.02.03-.04.03" class="cls-8"/><path d="M56.38 56.37c0-.23-.23-.23-.32-.22-.25.03-.32.19-.63.39-.39.25-.56.32-.91.36-.35.03-.52 0-.91-.16-.31-.13-.37-.28-.62-.25-.17.02-.31.18-.31.36v.12c0 .02.03 0 .03.02 0-.08.02-.17.07-.24s.13-.12.22-.14c.25-.03.34.12.66.26.39.17.56.2.91.16s.52-.1.91-.36c.31-.2.4-.38.65-.41.09 0 .16.04.18.13 0 .04.01.07.01.11 0 .01.02 0 .02.02q.03-.075.03-.15Z" class="cls-1"/><path d="M54.58 57.05c-.35.03-.52 0-.91-.17-.11-.05-.19-.1-.27-.14-.13-.08-.23-.13-.38-.12-.08.01-.16.06-.21.13a.4.4 0 0 0-.07.23h-.02s-.02 0-.02-.02v-.12c0-.19.14-.35.32-.38.16-.02.24.04.36.11.07.04.15.1.26.15.39.17.56.2.91.16s.52-.11.9-.35c.11-.07.19-.14.26-.2.12-.1.21-.18.37-.19.08 0 .32-.01.33.23 0 .05 0 .11-.03.16v.04l-.02-.03s-.01 0-.01-.02c0-.04 0-.08-.01-.11-.02-.08-.08-.13-.17-.12-.15.02-.25.09-.37.2-.07.06-.16.13-.28.21-.39.25-.56.32-.92.36Zm-1.57-.45c.17-.02.26.04.4.12.07.04.15.09.26.14.39.17.55.2.9.16s.52-.11.91-.35q.165-.105.27-.21c.13-.11.22-.19.39-.21.09 0 .17.05.19.13 0 .04.01.07.01.11.01-.04.02-.09.02-.13 0-.22-.22-.22-.31-.21-.15.02-.24.08-.36.19-.07.06-.15.13-.27.2-.39.25-.56.32-.91.36-.36.03-.53 0-.92-.17a1.3 1.3 0 0 1-.27-.15c-.11-.07-.19-.12-.34-.11-.17.02-.3.18-.29.34s0 .08 0 .12a.36.36 0 0 1 .3-.36Zm-5.98 20.08c.07-.08.12-.06.14-.1 0-.03-.01-.03-.04-.03-.04-.01-.08-.01-.12-.02s-.08-.03-.12-.04c-.02 0-.05-.02-.07.01-.02.06.14.03.09.18a.6.6 0 0 1-.11.17l-.36.43s-.02.03-.03.03 0-.03 0-.04v-.56c0-.08.01-.16.03-.23s.1-.02.11-.06c0-.03 0-.03-.04-.04-.02 0-.06-.01-.15-.03l-.14-.04s-.06-.03-.07 0c0 .01.01.03.01.03.05.02.07.07.06.12v1.01c.01.07.02.09.03.1.02 0 .03 0 .05-.04l.71-.85Z" class="cls-1"/><path d="M47.45 76.79c.05-.15.13-.07.15-.13 0-.02 0-.02-.04-.03l-.18-.03-.16-.04s-.05-.01-.05.01c-.02.06.15.04.11.19l-.23.77c-.05.15-.13.09-.15.14v.02l.16.03.21.05s.05 0 .05-.01c.02-.05-.16-.01-.1-.21zm.5.09c.03-.1.07-.09.12-.08.14.03.19.16.14.32-.03.09-.06.18-.27.14-.04 0-.09-.02-.08-.06zm-.38.71c-.06.2-.16.13-.17.18 0 .03.02.03.04.04l.22.03c.06.01.09.02.12.03.03 0 .05 0 .05-.02.02-.06-.14-.02-.09-.19l.08-.28c.02-.06.01-.07.09-.05.07.01.09.03.1.11l.04.28c.02.1.03.21.14.23.06.01.16 0 .17-.06 0-.01 0-.02-.01-.03h-.05c-.02 0-.04-.02-.04-.04l-.09-.49s.05-.02.1-.05a.3.3 0 0 0 .14-.18c.02-.07.06-.3-.25-.36l-.28-.05-.16-.04s-.03 0-.04.02c-.02.06.15.03.1.21l-.2.7Zm1.14.22c-.04.19-.19.09-.2.16 0 .04.02.04.04.04l.2.02.2.03s.07.01.08-.02c.01-.05-.18-.02-.14-.22l.17-.73c.02-.08.03-.08.09-.08l.12.02c.16.02.08.19.13.2.04 0 .04-.06.04-.08l.02-.15s0-.04-.01-.04l-.44-.05-.43-.07s-.03.02-.03.04l-.07.21s-.02.06 0 .06c.06 0 .07-.21.23-.19l.12.02c.06 0 .07.02.05.1l-.18.75Zm1.72-.62c.06-.09.11-.08.12-.12 0-.03-.02-.02-.05-.03h-.12c-.04 0-.08-.01-.12-.02-.02 0-.06 0-.06.02-.01.06.15 0 .12.16-.01.07-.04.13-.08.19l-.29.48-.02.03s-.01-.02-.01-.04l-.09-.54a.6.6 0 0 1-.01-.23c.01-.07.09-.04.1-.08 0-.03 0-.03-.05-.03h-.16l-.14-.02s-.06-.02-.07.02c0 .01.01.02.02.02.05.01.08.05.09.11l.19.97c.01.07.02.09.04.09s.02 0 .05-.05l.57-.94Zm.08.9s0 .05.03.06c.07.04.15.06.23.08.19.01.34-.12.38-.34.03-.21-.05-.28-.19-.37-.18-.11-.25-.13-.23-.24 0-.09.08-.16.16-.16h.02c.25.02.22.32.25.32s.04-.02.04-.05l.02-.22s.01-.06 0-.06c-.02 0-.06.02-.08.02-.04 0-.09-.07-.21-.08-.17-.01-.31.12-.34.31-.03.17.05.24.16.31.21.13.3.16.28.29-.01.11-.11.2-.21.2h-.02c-.16 0-.22-.16-.24-.32 0-.02 0-.04-.03-.04-.04 0-.03.05-.03.07v.23Zm2.15-.83c.05-.1.11-.09.11-.13 0-.03-.02-.02-.05-.02h-.24c-.02 0-.06 0-.06.03 0 .06.15 0 .14.15 0 .07-.03.13-.06.19l-.24.5s-.01.03-.02.03-.01-.02-.02-.03l-.15-.52a1 1 0 0 1-.04-.22c0-.07.09-.05.09-.09 0-.03 0-.03-.05-.02-.02 0-.07 0-.16.01h-.15s-.07-.01-.07.03c0 .01.02.02.02.02.05 0 .09.04.1.09l.29.94c.02.07.03.08.05.08s.02-.01.04-.05z" class="cls-1"/><path d="M52.89 78.02c0 .17-.14.15-.14.21 0 .03.03.02.05.02l.13-.02h.17s.06-.01.06-.04c0-.08-.19.05-.18-.26v-.55s0-.03.02-.03c0 0 .02 0 .03.02l.69.78s.02.02.04.02.02-.01.02-.05v-.91c0-.17.13-.14.13-.19 0 0 0-.02-.03-.02-.01 0-.06.01-.16.02h-.17s-.02.03-.02.04c0 .05.18 0 .18.15v.54s0 .06-.02.06-.03-.02-.04-.04l-.58-.66s0-.04-.06-.04c-.08 0-.12.02-.15.02h-.08q-.015 0-.03.03c0 .08.16-.04.16.27v.62Zm1.41-.88c0-.15.11-.11.11-.16 0-.02 0-.02-.05-.02-.08 0-.14.02-.19.02h-.16c-.01 0-.05 0-.05.03 0 .06.16 0 .16.14v.78c0 .15-.1.12-.11.18 0 0 0 .02.02.02.04 0 .1-.02.16-.02h.22s.05-.03.05-.04c0-.05-.16.04-.16-.16zm.61.69c0 .19-.16.13-.16.2 0 .04.03.03.05.03l.2-.03.2-.02s.07 0 .07-.04c0-.05-.19.02-.19-.18v-.73c0-.08 0-.09.07-.09h.12c.17-.04.12.15.18.14.04 0 .02-.07.02-.08l-.02-.15s0-.04-.02-.04l-.45.06c-.21.02-.31.03-.45.04-.02 0-.02.03-.02.04l-.02.22s-.01.06.02.05c.07 0 .02-.21.18-.23h.12c.06-.02.07-.01.08.06v.75Zm.85-.39s-.05.01-.05 0c0-.02 0-.04.01-.06l.09-.3.01-.02.01.01.14.27s.02.04.02.06-.02.02-.05.02l-.2.04Zm.25.04s.05 0 .1.12c.02.03.03.07.03.1 0 .1-.1.1-.09.15 0 .02.02.02.05.01l.16-.04.19-.03s.05 0 .05-.03c0-.05-.08.02-.13-.08l-.47-.91s-.03-.05-.04-.04c-.02 0-.02.04-.03.06l-.32 1.04c-.03.1-.1.1-.1.14 0 .02.02.01.04 0 .04 0 .08-.02.13-.03l.14-.02s.08 0 .07-.04c0-.04-.16.01-.17-.1 0-.04 0-.09.02-.13.03-.11.06-.12.08-.13l.29-.05Zm1.13-.79c-.01-.11 0-.11.17-.15.28-.07.19.15.26.13.03 0 .02-.06.01-.08l-.03-.16s-.02-.03-.03-.02l-.33.08-.39.08s-.03.02-.03.03c0 .07.17-.02.18.12l.1.74c.03.19-.1.13-.09.21 0 0 .01.02.03.01l.18-.05.17-.03s.07 0 .06-.04c0-.04-.16.04-.19-.14l-.03-.23c-.01-.09-.02-.11.05-.13l.11-.03c.15-.04.13.14.18.13.03 0 .02-.06.01-.08l-.05-.28s-.02-.04-.03-.03c-.03 0-.01.15-.14.18l-.09.02c-.06.01-.06 0-.07-.06l-.03-.22Zm.53.31c.06.32.29.47.58.39.46-.13.47-.54.43-.76-.06-.33-.31-.47-.59-.39-.34.1-.48.42-.42.76m.16-.14c-.04-.23-.01-.46.23-.54.18-.06.39.07.46.42.05.26 0 .49-.24.57-.26.08-.41-.22-.45-.45m1.13-.68c-.02-.09.02-.11.07-.13.14-.05.25.04.29.19.02.09.03.18-.18.25-.04.01-.09.03-.1 0zm0 .77c.05.19-.08.18-.07.23 0 .03.04.02.05.01l.22-.08c.06-.02.1-.03.12-.04.03-.01.04-.02.04-.04-.01-.06-.14.06-.18-.11l-.07-.27c-.01-.05-.02-.06.05-.09.06-.03.12-.01.15.04l.18.2c.07.07.14.16.25.12.06-.02.14-.09.13-.13 0-.01-.01-.02-.02-.01s-.03.02-.04.02h-.06l-.33-.35.07-.09c.04-.07.06-.15.03-.22-.02-.07-.1-.28-.41-.17l-.28.1-.17.05s-.03.02-.03.03c.01.06.15-.05.2.12zm1.17-.39c.05.18-.13.17-.11.23 0 .03.03.02.06.01l.2-.08.2-.07s.07-.02.06-.06-.18.07-.23-.12l-.18-.69c-.02-.07 0-.09.05-.11l.12-.04c.16-.07.16.12.22.1.04-.01 0-.07 0-.08l-.05-.13s-.01-.04-.03-.03l-.43.16-.43.15s-.02.03-.01.04l.03.21s0 .06.03.05c.06-.02-.03-.21.13-.27l.12-.04c.06-.02.07-.02.09.05l.19.71Zm.75-1.07c-.04-.14.08-.13.07-.18 0-.02-.01-.02-.06 0l-.18.08-.16.05s-.05.01-.04.04c.02.05.16-.05.2.09l.21.73c.04.14-.07.14-.06.2 0 0 0 .02.02.01l.16-.07.22-.08s.04-.02.04-.04c-.01-.05-.15.08-.2-.11l-.21-.72Zm.31.33c.1.3.36.42.64.3.44-.19.4-.59.33-.8-.11-.31-.38-.41-.65-.29-.33.15-.43.47-.32.8Zm.14-.16c-.07-.21-.08-.45.16-.56.18-.08.41.02.52.34.09.25.08.48-.16.59-.25.11-.44-.16-.52-.37m1.04-.84c-.04-.09 0-.11.06-.13.14-.07.26 0 .32.14.03.09.06.17-.15.27-.04.02-.09.05-.11 0l-.12-.29Zm.1.75c.07.18-.05.19-.04.24.01.03.04.01.05 0l.21-.11c.06-.03.1-.04.12-.05.03-.02.04-.03.03-.04-.02-.05-.13.07-.19-.08l-.1-.25c-.02-.05-.03-.06.04-.09.05-.04.12-.03.15.01l.21.17c.08.06.16.13.26.08.05-.03.13-.1.11-.15 0-.01-.02-.02-.03-.01s-.02.02-.04.03q-.03.015-.06 0l-.38-.29s.03-.05.05-.1c.03-.07.04-.15 0-.22-.03-.07-.14-.26-.44-.11l-.27.14-.16.07s-.03.02-.02.04c.02.05.15-.08.21.09l.26.64Z" class="cls-1"/><path d="m46.99 60.6 7.14-.75v7.12l-7.14.75z" class="cls-6"/><path d="M50.34 65.86c0 .16-.03.31-.07.47q-.08.24-.16.37c-.09.14-.2.27-.33.37-.15.12-.33.19-.52.2-.48 0-.7-.49-.81-.89-.11-.43-.44-.64-.65-.46-.12.11-.13.27-.03.41.09.1.22.17.36.21l-.25.35a.69.69 0 0 1-.65-.57c-.04-.21.06-.63.42-.78.46-.2.75.09.9.36.2.36.28 1.05.82.89.29-.09.43-.53.43-.73l.21-.25.32.07Zm.44-.05c0 .16.03.31.07.45q.08.23.16.33.135.195.33.3c.15.09.33.12.52.09.48-.09.7-.63.81-1.06.11-.46.44-.73.65-.59.12.08.13.24.03.4-.09.12-.22.22-.36.28l.25.3c.33-.09.59-.37.65-.71.04-.22-.06-.61-.42-.7-.46-.11-.75.25-.9.54-.2.4-.28 1.11-.82 1.06-.29-.03-.43-.44-.43-.64l-.21-.21-.32.13Z" class="cls-7"/><path d="m51.2 62.74.93-1.11c.09-.08.14-.2.14-.31l-.19.05-.04-.09v-.1l.25-.08v-.12c0-.04.02-.07.03-.11l-.28.05c.01-.05.01-.08.03-.12 0-.03.02-.07.04-.1l.17-.04c.06-.01.1-.01.16-.02.15-.3.8-.64 1.26-.21.33.31.26.95-.17 1.16-.2.11-.43.1-.6-.03l.17-.35c.24.12.43-.08.42-.26 0-.21-.17-.36-.38-.35-.2 0-.34.13-.43.31-.05.11-.03.19-.05.31 0 .11-.02.22-.05.34-.04.12-.11.24-.21.33l-.96 1.14-3.73 4.43-.28-.23 3.75-4.45Z" class="cls-3"/><path d="M48.45 63.38s.23 1.14 1.03 2.79c.41-.19.64-.31 1.07-.36s.67.01 1.07.13c.8-1.83 1.03-3.01 1.03-3.01l-2.1-2.49-2.1 2.93Z" class="cls-7"/><path d="m50.76 61.35 1.46 1.73s-.19.93-.79 2.37c-.22-.03-.44-.05-.67-.04v-4.05Zm-.41.04-1.46 2.03s.19.89.79 2.21c.22-.08.44-.14.67-.19zm4.54-1.62 7.14-.75v7.12l-7.14.75z" class="cls-3"/><path d="m55.89 59.67 1.06-.11v7.12l-1.06.11zm2.04-.22 1.06-.11v7.12l-1.06.11zm2.03-.21 1.06-.11v7.12l-1.06.11z" class="cls-6"/><path d="M47.02 73.9c.03.2.09.38.19.55.13.19.08.19.37.48q.24.21.54.33c.19.08.39.13.59.15.47.08.96.07 1.44-.01.3-.05.6-.11.89-.19.32-.08.64-.14.97-.19.19-.03.36-.05.53-.06.21 0 .43 0 .63.02.32.04.64.09.95.18v-7.44l-7.14.75v5.08s.01.25.03.33Z" class="cls-3"/><path d="m47.85 75.11.33.16.46.12v-7.08l-.79.08zm3.96-.09v-7.04l-.79.08v7.16l.79-.17zm1.58-7.21-.79.08v7.07c.27 0 .53.02.79.06zm-3.16.33v7.24c-.27.04-.53.07-.8.08v-7.23l.8-.08Z" class="cls-6"/><path d="m49.83 75.46-.4.03h-.02v-7.28l.84-.09v7.28h-.02zm-.38-.02c.25-.01.5-.04.75-.08v-7.19l-.75.08zm3.97-.39h-.03c-.26-.05-.52-.07-.79-.07h-.02v-7.11l.84-.09v7.26Zm-.8-.11q.375 0 .75.06v-7.16l-.75.08zm-1.63.3v-7.2l.84-.09v7.11zm.05-7.16v7.11l.75-.16V68zm-2.38 7.34-.49-.12-.35-.17v-6.76l.84-.09v7.13Zm-.79-.32.32.15.42.11v-7.03l-.75.08v6.68Z" class="cls-6"/><path d="M62 72.32c-.03.2-.09.4-.19.59-.13.22-.08.21-.37.56q-.24.27-.54.45c-.19.12-.39.21-.59.28-.47.17-.96.27-1.44.29-.3.02-.6.02-.89 0-.32-.01-.64 0-.97.01-.19.01-.36.03-.53.06-.21.04-.43.09-.63.15-.33.1-.65.23-.96.38v-7.44l7.14-.75v5.08s-.01.25-.03.33Z" class="cls-3"/><path id="B" d="m56.71 68.06-.05.03s-.04.05-.07.08-.07.06-.11.08c-.02.01-.04.03-.05.04-.02.03 0 .06-.02.09q-.015.045-.06.09c-.03.03-.06.07-.09.1-.03.04-.06.07-.09.1 0 0-.02.01-.03.02-.02 0-.03 0-.05.01-.03.02-.04.05-.07.07 0 .02 0 .03.02.05.01.03.06.1.07.12.02.02.02.06.05.06h.11c.06 0 .12 0 .18.02.05.02.07.04.13.06l.11.03h.09c.02 0 .03-.01.05-.02h.01v.03l.18.06s-.03.07-.02.11c.05.16.1.26.13.26.05.01.07.07.1.12l-.03.03c-.05.05-.1.11-.14.17-.06.11-.11.12-.03.24.05.08.07.09.13.2.03.05.05.11.07.16s.03.11.03.17l.08.02.06-.06.05-.11v-.08s-.03-.04-.02-.07c0-.03.04-.03.06-.06.02-.04-.03-.06-.06-.09-.05-.05-.12-.06-.14-.15 0-.02 0-.04.03-.07l.17-.18s.06.01.08 0c.02 0 .05 0 .12.02h.14s0 .03.01.05c0 .09-.01.26.01.3 0 .01.02.03.02.05.01.02.02.04.02.05v.16c0 .05 0 .1-.02.15 0 .03-.02.07-.04.1s-.05.04-.08.07v.09l.09.03.11.02.06-.03s0-.04.01-.06.02-.04.04-.05c.03-.02.07 0 .08-.02s0-.03 0-.07c0-.06-.02-.08-.02-.14-.01-.08-.02-.16-.01-.24 0-.05 0-.09.01-.14.01-.08.04-.12.06-.2.01-.07.03-.15.03-.22.27.01.55-.03.81-.12.01 0 .07-.03.07-.03q.105.075.24.12v.08c0 .02 0 .04.01.06 0 .01.02.02.03.02.02 0 .04 0 .06-.02s.02-.04.02-.07v-.06h.08c.03 0 .05 0 .08-.01v.1c0 .02.02.03.04.03s.03 0 .05-.01c.03-.02.02-.05.03-.08v-.07l.09-.04v.07c0 .03-.01.06-.02.08-.02.04-.04.09-.07.13l-.09.15-.05.06s-.03.05-.05.08c-.02.04-.05.07-.08.1-.06.05-.1.02-.18.09l-.02.09.12.03h.11l.04-.02c0-.02 0-.05.02-.07s.04-.04.07-.04.06 0 .09-.03.03-.08.05-.13c.06-.14.15-.26.26-.37.05-.06.1-.08.14-.14.02-.03.05-.05.05-.08 0-.02-.01-.03-.02-.06 0-.03-.01-.06-.02-.09.13.05.08.05.11.11.02.05 0 .09 0 .15s.04.09.05.16c0 .07 0 .14-.03.2 0 .06-.02.12-.04.18s-.06.11-.1.15c-.02.02-.03.03-.05.04v.09l.09.02.14.02.03-.03c.01-.06 0-.14.04-.15.04 0 .06 0 .07-.03v-.06l.05-.4.04-.17c0-.05.02-.1.04-.15.06-.19-.02-.2-.09-.31a.3.3 0 0 1-.06-.12c0-.07.01-.13.01-.24v-.25s.02-.01.03-.02q.15-.075.21-.24c.02-.04.03-.09.03-.13v-.09c0-.03-.01-.05-.03-.08-.01-.03-.03-.05-.05-.07a.4.4 0 0 0-.24-.1c-.12-.02-.24-.03-.36-.01-.12 0-.25.01-.37.03-.17.03-.27.07-.45.11-.14.03-.28.06-.43.08-.2.02-.38 0-.5.02-.21.04-.22.09-.54.15l-.33.05-.19-.04c.05-.02.1-.05.13-.1.02-.03.02-.06.05-.1a.6.6 0 0 1 .07-.09.1.1 0 0 0-.08-.03h-.08c-.04 0-.07.02-.11.04-.03.02-.05.04-.07.06-.06-.03-.12-.06-.19-.09a.8.8 0 0 0-.26-.05Zm.17 1.01" class="cls-6"/><path id="C" d="m59.13 69.1.04-.09s-.07.02-.11.02h-.22l.09-.1h-.04a.3.3 0 0 1-.1-.05l-.07-.05.23-.07c.05-.02.09-.04.13-.06.06-.03.12-.07.22-.09.09-.02.24-.03.67 0 .25.02.36-.01.46-.07.04-.03.07-.07.07-.12q0-.075-.06-.12a.14.14 0 0 0-.07-.02c-.02 0-.04-.01-.04-.04 0-.02.02-.05.04-.05.04 0 .09 0 .12.03.06.04.1.11.09.18 0 .08-.05.16-.12.2-.11.06-.23.1-.51.08-.42-.03-.57-.01-.65 0-.09.02-.13.05-.19.08-.04.02-.08.05-.14.07h-.04s.06.02.09.02h.09l-.08.09h.03c.06 0 .12-.02.18-.04l.09-.03-.05.1s.04-.01.06-.02c.05-.02.09-.05.13-.08.05-.04.1-.08.18-.09.13-.02.23 0 .32 0 .09.01.18.02.29 0 .07 0 .15-.03.21-.06l.07-.03s.05 0 .05.02 0 .05-.03.06l-.07.03c-.07.04-.15.06-.23.07-.12.02-.21 0-.31 0-.09-.01-.18-.03-.3 0-.06.01-.09.04-.14.07-.04.03-.09.07-.15.09a1 1 0 0 1-.16.04h-.07Z" class="cls-5"/><g id="D"><path d="M56.73 68.38s-.08.01-.12.04-.05.07-.08.11c.04 0 .06.02.1.01.03 0 .05-.03.07-.05.03-.03.04-.07.04-.1Z" class="cls-4"/><path d="M56.62 68.56h-.11l.02-.03c0-.01.02-.03.02-.04.01-.03.03-.05.06-.07.04-.03.09-.05.13-.04h.03v.02c0 .04-.01.09-.04.12-.02.03-.05.05-.08.06h-.02Zm-.05-.05h.05c.02 0 .04-.02.05-.04.02-.02.03-.05.03-.07q-.045 0-.09.03c-.02.02-.03.03-.04.06z" class="cls-5"/></g><path id="E" d="M57.81 69.96s-.04-.02-.04-.04v-.12c0-.06-.01-.12-.02-.18a.2.2 0 0 0-.04-.11l-.03-.06s0-.05.02-.06.05 0 .06.01l.04.07s.04.09.05.13c.01.06.02.13.02.19v.13c0 .02-.02.04-.04.05Zm-.32-.09h-.02c-.08-.04-.1-.14-.12-.23 0-.04-.02-.09-.03-.1-.02 0-.03-.02-.03-.05s.03-.04.05-.04c.06 0 .07.08.09.16.02.07.03.16.08.18.02 0 .03.04.02.06 0 .01-.02.02-.04.03Zm.79-.09c-.02 0-.04-.02-.04-.05v-.06l.12-.43c0-.02.03-.04.05-.04s.04.03.03.05l-.11.43v.05s-.03.04-.05.04Z" class="cls-5"/><path d="m59.82 69.75-.05-.07.03-.03c.09-.05.16-.1.23-.17l.06.05a.8.8 0 0 1-.25.19l-.03.02Zm-.69-.07s-.04-.01-.04-.04c0-.02.02-.04.04-.05.16-.06.29-.13.4-.2.1-.06.18-.11.26-.12.02 0 .04 0 .05.03 0 .02-.01.05-.04.05-.06.01-.14.06-.23.11-.11.06-.25.14-.42.2Z" class="cls-5"/><path id="F" d="M60.22 69.63h-.02l-.1-.04a.56.56 0 0 1-.22-.14.5.5 0 0 0-.15-.11.2.2 0 0 1-.08-.05c-.04-.03-.07-.05-.13-.03-.03 0-.05.01-.08.01-.02 0-.04-.01-.04-.04 0-.02.02-.05.04-.05s.05 0 .07-.01c.11-.03.16.01.2.05.02.01.04.03.06.04.08.04.13.08.17.12.05.05.1.09.2.13l.1.04s.03.03.02.06c0 .02-.02.03-.04.03Z" class="cls-5"/><g id="G"><path d="M56.11 68.78h.06c.03 0 .04-.03.07-.03h.06c.01 0 .02.02.02.03s.01.02.01.04-.03.04-.05.04-.04 0-.05-.02v-.03c-.05.02-.1 0-.12-.03" class="cls-4"/><path d="M56.28 68.89s-.04 0-.06-.03v-.02c-.05 0-.09 0-.12-.05l-.03-.04h.05s.04.01.05 0c.01 0 .02 0 .03-.01.01 0 .03-.01.05-.02h.07c.02 0 .03.02.03.04 0 .01.02.03.01.05-.01.04-.04.06-.08.06Zm-.01-.12-.02.05v.02s.02.01.03.01c.02 0 .03-.01.03-.02v-.02c0-.01-.01-.02-.02-.02h-.04c-.01 0-.02 0-.03.01 0 0-.02.01-.03.02h.04l.04-.02Z" class="cls-5"/></g><path d="M56.76 69.55a1 1 0 0 1-.17-.05c.03-.02.05-.03.07-.06.03-.04.03-.07.05-.12s.02-.08.06-.12c.03-.02.06-.03.1-.02.03 0 .06.03.07.06.01.05-.01.08-.02.13-.01.04-.02.09-.02.13 0 .03.02.05.03.08-.06 0-.12 0-.18-.01Zm-.09.09s.02-.06.05-.06.05.02.05.05-.02.06-.05.06-.05-.02-.05-.05m-.15-1.41h-.01s-.04-.06-.05-.1c-.01-.03-.02-.06-.03-.1v-.17c0-.03 0-.06-.02-.08 0-.01-.03-.03-.03-.03h.04c.03 0 .06 0 .08.03.03.02.05.05.06.08l.04.12s.01.04.02.06.03.03.05.05-.04.06-.07.08c-.02.02-.05.04-.07.06Zm.31.89.19.07c.13-.1.24-.22.3-.37q.09-.18.12-.39l-.16-.03h-.03c-.03.14-.08.27-.14.39-.06.11-.14.2-.23.29l-.06.05Zm.43 1.53s.05-.08.08-.12c.04-.04.07-.08.11-.11h.04c0 .05 0 .09-.02.14 0 .04-.02.07-.03.11 0 .03-.02.06-.03.09-.01.02-.03.03-.04.05-.04-.06-.12-.1-.11-.15Zm2.87-.14c.09.01.18.05.25.1v.04c-.04.02-.09.03-.13.04-.04 0-.07.01-.11.01h-.09c-.02 0-.04-.01-.05-.02.05-.07.08-.15.13-.17m-.85-.09c.09.01.18.05.25.1v.04c-.04.02-.09.03-.13.04-.04 0-.07.01-.11.01h-.09c-.02 0-.04-.01-.05-.02.05-.07.08-.15.13-.17m-1.51.34.13.03c.04.02.09.04.13.07v.04c-.04.02-.09.03-.13.04-.04 0-.07.01-.11.01h-.09c-.02 0-.04-.01-.05-.02.05-.07.08-.15.13-.17Zm-.78-2.5c-.05-.02-.09-.08-.06-.13.01-.02.04-.02.05-.04s.02-.05.01-.07c0-.03 0-.05-.02-.08 0-.03-.01-.06-.01-.09 0-.05 0-.1.03-.14.02-.03.04-.05.07-.06.01.01 0 .04 0 .07s.01.07.03.1c.02.05.04.07.06.11.02.03.03.07.04.11 0 .03 0 .07-.02.1-.01.03-.03.06-.05.08s-.04.03-.07.04H57Z" class="cls-9"/><path id="B-2" d="m56.71 71.24-.05.03s-.04.05-.07.08-.07.06-.11.08c-.02.01-.04.03-.05.04-.02.03 0 .06-.02.09q-.015.045-.06.09c-.03.03-.06.07-.09.1-.03.04-.06.07-.09.1 0 0-.02.01-.03.02-.02 0-.03 0-.05.01-.03.02-.04.05-.07.07 0 .02 0 .03.02.05.01.03.06.1.07.12.02.02.02.06.05.06h.11c.06 0 .12 0 .18.02.05.02.07.04.13.06l.11.03h.09c.02 0 .03-.01.05-.02h.01v.03l.18.06s-.03.07-.02.11c.05.16.1.26.13.26.05.01.07.07.1.12l-.03.03c-.05.05-.1.11-.14.17-.06.11-.11.12-.03.24.05.08.07.09.13.2.03.05.05.11.07.16s.03.11.03.17l.08.02.06-.06.05-.11v-.08s-.03-.04-.02-.07c0-.03.04-.03.06-.06.02-.04-.03-.06-.06-.09-.05-.05-.12-.06-.14-.15 0-.02 0-.04.03-.07l.17-.18s.06.01.08 0c.02 0 .05 0 .12.02h.14s0 .03.01.05c0 .09-.01.26.01.3 0 .01.02.03.02.05.01.02.02.04.02.05v.16c0 .05 0 .1-.02.15 0 .03-.02.07-.04.1s-.05.04-.08.07v.09l.09.03.11.02.06-.03s0-.04.01-.06.02-.04.04-.05c.03-.02.07 0 .08-.02s0-.03 0-.07c0-.06-.02-.08-.02-.14-.01-.08-.02-.16-.01-.24 0-.05 0-.09.01-.14.01-.08.04-.12.06-.2.01-.07.03-.15.03-.22.27.01.55-.03.81-.12.01 0 .07-.03.07-.03q.105.075.24.12v.08c0 .02 0 .04.01.06 0 .01.02.02.03.02.02 0 .04 0 .06-.02s.02-.04.02-.07v-.06h.08c.03 0 .05 0 .08-.01v.1c0 .02.02.03.04.03s.03 0 .05-.01c.03-.02.02-.05.03-.08v-.07l.09-.04v.07c0 .03-.01.06-.02.08-.02.04-.04.09-.07.13l-.09.15-.05.06s-.03.05-.05.08c-.02.04-.05.07-.08.1-.06.05-.1.02-.18.09l-.02.09.12.03h.11l.04-.02c0-.02 0-.05.02-.07s.04-.04.07-.04.06 0 .09-.03.03-.08.05-.13c.06-.14.15-.26.26-.37.05-.06.1-.08.14-.14.02-.03.05-.05.05-.08 0-.02-.01-.03-.02-.06 0-.03-.01-.06-.02-.09.13.05.08.05.11.11.02.05 0 .09 0 .15s.04.09.05.16c0 .07 0 .14-.03.2 0 .06-.02.12-.04.18s-.06.11-.1.15c-.02.02-.03.03-.05.04v.09l.09.02.14.02.03-.03c.01-.06 0-.14.04-.15.04 0 .06 0 .07-.03v-.06l.05-.4.04-.17c0-.05.02-.1.04-.15.06-.19-.02-.2-.09-.31a.3.3 0 0 1-.06-.12c0-.07.01-.13.01-.24v-.25s.02-.01.03-.02q.15-.075.21-.24c.02-.04.03-.09.03-.13v-.09c0-.03-.01-.05-.03-.08-.01-.03-.03-.05-.05-.07a.4.4 0 0 0-.24-.1c-.12-.02-.24-.03-.36-.01-.12 0-.25.01-.37.03-.17.03-.27.07-.45.11-.14.03-.28.06-.43.08-.2.02-.38 0-.5.02-.21.04-.22.09-.54.15l-.33.05-.19-.04c.05-.02.1-.05.13-.1.02-.03.02-.06.05-.1a.6.6 0 0 1 .07-.09.1.1 0 0 0-.08-.03h-.08c-.04 0-.07.02-.11.04-.03.02-.05.04-.07.06-.06-.03-.12-.06-.19-.09a.8.8 0 0 0-.26-.05Zm.17 1.01" class="cls-6" data-name="B"/><path id="C-2" d="m59.13 72.28.04-.09s-.07.02-.11.02h-.22l.09-.1h-.04a.3.3 0 0 1-.1-.05l-.07-.05.23-.07c.05-.02.09-.04.13-.06.06-.03.12-.07.22-.09.09-.02.24-.03.67 0 .25.02.36-.01.46-.07.04-.03.07-.07.07-.12q0-.075-.06-.12a.14.14 0 0 0-.07-.02c-.02 0-.04-.01-.04-.04 0-.02.02-.05.04-.05.04 0 .09 0 .12.03.06.04.1.11.09.18 0 .08-.05.16-.12.2-.11.06-.23.1-.51.08-.42-.03-.57-.01-.65 0-.09.02-.13.05-.19.08-.04.02-.08.05-.14.07h-.04s.06.02.09.02h.09l-.08.09h.03c.06 0 .12-.02.18-.04l.09-.03-.05.1s.04-.01.06-.02c.05-.02.09-.05.13-.08.05-.04.1-.08.18-.09.13-.02.23 0 .32 0 .09.01.18.02.29 0 .07 0 .14-.03.21-.06l.07-.03s.05 0 .05.02 0 .05-.03.06l-.07.03c-.07.04-.16.07-.24.07-.12.02-.21 0-.31 0-.09-.01-.18-.03-.3 0-.06.01-.09.04-.14.07-.04.03-.09.07-.15.09a1 1 0 0 1-.16.04h-.07Z" class="cls-5" data-name="C"/><g id="D-2" data-name="D"><path d="M56.73 71.56s-.08.01-.12.04-.05.07-.08.11c.04 0 .06.02.1.01.03 0 .05-.03.07-.05.03-.03.04-.07.04-.1Z" class="cls-4"/><path d="M56.62 71.74h-.11l.02-.03c0-.01.02-.03.02-.04.01-.03.03-.05.06-.07a.22.22 0 0 1 .13-.04h.03v.02c0 .04-.01.09-.04.12-.02.03-.05.05-.08.06h-.02Zm-.05-.06h.05c.02 0 .04-.02.05-.04.02-.02.03-.05.03-.07q-.045 0-.09.03c-.02.02-.03.03-.05.06v.02Z" class="cls-5"/></g><path id="E-2" d="M57.81 73.14s-.04-.02-.04-.04v-.12c0-.07-.01-.12-.02-.18a.2.2 0 0 0-.04-.11l-.03-.06s0-.05.02-.06.05 0 .06.01l.04.07s.04.09.05.13c.01.06.02.13.02.19v.13c0 .02-.02.04-.04.05Zm-.32-.09h-.02c-.08-.04-.1-.14-.12-.23 0-.04-.02-.09-.03-.1-.02 0-.03-.02-.03-.05 0-.02.03-.04.05-.04.06 0 .07.08.09.16.02.07.03.16.08.18.02 0 .03.04.02.06 0 .01-.02.02-.04.03Zm.79-.09c-.02 0-.04-.02-.04-.05v-.06l.12-.43c0-.02.03-.04.05-.04s.04.03.03.05l-.11.43v.05s-.03.04-.05.04Z" class="cls-5" data-name="E"/><path d="m59.82 72.93-.05-.07.03-.03c.09-.05.16-.1.23-.17l.06.05a.8.8 0 0 1-.25.19l-.03.02Zm-.69-.07s-.04-.01-.04-.04c0-.02.02-.04.04-.05.16-.06.29-.13.4-.2.1-.06.18-.11.26-.12.02 0 .04 0 .05.03 0 .02-.01.05-.04.05-.06.01-.14.06-.23.11-.11.06-.25.14-.42.2Z" class="cls-5"/><path id="F-2" d="M60.22 72.81h-.02l-.1-.04a.56.56 0 0 1-.22-.14.5.5 0 0 0-.15-.11.2.2 0 0 1-.08-.05c-.04-.03-.07-.05-.13-.03-.03 0-.05.01-.08.01-.02 0-.04-.01-.04-.04 0-.02.02-.05.04-.05s.05 0 .07-.01c.11-.03.16.01.2.05.02.01.04.03.06.04.08.04.13.08.17.12.05.05.1.09.2.13l.1.04s.03.03.02.06c0 .02-.02.03-.04.03Z" class="cls-5" data-name="F"/><g id="G-2" data-name="G"><path d="M56.11 71.96h.06c.03 0 .04-.03.07-.03h.06c.01 0 .02.02.02.03s.01.02.01.04-.03.04-.05.04-.04 0-.05-.02v-.03c-.05.02-.1 0-.12-.03" class="cls-4"/><path d="M56.28 72.07s-.04 0-.06-.03v-.02c-.05.01-.09 0-.12-.05l-.03-.04h.05s.04.01.05 0c.01 0 .02 0 .03-.01.01 0 .03-.01.05-.02h.07c.02 0 .03.02.03.04 0 .01.02.03.01.05-.01.04-.04.06-.08.06Zm-.01-.12-.02.05v.02s.02.01.03.01c.02 0 .03-.01.03-.02v-.02c0-.01-.01-.02-.02-.02h-.04c-.01 0-.02 0-.03.01 0 0-.02.01-.03.02h.04l.04-.02Z" class="cls-5"/></g><path d="M56.76 72.73a1 1 0 0 1-.17-.05c.03-.02.05-.03.07-.06.03-.04.03-.07.05-.12s.02-.08.06-.12c.03-.02.06-.03.1-.02.03 0 .06.03.07.06.01.05-.01.08-.02.13-.01.04-.02.09-.02.13 0 .03.02.05.03.08-.06 0-.12 0-.18-.01Zm-.09.09s.02-.06.05-.06.05.02.05.05-.02.06-.05.06-.05-.02-.05-.05m-.15-1.42h-.01s-.04-.06-.05-.1c-.01-.03-.02-.06-.03-.1v-.17c0-.03 0-.06-.02-.08 0-.01-.03-.03-.03-.03h.04c.03 0 .06 0 .08.03.03.02.05.05.06.08l.04.12s.01.04.02.06.03.03.05.05-.04.06-.07.08c-.02.02-.05.04-.07.06Zm.31.9.19.07c.13-.1.24-.22.3-.37q.09-.18.12-.39l-.16-.03h-.03c-.03.14-.08.27-.14.39-.06.11-.14.2-.23.29l-.06.05Zm.43 1.52s.05-.08.08-.12c.04-.04.07-.08.11-.11h.04c0 .05 0 .09-.02.14 0 .04-.02.07-.03.11 0 .03-.02.06-.03.09-.01.02-.03.03-.04.05-.04-.06-.12-.1-.11-.15Zm2.87-.14c.09.01.18.05.25.1v.04c-.04.02-.09.03-.13.04-.04 0-.07.01-.11.01h-.09c-.02 0-.04-.01-.05-.02.05-.07.08-.15.13-.17m-.85-.08c.09.01.18.05.25.1v.04c-.04.02-.09.03-.13.04-.04 0-.07.01-.11.01h-.09c-.02 0-.04-.01-.05-.02.05-.07.08-.15.13-.17m-1.51.34.13.03c.04.02.09.04.13.07v.04c-.04.02-.09.03-.13.04-.04 0-.07.01-.11.01h-.09c-.02 0-.04-.01-.05-.02.05-.07.08-.15.13-.17Zm-.78-2.51c-.05-.02-.09-.08-.06-.13.01-.02.04-.02.05-.04s.02-.05.01-.07c0-.03 0-.05-.02-.08 0-.03-.01-.06-.01-.09 0-.05 0-.1.03-.14.02-.03.04-.05.07-.06.01.01 0 .04 0 .07s.01.07.03.1c.02.05.04.07.06.11.02.03.03.07.04.11 0 .03 0 .07-.02.1-.01.03-.03.06-.05.08s-.04.03-.07.04H57Z" class="cls-9"/><path d="M54.16 75.22h-.05c-.31-.09-.63-.15-.95-.19-.21-.02-.42-.03-.63-.02-.16 0-.32.03-.53.06-.32.05-.64.11-.96.19-.29.08-.59.14-.89.19-.49.08-.98.09-1.45.01-.21-.02-.41-.08-.6-.16-.2-.08-.39-.19-.55-.34-.21-.21-.25-.28-.3-.36-.02-.03-.04-.07-.08-.12-.1-.18-.16-.37-.19-.57-.01-.08-.03-.32-.03-.33v-5.12l7.21-.76zm-1.87-.26c.09 0 .17-.02.25-.02.21 0 .43 0 .64.02.31.03.61.09.91.17v-7.35l-7.07.74v5.05s.01.24.03.32c.03.19.09.38.18.54.04.05.06.09.08.12.05.09.08.14.29.35.15.14.33.25.53.33.18.08.38.13.59.15.47.08.95.07 1.43-.01.3-.05.59-.11.89-.19.32-.08.65-.14.97-.19.1-.02.2-.03.29-.04Zm2.56.19v-7.52l7.21-.76v5.12s-.01.25-.03.34c-.03.21-.1.41-.19.6-.04.06-.06.1-.08.14-.05.1-.09.17-.3.43a2.7 2.7 0 0 1-1.15.74c-.47.18-.96.27-1.45.29-.3.02-.6.02-.89 0-.32-.01-.64 0-.96.01-.2.01-.37.03-.53.06q-.315.06-.63.15c-.32.1-.64.23-.95.38zm.07-7.46v7.35c.29-.14.6-.26.91-.36.21-.07.42-.12.64-.16.16-.03.33-.04.54-.06.32-.02.65-.03.97-.01.29.02.59.01.89 0 .48-.02.96-.11 1.43-.29.21-.07.4-.16.59-.28.2-.12.38-.27.53-.44.2-.25.24-.31.29-.41.02-.04.04-.08.08-.14.09-.18.15-.38.18-.58.01-.08.03-.33.03-.33v-5.05l-7.07.74Zm7.14-1.52-7.21.76v-7.19l7.21-.76zm-7.14.68 7.07-.74v-7.05l-7.07.74zm-.76.15-7.21.76v-7.19l7.21-.76zm-7.14.68 7.07-.74v-7.05l-7.07.74z" class="cls-1"/></g><g id="White_Logo_RGB" data-name="White Logo RGB"><path id="WHITE_ESC_HEART" d="M56.13 129.5c1.03 1.13 2.54.85 3.24-.61C75.9 94 126.12 78.23 126.12 33.78c0-16.16-10.88-32.38-31.78-32.75-19.9-.36-37.77 12.46-39.63 33.22-.56-13.14-9.18-19.2-19.12-19.2C16.03 15.03.01 32.69.82 59.25c1.34 41.78 41.51 54.94 55.31 70.25m-3.56-85.25c.53 2.09 3.07 2.01 3.65-.05 8.61-31.2 48.19-34.61 48.19-3.02 0 24.94-44.21 51.56-47.58 75.24-8-15.53-37.39-24.07-37.39-57.83 0-28.74 27.94-34.77 33.12-14.34Z" class="cls-7"/></g></svg>