<svg xmlns="http://www.w3.org/2000/svg" viewBox="0 0 127.18 131.2"><defs><clipPath id="a"><path d="m58.82 124.17 1.04-7.35c1.47-10.32 12.12-22.11 22.43-33.52 12.38-13.7 25.18-27.86 25.18-42.12 0-12.41-6.81-24.94-22.03-24.94-9.34 0-20.76 5.46-27.59 17.23l-.56 1a41 41 0 0 0-2.69 6.13c-2.78-7.01-8.54-11.25-15.57-11.25-10.76 0-22.19 10.25-22.19 29.23 0 23.74 13.88 35.81 25.02 45.5 5.5 4.78 10.25 8.91 12.68 13.63l3.79 7.36.49-.91Z" style="fill:none"/></clipPath></defs><g data-name="ALBANIA" style="clip-path:url(#a)"><path d="m108.53 116.36-97.61 10.26v-103l97.61-10.26z" style="fill:#da291c"/><path d="M39.46 81.06c-.66-.07-1.18.29-1.35.88.5-.11.96-.33 1.28-.19.27.47 1.02.41 1.5 0 .73-.1 2.15-.27 2.48-.3-.48.34-1.06.74-1.34.95-1.13-.11-1.75.4-1.67 1.21-.27.45-.25 1.04.08 1.28.08-.35.27-.82.54-1.09.69.06 1.19-.22 1.4-1.01.44-.34 1.02-.76 1.25-.94s.41-.37.94-.2c.52.18 1 .32 1.3.46.17.65.82.63 1.25.27.27.13.5.37.65.64.25-.47.12-1.05-.37-1.15-.17-.5-.79-.61-1.23-.31-.37-.11-.88-.31-1.11-.38.75-.35 2.65-1.26 3.32-1.62.63.41 1.34.8 1.86.61.08-.47.31-.87.63-1.57.51-1.1 1.14-2.15 1.66-2.81s1.04-.37 1.01.47c-.09 2.03-1.57 5.2-3.76 5.55-.75.12-1.05.3-.63.82.38.48 1.57.42 2.23-.14s.89-.56.76.11-.88 1-1.44 1.09c-.81.14-1.73.53-.98 1.14s1.98.1 2.88-1.03c.31-.39.56-.52.54.06-.04 1-.63 1.7-1.25 1.9-.61.2-1.23.43-1.06.77.29.57 1.25.56 1.78.22.54-.35 1.11-.95 1.23-1.28.12-.34.35-.18.29.28-.13.98-.81 1.03-.81 1.82s.65 1.49 1.42 2.27c.77-.95 1.42-1.78 1.42-2.57s-.67-.7-.81-1.64c-.06-.44.17-.65.29-.34.11.32.69.79 1.23 1.02s1.5.03 1.78-.59c.17-.37-.44-.47-1.05-.54-.62-.07-1.21-.64-1.25-1.64-.02-.57.22-.5.54-.17.9.94 2.13 1.2 2.88.43s-.17-.96-.98-.94c-.55.02-1.3-.15-1.44-.79-.13-.64.1-.69.76-.27s1.85.23 2.24-.33c.41-.6.11-.72-.63-.68-2.19.12-3.67-2.75-3.76-4.76-.04-.83.49-1.23 1.01-.68s1.15 1.46 1.66 2.46c.32.63.56.98.64 1.43.52.08 1.23-.46 1.86-1 .67.22 2.57.73 3.32.92-.23.12-.75.43-1.11.62-.44-.2-1.06.03-1.23.57-.48.2-.61.82-.36 1.23.15-.3.38-.6.65-.78.42.26 1.07.16 1.25-.54.31-.2.79-.45 1.3-.73.53-.29.71-.13.94 0s.81.44 1.25.68c.21.75.71.93 1.4.72.27.22.46.64.54.98.33-.3.35-.9.08-1.3.08-.83-.54-1.21-1.67-.86-.29-.14-.86-.43-1.34-.67.33-.03 1.75-.17 2.47-.22.48.31 1.23.22 1.5-.31.33-.21.79-.08 1.28-.08-.17-.56-.69-.81-1.35-.6-.4-.33-.92-.28-1.47.33-.57.12-1.38.26-2.47.4.35-.27.83-.66 1.41-1.07.52.12 1.06-.14 1.24-.56.37-.39.81-.34 1.32-.31-.06-.83-.69-.85-1.58-.41-.52-.23-1.32.14-1.44.82-.34.53-1.04.89-1.81 1.49-.98-.3-2.22-.57-3.4-1.06.26-.29.52-.63.8-.95-1.92-.76-3.38-1.61-4.03-3.61-.22-.67.17-.56.35-.13.32.78.83 1.26 1.63 1.54.57.2.9-.48.48-.82s-.81-.95-.82-1.74c-.01-.56.62-.55.73-.27.92 2.4 2.05 3.99 3.01 3.47s.51-1.03 0-1.23c-.98-.38-1.53-1.78-1.59-2.52s.4-.77.71-.23 1.15 1.55 2.53 2.94 3.3 1.54 4.36.5c.93-.91.04-1.33-.88-1-1.76.63-3.59-1.01-4.68-3.72-.17-.42.15-.52.34-.31 2.45 2.76 4.51 2.81 5.68 1.67.41-.4.88-1.59-1.02-1.03-2.05.61-3.28-.81-4.72-2.77-.64-.87-.06-.95.52-.46.58.5 1.44 1.06 2.4 1.53.96.48 2.9.19 3.15-.98.25-1.18-.61-1.05-1.55-.64-1.63.71-2.84-.3-4.01-1.52-.52-.54-.31-.93.15-.77s1.56.57 2.26.88c.71.31 2.26.42 3.01-.7s-.42-1.61-1.36-.84-3.24.4-4.14-.7.11-.97.67-.74c1.41.58 3.17.47 4.68-.78.69-.57.58-.93.35-1.31-.13-.22-.6-.23-1.19.2-2.02 1.45-3.63 1.36-4.83-.18-.48-.61.12-.72.67-.51 2.35.89 4.76-.08 5.47-1.85.33-.83-.42-1.65-1.19-.57-.99 1.4-2.59 1.6-4.22 1.54-.78-.03-.79-1.02.04-1.22 1.78-.42 4.6-1.89 5.45-3.42.7-1.27-.71-2.52-1.46-1.02s-2.32 2.59-4.05 3.31c-.61.25-.82.26-.84.07-.03-.27-.23-.73-.42-.57-.48.32-2.21 1.1-3.05 1.49-.84.4-1.23 1.21-1.19 1.91.04.71.23 1.94-1.02 2.07-2 .21-1.16-3.11.02-4.21.91-.85 1.9-1.32 2.65-1.38s1.64-.46 1.73-1.15c.18-.06.53-.18.88-.22.27-.03.78-.36 1.03-.61s.55-.63.3-.82-.64.21-.8.53c-.15.31-.48.56-.65.6-.25.05-.68.17-.91.25s-.6.06-.7-.04c-.19-.21.02-.36.27-.48.29-.14.6-.14.69.04.06.12.18.23.38.23.23-1.31-1.02-1.12-2.05-.96-.62-.92-2.21-.07-3.3.56-.52.17-1.4.21-1.84.06s-.42.08-.27.28c.15.19.71.52.94.55s.15.16.08.26c-.24.33-.79.68-1.04.74-.25.07-.33.19-.19.27s.33.18.52.21c.19.04.17.12.06.28-.24.34-.86.73-1.07.71s-.23.1-.15.19.36.19.52.18c.15-.02.17.01.04.19-.14.19-.45.61-.73.56-.37-.07-.47.03-.35.18.27.35.26.51-.28.66-.54-.03-.55-.19-.28-.6.12-.17.02-.25-.35-.11-.28.11-.59-.24-.73-.4-.13-.15-.12-.18.04-.2.15-.02.44-.18.52-.28s.06-.22-.15-.16-.84-.19-1.07-.48c-.12-.14-.13-.22.06-.29.19-.08.38-.21.52-.32.13-.11.06-.22-.19-.23s-.79-.25-1.04-.53c-.08-.09-.15-.19.08-.28.23-.08.79-.52.94-.75s.17-.46-.27-.22-1.32.39-1.84.33c-1.09-.4-2.69-.91-3.3.14-1.04.05-2.28.13-2.05 1.39.21-.04.32-.17.38-.31.09-.2.4-.26.69-.19.25.06.46.18.27.42-.1.13-.47.22-.7.19s-.66-.06-.91-.06c-.17 0-.5-.18-.65-.46s-.55-.6-.8-.36.05.56.3.76.76.42 1.03.39c.36-.04.7.01.88.03.09.67.98.88 1.73.79.75-.1 1.74.16 2.65.82 1.18.85 2.01 3.99.02 4.2-1.25.13-1.05-1.14-1.02-1.85.04-.72-.35-1.44-1.19-1.66s-2.57-.63-3.05-.85c-.19-.11-.39.38-.42.66-.02.19-.24.23-.84.11-1.73-.36-3.3-1.11-4.05-2.46-.75-1.34-2.16.2-1.46 1.33.84 1.35 3.66 2.23 5.45 2.27.83.02.82 1.01.04 1.21-1.63.4-3.23.54-4.22-.65-.77-.92-1.52.06-1.19.82.71 1.62 3.12 2.08 5.47.69.56-.33 1.15-.35.67.37-1.21 1.8-2.82 2.23-4.84 1.2-.59-.3-1.06-.2-1.19.05-.24.43-.34.81.35 1.23 1.52.94 3.27.67 4.68-.21.56-.35 1.57-.69.67.6s-3.2 2.15-4.14 1.57c-.94-.57-2.11.16-1.36 1.12s2.3.53 3.01.07 1.8-1.09 2.26-1.35.67.08.15.73c-1.17 1.47-2.38 2.73-4.01 2.36-.94-.21-1.8-.16-1.55.97s2.19 1 3.14.32c.96-.68 1.82-1.42 2.4-2.04s1.16-.66.52.35c-1.44 2.27-2.67 3.94-4.72 3.77-1.9-.17-1.43.93-1.02 1.24 1.17.9 3.22.41 5.68-2.87.19-.26.51-.22.35.23-1.09 2.94-2.92 4.96-4.68 4.7-.92-.13-1.81.47-.88 1.19 1.06.81 2.97.26 4.36-1.42 1.38-1.68 2.23-2.87 2.53-3.48.31-.61.77-.68.71.08-.06.75-.61 2.28-1.59 2.86-.51.3-.96.91 0 1.23s2.09-1.51 3.01-4.1c.11-.3.74-.44.73.12-.02.79-.4 1.48-.83 1.91-.42.43-.09 1.04.48.72.81-.45 1.32-1.04 1.63-1.88.17-.46.56-.65.35.06-.65 2.15-2.11 3.3-4.03 4.46.29.26.55.55.81.78-1.18.73-2.42 1.26-3.4 1.77-.78-.44-1.47-.65-1.81-1.11-.11-.65-.92-.85-1.44-.51-.89-.25-1.53-.1-1.58.74.52-.14.95-.27 1.32.03.17.39.72.53 1.24.3.58.28 1.06.58 1.41.77-1.09.09-1.9.11-2.47.12-.55-.49-1.06-.44-1.47-.02Zm20.36-26.75c.32-.19.67-.28.94-.2.27.09.33.35.02.48s-.71.17-.92.14c-.21-.04-.31-.26-.04-.42m-10.2 1.5c-.21.08-.61.12-.92.06s-.25-.34.02-.48.63-.13.94 0c.27.11.17.35-.04.43Z" style="fill:#200"/></g><path d="M56.13 129.5c1.03 1.13 2.54.85 3.24-.61C75.9 94 126.12 78.23 126.12 33.78c0-16.16-10.88-32.38-31.78-32.75-19.9-.36-37.77 12.46-39.63 33.22-.56-13.14-9.18-19.2-19.12-19.2C16.03 15.03.01 32.69.82 59.25c1.34 41.78 41.51 54.94 55.31 70.25m-3.56-85.25c.53 2.09 3.07 2.01 3.65-.05 8.61-31.2 48.19-34.61 48.19-3.02 0 24.94-44.21 51.56-47.58 75.24-8-15.53-37.39-24.07-37.39-57.83 0-28.74 27.94-34.77 33.12-14.34Z" data-name="White Logo RGB" style="fill:#fff"/></svg>