<svg xmlns="http://www.w3.org/2000/svg" viewBox="0 0 127.18 131.2"><defs><clipPath id="a"><path d="m59.64 123.12 1.08-7.56c1.51-10.62 12.47-22.76 23.08-34.49 12.74-14.1 25.91-28.67 25.91-43.34 0-12.77-7.01-25.66-22.67-25.66-9.61 0-21.37 5.62-28.39 17.73l-.58 1.03a42 42 0 0 0-2.77 6.31c-2.86-7.22-8.78-11.58-16.02-11.58-11.07 0-22.83 10.54-22.83 30.08 0 24.43 14.28 36.85 25.75 46.82 5.66 4.92 10.54 9.17 13.04 14.03l3.9 7.57.51-.93Z" style="fill:none"/></clipPath></defs><g data-name="ARMENIA" style="clip-path:url(#a)"><path d="M118.02 46.15 14.55 57.02V21.01l103.47-10.87z" style="fill:#ed1b35"/><path d="M118 78.06 14.55 89.18V55.9L118 44.96z" style="fill:#005fae"/><path d="M118 119.07 14.55 130.19V89.18L118 78.06z" style="fill:#f79d21"/></g><path d="M56.13 129.5c1.03 1.13 2.54.85 3.24-.61C75.9 94 126.12 78.23 126.12 33.78c0-16.16-10.88-32.38-31.78-32.75-19.9-.36-37.77 12.46-39.63 33.22-.56-13.14-9.18-19.2-19.12-19.2C16.03 15.03.01 32.69.82 59.25c1.34 41.78 41.51 54.94 55.31 70.25m-3.56-85.25c.53 2.09 3.07 2.01 3.65-.05 8.61-31.2 48.19-34.61 48.19-3.02 0 24.94-44.21 51.56-47.58 75.24-8-15.53-37.39-24.07-37.39-57.83 0-28.74 27.94-34.77 33.12-14.34Z" data-name="White Logo RGB" style="fill:#fff"/></svg>