<svg xmlns="http://www.w3.org/2000/svg" viewBox="0 0 127.18 131.2"><defs><clipPath id="a"><path d="m60.21 125.93 1.08-7.62c1.52-10.7 12.57-22.93 23.25-34.75 12.83-14.2 26.1-28.88 26.1-43.67 0-12.87-7.06-25.85-22.84-25.85-9.69 0-21.52 5.66-28.6 17.86l-.58 1.04c-1.06 1.96-2 4.08-2.79 6.36-2.88-7.27-8.85-11.67-16.14-11.67-11.15 0-23 10.62-23 30.3 0 24.61 14.38 37.12 25.94 47.17 5.7 4.96 10.62 9.24 13.14 14.13l3.93 7.63.51-.94Z" style="fill:none"/></clipPath></defs><g style="clip-path:url(#a)"><path d="M118.4 45.64 11.8 57.04l.03-38.35 106.6-11.4zm.87 74.89L11.74 131.92l.03-43.08L119.3 77.45z" style="fill:#ef3340"/><path d="M118 78.06 14.55 89.18V55.9L118 44.96z" style="fill:#f7f7f7"/></g><path d="M56.13 129.5c1.03 1.13 2.54.85 3.24-.61C75.9 94 126.12 78.23 126.12 33.78c0-16.16-10.88-32.38-31.78-32.75-19.9-.36-37.77 12.46-39.63 33.22-.56-13.14-9.18-19.2-19.12-19.2C16.03 15.03.01 32.69.82 59.25c1.34 41.78 41.51 54.94 55.31 70.25m-3.56-85.25c.53 2.09 3.07 2.01 3.65-.05 8.61-31.2 48.19-34.61 48.19-3.02 0 24.94-44.21 51.56-47.58 75.24-8-15.53-37.39-24.07-37.39-57.83 0-28.74 27.94-34.77 33.12-14.34Z" data-name="White Logo RGB" style="fill:#fff"/></svg>