<svg xmlns="http://www.w3.org/2000/svg" viewBox="0 0 127.18 131.2"><defs><clipPath id="clippath"><path d="m58.13 127.83 1.09-7.63c1.52-10.72 12.59-22.97 23.29-34.81 12.86-14.23 26.15-28.93 26.15-43.74 0-12.89-7.07-25.89-22.88-25.89-9.7 0-21.56 5.67-28.65 17.9l-.58 1.04c-1.06 1.96-2 4.08-2.8 6.37-2.89-7.28-8.86-11.69-16.17-11.69-11.17 0-23.04 10.64-23.04 30.36 0 24.66 14.41 37.19 25.99 47.25 5.71 4.96 10.64 9.25 13.16 14.16l3.93 7.64.51-.94Z" class="cls-1"/></clipPath><clipPath id="clippath-1"><path d="m57.81 124.48 1.15-7.76c1.61-10.89 13.32-23.34 24.64-35.37 13.6-14.46 27.66-29.41 27.66-44.45 0-13.1-7.48-26.32-24.21-26.32-10.27 0-22.81 5.76-30.31 18.19l-.61 1.05a43 43 0 0 0-2.96 6.47c-3.05-7.4-9.38-11.88-17.11-11.88-11.82 0-24.37 10.81-24.37 30.85 0 25.06 15.24 37.79 27.49 48.02 6.04 5.05 11.26 9.4 13.93 14.39l4.16 7.77z" class="cls-1"/></clipPath><clipPath id="clippath-2"><path d="m16.73 33.21 38.16-4v24.27l-38.16 4z" class="cls-1"/></clipPath><clipPath id="clippath-3"><path d="M16.73 33.21v12.14l38.16-4v12.14L16.73 33.22Zm38.16-4-19.08 2v24.27l-19.08 2L54.89 29.2Z" class="cls-1"/></clipPath><style>.cls-1{fill:none}.cls-7{fill:#f7f7f7}.cls-8{fill:red}</style></defs><g id="AUSTRALIA" style="clip-path:url(#clippath)"><g style="clip-path:url(#clippath-1)"><path d="m-6.9 5.52 121.68-9.75v125.09L-6.9 130.6z" style="fill:#000095"/><g style="clip-path:url(#clippath-2)"><path d="m16.73 33.21 38.16 20.27m0-24.27L16.73 57.49"/><path d="m54.03 55.74-18.22-9.68-18.23 13.5-1.7-4.16 15.66-11.61-15.66-8.32 1.7-4.52 18.23 9.68 18.22-13.5 1.71 4.16L40.07 42.9l15.67 8.32z" class="cls-7"/></g><g style="clip-path:url(#clippath-3)"><path d="m16.73 33.21 38.16 20.27m0-24.27L16.73 57.49"/><path d="m54.32 54.99-18.51-9.84L17.3 58.87l-1.14-2.77 16.8-12.46-16.8-8.92 1.14-3.02 18.51 9.84 18.51-13.72 1.13 2.77-16.8 12.46 16.8 8.92z" class="cls-8"/></g><path d="M35.81 31.21v24.27M16.73 45.35l38.16-4"/><path d="m38.99 55.15-6.36.66v-8.09l-15.9 1.67V41.3l15.9-1.67v-8.09l6.36-.66v8.09l15.9-1.67v8.09l-15.9 1.67z" class="cls-7"/><path d="M35.81 31.21v24.27M16.73 45.35l38.16-4"/><path d="m37.72 55.28-3.82.4v-9.71l-17.17 1.8v-4.85l17.17-1.8v-9.71l3.82-.4v9.71l17.17-1.8v4.85l-17.17 1.8z" class="cls-8"/><g id="Comwlth"><path id="Star7" d="m34.55 68.58 1.11 3.34 3.39-1.64-2.01 3.23 3.12 1.52-3.62.69.5 3.54-2.5-2.37-2.5 2.89.5-3.65-3.62.07 3.12-2.18-2.01-2.81 3.39.93 1.11-3.57Z" class="cls-7"/></g><g id="_αCrucis" data-name="αCrucis"><path id="Star7-2" d="m79.67 65.93.53 1.59 1.62-.78-.96 1.54 1.49.73-1.72.33.24 1.69-1.19-1.13-1.19 1.38.24-1.74-1.72.03 1.49-1.04-.96-1.34 1.62.44.53-1.7Z" class="cls-7" data-name="Star7"/></g><g id="_βCrucis" data-name="βCrucis"><path id="Star7-3" d="m70.06 51.73.53 1.59 1.62-.78-.96 1.54 1.49.73-1.72.33.24 1.69-1.19-1.13-1.19 1.38.24-1.74-1.72.03 1.49-1.04-.96-1.34 1.62.44.53-1.7Z" class="cls-7" data-name="Star7"/></g><g id="_γCrucis" data-name="γCrucis"><path id="Star7-4" d="m79.67 40.32.53 1.59 1.62-.78-.96 1.54 1.49.73-1.72.33.24 1.69-1.19-1.13-1.19 1.38.24-1.74-1.72.03 1.49-1.04-.96-1.34 1.62.44.53-1.7Z" class="cls-7" data-name="Star7"/></g><g id="_δCrucis" data-name="δCrucis"><path id="Star7-5" d="m88.2 47.27.53 1.59 1.62-.78-.96 1.54 1.49.73-1.72.33.24 1.69-1.19-1.13-1.19 1.38.24-1.74-1.72.03 1.49-1.04-.96-1.34 1.62.44.53-1.7Z" class="cls-7" data-name="Star7"/></g><g id="_εCrucis" data-name="εCrucis"><path id="Star5" d="m83.51 55.47.42.98 1.1-.04-.85.8.26 1.05-.94-.48-.94.68.26-1.1-.85-.63 1.1-.2.42-1.07Z" class="cls-7"/></g></g></g><g id="White_Logo_RGB" data-name="White Logo RGB"><path id="WHITE_ESC_HEART" d="M56.13 129.5c1.03 1.13 2.54.85 3.24-.61C75.9 94 126.12 78.23 126.12 33.78c0-16.16-10.88-32.38-31.78-32.75-19.9-.36-37.77 12.46-39.63 33.22-.56-13.14-9.18-19.2-19.12-19.2C16.03 15.03.01 32.69.82 59.25c1.34 41.78 41.51 54.94 55.31 70.25m-3.56-85.25c.53 2.09 3.07 2.01 3.65-.05 8.61-31.2 48.19-34.61 48.19-3.02 0 24.94-44.21 51.56-47.58 75.24-8-15.53-37.39-24.07-37.39-57.83 0-28.74 27.94-34.77 33.12-14.34Z" style="fill:#fff"/></g></svg>