<svg xmlns="http://www.w3.org/2000/svg" viewBox="0 0 127.18 131.2"><defs><clipPath id="clippath"><path d="m58.81 123.75 1.05-7.37c1.47-10.35 12.16-22.18 22.49-33.61 12.41-13.74 25.25-27.94 25.25-42.24 0-12.45-6.83-25-22.09-25-9.37 0-20.82 5.47-27.67 17.28l-.56 1a40 40 0 0 0-2.7 6.15c-2.79-7.03-8.56-11.28-15.61-11.28-10.79 0-22.25 10.27-22.25 29.31 0 23.81 13.91 35.91 25.09 45.63 5.51 4.79 10.27 8.93 12.71 13.67l3.8 7.38.49-.91Z" style="fill:none"/></clipPath><style>.cls-3{fill:#f03a49}.cls-6{fill:#f9f9f9}</style></defs><g id="AZERBAIJAN" style="clip-path:url(#clippath)"><path d="M116.38 47.47 4.89 57.8l-.33-37.75L112.03 7.81z" style="fill:#00b5e2"/><path d="M113.48 120.5 6 132.74l-.37-42.43 108.46-14.69z" style="fill:#509e2f"/><path d="M118 78.06 14.55 89.18V55.9l103.79-10.78z" class="cls-3"/><path d="M54.12 53.52c8.24-.94 14.98 4.99 15.05 13.24s-6.55 15.7-14.79 16.64-14.98-4.99-15.05-13.24 6.55-15.7 14.79-16.64" class="cls-6"/><path d="M57.45 55.64c6.87-.78 12.48 4.16 12.54 11.03s-5.46 13.08-12.33 13.86-12.48-4.16-12.54-11.03 5.46-13.08 12.33-13.86" class="cls-3"/><path d="m70.76 58.27 1.63 4.28 4.26-2.52-2 4.51 4.47 1.08-4.45 2.1 2.07 4.05-4.29-1.55-1.55 4.65-1.63-4.28-4.26 2.52 2-4.51-4.47-1.08 4.45-2.1-2.07-4.05 4.29 1.55z" class="cls-6"/></g><g id="White_Logo_RGB" data-name="White Logo RGB"><path id="WHITE_ESC_HEART" d="M56.13 129.5c1.03 1.13 2.54.85 3.24-.61C75.9 94 126.12 78.23 126.12 33.78c0-16.16-10.88-32.38-31.78-32.75-19.9-.36-37.77 12.46-39.63 33.22-.56-13.14-9.18-19.2-19.12-19.2C16.03 15.03.01 32.69.82 59.25c1.34 41.78 41.51 54.94 55.31 70.25m-3.56-85.25c.53 2.09 3.07 2.01 3.65-.05 8.61-31.2 48.19-34.61 48.19-3.02 0 24.94-44.21 51.56-47.58 75.24-8-15.53-37.39-24.07-37.39-57.83 0-28.74 27.94-34.77 33.12-14.34Z" style="fill:#fff"/></g></svg>