<svg xmlns="http://www.w3.org/2000/svg" viewBox="0 0 127.18 131.2"><defs><clipPath id="clippath"><path d="m58.82 125.22 1.04-7.35c1.47-10.32 12.12-22.11 22.43-33.52 12.38-13.7 25.18-27.86 25.18-42.12 0-12.41-6.81-24.94-22.03-24.94-9.34 0-20.76 5.46-27.59 17.23l-.56 1a41 41 0 0 0-2.69 6.13c-2.78-7.01-8.54-11.25-15.57-11.25-10.76 0-22.19 10.25-22.19 29.23 0 23.74 13.88 35.81 25.02 45.5 5.5 4.78 10.25 8.91 12.68 13.63l3.79 7.36.49-.91Z" style="fill:none"/></clipPath><style>.cls-3{fill:#2e007d}.cls-4{fill:#fff}</style></defs><g id="BOSNIA_HERZEGOVINA" data-name="BOSNIA &amp;amp; HERZEGOVINA" style="clip-path:url(#clippath)"><path d="m12.63 20.13 87.31 78.42v18.66L1.3 131.07V21.72z" class="cls-3"/><path d="m28.13 53.07-1.47 4.71 3.85-3.21 3.86 2.39-1.47-4.39 3.85-3.22-4.77.51-1.47-4.4-1.47 4.71-4.77.5zm8.93 8.03-1.47 4.71 3.86-3.21 3.85 2.39-1.47-4.39 3.85-3.22-4.76.51-1.47-4.4-1.47 4.71-4.77.5zM46 69.13l-1.48 4.71 3.86-3.21 3.86 2.39-1.47-4.39 3.85-3.22-4.77.51-1.47-4.4-1.47 4.71-4.77.5zm8.93 8.03-1.47 4.71 3.85-3.21 3.86 2.4-1.46-4.4 3.84-3.22-4.76.51-1.48-4.4-1.47 4.71-4.76.5zm8.94 8.03-1.48 4.71 3.86-3.21 3.85 2.4-1.46-4.4 3.85-3.22-4.77.51-1.47-4.4-1.47 4.71-4.77.5z" class="cls-4"/><path d="m12.63 20.13 87.31 78.42V10.92z" style="fill:#f4ce00"/><path d="M92.16 7.7v87.62l19.38-2.04V5.65z" class="cls-3"/></g><g id="White_Logo_RGB" data-name="White Logo RGB"><path id="WHITE_ESC_HEART" d="M56.13 129.5c1.03 1.13 2.54.85 3.24-.61C75.9 94 126.12 78.23 126.12 33.78c0-16.16-10.88-32.38-31.78-32.75-19.9-.36-37.77 12.46-39.63 33.22-.56-13.14-9.18-19.2-19.12-19.2C16.03 15.03.01 32.69.82 59.25c1.34 41.78 41.51 54.94 55.31 70.25m-3.56-85.25c.53 2.09 3.07 2.01 3.65-.05 8.61-31.2 48.19-34.61 48.19-3.02 0 24.94-44.21 51.56-47.58 75.24-8-15.53-37.39-24.07-37.39-57.83 0-28.74 27.94-34.77 33.12-14.34Z" class="cls-4"/></g></svg>