<svg xmlns="http://www.w3.org/2000/svg" viewBox="0 0 127.18 131.2"><defs><clipPath id="a"><path d="m58.7 126.97 1.08-7.61c1.52-10.68 12.55-22.89 23.21-34.69 12.81-14.18 26.06-28.84 26.06-43.59 0-12.84-7.05-25.81-22.8-25.81-9.67 0-21.49 5.65-28.55 17.83l-.58 1.03c-1.06 1.96-2 4.07-2.79 6.35-2.88-7.26-8.83-11.65-16.11-11.65-11.13 0-22.96 10.6-22.96 30.25 0 24.57 14.36 37.06 25.9 47.09 5.69 4.95 10.6 9.22 13.12 14.11l3.92 7.62.51-.94Z" style="fill:none"/></clipPath></defs><g style="clip-path:url(#a)"><path d="M-.01-2.24h41.39v137.85H-.01z" style="fill:#0b0b0b"/><path d="M67.02-1.86h43.14v137.85H67.02z" style="fill:#ef3340"/><path d="M39.84-1.8h29.93v123.58H39.84z" style="fill:#fde000"/></g><path d="M56.13 129.5c1.03 1.13 2.54.85 3.24-.61C75.9 94 126.12 78.23 126.12 33.78c0-16.16-10.88-32.38-31.78-32.75-19.9-.36-37.77 12.46-39.63 33.22-.56-13.14-9.18-19.2-19.12-19.2C16.03 15.03.01 32.69.82 59.25c1.34 41.78 41.51 54.94 55.31 70.25m-3.56-85.25c.53 2.09 3.07 2.01 3.65-.05 8.61-31.2 48.19-34.61 48.19-3.02 0 24.94-44.21 51.56-47.58 75.24-8-15.53-37.39-24.07-37.39-57.83 0-28.74 27.94-34.77 33.12-14.34Z" data-name="White Logo RGB" style="fill:#fff"/></svg>