<svg xmlns="http://www.w3.org/2000/svg" viewBox="0 0 127.18 131.2"><defs><clipPath id="clippath"><path d="m60.38 123.15 1.03-7.26c1.45-10.2 11.98-21.85 22.16-33.12 12.23-13.53 24.88-27.53 24.88-41.62 0-12.26-6.73-24.64-21.77-24.64-9.23 0-20.51 5.39-27.26 17.03l-.55.99a40.3 40.3 0 0 0-2.66 6.06c-2.75-6.93-8.43-11.12-15.38-11.12-10.63 0-21.92 10.12-21.92 28.88 0 23.46 13.71 35.38 24.72 44.95 5.43 4.72 10.12 8.8 12.52 13.47l3.74 7.27.49-.9Z" style="fill:none"/></clipPath><style>.cls-4{fill:#f9f9f9}</style></defs><g id="BULGARIA" style="clip-path:url(#clippath)"><path d="M118.17 45.05 13.18 55.77l.11-36.54L118.28 8.52z" class="cls-4"/><path d="M128.59 119.33 2.12 132.23l.15-49.01 126.47-12.91z" style="fill:#da2b11"/><path d="M120.2 54.45-6.27 67.35l.15-49.01L120.34 5.43z" class="cls-4"/><path d="M118 78.06 14.55 89.18V55.9L118 44.96z" style="fill:#00982d"/></g><g id="White_Logo_RGB" data-name="White Logo RGB"><path id="WHITE_ESC_HEART" d="M56.13 129.5c1.03 1.13 2.54.85 3.24-.61C75.9 94 126.12 78.23 126.12 33.78c0-16.16-10.88-32.38-31.78-32.75-19.9-.36-37.77 12.46-39.63 33.22-.56-13.14-9.18-19.2-19.12-19.2C16.03 15.03.01 32.69.82 59.25c1.34 41.78 41.51 54.94 55.31 70.25m-3.56-85.25c.53 2.09 3.07 2.01 3.65-.05 8.61-31.2 48.19-34.61 48.19-3.02 0 24.94-44.21 51.56-47.58 75.24-8-15.53-37.39-24.07-37.39-57.83 0-28.74 27.94-34.77 33.12-14.34Z" style="fill:#fff"/></g></svg>