<svg xmlns="http://www.w3.org/2000/svg" viewBox="0 0 127.18 131.2"><defs><clipPath id="clippath"><path d="m59.32 126.77 1.13-7.58c1.58-10.64 13.08-22.8 24.2-34.56 13.36-14.12 27.16-28.73 27.16-43.43 0-12.8-7.35-25.71-23.77-25.71-10.08 0-22.4 5.63-29.77 17.77l-.6 1.03c-1.1 1.95-2.08 4.05-2.91 6.32-3-7.23-9.21-11.6-16.8-11.6-11.6 0-23.94 10.56-23.94 30.14 0 24.48 14.97 36.92 27 46.91 5.93 4.93 11.05 9.19 13.68 14.05l4.09 7.59.53-.94Z" style="fill:none"/></clipPath><style>.cls-3{fill:#fff}</style></defs><g id="BELARUS" style="clip-path:url(#clippath)"><path d="M16.12 19.48h26.37v88.07H16.12z" class="cls-3"/><path d="M39.58 77.89v37.46l112.84 16.61 6.43-66.65z" style="fill:#008637"/><path d="M39.58 23.22v-1.55L158.85 9.09v62.45L39.58 84.12zm0 0-.91.1v1.55l.91-.1zM19.75 58.34v-.78l-.91.1v1.55l.91-.1zm0-10.78v-.77l-.91.1v1.55l.91-.1zm5.36-5.91-.91.1V40.2l.91-.1v-1.55l.91-.1V36.9l.91-.1v1.55l.91-.1v1.55l.91-.1v1.55l-.91.1v1.47l-.91.1v1.55l-.91.1v-1.55l-.91.1zm.91-.1.91-.1V39.9l-.91.1zm-6.27-15.47v-.77l-.91.1v1.55l.91-.1zm0 9.15v-.7l-.91.1v1.47l.91-.1zm19.83 4.12v.78l-.91.1v1.47l-.91.1v1.55l-.91.1V41.9l-.91.1v-1.47l-.91.1v-1.55l.91-.1v-1.55l.91-.1v-1.55h.05l.86-.1v1.55l.91-.1v1.55l.91-.1v.78Zm-1.82-.59-.91.1v1.55l.91-.1zM27.84 74.4v-.78l.91-.1v-1.55l.91-.1v1.55l.91-.1v1.47l.91-.1v-3.02l-.91.1v-1.55l-.91.1v-1.55l.91-.1v-1.55l.91-.1v-3.03l-.91.1v1.47l-.91.1v1.55l-.91.1v-1.55l-.91.1v-1.47l-.91.1v3.03l.91-.1v1.55l.91-.1v1.55l-.91.1v1.55l-.91.1v3.02l.91-.1v-.7Zm1.82-38.66v-2.25l-.91.1v3.03l.91-.1zm0 26.13v-.78l-.91.1v1.55l.91-.1v-.78Zm-4.37 8.14v.78l.91-.1v-1.55l-.91.1zm7.83-.82v-.77l-.91.1v1.55l.91-.1zm-4.37 8.13v.78l.91-.1v-1.55l-.91.1v.78Zm-9 5.53v-.78l-.91.1v1.55l.91-.1zm0-40.64-.91.1v-1.55l.91-.1v-1.55l.91-.1v-1.55l.91-.1v1.55l.91-.1v1.55l.82-.09v1.55l-.82.09v1.47l-.91.1v1.55l-.91.1v-1.55l-.91.1zm.9-.09.91-.1v-1.55l-.91.1zm18.02 38.73v.78l.91-.1v-1.55l-.91.1v.78Zm0-24.5v.77l.91-.1v-1.55l-.91.1zm-3.64-27.3v-.78l-.91.1v1.55l.91-.1v-.78Zm-5.37 10.57.91-.1v-1.55l.91-.1v-1.55l.91-.1v1.55l.91-.1v1.55l.82-.09v1.55l-.82.09v1.47l-.91.1v1.55l-.91.1v-1.55l-.91.1v-1.47l-.91.1zm1.82 1.36.91-.1v-1.55l-.91.1zM33.3 23.1v-.78l.82-.09.91-.1.91-.1v1.55l.91-.1v1.55l.91-.1v1.47l.91-.1v1.55l.91-.1v1.55l-.91.1v1.55l-.91.1v1.55l-.91.1v1.47l-.91.1v1.55l-.91.1v1.55l-.91.1v-1.55l-.82.09v-1.55l-.91.1v-1.47l-.91.1v-1.55l-.91.1v-1.55l-.91.1v-1.56l.91-.1v-1.55l.91-.1v-1.47l.91-.1v-1.55l.91-.1v-.78Zm-.91 5.45v1.55l.91-.1v1.55l.82-.09v1.55l.91-.1v-1.55l.91-.1v-1.55l.91-.1v-1.55l-.91.1v-1.55l-.91.1v-1.47l-.91.1v1.47l-.82.09v1.55zm7.19 16.15-.91.1v1.55l.91-.1zm0-12.26-.91.1v1.47l.91-.1zM24.2 30.19v-.78l-.91.1v1.55l.91-.1v-.78Zm-1.73-5.95v-.78l.82-.09.91-.1.91-.1v1.55l.91-.1v1.55l.91-.1v1.47l.91-.1v1.55l.91-.1v1.55l-.91.1v1.55l-.91.1v1.55l-.91.1v1.47l-.91.1v1.55l-.91.1v1.55l-.91.1v-1.55l-.82.09V35.7l-.91.1v-1.47l-.91.1v-1.55l-.91.1v-1.55l-.91.1v-1.55l.91-.1v-1.55l.91-.1v-1.47l.91-.1v-1.55l.91-.1v-.78Zm0 3.8v1.55l-.91.1v1.55l.91-.1v1.55l.82-.09v1.55l.91-.1V32.5l.91-.1v-1.55l.91-.1V29.2l-.91.1v-1.55l-.91.1v-1.47l-.91.1v1.47zm6.28 17.02v2.33l.91-.1v-3.1l-.91.1v.78Zm0-20.7v1.55l.91-.1v-3.1l-.91.1zm.91 73.57.91-.09v-1.47l.91-.1v-1.55l.91-.1v1.55l.91-.1v1.47l.82-.09V99l-.82.09v1.55l-.91.1v1.55l-.91.1v-1.55l-.91.1v-1.55l-.91.09zm1.82 1.36.91-.1v-1.55l-.91.1zm4.46 15.66v.78l-.91.09-.91.1-.82.09v-1.55l-.91.1v-1.55l-.91.1v-1.47l-.91.1v-1.55l-.91.1v-1.55l.91-.1v-1.55l.91-.1v-1.55l.91-.1v-1.47l.91-.09v-1.55l.82-.09v-1.55l.91-.1v1.55l.91-.1v1.55l.91-.09v1.47l.91-.1v1.55l.91-.1v1.55l.91-.1v1.55l-.91.1v1.55l-.91.09v1.47l-.91.1v1.55l-.91.1v.78Zm0-3.8v-1.55l.91-.1v-1.55l-.91.1v-1.55l-.91.1v-1.55l-.91.1v1.55l-.82.09v1.55l-.91.1v1.55l.91-.1v1.55l.82-.09v1.47l.91-.1v-1.47zm-17.1-5.09v.7l.91-.1v-1.47l-.91.1v.78Zm10.82-1.15v-2.33l-.91.1v3.03l.91-.1zm-.91-5.33-.91.1v1.55l-.91.09v1.55l-.91.09v-1.55l-.91.1v-1.55l-.91.1v-1.55l.91-.1v-1.47l.91-.1v-1.55l.91-.1v1.55l.91-.09v1.47l.91-.1v1.55Zm-1.82-1.36-.91.1v1.55l.91-.1zm7.19 10.8v.78l.91-.1v-1.55l-.91.1v.78ZM19.75 93.63v-.78l-.91.1v1.55l.91-.1v-.78Zm9.91.5V91.8l-.91.1V95l.91-.1v-.78Zm-7.19 4.56.82-.09v1.55l-.82.08v1.55l-.91.1v1.55l-.91.1v-1.55l-.91.1v-1.55l-.91.09v-1.55l.91-.1V97.5l.91-.1v-1.55l.91-.1v1.55l.91-.1v1.47Zm-.91.1-.91.1v1.55l.91-.1zm17.11-1.81.91-.1v1.55l-.91.1v1.55l-.91.1v1.55l-.86.09h-.05v-1.55l-.91.1v-1.55l-.91.1v-1.55l.91-.1V95.8l.91-.1v-1.55l.91-.1v1.55l.91-.1v1.47Zm-.91.1-.91.1v1.55l.91-.1zm.91 6.88v.7l.91-.1v-1.47l-.91.1v.78Zm0-12.33v.78l.91-.1v-1.55l-.91.1v.78Zm0 21.48v.77l.91-.09v-1.55l-.91.1zm-15.38-2.95v.78l.91-.1v-1.55l-.91.1zm6.37 4.68v-1.55l-.91.1v3.1l.91-.1zm-4.55 1.26v.78l-.91.1-.91.1-.82.09v-1.55l-.91.1v-1.55l-.91.1v-1.47l-.91.1v-1.55l-.91.1v-1.55l.91-.1v-1.55l.91-.1v-1.55l.91-.09v-1.47l.91-.09v-1.55l.82-.09v-1.55l.91-.1v1.55l.91-.1v1.55l.91-.1v1.47l.91-.1v1.55l.91-.1v1.55l.91-.1v1.55l-.91.1v1.55l-.91.1v1.47l-.91.1v1.55l-.91.09v.78Zm0-3.8v-1.55l.91-.1v-1.55l-.91.1v-1.55l-.91.1v-1.55l-.91.1v1.55l-.82.09v1.55l-.91.1v1.55l.91-.1v1.55l.82-.08v1.47l.91-.1v-1.47l.91-.1Zm-6.27-22.37v-3.1l.91-.1v-1.55l.91-.1v-1.55l.91-.1v-1.55l.91-.1v1.55l.82-.09v1.55l.91-.1v1.55l-.91.1-.82.09v1.55l.82-.09.91-.1.91-.1v-1.55l.91-.1v-1.55l.91-.1v-1.55l-.91.1v-1.55l-.91.1v-1.47l-.91.1v-1.55l-.91.1v-1.55l-.82.09v-1.55l-.91.1v1.55l-.91.1v1.55l-.91.1v1.55l-.91.1v-4.65l.91-.1v-1.47l.91-.1v-1.55l.91-.1v-1.55l.91-.1v-1.55l-.91.1v-1.55l-.91.1v-1.55l-.91.1v-1.47l-.91.1v-4.65l.91-.1v1.55l.91-.1v1.55l.91-.1v1.55l.91-.1v-1.55l.82-.09v-1.55l.91-.1v-1.55l.91-.1v-1.47l.91-.1v-1.55l.91-.1v-1.55l-.91.1v-1.55l-.91.1v-1.55l-.91.1-.91.1-.82.09v1.55l.82-.09.91-.1v1.55l-.91.1v1.55l-.82.09v1.55l-.91.1V57.4l-.91.1v-1.55l-.91.1V54.5l-.91.1v-3.1l.91-.1v-1.47l.91-.1v-1.55l.91-.1v-1.55l.91-.1v-1.55l.82-.09v-1.55l.91-.1v1.55l.91-.1v1.55l.91-.1v1.55l.91-.1v1.55l.91-.1v1.47l.91-.1v1.55l.91-.1v-1.55l.91-.1v-1.47l.91-.1v-1.55l.91-.1v-1.55l.91-.1v-1.55l.82-.09v-1.55l.91-.1v1.55l.91-.1v1.55l.91-.1v1.55l.91-.1v1.55l.91-.1v1.47l.91-.1v3.1l-.91.1v1.55l-.91.1v1.55l-.91.1v1.55l-.91.1v-1.55l-.91.1v-1.55l-.91.1v-1.55l.91-.1.91-.1v-1.55l-.91.1-.91.1-.82.09v1.55l-.91.1v1.55l-.91.1v1.55l.91-.1v1.55l.91-.1v1.47l.82-.09v1.55l.91-.1v1.55l.91-.1v1.55l.91-.1v-1.55l.91-.1v-1.55l.91-.1v-1.55l.91-.1v4.65l-.91.1v1.47l-.91.1v1.55l-.91.1v1.55l-.91.1v1.55l.91-.1v1.55l.91-.1v1.55l.91-.1v1.47l.91-.1v4.65l-.91.1v-1.55l-.91.1v-1.55l-.91.1v-1.55l-.91.1v1.55l-.91.1v1.55l-.91.1v1.55l-.82.09v1.47l-.91.1v1.55l-.91.1v1.55l.91-.1v1.55l.91-.1v1.55l.82-.09.91-.1.91-.1v-1.55l-.91.1-.91.1V83.6l.91-.1v-1.55l.91-.1V80.3l.91-.1v1.55l.91-.1v1.55l.91-.1v1.55l.91-.1v3.1l-.91.1v1.47l-.91.1v1.55l-.91.1v1.55l-.91.1v1.55l-.91.1v1.55l-.91.1v-1.55l-.82.09v-1.55l-.91.1v-1.55l-.91.1v-1.55l-.91.1v-1.47l-.91.1v-1.55l-.91.1v1.55l-.91.1v1.47l-.91.1v1.55l-.91.1v1.55l-.91.09v1.55l-.91.1V97l-.91.1v-1.55l-.82.09v-1.55l-.91.09v-1.55l-.91.1v-1.55l-.91.1v-1.47l-.91.1Zm8.09-13.19v1.55l.91-.1v1.55l.91-.1v1.47l.91-.1v-1.47l.91-.1v-1.55l.91-.1v-1.55l.91-.1v-1.55l.91-.1v-1.47l.82-.08v-7.76l-.82.09V63.8l-.91.1v-1.55l-.91.1V60.9l-.91.1v-1.55l-.91.1v-1.47l-.91.1v1.47l-.91.1v1.55l-.91.1v1.55l-.91.1v1.55l-.91.1v1.47l-.91.1v7.75l.91-.1v1.47l.91-.1v1.55zm-8.09 38.47v.77l.91-.1v-1.55l-.91.1v.77Z" style="fill:#d41825"/></g><g id="White_Logo_RGB" data-name="White Logo RGB"><path id="WHITE_ESC_HEART" d="M56.13 129.5c1.03 1.13 2.54.85 3.24-.61C75.9 94 126.12 78.23 126.12 33.78c0-16.16-10.88-32.38-31.78-32.75-19.9-.36-37.77 12.46-39.63 33.22-.56-13.14-9.18-19.2-19.12-19.2C16.03 15.03.01 32.69.82 59.25c1.34 41.78 41.51 54.94 55.31 70.25m-3.56-85.25c.53 2.09 3.07 2.01 3.65-.05 8.61-31.2 48.19-34.61 48.19-3.02 0 24.94-44.21 51.56-47.58 75.24-8-15.53-37.39-24.07-37.39-57.83 0-28.74 27.94-34.77 33.12-14.34Z" class="cls-3"/></g></svg>