<svg xmlns="http://www.w3.org/2000/svg" viewBox="0 0 127.18 131.2"><defs><clipPath id="clippath"><path d="m58.33 123.87 1.04-7.34c1.47-10.32 12.12-22.1 22.41-33.5 12.37-13.69 25.16-27.84 25.16-42.09 0-12.4-6.81-24.92-22.02-24.92-9.34 0-20.75 5.46-27.57 17.22l-.56 1a41 41 0 0 0-2.69 6.13c-2.78-7.01-8.53-11.25-15.56-11.25-10.75 0-22.17 10.24-22.17 29.21 0 23.73 13.87 35.78 25.01 45.47 5.49 4.78 10.24 8.9 12.67 13.62l3.79 7.35.49-.91Z" style="fill:none"/></clipPath><style>.cls-5{fill:#4e5b31}</style></defs><g id="CYPRUS"><g style="clip-path:url(#clippath)"><path d="M6.83 18.67 109.31 8.44v109.61L6.83 128.28z" style="fill:#f9f9f9"/></g><path id="branch" d="M56.92 90.57s-.03-.01-.04-.02h-.01c-.06-.06-.12-.11-.17-.17-.14-.15-.34-.37-.51-.56-.34-.38-.62-.72-.67-.78l-.09-.1-.84-.17-.61-.22.33-.4 1.13.36.84.08 1.55.98s-.23.21-.45.44c-.1.1-.22.23-.31.33-.04.04-.07.09-.1.13-.02.03-.04.07-.05.1m-5.77-1.12c-.76.07-1.5-.06-2.15-.38.08-.14.19-.27.31-.37.21-.18.59-.4 1.2-.47h.01c.72-.08 1.61.08 2.64.45-.61.42-1.3.69-2.01.76Zm-3.17-.37a.39.39 0 0 1-.34-.11.54.54 0 0 1-.15-.3c-.03-.15-.05-.3-.04-.45.05-.03.11-.05.17-.06h.01c.27-.03.49.18.58.41q.075.15.03.33c-.05.1-.15.17-.25.17Zm5.59-1.24c-1.88-.07-2.67-.67-3.01-1.15-.21-.29-.31-.66-.28-1.05.09-.03.19-.05.29-.06.5-.05 1.78.06 3.01 2.26Zm-3.85.03c-.8.08-1.41.01-1.82-.22a.96.96 0 0 1-.4-.4.8.8 0 0 1-.06-.21q.405-.21.84-.27c.04 0 .08-.01.13-.02.62-.07 1.56.04 2.56.9-.41.1-.83.17-1.25.22m-3.89.26c-.85.09-2.01-.05-2.73-.7.55-.19 1.11-.32 1.68-.4.05 0 .11-.01.16-.02.79-.08 1.4 0 1.8.27.11.06.2.15.24.28 0 .09-.04.19-.11.24-.18.16-.51.26-.97.32h-.06Zm-2.74-1.12a.31.31 0 0 1-.27-.1.6.6 0 0 1-.12-.26q-.045-.195-.03-.39s.09-.04.13-.05c.11 0 .21.03.28.1q.12.105.18.27c.04.09.05.19.02.28-.03.08-.11.14-.19.15m6.33-.8a.39.39 0 0 1-.34-.11.54.54 0 0 1-.15-.3c-.03-.15-.05-.3-.04-.45.05-.03.11-.05.17-.06h.01c.27-.03.49.18.58.41q.075.15.03.33c-.05.1-.15.17-.25.17Zm-3.08.19c-1.7.12-2.58-.27-3.03-.62-.19-.15-.34-.33-.46-.54-.04-.08-.08-.16-.1-.25.14-.06.28-.09.42-.11h.04c.57-.06 1.74.05 3.12 1.52Zm1.85-.36c-1.37-.06-2.15-.57-2.55-.98-.25-.24-.45-.55-.56-.89.14-.05.28-.08.42-.1h.12c.69-.06 1.94.12 2.58 1.98Zm-7.03.08c-.44.05-.87.04-1.29-.02-.72-.1-1.02-.35-1.16-.53a.7.7 0 0 1-.11-.26v-.12c.37-.13.75-.22 1.13-.26h.08c.31-.03.62-.04.93 0 .69.07 1.31.4 1.74.91-.43.15-.87.25-1.31.29Zm3.18-1.49a.41.41 0 0 1-.34-.1.54.54 0 0 1-.15-.3c-.03-.14-.05-.3-.04-.45.05-.03.11-.05.17-.06h.01c.27-.03.49.18.58.41q.075.15.03.33c-.04.1-.14.17-.25.18Zm-2.39-.08c-.46-.08-.89-.23-1.29-.43-.6-.31-1.33-.88-1.42-1.89s.09-.03.14-.03h.04c.18-.02.55 0 .99.28.56.37 1.09 1.07 1.55 2.07Zm1.56-.22c-.37-.13-.72-.32-1.02-.55-.8-.6-1.42-1.4-1.81-2.33.1-.06.2-.09.31-.11h.08c.26-.02.66.05 1.1.48.51.49.96 1.34 1.34 2.53Zm-4.05.31c-.52.05-.7-.21-.75-.33a.9.9 0 0 1-.06-.39c.08-.03.17-.05.26-.06h.02c.34-.05.67.07.87.32.03.04.11.17.04.29-.06.09-.18.15-.38.17m-1.15-1.34c-.4.04-.81.05-1.2.02-.46-.04-.73-.4-.87-.7a2.5 2.5 0 0 1-.19-.66c1.44-.11 2.12.24 2.43.55.2.18.32.43.35.71s-.2.04-.51.07Zm1.49-1.65s-.17-.19-.33-.42c-.17-.25-.33-.51-.33-.73s-.05-.67-.08-.92c-.04-.32-.08-.59-.08-.61s.9.24.9 1.05-.08 1.63-.08 1.64Zm-1.11.04h-.03c-.25-.02-.7-.16-1.2-.4-.55-.26-1-.55-1.26-.82-.24-.25-.38-.66-.42-1.22-.02-.26-.01-.52 0-.78.05-.02.09-.03.14-.04.19-.02.39.05.67.21.25.15.49.33.7.52q.405.36.78.78c.03.05.27.47.47.88.1.19.17.39.22.6.02.06.02.13 0 .19 0 .02-.02.04-.04.05-.02 0-.03.01-.05.01Z" class="cls-5"/><path id="branch-2" d="M54.09 90.87s.03-.02.04-.03h.01c.06-.08.12-.14.17-.21.14-.18.34-.44.51-.67.34-.46.62-.85.67-.92l.09-.12.84-.35.61-.35-.33-.33-1.13.6-.84.26-1.55 1.31s.23.17.45.34c.1.08.22.18.31.27.04.04.07.07.1.11.02.03.04.06.05.09m5.77-2.34c.76-.09 1.5-.37 2.15-.83a1 1 0 0 0-.31-.3c-.21-.13-.59-.28-1.2-.21h-.01c-.72.08-1.61.42-2.64 1.01.61.3 1.3.41 2.01.34Zm3.17-1.04a.52.52 0 0 0 .34-.18q.12-.15.15-.33c.03-.15.05-.31.04-.46-.05-.02-.11-.02-.17-.02h-.01c-.27.03-.49.29-.58.53-.05.11-.06.23-.03.33.05.09.15.14.25.12Zm-5.58-.06c1.88-.47 2.67-1.23 3.01-1.79.21-.34.31-.73.28-1.11-.09-.01-.19-.01-.29 0-.5.05-1.78.44-3.01 2.89Zm3.84-.77c.8-.08 1.41-.29 1.82-.6.17-.13.31-.3.4-.49.03-.07.05-.15.06-.23q-.405-.12-.84-.09c-.04 0-.08 0-.13.01-.62.07-1.56.37-2.56 1.43.41.01.83 0 1.25-.04Zm3.89-.56c.85-.09 2.01-.47 2.73-1.27-.55-.07-1.11-.09-1.68-.05-.05 0-.11 0-.16.01-.79.08-1.4.3-1.8.65-.11.08-.2.2-.24.33 0 .09.04.18.11.22.18.12.51.16.97.12h.06Zm2.74-1.69c.1-.01.2-.07.27-.15.06-.09.1-.18.12-.29.03-.13.04-.27.03-.4s-.09-.02-.13-.02c-.11.02-.21.07-.28.15-.08.09-.14.19-.18.31-.04.09-.05.2-.02.29.03.08.11.12.19.11m-6.33.52a.52.52 0 0 0 .34-.18q.12-.15.15-.33c.03-.15.05-.31.04-.46-.05-.02-.11-.02-.17-.02h-.01c-.27.03-.49.29-.58.53-.05.11-.06.23-.03.33.05.09.15.14.25.12Zm3.08-.45c1.7-.24 2.58-.82 3.03-1.26.19-.19.34-.4.46-.64.04-.09.08-.18.1-.27-.14-.03-.28-.03-.42-.02h-.04c-.57.06-1.74.43-3.12 2.19Zm-1.85.02c1.37-.35 2.15-1.02 2.55-1.52.25-.3.45-.64.56-1q-.21-.03-.42 0h-.12c-.69.09-1.94.53-2.58 2.52Zm7.03-1.4c.44-.04.87-.14 1.29-.29.72-.25 1.02-.56 1.16-.77a.8.8 0 0 0 .11-.29v-.12c-.37-.05-.75-.06-1.13-.03h-.08c-.31.03-.62.09-.93.19-.69.22-1.31.67-1.74 1.28.43.06.87.07 1.31.02Zm-3.18-.82a.48.48 0 0 0 .34-.18q.12-.15.15-.33c.03-.15.05-.31.04-.46-.05-.02-.11-.02-.17-.02h-.01c-.27.03-.49.29-.58.53-.05.11-.06.23-.03.33.04.09.14.14.25.12Zm2.39-.58c.46-.18.89-.41 1.29-.7.6-.43 1.33-1.16 1.42-2.19s-.09 0-.14 0h-.04c-.18.02-.55.11-.99.49-.56.49-1.09 1.3-1.55 2.4Zm-1.56.11c.37-.21.72-.47 1.02-.77.8-.77 1.42-1.7 1.81-2.71a.65.65 0 0 0-.31-.04h-.08c-.26.03-.66.18-1.1.71-.51.6-.96 1.54-1.34 2.81m4.05-.54c.52-.05.7-.36.75-.48.05-.13.07-.27.06-.41a.8.8 0 0 0-.26 0h-.02c-.34.03-.67.22-.87.51-.03.04-.11.2-.04.3.06.08.18.11.38.09Zm1.15-1.58c.4-.04.81-.12 1.2-.23.46-.13.73-.56.87-.89.09-.23.16-.46.19-.7-1.44.19-2.12.68-2.43 1.06-.2.22-.32.5-.35.79s.2 0 .51-.03Zm-1.49-1.34s.17-.22.33-.49c.17-.28.33-.58.33-.8s.05-.68.08-.94c.04-.33.08-.61.08-.63s-.9.43-.9 1.24.08 1.62.08 1.62m1.11-.19h.03c.25-.07.7-.31 1.2-.65.55-.37 1-.76 1.26-1.08.24-.3.38-.74.42-1.31.02-.26.01-.52 0-.77-.05 0-.09-.01-.14 0-.19.02-.39.13-.67.35-.25.2-.49.43-.7.67-.27.3-.53.62-.78.94-.03.06-.27.53-.47.98-.1.21-.17.42-.22.64-.02.06-.02.13 0 .19 0 .02.02.04.04.04h.05Z" class="cls-5" data-name="branch"/><path d="m85.48 44.01-.25.13-.1.05-.31.02-.29.17-.51.4-.02.02-.19.07-.18-.06-.1.06-.03.21-.1.16-.12.1-.41.08-.35.21-.45-.07-.21.1-.44.45-.23.13h-.08l-.3.02-.13.05-.19.2-.36.07-.11.09-.17.37-.19.22-.11.03-.12-.03-.09.02-.04.23-.09.1-.24.11-.19.18-.17.1-.23.02h-.05l-.22.15-.42.08-.18.19-.04.04-.08.06-.13.09-.03.02h-.16l-.19.08-.08-.11-.13.09-.17.03-.22-.07-.16-.06-.12.03-.04.21v.02l-.13.18-.24.17-.03.05-.27.38-.51.59-.43.26-.45.18-.31.29-.82.49-1.3.78-.27.11-.38.1-.68.32-.6.24h-.03l-.12.06-.84.34h-.39l-.23.11h-.61l-.42.05-.27.08-.5.29-.85.5-.28.29-.44.27-.51.22v-.21l-.18.07-.13.05-.41.11-.23.02-.14-.03h-.02l-.85.38-.94.19-.47.2-.35.03-.22.09-.43.1-.15-.02h-.03l-1.27.18h-.58l-.28.09-.47-.11h-.68l-.16-.04-.36-.07-.16.11-.12.03-.29-.07h-.1l-.24.12-.14-.02-.13-.09h-.3l-.18-.15-1.02.24-.28-.05-.93-.17-.15.02-.18.16-.28.13-.24.09-.33.05-.38-.06-.39-.15-.14-.02-.32.07-.1.02-.59-.25-.76-.4-.52-.19h-.19l-.03.08.1.29.03.3v.28l-.02.17.05.15.19.19.08.2.06.57v.58l-.09.93-.03.14-.11.49-.1.45-.38 1.21-.11.16-.26.2-.59.46-.43.29-.14.07-.35.06h-.22l-.27-.11-.27-.04-.35-.21-.39-.04-.43-.2-.11-.12h-.23l-.32-.06-.12-.02-.08-.02-.41.03-.38-.14-.2-.03-.28.02-.29.16-.15.08-.18-.05-.13.02-.15.24-.02.04-.1.07h-.13l-.1.02-.11.06-.15.08-.13.07-.06.03-.04.01-.07.02-.09.03-.15-.07-.08-.04h-.14l-.07.05v.25l-.08.16-.21.21-.22.21-.15.24-.4.95-.25.39-.08.09-.26.32-.23.2-.53.47-.5.24-.43.13-.21.02h-.4l-.36-.08-.39-.21-.43-.3-.63-.55-.09-.04h-.02l-.2-.12-.15.02-.06.1-.03.14-.03.12-.07.7v.04l.04.28.48.62.15.34.02.04.1.15.07.12.16.48-.11.29.06.18-.14.13-.03.16.43.49.09.23-.1.34-.17.2-.05.05.02.14.2.16.33.26.18.42.14.1.16-.05.09.06.13-.02.13.12.08.03.13.05.11.13.02.42.2.5v.32l.12.2.04.16-.06.45.16.12.17-.05h.11l.18.13.21.3.21-.05.13.05.64.51.14.06.1.04.13.12.2-.15h.02l.22-.05.1.05.18.1.24-.03.52.11.23.03.46.24.2.1.12.08.15.11.31.1.26.04.14.02.11.03.57.17.31.04.29.08.21.05h.15l.22-.22.21-.03.17.02.17-.05.27-.19.05-.08.19-.11.64-.15.19.04.48-.26.32.06.29-.13.63.07.17.1.19.19h.02l.21-.02-.09.15.27.26.25.35.02.05.18.51.13.17.09.25v.17l-.14.13-.02.07v.02l.02.07.05-.04.1-.07.13-.03h.37l.23-.14.15-.09.25.08.27-.03.11.04.32.11h.17l.06-.05.04-.1-.02-.11-.12-.13-.27-.29-.11-.15-.09-.23-.03-.3-.02-.2.03-.27.07-.1.05-.22.01-.06.15-.22.4-.3.43-.43.34-.26.35-.19v-.04l.05.01.9-.4H52l.4-.11 2.7-.09.1-.04.09-.26.05-.05.03-.03.3-.16.14-.03.38.05.16.02.25-.17.18-.02.37-.24.23-.02.09-.04.44-.37.43-.17.11-.07.04-.03.44-.28.28-.24.24-.15.26-.1.69-.12.14-.25.3-.07.18-.22.21-.1.15-.23.12-.19.17-.12.55-.09h.65l.09-.05.15-.54.15-.12.42-.65v-.4l.07-.27-.05-.47.06-.49.26-.64.23-.27.37-.29.19-.1.26-.07.04-.01.07-.02.91-.11.33-.04.3-.04.77.06h.05l.26.06.3.2.32.28.06.05.21.06.06.02.17-.05.24-.15.18-.17.25-.16.14-.23.06-.09.48-.24.57-.09.06-.04.04-.02.15-.19.14-.02.34.09.24-.07.19.06.15-.03.28-.06.3.18h.17l.61.3h.09l.07-.03.11-.04h.01l.01.01.07.09h.1l.11-.16-.04-.06-.02-.02-.22-.02-.2-.31.19-.22-.29-.33-.05-.05-.02-.02-.1-.14-.51-.73-.67-.46-.23-.16-.08-.06-.36-.33-.26-.31-.03-.07-.05-.11-.15-.32-.27-.18-.22-.21h-.01l-.45-.57-.07-.09-.11-.05-.22.02-.02-.02h-.01v-.02l.11-.12.12-.04.05-.12-.23-.64v-.02l-.02-.21.19-.98.02-.12.32-.68.2-.18.21-.44.18-.29.18-.19.03-.02.32-.23.27-.07.25-.06.44.09.42-.05.08-.02.19-.04.31-.13.15-.11.08-.13.16-.56.05-.18.1-.2.57-.72.43-.45.98-.82.48-.34.24-.17 2.18-1.2.57-.63.29-.33.52-.4.61-.31.53-.47.11-.16.14-.48.12-.04.11-.25.03-.07.43-.35.05-.03 1.66-1.01h.24l.13-.2.48-.13.09-.02.12-.07.1-.18v-.5l.12-.14.06-.31.05-.08.06-.08.14-.11-.02-.05Z" style="fill:#d57800"/></g><g id="White_Logo_RGB" data-name="White Logo RGB"><path id="WHITE_ESC_HEART" d="M56.13 129.5c1.03 1.13 2.54.85 3.24-.61C75.9 94 126.12 78.23 126.12 33.78c0-16.16-10.88-32.38-31.78-32.75-19.9-.36-37.77 12.46-39.63 33.22-.56-13.14-9.18-19.2-19.12-19.2C16.03 15.03.01 32.69.82 59.25c1.34 41.78 41.51 54.94 55.31 70.25m-3.56-85.25c.53 2.09 3.07 2.01 3.65-.05 8.61-31.2 48.19-34.61 48.19-3.02 0 24.94-44.21 51.56-47.58 75.24-8-15.53-37.39-24.07-37.39-57.83 0-28.74 27.94-34.77 33.12-14.34Z" style="fill:#fff"/></g></svg>