<svg xmlns="http://www.w3.org/2000/svg" viewBox="0 0 127.18 131.2"><defs><clipPath id="a"><path d="m59.11 124.24 1.22-7.55c1.71-10.6 13.21-22.58 24.34-34.17 13.37-13.92 27.19-28.31 27.39-42.99.18-12.77-6.9-25.76-23.09-25.99-9.94-.14-22.17 5.32-29.6 17.33l-.61 1.02a42 42 0 0 0-2.95 6.27c-2.86-7.26-8.92-11.71-16.41-11.81-11.44-.16-23.75 10.22-24.02 29.76-.34 24.44 14.26 37.06 25.98 47.2 5.78 5 10.78 9.32 13.3 14.21l3.93 7.63.54-.93Z" style="fill:none"/></clipPath></defs><g style="clip-path:url(#a)"><path d="M118.32 46.16-.16 58.62V17.38L118.32 4.93z" style="fill:#0b0b0b"/><path d="M129.93 121.29 11.47 133.74V87.82l118.46-12.45z" style="fill:#fc0"/><path d="M118 44.96v33.1L14.55 89.18V55.9z" style="fill:red"/></g><path d="M56.13 129.5c1.03 1.13 2.54.85 3.24-.61C75.9 94 126.12 78.23 126.12 33.78c0-16.16-10.88-32.38-31.78-32.75-19.9-.36-37.77 12.46-39.63 33.22-.56-13.14-9.18-19.2-19.12-19.2C16.03 15.03.01 32.69.82 59.25c1.34 41.78 41.51 54.94 55.31 70.25m-3.56-85.25c.53 2.09 3.07 2.01 3.65-.05 8.61-31.2 48.19-34.61 48.19-3.02 0 24.94-44.21 51.56-47.58 75.24-8-15.53-37.39-24.07-37.39-57.83 0-28.74 27.94-34.77 33.12-14.34Z" data-name="White Logo RGB" style="fill:#fff"/></svg>