<svg xmlns="http://www.w3.org/2000/svg" viewBox="0 0 127.18 131.2"><defs><clipPath id="a"><path d="m60.33 123.87 1.04-7.35C62.84 106.2 73.49 94.41 83.8 83c12.38-13.7 25.18-27.86 25.18-42.12 0-12.41-6.81-24.94-22.03-24.94-9.34 0-20.76 5.46-27.59 17.23l-.56 1a41 41 0 0 0-2.69 6.13c-2.78-7.01-8.54-11.25-15.57-11.25-10.76 0-22.19 10.25-22.19 29.23 0 23.74 13.88 35.81 25.02 45.5 5.5 4.78 10.25 8.91 12.68 13.63l3.79 7.36.49-.91Z" style="fill:none"/></clipPath></defs><g style="clip-path:url(#a)"><path d="M118.67 116.96 12.43 127.63l.19-41.17 106.24-10.67z" style="fill:#f9f9f9"/><path d="M117.91 48.25 12.53 58.36l.18-39.95L118.97 7.73z" style="fill:#0072ce"/><path d="M118 78.06 14.55 89.18V55.9L118 44.96z" style="fill:#0b0b0b"/></g><path d="M56.13 129.5c1.03 1.13 2.54.85 3.24-.61C75.9 94 126.12 78.23 126.12 33.78c0-16.16-10.88-32.38-31.78-32.75-19.9-.36-37.77 12.46-39.63 33.22-.56-13.14-9.18-19.2-19.12-19.2C16.03 15.03.01 32.69.82 59.25c1.34 41.78 41.51 54.94 55.31 70.25m-3.56-85.25c.53 2.09 3.07 2.01 3.65-.05 8.61-31.2 48.19-34.61 48.19-3.02 0 24.94-44.21 51.56-47.58 75.24-8-15.53-37.39-24.07-37.39-57.83 0-28.74 27.94-34.77 33.12-14.34Z" data-name="White Logo RGB" style="fill:#fff"/></svg>