<svg xmlns="http://www.w3.org/2000/svg" viewBox="0 0 127.18 131.2"><defs><clipPath id="a"><path d="m57.93 124.16 1.07-7.39c1.51-10.39 12.44-22.25 23.01-33.72 12.7-13.78 25.83-28.03 25.83-42.37 0-12.49-6.99-25.08-22.61-25.08-9.59 0-21.3 5.49-28.31 17.34l-.57 1c-1.05 1.9-1.98 3.96-2.76 6.17-2.85-7.06-8.76-11.32-15.98-11.32-11.04 0-22.76 10.31-22.76 29.41 0 23.89 14.24 36.02 25.67 45.77 5.64 4.81 10.51 8.96 13.01 13.71l3.89 7.4.51-.91Z" style="fill:none"/></clipPath></defs><g style="clip-path:url(#a)"><path d="M8.92 19.64 116.97 8.4v102.13L8.92 121.77z" style="fill:#f4f5f6"/><path d="m56.28 117.5-18.01 1.9V75.65L8.26 78.77V60.95l30.01-3.13V15.11l18.01-1.88v42.72l60.03-6.25v17.83l-60.03 6.24z" style="fill:#003580"/></g><path d="M56.13 129.5c1.03 1.13 2.54.85 3.24-.61C75.9 94 126.12 78.23 126.12 33.78c0-16.16-10.88-32.38-31.78-32.75-19.9-.36-37.77 12.46-39.63 33.22-.56-13.14-9.18-19.2-19.12-19.2C16.03 15.03.01 32.69.82 59.25c1.34 41.78 41.51 54.94 55.31 70.25m-3.56-85.25c.53 2.09 3.07 2.01 3.65-.05 8.61-31.2 48.19-34.61 48.19-3.02 0 24.94-44.21 51.56-47.58 75.24-8-15.53-37.39-24.07-37.39-57.83 0-28.74 27.94-34.77 33.12-14.34Z" data-name="White Logo RGB" style="fill:#fff"/></svg>