<svg xmlns="http://www.w3.org/2000/svg" viewBox="0 0 127.18 131.2"><defs><clipPath id="a"><path d="m58.68 125.47 1.09-7.65c1.53-10.74 12.61-23.01 23.33-34.87 12.88-14.25 26.2-28.99 26.2-43.82 0-12.91-7.09-25.94-22.92-25.94-9.72 0-21.6 5.68-28.7 17.93l-.58 1.04a43 43 0 0 0-2.8 6.38c-2.89-7.3-8.88-11.71-16.2-11.71-11.19 0-23.08 10.66-23.08 30.41 0 24.7 14.44 37.25 26.03 47.34 5.72 4.97 10.66 9.27 13.19 14.18l3.94 7.66.51-.94Z" style="fill:none"/></clipPath></defs><g style="clip-path:url(#a)"><path d="M67.53 6.3h37.3v124.09h-37.3z" style="fill:#e1000f"/><path d="M4.62 6.62h37.67v124.09H4.62z" style="fill:#000091"/><path d="M39.84-1.8h29.93v123.58H39.84z" style="fill:#f9f9f9"/></g><path d="M56.13 129.5c1.03 1.13 2.54.85 3.24-.61C75.9 94 126.12 78.23 126.12 33.78c0-16.16-10.88-32.38-31.78-32.75-19.9-.36-37.77 12.46-39.63 33.22-.56-13.14-9.18-19.2-19.12-19.2C16.03 15.03.01 32.69.82 59.25c1.34 41.78 41.51 54.94 55.31 70.25m-3.56-85.25c.53 2.09 3.07 2.01 3.65-.05 8.61-31.2 48.19-34.61 48.19-3.02 0 24.94-44.21 51.56-47.58 75.24-8-15.53-37.39-24.07-37.39-57.83 0-28.74 27.94-34.77 33.12-14.34Z" data-name="White Logo RGB" style="fill:#fff"/></svg>