<svg xmlns="http://www.w3.org/2000/svg" viewBox="0 0 127.18 131.2"><defs><clipPath id="clippath"><path d="m59.03 128.63 1.14-8.02c1.6-11.26 13.23-24.13 24.47-36.57 13.5-14.94 27.47-30.4 27.47-45.95 0-13.54-7.43-27.2-24.04-27.2-10.19 0-22.65 5.96-30.1 18.8l-.61 1.09a44.3 44.3 0 0 0-2.94 6.69c-3.03-7.65-9.31-12.28-16.99-12.28-11.73 0-24.2 11.18-24.2 31.89 0 25.9 15.14 39.06 27.3 49.64 6 5.22 11.18 9.72 13.83 14.87l4.13 8.03z" style="fill:none"/></clipPath><style>.cls-4{fill:red}</style></defs><g id="GEORGIA" style="clip-path:url(#clippath)"><path d="M13.27 13.33 118.11 2.31v111.75L13.27 125.08z" style="fill:#f6f6f6"/><path d="M108.96 54.2v11.04l-49.02 5.15v48.12l-11.03 1.16V71.55l-35.87 3.77V64.28l35.87-3.77V17.42l11.03-1.16v43.09z" class="cls-4"/><path d="M76.62 49.44c-1.4-.13-2.81-.16-4.23-.08.07 1.41.25 2.81.53 4.17-1.29-.03-2.59.1-3.88.41.28-1.43.46-2.86.53-4.29-1.42.22-2.83.54-4.23.97.17-1.31.17-2.61 0-3.88 1.4.13 2.81.16 4.23.08-.07-1.41-.25-2.81-.53-4.17 1.29.03 2.59-.1 3.88-.41-.28 1.43-.46 2.86-.53 4.29 1.42-.22 2.83-.54 4.23-.97-.17 1.31-.17 2.61 0 3.88m0 31.27c-1.4-.13-2.81-.16-4.23-.08.07 1.41.25 2.81.53 4.17-1.29-.03-2.59.1-3.88.41.28-1.43.46-2.86.53-4.29-1.42.22-2.83.54-4.23.97.17-1.31.17-2.61 0-3.88 1.4.13 2.81.16 4.23.08-.07-1.41-.25-2.81-.53-4.17 1.29.03 2.59-.1 3.88-.41-.28 1.43-.46 2.86-.53 4.29 1.42-.22 2.83-.54 4.23-.97-.17 1.31-.17 2.61 0 3.88m-33.1-27.79c-1.4-.13-2.81-.16-4.23-.08.07 1.41.25 2.81.53 4.17-1.29-.03-2.59.1-3.88.41.28-1.43.46-2.86.53-4.29-1.42.22-2.83.54-4.23.97.17-1.31.17-2.61 0-3.88 1.4.13 2.81.16 4.23.08-.07-1.41-.25-2.81-.53-4.17 1.29.03 2.59-.1 3.88-.41-.28 1.43-.46 2.86-.53 4.29 1.42-.22 2.83-.54 4.23-.97-.17 1.31-.17 2.61 0 3.88m0 31.25c-1.4-.13-2.81-.16-4.23-.08.07 1.41.25 2.81.53 4.17-1.29-.03-2.59.1-3.88.41.28-1.43.46-2.86.53-4.29-1.42.22-2.83.54-4.23.97.17-1.31.17-2.61 0-3.88 1.4.13 2.81.16 4.23.08-.07-1.41-.25-2.81-.53-4.17 1.29.03 2.59-.1 3.88-.41-.28 1.43-.46 2.86-.53 4.29 1.42-.22 2.83-.54 4.23-.97-.17 1.31-.17 2.61 0 3.88" class="cls-4"/></g><g id="White_Logo_RGB" data-name="White Logo RGB"><path id="WHITE_ESC_HEART" d="M56.13 129.5c1.03 1.13 2.54.85 3.24-.61C75.9 94 126.12 78.23 126.12 33.78c0-16.16-10.88-32.38-31.78-32.75-19.9-.36-37.77 12.46-39.63 33.22-.56-13.14-9.18-19.2-19.12-19.2C16.03 15.03.01 32.69.82 59.25c1.34 41.78 41.51 54.94 55.31 70.25m-3.56-85.25c.53 2.09 3.07 2.01 3.65-.05 8.61-31.2 48.19-34.61 48.19-3.02 0 24.94-44.21 51.56-47.58 75.24-8-15.53-37.39-24.07-37.39-57.83 0-28.74 27.94-34.77 33.12-14.34Z" style="fill:#fff"/></g></svg>