<svg xmlns="http://www.w3.org/2000/svg" viewBox="0 0 127.18 131.2"><defs><clipPath id="a"><path d="m59.43 125.24 1.27-7.79C62.48 106.5 75.45 93.99 88 81.89c15.07-14.54 30.66-29.57 30.64-44.69-.01-13.16-8.32-26.43-26.87-26.42-11.39 0-25.3 5.81-33.61 18.3l-.68 1.06c-1.24 2-2.35 4.17-3.28 6.5-3.39-7.43-10.41-11.92-18.98-11.92-13.11.01-27.03 10.89-27.01 31.02.02 25.17 16.94 37.95 30.53 48.22 6.7 5.06 12.49 9.44 15.46 14.44l4.62 7.8.6-.96Z" style="fill:none"/></clipPath></defs><g style="clip-path:url(#a)"><path d="M-19.97-2.39h178.91v144.95H-19.97z" style="fill:#f9f9f9"/><path d="M9.93 86.44v9l120.21-12.77v-9zm0 18v40.12l117.86-10.01 2.35-42.88zm0-79.62v25.62l21.67-2.31V21.9zm0 34.62v18l21.67-2.31v-18zM127.79-7.29 40.56.5v46.68l13.89-1.47v-9l75.69-8.05zM40.56 56.18v18l13.89-1.47 75.69-8.04v-9l-75.69 8.04v-9zm13.89-10.47v9l75.69-8.05v-9z" style="fill:#0d5eaf"/></g><path d="M56.13 129.5c1.03 1.13 2.54.85 3.24-.61C75.9 94 126.12 78.23 126.12 33.78c0-16.16-10.88-32.38-31.78-32.75-19.9-.36-37.77 12.46-39.63 33.22-.56-13.14-9.18-19.2-19.12-19.2C16.03 15.03.01 32.69.82 59.25c1.34 41.78 41.51 54.94 55.31 70.25m-3.56-85.25c.53 2.09 3.07 2.01 3.65-.05 8.61-31.2 48.19-34.61 48.19-3.02 0 24.94-44.21 51.56-47.58 75.24-8-15.53-37.39-24.07-37.39-57.83 0-28.74 27.94-34.77 33.12-14.34Z" data-name="White Logo RGB" style="fill:#fff"/></svg>