<svg xmlns="http://www.w3.org/2000/svg" viewBox="0 0 127.18 131.2"><defs><clipPath id="clippath"><path d="m60.45 123.38 1.06-7.35C63 105.7 74.05 93.87 84.74 82.42c12.84-13.75 26.12-27.96 26.06-42.22-.05-12.41-7.19-24.91-23.04-24.85-9.73.04-21.6 5.54-28.67 17.34l-.58 1a40.6 40.6 0 0 0-2.78 6.14c-2.92-7-8.93-11.22-16.26-11.19-11.2.04-23.07 10.33-22.99 29.32.09 23.74 14.59 35.75 26.24 45.4 5.74 4.76 10.7 8.87 13.26 13.58l3.97 7.34.51-.91Z" style="fill:none"/></clipPath><style>.cls-2{fill:#009ce0}.cls-3,.cls-4{fill:#f7df18}.cls-4,.cls-5{fill-rule:evenodd}.cls-6{fill:#fff}.cls-7{fill:#18189f}.cls-8{fill:#f9f9f9}.cls-9{fill:red}</style></defs><g id="CROATIA"><g style="clip-path:url(#clippath)"><path d="m-18.85 43.14 150.57-15.78.34 87.76-150.57 15.77z" class="cls-7"/><path d="m-18.85 42.04 150.57-15.78.18 48.21-150.56 15.78z" class="cls-8"/><path d="M-18.96 12.51 136.43-3.84l.21 56.27-155.39 16.35z" class="cls-9"/></g><path d="M54.78 87.65c6.69-.7 12.17-6.75 12.17-13.45V59.74L42.62 62.3v14.46c0 6.69 5.48 11.59 12.17 10.89Z" class="cls-9"/><path d="M54.78 87.45c6.56-.69 11.93-6.63 11.93-13.19V60l-23.87 2.51v14.26c0 6.56 5.37 11.37 11.93 10.68Z" class="cls-8"/><path d="m47.89 62.43-4.59.48v5.05l4.59-.48zm0 10.09 4.59-.48v-5.05l-4.59.48zm-4.6 4.18c0 .46.03.91.08 1.35l4.51-.47v-5.05l-4.59.48zm13.78-5.14-4.59.48v5.05l4.59-.48z" class="cls-9"/><path d="m57.07 81.65 4.59-.48v-5.05l-4.59.48zm4.59 2.28c1.02-.88 1.91-1.9 2.62-3.04l-2.62.28zm-13.77-1.32 4.59-.48v-5.05l-4.59.48zm-2.63.28c.72.98 1.61 1.83 2.63 2.49v-2.76l-2.63.28Z" class="cls-9"/><path d="M55.57 86.85a13 13 0 0 0 1.5-.36v-4.84l-4.59.48v4.84c.49.05.99.06 1.49.05.53-.02 1.07-.08 1.6-.17m10.6-11.2c.05-.45.08-.91.08-1.37v-3.69l-4.59.48v5.05zm-9.1-4.09 4.59-.48v-5.05l-4.59.48zm0-10.1-4.59.48v5.05l4.59-.48zm9.18 4.09V60.5l-4.59.48v5.05z" class="cls-9"/><path d="m66.51 59.64 2.85-6.58-2.17-3.18-3.59 1.67-2.52-2.54-3.33 2.2-2.97-2.05-2.97 2.68-3.33-1.51-2.52 3.07-3.59-.92-2.17 3.64 2.84 5.99c3.58-1.96 7.56-3.25 11.74-3.69s8.15.02 11.73 1.22" class="cls-8"/><path d="m46.04 53.67-3.56-.9-1.99 3.34.76 1.61 1.94 4.07c1.45-.77 2.95-1.44 4.51-1.99l-1.64-6.13Z" class="cls-2"/><path d="M45.84 56.79c.13.22.2.48.2.77 0 .93-.78 1.78-1.74 1.88-.85.09-1.55-.43-1.71-1.19.3.49.87.78 1.52.71.96-.1 1.75-.95 1.75-1.89 0-.09 0-.19-.02-.27Z" class="cls-6"/><path d="M44.3 59.46c-.84.09-1.57-.42-1.73-1.2l-.02-.11.06.09c.31.5.89.77 1.51.7.96-.1 1.73-.94 1.73-1.87 0-.09 0-.18-.02-.27s.02-.01.02-.01h.01c.13.22.2.49.2.77 0 .94-.79 1.8-1.76 1.9m-1.67-1.12c.2.71.88 1.16 1.67 1.08.95-.1 1.72-.93 1.72-1.86 0-.23-.05-.46-.15-.67v.17c0 .95-.79 1.81-1.77 1.91-.6.06-1.16-.18-1.48-.63Zm1.61-3.73v.03l-.13.62.48.36.03.02-.03.01-.6.27-.13.62v.03l-.03-.02-.48-.36-.6.27-.03.01.01-.03.12-.62-.48-.36-.02-.01.03-.02.6-.26.12-.62.01-.03.02.01.48.36.6-.26z"/><path d="m43.52 55.55.45.33.56-.25-1.01-.09Z" class="cls-3"/><path d="m43.52 55.54 1.01.09-.45-.33-.56.25Zm-1.09-.1 1.01.09-.45-.33-.56.25Zm1.01.11-1.01-.09.45.33.56-.25Zm.06-.04.68-.83-.56.25-.11.58Zm-.73.89.68-.83-.56.25-.11.58Zm.69-.82-.68.83.56-.25.11-.58Zm.73-.89-.68.83.56-.25.11-.58Zm-.73.82-.33-.91-.12.58zm.36.98-.33-.91-.11.58.45.33Zm-.32-.92.33.91.12-.58zm-.36-.98.33.91.11-.58-.45-.33Z" class="cls-3"/><path d="m51.84 52.12-3.3-1.49-2.5 3.04 1.64 6.13q2.295-.81 4.71-1.26l-.55-6.43Z" class="cls-7"/><path d="M47.28 58.28c1.61-.57 3.28-1.02 4.98-1.33l-.14-1.62c-1.8.33-3.55.81-5.26 1.41l.42 1.55Zm-.83-3.08c1.79-.63 3.64-1.13 5.53-1.48l-.14-1.59c-1.98.37-3.92.89-5.8 1.55z" class="cls-9"/><path d="m57.73 51.5-2.94-2.03-2.93 2.65.55 6.43c.79-.15 1.58-.26 2.38-.35s1.6-.13 2.39-.15l.55-6.54Z" class="cls-2"/><g id="lion"><path d="M54.77 54.73s-.01 0-.02.02l-.17.23c-.06.02-.07.06-.05.11-.08 0-.09.07-.09.14-.08-.11-.16-.13-.25-.07 0-.07-.06-.1-.14-.1-.06 0-.1 0-.13-.03-.02-.01-.03-.02-.05-.03-.04-.02-.07 0-.05.03.08.12.17.24.25.37 0 .02 0 .05.03.06.01.04.03.08.04.11v.04c-.07-.02-.14-.02-.21-.02-.05 0-.09 0-.11-.03-.02-.02-.03 0-.03.03 0 .16.05.3.19.43-.07 0-.14.02-.21.03-.02 0-.03.01-.02.03.04.09.1.16.25.2-.06.04-.1.1-.11.17 0 .07-.02.12-.07.14-.02.01-.03.02 0 .03.08.05.17.04.28 0-.05.09-.07.17-.06.26.06.01.13 0 .19-.04 0 .02-.01.05-.02.09 0 .03-.01.07-.03.11 0 .01-.02.03 0 .03.1.02.2 0 .28-.04 0 .07 0 .15.02.22 0 .02.02.03.04 0 .05-.07.1-.13.16-.17 0 .03.02.05.05.06s.05.05.05.1c0 0 0 .02.01.03.05 0 .16-.13.18-.2.06.03.09.06.14.12.02.02.03 0 .04-.01.02-.08.02-.15.02-.22.08.02.18.02.28-.02.02 0 .01-.02 0-.03a.2.2 0 0 1-.03-.11c0-.04 0-.07-.01-.08.06.01.13.02.19 0 0-.09-.02-.17-.07-.25.1.01.2 0 .28-.06.02-.01.01-.02 0-.03-.04-.02-.06-.06-.07-.13 0-.07-.05-.12-.11-.14.15-.07.22-.16.25-.26 0-.02 0-.03-.02-.03-.07 0-.15 0-.22.01a.68.68 0 0 0 .19-.47c0-.03-.01-.04-.03-.02-.02.03-.06.05-.11.06a.5.5 0 0 0-.2.06v-.03c.01-.04.03-.08.05-.12.03-.02.03-.04.03-.06l.24-.42c.02-.03-.01-.05-.05-.02-.02.01-.03.02-.05.04-.04.03-.08.05-.14.06-.08.02-.13.06-.13.13-.09-.04-.17 0-.25.12 0-.07-.01-.14-.09-.12.02-.05 0-.09-.05-.1-.06-.07-.14-.13-.2-.2l-.02-.01Z"/><path d="M55.55 55.06s-.04 0-.05.03-.01.05 0 .06c.01 0 .03 0 .04-.02s0-.01 0-.01c.01-.02.02-.05 0-.06Zm-1.54.17s.04 0 .05.02.01.05 0 .06-.03 0-.04-.03-.02-.05 0-.06Zm1.4.12s-.02.01-.02.02 0 .02.02.02.02 0 .02-.02 0-.02-.02-.02m-1.25.13s-.02 0-.02.02 0 .02.02.02.02 0 .02-.02 0-.02-.02-.02m1.33-.23c-.23 0-.47 0-.7.03s-.47.06-.7.11v.03c.23-.05.47-.08.7-.11s.46-.04.69-.03c.01 0 .02-.03 0-.03Z" class="cls-3"/><path d="M54.08 55.37c.24-.05.47-.08.71-.11.23-.02.47-.04.7-.03l.03-.06h-.03c-.02 0-.03-.05-.01-.08.02-.04.05-.06.07-.05.01 0 .02.02.02.03l.14-.24c-.06.05-.1.08-.18.09-.09.02-.13.06-.11.1.01.05-.02.04-.06.02-.1-.04-.17.04-.2.13-.02.06-.05.06-.05 0v-.06c0-.07-.03-.08-.07-.06-.05.03-.05.01-.04-.01 0-.02.03-.04.02-.07 0-.02-.02-.03-.05-.02-.06-.07-.14-.13-.2-.2-.06.08-.12.16-.17.24-.03 0-.04.01-.05.03 0 .03.02.05.02.06.01.02 0 .04-.04.02-.04-.01-.06 0-.06.07v.06c0 .06-.03.06-.05 0-.03-.08-.11-.15-.21-.08-.04.03-.06.04-.06-.01s-.03-.08-.12-.08a.28.28 0 0 1-.18-.06l.13.19s0-.01.02-.02.06 0 .07.03c.02.03.01.07-.01.08l.03.05Zm1.36.14c-.01 0-.02.02-.04.04s-.04.04-.07.06h-.01c-.01 0 0-.01 0-.01.02-.02.05-.04.06-.06 0-.01.02-.02.02-.03h-.09c-.02 0-.05.02-.07.04-.02.01-.03.03-.04.04h-.01v-.01a.12.12 0 0 1 .05-.05c.01 0 .02-.01.03-.02h-.1l-.02.02-.02.02h-.01c-.01 0 0 0 0-.01 0 0 .01-.02.02-.03s-.05 0-.07 0l-.02.02c-.01.01 0 .01-.01.02h-.01v-.01s0-.02.01-.03v-.01h-.11l-.02.02c-.01.01-.01.01-.01.02h-.01v-.01s.01-.02.02-.03c-.04 0-.08 0-.11.01s-.07 0-.11.01l.02.02v.01c0 .01-.01 0-.01 0s0-.01-.01-.02-.01 0-.02-.01c-.04 0-.07 0-.11.01 0 0 .01.01.01.02v.01c0 .01-.01 0-.01 0s0-.01-.01-.02l-.02-.02c-.03 0-.05 0-.08.01l.02.02v.01c0 .01-.01 0-.01 0l-.02-.02c-.01-.01-.01 0-.02-.01-.03 0-.07.01-.1.02.01 0 .03 0 .04.01.02 0 .04.02.05.04v.01h-.01c0-.01-.02-.02-.04-.03a.2.2 0 0 0-.08-.02s-.06.01-.08.02l.03.03c.02.02.04.03.06.05v.01c0 .01 0 0-.01 0-.03-.02-.05-.03-.07-.05l-.04-.04a.5.5 0 0 0-.18-.03h-.14c.01.02.02.05.04.06.02.02.04.03.06.04 0 .05.03.08.05.11.02.02.04.03.06.04a.3.3 0 0 1-.05-.07c-.02-.04-.03-.08-.02-.12H54c0 .04 0 .08.02.11s.05.07.09.09v.02c-.05 0-.09-.03-.12-.06a.24.24 0 0 1-.06-.11c-.03 0-.05-.02-.07-.04-.01-.02-.03-.04-.04-.06 0 .13.06.23.14.33.02.02.05.05.08.06.03 0 .03.03 0 .03h-.03c.03 0 .05.01.07.02.04.02.07.04.07.07v.01h-.01c0-.03-.03-.05-.06-.06-.03-.02-.08-.03-.12-.04-.05 0-.1 0-.14.02.01 0 .02.01.04.02.03.01.06.02.11.03.03 0 .05.01.07.02s.04.02.05.04v.01c0 .01-.01 0-.01 0a.2.2 0 0 0-.05-.04c-.02 0-.04-.01-.07-.02-.05 0-.08-.02-.11-.03-.02 0-.04-.02-.06-.03.06.11.14.16.26.18h.18-.17c-.07.01-.13.08-.13.16.03-.03.06-.05.08-.07.04-.02.07-.04.11-.03v.01h-.01c-.03 0-.07 0-.1.03-.03.02-.07.05-.1.09 0 .04-.03.09-.06.12.02 0 .03.02.05 0 .03-.01.05-.03.08-.04l.09-.03h.01c.01 0 0 .01 0 .01-.03 0-.06.01-.08.02s-.05.02-.07.03c.07 0 .14-.02.21-.05.02 0 .03-.02.04-.02.02-.01.03-.02.05-.03s.04-.02.06-.02h.01v.01c-.03 0-.04.01-.07.03 0 0-.02.02-.04.03-.01 0-.02.02-.03.02-.03.03-.04.06-.06.09 0 .02-.02.05-.02.07.02-.03.04-.07.06-.1.03-.04.06-.07.11-.09h.01v.01c-.04.02-.07.05-.1.09-.03.03-.05.07-.07.11 0 .02 0 0-.01.03.03-.04.07-.07.1-.1.04-.03.09-.06.13-.05v.01c0 .01 0 0-.01 0a.16.16 0 0 0-.11.05c-.04.03-.08.07-.11.12.06 0 .11-.02.17-.04.03-.01.06-.05.07-.05 0 0 .01-.02.02-.02l.03-.03h.01c.01 0 0 0 0 .01-.01 0-.02.02-.03.03 0 .01-.02.02-.03.04-.02.02-.05.05-.05.08-.02.07 0 .11-.04.18a.12.12 0 0 0 .05-.05c.02-.02.03-.04.04-.07s.03-.06.05-.09.05-.05.08-.06h.01c.01 0 0 .01 0 .01-.03.01-.05.03-.07.05s-.04.05-.05.08-.03.06-.04.08-.03.03-.05.04h.04c.02 0 .07-.03.09-.04a.2.2 0 0 0 .05-.07h.01c.01 0 0 0 0 .01-.01.03-.03.06-.05.08-.02.01-.04.03-.06.03.05 0 .1-.02.14-.05.02 0 .03-.05.04-.07 0-.02.02-.04.03-.05.01-.02.03-.03.05-.04h.01v.01c-.02 0-.03.02-.04.04-.01.01-.02.03-.03.05 0 .02-.02.07-.02.09 0 .06 0 .12.02.18.02-.02.03-.04.05-.06 0-.03.01-.07.01-.1v-.11h.01v.18c.02-.02.02-.02.02-.03.01-.03.02-.05.02-.07v-.08c0-.01.01 0 .01 0v.08c0 .02 0 .04-.02.06.02-.01.04-.03.05-.04v-.13s0-.01.01-.01.01 0 .01.01v.12c0 .02.02.05.04.07.03.02.05.04.06.08v-.12a.2.2 0 0 0-.04-.11v-.01h.01c.02.03.03.07.04.11v.15c.03-.03.12-.09.11-.19v-.03c0-.01.01 0 .01 0s0 .02.01.03v.02s.01-.01.02-.01c0 0 .02 0 .02.01 0-.02-.01-.03-.01-.05v-.08h.01c.01 0 0 0 0 .01v.07c0 .02 0 .05.02.07l.02.02v-.18h.01c.01 0 0 0 0 0v.1c0 .03 0 .07.01.1l.05.05c.02-.06.02-.12.02-.19 0-.02-.02-.07-.02-.09s-.02-.03-.03-.04-.03-.02-.04-.03v-.01h.01c.02 0 .04.02.05.03s.02.03.03.04c.02 0 .02.05.04.06.05.01.09.02.14.02-.02 0-.04-.01-.06-.02s-.04-.04-.05-.06v-.01c0-.01.01 0 .01 0 .01.02.03.04.05.06.03.02.09.03.12.03-.02 0-.03-.02-.05-.03a.16.16 0 0 1-.04-.07c-.01-.03-.03-.05-.05-.07s-.05-.03-.07-.04v-.01h.01c.03 0 .06.02.08.04s.04.05.05.08.02.05.04.07c.01.01.03.03.05.03-.03-.06-.02-.11-.04-.17-.01-.04-.07-.08-.06-.09.01-.02.04.02.08.03.05.01.11.02.17 0-.04-.04-.08-.07-.11-.1-.04-.02-.07-.03-.11-.02h-.01v-.01q.06-.015.12.03c.03.02.06.05.1.08v-.02a.4.4 0 0 0-.07-.1.2.2 0 0 0-.1-.06v-.01h.01c.04.02.08.04.11.07s.05.05.06.09c0-.02-.01-.05-.02-.07a.16.16 0 0 0-.06-.08c-.02-.01-.06-.04-.06-.05h-.02c-.02 0-.04 0-.05-.01h.01c.02 0 .04 0 .06.01.01 0 .02.01.03.01.02 0 .04 0 .06.02.06.02.14.02.21 0-.02 0-.05-.01-.07-.02h-.08l.01-.01h.09c.03 0 .05.02.08.02.02 0 .03 0 .05-.02-.04-.02-.06-.06-.06-.11s-.06-.05-.1-.07c-.03-.01-.06-.02-.1 0h-.01v-.01c.04-.01.08 0 .11 0 .03.01.06.03.08.06 0-.08-.06-.14-.13-.13-.02 0-.06.01-.06 0 0-.02.03-.02.07-.03.12-.05.2-.11.26-.23-.02.01-.03.03-.06.04-.03.02-.06.03-.11.05-.03 0-.05.02-.07.03a.12.12 0 0 0-.05.05h-.01c-.01 0 0 0 0-.01a.12.12 0 0 1 .05-.05c.02-.01.04-.03.07-.03.05-.02.08-.03.11-.05.02 0 .03-.02.04-.03-.05 0-.09 0-.14.01-.04.02-.09.04-.12.06s-.06.05-.06.07h-.01c0-.03.03-.06.07-.09.02-.01.05-.03.07-.04h-.03c-.04 0-.03-.02 0-.03s.06-.05.08-.07c.08-.11.13-.23.14-.35a.2.2 0 0 1-.04.06c-.02.02-.04.04-.07.06 0 .05-.03.09-.06.13s-.07.06-.11.08c0 0-.02 0 0-.02a1 1 0 0 0 .09-.11c.02-.04.03-.08.02-.12v-.01h.01c0 .04 0 .08-.02.13-.01.03-.03.05-.05.08.02-.01.04-.03.06-.05.03-.03.04-.07.05-.12.03-.01.05-.03.06-.05.02-.02.03-.05.04-.07-.04.03-.09.03-.14.04-.07.01-.11.03-.17.06Z" class="cls-3"/><path d="M55.42 55.45q-.315 0-.63.03c-.21.02-.42.06-.64.1v.01h.04q.3-.06.6-.09c.3-.03.42-.04.63-.04.01 0 .02-.03 0-.03Z" class="cls-3"/><path d="M54.16 55.57c.21-.04.42-.08.63-.1s.42-.03.63-.03v-.04c-.02 0-.04-.01-.04-.03s.02-.04.04-.04.03 0 .03.02l.02-.05c-.22 0-.45.01-.67.03s-.45.06-.68.1l.02.05s.02-.02.03-.02c.02 0 .04.01.04.03s-.02.04-.04.04h-.01v.03Zm.95-.23s-.04.02-.04.04.02.04.04.03.04-.02.04-.04-.02-.04-.04-.03m0 .02s-.02.01-.02.02 0 .02.02.02.02-.01.02-.02 0-.02-.02-.02m-.33.01s-.04.02-.04.04.02.04.04.03.04-.02.04-.04-.02-.04-.04-.03m0 .02s-.02 0-.02.02 0 .02.02.02.02 0 .02-.02 0-.02-.02-.02m-.33.02s-.04.02-.04.04.02.04.04.03.04-.02.04-.04-.02-.04-.04-.03m0 .02s-.02 0-.02.02 0 .02.02.02.02 0 .02-.02 0-.02-.02-.02" class="cls-4"/><path d="M54.79 55.14s-.02-.04-.03-.05c-.02-.01-.04-.02-.06-.02-.01 0-.01-.02 0-.02.02 0 .04-.02.05-.05.01-.02.02-.05.03-.08 0-.01.02-.01.02 0 0 .02.02.04.03.06.02.02.04.03.06.04v.02c-.02 0-.03.02-.04.03-.02.02-.03.05-.03.07 0 .01-.02.01-.02 0Zm.01-.03s.01-.03.03-.05c0-.01.02-.02.03-.03-.02 0-.03-.02-.04-.03 0 0-.02-.02-.02-.03 0 .02-.01.04-.02.05 0 .02-.02.03-.03.04.02 0 .03.01.04.02.01 0 .02.02.03.03Zm.25 1.51-.16.08h-.01v-.02l.16-.08h.01zm.02-.1-.19.12h-.02c-.01 0 0-.01 0-.02l.19-.12h.02c.01 0 0 .01 0 .02m-.57.04.19.08s.01 0 0 .01-.01 0-.02 0l-.19-.08s-.01 0 0-.01.01 0 .02 0m.02.09.16.05s.01 0 0 .01c0 .01 0 0-.02 0l-.16-.05s-.01 0 0-.01c0-.01 0 0 .01 0Zm.07.13h.11c.03 0 .05-.02.06-.05v-.15h-.09c-.03 0-.05-.02-.06-.05s0-.07 0-.1c0 0 0-.01.01 0s0 0 0 .01c0 .03-.01.06 0 .09 0 .02.02.03.05.04h.09c.03 0 .07-.01.09-.02.03 0 .05-.03.06-.04s.02-.04.02-.05 0-.02-.02-.02h-.11v-.01h.02c.02 0 .03 0 .05-.01h.05c.01 0 .02.02.02.04s0 .05-.02.07a.2.2 0 0 1-.07.05c-.03 0-.05.02-.08.02v.15c.01.02.03.03.06.04.03 0 .07 0 .11-.02h.01v.01c-.05.02-.09.02-.12.02a.1.1 0 0 1-.07-.03.2.2 0 0 1-.07.05h-.12s-.01 0 0-.01c0-.01 0-.01.01 0Zm.11.05.12-.02h.01c0 .01 0 .01-.01.01l-.12.02h-.01s0-.01.01-.01m.18-.95s.09-.08.13-.1c.04-.03.08-.04.11-.04 0 0 .01 0 .01.01s0 .01-.01.01c-.03 0-.06.02-.1.04s-.08.06-.13.1h-.02c-.02 0 0-.01 0-.02Zm-.19.04s-.09-.06-.14-.08c-.04-.02-.08-.02-.11-.02h-.01c0-.01 0-.01.01-.01.03 0 .08 0 .12.02.05.02.1.05.14.08v.02h-.02Zm-.06.31s.03-.05.04-.07c.02-.02.03-.04.05-.06h.02v.02c-.02.02-.04.03-.05.05-.02.02-.03.04-.04.06 0 0 0 .01-.02 0s0 0 0-.01Zm.11-.54s.03.04.04.06c0 .02.01.05.01.08v.08c0 .03-.01.05-.03.08-.01.02-.03.03-.05.04h-.05c0 .03.02.06 0 .09h-.02c-.01 0-.03-.01-.04-.01s-.03 0-.04-.01-.05-.02-.07-.03c-.02 0-.04-.02-.05-.03s-.02-.03-.03-.05v-.05c-.02 0-.04-.02-.06-.03s-.04-.02-.05-.03v-.02c0-.02.01 0 .02 0 .01.01.03.02.05.03l.06.03c.04 0 .08 0 .11.02.03.01.07.03.1.05h.05c.01 0 .03-.01.04-.03s.02-.04.03-.07v-.07s0-.06-.01-.08c0-.02-.02-.04-.03-.06v-.02c0-.02.01 0 .02 0Zm-.11.33s-.06-.04-.1-.05c-.03-.01-.06-.02-.1-.02v.04c0 .02.01.03.02.04s.02.02.04.03c.02 0 .04.02.07.02s.03 0 .04.01c0 0 .02 0 .03.01 0-.03 0-.05-.01-.08Zm.23-.33-.03.06c0 .02-.01.05-.01.08v.07q0 .03.03.06c0 .01.02.02.04.02h.05c.03-.03.07-.05.1-.07.04-.02.08-.04.11-.04.02-.01.04-.03.06-.04s.03-.03.05-.04h.02c.02 0 0 .01 0 .02-.01.01-.03.03-.05.04s-.04.03-.06.04v.05c0 .02-.01.04-.03.05s-.03.03-.05.04-.04.03-.07.04-.03.01-.04.02c-.01 0-.03.01-.04.02h-.02c-.01-.03 0-.06 0-.09h-.05c-.02 0-.04-.01-.05-.03a.1.1 0 0 1-.03-.07v-.07c0-.03 0-.06.01-.09 0-.03.02-.05.04-.07zv.02Zm.3.19s-.06.02-.1.04c-.03.02-.06.04-.1.07 0 .03-.02.06-.01.08 0 0 .02-.01.03-.02.01 0 .03-.01.04-.02s.05-.03.07-.04.03-.02.04-.04.02-.03.02-.04v-.04Z"/><path d="M55.05 55.91s-.07.04-.07.07.03.06.07.06.07-.04.07-.07-.03-.06-.07-.06m0 .02s-.05.02-.05.05.02.04.05.04.05-.02.05-.05-.02-.04-.05-.04m0 .01s-.03.01-.03.03.01.02.03.02.03-.01.03-.03-.01-.02-.03-.02m-.52.02s.07.02.07.06-.03.07-.07.07-.07-.02-.07-.06.03-.07.07-.07m0 .02s.05.02.05.04-.02.05-.05.05-.05-.02-.05-.04.02-.05.05-.05m0 .02s.03 0 .03.02-.01.03-.03.03-.03 0-.03-.02.01-.03.03-.03" class="cls-5"/></g><g id="lion-2" data-name="lion"><path d="M53.43 51.95s-.01 0-.02.02c-.05.08-.11.16-.16.24-.06.03-.07.06-.05.11-.08 0-.09.07-.09.14-.08-.1-.17-.12-.25-.06 0-.07-.06-.09-.14-.1-.06 0-.1 0-.14-.02-.02 0-.03-.01-.05-.02-.04-.02-.07 0-.05.03.09.12.18.24.26.35 0 .02 0 .04.03.06.02.04.03.08.05.11v.04a.5.5 0 0 0-.21-.01c-.05 0-.09 0-.11-.03-.02-.02-.03 0-.03.03 0 .16.06.3.2.42-.07.01-.14.02-.21.04-.02 0-.03.02-.02.03.04.09.11.16.26.19-.06.04-.1.1-.1.17q0 .105-.06.15-.03.015 0 .03c.08.04.18.03.28 0-.05.09-.06.18-.05.26.06 0 .13-.01.19-.04 0 .02-.01.05-.01.09 0 .03 0 .07-.03.11 0 .01-.02.03 0 .03.1.01.2-.01.28-.05 0 .07 0 .15.03.21 0 .02.02.03.04 0 .05-.07.09-.13.16-.18.01.03.03.05.05.06.03.01.05.04.05.1 0 0 0 .02.01.03.05 0 .15-.14.17-.2.07.03.09.06.14.12.02.02.03 0 .04-.01.02-.08.02-.15.01-.22.08.02.18.02.28-.03.02 0 .01-.02 0-.03a.2.2 0 0 1-.04-.1c0-.04 0-.07-.02-.08.06.01.13.01.19-.01 0-.09-.02-.17-.08-.25.1 0 .2 0 .28-.07.02-.01 0-.02 0-.03-.04-.02-.07-.06-.07-.13a.16.16 0 0 0-.12-.14c.15-.08.21-.17.24-.27 0-.02 0-.03-.02-.03-.07 0-.15.01-.22.02.13-.16.18-.31.17-.47 0-.03-.01-.04-.03-.02-.02.03-.05.05-.11.06-.07.01-.13.03-.2.07 0-.01 0-.02-.01-.03.01-.04.03-.08.04-.12.02-.02.03-.04.02-.06.08-.14.15-.28.23-.42.02-.03-.02-.05-.05-.01-.02.02-.03.02-.05.04a.3.3 0 0 1-.13.06c-.08.03-.13.07-.13.14-.09-.04-.17 0-.25.13 0-.07-.02-.13-.1-.12.02-.05 0-.09-.06-.1-.06-.07-.15-.12-.21-.19l-.02-.01Z"/><path d="M54.23 52.25s-.04.01-.05.04 0 .05 0 .06c.01 0 .03 0 .04-.02s0-.01 0-.01q.015-.045 0-.06Zm-1.55.22s.04 0 .05.02.01.05 0 .06-.03 0-.04-.02-.02-.04 0-.05Zm1.41.08s-.02.01-.02.02 0 .02.02.02.02-.01.02-.02 0-.02-.02-.02m-1.24.17s-.02.01-.02.02 0 .02.02.02.02-.01.02-.02 0-.02-.02-.02m1.32-.28c-.23 0-.47.03-.7.06s-.47.08-.7.13v.03c.23-.06.46-.1.7-.13s.46-.05.69-.06c.01 0 .02-.03 0-.03Z" class="cls-3"/><path d="M52.77 52.62c.24-.06.47-.1.71-.14.23-.03.47-.05.7-.06l.03-.06h-.03c-.02 0-.03-.04-.01-.08s.05-.06.07-.05c.01 0 .02.02.02.03l.13-.24a.4.4 0 0 1-.18.1c-.09.02-.12.06-.11.11s-.02.04-.06.02c-.1-.04-.17.04-.2.13-.02.06-.05.06-.05 0v-.06c0-.07-.03-.08-.07-.06-.05.03-.05.02-.04-.01 0-.02.03-.04.02-.07 0-.02-.02-.02-.05-.02-.06-.07-.15-.12-.21-.19-.05.08-.11.16-.16.24-.03 0-.04.02-.05.04 0 .03.02.04.03.06s0 .04-.04.02c-.04-.01-.06 0-.06.07v.06c0 .06-.03.06-.05.01-.04-.08-.11-.14-.21-.08-.04.03-.06.04-.06 0 0-.05-.04-.07-.12-.07s-.12-.02-.18-.05l.14.19s0-.01.02-.02.06 0 .08.03.02.07 0 .08l.03.04Zm1.36.08c-.01 0-.02.02-.04.04s-.04.04-.06.07h-.01c-.01 0 0-.01 0-.01l.06-.06c0-.01.02-.02.02-.03h-.09c-.02.01-.05.02-.07.04-.02.01-.03.03-.04.04h-.01v-.01a.12.12 0 0 1 .05-.05s.02-.01.03-.02h-.1l-.02.02-.02.02h-.01c-.01 0 0 0 0-.01 0 0 .01-.02.02-.03s-.05 0-.07 0l-.02.02c-.01.01 0 .01-.01.02h-.01v-.01s0-.02.01-.03v-.01c-.04 0-.07 0-.11.01l-.02.02c-.01.01-.01.01-.01.02h-.01v-.01s.01-.02.02-.03c-.04 0-.08 0-.11.01s-.07.01-.11.02l.02.02v.01c0 .01-.01 0-.01 0s0-.01-.02-.02-.01 0-.02-.01c-.04 0-.07.01-.11.02 0 0 .01.01.01.02v.01c0 .01-.01 0-.01 0s0-.01-.01-.02l-.02-.02c-.02 0-.05 0-.07.01l.02.02v.01c0 .01-.01 0-.01 0l-.02-.02c-.01-.01-.01 0-.02-.01-.03 0-.07.01-.1.02.01 0 .03 0 .04.01.02 0 .04.02.05.04v.01h-.01c0-.01-.03-.02-.04-.03a.2.2 0 0 0-.08-.02s-.06.01-.08.02l.03.03c.02.01.04.03.07.05v.01c0 .01 0 0-.01 0-.03-.02-.05-.03-.07-.05-.01 0-.03-.03-.04-.04-.06-.02-.11-.02-.18-.02-.05 0-.1.01-.14 0 .01.02.03.05.04.06.02.02.04.03.07.03.01.05.03.08.06.11.02.02.04.03.06.04a.4.4 0 0 1-.06-.07.3.3 0 0 1-.03-.12l.01-.01c0 .04 0 .08.03.11q.03.045.09.09v.02c-.05 0-.09-.02-.12-.05a.2.2 0 0 1-.06-.11c-.03 0-.05-.02-.07-.04s-.03-.04-.04-.06c.01.13.07.23.15.32.02.02.05.05.08.05s.03.03 0 .03h-.03c.03 0 .05.01.07.02.04.02.07.04.07.07v.01h-.01c0-.03-.03-.04-.06-.06-.04-.01-.08-.02-.13-.03-.05 0-.1.01-.14.02.01 0 .03.01.04.02.03 0 .06.02.11.02.03 0 .05 0 .07.02.02 0 .04.02.06.04v.01c0 .01-.01 0-.01 0-.01-.01-.03-.03-.05-.03s-.04-.01-.07-.02c-.05 0-.08-.01-.11-.02-.02 0-.04-.02-.06-.03.06.11.15.15.27.17h.18l-.01.01h-.16c-.07.01-.13.09-.13.17l.08-.08c.04-.03.07-.04.11-.04v.01h-.01c-.03 0-.07.01-.1.03s-.06.06-.09.09q0 .075-.06.12c.02 0 .03.01.05 0a.3.3 0 0 1 .08-.04l.09-.03h.01c.01 0 0 .01 0 .01-.03 0-.05.02-.08.03-.02.01-.05.02-.07.04.07 0 .14-.02.21-.05.02 0 .03-.02.04-.02.02-.01.03-.02.05-.03l.06-.03h.01v.01c-.03 0-.04.01-.07.03 0 0-.02.02-.04.03-.01 0-.02.02-.03.02-.03.03-.04.06-.05.09 0 .02-.01.05-.02.07.02-.03.03-.07.06-.1.03-.04.06-.07.1-.09h.01v.01c-.04.02-.07.05-.1.09-.03.03-.05.07-.06.11 0 .02 0 0-.01.03.03-.04.06-.08.1-.11.04-.04.09-.06.13-.06h-.01a.16.16 0 0 0-.11.05c-.04.03-.07.08-.11.12.06 0 .11-.02.17-.05.03-.01.05-.05.07-.06 0 0 .01-.02.02-.02 0-.01.02-.02.03-.03h.01c.01 0 0 0 0 .01l-.03.03c0 .01-.02.02-.03.04-.02.02-.04.06-.05.08-.02.07 0 .11-.03.18a.12.12 0 0 0 .05-.05c.02-.02.03-.04.04-.07s.03-.06.05-.09.05-.05.08-.06h.01c.01 0 0 .01 0 .01-.03.01-.05.03-.07.06-.02.02-.03.05-.04.08s-.02.06-.04.08c-.01.02-.03.03-.05.04h.04c.02 0 .06-.03.08-.05s.03-.04.05-.07h.01c.01 0 0 0 0 .01-.01.03-.03.06-.05.08s-.04.03-.06.04c.05 0 .1-.03.14-.05.02-.01.02-.05.04-.07 0-.02.02-.04.03-.05.01-.02.03-.03.05-.05h.01v.01c-.02 0-.03.02-.04.04-.01.01-.02.03-.03.05 0 .02-.01.07-.01.09 0 .06 0 .12.02.18.02-.02.03-.04.05-.06v-.21h.01v.18c.02-.02.02-.02.02-.03.01-.03.02-.05.02-.07v-.08c0-.01.01 0 .01 0v.07c0 .02 0 .04-.01.06.02-.02.03-.03.05-.04v-.13s0-.01.01-.01.01 0 .01.01v.12c0 .02.02.05.04.06.03.01.05.04.06.07v-.12a.2.2 0 0 0-.04-.11v-.01h.01c.02.03.03.07.04.11v.15c.03-.03.11-.09.1-.19v-.03c0-.01.01 0 .01 0s.01.02.01.03v.02s.01-.01.02-.01c0 0 .02 0 .03.01 0-.02-.01-.03-.02-.05v-.08h.01c.01 0 0 0 0 .01v.07c0 .02.01.05.02.07 0 0 .02.01.02.02 0-.02 0-.05-.01-.08v-.1h.01c.01 0 0 0 0 0v.1c0 .03 0 .07.02.1l.05.05c.01-.06.02-.13.01-.19 0-.02-.02-.06-.02-.09 0-.02-.02-.03-.03-.04s-.03-.02-.04-.03v-.01h.01c.02 0 .04.02.05.03s.02.03.03.04c.02 0 .03.05.05.06.05.01.09.02.14.01-.02 0-.04 0-.06-.02a.2.2 0 0 1-.06-.06v-.01c0-.01.01 0 .01 0 .01.02.03.04.05.05.03.02.09.02.12.02-.02 0-.04-.02-.05-.03-.02-.02-.03-.04-.05-.07-.01-.03-.03-.05-.05-.07s-.05-.03-.08-.04v-.01h.01c.03 0 .06.02.08.04s.04.04.05.07.03.05.04.06c.02.01.03.02.06.03-.03-.06-.02-.11-.04-.17-.01-.04-.07-.07-.06-.09s.04.02.08.03c.05 0 .11.02.17 0a.5.5 0 0 0-.12-.09c-.04-.02-.07-.03-.11-.02h-.01v-.01c.04-.01.08 0 .13.02.04.02.06.04.1.08 0-.01 0 0-.01-.02-.02-.03-.04-.07-.07-.09a.2.2 0 0 0-.1-.06v-.01h.01c.04.01.08.04.11.06s.05.05.07.08c0-.02-.01-.05-.02-.06a.16.16 0 0 0-.06-.08c-.02-.01-.07-.03-.07-.04h-.07.07c.01 0 .02 0 .03.01.02 0 .04 0 .07.01.06.01.14.02.21 0-.02 0-.05-.01-.07-.02h-.08v-.01h.09c.03 0 .05.01.08.02.02 0 .03 0 .05-.02-.04-.02-.06-.06-.07-.1s-.07-.05-.1-.06-.07-.02-.1 0h-.01v-.01c.04-.02.08-.01.11 0s.06.03.09.05c0-.08-.07-.13-.14-.13-.02 0-.06.01-.06 0 0-.02.03-.02.07-.04.12-.05.2-.12.25-.24-.02.01-.03.03-.06.05s-.06.04-.11.05c-.03 0-.05.02-.07.03a.12.12 0 0 0-.05.05h-.01c-.01 0 0 0 0-.01a.12.12 0 0 1 .05-.05c.02-.01.04-.03.07-.04.05-.02.08-.03.1-.05.02-.01.03-.02.04-.03-.05 0-.09.01-.14.02-.04.02-.09.04-.12.07-.03.02-.06.05-.06.08l-.01.01c0-.03.03-.06.07-.09.02-.01.05-.03.07-.04h-.03q-.06 0 0-.03c.03-.01.06-.05.07-.08.08-.11.12-.23.13-.36 0 .02-.02.04-.03.06-.02.02-.04.04-.07.06 0 .05-.02.09-.05.13s-.06.06-.11.09c0 0-.02 0 0-.02a.3.3 0 0 0 .08-.12c.02-.04.02-.08.02-.12v-.01h.01c0 .04 0 .08-.02.13-.01.03-.03.06-.05.08.02-.01.04-.03.06-.05.03-.03.04-.07.05-.12.03-.01.05-.03.06-.05s.03-.05.04-.07c-.04.03-.09.03-.14.04-.07.02-.11.04-.17.07Z" class="cls-3"/><path d="M54.11 52.65c-.21 0-.42.03-.63.06q-.315.045-.63.12v.01h.04c.2-.05.4-.08.6-.11s.42-.05.63-.06c.01 0 .02-.03 0-.03Z" class="cls-3"/><path d="M52.85 52.81q.315-.075.63-.12c.315-.045.42-.05.63-.05v-.04c-.02 0-.04-.01-.04-.03s.02-.04.04-.04.03 0 .04.02l.02-.05c-.22 0-.45.03-.67.06s-.45.08-.68.13l.02.05s.02-.02.03-.02c.02 0 .04.01.04.03s-.02.04-.04.04h-.01v.03h.01Zm.94-.26s-.04.02-.04.04.02.03.04.03.04-.02.04-.04-.02-.03-.04-.03m0 .02s-.02.01-.02.02 0 .02.02.02.02-.01.02-.02 0-.02-.02-.02m-.33.02s-.04.02-.04.04.02.03.04.03.04-.02.04-.04-.02-.03-.04-.03m0 .02s-.02.01-.02.02 0 .02.02.02.02-.01.02-.02 0-.02-.02-.02m-.33.03s-.04.02-.04.04.02.03.04.03.04-.02.04-.04-.02-.03-.04-.03m0 .02s-.02.01-.02.02 0 .02.02.02.02-.01.02-.02 0-.02-.02-.02" class="cls-4"/><path d="M53.46 52.36s-.02-.04-.03-.05c-.02-.01-.04-.02-.06-.02-.01 0-.01-.02 0-.02.02 0 .03-.03.05-.05.01-.02.02-.05.03-.08 0-.01.02-.01.02 0 0 .02.02.04.03.06q.03.03.06.03v.02c-.02 0-.03.02-.04.03-.01.02-.02.05-.03.07 0 .01-.02.01-.02 0Zm.01-.03s.01-.03.02-.05c0-.01.02-.02.03-.03-.02 0-.03-.02-.05-.03 0 0-.02-.02-.02-.03 0 .02-.01.04-.02.05 0 .02-.02.03-.03.04.02 0 .03 0 .04.02.01 0 .02.02.03.03m.31 1.49-.16.08h-.02v-.02l.16-.08h.02zm.01-.1-.18.12h-.02c-.02 0 0-.01 0-.02l.18-.12h.02c.02 0 0 .01 0 .02m-.56.06.19.07s.01 0 0 .01-.01 0-.02 0l-.19-.07s-.01 0 0-.01.01 0 .02 0m.02.1.16.04s.01 0 0 .01c0 .01 0 0-.01 0l-.16-.04s-.01 0 0-.01c0-.01 0 0 .01 0m.07.12h.11c.03 0 .05-.02.06-.05v-.15h-.1c-.03 0-.05-.02-.06-.04a.17.17 0 0 1 0-.1s0-.01.01-.01.01 0 0 .01v.08c0 .02.02.03.05.03h.1q.06 0 .09-.03c.03-.01.04-.03.06-.05s.02-.04.02-.06c0-.01 0-.02-.02-.02h-.04c-.01 0-.03 0-.04.01h-.03v-.01h.02c.02 0 .03-.01.05-.01h.05c.01 0 .02.02.03.04 0 .02 0 .05-.02.07a.2.2 0 0 1-.07.05c-.03.01-.05.02-.08.02v.14q.015.03.06.03c.03 0 .07 0 .11-.02h.01v.01c-.04.02-.09.03-.12.03a.1.1 0 0 1-.07-.03c-.01.02-.04.04-.06.05a.24.24 0 0 1-.12 0s-.01 0 0-.01c0-.01 0-.01.01-.01Zm.12.04.12-.02h.01c0 .01 0 .01-.01.01l-.12.02h-.01s0-.01.01-.01m.14-.95s.09-.08.13-.11.08-.04.11-.05c0 0 .01 0 .01.01s0 .01-.01.01c-.03 0-.06.02-.1.04-.04.03-.08.06-.12.1zc-.02 0 0-.01 0-.02Zm-.18.05s-.09-.06-.14-.07a.14.14 0 0 0-.11-.01h-.01c0-.01 0-.01.01-.01.03 0 .08 0 .13.01.05.02.1.04.15.08v.02h-.02Zm-.06.31s.02-.05.04-.07.03-.04.05-.06h.02v.02c-.02.02-.03.04-.05.06-.01.02-.03.04-.04.07 0 0 0 .01-.01 0s0 0 0-.01Zm.1-.54s.03.04.04.06c0 .02.01.05.02.08v.07c0 .03-.01.05-.03.08-.01.02-.03.03-.05.04h-.05c.01.03.02.06 0 .09h-.02c-.01 0-.03 0-.04-.01s-.03 0-.04 0-.05-.01-.07-.02c-.02 0-.04-.02-.05-.03s-.02-.03-.03-.05v-.05c-.02 0-.04-.02-.06-.03s-.04-.02-.05-.03v-.02c0-.02.01 0 .02 0 .01.01.03.02.05.03.02 0 .04.02.06.03.04 0 .08 0 .12.02.03.01.07.03.1.04h.05c.01 0 .03-.02.04-.03.01-.02.02-.04.02-.07v-.07s0-.05-.01-.08c0-.02-.02-.04-.03-.06v-.02c0-.02.01 0 .02 0Zm-.11.33s-.07-.03-.1-.04a.4.4 0 0 0-.1-.02v.04c0 .01.01.03.02.04s.02.02.04.03c.02 0 .04.02.07.02s.03 0 .04.01h.03c0-.03 0-.05-.01-.08Zm.23-.33-.03.06v.15q0 .03.03.06c.01.01.02.02.04.02.01 0 .03 0 .05-.01a.4.4 0 0 1 .1-.07c.04-.02.07-.04.11-.05.02-.02.04-.03.06-.05l.04-.04h.02c.02 0 0 .01 0 .02-.01.02-.03.03-.05.05-.02.01-.04.03-.06.04v.05c0 .02-.01.04-.03.05s-.03.03-.04.04c-.02.01-.04.03-.07.04s-.03.01-.04.02c-.01 0-.03.02-.04.02h-.02c-.02-.03 0-.06 0-.09-.02 0-.03.01-.05 0-.02 0-.04-.01-.05-.03a.1.1 0 0 1-.03-.07v-.16c0-.03.02-.05.03-.07h.02v.02Zm.3.17s-.06.02-.1.04a.6.6 0 0 0-.09.07c0 .03-.02.06 0 .08 0 0 .02-.01.03-.02.01 0 .03-.02.04-.02s.05-.03.07-.04.03-.03.04-.04.02-.03.02-.04v-.04Z"/><path d="M53.76 53.11s-.07.04-.06.07.03.06.07.06.07-.04.06-.07-.03-.06-.07-.06m0 .02s-.04.03-.04.05.02.04.05.04.04-.03.04-.05-.02-.04-.05-.04m0 .02s-.03.02-.03.03.01.02.03.02.03-.02.03-.03-.01-.02-.03-.02m-.52.04s.07.02.07.06-.03.07-.06.07-.07-.02-.07-.06.03-.07.06-.07m0 .02s.05.01.05.04-.02.05-.04.05-.05-.01-.05-.04.02-.05.04-.05m0 .02s.03 0 .03.02-.01.03-.03.03-.03 0-.03-.02.01-.03.03-.03" class="cls-5"/></g><g id="lion-3" data-name="lion"><path d="M56.12 51.67s-.01 0-.02.02c-.06.08-.12.15-.18.23-.06.02-.08.06-.06.11-.08 0-.09.06-.1.14-.07-.11-.16-.13-.25-.08 0-.07-.05-.1-.13-.11-.06 0-.1-.01-.13-.03-.02-.01-.03-.02-.05-.03-.04-.02-.07 0-.05.03.08.13.15.25.23.38 0 .02 0 .05.02.06.01.04.03.08.04.12 0 .01 0 .02-.01.03-.07-.03-.14-.03-.2-.03-.05 0-.09 0-.11-.03-.02-.02-.03 0-.03.03 0 .16.04.3.17.44-.07 0-.14.01-.21.02-.02 0-.03.01-.02.03.04.09.1.17.24.21a.24.24 0 0 0-.12.16c0 .07-.03.12-.07.14-.02.01-.03.02 0 .03.08.05.17.05.28.01a.4.4 0 0 0-.07.26c.06.01.13 0 .19-.03 0 .02-.02.05-.02.09 0 .03-.02.07-.04.11-.01.01-.02.03 0 .03.1.02.2 0 .28-.03 0 .07 0 .15.01.22 0 .02.02.03.04 0 .05-.07.1-.13.17-.17 0 .03.02.05.05.06s.04.05.04.1v.03c.05 0 .16-.13.19-.19.06.03.08.07.13.13.02.02.03 0 .04-.01.02-.07.03-.15.03-.22.08.02.18.03.28 0 .02 0 .01-.02 0-.03a.2.2 0 0 1-.03-.11v-.09c.06.02.12.02.19 0 .01-.09 0-.17-.06-.25.1.02.2 0 .28-.05.02-.01.01-.02 0-.03-.04-.02-.06-.07-.06-.13 0-.07-.04-.12-.1-.15.15-.07.22-.15.26-.25 0-.02 0-.03-.02-.03h-.22c.14-.15.2-.3.2-.46 0-.03-.01-.04-.03-.02-.02.03-.06.05-.11.05-.07 0-.13.02-.2.05v-.03c.02-.04.04-.08.05-.12.03-.02.03-.04.03-.06.09-.14.17-.27.26-.41.02-.02-.01-.05-.05-.02-.02.01-.03.02-.05.04-.04.03-.08.05-.14.05-.08.02-.13.06-.14.13-.09-.05-.17-.01-.25.11 0-.07 0-.14-.09-.12.03-.05 0-.09-.05-.1-.05-.07-.14-.13-.19-.2l-.02-.01Z"/><path d="M56.88 52.03s-.04 0-.05.03-.01.05 0 .06c.01 0 .03 0 .04-.02s0-.01 0-.01c.01-.02.02-.05 0-.06Zm-1.54.11s.04 0 .05.03.01.05 0 .06-.03 0-.04-.03-.02-.05 0-.06Zm1.39.18s-.02 0-.02.02 0 .02.02.02.02 0 .02-.02 0-.02-.02-.02m-1.25.08s-.02 0-.02.02 0 .02.02.02.02 0 .02-.02 0-.02-.02-.02m1.33-.18c-.23-.01-.46 0-.7 0s-.47.04-.7.08v.03c.23-.04.47-.07.7-.08s.46-.02.69 0c.01 0 .02-.03.01-.03" class="cls-3"/><path d="M55.41 52.29c.24-.04.47-.07.71-.08.23-.02.46-.02.7 0l.04-.06h-.03c-.02 0-.03-.05 0-.08.02-.04.05-.06.08-.05.01 0 .02.02.02.03l.15-.23c-.06.04-.1.07-.18.09-.09.02-.13.05-.12.1 0 .05-.02.04-.06.02-.09-.05-.17.03-.21.12-.02.06-.05.06-.05 0v-.06c0-.07-.02-.08-.06-.06-.05.03-.05.01-.04-.01 0-.02.03-.04.02-.07 0-.02-.02-.03-.05-.03-.05-.07-.14-.14-.19-.21-.06.08-.12.15-.18.23-.03 0-.04.01-.05.03 0 .03.01.05.02.06.01.02 0 .04-.04.02s-.06 0-.07.07v.06c0 .06-.03.06-.05 0-.03-.08-.1-.15-.2-.09-.05.03-.06.04-.06-.01s-.03-.08-.12-.08c-.08 0-.11-.03-.18-.06l.12.2s0-.01.02-.02.06 0 .07.04c.02.03 0 .07-.01.08l.03.05Zm1.34.18c-.01 0-.03.02-.04.04-.02.02-.04.04-.07.06h-.01c-.01 0 0-.01 0-.01.03-.02.05-.04.07-.06 0-.01.02-.02.02-.03h-.09c-.02 0-.05.02-.07.03s-.03.03-.04.04h-.01v-.01c.01-.02.03-.03.05-.05.01 0 .02-.01.03-.02h-.1s-.01 0-.02.02l-.02.02h-.01c-.01 0 0 0 0-.01 0 0 .01-.02.02-.02h-.07l-.02.02c-.01.01 0 .01-.01.02h-.01v-.01s0-.02.01-.03v-.01h-.11l-.02.02-.02.02h-.01v-.01s.01-.02.02-.02H56l.02.02v.01c0 .01-.01 0-.01 0s0-.01-.01-.02-.01-.01-.02-.01c-.04 0-.07 0-.11.01 0 0 0 .01.01.02v.01c0 .01-.01 0-.01 0s0-.01-.01-.02l-.02-.02h-.08l.02.02v.01c0 .01-.01 0-.01 0l-.02-.02c-.01-.01-.01 0-.02-.01-.03 0-.07 0-.1.01.01 0 .03 0 .04.02.02.01.04.02.05.04v.01h-.01c0-.01-.02-.03-.04-.03-.02-.01-.05-.02-.07-.03s-.06 0-.08.01c0 0 .01.02.03.03.02.02.04.03.06.05v.01c0 .01-.01 0-.01 0-.02-.02-.05-.04-.06-.05l-.04-.04a.5.5 0 0 0-.18-.03c-.05 0-.1 0-.14-.01.01.02.02.05.04.07s.04.03.06.04c0 .05.02.08.05.11.02.02.03.03.06.04a.3.3 0 0 1-.05-.07c-.02-.04-.02-.08-.02-.13h.01c0 .04 0 .08.02.12.02.03.05.07.09.1v.02a.23.23 0 0 1-.12-.06c-.03-.03-.04-.07-.05-.12-.03 0-.05-.02-.07-.04l-.03-.06c0 .13.05.24.13.33.02.02.05.05.08.06.03 0 .03.03 0 .03h-.03c.03 0 .05.02.07.03.04.02.07.04.07.08v.01h-.01q0-.045-.06-.06c-.03-.02-.08-.03-.12-.04-.05 0-.1 0-.14.01.01 0 .02.02.04.02.02.01.06.02.1.03.03 0 .05.01.07.02s.04.03.05.04v.01c0 .01-.01 0-.01 0a.2.2 0 0 0-.05-.04c-.02 0-.04-.02-.07-.02-.05 0-.08-.02-.11-.03l-.06-.03c.05.11.13.16.25.19h.02c.03 0 .05 0 .08.01h.08-.17c-.07 0-.13.08-.14.16a.6.6 0 0 1 .09-.07c.04-.02.08-.04.11-.03v.01h-.01c-.03 0-.07 0-.1.03a1 1 0 0 0-.1.08c0 .04-.03.09-.07.12.02 0 .03.02.05.01.03-.01.05-.03.08-.04s.06-.02.09-.02v.01c-.03 0-.06.01-.08.02-.02 0-.05.02-.07.03.07 0 .14 0 .21-.04.02 0 .03-.01.04-.02.02-.01.04-.02.05-.03.02 0 .04-.02.06-.02h.01v.01c-.03 0-.04 0-.07.03 0 0-.02.02-.04.03-.01 0-.02.02-.03.02q-.045.045-.06.09c0 .02-.02.04-.02.07.02-.03.04-.07.07-.1s.07-.07.11-.09h.01v.01c-.04.02-.07.05-.1.08s-.05.07-.07.11c-.01.02 0 0-.01.03l.1-.1c.04-.03.09-.05.13-.05v.01c0 .01 0 0-.01 0-.04 0-.08.01-.12.04q-.06.045-.12.12c.06 0 .11-.02.17-.04.03-.01.06-.04.08-.05l.02-.02.03-.03h.01c.01 0 0 .01 0 .01-.01 0-.02.02-.03.03s-.02.02-.03.04a.24.24 0 0 0-.06.08c-.02.06-.01.11-.04.18.02-.01.04-.03.06-.04.02-.02.03-.04.04-.07s.03-.06.05-.08.05-.04.08-.06h.01c.01 0 0 .01 0 .01-.03.01-.05.03-.08.05-.02.02-.04.05-.05.08s-.03.06-.05.08c-.01.02-.03.03-.05.04h.04c.02 0 .07-.02.09-.04a.2.2 0 0 0 .05-.07h.01c.01 0 0 0 0 .01-.01.03-.03.05-.06.07-.02.01-.04.03-.06.03.05 0 .1-.02.15-.04.02 0 .03-.05.04-.07s.02-.04.03-.05c.02-.02.03-.03.05-.04h.01v.01c-.02 0-.03.02-.04.04-.01.01-.02.03-.03.05 0 .02-.02.07-.02.09v.18c.02-.02.03-.04.05-.06 0-.03.01-.07.02-.1v-.11h.01v.1c0 .03 0 .05-.01.08.02-.02.02-.02.02-.03.01-.02.02-.05.02-.07v-.08c0-.01.01 0 .01 0v.08c0 .02 0 .04-.02.06.02-.01.04-.03.06-.04v-.13s0-.01.01-.01.01 0 0 .01v.12c0 .02.01.05.04.07s.05.05.05.08v-.12c0-.04-.01-.08-.03-.11v-.01h.01q.03.045.03.12v.15c.03-.03.12-.09.12-.19v-.03c0-.01.01 0 .01 0s0 .02.01.03v.02s.01-.01.02-.01l.02.01c0-.02 0-.04-.01-.05v-.08h.01c.01 0 0 0 0 .01v.07c0 .02 0 .05.02.07l.02.02v-.18h.01c.01 0 0 0 0 0v.2c.02.02.03.03.04.06.02-.06.03-.12.03-.19 0-.02-.02-.07-.02-.09s-.02-.03-.03-.04-.03-.02-.04-.03v-.01h.01c.02 0 .04.02.05.03s.02.03.03.04c.02 0 .02.05.04.06.05.01.09.02.14.02-.02 0-.04-.01-.06-.02a.2.2 0 0 1-.05-.07v-.01c0-.01.01 0 .01 0 .01.03.03.05.05.06.03.02.09.03.12.03-.02 0-.03-.02-.05-.04a.16.16 0 0 1-.04-.07c0-.03-.02-.05-.04-.07a.16.16 0 0 0-.07-.04v-.01h.01c.03 0 .06.02.08.05.02.02.04.05.05.08 0 .03.02.05.04.07.01.02.03.03.05.04-.03-.06-.02-.11-.03-.17 0-.04-.07-.08-.06-.09.01-.02.04.02.08.03.05.01.11.03.17.01-.04-.04-.07-.08-.11-.1s-.07-.04-.11-.03h-.01v-.01q.06-.015.12.03c.03.02.06.05.09.08v-.02c-.02-.04-.04-.07-.06-.1a.4.4 0 0 0-.1-.07v-.01h.01c.04.02.08.04.1.07l.06.09c0-.02-.01-.05-.02-.07a.2.2 0 0 0-.05-.08c-.02-.02-.06-.04-.06-.05h-.02c-.02 0-.04-.01-.05-.01h.01c.02 0 .04 0 .06.01.01 0 .02.01.03.02.02 0 .04.01.06.02.06.02.14.03.2 0-.02 0-.04-.02-.07-.02s-.05-.01-.08-.01l.01-.01c.03 0 .06 0 .09.01.03 0 .05.02.08.03.02 0 .03 0 .05-.02-.04-.03-.05-.07-.06-.11s-.06-.05-.09-.07-.06-.02-.1-.01h-.01v-.01c.04-.01.08 0 .11.01s.06.04.08.06c0-.08-.06-.14-.13-.14-.02 0-.06.01-.06 0 0-.02.03-.02.07-.03.12-.04.21-.1.27-.23-.02.01-.03.03-.06.04-.03.02-.06.03-.11.05-.03 0-.05.02-.07.03s-.04.03-.05.04h-.01c-.01 0 0 0 0-.01.02-.02.03-.03.06-.05.02-.01.05-.02.07-.03.05-.01.08-.03.11-.04.02 0 .03-.02.04-.03h-.14c-.04.02-.09.04-.13.06-.03.02-.06.04-.06.07h-.01c0-.03.03-.06.07-.09.02-.01.05-.03.07-.04h-.03c-.04 0-.03-.02 0-.03s.06-.05.08-.07c.09-.11.14-.22.15-.35a.2.2 0 0 1-.04.06.2.2 0 0 1-.07.05q-.015.075-.06.12a.4.4 0 0 1-.12.08s-.02 0 0-.02c.04-.04.07-.07.09-.11q.03-.06.03-.12v-.01h.01c0 .04 0 .08-.03.13-.01.03-.03.05-.06.08a.27.27 0 0 0 .12-.17c.03-.01.05-.03.07-.05s.03-.05.04-.07a.3.3 0 0 1-.14.03c-.07.01-.11.03-.17.06Z" class="cls-3"/><path d="M56.74 52.42c-.21-.01-.42 0-.63 0-.21.01-.42.04-.64.08v.01h.04c.2-.03.4-.06.6-.07s.42-.02.63-.01c.01 0 .02-.03 0-.02Z" class="cls-3"/><path d="M55.48 52.48c.21-.04.42-.06.63-.08s.42-.02.62 0v-.04c-.02 0-.04-.01-.04-.03s.02-.04.04-.04.03 0 .03.02l.02-.05c-.22-.01-.45 0-.67 0s-.45.04-.68.08l.02.05s.02-.02.03-.02c.02 0 .04.01.04.03s-.02.04-.04.04h-.01v.03Zm.95-.19s-.04.02-.04.04.02.04.04.03.04-.02.04-.04-.02-.04-.04-.03m0 .02s-.02 0-.02.02 0 .02.02.02.02 0 .02-.02 0-.02-.02-.02m-.33 0s-.04.02-.04.04.02.04.04.03.04-.02.04-.04-.02-.04-.04-.03m0 .02s-.02 0-.02.02 0 .02.02.02.02 0 .02-.02 0-.02-.02-.02m-.33.01s-.04.02-.04.04.02.04.04.03.04-.02.04-.04-.02-.04-.04-.03m0 .02s-.02 0-.02.02 0 .02.02.02.02 0 .02-.02 0-.02-.02-.02" class="cls-4"/><path d="M56.12 52.08s-.01-.04-.03-.05-.03-.02-.06-.02c-.01 0-.01-.02 0-.02.02 0 .04-.02.05-.04s.03-.05.03-.08c0-.01.02-.01.02 0q0 .045.03.06c.02.02.04.03.06.04v.02c-.02 0-.03.01-.04.03-.02.02-.03.05-.03.07 0 .01-.02.01-.02 0Zm.01-.03s.02-.03.03-.05c0-.01.02-.02.03-.03-.02 0-.03-.02-.04-.03 0 0-.02-.02-.02-.03 0 .02-.02.03-.03.05-.01.01-.02.03-.03.04.02 0 .03.01.04.02.01 0 .02.02.02.03m.19 1.52-.16.07h-.01v-.01l.16-.07h.01zm.02-.1-.19.11h-.02c-.01 0 0-.01 0-.02l.19-.11h.02c.01 0 0 .01 0 .02m-.56.02.18.09v.02c0 .02-.01 0-.02 0l-.18-.09v-.02c0-.02.01 0 .02 0m.01.1.16.05s.01 0 0 .01c0 .01 0 0-.02 0l-.16-.05s-.01 0 0-.01c0-.01 0 0 .02 0m.06.13h.11c.03 0 .05-.02.06-.05v-.15h-.09c-.03 0-.05-.03-.06-.05-.01-.03 0-.07 0-.1 0 0 0-.01.01 0s0 0 0 .01c0 .03-.01.06 0 .09 0 .02.02.03.05.04h.09c.03 0 .07 0 .09-.02.03 0 .05-.02.06-.04s.02-.04.02-.05 0-.02-.01-.02h-.11s0-.01.01-.01h.07c.02 0 .04 0 .05.01.01 0 .02.02.02.04s0 .05-.03.07a.2.2 0 0 1-.07.05c-.03 0-.06.02-.09.02v.15c.01.02.03.04.06.04s.07 0 .11-.02h.01v.01c-.05.01-.09.02-.12.02s-.05-.01-.06-.04c-.02.02-.04.04-.07.04h-.12s-.01 0 0-.01c0-.01 0-.01.01 0Zm.11.05h.12s.01-.01.01 0 0 .01-.01.01h-.12s-.01.01-.01 0 0-.01.01-.01m.22-.94.13-.1c.04-.02.08-.04.11-.04 0 0 .01 0 .01.01s0 .01-.01.01c-.03 0-.06.01-.1.04-.04.02-.08.06-.13.1h-.02c-.02 0 0-.01 0-.02Zm-.19.03s-.09-.07-.13-.09-.08-.03-.11-.02h-.01c0-.01 0-.01.01-.01.03 0 .08 0 .12.02.05.02.1.05.14.09v.02h-.02Zm-.07.31s.03-.05.04-.07c.02-.02.04-.04.06-.05h.02v.02c-.02.02-.04.03-.05.05-.02.02-.03.04-.04.06 0 0 0 .01-.02 0s0 0 0-.01Zm.13-.54s.03.04.03.06.01.05 0 .08v.08c0 .03-.01.05-.03.08-.01.02-.03.03-.05.04h-.05c0 .03.01.06 0 .09h-.02c-.01 0-.03-.01-.04-.02s-.03 0-.04-.01-.05-.02-.07-.03-.03-.02-.04-.03-.02-.03-.03-.05v-.05l-.06-.03c-.02-.01-.04-.02-.05-.04v-.02c0-.02.01 0 .02 0 .01.01.03.02.04.03l.06.03c.04 0 .08.01.11.03.03.01.06.03.1.05h.05c.01 0 .03-.01.04-.03.02-.02.02-.04.03-.07v-.15c0-.02-.02-.04-.03-.06v-.02c0-.02.01 0 .02 0Zm-.13.33s-.06-.04-.09-.05-.06-.02-.1-.02v.04c0 .02 0 .03.02.04s.02.02.04.03c.02 0 .04.02.07.03s.03 0 .04.01c0 0 .02 0 .03.01v-.08Zm.25-.32s-.03.04-.03.06-.01.05-.01.08v.07c0 .02 0 .04.02.06 0 .01.02.02.04.02h.05c.03-.03.07-.05.1-.06.04-.02.08-.03.12-.04.02-.01.05-.03.06-.04s.04-.03.05-.04h.02c.02 0 0 .01 0 .02-.01.01-.03.03-.05.04s-.04.03-.06.04v.05c0 .02-.02.04-.03.05s-.03.03-.05.04-.04.03-.07.04-.03.01-.04.02c-.01 0-.03.01-.04.02h-.02c-.01-.03 0-.06 0-.09h-.05c-.02 0-.04-.01-.05-.03-.02-.02-.02-.05-.03-.07v-.07c0-.03 0-.06.02-.09 0-.03.02-.05.04-.07h.02v.02Zm.29.2s-.07.02-.1.04-.07.04-.1.06c0 .03-.02.06-.01.08 0 0 .02-.01.03-.02.01 0 .03-.01.04-.02s.05-.02.07-.04c.02-.01.03-.02.04-.04s.02-.03.02-.04v-.04Z"/><path d="M56.35 52.86s-.07.03-.07.07.03.06.06.06.07-.03.07-.07-.03-.06-.06-.06m0 .02s-.05.02-.05.05.02.04.04.04.05-.02.05-.05-.02-.04-.04-.04m0 .02s-.03.01-.03.03.01.03.03.02.03-.01.03-.03-.01-.03-.03-.02m-.52 0s.07.02.06.06-.03.07-.07.07-.07-.02-.06-.06.03-.07.07-.07m0 .02s.04.02.04.04-.02.05-.05.05-.04-.02-.04-.04.02-.05.05-.05m0 .01s.03 0 .03.02-.01.03-.03.03-.03 0-.03-.02.01-.03.03-.03" class="cls-5"/></g><path d="m63.53 51.84-2.5-2.52-3.29 2.18-.55 6.54q2.415-.06 4.71.27l1.65-6.48Z" class="cls-7"/><path d="M58.38 52.78c.11-.04.23-.06.34 0 .05.01.08.04.11.06.05-.04.1-.08.16-.12.08-.06.15-.12.23-.15.12-.07.24-.12.35-.14.12-.03.25-.05.38-.05.1 0 .2.01.3.06.09.03.17.07.26.1.09.04.18.08.28.1.12.03.25.03.39.02.07 0 .14-.01.2-.04.05-.02.09.01.03.05-.43.3-.77.11-1.06.04.11.06.2.12.28.19.11.09.23.18.45.26.13.04.28.08.46.06.06 0 .13-.02.2-.03.04 0 .05 0 .05.01s0 .04-.02.05a.76.76 0 0 1-.33.13c-.22.04-.46 0-.68-.1-.17-.07-.29-.17-.43-.26a.9.9 0 0 0-.39-.14c-.13-.01-.26 0-.38.05.03 0 .06.02.08.03.06.03.14.04.25.04.06 0 .04.04-.05.1a.26.26 0 0 1-.22.12c-.13.1-.17.05-.22 0 0 .03-.02.07-.03.1v.05c.02.03.03.06.02.09 0 .02 0 .03.03.05s.04.05.05.08c0 .02.01.04.03.05.03.02.05.03.08.06.08.02.11.07.13.15.06.01.08.05.09.1.03.01.06.02.08.05.12-.01.23-.02.34-.02.1 0 .18.05.26.13.05 0 .1 0 .15-.02.05-.03.11-.05.17-.06.1-.02.2-.03.3-.02.07 0 .12.04.16.08.06.06.15.04.23 0 .11-.06.2-.06.31-.03.05-.02.09-.04.14-.04.04-.05.08-.06.13-.07.07 0 .12 0 .11.09 0 .02-.02.05-.04.06-.03.07-.1.1-.18.1 0 .05-.03.09-.06.11.04.11 0 .15-.08.16-.02.03-.04.06-.09.05a.2.2 0 0 1-.11.08c0 .03.02.04.04.07.06.08-.03.12-.11.13.02.05.02.11.02.17.08.04.09.09.02.14.05.09.03.16-.07.22 0 .05 0 .1-.04.14-.02.02-.06.03-.04.06.04.06.03.15-.03.16-.01 0-.02 0-.03.02 0 0 0 .01-.02.02-.07.05-.14.1-.2.15 0 0-.02.01-.03 0-.05.1-.13.21-.23.32a.21.21 0 0 1-.13.16c0 .02-.02.04-.04.05.04.04.05.08.02.12-.05.05-.11.11-.17.13-.13.05-.21.05-.27 0-.05-.04-.03-.07 0-.09-.08.01-.1-.02-.09-.08 0-.03.01-.03.04-.03.04 0 .08-.03.12-.05.02-.03.04-.05.06-.08.01-.09.07-.15.15-.18.06-.03.12-.1.18-.18.04-.06.07-.13.11-.19-.03-.03-.03-.06-.03-.09-.03-.01-.06-.03-.07-.06-.06 0-.08-.02-.09-.05h-.04c-.03.02-.06.04-.09.04-.05.05-.09.09-.14.13a.12.12 0 0 1-.09.08c-.12.03-.19.17-.25.24-.03.02-.04.06-.05.1 0 .08-.02.13-.06.14h-.09c.03.03.04.07 0 .11-.03.04-.07.06-.11.06q-.12.015-.21 0c-.06-.02-.07-.05-.06-.09-.04-.02-.05-.03-.05-.05 0-.03.03-.04.06-.04.03-.01.05-.03.08-.03.08-.09.15-.16.24-.2.03-.03.05-.06.09-.09 0-.07.06-.13.12-.19 0-.03.01-.05.03-.08v-.04c-.02-.04-.04-.09-.02-.14v-.07c-.14.1-.18.07-.2 0-.05.05-.1.07-.13.02-.05.02-.1.04-.15.03-.03.02-.07.03-.1.04l-.06.09c0 .06-.02.13-.06.19a1 1 0 0 1-.09.21c0 .02 0 .04-.01.06.01.07-.02.11-.06.14-.01.03-.03.06-.05.1v.03c.02.04.02.09-.03.14-.04.03-.08.06-.12.08-.05.03-.09.02-.13.01-.07-.02-.06-.04-.05-.06-.02.01-.05.01-.07 0-.02 0-.03-.02-.04-.03-.01-.02-.02-.05.02-.07.05-.02.08-.04.11-.08.01-.03.03-.05.05-.06.02-.05.05-.09.08-.1.03-.06.05-.13.09-.2.01-.02.02-.04.01-.06 0-.02 0-.03.01-.04 0 0 .02-.01 0-.02-.02-.05 0-.11.02-.15.04-.06.08-.19.04-.25 0-.03-.01-.07 0-.11h-.04c-.03-.01-.05 0-.08.04-.02.04-.03.08-.05.08-.02.11-.07.19-.12.22-.01.05-.02.1-.01.14 0 .05 0 .09-.02.1-.03 0-.05.03-.07.07v.04c.04.03.03.08 0 .12-.08.09-.18.09-.29.07-.08-.02-.1-.05-.09-.08-.11 0-.09-.08 0-.12.1-.04.18-.11.24-.2 0-.1.03-.18.09-.19 0-.06.03-.12.05-.18.03-.05.05-.11.04-.17-.06-.03-.06-.07 0-.11q.03-.015 0-.03c-.04 0-.03-.03-.03-.07 0-.02-.01-.02-.03-.02-.08 0-.06-.04-.03-.08.01-.02.02-.04 0-.05-.01 0-.02-.03-.02-.06-.05-.03-.03-.07 0-.11-.03-.02-.04-.05-.05-.09-.09 0-.13-.04-.08-.11.02-.03.05-.06.08-.09.02-.04.04-.07.03-.11-.03-.06.06-.12.13-.18-.01-.02-.02-.03-.02-.05-.04-.03-.03-.07.01-.11-.01-.02-.02-.03-.02-.05-.1.03-.1-.03-.05-.13-.06-.03-.04-.09.07-.19 0-.02 0-.04.01-.05-.05 0-.09.03-.13.05-.04.03-.08.03-.12.02-.01-.02-.03-.03-.05-.05-.03-.02-.03-.05-.03-.08-.12.02-.14-.07-.07-.12.04-.04.07-.07.08-.11.03-.08.1-.15.17-.21 0-.02 0-.05.01-.07a.17.17 0 0 0-.1-.03.12.12 0 0 0-.07-.07c-.02-.01-.03-.02-.02-.05-.06-.05-.05-.08-.03-.12Z"/><path d="M60.57 55.58h-.02l-.1.1c-.03-.03-.07.01-.03.03l-.02.02c-.01.04-.03.06-.07.07h-.02v-.1.11c-.11.04-.17.16-.24.24-.03.03-.05.07-.06.11 0 .02 0 .11-.03.12h-.03c-.01-.02-.03-.01-.05 0-.04 0-.09 0-.13.02-.03.03.05.01.09.03.02 0 .03.03.02.06-.04.09-.24.08-.3.05-.03-.01-.03-.03-.03-.06h.04c.02 0 .05-.02.07-.03 0 0 .01 0 0-.02s-.01 0-.02 0l-.06.03h-.06c-.01 0-.02-.01-.02-.02h.03c.03-.02.06-.03.09-.04.07-.08.14-.16.24-.21.03-.04.06-.07.1-.1.01-.08.05-.13.12-.19 0-.03.02-.06.03-.09v-.05c-.02-.04-.04-.08-.02-.13-.01-.03 0-.06 0-.09v-.02c.02-.02.04-.03.06-.05.02-.01.04-.03.05-.04v.1s-.02.02-.03.04c0 .01-.01.02 0 .04v-.03c0-.01.01-.02.02-.03.03 0 .06-.02.1-.05l.09-.09v.14a.4.4 0 0 0-.07.1l.06-.09.01-.01c.03-.03.07-.05.11-.07v.12c0 .04.03.08.07.11Z" class="cls-3"/><path d="m58.55 54.65.02-.02c.01-.03.03-.05.05-.08s.04-.06.06-.08c-.02.02-.04.05-.06.08-.02.02-.03.05-.04.08v.02c0 .04.01.06.03.09 0-.02.02-.04.03-.05.02-.02.04-.04.06-.05s.03-.03.04-.04.02-.03.02-.04c0 .02-.02.03-.03.05s-.03.03-.04.05c-.02.01-.04.03-.06.05-.01.01-.02.03-.03.04 0 0 .01.02 0 .04-.03.04-.06.07 0 .1 0 .03 0 .05.02.06.01.01.01.05-.02.09-.03.03 0 .02.02.02s.02-.04.04-.06c.01-.02.03-.03.04-.05.02-.02.04-.05.05-.07s.02-.05.02-.07c0 .02 0 .05-.02.07-.01.02-.03.05-.05.07-.01.02-.03.03-.04.05l-.03.06c.03.02.02.05.03.09h.02c0-.01.01-.02.02-.03l.03-.05-.03.05s-.01.02-.02.03c.02.01.02.05 0 .07-.05.04-.04.05.01.08v.2-.04.02c-.03.08-.07.14-.08.22-.08.03-.07.11-.08.18-.07.09-.14.17-.25.22-.02 0-.07.02-.07.05 0 0 .03.02.05.01.06-.06.09-.03.02.03 0 .01 0 .02.01.03.06.05.21.05.28 0 .05-.04.08-.07.03-.11 0-.07.03-.13.1-.16v-.06c0-.06 0-.11.02-.17 0 0 0-.01.02-.02.03 0 .08-.09.1-.17v-.05c0-.03.01-.03.03-.02.01-.02.01-.03.02-.05.03-.04.07-.08.11-.06a.4.4 0 0 1-.02-.1c0-.04 0-.09.01-.13 0 0 0-.01.01-.01.01-.03.03-.07.04-.1s.03-.07.04-.1c-.01.03-.03.07-.04.1s-.03.07-.04.1v.01c-.01.04-.02.08-.01.12q0 .06.03.12c.02.01.02.01.02.04v.07c.04.07 0 .21-.04.28-.02.03-.03.07-.02.11.03.02 0 .05-.01.07v.02c0 .03 0 .05-.02.07-.04.07-.06.14-.09.21-.05.02-.06.05-.08.1-.03.01-.03.02-.05.05-.04.04-.07.06-.11.09-.04.02 0 .03.03.05.02.01.05-.03.07-.06s.04-.03.03 0a.2.2 0 0 0-.03.09c0 .02.08.03.09.03.05 0 .12-.06.16-.09.03-.04.03-.07.01-.1s-.04 0-.06 0-.05 0-.07-.02c.02 0 .05.01.07.02h.06v-.03s.05-.07.06-.11c.06-.03.06-.06.05-.12.01-.03.02-.04.01-.07a1 1 0 0 0 .09-.21.23.23 0 0 0 .06-.19c0-.03.01-.04.03-.05.01-.02.03-.04.04-.07 0-.02 0-.03.01-.04 0-.01.01-.02.02-.03 0-.02.01-.04 0-.06 0-.02 0-.04-.02-.05l-.02-.02v-.03.02s0 .01.01.02.02.04.02.06 0 .04-.01.07c0 0-.01.02-.02.03 0 .01 0 .03-.01.04.03 0 .06-.02.09-.03s.03-.04.05-.06c.01-.02.02-.05.03-.08 0 .03-.02.06-.03.08s-.02.04-.04.05c.05 0 .09 0 .14-.03v-.15c0-.04.02-.07.04-.1-.02.02-.03.05-.04.09v.15c.02.03.03.05.07.02.01-.01.03-.02.04-.04v-.01c.04-.04.08-.09.12-.12.04-.04.08-.07.12-.1-.04.03-.08.06-.11.1l-.1.1v.03c0 .04.01.07.08.04.04-.02.04-.02.07-.04.02-.01.03-.02.04-.02.02-.02.04-.04.06-.05.02-.02.04-.03.06-.04 0-.02 0-.05.02-.07.02-.06.05-.12.1-.17.04-.02.06-.05.09-.07.02-.03.04-.06.05-.09q-.015.045-.06.09c-.02.03-.05.05-.09.08-.04.05-.07.11-.09.17 0 .02-.01.04-.02.06v.1c.03 0 .06-.02.09-.05s.06-.07.09-.1c0-.03.02-.05.03-.07a.12.12 0 0 1 .05-.05c-.02 0-.03.02-.05.04-.01.02-.02.04-.03.07v.14c.04-.03.08-.05.12-.07 0 .04-.01.09 0 .12q0 .06.06.09c.01-.02.03-.04.04-.06l.02-.02.04-.04.03-.03.03-.03c0 .01-.02.02-.03.03l-.03.03s-.03.02-.04.04v.06h.07c0 .05.01.06.06.06v-.06c0-.02 0-.04.01-.06 0 .02-.01.04-.01.06v.06s.04.05.09.07l.03-.06v-.06.07c0 .03-.02.04-.03.07 0 .02 0 .04.01.06 0-.01.01-.03.02-.04.01-.02.02-.04.04-.05-.01.01-.02.03-.03.05 0 .02-.02.03-.02.05l.02.02c-.08.14-.16.33-.32.41-.08.04-.12.08-.13.17-.03.03-.05.05-.07.09-.05.02-.1.05-.16.06 0 .04.01.05.05.05l.09-.05s0 .06-.07.1v.02c.05.07.18.03.25 0 .05-.02.14-.08.16-.14 0-.02-.01-.05-.03-.07-.1.03-.08-.07 0-.04.03-.01.03-.01.04-.04.08-.04.11-.07.12-.15.08-.09.15-.18.21-.28.02-.02.02-.05.02-.07l.03-.06v-.06.06c0 .02 0 .03-.02.05 0 .01 0 .02.02.02.07-.06.13-.1.2-.15 0-.03.02-.05.05-.05.01 0 .02 0 .02-.02.02-.04 0-.07-.02-.1-.02-.05.01-.06.05-.09.03-.03.03-.09.03-.13v-.02c0-.01 0-.03-.01-.04 0 .01 0 .03.01.04v.02c.03-.02.07-.04.08-.08s-.01-.08-.03-.11c0 0-.02 0-.03.01-.02 0-.03.02-.05.03.02 0 .03-.02.05-.03.01 0 .03-.01.04-.02s.03-.02.04-.04c.02-.04-.04-.06-.06-.07-.03-.03-.06-.05-.1-.08l.09.07s0-.1-.01-.14c0-.02-.01-.03-.02-.04a.15.15 0 0 1-.06-.04c-.01-.02-.02-.04-.02-.06 0 .02 0 .04.02.05.01.02.03.03.05.04.03.01.08 0 .12-.02.05-.03-.01-.07-.03-.1 0-.02-.01-.04-.02-.06h.01l-.02-.02s-.02 0-.02-.01c.01 0 .02 0 .03.01 0 0 .02.01.02.02h.01c.04-.01.07-.04.1-.07-.01-.02-.03-.03-.05-.04s-.04-.03-.06-.04c.02.01.04.03.06.04s.04.03.05.05c.04 0 .05 0 .07-.05 0-.02-.01-.03-.02-.05s-.03-.03-.04-.04c.02.01.03.03.04.05s.02.03.03.05c.02 0 .04 0 .06-.01.04-.02 0-.1 0-.12h-.01s-.02 0-.03-.01c0 0 .02 0 .03.01h.02s.04-.06.04-.09c.01-.04.01-.03.07-.04s.09-.02.12-.09c.02-.01.03-.02.03-.04 0-.04 0-.06-.04-.06-.06 0-.1.02-.14.06 0 0 .01.02.02.02l-.02-.02c-.06 0-.1.01-.15.04h-.02l.03.03c0 .02.01.04.01.05 0-.02 0-.03-.01-.05s-.02-.03-.04-.05-.08-.01-.13 0l.02.02s.02.01.03.02c0 0-.02-.01-.03-.02 0 0-.02-.01-.03-.02-.03 0-.07.02-.11.04-.03.01-.05.02-.08.03l.05.05c.01.02.02.05.03.07 0-.03-.02-.05-.03-.07s-.03-.04-.05-.05h-.07l.03.04-.03-.05s-.04 0-.06-.02c0 .02.01.05.02.07v.11-.11c0-.03-.01-.06-.02-.09 0 0-.02-.01-.03-.02a.3.3 0 0 0-.07-.05v.03q0 .03-.03.06c.01-.02.02-.04.02-.06v-.04a.6.6 0 0 0-.14-.02c.01.02.03.03.04.05s.02.04.04.06c.02.01.03.03.04.05v.06-.06c0-.02-.01-.03-.03-.05l-.03-.06c-.01-.02-.03-.04-.04-.05s-.03 0-.05 0v.01s0 .02.01.03v-.02s0-.01-.01-.02c-.03 0-.07.01-.1.02.03.04.06.08.08.12.02.05.04.1.05.15 0-.05-.02-.1-.05-.15a.5.5 0 0 0-.09-.13c-.03 0-.05.01-.08.02.01 0 .02.01.03.02.01 0 .02.02.03.02 0 0-.02-.02-.03-.02s-.02-.01-.04-.02c-.01 0-.03.01-.04.02h-.02c.02.01.04.03.07.05s.05.05.07.07a.2.2 0 0 0-.07-.07.3.3 0 0 0-.07-.05c-.03 0-.06.01-.08.02a.3.3 0 0 1 .04.1c.01.04.02.07.02.11 0-.04-.01-.07-.02-.11a.5.5 0 0 0-.05-.1h-.05c0 .03.02.06.03.09 0 .04.02.08.02.11a.4.4 0 0 0-.02-.11c0-.03-.02-.07-.03-.1a.4.4 0 0 0-.17-.11c.01.02.02.03.03.05.01.03.02.06.02.09 0-.03 0-.06-.02-.08a.3.3 0 0 0-.05-.06h-.18c.03.03.06.05.06.08 0-.03-.03-.05-.06-.08h-.08l.04.04c.01.02.02.04.03.05s.01.06.02.08.03.03.06.04c-.03 0-.05-.03-.06-.05s-.02-.05-.03-.08c0-.02-.01-.03-.03-.05-.01-.02-.03-.03-.04-.05h-.09l.03.1c0 .04 0 .09.01.13 0-.04 0-.09-.01-.13 0-.04-.01-.07-.03-.1s-.04-.04-.06-.05c0 0 0 .02-.01.03 0 0 0-.02.01-.02v-.01h-.01c-.01-.06-.03-.08-.07-.09v.05c0 .02-.01.04-.02.06.01-.02.02-.04.02-.06v-.05c-.01-.08-.03-.12-.11-.14v.03c0 .02 0 .04-.01.06 0-.02 0-.04.01-.05v-.05c-.02-.02-.04-.03-.07-.05 0 .03 0 .06-.01.09-.01.04-.03.07-.05.11.02-.04.04-.07.05-.11 0-.03.01-.07.01-.1 0 0-.02-.02-.02-.03v.02-.05c0-.02-.02-.04-.04-.06s0 .02 0 .02c0 .01-.01.03-.02.04 0-.01.02-.02.02-.04 0-.01 0-.02.01-.03 0 0-.01-.02-.02-.03 0 0 0 .02-.01.02 0 0-.01.02-.03.03l.02-.02s0-.02.01-.02v-.02c0-.04 0-.06-.03-.09-.01 0-.03 0-.04.01-.02 0-.04.02-.06.04.02-.02.04-.03.06-.04s.04-.02.05-.02v-.03c-.06.03-.11.04-.15.05h-.1c.02 0 .05.01.09 0 .04 0 .09-.02.15-.05.01-.03.02-.05.03-.07-.02 0-.04 0-.07.01s.05 0 .07-.01v-.02c0-.03.03-.04.06-.02.02.02.04.04.05.04.04.01.08 0 .11-.03h-.03.04c.08 0 .13-.02.18-.08h-.12c-.04 0-.07 0-.09-.01.02 0 .05.01.09.01h.13s0-.01.01-.02a.2.2 0 0 0 .06-.04c-.09 0-.17 0-.25-.04q-.03-.03-.09-.03c-.06 0-.12.02-.18.05a.1.1 0 0 0-.04-.03h-.14.16c.09-.04.16-.07.22-.07.07-.03.15-.05.23-.05v-.02c.04-.04.05-.08.04-.12-.01-.03-.05-.06-.1-.09-.05.01-.11 0-.17.02-.04 0-.07.02-.11.03.03 0 .05.02.08.04.03.03.04.07.05.12 0 0 0 .01-.01.02h-.01c0-.05-.03-.08-.05-.1-.02-.03-.08-.04-.1-.04-.06.01-.12.02-.17.04-.04.01-.07.03-.1.05.04-.01.08-.01.11 0s.06.04.08.08v.02c0 .01-.01 0-.02 0a.1.1 0 0 0-.06-.07c-.05-.02-.16.01-.21.05-.03.02-.05.05-.08.08 0 0-.01.01-.02 0-.01 0 0-.01 0-.02l.09-.09c.03-.02.06-.04.09-.05.03-.04.08-.06.13-.08s.11-.03.17-.04a.13.13 0 0 0-.07-.06h-.09c-.07.03-.14.08-.2.12h.07s.01 0 0 .02c0 .01-.05.01-.06.01-.02 0-.03 0-.05.01-.08.05-.13.1-.19.16h-.01a.2.2 0 0 0-.12.04c-.02.02-.02.04-.02.07s-.02.07-.02.1c-.07.06-.14.12-.17.21 0 .02-.02.05-.04.07h.03v-.04c0-.02.01-.04.02-.05 0 .01-.01.03-.02.05v.07h-.01c0-.01 0-.02-.01-.02h-.04c-.01.02-.03.03-.05.05-.01.01-.03.02-.03.04 0 .03.03.03.07.03.08 0 .02.05.06.08.02.01.04.03.06.05h.07c0-.05 0-.08.02-.08s0-.01 0-.02 0-.02.02-.03c0 0-.01.02-.02.03v.07a.22.22 0 0 1 .13-.04c.09-.11.12-.09.05 0 0 0 0 .02-.01.02-.01.03-.02.05-.02.08-.02.02-.13.12-.09.15.03 0 .05 0 .03.01-.01.03-.05.09-.04.12 0 .01.02 0 .04 0 .03-.03.06-.05.09-.09.03-.03.05-.07.07-.11 0 0 0-.01.01-.01 0-.03.02-.06.03-.09s.02-.06.04-.1h.01q.015.03.03.03h.03c.01 0 .02 0 .03-.01.01 0 .02-.02.03-.04-.01.02-.02.03-.04.04s-.03.02-.04.02h-.04q-.015 0-.03-.03l-.03.09-.03.09v.02c-.02.04-.05.08-.08.12-.02.03-.05.05-.07.08 0 .02 0 .04.02.06.05-.04.09-.09.13-.13.04-.05.07-.09.1-.14-.01.02-.03.05-.05.07v.13-.11c-.01.01-.02.03-.03.04-.04.05-.08.09-.13.14-.04.03-.08.05-.03.08l.05-.04.05-.04-.05.04s-.03.03-.05.04c0 .02 0 .03.01.04h.01a1 1 0 0 1 .1-.08c-.03.03-.07.05-.1.08l-.01.02c-.03.03-.15.11-.14.16s.06-.02.08-.04a.3.3 0 0 0 .08-.07c-.03.03-.06.05-.08.07s0 .01 0 .01v.01-.01c-.02.01-.05.02-.07.03.01.05-.01.09-.04.13-.01.01-.13.12-.08.14h.04Zm.06-1.63s-.06-.03-.09-.03a.13.13 0 0 0-.07-.06c-.02-.01-.02-.01-.01-.03.03 0 .04-.01.04-.02h.04c.01 0 .02 0 .03.01 0 0-.02-.02-.03-.02h-.09q-.03-.015-.03-.06h.04c.01 0 .02 0 .03.01 0 0-.02-.01-.03-.02h-.03c.1-.03.19-.04.28 0 .05.01.07.03.1.07 0 0-.02.02-.03.02-.06 0-.1.02-.13.04q-.03.03-.03.09Z" class="cls-3"/><path d="m60.64 55.55-.06.03c.01-.03.03-.05.05-.07v.05Zm.25.51s-.03.04-.05.06-.04.04-.06.05c.02-.02.04-.03.06-.05s.03-.04.05-.06m.17-.22s-.02.03-.03.04c0-.01.02-.03.03-.04m-.09 0s-.01.04-.02.06-.03.03-.06.05c.02-.01.04-.03.05-.04.01-.02.02-.03.02-.05Zm.16-.21s-.01.02-.02.02c0 0 0 .02-.01.03 0-.01 0-.02.01-.03s.01-.02.02-.03Zm.14 0s-.01.04-.02.06c0 .02-.02.04-.03.06l.03-.06c0-.02.01-.04.02-.06m-.06-.77c.04.06.05.12.05.18 0-.02 0-.05.02-.07.02-.03.03-.05.03-.08v-.07.08c0 .03-.02.05-.04.08l-.03.13s-.01.01-.01 0v-.01c0-.08 0-.16-.05-.23Zm-.11.14v.04zm-.02.18s.02.07.02.1v.07-.01l.04-.04c-.02.01-.03.02-.04.04 0 .01-.02.03-.02.04h-.01v-.1c0-.03-.01-.07-.02-.1Zm.14.05s0 .05.01.08 0 .05 0 .07v-.07c0-.02 0-.05-.01-.07Zm.12-.04v.07c0 .02 0 .05-.02.07v.07c0 .02.01.05.03.07-.01-.02-.02-.05-.03-.08v-.08s.01-.04.01-.07v-.07Zm.06-.2v.08zm-.06-.33s0 .02.01.03c0-.01 0-.02-.01-.03m.03-.25v.1c-.01.01-.03.03-.03.05v.07-.08c0-.02.02-.04.03-.06v-.09Zm-.25-.06s.07.05.1.08c.02.03.04.07.04.11-.02 0-.04-.01-.07-.02.01.09.01.17 0 .23-.02.06-.06.11-.12.14 0 0-.01 0 0 0 .01-.04.02-.07.02-.11v-.11.11c0 .03 0 .06-.02.1.05-.03.08-.07.1-.12.02-.06.02-.14 0-.23.02 0 .05.01.07.02 0-.04-.01-.07-.03-.1a.2.2 0 0 0-.09-.07Zm.67-.2v.02zm-.16.01s.02 0 .03.02c0 0 .02.02.02.03 0 0-.01-.02-.02-.02s-.02-.01-.03-.01Zm-.24.09s.03.04.03.06v.08-.07c0-.02-.02-.04-.03-.05Zm-.79.16v.06zm.15-.09s0 .02.01.04 0 .02 0 .02 0-.03-.01-.05Zm.3.17v.04-.02Zm.1-.24s.01.01.01.02v.02-.02Zm-.71.11v.04c0 .01.01.03.03.04.02.02.02.03.03.05v.05-.05c0-.02-.01-.03-.03-.04-.01-.01-.02-.03-.03-.04zm.29.16s.03.06.03.08v.09c0 .04 0 .07.02.1s.05.05.08.08c-.01-.04-.02-.08-.02-.11 0-.04.02-.09.05-.13l.03-.06c0-.02 0-.04.01-.05 0 .02 0 .04-.01.06l-.03.06c-.03.04-.04.08-.04.12s0 .08.02.13c0 0 0 .01-.01 0a.3.3 0 0 1-.1-.09c-.02-.03-.03-.07-.02-.11v-.08a.16.16 0 0 0-.03-.08Zm-.12.19s0 .06-.03.1c-.01.03-.03.05-.05.08.01 0 .02 0 .03-.02.02-.01.04-.02.05-.04.01-.01.03-.02.04-.04.01-.01.03-.03.04-.05-.01.02-.03.04-.04.05s-.02.02-.04.03v.04-.03c-.02.01-.03.02-.05.03s-.04.02-.05.03c0 0-.01 0 0 0 .03-.03.05-.06.06-.1.02-.03.02-.06.02-.09Zm-.14 0v.03zm-.09-.16s.02.08.02.12-.03.08-.05.11-.05.06-.06.09c-.01.02-.02.04-.02.07 0-.01.01-.02.02-.03a.2.2 0 0 1 .07-.05c.03-.02.06-.04.08-.06.03-.02.05-.05.07-.07-.02.03-.05.05-.07.07s-.05.04-.08.06-.04.02-.06.04-.03.04-.04.06h-.01c0-.04.02-.07.03-.11s.04-.06.06-.09c.03-.03.04-.07.05-.11s0-.08-.02-.12Zm.29.42s0 .02.02.04l.01.01c.02.03.03.06.03.1s0 .08-.01.11h-.01c0-.04-.02-.07-.05-.1s-.06-.05-.1-.08c.04.02.08.05.11.08.02.02.04.05.05.08v-.08c0-.03 0-.07-.03-.09 0 0 0-.01-.01-.01q-.03-.03-.03-.06Zm.12-.02s.01 0 .02.01c0 0 .01 0 .02.01 0 0-.01 0-.02-.01 0 0-.01 0-.02-.01m.15.03-.03.09c0 .03-.02.06-.03.09 0-.03.02-.06.03-.09 0-.03.02-.06.03-.09m.09.49v.02-.03Zm-.09-.14s0 .03-.01.05c0 .02 0 .03-.01.05 0-.02 0-.03.01-.05 0-.02 0-.03.01-.05m-.13.01h.01v.02h-.01zm-.15-.05v.06zm-.22.25s-.01.02-.02.03v.03-.04c0-.01.01-.02.02-.03Zm-.62.65s0 .01-.01.02l-.02.02.02-.02s0-.01.01-.02m.1-.06s0 .01-.01.02c0 0-.01 0-.02.01 0 0 .01 0 .02-.01s0 0 0-.01Zm.13-.09v.01c0 .01 0 0-.01.01h.01Zm.19-.51s-.01.04-.01.05v.05-.06c0-.02 0-.04.01-.06Zm.13-1.32s0 .03-.01.04-.02.03-.03.05c.01-.01.02-.03.03-.04 0-.01 0-.03.01-.04Zm-.13-.1s.02.04.02.06v.06-.06c0-.02-.01-.04-.02-.05Zm-.18.23s-.04-.03-.05-.05-.02-.04-.01-.05c0 .02 0 .03.01.05 0 .02.03.03.05.04Zm.2.31v.03zm-.26-.22s.06.07.08.12c0 .03.01.06.01.09.02 0 .03-.02.04-.05s.02-.06.02-.11c.01-.02.02-.05.03-.07s0-.05.01-.07h.01l.06.09c-.01-.03-.03-.05-.05-.08v.05c0 .02-.01.05-.03.07 0 .05 0 .09-.02.11-.01.03-.03.05-.05.06v.05-.15a.2.2 0 0 0-.07-.12Zm.15.6v.1zm-.28.14v.04zm.24-.34s-.01.05-.02.08-.03.05-.05.08-.04.06-.04.09v.09c0-.03-.01-.06 0-.09 0-.03.02-.06.04-.09.02-.02.03-.05.04-.07s.02-.05.02-.07Zm-.06-.09s0 .05-.01.08-.03.05-.05.08-.04.04-.05.07c-.01.02-.02.05-.03.07 0-.02.02-.05.03-.07s.03-.05.05-.07c.02-.03.04-.05.05-.07 0-.02.01-.05 0-.07Zm-.32.18s0 .09-.02.13-.05.08-.09.11c.04-.03.07-.07.08-.1s.03-.08.02-.13Zm-.4.26s0 .01.01.02c0 0 0 .02.01.02 0 0 0-.02-.01-.02 0 0 0-.01-.01-.02m-.16.02v.09c0 .03.02.05.04.08s.02.04.02.06v.04c.02-.02.03-.04.05-.07.01-.03.02-.05.02-.08 0 .03 0 .06-.02.08-.01.03-.03.06-.06.08h-.01v-.06c0-.02 0-.04-.02-.05-.02-.03-.03-.05-.04-.08s-.01-.06-.01-.09Zm.03.53v-.05c0-.02 0-.03.02-.05 0 .02-.01.03-.02.05s0 .03 0 .05m-.02.15v-.06h.02c.02 0 0 0 0 0v.06zc-.02 0 0 0 0 0m-.11.25s.02-.02.03-.04c0-.01.02-.03.03-.04 0 .02-.02.03-.03.05 0 .01-.02.03-.03.04Zm-.15-.81v.02zm-.25.6v-.04zm.64-1.08s-.02.09-.02.13.01.07.04.08c.03.02.05.05.06.07v-.1.06c0 .02 0 .05-.01.07h-.01s0-.01-.01-.02a.13.13 0 0 0-.06-.07c-.03-.02-.04-.05-.05-.09 0-.04 0-.09.02-.13Z"/><path d="M59.26 54.68v.1c0 .03-.02.06-.03.1-.02.04-.02.09-.02.13q0 .06.03.12a.5.5 0 0 1-.04-.13c0-.04 0-.09.02-.13l.03-.1v-.09Zm-.29.44s-.01.04 0 .06q0 .03.03.06l-.03-.06v-.07Zm-.13-.03v.11c0 .01 0 .02.02.03 0-.01-.02-.03-.02-.04v-.11Zm.75-1.17v.1c0 .03.02.06.04.08-.02-.03-.03-.06-.04-.09s0-.07 0-.1Zm-.09.09s.03.06.04.09.02.07.02.12c0-.04-.01-.08-.02-.11s-.03-.06-.04-.09Zm-.47.07c-.05.07-.07.12-.07.17 0 .04 0 .08.03.11s.02.07.02.1 0 .07-.02.11c.01-.03.02-.07.02-.1s0-.07-.02-.1q-.03-.045-.03-.12c0-.075.02-.1.07-.17m.44-.23v.06c0 .02-.02.04-.04.06s-.03.04-.04.07v.09-.09c0-.03.02-.05.04-.07s.03-.03.04-.05v-.05Zm-.47.09v.08c0 .03-.02.06-.05.09s-.04.05-.05.08c0 .03-.01.06-.01.1 0-.03 0-.07.02-.1s.03-.06.05-.08c.02-.03.04-.05.05-.08v-.08Zm.27-.02v.03s0 .02.01.03c0 0-.01-.02-.01-.03zm-.02-.06s-.04.03-.06.06c-.01.03-.02.06-.02.09l.03.06v.08-.08c0-.02-.01-.04-.02-.05-.05.05-.08.1-.08.16s.02.12.07.18a.3.3 0 0 1-.07-.19c0-.06.03-.12.08-.17s.01-.08.03-.1c.01-.03.04-.05.06-.06Zm-.07-.09v.01c0 .03 0 .07-.03.09-.01.01-.02.03-.03.04 0 .02 0 .03-.01.05 0-.02 0-.04.01-.05 0-.02.02-.03.03-.05.02-.02.02-.05.03-.08zm.74.69s.01.03.02.05 0 .03 0 .05v-.05c0-.02-.01-.03-.02-.05m0 .24v.08c0 .03-.02.06-.03.09-.01.02-.02.05-.03.07.01-.02.02-.05.03-.07s.03-.06.03-.08v-.08Zm-.15-.21s.07.09.09.14c.01.05.01.11 0 .17.02-.06.02-.11 0-.16s-.04-.1-.08-.14Zm-.02.27s-.03.06-.05.09-.04.06-.07.09c-.01.02-.03.04-.04.06s-.02.04-.03.07h-.01v-.06q0-.03-.03-.06s-.04-.07-.03-.1c0-.04.02-.07.04-.11.01-.03.03-.05.03-.08s.01-.05.01-.08c0 .03 0 .05-.01.08s-.02.05-.03.08-.04.07-.04.1 0 .06.03.1.02.04.03.06v.03c0-.01.01-.03.02-.04.01-.02.03-.04.04-.06q.045-.045.06-.09c.02-.03.03-.06.05-.09Zm-.4-.09v.09c0 .03.02.05.03.08a.1.1 0 0 1-.03-.08c0-.03-.01-.06 0-.09m-.23.15v.04zm.08-.21v.07c0 .02-.02.04-.04.06q.03-.03.03-.06v-.06Zm-.21.41a.4.4 0 0 1-.04-.22c0-.06.04-.11.07-.15.02-.03.05-.05.06-.08s.02-.07.02-.12c0 .05 0 .09-.02.12-.01.03-.04.06-.06.09-.03.04-.06.08-.07.14 0 .06 0 .13.04.21Zm-.12-.13v.04c0 .01 0 .03.02.04-.01-.02-.02-.03-.02-.05v-.05Zm.59-.47s.04.06.04.1 0 .07-.03.11c.02-.04.03-.07.03-.11 0-.03-.02-.06-.04-.09Zm.18-.16s.02.07.02.1c0 .04 0 .07-.01.11h-.01c0-.03 0-.06-.02-.09s-.03-.05-.06-.06c.03.02.05.04.06.07 0 .02.01.03.02.05v-.07c0-.03 0-.07-.02-.1Zm.11-.15s.04.05.05.09.01.08.01.13v.06c0 .02 0 .04.02.05-.01-.02-.02-.04-.02-.06v-.06s0-.09-.01-.13c0-.03-.03-.06-.05-.08m-.29 0s-.03.04-.03.07v.08-.09c0-.03.02-.05.03-.07Zm-.57.43c0 .05-.02.1-.05.14s-.06.07-.1.1c.04-.03.08-.06.1-.1.03-.04.04-.08.04-.13Zm-.01-.19v.06c0 .02-.01.04-.02.06 0-.02.02-.04.02-.06zm.38-.07v.14-.13Zm.09-.17s-.04.07-.04.1 0 .06.02.09c.03.05.04.1.04.15s-.02.1-.04.15c.02-.05.04-.1.04-.15s0-.09-.04-.14-.03-.06-.02-.1c0-.03.01-.07.04-.11Zm-.59-.97s.09-.06.13-.07c.05 0 .09 0 .14.01h.1-.1c-.05.05-.1.08-.14.1-.04.01-.08 0-.11-.01v-.01c0-.01 0 0 .01 0 .03.02.06.02.1.01a.4.4 0 0 0 .13-.08c-.04-.01-.09-.02-.12 0-.04 0-.08.03-.13.07h-.01v-.01Z"/><path d="M58.89 53.1s.03.01.03.03-.02.03-.03.04-.03-.01-.03-.03.02-.03.03-.04m.24.17s.04-.03.06-.05.03-.03.04-.05c-.01.02-.02.03-.04.05s-.04.03-.06.05m.48-.24h.04c.01 0 .02 0 .04.02-.01 0-.02-.01-.03-.01h-.03Zm-.28.04s.03-.05.05-.06.05-.02.08-.02c-.03 0-.06 0-.08.02-.02.01-.03.03-.04.05Zm.04.04s0-.02.02-.03c0 0 .02-.02.03-.02-.01 0-.02.01-.03.02 0 0 0 .02-.01.02Zm-.46.2-.02.04v.04-.05c0-.01.01-.03.02-.04Zm.13.04v.02zm-.09-.13h.08-.09Zm.09-.25s-.02 0-.03.01c0 0-.01.02-.02.03 0-.01.01-.02.02-.03 0 0 .02-.01.04-.01Zm-.14.03s-.02.01-.02.02c0 0 0 .01-.01.02 0 0 0-.01.02-.02 0 0 .02-.01.03-.02Zm-.08.01s-.02.01-.02.02-.01.02-.01.02c0-.01 0-.02.02-.03s.01-.02.02-.02Zm-.11.09s-.02.02-.03.02-.02.02-.02.03c0-.01.02-.02.02-.03s.02-.02.03-.03Zm.01.12s-.01.02-.02.02l-.02.02.02-.02zm-.11.04v.04zm.14.17v.07zm-.08-.06v.04zm-.08-.56s.03 0 .04.02c.01 0 .02.02.02.03 0-.01-.01-.02-.02-.03 0 0-.02-.01-.03-.02Zm.67.79s.02.06.02.08c0 .03 0 .06-.02.09a.3.3 0 0 0 .02-.08c0-.03 0-.05-.02-.08Zm-.22.27s.02-.06.04-.09.03-.05.05-.08.03-.06.04-.09v-.1.1c0 .03-.02.06-.04.09-.02.02-.04.05-.05.08-.02.03-.03.05-.04.09m-.28-.05s.01-.02.02-.03l.03-.03c-.01 0-.02.02-.03.02 0 0-.01.02-.02.03Zm-.05-.01s.02-.03.03-.04.03-.02.04-.03c-.01 0-.03.02-.04.03s-.02.02-.03.04m.29-.31h.06-.08Zm-.15-.01.01-.01zm3.15.56.02.02s0 .02.01.02c0 0 0-.01-.01-.02 0 0 0-.01-.02-.02m-3.49 1.96s.03.02.05.03h.06-.06c-.02 0-.03-.02-.05-.03"/><path d="M61.14 52.69c.08 0 .15-.02.22-.03-.07.05-.15.1-.25.12.02-.02.03-.03.04-.05v-.04Zm-.18 0h.15c0 .01.01.02 0 .03 0 .01-.02.03-.04.04 0 0-.01 0 0 .02-.03 0-.07.01-.1.02h-.05q.03-.03.03-.06v-.05Zm-1.37-.24c.09-.02.18-.03.27-.04.03 0 .05.02.07.04.01.02.02.06.01.1 0 0 0 .01.01.01s.01 0 .01-.01c0-.05 0-.09-.02-.11 0-.01-.02-.02-.03-.03h.02c.1 0 .18.01.27.05.02.02.03.04.02.06 0 .02-.02.05-.04.07v.02h.02c.02-.03.04-.06.04-.09v-.04c.08.03.15.06.23.09v.05c-.01.02-.03.03-.06.05 0 0-.01 0 0 .02 0 .01.01 0 .02 0 .04-.02.06-.04.07-.06s.02-.04.01-.06l.15.06s.01.03 0 .05c0 .02-.02.03-.05.05 0 0-.01 0 0 .02s.01 0 .02 0a.2.2 0 0 0 .06-.06v-.04c.02 0 .04.01.05.02.05.01.11.02.17.03.01.01.02.03.01.04 0 .02-.01.03-.03.05v.02c-.19 0-.36-.07-.54-.12-.02 0-.04-.01-.06-.02l-.2-.06h-.01c-.06-.01-.12-.02-.18-.02-.07 0-.14 0-.21.02h-.01c0-.04 0-.07-.02-.1-.01-.02-.03-.03-.06-.05Z" class="cls-9"/><path d="M59.27 52.56c.09-.05.18-.08.27-.1.04.01.07.03.09.05s.02.05.01.08c-.04 0-.08 0-.12.01-.04 0-.08.02-.12.04a.13.13 0 0 0-.08-.07h-.05Zm.98.38s-.05-.02-.07-.03a.9.9 0 0 0-.4-.07c.05-.05.06-.1.04-.14-.01-.03-.04-.06-.08-.08h.14c.07 0 .16.02.24.04.02.04.03.08.02.11 0 .03-.03.06-.08.09 0 0-.01 0 0 .02s.01 0 .02 0c.05-.03.08-.07.09-.11v-.1c.05.02.1.04.14.07s.09.05.13.08c0 .05-.02.09-.04.1-.03.02-.07.03-.11.03 0 0-.01 0-.01.01Z" class="cls-9"/><path d="M60.51 53.11c-.08-.05-.16-.11-.24-.15.05 0 .09 0 .12-.03.03-.02.05-.06.05-.11.05.03.1.07.14.11.02.02.05.04.07.06v.05c0 .01 0 .03-.01.03 0 0-.02.02-.04.02s-.05.01-.09.01c0 0-.01 0-.01.01Z" class="cls-9"/><path d="M60.79 53.26s-.05-.02-.08-.03c-.06-.03-.12-.06-.18-.1.03 0 .06 0 .09-.01.02 0 .04-.02.05-.03s.02-.03.02-.05v-.03c.06.04.11.08.18.11.03.02.07.03.1.04 0 .02-.01.04-.04.05s-.08.02-.13.03c0 0-.01 0-.01.01Z" class="cls-9"/><path d="M61.08 53.34a3 3 0 0 1-.27-.07c.05 0 .09-.02.12-.03.03-.02.05-.04.05-.07.05.02.11.04.17.05 0 .02.01.04 0 .05-.01.02-.04.04-.07.05 0 0-.01 0 0 .02" class="cls-9"/><path d="M61.7 53.21s.06-.02.03 0c-.18.13-.41.16-.63.13.03-.02.06-.04.08-.06q.015-.03 0-.06c.07.01.14.02.21.02 0 .01 0 .02-.01.03-.01.02-.03.03-.06.05 0 0-.01 0 0 .02 0 .01.01 0 .02 0 .04-.02.06-.04.07-.06s.02-.03.02-.05c.09 0 .18-.01.28-.03Zm-1.26 3.18s-.03.03-.04.05c-.05.02-.1.05-.16.06 0 .04.01.05.05.05l.09-.05s0 .06-.07.1v.02c.05.07.18.03.25 0 .05-.02.14-.08.16-.14 0-.02-.01-.05-.03-.07q-.075.015-.06-.03a.6.6 0 0 0-.19 0Zm-1.97-.4s-.08.07-.14.09c-.02 0-.07.02-.07.05 0 0 .03.02.05.01.06-.06.09-.03.02.03 0 .01 0 .02.01.03.06.05.21.05.28 0 .05-.04.08-.07.03-.11v-.03h-.08l-.05-.02-.05-.04Zm1.3.3h-.02c-.03.03.05.01.09.03.02 0 .03.03.02.06-.04.09-.24.08-.3.05-.03-.01-.03-.03-.03-.06h.04c.02 0 .05-.02.07-.03 0 0 .01 0 0-.02 0-.01-.01 0-.02 0l-.06.03h-.06s-.02-.01-.02-.02h.03c.03-.02.06-.03.09-.04 0 0 0-.01.01-.02.06 0 .12 0 .16.01Zm-.93.05s-.02.02-.03.04c-.04.04-.07.06-.11.09-.04.02 0 .03.03.05.02.01.05-.03.07-.06s.04-.03.03 0a.2.2 0 0 0-.03.09c0 .02.08.03.09.03.05 0 .12-.06.16-.09.03-.04.03-.07.01-.1s-.04 0-.06 0-.05 0-.07-.02h-.09v-.01Zm.36-3.38h.12c.09-.04.16-.07.22-.07.07-.03.15-.05.23-.05v-.02c.04-.04.05-.08.04-.12-.01-.03-.05-.06-.1-.09-.05.01-.11 0-.17.02-.04 0-.07.02-.11.03.03 0 .05.02.08.04.03.03.04.07.05.12 0 0 0 .01-.01.02s-.01 0-.01 0c0-.05-.03-.08-.05-.1-.02-.03-.08-.04-.1-.04-.06.01-.12.02-.17.04-.04.01-.07.03-.1.05.04-.01.08-.01.11 0s.06.04.08.08v.02c0 .01-.01 0-.02 0a.1.1 0 0 0-.06-.07c-.05-.02-.16.01-.21.05-.03.02-.05.05-.08.08.1 0 .2 0 .28.01Zm-.3-.03v-.01l.09-.09c.03-.02.06-.04.09-.05.03-.04.08-.06.13-.08s.11-.03.17-.04a.13.13 0 0 0-.07-.06h-.09c-.07.03-.14.08-.2.12h.07s.01 0 0 .02c0 .01-.05.01-.06.01-.02 0-.03 0-.05.01l-.17.14c.04 0 .07.02.09.04Z" class="cls-9"/><path d="m66.37 59.36 2.7-6.25-1.99-2.93-3.56 1.66-1.65 6.48c1.55.22 3.05.57 4.49 1.04Z" class="cls-2"/><path d="M62.93 54.2c1.78.26 3.51.66 5.16 1.2l-1.04 2.41c-1.52-.5-3.11-.87-4.76-1.1z" class="cls-6"/><path d="m67.21 57.42.7-1.61c-1.63-.53-3.33-.93-5.09-1.18l-.41 1.62c1.67.24 3.28.62 4.83 1.12l-.02.06Z" class="cls-9"/><path d="M63.32 55.78s.1-.03.15-.03a.3.3 0 0 1 .14-.03c.02-.01.05-.02.08-.03.02-.01.02-.03 0-.04a.1.1 0 0 1-.02-.04c-.08-.04-.11-.1-.14-.17-.05 0-.07-.02-.07-.04h-.07c-.1.02-.13 0-.17-.03-.03 0-.06-.02-.08-.05-.01-.01-.02-.03-.03-.04-.03-.03-.02-.08.02-.08.03 0 .06 0 .09-.02s.08-.02.12-.02.07-.04.11-.08v-.05c0-.02 0-.03.03-.03.06 0 .09.02.11.05.07 0 .12.03.15.08.09 0 .15.02.15.05 0 .02-.02.05-.06.08v.02l.05.05c.05.01.1.03.14.06.13-.03.34.04.62.19.19.01.36.04.54.1h.11c.31-.08.61-.07.89.1.11 0 .2.02.29.05.07.02.14.02.21.02.11 0 .23.01.34.05.13.01.25.04.32.12.05.06.04.11-.03.14-.04.09-.12.1-.24.07-.08.02-.17-.03-.26-.08-.11-.02-.22-.08-.32-.13a.5.5 0 0 0-.16-.06c-.04 0-.08 0-.1.01-.01 0-.01.01 0 .02.03.02.05.05.06.1v.13c0 .05.03.08.08.11.03.02.08.03.13.04.03 0 .04.02.04.04.02.07.03.14.06.21 0 .02.02.03.04.04.08.05.04.11-.03.13-.06.06-.11.1-.18.12-.05.02-.07 0-.09-.02-.03 0-.05 0-.06-.03-.06-.04 0-.12.14-.1 0-.02.02-.02.03-.02 0-.04-.01-.08 0-.12-.01 0-.02-.02-.04-.02a.35.35 0 0 1-.14-.06c-.07-.06-.19-.11-.3-.15-.09 0-.16-.03-.23-.06h-.1c-.03 0-.05 0-.07.03-.03.04-.06.04-.1.03-.05 0-.09 0-.14.01-.02 0-.04.02-.07.02-.05 0-.1 0-.14.04-.03.03-.06.03-.09.03-.02 0-.04-.02-.05-.03-.04 0-.06 0-.07-.02-.06-.01-.08-.02-.07-.04-.08-.01-.04-.08 0-.08h.18c.05 0 .11 0 .15-.05.03-.03.04-.05.07-.07-.1 0-.18 0-.24-.03-.15-.08-.27-.09-.37 0-.03.02-.05.02-.07.02h-.08a.22.22 0 0 1-.16 0q-.12.045-.24.03-.105.06-.15.03c-.03-.01-.06-.03-.08-.04-.04 0-.06-.01-.06-.02-.05 0-.06-.02-.06-.04-.02-.02-.01-.04 0-.06.04-.02.08-.03.13-.01.03 0 .05.02.07.03h.08c.02-.03.07-.03.12-.04.03-.02.06-.04.1-.04v-.02c-.05 0-.08-.04-.11-.08-.08 0-.14-.02-.2-.05-.05 0-.09 0-.13-.02-.03 0-.07.01-.1 0-.06.02-.13.03-.18.02h-.11c-.04.05-.08.06-.13.04a.14.14 0 0 0-.11-.05c-.03 0-.05-.02-.05-.04-.04-.02-.03-.05 0-.07s.07-.02.13 0h.06Z"/><path d="M65.36 56.17s-.01-.02-.04 0c-.1 0-.2.02-.29-.02a.5.5 0 0 0-.27-.07c.03-.03.06-.05.1-.06.05-.02.12-.03.19-.02.1 0 .19.01.25.03s.11.04.13.08c.03.01.05.03.07.04.01.01.03.02.04.04h-.09c-.03 0-.07-.01-.1-.02Z" class="cls-6"/><path d="M65.58 51.6v.03l.13.6-.48.46-.02.02h.03l.61.15.12.6v.03l.03-.02.49-.46.61.14h.03v-.02l-.12-.6.48-.46.02-.02h-.03l-.61-.15-.12-.6v-.03l-.03.02-.49.46-.61-.14h-.03Z"/><path d="m65.28 52.68.45-.43.57.13zm1.1-.33.45-.43.57.13zm1.02-.28-.45.43-.57-.13zm-1.09.33-.45.43-.57-.13zm-.67-.75.57.13.11.56zm.74.74.57.13.11.56zm.66.71-.57-.13-.11-.56zm-.73-.74-.57-.13-.11-.56zm.39-1.01.12.56-.45.43.34-.99Zm-.36 1.06.11.56-.45.43zm-.36.99-.12-.56.45-.43-.34.99Zm.37-1.06-.11-.56.45-.43z" class="cls-3"/></g><g id="White_Logo_RGB" data-name="White Logo RGB"><path id="WHITE_ESC_HEART" d="M56.13 129.5c1.03 1.13 2.54.85 3.24-.61C75.9 94 126.12 78.23 126.12 33.78c0-16.16-10.88-32.38-31.78-32.75-19.9-.36-37.77 12.46-39.63 33.22-.56-13.14-9.18-19.2-19.12-19.2C16.03 15.03.01 32.69.82 59.25c1.34 41.78 41.51 54.94 55.31 70.25m-3.56-85.25c.53 2.09 3.07 2.01 3.65-.05 8.61-31.2 48.19-34.61 48.19-3.02 0 24.94-44.21 51.56-47.58 75.24-8-15.53-37.39-24.07-37.39-57.83 0-28.74 27.94-34.77 33.12-14.34Z" class="cls-6"/></g></svg>