<svg xmlns="http://www.w3.org/2000/svg" viewBox="0 0 127.18 131.2"><defs><clipPath id="a"><path d="m59.14 124.92 1.01-7.29c1.42-10.24 11.94-21.98 22.11-33.33 12.22-13.63 24.86-27.73 24.81-41.88-.05-12.31-6.85-24.7-21.95-24.64-9.27.04-20.57 5.5-27.3 17.2l-.55.99a41 41 0 0 0-2.65 6.09c-2.78-6.95-8.51-11.13-15.49-11.1-10.67.04-21.96 10.25-21.89 29.08.09 23.55 13.9 35.46 25 45.03 5.47 4.72 10.2 8.8 12.63 13.47l3.79 7.28z" style="fill:none"/></clipPath></defs><g style="clip-path:url(#a)"><path d="M118.31 49.82 14.55 55.9 12.6 19.78l102.65-11.2z" style="fill:#e10000"/><path d="m115.67 116.94-102.64 11.2-.16-39.8 102.64-11.2z" style="fill:#1d982c"/><path d="M118 78.06 14.55 89.18V55.9L118 44.96z" style="fill:#f9f9f9"/></g><path d="M56.13 129.5c1.03 1.13 2.54.85 3.24-.61C75.9 94 126.12 78.23 126.12 33.78c0-16.16-10.88-32.38-31.78-32.75-19.9-.36-37.77 12.46-39.63 33.22-.56-13.14-9.18-19.2-19.12-19.2C16.03 15.03.01 32.69.82 59.25c1.34 41.78 41.51 54.94 55.31 70.25m-3.56-85.25c.53 2.09 3.07 2.01 3.65-.05 8.61-31.2 48.19-34.61 48.19-3.02 0 24.94-44.21 51.56-47.58 75.24-8-15.53-37.39-24.07-37.39-57.83 0-28.74 27.94-34.77 33.12-14.34Z" data-name="White Logo RGB" style="fill:#fff"/></svg>