<svg xmlns="http://www.w3.org/2000/svg" viewBox="0 0 127.18 131.2"><defs><clipPath id="a"><path d="m59.58 127.33 1.19-7.98c1.67-11.21 13.83-24.01 25.59-36.39 14.12-14.87 28.73-30.25 28.73-45.73 0-13.47-7.77-27.07-25.14-27.07-10.66 0-23.69 5.93-31.48 18.71l-.64 1.08c-1.17 2.05-2.2 4.27-3.07 6.66-3.17-7.62-9.74-12.22-17.77-12.22-12.27 0-25.31 11.12-25.31 31.73 0 25.78 15.83 38.87 28.55 49.4 6.27 5.19 11.69 9.67 14.46 14.8l4.32 7.99.56-.98Z" style="fill:none"/></clipPath></defs><g style="clip-path:url(#a)"><path d="M66.27 8.82h55.29v117.51H66.27z" style="fill:#ce2b37"/><path d="M6.1 9.15h36.06l-.53 115.63-35.53 1.88z" style="fill:#019245"/><path d="M39.84-1.8h29.93v123.58H39.84z" style="fill:#f9f9f9"/></g><path d="M56.13 129.5c1.03 1.13 2.54.85 3.24-.61C75.9 94 126.12 78.23 126.12 33.78c0-16.16-10.88-32.38-31.78-32.75-19.9-.36-37.77 12.46-39.63 33.22-.56-13.14-9.18-19.2-19.12-19.2C16.03 15.03.01 32.69.82 59.25c1.34 41.78 41.51 54.94 55.31 70.25m-3.56-85.25c.53 2.09 3.07 2.01 3.65-.05 8.61-31.2 48.19-34.61 48.19-3.02 0 24.94-44.21 51.56-47.58 75.24-8-15.53-37.39-24.07-37.39-57.83 0-28.74 27.94-34.77 33.12-14.34Z" data-name="White Logo RGB" style="fill:#fff"/></svg>