<svg xmlns="http://www.w3.org/2000/svg" viewBox="0 0 127.18 131.2"><defs><clipPath id="clippath"><path d="m58.82 124.17 1.04-7.35c1.47-10.32 12.12-22.11 22.43-33.52 12.38-13.7 25.18-27.86 25.18-42.12 0-12.41-6.81-24.94-22.03-24.94-9.34 0-20.76 5.46-27.59 17.23l-.56 1a41 41 0 0 0-2.69 6.13c-2.78-7.01-8.54-11.25-15.57-11.25-10.76 0-22.19 10.25-22.19 29.23 0 23.74 13.88 35.81 25.02 45.5 5.5 4.78 10.25 8.91 12.68 13.63l3.79 7.36.49-.91Z" style="fill:none"/></clipPath><style>.cls-4{fill:#ffe600}</style></defs><g id="KAZAKHSTAN" style="clip-path:url(#clippath)"><path d="m-1.55 4.04 115.83-17.97v145.28L-1.55 149.32z" style="fill:#00a5c8"/><path d="M58.55 55.57c4.63-.49 8.38 2.87 8.38 7.5s-3.75 8.77-8.38 9.26-8.38-2.87-8.38-7.5 3.75-8.77 8.38-9.26" class="cls-4"/><g id="A"><g id="B"><path id="C" d="M58.55 54.43c.5-.06.68-.39.68-.76 0-.5-.68-2.8-.68-2.8s-.68 2.44-.68 2.94c0 .37.19.67.68.62" class="cls-4"/><path id="C-2" d="M68.08 62.95c0 .5.32.65.69.61.5-.05 2.87-.99 2.87-.99s-2.37-.44-2.87-.38c-.37.04-.69.26-.69.76" class="cls-4" data-name="C"/><path id="C-3" d="M58.55 73.47c-.5.06-.68.39-.68.76 0 .5.68 2.8.68 2.8s.68-2.44.68-2.94c0-.37-.19-.67-.68-.62" class="cls-4" data-name="C"/><path id="C-4" d="M49.03 64.95c0-.5-.32-.65-.69-.61-.5.05-2.87.99-2.87.99s2.37.44 2.87.38c.37-.04.69-.26.69-.76" class="cls-4" data-name="C"/></g><g id="B-2" data-name="B"><path id="C-5" d="M62.2 54.77c.46.14.75-.11.9-.47.19-.48.47-2.96.47-2.96s-1.54 2.09-1.73 2.57c-.14.36-.09.72.37.86Z" class="cls-4" data-name="C"/><path id="C-6" d="M67.35 66.67c-.18.48.03.75.38.86.46.14 2.91.16 2.91.16s-1.93-1.34-2.39-1.48c-.35-.11-.71-.02-.9.46" class="cls-4" data-name="C"/><path id="C-7" d="M54.91 73.13c-.46-.14-.75.11-.9.47-.19.48-.47 2.96-.47 2.96s1.54-2.09 1.73-2.57c.14-.36.09-.72-.37-.86Z" class="cls-4" data-name="C"/><path id="C-8" d="M49.76 61.23c.18-.48-.03-.75-.38-.86-.46-.14-2.91-.16-2.91-.16s1.93 1.34 2.39 1.48c.35.11.71.02.9-.46" class="cls-4" data-name="C"/></g><g id="B-3" data-name="B"><path id="C-9" d="M65.29 56.51c.36.31.71.19.97-.11.35-.39 1.55-2.68 1.55-2.68s-2.16 1.42-2.51 1.81c-.26.29-.36.66 0 .97Z" class="cls-4" data-name="C"/><path id="C-10" d="M65.29 69.98c-.35.39-.26.74 0 .97.35.32 2.51 1.28 2.51 1.28s-1.19-2.04-1.55-2.35c-.26-.24-.62-.29-.97.1Z" class="cls-4" data-name="C"/><path id="C-11" d="M51.82 71.39c-.36-.31-.71-.19-.97.11-.35.39-1.55 2.68-1.55 2.68s2.16-1.42 2.51-1.81c.26-.29.36-.66 0-.97Z" class="cls-4" data-name="C"/><path id="C-12" d="M51.82 57.93c.35-.39.26-.74 0-.97-.35-.32-2.51-1.28-2.51-1.28s1.19 2.04 1.55 2.35c.26.24.62.29.97-.1Z" class="cls-4" data-name="C"/></g><g id="B-4" data-name="B"><path id="C-13" d="M67.35 59.38c.2.44.56.45.9.27.46-.24 2.39-1.98 2.39-1.98s-2.45.53-2.91.77c-.35.18-.57.5-.38.94" class="cls-4" data-name="C"/><path id="C-14" d="M62.2 72.37c-.46.24-.51.61-.37.94.19.44 1.73 2.21 1.73 2.21s-.28-2.43-.47-2.87c-.14-.33-.44-.52-.9-.28Z" class="cls-4" data-name="C"/><path id="C-15" d="M49.76 68.52c-.2-.44-.56-.45-.9-.27-.46.24-2.39 1.98-2.39 1.98s2.45-.53 2.91-.77c.35-.18.57-.5.38-.94" class="cls-4" data-name="C"/><path id="C-16" d="M54.91 55.54c.46-.24.51-.61.37-.94-.19-.44-1.73-2.21-1.73-2.21s.28 2.43.47 2.87c.14.33.44.52.9.28Z" class="cls-4" data-name="C"/></g></g><g id="A-2" data-name="A"><g id="B-5" data-name="B"><path id="C-17" d="M60.41 54.42c.49.04.73-.25.81-.63.1-.5-.11-2.94-.11-2.94s-1.13 2.31-1.23 2.81c-.07.37.05.71.54.76Z" class="cls-4" data-name="C"/><path id="C-18" d="M67.89 64.83c-.09.5.18.72.54.75.49.05 2.95-.42 2.95-.42s-2.19-.9-2.68-.95c-.37-.03-.71.12-.81.62" class="cls-4" data-name="C"/><path id="C-19" d="M56.7 73.49c-.49-.04-.73.25-.81.63-.1.5.11 2.94.11 2.94s1.13-2.31 1.23-2.81c.07-.37-.05-.71-.54-.76Z" class="cls-4" data-name="C"/><path id="C-20" d="M49.22 63.08c.09-.5-.18-.72-.54-.75-.49-.05-2.95.42-2.95.42s2.19.9 2.68.95c.37.03.71-.12.81-.62" class="cls-4" data-name="C"/></g><g id="B-6" data-name="B"><path id="C-21" d="M63.84 55.48c.42.23.75.04.95-.29.28-.44 1.03-2.88 1.03-2.88s-1.89 1.79-2.16 2.23c-.21.33-.23.7.19.94Z" class="cls-4" data-name="C"/><path id="C-22" d="M66.47 68.41c-.27.45-.12.76.19.93.41.23 2.77.73 2.77.73s-1.59-1.72-2.01-1.95c-.31-.17-.68-.16-.96.29Z" class="cls-4" data-name="C"/><path id="C-23" d="M53.26 72.43c-.42-.23-.75-.04-.95.29-.28.44-1.03 2.88-1.03 2.88s1.89-1.79 2.16-2.23c.21-.33.23-.7-.19-.94Z" class="cls-4" data-name="C"/><path id="C-24" d="M50.64 59.5c.27-.45.12-.76-.19-.93-.41-.23-2.77-.73-2.77-.73s1.59 1.72 2.01 1.95c.31.17.68.16.96-.29Z" class="cls-4" data-name="C"/></g><g id="B-7" data-name="B"><path id="C-25" d="M66.47 57.83c.28.38.64.33.96.09.41-.32 2.01-2.38 2.01-2.38s-2.35 1-2.77 1.32c-.31.24-.47.59-.19.97Z" class="cls-4" data-name="C"/><path id="C-26" d="M63.84 71.31c-.41.33-.39.69-.19.97.28.39 2.16 1.78 2.16 1.78s-.75-2.27-1.03-2.66c-.21-.29-.54-.41-.95-.09Z" class="cls-4" data-name="C"/><path id="C-27" d="M50.64 70.07c-.28-.38-.64-.33-.96-.09-.41.32-2.01 2.38-2.01 2.38s2.35-1 2.77-1.32c.31-.24.47-.59.19-.97Z" class="cls-4" data-name="C"/><path id="C-28" d="M53.26 56.59c.41-.33.39-.69.19-.97-.28-.39-2.16-1.78-2.16-1.78s.75 2.27 1.03 2.66c.21.29.54.41.95.09Z" class="cls-4" data-name="C"/></g><g id="B-8" data-name="B"><path id="C-29" d="M67.89 61.11c.1.48.45.56.81.45.49-.15 2.68-1.51 2.68-1.51s-2.46.05-2.95.2c-.37.11-.64.39-.54.86" class="cls-4" data-name="C"/><path id="C-30" d="M60.41 73.1c-.49.15-.61.51-.54.87.1.48 1.23 2.55 1.23 2.55s.21-2.48.11-2.96c-.07-.36-.32-.61-.81-.46Z" class="cls-4" data-name="C"/><path id="C-31" d="M49.22 66.79c-.1-.48-.45-.56-.81-.45-.49.15-2.68 1.51-2.68 1.51s2.46-.05 2.95-.2c.37-.11.64-.39.54-.86" class="cls-4" data-name="C"/><path id="C-32" d="M56.7 54.81c.49-.15.61-.51.54-.87-.1-.48-1.23-2.55-1.23-2.55s-.21 2.48-.11 2.96c.07.36.32.61.81.46Z" class="cls-4" data-name="C"/></g></g><path d="M57.06 82.26c-.22.04-.44.09-.66.18-.29.07-.57.2-.86.28l-.12.03-.2.04c.01.05.02.11.02.16s0 .11-.02.16a.5.5 0 0 1-.38.32c-.06 0-.11.01-.17 0a.35.35 0 0 1-.16-.08c-.06.02-.12.04-.17.05-.06.01-.11.02-.16.02-.06-.01-.12-.02-.17-.04a1 1 0 0 1-.16-.07c-.21.15-.45.29-.58.52-.07.11-.09.22-.1.34-.01.15.03.3.09.42.02.04.04-.15.11-.18.12-.11.27-.2.42-.25.13-.08.11 0 .06.1-.01.05-.08.26.01.15.42-.23.89-.32 1.34-.4.66-.14 1.32-.22 1.98-.3l1.87-.16c.3-.02.6.01.89-.07.07-.03.18-.04.22-.09-.13-.06-.29-.05-.44-.05l-1.19.12c-.33 0-.67.03-.99-.06-.08-.02-.16-.1-.24 0-.12.05-.24.1-.37.12-.22.04-.44.02-.64-.04.15-.22.32-.41.48-.62-.13 0-.25-.02-.38-.04.23-.18.44-.38.66-.57Z" class="cls-4"/><path d="M66.76 83.39c-.45.32-.8-.13-1.17-.23-.27.17-.29.67-.55.92-.3.37-.67-.03-.64-.37-.36.34-.54 1.05-1.12 1.02-.28-.2-.48-.65-.69-.09-.17.28-.63.7-.87.33-.07-.34-.25-.74-.44-.16-.13.41-.55.74-.96.61-.22-.16.18-.87-.1-.8-.42.32-.67 1.05-1.26 1.05-.23-.23.14-.71-.11-.97-.3.41-.63 1.01-1.14 1.1-.25-.18 0-.78-.15-.85-.53.37-1.08.99-1.75.89.26-1.02 1.34-1.48 2.25-1.65 1.56-.36 3.21-.18 4.71-.9.24-.17.83-.44.62-.77-.19-.25.48-.22.55-.54-.04-.4.31-.38.65-.45 1.52-.23 3.02-.06 4.53-.17.11.73-.7 1.33-1.36 1.17-.31.08-.79-.64-.69-.09-.06.3-.02.69-.29.91m-12.94-.11c.35.28.6-.12.93-.3 1.1-.49 2.06-1.26 3.01-2.02.57-.54 1.07-1.2 1.84-1.44 1.5-.61 3.1-.73 4.61-1.3 1.15-1.7 3.1-2.46 4.74-3.54.37-.15.51-.47.63-.82a8.95 8.95 0 0 1 2.48-2.72c.48-.31 1.04-.52 1.58-.46-.04.65-.41 1.25-.85 1.74.36-.05.68-.31 1.04-.33.13.65-.59 1.06-.96 1.51.21.03 1.02 0 .58.26-.56.45-1.2.78-1.72 1.29.48.04.53.13.05.36-.26.21-.77.32-.82.67.36.18-.17.46-.37.55-.39.13-.8.34-.28.58-.2.32-.61.42-.96.43.1.32.25.68-.18.88-.97.84-2.11 1.49-3.34 1.74 1.53-.04 3.1-.49 4.41-1.46.17-.22 1.08-.54.57-.65-.24-.07-.75-.13-.78-.31.71-.51 1.6-.45 2.36-.79.02-.25-.58-.12-.8-.15-.53.01-.5-.13.01-.23.65-.24 1.38-.35 1.93-.83-.44-.16-1 .08-1.48-.04.8-.44 1.75-.57 2.47-1.18.33-.4-.42-.21-.64-.18-.45.12-.65-.07-.15-.31.86-.73 1.96-1.26 2.56-2.24.14-.22.34-.86-.12-.59-.6.26-1.13 1-1.82.86 1.35-1.19 2.64-2.52 3.57-4.07.05-.42-.61-.4-.78-.05-.87.93-1.66 2-2.77 2.64 1.07-1.14 1.95-2.45 2.72-3.8.16-.39.61-.89.37-1.28-.39-.28-.87.06-1.07.47-.68.95-1.19 2.04-2.06 2.85.76-1.53 1.55-3.16 1.57-4.84 0-.34-.07-.85-.54-.73-.37.11-.28.65-.44.95-.34 1.18-.5 2.44-1.19 3.51.16-.95.43-1.94.22-2.86-.1-.41-.78-.16-.69.25-.81 4.19-3.56 8.06-7.16 10.52-1.65 1.11-3.49 1.9-5.36 2.37-.5.16-1.05.16-1.53.38-1.17 1.02-1.87 2.59-3.35 3.21-.66.4-1.53.56-2 1.22-.04.08-.05.18-.05.26" class="cls-4"/><path d="M58.26 78.61c-.22.42-.35.89-.63 1.27-.84-.68-2.07-.52-3.14-.46-.88.05-1.84.07-2.53-.49-.72-.51-1.31-1.22-2.11-1.61-.73-.12-1.47-.29-2.06-.73-1.26-.89-1.98-2.34-3.21-3.27-.23-.21-.51-.36-.77-.52-.25.09-.14.61-.44.37-.17-.1-.58-.07-.62.1.38.46.75.98.8 1.61-.26.05-.71.02-.84.13.34.47.78.88 1.27 1.19-.24.06-.71.09-.8.2.49.35 1.02.7 1.67.74.13.16-.19.53.08.65.16.05.68.1.32.32-.25.19-.16.57.16.53.2.08.65.06.68.23-.18.2-.73.47-.26.59.44.2.94.3 1.44.27-.25.24-.56.39-.82.62 1.16.56 2.44.87 3.7 1.16.5.12 1.01.22 1.54.26-1.52.07-2.98-.22-4.37-.69-.72-.24-1.44-.47-2.17-.66.32-.2.69-.28 1.03-.46-.69-.07-1.45-.03-2.06-.35.09-.18.45-.22.64-.33.37-.13.6-.26.08-.24-.52-.09-1.12.04-1.58-.23.03-.19.51-.18.71-.28.25-.07.52-.13.72-.32-.81-.25-1.87.1-2.5-.55-.15-.26.45-.1.62-.16.43-.05.9.04 1.31-.18-1.18-.39-2.44-.75-3.34-1.61-.1-.14-.4-.53-.16-.61.7.02 1.21.73 1.96.53.1-.14-.43-.31-.57-.49-1.09-.82-2.15-1.73-2.92-2.87-.05-.4.59-.53.76-.23.83.72 1.59 1.58 2.63 2.01.37.14-.21-.19-.29-.32-.96-1.01-1.88-2.1-2.55-3.34-.12-.22-.32-.63.04-.8.36-.22.72-.01.9.28.71.82 1.23 1.82 2.11 2.47-.75-1.38-1.55-2.82-1.57-4.49.02-.33.04-.82.48-.85.37-.09.31.38.43.6.36 1.19.52 2.51 1.25 3.51-.16-.9-.4-1.81-.24-2.75.04-.31.38-.44.6-.28.18.42.22.97.38 1.42.94 3.11 3.04 5.71 5.79 7.32 2.26 1.31 4.94 1.96 7.68 1.83.25 0 .5-.02.74-.03" class="cls-4"/><ellipse cx="57.53" cy="85.02" class="cls-4" rx=".14" ry=".13" transform="rotate(-46.5 57.535 85.019)"/><ellipse cx="57.51" cy="85" class="cls-4" rx=".06" ry=".05" transform="rotate(-46.5 57.517 84.997)"/><path d="M57.51 85.06s-.07-.02-.07-.06.03-.07.07-.07.07.02.07.06-.03.07-.07.07m0-.11s-.04.02-.04.05.02.04.04.04.04-.02.04-.05-.02-.04-.04-.04" class="cls-4"/><g id="E"><path d="M25.95 34.5s-.67-.49-.89-.19c-.36.49 1.12 2.59 1.12 3.38 0 1.3-.87 1.75-1.94 2.05-.72.2-1.89.15-1.89.15.22-.32.36-.42.74-.48-.41-.17-.84-.59-.84-1.32 0-1.12.46-1.63.46-2.89 0-.7-.57-1.53-.57-1.53 1.02 0 1.52.88 1.23 1.66.16 0 .31-.05.43-.18.07.2-.04.45-.2.68.13.05.22 0 .42-.06-.02.22-.15.46-.46.71.91-.33 1.47.24 1.47.91 0 .5-.35.9-.7.94a.7.7 0 0 1-.37-.08c-.07.15-.03.33.04.46-.25-.04-.41-.17-.3-.5-.19 0-.35-.05-.45-.16.11-.15.27-.24.45-.26-.14-.28.02-.46.25-.61 0 0-.15.6.23.56.17-.02.32-.09.32-.34 0-.21-.19-.49-.62-.43s-.79.38-.79 1.08c0 .64.52.9 1.2.85.61-.05 1.08-.43 1.08-1.06 0-.84-1.22-2.63-1.22-3.38 0-.56.51-.93 1-.98.64-.07 1.18.51 1.18.51z" class="cls-4"/><path id="F" d="M26.09 49.7c0 1.41-1.26 2.26-2.26 2.37-1.34.14-2.05-.58-2.05-1.63 0-.59.11-.98.38-1.57l3.06-6.68c.11-.23.14-.49.14-.86 0-.57-.55-.98-1.13-.93-.53.04-1.1.61-1.1 1.19 0 .7.36.97.74.94.46-.05.64-.26.64-.58 0-.22-.11-.31-.26-.29-.39.04-.28.56-.28.56-.2-.02-.36-.21-.26-.46a.6.6 0 0 1-.38-.19c.11-.11.23-.21.38-.25-.09-.29.03-.46.3-.55a.56.56 0 0 0-.04.33c.42-.16 1.06-.04 1.06.68s-.5 1.38-1.44 1.32c.22.08.34.29.36.53-.17-.05-.36-.04-.36-.04.11.18.26.33.25.71-.17-.06-.33-.19-.56-.07.35.65-.08 1.64-1.17 1.98.4-.51.59-1.04.59-1.54 0-1.63-.45-1.86-.45-2.99 0-.47.24-1.01.73-1.41v.02c-.32-.05-.52-.19-.64-.39.73-.28 1.79-.39 2.36-.23.65 0 1.11.46 1.25.7s.4 1.13 0 2.01l-3.12 6.93c-.14.3-.22.62-.22.95 0 .83.76 1.05 1.2 1 .52-.05 1.05-.51 1.05-1 0-.31-.17-.48-.42-.46-.59.06-.55.56-.43.86-.37-.13-.58-.4-.52-.71-.21 0-.4-.08-.59-.27.14-.2.32-.35.59-.38-.12-.47.2-.7.52-.85-.1.36-.17.77.43.71.44-.05.78 0 .98.26l.05-1.88c.03-.56-.75-.47-1.25-.25.19-.67.57-1.06 1.45-1.06a.62.62 0 0 1-.44-.63c0-.53.43-1.16.71-1.36l.14 5.47Z" class="cls-4"/><path id="F-2" d="M26.09 53.92c0-1.41-1.26-2-2.26-1.89-1.34.14-2.05 1.01-2.05 2.06 0 .59.11.95.38 1.49l3.06 6.04c.11.21.14.46.14.83 0 .57-.55 1.09-1.13 1.17-.53.07-1.1-.38-1.1-.95 0-.7.36-1.05.74-1.09.46-.05.64.12.64.44 0 .22-.11.33-.26.35-.39.04-.28-.5-.28-.5-.2.06-.36.28-.26.52-.15.05-.28.14-.38.27.11.09.23.16.38.17-.09.31.03.45.3.48a.52.52 0 0 1-.04-.32c.42.08 1.06-.18 1.06-.91s-.5-1.27-1.44-1.02a.76.76 0 0 0 .36-.61c-.17.08-.36.11-.36.11.11-.2.26-.39.25-.77-.17.1-.33.26-.56.19.35-.72-.08-1.62-1.17-1.73.4.43.59.91.59 1.41 0 1.63-.45 1.95-.45 3.09 0 .47.24.96.73 1.26v-.02c-.32.12-.52.3-.64.52.73.13 1.79.01 2.36-.27.65-.14 1.11-.69 1.25-.96s.4-1.22 0-2.01l-3.12-6.28c-.14-.27-.22-.57-.22-.9 0-.83.76-1.21 1.2-1.25.52-.05 1.05.29 1.05.78 0 .31-.17.52-.42.55-.59.06-.55-.44-.43-.77-.37.2-.58.52-.52.82-.21.05-.4.17-.59.39.14.17.32.28.59.26-.12.49.2.66.52.74-.1-.34-.17-.74.43-.8.44-.05.78-.16.98-.46l.05 1.87c.03.56-.75.63-1.25.51.19.63.57.94 1.45.76-.21.11-.44.34-.44.73 0 .53.43 1.07.71 1.21l.14-5.5Z" class="cls-4" data-name="F"/></g><g id="E-2" data-name="E"><path d="M25.95 34.5s.67-.63.89-.37c.36.41-1.12 2.82-1.12 3.62 0 1.3.87 1.56 1.94 1.64.72.05 1.89-.25 1.89-.25-.22-.27-.36-.35-.74-.33.41-.26.84-.77.84-1.5 0-1.12-.46-1.53-.46-2.8 0-.7.57-1.65.57-1.65-1.02.21-1.52 1.2-1.23 1.92-.16.04-.31.02-.43-.09-.07.22.04.45.2.64-.13.08-.22.05-.42.03.02.21.15.43.46.61-.91-.14-1.47.55-1.47 1.22 0 .5.35.83.7.79.11-.01.27-.07.37-.15.07.13.03.32-.04.47.25-.09.41-.26.3-.56.19-.04.35-.12.45-.26a.47.47 0 0 0-.45-.16c.14-.31-.02-.45-.25-.56 0 0 .15.57-.23.61-.17.02-.32-.02-.32-.27 0-.21.19-.53.62-.56s.79.22.79.91c0 .64-.52 1.01-1.2 1.1-.61.08-1.08-.2-1.08-.83 0-.84 1.22-2.89 1.22-3.64 0-.56-.51-.82-1-.77-.64.07-1.18.76-1.18.76z" class="cls-4"/><path id="F-3" d="M25.8 49.73c0 1.41 1.26 2 2.26 1.89 1.34-.14 2.05-1.01 2.05-2.06 0-.59-.11-.95-.38-1.49l-3.06-6.04c-.11-.21-.14-.46-.14-.83 0-.57.55-1.09 1.13-1.17.53-.07 1.1.38 1.1.95 0 .7-.36 1.05-.74 1.09-.46.05-.64-.12-.64-.44 0-.22.11-.33.26-.35.39-.04.28.5.28.5.2-.06.36-.28.26-.52.15-.05.28-.14.38-.27a.66.66 0 0 0-.38-.17c.09-.31-.03-.45-.3-.48.05.11.06.22.04.32-.42-.08-1.06.18-1.06.91s.5 1.27 1.44 1.02a.76.76 0 0 0-.36.61c.17-.08.36-.11.36-.11-.11.2-.26.39-.25.77.17-.1.33-.26.56-.19-.35.72.08 1.62 1.17 1.73-.4-.43-.59-.91-.59-1.41 0-1.63.45-1.95.45-3.09 0-.47-.24-.96-.73-1.26v.02c.32-.12.52-.3.64-.52-.73-.13-1.79-.01-2.36.27-.65.14-1.11.69-1.25.96s-.4 1.22 0 2.01l3.12 6.28c.14.27.22.57.22.9 0 .83-.76 1.21-1.2 1.25-.52.05-1.05-.29-1.05-.78 0-.31.17-.52.42-.55.59-.06.55.44.43.77.37-.2.58-.52.52-.82.21-.05.4-.17.59-.39a.65.65 0 0 0-.59-.26c.12-.49-.2-.66-.52-.74.1.34.17.74-.43.8-.44.05-.78.16-.98.46l-.05-1.87c-.03-.56.75-.63 1.25-.51-.19-.63-.57-.94-1.45-.76.21-.11.44-.34.44-.73 0-.53-.43-1.07-.71-1.21l-.14 5.5Z" class="cls-4" data-name="F"/><path id="F-4" d="M25.8 53.95c0-1.41 1.26-2.26 2.26-2.37 1.34-.14 2.05.58 2.05 1.63 0 .59-.11.98-.38 1.57l-3.06 6.68c-.11.23-.14.49-.14.86 0 .57.55.98 1.13.93.53-.04 1.1-.61 1.1-1.19 0-.7-.36-.97-.74-.94-.46.05-.64.26-.64.58 0 .22.11.31.26.29.39-.04.28-.56.28-.56.2.02.36.21.26.46.15.02.28.08.38.19-.11.11-.23.21-.38.25.09.29-.03.46-.3.55a.56.56 0 0 0 .04-.33c-.42.16-1.06.04-1.06-.68s.5-1.38 1.44-1.32c-.22-.08-.34-.29-.36-.53.17.05.36.04.36.04-.11-.18-.26-.33-.25-.71.17.06.33.19.56.07-.35-.65.08-1.64 1.17-1.98-.4.51-.59 1.04-.59 1.54 0 1.63.45 1.86.45 2.99 0 .47-.24 1.01-.73 1.41v-.02c.32.05.52.19.64.39-.73.28-1.79.39-2.36.23-.65 0-1.11-.46-1.25-.7s-.4-1.13 0-2.01l3.12-6.93c.14-.3.22-.62.22-.95 0-.83-.76-1.05-1.2-1-.52.05-1.05.51-1.05 1 0 .31.17.48.42.46.59-.06.55-.56.43-.86.37.13.58.4.52.71.21 0 .4.08.59.27-.14.2-.32.35-.59.38.12.47-.2.7-.52.85.1-.36.17-.77-.43-.71-.44.05-.78 0-.98-.26l-.05 1.88c-.03.56.75.47 1.25.25-.19.67-.57 1.06-1.45 1.06.21.07.44.25.44.63 0 .53-.43 1.16-.71 1.36l-.14-5.47Z" class="cls-4" data-name="F"/></g><g id="D"><g id="E-3" data-name="E"><path d="M25.95 93.78s-.67.63-.89.37c-.36-.41 1.12-2.82 1.12-3.62 0-1.3-.87-1.56-1.94-1.64-.72-.05-1.89.25-1.89.25.22.27.36.35.74.33-.41.26-.84.77-.84 1.5 0 1.12.46 1.53.46 2.8 0 .7-.57 1.65-.57 1.65 1.02-.21 1.52-1.2 1.23-1.92.16-.04.31-.02.43.09.07-.22-.04-.45-.2-.64.13-.08.22-.05.42-.03-.02-.21-.15-.43-.46-.61.91.14 1.47-.55 1.47-1.22 0-.5-.35-.83-.7-.79-.11.01-.27.07-.37.15-.07-.13-.03-.32.04-.47-.25.09-.41.26-.3.56-.19.04-.35.12-.45.26.11.13.27.19.45.16-.14.31.02.45.25.56 0 0-.15-.57.23-.61.17-.02.32.02.32.27 0 .21-.19.53-.62.56s-.79-.22-.79-.91c0-.64.52-1.01 1.2-1.1.61-.08 1.08.2 1.08.83 0 .84-1.22 2.89-1.22 3.64 0 .56.51.82 1 .77.64-.07 1.18-.76 1.18-.76z" class="cls-4"/><path id="F-5" d="M26.09 78.55c0-1.41-1.26-2-2.26-1.89-1.34.14-2.05 1.01-2.05 2.06 0 .59.11.95.38 1.49l3.06 6.04c.11.21.14.46.14.83 0 .57-.55 1.09-1.13 1.17-.53.07-1.1-.38-1.1-.95 0-.7.36-1.05.74-1.09.46-.05.64.12.64.44 0 .22-.11.33-.26.35-.39.04-.28-.5-.28-.5-.2.06-.36.28-.26.52-.15.05-.28.14-.38.27.11.09.23.16.38.17-.09.31.03.45.3.48a.52.52 0 0 1-.04-.32c.42.08 1.06-.18 1.06-.91s-.5-1.27-1.44-1.02a.76.76 0 0 0 .36-.61c-.17.08-.36.11-.36.11.11-.2.26-.39.25-.77-.17.1-.33.26-.56.19.35-.72-.08-1.62-1.17-1.73.4.43.59.91.59 1.41 0 1.63-.45 1.95-.45 3.09 0 .47.24.96.73 1.26v-.02c-.32.12-.52.3-.64.52.73.13 1.79.01 2.36-.27.65-.14 1.11-.69 1.25-.96s.4-1.22 0-2.01l-3.12-6.28c-.14-.27-.22-.57-.22-.9 0-.83.76-1.21 1.2-1.25.52-.05 1.05.29 1.05.78 0 .31-.17.52-.42.55-.59.06-.55-.44-.43-.77-.37.2-.58.52-.52.82-.21.05-.4.17-.59.39.14.17.32.28.59.26-.12.49.2.66.52.74-.1-.34-.17-.74.43-.8.44-.05.78-.16.98-.46l.05 1.87c.03.56-.75.63-1.25.51.19.63.57.94 1.45.76-.21.11-.44.34-.44.73 0 .53.43 1.07.71 1.21l.14-5.5Z" class="cls-4" data-name="F"/><path id="F-6" d="M26.09 74.33c0 1.41-1.26 2.26-2.26 2.37-1.34.14-2.05-.58-2.05-1.63 0-.59.11-.98.38-1.57l3.06-6.68c.11-.23.14-.49.14-.86 0-.57-.55-.98-1.13-.93-.53.04-1.1.61-1.1 1.19 0 .7.36.97.74.94.46-.05.64-.26.64-.58 0-.22-.11-.31-.26-.29-.39.04-.28.56-.28.56-.2-.02-.36-.21-.26-.46a.6.6 0 0 1-.38-.19c.11-.11.23-.21.38-.25-.09-.29.03-.46.3-.55a.56.56 0 0 0-.04.33c.42-.16 1.06-.04 1.06.68s-.5 1.38-1.44 1.32c.22.08.34.29.36.53-.17-.05-.36-.04-.36-.04.11.18.26.33.25.71-.17-.06-.33-.19-.56-.07.35.65-.08 1.64-1.17 1.98.4-.51.59-1.04.59-1.54 0-1.63-.45-1.86-.45-2.99 0-.47.24-1.01.73-1.41v.02c-.32-.05-.52-.19-.64-.39.73-.28 1.79-.39 2.36-.23.65 0 1.11.46 1.25.7s.4 1.13 0 2.01l-3.12 6.93c-.14.3-.22.62-.22.95 0 .83.76 1.05 1.2 1 .52-.05 1.05-.51 1.05-1 0-.31-.17-.48-.42-.46-.59.06-.55.56-.43.86-.37-.13-.58-.4-.52-.71-.21 0-.4-.08-.59-.27.14-.2.32-.35.59-.38-.12-.47.2-.7.52-.85-.1.36-.17.77.43.71.44-.05.78 0 .98.26l.05-1.88c.03-.56-.75-.47-1.25-.25.19-.67.57-1.06 1.45-1.06a.62.62 0 0 1-.44-.63c0-.53.43-1.16.71-1.36l.14 5.47Z" class="cls-4" data-name="F"/></g><g id="E-4" data-name="E"><path d="M25.95 93.78s.67.49.89.19c.36-.49-1.12-2.59-1.12-3.38 0-1.3.87-1.75 1.94-2.05.72-.2 1.89-.15 1.89-.15-.22.32-.36.42-.74.48.41.17.84.59.84 1.32 0 1.12-.46 1.63-.46 2.89 0 .7.57 1.53.57 1.53-1.02 0-1.52-.88-1.23-1.66a.56.56 0 0 0-.43.18c-.07-.2.04-.45.2-.68-.13-.05-.22 0-.42.06.02-.22.15-.46.46-.71-.91.33-1.47-.24-1.47-.91 0-.5.35-.9.7-.94.11-.01.27.02.37.08.07-.15.03-.33-.04-.46.25.04.41.17.3.5.19 0 .35.05.45.16-.11.15-.27.24-.45.26.14.28-.02.46-.25.61 0 0 .15-.6-.23-.56-.17.02-.32.09-.32.34 0 .21.19.49.62.43s.79-.38.79-1.08c0-.64-.52-.9-1.2-.85-.61.05-1.08.43-1.08 1.06 0 .84 1.22 2.63 1.22 3.38 0 .56-.51.93-1 .98-.64.07-1.18-.51-1.18-.51z" class="cls-4"/><path id="F-7" d="M25.8 78.58c0-1.41 1.26-2.26 2.26-2.37 1.34-.14 2.05.58 2.05 1.63 0 .59-.11.98-.38 1.57l-3.06 6.68c-.11.23-.14.49-.14.86 0 .57.55.98 1.13.93.53-.04 1.1-.61 1.1-1.19 0-.7-.36-.97-.74-.94-.46.05-.64.26-.64.58 0 .22.11.31.26.29.39-.04.28-.56.28-.56.2.02.36.21.26.46.15.02.28.08.38.19-.11.11-.23.21-.38.25.09.29-.03.46-.3.55a.56.56 0 0 0 .04-.33c-.42.16-1.06.04-1.06-.68s.5-1.38 1.44-1.32c-.22-.08-.34-.29-.36-.53.17.05.36.04.36.04-.11-.18-.26-.33-.25-.71.17.06.33.19.56.07-.35-.65.08-1.64 1.17-1.98-.4.51-.59 1.04-.59 1.54 0 1.63.45 1.86.45 2.99 0 .47-.24 1.01-.73 1.41v-.02c.32.05.52.19.64.39-.73.28-1.79.39-2.36.23-.65 0-1.11-.46-1.25-.7s-.4-1.13 0-2.01l3.12-6.93c.14-.3.22-.62.22-.95 0-.83-.76-1.05-1.2-1-.52.05-1.05.51-1.05 1 0 .31.17.48.42.46.59-.06.55-.56.43-.86.37.13.58.4.52.71.21 0 .4.08.59.27-.14.2-.32.35-.59.38.12.47-.2.7-.52.85.1-.36.17-.77-.43-.71-.44.05-.78 0-.98-.26l-.05 1.88c-.03.56.75.47 1.25.25-.19.67-.57 1.06-1.45 1.06.21.07.44.25.44.63 0 .53-.43 1.16-.71 1.36l-.14-5.47Z" class="cls-4" data-name="F"/><path id="F-8" d="M25.8 74.36c0 1.41 1.26 2 2.26 1.89 1.34-.14 2.05-1.01 2.05-2.06 0-.59-.11-.95-.38-1.49l-3.06-6.04c-.11-.21-.14-.46-.14-.83 0-.57.55-1.09 1.13-1.17.53-.07 1.1.38 1.1.95 0 .7-.36 1.05-.74 1.09-.46.05-.64-.12-.64-.44 0-.22.11-.33.26-.35.39-.04.28.5.28.5.2-.06.36-.28.26-.52.15-.05.28-.14.38-.27a.66.66 0 0 0-.38-.17c.09-.31-.03-.45-.3-.48.05.11.06.22.04.32-.42-.08-1.06.18-1.06.91s.5 1.27 1.44 1.02a.76.76 0 0 0-.36.61c.17-.08.36-.11.36-.11-.11.2-.26.39-.25.77.17-.1.33-.26.56-.19-.35.72.08 1.62 1.17 1.73-.4-.43-.59-.91-.59-1.41 0-1.63.45-1.95.45-3.09 0-.47-.24-.96-.73-1.26v.02c.32-.12.52-.3.64-.52-.73-.13-1.79-.01-2.36.27-.65.14-1.11.69-1.25.96s-.4 1.22 0 2.01l3.12 6.28c.14.27.22.57.22.9 0 .83-.76 1.21-1.2 1.25-.52.05-1.05-.29-1.05-.78 0-.31.17-.52.42-.55.59-.06.55.44.43.77.37-.2.58-.52.52-.82.21-.05.4-.17.59-.39a.65.65 0 0 0-.59-.26c.12-.49-.2-.66-.52-.74.1.34.17.74-.43.8-.44.05-.78.16-.98.46l-.05-1.87c-.03-.56.75-.63 1.25-.51-.19-.63-.57-.94-1.45-.76.21-.11.44-.34.44-.73 0-.53-.43-1.07-.71-1.21l-.14 5.5Z" class="cls-4" data-name="F"/></g></g></g><g id="White_Logo_RGB" data-name="White Logo RGB"><path id="WHITE_ESC_HEART" d="M56.13 129.5c1.03 1.13 2.54.85 3.24-.61C75.9 94 126.12 78.23 126.12 33.78c0-16.16-10.88-32.38-31.78-32.75-19.9-.36-37.77 12.46-39.63 33.22-.56-13.14-9.18-19.2-19.12-19.2C16.03 15.03.01 32.69.82 59.25c1.34 41.78 41.51 54.94 55.31 70.25m-3.56-85.25c.53 2.09 3.07 2.01 3.65-.05 8.61-31.2 48.19-34.61 48.19-3.02 0 24.94-44.21 51.56-47.58 75.24-8-15.53-37.39-24.07-37.39-57.83 0-28.74 27.94-34.77 33.12-14.34Z" style="fill:#fff"/></g></svg>