<svg xmlns="http://www.w3.org/2000/svg" viewBox="0 0 127.18 131.2"><defs><clipPath id="clippath"><path d="m58.75 127.76 1.07-7.5c1.5-10.54 12.38-22.58 22.9-34.23 12.64-13.99 25.71-28.45 25.71-43.01 0-12.67-6.96-25.46-22.5-25.46-9.54 0-21.2 5.57-28.17 17.6l-.57 1.02a42.5 42.5 0 0 0-2.75 6.26c-2.84-7.16-8.72-11.49-15.9-11.49-10.98 0-22.65 10.46-22.65 29.85 0 24.24 14.17 36.56 25.55 46.46 5.61 4.88 10.46 9.1 12.95 13.92l3.87 7.51.5-.93Z" class="cls-1"/></clipPath><clipPath id="clippath-1"><path d="m59.33 124.63 1.04-7.35c1.47-10.32 12.12-22.11 22.43-33.52 12.38-13.7 25.18-27.86 25.18-42.12 0-12.41-6.81-24.94-22.03-24.94-9.34 0-20.76 5.46-27.59 17.23l-.56 1a41 41 0 0 0-2.69 6.13c-2.78-7.01-8.54-11.25-15.57-11.25-10.76 0-22.19 10.25-22.19 29.23 0 23.74 13.88 35.81 25.02 45.5 5.5 4.78 10.25 8.91 12.68 13.63l3.79 7.36.49-.91Z" class="cls-1"/></clipPath><style>.cls-1{fill:none}</style></defs><g id="LUXEMBOURG" style="clip-path:url(#clippath)"><g style="clip-path:url(#clippath-1)"><path d="M118.15 45.23 13.06 56.28V19.7L118.15 8.65z" style="fill:#e40520"/><path d="M118 116.21 12.92 127.26V86.52L118 75.47z" style="fill:#3c95d2"/><path d="M118 78.06 14.55 89.18V55.9L118 44.96z" style="fill:#f9f9f9"/></g></g><g id="White_Logo_RGB" data-name="White Logo RGB"><path id="WHITE_ESC_HEART" d="M56.13 129.5c1.03 1.13 2.54.85 3.24-.61C75.9 94 126.12 78.23 126.12 33.78c0-16.16-10.88-32.38-31.78-32.75-19.9-.36-37.77 12.46-39.63 33.22-.56-13.14-9.18-19.2-19.12-19.2C16.03 15.03.01 32.69.82 59.25c1.34 41.78 41.51 54.94 55.31 70.25m-3.56-85.25c.53 2.09 3.07 2.01 3.65-.05 8.61-31.2 48.19-34.61 48.19-3.02 0 24.94-44.21 51.56-47.58 75.24-8-15.53-37.39-24.07-37.39-57.83 0-28.74 27.94-34.77 33.12-14.34Z" style="fill:#fff"/></g></svg>