<svg xmlns="http://www.w3.org/2000/svg" viewBox="0 0 127.18 131.2"><defs><clipPath id="a"><path d="m58.5 122.71 1.09-7.39c1.53-10.38 12.32-22.18 22.75-33.59 12.53-13.71 25.49-27.89 25.57-42.23.07-12.49-6.71-25.12-22.02-25.21-9.4-.05-20.92 5.37-27.85 17.18l-.57 1a42 42 0 0 0-2.75 6.15c-2.76-7.07-8.52-11.37-15.6-11.41-10.82-.06-22.38 10.18-22.48 29.28-.13 23.88 13.76 36.1 24.92 45.91 5.5 4.84 10.26 9.02 12.68 13.78l3.77 7.42.5-.91Z" style="fill:none"/></clipPath></defs><g data-name="LATVIA" style="clip-path:url(#a)"><path d="M7.7 130.35 181.64 112V65.45L7.7 83.8zm0-116.38v46.55l173.94-18.34V-4.37z" style="fill:#9d2136"/><path d="M181.64 65.45 7.7 83.8V60.52l173.94-18.34z" style="fill:#f9f9f9"/></g><path d="M56.13 129.5c1.03 1.13 2.54.85 3.24-.61C75.9 94 126.12 78.23 126.12 33.78c0-16.16-10.88-32.38-31.78-32.75-19.9-.36-37.77 12.46-39.63 33.22-.56-13.14-9.18-19.2-19.12-19.2C16.03 15.03.01 32.69.82 59.25c1.34 41.78 41.51 54.94 55.31 70.25m-3.56-85.25c.53 2.09 3.07 2.01 3.65-.05 8.61-31.2 48.19-34.61 48.19-3.02 0 24.94-44.21 51.56-47.58 75.24-8-15.53-37.39-24.07-37.39-57.83 0-28.74 27.94-34.77 33.12-14.34Z" data-name="White Logo RGB" style="fill:#fff"/></svg>