<svg xmlns="http://www.w3.org/2000/svg" viewBox="0 0 127.18 131.2"><defs><clipPath id="clippath"><path d="m58.82 124.17 1.04-7.35c1.47-10.32 12.12-22.11 22.43-33.52 12.38-13.7 25.18-27.86 25.18-42.12 0-12.41-6.81-24.94-22.03-24.94-9.34 0-20.76 5.46-27.59 17.23l-.56 1a41 41 0 0 0-2.69 6.13c-2.78-7.01-8.54-11.25-15.57-11.25-10.76 0-22.19 10.25-22.19 29.23 0 23.74 13.88 35.81 25.02 45.5 5.5 4.78 10.25 8.91 12.68 13.63l3.79 7.36.49-.91Z" style="fill:none"/></clipPath><style>.cls-2{fill:#006234}</style></defs><g id="MOROCCO" style="clip-path:url(#clippath)"><path d="m.7 23.32 109.36-11.49v110.7L.7 134.02z" style="fill:#c2272d"/><path d="m48.34 73.46-11.35-7.05 14.03-1.47 4.35-13.83 4.35 12.92 14.11-1.48-11.42 9.49 4.33 12.86-11.32-7.04-11.43 9.51 4.37-13.9Zm.31 6.96 4.66-3.87-2.88-1.79zm13.5-1.34-1.8-5.34-2.91 2.42 4.7 2.92Zm-6.81-4.23 4.2-3.5-1.58-4.71-5.16.54-1.6 5.09 4.14 2.57Zm-6.22-3.87 1.11-3.53-5.8.61zm12.48-1.33 4.66-3.88-5.76.61zm-8-4.98 3.58-.38-1.79-5.31z" class="cls-2"/><path d="m66.09 84.08-10.71-6.66-10.71 8.91 4.09-13.02-10.71-6.66 13.24-1.39 4.09-13.02 4.09 12.16 13.24-1.39L62 71.92zm-9.24-7.88 5.94 3.69-2.27-6.75-3.67 3.05Zm-6.62-1.97-2.27 7.22 5.94-4.94zm.56-1.8 4.58 2.85 4.58-3.81-1.75-5.2-5.67.6-1.75 5.57Zm9.24-6.36 1.4 4.17 5.94-4.94-7.35.77Zm-16.66 1.75 5.94 3.69 1.4-4.47-7.35.77Zm9.73-2.75 4.54-.48-2.27-6.75-2.27 7.22Z" class="cls-2"/></g><g id="White_Logo_RGB" data-name="White Logo RGB"><path id="WHITE_ESC_HEART" d="M56.13 129.5c1.03 1.13 2.54.85 3.24-.61C75.9 94 126.12 78.23 126.12 33.78c0-16.16-10.88-32.38-31.78-32.75-19.9-.36-37.77 12.46-39.63 33.22-.56-13.14-9.18-19.2-19.12-19.2C16.03 15.03.01 32.69.82 59.25c1.34 41.78 41.51 54.94 55.31 70.25m-3.56-85.25c.53 2.09 3.07 2.01 3.65-.05 8.61-31.2 48.19-34.61 48.19-3.02 0 24.94-44.21 51.56-47.58 75.24-8-15.53-37.39-24.07-37.39-57.83 0-28.74 27.94-34.77 33.12-14.34Z" style="fill:#fff"/></g></svg>