<svg xmlns="http://www.w3.org/2000/svg" viewBox="0 0 127.18 131.2"><defs><clipPath id="a"><path d="m58.79 123.12 1.1-7.48c1.55-10.5 12.78-22.5 23.64-34.1 13.05-13.93 26.54-28.34 26.54-42.85 0-12.63-7.18-25.36-23.22-25.36-9.85 0-21.88 5.55-29.08 17.53l-.59 1.02c-1.08 1.92-2.03 4-2.84 6.24-2.93-7.14-9-11.45-16.41-11.45-11.34 0-23.38 10.42-23.38 29.74 0 24.15 14.62 36.43 26.37 46.29 5.79 4.86 10.8 9.06 13.36 13.87l3.99 7.49.52-.92Z" style="fill:none"/></clipPath></defs><g style="clip-path:url(#a)"><path d="M132.12 58.15-19.34 74.13V23.46L132.12 7.48z" style="fill:#d00920"/><path d="m-19.34 124.79 151.46-15.97V58.15L-19.34 74.13z" style="fill:#f6f6f6"/></g><path d="M56.13 129.5c1.03 1.13 2.54.85 3.24-.61C75.9 94 126.12 78.23 126.12 33.78c0-16.16-10.88-32.38-31.78-32.75-19.9-.36-37.77 12.46-39.63 33.22-.56-13.14-9.18-19.2-19.12-19.2C16.03 15.03.01 32.69.82 59.25c1.34 41.78 41.51 54.94 55.31 70.25m-3.56-85.25c.53 2.09 3.07 2.01 3.65-.05 8.61-31.2 48.19-34.61 48.19-3.02 0 24.94-44.21 51.56-47.58 75.24-8-15.53-37.39-24.07-37.39-57.83 0-28.74 27.94-34.77 33.12-14.34Z" data-name="White Logo RGB" style="fill:#fff"/></svg>