<svg xmlns="http://www.w3.org/2000/svg" viewBox="0 0 127.18 131.2"><defs><clipPath id="clippath"><path d="m59.28 122.93 1.04-7.32c1.46-10.28 12.07-22.02 22.33-33.37C94.97 68.6 107.72 54.5 107.72 40.3c0-12.36-6.78-24.83-21.94-24.83-9.3 0-20.67 5.44-27.47 17.16l-.56.99a41 41 0 0 0-2.68 6.1c-2.77-6.98-8.5-11.2-15.5-11.2-10.71 0-22.09 10.2-22.09 29.1 0 23.64 13.81 35.65 24.91 45.3 5.47 4.76 10.2 8.87 12.62 13.57l3.77 7.33.49-.9Z" style="fill:none"/></clipPath><style>.cls-5{fill:#120f08}.cls-6{fill:#007e52}.cls-7{fill:#d10736}.cls-8{fill:gold}.cls-10{fill:#0044af}</style></defs><g id="MOLDOVA" style="clip-path:url(#clippath)"><path d="M2.56 4.22h39.97v132.81H2.56z" class="cls-10"/><path d="m109.11 118.03-41.82 3.51 1.19-107.57 41.82-3.51z" class="cls-7"/><path d="M39.84-1.8h29.93v123.58H39.84z" style="fill:#fde000"/><g id="Layer_1"><path id="path2778" d="m52.04 62.6-.73-.1-1.53-.66-.96.04-.05-1.87-1.85-1.32-1.9 2.23-.28.63-.07 18.62 1.24-1.61.25.04 1.28-1.49 1.09-2.82.33-1.16 1.44 1.57-.56 1.07.5-.09.04.42.46-.23.11.57 1.02-1.12 1.4.56-2.7 5-.96.8 1.71.47 1.76-2.21-.26 1.37-.53 1.35 2.12 1.03 2.33-1.6-1.12-2.29.37-.2 1.48 2.03 1.64-.97-2.1-2.28-1.37-2.86 1.48-.64.99.87.16-.64.53.21-.07-.52.54.06-.65-.97 1.67-1.55 1.01 3.17 1.53 1.62.32-.08 1.11 1.28.15-19.18-2.05-1.98L60.35 59l.07 1.76-.91.12-1.34.82-.76.32-.35.1-.46-.45-.6-1.18-.03-1.22.38-.83-.06-.75.34-.02-.21-.49.3-.15-.45-.35.16-.2-1.69-.57-1.3.04-.35.19-.18.33.34.94-.37.4.36.68v1.56l-.3 1.35-.6 1.05z" style="fill:#c08c62"/><path id="rect2244" d="M51.77 54.81c-.19.02-.36.08-.46.17.15.03.27.16.26.34v.44l-.18.02-.27.03a.33.33 0 0 1-.36-.23c-.08.11-.13.28-.13.47s.05.36.12.45c.05-.16.19-.29.36-.3l.27-.03.17-.02v.17l-.01 1.38v.58c0 .17-.11.32-.26.38.21 0 .39.27.44.42.05-.16.23-.46.45-.51a.325.325 0 0 1-.25-.33v-1l.02-.96v-.17l.17-.02.27-.03c.17-.02.31.08.36.23.08-.11.13-.28.13-.47s-.05-.36-.12-.45c-.05.16-.19.29-.36.3l-.27.03-.17.02v-.44c0-.17.12-.33.27-.39-.1-.07-.26-.1-.45-.08" class="cls-5"/><path id="path2303" d="M51.77 54.9c-.1 0-.19.04-.26.07.1.08.16.2.16.34v.53h-.13l-.13.02-.27.03a.44.44 0 0 1-.35-.13c-.02.08-.05.17-.05.26s.02.19.04.26c.09-.11.21-.19.36-.2l.27-.03h.06l.11-.02h.09v.26l-.01 1.38v.58c0 .14-.08.25-.17.35.06.04.12.08.17.13.04.05.06.1.09.15.03-.06.05-.11.09-.17.05-.06.11-.12.17-.17a.42.42 0 0 1-.16-.32v-.99l.02-.96V56h.09l.17-.02.27-.03c.14-.01.26.04.35.13.02-.08.05-.16.05-.27s-.02-.19-.04-.26c-.09.11-.21.19-.35.2l-.27.03-.17.02h-.09v-.53c0-.14.07-.27.17-.36a.7.7 0 0 0-.26-.02Z" class="cls-8"/><path id="path2516" d="m49.96 75.78-1.3 2.09-.62.04-.64.37-.22.72.09.31.7.69.56-.38.46-.53.12-.45 1.64-2.27-.07-.53-.36.26-.13-.42z" class="cls-7"/><path id="path2750" d="m58.16 75.57 1.7 2.16.17.44.75.61.22-.08.84-1.05-.18-.64-.77-.4-.59.11-1.28-1.82-.23-.07-.1.39-.37-.08z" class="cls-7"/><path id="rect2290" d="m48.81 79.41.96.44-.25 1.09-.96-.43z" class="cls-5"/><path id="rect2273" d="m44.41 69.55-.35.19 3.85 8.23.42-.04-3.91-8.38Zm4.54 9.69-.29.32.17.37.34-.19-.23-.5Z" class="cls-5"/><path id="rect2288" d="m48.94 79.7.6.27-.15.68-.6-.27z" class="cls-8"/><path id="path2754" d="m48.87 68.99-.02 4.63.33.51 2.14.99 2.75 1 .35.34 2.39-1.53 2.81-1.6.53-.86.04-4.56z" class="cls-10"/><path id="path2355" d="m48.78 63.42.14.4-.08 5.33.2.2 1.63.04 1.77-.43s1.02.06 1.73.1l.02.1s.26-.06.34-.09c.08 0 .33.02.33.02l.02-.11 1.74-.44 1.76.09 1.64-.35.2-.24v-5.32l.16-.43-1.96.2-3.84.41c-1.61.14-3.85.33-3.85.33l-1.96.18Z" class="cls-7"/><path id="path2762" d="m56.63 63.27.23.83.37 1.06.04 1.04-.43.79-.78.39-.43.18-.5-.22-.56.4-.62-.31-.5.4-.32-.19-.56-.02-.64-.61-.12-1.19.79-2.22-.96.87-.84 1.2-.01 1.48.58.93 1.06.59.29.05-.52.99.88.18.45.41.23.89-.06 1.96-.28.48-.59.46-.03.37.64.34.56.4.82-.05.73-.58.62-.41-.16-.52-.64-.44-.12-1.54.2-1.57.94-.68.48-.21-.49-.91.77-.34.86-.83.41-1.54-.23-.89-.58-.69z" class="cls-8"/><path id="path2756" d="m49.3 69.3.88-.44.62-.54.43.41.85.27-.7.47-.62.59-.53-.35z" class="cls-8"/><path id="path2758" d="m58.27 67.62-.4.47-.86.43.8.43.5.41.57-.51.91-.54-.93-.29z" class="cls-8"/><path id="path2760" d="m54.57 63.6-.27.83-.77-.3.34.74-.75.37.75.19-.33.81.72-.45.29.78.3-.83.72.25-.32-.69.75-.34-.72-.26.33-.8-.75.45z" class="cls-8"/><path id="path2764" d="m52.92 70.32.37.34-.35.38-.36-.32z" class="cls-8"/><path id="path2766" d="m56.13 69.97-.37.42.33.33.4-.38z" class="cls-8"/><path id="path2768" d="m56.39 70.93-.67.23-.17.4-.02 1.08.27.57.37.12-.04-1.39z" class="cls-8"/><path id="path2770" d="m52.64 71.31.23 1.17-.01 1.15.34-.27.23-.55.05-.91-.17-.53z" class="cls-8"/><path id="path2772" d="m58.76 71.67-.77-.3-.75.23-.39.49-.05.74.54.59.14.03-.01-.69.59-.87z" class="cls-8"/><path id="path2774" d="m51.4 72.13-.08-.32-.41-.2-.35.17-.18.38.09.31-.36-.01-.29.31-.04.38.19.22.28.07.16-.03-.13.35.1.32.33.16.38-.13.2-.4.32.19.39-.12.25-.41-.17-.35-.18-.13.27-.17.11-.45-.36-.38-.35.09z" class="cls-8"/><path id="path2169" d="M52.63 63.34c-.06.4-2.03 1.4-2.05 3.05-.02 2.1 1.94 2.41 1.94 2.41l-.08.16-.49.92s.81-.04 1.24.29c.52.39.46 1.34.45 2.02 0 .54-.08 1.12-.36 1.37-.37.35-.62.4-.63.77 0 .31.23.35.62.51.49.21.46.57 1.19.49.73-.07.71-.42 1.21-.73.39-.24.62-.33.63-.63 0-.37-.25-.37-.62-.65-.27-.21-.34-.77-.33-1.31 0-.69-.04-1.62.49-2.11.43-.41 1.25-.53 1.25-.53l-.47-.83-.08-.14s1.97-.68 1.98-2.79c.01-1.64-1.94-2.27-2-2.65-.2.7.64 1.55.63 2.66-.01 1.44-1.07 1.61-1.07 1.61-.25.02-.35.21-.45.22-.21 0-.3-.26-.51-.24-.19.02-.34.33-.6.36-.26.02-.4-.26-.59-.24-.21.02-.31.29-.51.34-.1 0-.2-.16-.44-.13 0 0-1.05.03-1.04-1.4 0-1.11.87-2.13.68-2.79Zm4 5.21s1.31.46 1.66.92c.75-.64 1.75-1.18 1.75-1.18s-.94-.16-1.73-.79c-.46.64-1.67 1.06-1.67 1.06Zm-4.19.41s-1.21-.18-1.66-.74c-.8.79-1.75 1.13-1.75 1.13s.98.35 1.73.85c.35-.53 1.67-1.24 1.67-1.24Zm2.14-5.66-.35 1-.93-.35.44.89-.97.44.97.25-.45.97.93-.53.33.94.35-1 .92.35-.43-.89.97-.44-.96-.25.45-.97-.93.53-.34-.93Zm-2.24.67c.08.17-.67 1.31-.67 2.19 0 1.08.56 1.66 1.33 1.59.15-.01.31.17.44.16.22-.02.38-.29.51-.3.17-.02.29.25.59.22s.43-.32.6-.33c.14-.01.28.22.51.2.14-.01.3-.23.45-.24.77-.08 1.35-.77 1.36-1.85 0-.88-.72-1.88-.64-2.07 0 0 1.43.89 1.42 2.11-.02 1.96-2.01 2.64-2.01 2.64l.44.97s-.62.15-1 .49c-.5.45-.52 1.55-.53 2.29 0 .87.02 1.24.34 1.45.33.22.58.25.57.5 0 .22-.26.34-.6.52-.38.2-.42.5-.97.55s-.58-.23-.96-.37c-.33-.12-.59-.18-.59-.4 0-.26.25-.33.58-.61.32-.27.35-.64.36-1.51 0-.74 0-1.84-.49-2.19-.37-.27-.99-.3-.99-.3l.45-1.05s-1.98-.29-1.97-2.26c.01-1.22 1.46-2.39 1.46-2.39Zm2.24-.01.21.6.59-.34-.28.62.61.16-.62.28.27.57-.59-.23-.23.64-.21-.6-.59.34.28-.62-.61-.16.62-.28-.27-.57.59.23zm-3.81 4.56c.4.42 1.03.53 1.03.53s-.66.41-1.02.86v.02h-.01s-.02.02-.02.03v-.04c-.37-.3-1.12-.6-1.12-.6s.72-.32 1.15-.79Zm7.54-.73c.42.39 1.13.57 1.13.57s-.75.45-1.13.82v.04s-.02-.01-.02-.02l-.01.01v-.03c-.35-.37-1.01-.66-1.01-.66s.63-.24 1.04-.74Zm-5.38 2.41-.47.52.47.43.48-.52-.47-.43Zm3.19-.31-.48.52.47.43.47-.52-.47-.43Zm-3.19.54.25.22-.25.28-.25-.23zm3.19-.31.25.22-.25.28-.24-.23.25-.27Zm-3.63 1.07c.09.22.31.92.3 1.78 0 .6-.07.92-.07.92s.67-.26.8-.95c.07-.32.14-1.5-.17-1.67zm4.06-.4-.87.25c-.32.23-.26 1.39-.2 1.7.13.66.79.79.79.79s-.05-.31-.05-.91c0-.86.24-1.6.33-1.85Zm-5.68.74s-.08.01-.11.03c-.3.1-.48.42-.41.72.01.05.03.08.05.12-.04-.01-.09-.02-.14-.01h-.06c-.28.04-.52.28-.54.57-.02.31.21.55.52.54.05 0 .09 0 .13-.02-.03.04-.05.08-.07.12-.12.3.02.62.3.7.28.09.61-.08.73-.38.02-.04.03-.09.03-.13l.09.09c.23.18.59.11.79-.15s.17-.6-.06-.78a.3.3 0 0 0-.12-.06c.04-.02.08-.04.12-.07.26-.19.35-.55.18-.79a.5.5 0 0 0-.51-.21.54.54 0 0 0-.26.11c-.04.03-.08.06-.11.1 0-.04 0-.09-.01-.14a.484.484 0 0 0-.56-.37Zm1.92-.11.47.05c.17.22.14.61.13 1.14s-.41.79-.41.79c.01-1.3-.12-1.6-.19-1.98m3.45-.33c-.07.4-.21.72-.22 2.02 0 0-.4-.17-.4-.71s-.02-.92.15-1.17zm-5.34.67c.2-.03.39.09.44.29q.015.075 0 .15c0 .04-.02.08-.03.11a.5.5 0 0 0-.22-.01c-.19.02-.36.12-.47.26a.3.3 0 0 1-.08-.08c-.02-.04-.05-.08-.06-.12-.06-.23.09-.48.32-.56.03 0 .06-.02.09-.02Zm6.95-.49c-.71.07-1.24.67-1.18 1.34.06.56.51 1 1.09 1.08q-.15-.225-.18-.51c-.07-.67.46-1.27 1.17-1.34.11-.01.22 0 .33 0-.25-.39-.72-.63-1.24-.58Zm-6.08.75c.14 0 .27.05.35.17.12.19.06.47-.14.61-.04.03-.09.05-.13.07-.04.01-.08.02-.12.02v-.02a.57.57 0 0 0-.37-.55c.01-.04.03-.08.06-.11a.47.47 0 0 1 .35-.19m6.08-.49c.22-.02.44.03.62.12-.7.2-1.2.87-1.14 1.58a.96.96 0 0 1-.41-.67c-.05-.53.34-.98.92-1.04Zm-7.49.98c.05 0 .1 0 .14.02.04.01.07.03.1.05-.09.12-.14.26-.14.41 0 .12.03.22.08.31-.04.03-.08.05-.12.07-.04.01-.09.02-.13.02-.24 0-.42-.19-.4-.42.02-.24.23-.45.47-.45Zm.74 0c.23-.02.42.15.42.38s-.19.44-.42.46-.42-.15-.42-.38.19-.44.42-.46m.62.42s.08 0 .12.02q.06.015.12.06c.18.13.2.41.05.61-.16.2-.43.25-.61.12a.3.3 0 0 1-.09-.11.3.3 0 0 1-.04-.1c.25-.09.43-.33.46-.59Zm-1.16.4c.11.16.3.25.52.23.05 0 .09-.01.13-.03 0 .04.01.08.01.12 0 .05-.01.09-.03.14-.09.23-.35.36-.57.29s-.33-.31-.24-.54c.02-.05.04-.09.07-.13.03-.03.06-.06.09-.08Zm3.18.73c-.39.04-.64.14-.64.26s.25.17.64.14c.1-.01.22-.08.22-.22s-.12-.19-.22-.18m1.5-.14c-.1 0-.22.08-.22.22s.12.19.22.18c.39-.04.64-.14.64-.26s-.25-.18-.64-.14" class="cls-5"/><path id="path2206" d="m66.66 65.89-.68.56.07.16s-.12.05-.18.17.03.26.03.26-.64 0-.74.08c-.09.07.03.5-.03.88-.09.54-.29.51-.3.61s.08.25.08.25-.12.05-.15.1c-.04.08.03.23-.02.33-.28.58-.7 1.43-.98 1.99-.04.08-.14.12-.19.22s-.01.23-.01.23-.18.03-.24.16c-.07.14-.03.31-.03.31s-.11.03-.17.14c-.06.12.04.17.01.23-.37.76-.81 1.65-1.08 2.19-.1.2-.44.27-.64.68-.19.39.08.64.08.64s-.28.05-.36.21-.02.38.18.47.43-.02.51-.18-.07-.38-.07-.38.38.02.58-.38.04-.68.13-.88c.27-.54.71-1.44 1.08-2.19.03-.05.14-.02.2-.14s0-.21 0-.21.17-.09.24-.23c.06-.13-.03-.27-.03-.27s.13-.06.18-.16c.05-.11.02-.2.05-.28.28-.56.7-1.41.98-1.99.05-.1.21-.15.25-.24.03-.05-.01-.17-.01-.17s.18-.04.25-.11c.08-.07-.08-.2.3-.61.27-.3.71-.5.7-.6 0-.12-.42-.57-.42-.57s.18-.03.24-.15c.06-.11.02-.24.02-.24l.18-.05v-.84Zm-6.45 12.7c-.09.02-.14.07-.16.11-.03.05-.03.13 0 .19 0 0-.21-.05-.29 0-.07.04 0 1.04 0 1.04s.85-.62.84-.69c-.01-.08-.19-.2-.19-.2.07-.02.12-.07.15-.12.03-.06.03-.21-.16-.3a.33.33 0 0 0-.19-.02Z" class="cls-5"/><path id="rect2205" d="M53.84 55.81c-.21.02-.53.06-.71.2-.17.13-.16.27-.22.33-.14.13-.38.15-.49.16-.74.07-.77.87-.77.87s.19-.31.53-.34c.56-.05.97.21.97.32 0 .05-.06.06-.06.06-.36.04-.91-.12-1.2-.1v.11h.01-.01v.02c.65.16 1.3.42 1.29 1.83 0 .89-.12 1.81-.57 2.57q-.24.405-.66.72c-.12-.02-.68-.14-1.08-.33-.69-.32-1.05-.67-1.88-.63v-.63c0-.34.13-.65.14-.97-.35-.06-1.31-1.16-2.2-1.59-1.32.98-2.35 2.48-2.36 3.13 0 0-.08 13.85-.16 18.68 0 .28-.17.69-.17.69.48-.25 1.37-1.54 1.56-2.02v.22c.73-.4 1.26-1.32 1.51-1.8 0 .07.01.23.01.23.65-.63 1.51-4.08 1.51-4.08l-.04-.7s-.59 2.8-1.25 3.43c0 0 .09-10.99.1-11.83l.51.43.79-.8v-.55l-.69.71v-1.67c.12-.17.19-.29.24-.39.11.18.47.75.89 1.07.07-.29.53-.61.53-.61s.16.43.41.52c.09-.16.62-.56.62-.56s-.45.11-.64.3c-.16-.02-.19-.64-.19-.64s-.67.39-.79.64c-.13-.02-.32-.5-.4-.7.12-.02.28-.06.5-.08.19-.02.43.05.69.14.28.1.57.24.83.34.33.12.84.1.99.09-.17.14-.36.26-.56.38 0 0 .8-.09 1.36-.42.2-.15.41-.3.59-.47-.08.22-.2.48-.39.72.82-.15 1.24-.66 1.35-.83.05.14.15.35.3.53.15-.21.26-.45.31-.59.11.15.52.58 1.34.57-.18-.2-.3-.44-.38-.65.18.13.38.24.58.35.56.22 1.36.15 1.36.15-.2-.08-.39-.17-.56-.27.14-.02.66-.1.99-.29.26-.14.56-.34.84-.5.26-.15.5-.26.69-.28.22-.02.38-.02.49-.02-.08.21-.28.73-.41.78-.11-.22-.78-.48-.78-.48s-.05.63-.2.68c-.18-.15-.63-.18-.63-.18s.53.29.61.44c.25-.13.42-.6.42-.6s.46.22.53.5c.43-.41.79-1.04.91-1.25.05.09.13.21.22.35v1.67l-.7-.58v.55l.77.65.52-.53c0 .84-.1 11.83-.1 11.83-.65-.5-1.19-3.19-1.19-3.19l-.05.71s.8 3.29 1.44 3.79c0 0 .01-.17.02-.23.23.43.76 1.25 1.48 1.51v-.22c.18.44 1.05 1.56 1.53 1.72 0 0-.16-.38-.16-.65 0-4.82.16-18.68.16-18.68 0-.65-1-1.95-2.31-2.67-.9.61-1.88 1.9-2.23 2.02 0 .32.12.61.11.95v.63c-.83.12-1.2.54-1.9 1-.4.26-.97.49-1.09.54-.27-.16-.49-.36-.64-.6-.37-.57-.53-1.3-.52-2.06 0-.32.36-.72.37-.98 0-.39-.03-.63-.03-.63.13 0 .35.21.35.21s0-.65-.21-.75c0 0 .08-.09.38-.13-.08-.21-.5-.43-.5-.43a.3.3 0 0 1 .11-.11c.1-.07.25-.12.36-.16-.12-.01-.26-.04-.41-.07-.34-.08-.75-.21-1.13-.35-.69-.27-1.22-.24-1.52-.21Zm.01.19c.07 0 .12 0 .18-.01.68-.07 1.16.2 1.8.42.17.06.32.1.46.14-.09.08-.16.17-.17.24 0 0 .29.02.42.25 0 0-.28.06-.32.22.15 0 .31.18.3.36l-.39-.08s.09.43.09.91c0 .24-.35.56-.36.98-.01 1.3.31 1.76.54 2.14.09.15.16.32.31.44-.66-.29-1.16-.69-1.15-1.1v-1.56l-.16.02v1.56c-.02.3.06.43.06.43.1.32.31.81.44 1-.61-.27-.92-.66-.92-.81L55 59.4l-.17.02-.02 2.18.03.15c-.08.12-.17.26-.24.31a1.1 1.1 0 0 1-.23-.27l.03-.15.02-2.18-.17.02-.02 2.15c0 .16-.32.6-.93.99.13-.22.35-.75.46-1.09 0 0 .07-.15.08-.45v-1.57l-.16.02v1.56c-.02.41-.51.91-1.18 1.33.15-.15.23-.34.32-.5.26-.46.57-1.05.59-2.63 0-.59-.08-.99-.23-1.26-.05-.09-.11-.33.25-.37.18-.02.6.27.6.27s-.02-.26-.23-.39a.2.2 0 0 1-.09-.16c0-.06.09-.2.16-.24.05-.03-.72-.09-.72-.44 0-.07.05-.13.21-.14.21-.02.55.2.86.17.23-.02.31-.09.55-.11.28-.03.87.45 1.06.41-.22-.12-.58-.62-1.13-.57-.19.02-.36.08-.54.1-.23.02-.45-.17-.7-.14-.17.02-.35.04-.38 0-.05-.07 0-.12.04-.18.09-.12.32-.18.55-.21.07 0 .14-.02.2-.02Zm-6.92 3.02s1.21 1.01 1.62 1.11v1.49c-.3-.07-.67-.53-.85-.77v-.15c0-.14.09-.26.15-.32l-.18-.05c-.07.09-.15.21-.15.36v.09l-.06.07-.03.04-.45.52-.52-.75v-.19c0-.13.1-.29.19-.39l-.18-.05c-.09.12-.18.29-.19.43v.16c-.13.14-.61.68-.61.68s-.24-.5-.3-.63c.37-.55.98-1.18 1.54-1.64Zm15.39-1.49c.56.36 1.15.87 1.52 1.35-.07.15-.31.69-.31.69s-.48-.45-.6-.56v-.16c0-.15-.09-.29-.18-.4l-.18.08c.08.09.18.23.18.36v.19l-.53.85-.44-.44-.03-.03-.06-.06v-.09c0-.15-.07-.26-.14-.33l-.18.08c.06.05.15.15.14.29v.15c-.19.28-.56.8-.86.94v-1.11l.03-.38c.41-.18 1.64-1.42 1.64-1.42m-17.15 3.5.28.48v.92l-.44.44v-1.36c.01-.13.07-.29.16-.48m18.88-1.83c.09.16.14.32.14.45v1.36l-.43-.35v-.92zm-17.77 1.83.48.7v.57l-.5.51v-1.78h.01Zm16.65-1.61v1.78l-.5-.41v-.57zm-16.82 1.77v1.64l-.5-.41v-.67zm16.99-1.65.49.47v.67l-.5.5v-1.64zm-15.49 1.62c.07.12.41.63.73.76-.12.17-.42.6-.74.8v-1.56ZM61.6 59.8v1.56c-.33-.14-.63-.51-.74-.66.32-.19.67-.77.74-.9m-14.16 1.45v1.44l-.5-.41v-.51zm14.33-1.39.49.42v.51l-.5.5v-1.44h.01Zm-16.34 3.12v1.44l-.43-.36v-.64zm18.32-1.77.42.36v.64l-.43.44v-1.44zm-18.14 1.76.28.23.21.18v.52l-.22.22-.28.29v-1.43h.01Zm1.15-.11v1.43l-.29-.24-.21-.18v-.51l.22-.22.28-.29Zm.17-.02.49.41v.51l-.22.22-.28.29v-1.43zm1.16-.11v1.43l-.29-.23-.21-.18v-.48c.17-.12.35-.33.5-.54m13-1.26c.15.19.32.36.48.45v.48l-.22.22-.28.29v-1.43h.01Zm1.16-.12v1.43l-.29-.23-.21-.18v-.51zm.17-.01.28.24.21.18v.51l-.22.22-.28.29v-1.43h.01Zm1.16-.11v1.43l-.29-.24-.21-.18v-.51l.22-.22.28-.29Zm-17.26 3.25.51.43.52-.53-.1 11.84.05.96c-.23.26-1.1 1.22-1.1 1.22zm16.52-1.6-.12 13.92-1.09-1c.03-.38.07-.97.07-.97l.1-11.84.51.43.52-.54Zm-16.82 1.63-.11 13.47c0 .38-.7 1.34-1.04 1.57 0-.34.09-10.76.13-14.94l.51.43.52-.53Zm17.11-1.66.51.43.52-.53c-.04 4.23-.12 14.6-.13 14.94-.33-.17-1.02-.99-1.02-1.37l.11-13.47ZM50.19 74.68s-.51 1.06-.7 1.26c0 0 .13 0 .28-.01-.09.14-.79 1.2-1.01 1.6-.21.37-.35.23-.66.26-.26.02-.85.49-.94.67-.1.19-.18.41-.18.58 0 .19.2.44.2.44.02-.09.06-.13.06-.13s.53.62.61.7c.06.06.34.08.43-.02.24-.25.48-.42.7-.76.11-.17.12-.36.25-.55.43-.63 1.29-1.84 1.48-2.12l.03.2c.22-.47 1.29-1.42 1.29-1.42l-.29-.16s-.64.81-.85.96c0 0-.09-.36-.14-.49 0 0-.25.21-.38.23 0 0-.04-.25-.07-.41-.17.13-.45.13-.45.13.25-.14.54-.88.54-.88l-.21-.08Zm8.59-.83-.21.13s.28.68.53.78c0 0-.28.05-.45-.04-.03.17-.07.42-.07.42-.13 0-.38-.15-.38-.15-.05.13-.14.51-.14.51-.2-.12-.84-.8-.84-.8l-.29.22s1.05.75 1.26 1.17c.01-.07.03-.14.04-.21.19.24 1.03 1.28 1.45 1.83.13.16.13.35.24.5.21.3.45.43.69.63.09.08.37 0 .43-.07.08-.1.62-.82.62-.82s.04.03.06.12c0 0 .21-.28.21-.48 0-.17-.07-.38-.17-.55-.09-.16-.68-.51-.94-.49-.31.03-.45.2-.65-.13-.21-.36-.9-1.29-.99-1.41.15-.01.28-.04.28-.04-.19-.16-.68-1.13-.68-1.13Zm-8.67 1.98s0 .34.1.45l.38-.29s.02.12.06.29c-.16.24-1.1 1.6-1.57 2.26-.11.17-.21.57-.21.57s-.17-.06-.17-.21.02-.31.02-.31-.13.16-.34.18c0-.17.34-.39.35-.64-.26.21-.48.14-.77.26-.32.13-.41.27-.51.28-.06 0-.11-.09-.09-.15.04-.11.44-.45.72-.53.07-.02.59.06.69-.12.44-.71 1.15-1.87 1.22-1.98.05-.02.09-.03.12-.05Zm8.73-.84s.07.03.12.03c.07.1.76 1.12 1.19 1.75.1.15.63-.02.69-.02.28.03.67.28.71.39.02.06-.03.16-.09.17-.1.02-.19-.11-.51-.18-.29-.06-.52.06-.77-.11.01.24.34.4.34.57-.22.02-.34-.11-.34-.11s.02.17.02.3-.17.24-.17.24-.09-.38-.21-.53c-.45-.58-1.37-1.75-1.53-1.96.03-.17.06-.3.06-.3l.38.22c.11-.13.11-.47.11-.47Zm-5.71.8s-2.1 4.95-3.94 5.86c0 0 .79.26 1.77.68.14.06.29.13.44.19.12-.16.25-.34.38-.52.59-.84 1.17-1.8 1.17-1.8.04.23-.28.99-.81 1.94-.1.19-.21.38-.33.58.13.06.26.13.39.19.96.49 1.87 1.07 2.2 1.66.34-.65 1.26-1.41 2.23-2.09.13-.09.26-.18.4-.27-.12-.18-.22-.35-.33-.52-.51-.85-.82-1.55-.77-1.79 0 0 .57.86 1.14 1.58.13.16.25.31.38.45.15-.1.3-.19.44-.28.98-.6 1.78-1.02 1.78-1.02-1.82-.55-3.84-5.11-3.84-5.11l-.3.12s1.61 3.95 3.21 5.03c-.37.14-.8.35-1.24.58-.53-.58-1.08-1.38-1.52-2.09-.48-.77-.87-2.16-.87-2.16-.23.57.22 3.28 1.18 4.94-.81.5-1.52 1.02-1.87 1.42-.34-.34-1.05-.72-1.85-1.06.98-1.84 1.49-4.65 1.27-5.17 0 0-.41 1.47-.9 2.33-.46.8-1.02 1.7-1.56 2.38-.44-.15-.87-.26-1.23-.34 1.62-1.4 3.3-5.66 3.3-5.66l-.3-.06Zm-5.41 2.8s.03 0 .04.02c.02.02.02.06 0 .08l-.17.17s-.06.02-.08 0a.06.06 0 0 1 0-.08l.17-.17s.03-.02.04-.01Zm13.47-1.3h.04l.17.13s.02.05 0 .08-.06.03-.08.02l-.17-.13s-.02-.05 0-.08c.01-.01.03-.02.04-.03ZM47.9 78.72s.09 0 .12.04c.05.05.05.14 0 .19l-.42.4a.14.14 0 0 1-.19 0 .14.14 0 0 1 0-.19l.42-.4s.05-.03.07-.04m13.08-1.26h.03c.02 0 .05 0 .07.02l.41.32c.05.04.06.13 0 .19-.05.06-.14.08-.19.04l-.41-.32c-.06-.04-.06-.13 0-.19q.03-.045.09-.06m-12.85 1.52s.09 0 .12.04c.05.06.05.14 0 .19l-.42.4c-.06.05-.14.05-.19 0a.14.14 0 0 1 0-.19l.42-.4s.04-.03.07-.04m12.61-1.22h.03c.03 0 .05 0 .07.02l.41.32c.05.04.06.13 0 .19-.05.06-.14.08-.19.04l-.41-.32c-.05-.04-.06-.12 0-.19a.2.2 0 0 1 .09-.06M48.4 79.23s.09 0 .12.04c.05.05.05.14 0 .19l-.42.4a.14.14 0 0 1-.19 0 .14.14 0 0 1 0-.19l.42-.4s.05-.03.07-.03Zm12.07-1.17h.03c.02 0 .05 0 .07.02l.41.32c.05.04.05.13 0 .19s-.13.08-.19.04l-.41-.32c-.05-.04-.06-.13 0-.19q.03-.045.09-.06" class="cls-5"/><path id="path2220" d="m66.54 66.15-.4.32.2.08.2.08zm-.39.51c-.07.01-.14.06-.17.12-.05.11 0 .23.11.28s.25 0 .3-.11 0-.23-.11-.28c-.04-.02-.09-.02-.13-.02Zm-.75.54c-.06 0-.1.01-.11.02-.04.03.01.39 0 .7-.02.29-.11.39-.16.49s-.22.22-.22.22l.14.13s.09-.15.24-.45c.17-.35.17-.95.22-.99.04-.03.4-.15.4-.15s-.32.01-.5.03Zm.61.02s-.37.1-.42.16c-.05.05-.03.56-.23.96-.17.34-.25.46-.25.46l.1.04.1.04s.05-.14.21-.47c.2-.41.62-.73.63-.8s-.14-.4-.14-.4Zm.12.04s.13.32.13.37c0 .06-.49.46-.66.81-.14.3-.21.46-.21.46h.19s-.01-.19.04-.28c.05-.1.06-.23.29-.43.24-.21.57-.41.57-.46s-.36-.46-.36-.46Zm-1.11 1.7c-.06.01-.11.06-.13.11-.04.08-.02.17-.31.78-.13.26-.18.37-.32.66s-.35.71-.35.71-.07.13.06.19c.13.05.19-.09.19-.09s.21-.42.35-.71.2-.4.33-.66c.3-.6.39-.65.43-.73s.03-.19-.1-.24c-.05-.02-.09-.02-.13-.02Zm-1.29 2.53s-.09.03-.11.07c-.04.08.03.17.14.22s.24.02.27-.05c.04-.08-.03-.17-.14-.22a.3.3 0 0 0-.16-.02m-.17.37c-.08 0-.15.04-.18.1-.05.1.02.22.16.28s.29.03.34-.07-.02-.22-.16-.28a.4.4 0 0 0-.15-.03Zm-.23.46s-.09.03-.11.07c-.04.08.03.17.14.22s.24.02.27-.05c.04-.08-.02-.18-.14-.22-.06-.02-.12-.03-.17-.02Zm-.11.38c-.07.02-.11.09-.11.09s-.75 1.53-1.02 2.07c-.08.17-.44.31-.58.59-.14.29-.05.53.13.61s.45-.02.59-.3.02-.62.1-.79c.27-.54 1.02-2.07 1.02-2.07s.07-.13-.06-.19a.14.14 0 0 0-.09 0Zm-1.81 3.54c-.08.01-.16.06-.19.13-.06.11 0 .25.14.31.13.06.29 0 .35-.11s0-.25-.14-.31c-.05-.02-.1-.03-.15-.02Zm-1.2 2.45s-.08.02-.09.05c-.03.06.03.14.13.18s.2.03.23-.03-.03-.14-.13-.18c-.05-.02-.1-.03-.14-.02m-.35.31v.72l.58-.48s-.08-.13-.25-.2-.33-.04-.33-.04" class="cls-8"/><path id="path2280" d="M45.57 76.21s.32.65.57.72c-.13-.02-.55.17-.55.17s.74.59 1.37.58c.53-.01.8-.31.8-.31l-.1-.56s-.32-.36-.84-.5c-.53-.13-1.24-.11-1.24-.11Z" class="cls-5"/><path id="path2282" d="M48.07 74.75s-.46.44-.59.9c-.13.47.07.96.07.96l.38.68s.53-.33.76-.78.15-1.01.15-1.01-.42.2-.48.27c.09-.48-.3-1.02-.3-1.02Z" class="cls-5"/><path id="path2284" d="M46.61 74.71s-.52.22-1.02.24c-.48.02-.87-.35-.87-.35s.4-.31.6-.29c-.22-.06-.52-.57-.52-.57s.44-.18.84-.06c.39.11.73.51.73.51l.25.52Z" class="cls-5"/><path id="path2286" d="M46.81 72.15s.25.51.19.71c.08-.13.39-.36.39-.36s.18.85 0 1.41-.72.81-.72.81l-.58-1.09s-.08-.42.1-.77c.19-.36.62-.7.62-.7Z" class="cls-5"/><path id="path2293" d="M43.45 71.05s.56-.11 1.07.05c.43.13.56.45.56.45l.21.55s-.61.29-1.09.16-.83-.68-.83-.68.34-.16.47-.12c-.19-.06-.38-.4-.38-.4Z" class="cls-5"/><path id="path2295" d="M45.22 69.83s.24.29.25.66c.07-.2.38-.44.38-.44s.31.74.24 1.29-.53.92-.53.92L45 71.24s-.18-.42-.12-.77.35-.62.35-.62Z" class="cls-5"/><path id="path2297" d="M43.3 67.95s-.11.6.06.92c.15.29.25.34.25.34-.29-.17-.74-.14-.74-.14s.15.62.53.88c.38.25.96.13.96.13s.39-.55.36-1.1c-.02-.55-.45-1.1-.45-1.1s-.18.37-.19.64c-.11-.26-.78-.58-.78-.58Z" class="cls-5"/><path id="path2299" d="M43.46 68.29s-.02.43.12.66.46.3.46.3.02-.43-.12-.66-.46-.3-.46-.3" class="cls-6"/><path id="path2301" d="M43.16 69.29s.37-.02.58.13.29.48.29.48-.25.05-.46-.1-.42-.51-.42-.51Z" class="cls-6"/><path id="path2304" d="M44.33 68.31s-.13.3-.11.6c.01.3.19.63.19.63s.16-.38.15-.69-.18-.46-.23-.55Z" class="cls-6"/><path id="path2306" d="M43.69 71.14s.18.24.46.35.7.08.7.08-.21-.25-.48-.36c-.28-.11-.67-.06-.67-.06Z" class="cls-6"/><path id="path2308" d="M43.77 71.72s.13.25.38.34c.24.09.75.03.75.03s-.19-.23-.43-.32-.69-.05-.69-.05Z" class="cls-6"/><path id="path2310" d="M45.2 70.18s-.15.26-.14.53.19.55.19.55.13-.35.12-.62a.86.86 0 0 0-.16-.46Z" class="cls-6"/><path id="path2312" d="M45.74 70.48s-.26.37-.3.72.14.7.14.7.31-.34.35-.69c.04-.36-.19-.72-.19-.72Z" class="cls-6"/><path id="path2320" d="M45.01 73.78s.03.12.13.25c.11.13.29.25.29.25s.17-.07.39-.05c.22.03.5.19.5.19s-.31-.44-.63-.59-.69-.06-.69-.06Z" class="cls-6"/><path id="path2322" d="M44.97 74.59s.4-.21.74-.2c.33.01.63.25.63.25s-.45.2-.78.19-.58-.23-.58-.23Z" class="cls-6"/><path id="path2324" d="M46.7 72.54s-.36.41-.39.74.28.61.28.61-.01-.21.04-.35c.06-.15.17-.31.17-.31s.05-.17.03-.31c-.03-.19-.14-.38-.14-.38Z" class="cls-6"/><path id="path2326" d="M47.2 72.93s-.34.37-.43.75c-.09.37.06.75.06.75s.31-.27.4-.65c.09-.37-.03-.85-.03-.85" class="cls-6"/><path id="path2328" d="M48.03 75.05s.15.3.19.57c.04.26 0 .36 0 .36s-.16.17-.23.27c-.09.12-.11.34-.11.34s-.31-.44-.26-.79.41-.75.41-.75" class="cls-6"/><path id="path2330" d="M48.69 75.73s-.41.31-.57.6-.08.56-.08.56.29-.05.45-.35c.16-.29.2-.82.2-.82Z" class="cls-6"/><path id="path2333" d="M46.02 77.12s.58-.07.94-.02.49.23.49.23-.4.23-.76.17c-.36-.05-.67-.39-.67-.39Z" class="cls-6"/><path id="path2335" d="M45.92 76.43s.26.38.6.5c.47.16 1.01 0 1.01 0s-.29-.33-.7-.45-.91-.05-.91-.05" class="cls-6"/><path id="path2350" d="M47.79 77.35v.21c.36-.03.42-.07.5.03.06.07.2.12.34.04s.21-.26.14-.39c-.06-.14-.19-.16-.32-.12-.08.02-.13.09-.2.13-.13.08-.47.1-.47.1Z" class="cls-5"/><path id="path2348" d="M48.66 77.3c.03.07 0 .17-.08.21s-.17.02-.2-.06c-.04-.08 0-.17.08-.21s.17-.02.2.06" class="cls-8"/><path id="path2357" d="m47.76 77.19.17.11c-.18.32-.24.35-.2.48.03.09 0 .24-.12.34-.13.1-.31.08-.4-.04s-.04-.26.05-.36c.05-.06.13-.08.2-.13.12-.08.3-.4.3-.4" class="cls-5"/><path id="path2359" d="M47.32 77.99c.05.07.14.08.21.02a.16.16 0 0 0 .04-.22c-.05-.07-.14-.08-.21-.02a.16.16 0 0 0-.04.22" class="cls-8"/><path id="path2361" d="M46.6 74.8v.21c.36-.03.42-.07.5.03.06.07.2.12.34.04s.21-.26.14-.39c-.06-.14-.2-.16-.33-.12-.08.02-.13.09-.2.13-.13.08-.47.1-.47.1Z" class="cls-5"/><path id="path2363" d="M47.47 74.75c.03.07 0 .17-.08.22-.08.04-.17.01-.2-.06a.17.17 0 0 1 .08-.21c.08-.04.17-.02.2.06Z" class="cls-8"/><path id="path2365" d="m46.67 74.87.15.13c-.23.29-.29.31-.27.45.02.09-.03.25-.17.33a.27.27 0 0 1-.38-.11c-.06-.14 0-.27.1-.35.06-.05.14-.06.22-.09.13-.07.35-.36.35-.36" class="cls-5"/><path id="path2367" d="M46.12 75.61c.04.08.13.1.21.06a.17.17 0 0 0 .08-.21c-.04-.07-.13-.1-.2-.05a.17.17 0 0 0-.08.21Z" class="cls-8"/><path id="path2370" d="m45.44 72.42.02.21c.35-.03.4-.07.49.03.06.07.2.12.34.04s.21-.26.14-.39c-.06-.14-.2-.16-.32-.12-.08.02-.13.09-.2.13-.13.08-.47.1-.47.1" class="cls-5"/><path id="path2374" d="M46.32 72.37c.04.07 0 .17-.08.21s-.17.02-.2-.06c-.04-.07 0-.17.08-.21s.17-.02.2.06" class="cls-8"/><path id="path2376" d="m45.54 72.37.15.14c-.23.29-.29.31-.27.45.02.09-.03.24-.17.32s-.31.03-.38-.1c-.06-.14 0-.26.11-.35.06-.06.14-.06.21-.1.13-.06.35-.35.35-.35Z" class="cls-5"/><path id="path2378" d="M44.99 73.11c.04.08.13.1.21.06a.17.17 0 0 0 .08-.21c-.03-.07-.13-.1-.2-.06a.17.17 0 0 0-.08.21Z" class="cls-8"/><path id="path2380" d="M44.21 69.91v.21c.36-.03.42-.07.51.03.06.07.2.12.34.04s.21-.26.14-.39c-.06-.14-.2-.15-.32-.12-.08.02-.13.09-.2.13-.13.08-.47.1-.47.1" class="cls-5"/><path id="path2382" d="M45.09 69.86c.04.07 0 .17-.08.21s-.17.02-.2-.06c-.04-.07 0-.17.08-.21s.17-.02.2.06" class="cls-8"/><path id="path2384" d="m44.31 69.86.15.14c-.23.29-.29.31-.27.45.02.09-.03.25-.17.33a.27.27 0 0 1-.38-.11c-.06-.14 0-.26.1-.35.06-.05.14-.06.21-.1.13-.06.35-.35.35-.35Z" class="cls-5"/><path id="path2386" d="M43.76 70.6c.04.07.13.1.21.06a.17.17 0 0 0 .08-.21c-.03-.07-.13-.1-.2-.06a.17.17 0 0 0-.08.21Z" class="cls-8"/><path id="path2340" d="M46.38 74.2c-.13.06-.31-.46-.44-.75-.14-.29-.42-.74-.34-.78.09-.05.2.19.34.49s.55.99.43 1.05Z" class="cls-8"/><path id="path2342" d="M45.12 71.44c-.13.06-.26-.28-.39-.57-.14-.29-.27-.5-.19-.54.09-.05.22.21.33.45.11.23.37.6.25.66" class="cls-8"/><path id="path2337" d="M48.04 77.68c-.1.03-.52-.82-.86-1.55s-.59-1.32-.51-1.36c.09-.05.36.64.7 1.37s.74 1.52.67 1.54" class="cls-8"/><path id="path2193" d="M54.35 56.98c0 .18-.2.35-.44.38-.24.02-.44-.11-.44-.29s.2-.35.44-.38c.24-.02.44.11.43.29Z" class="cls-5"/><path id="path2192" d="M51.81 57.04s.15-.29.51-.32c.15-.01.65-.07.65-.07.07.17.37.43.36.73 0 0-.3-.53-1.17-.45-.22.02-.36.11-.36.11Z" class="cls-7"/><path id="path2194" d="M52.92 57.01s-.21-.05-.21-.12c0-.09.1-.1.16-.04.04.04.05.15.05.15Z" class="cls-5"/><path id="path2196" d="M53.21 57.49s-.19.21-.23.32c-.18-.05-.5-.35-.5-.35s.27.13.72.03Z" class="cls-7"/><path id="path2191" d="M54.22 57c0 .17-.14.32-.31.34s-.3-.11-.3-.27.14-.32.31-.33c.17-.02.3.11.3.27Z" class="cls-8"/><path id="path2189" d="M54.05 57.01c0 .08-.06.14-.14.15-.08 0-.14-.05-.14-.13s.06-.14.14-.15c.08 0 .14.05.14.13" class="cls-5"/><path id="rect2189" d="M48.28 63.32s.51.34.51.73l-.07 8.18v1.24c-.01.25.06.4.18.55.12.16.38.37.64.52.82.46 2.2.89 3.25 1.27.87.31 1.22.44 1.67.96.46-.61.82-.8 1.7-1.29 1.05-.58 2.44-1.28 3.27-1.9.27-.2.53-.46.65-.64.12-.17.2-.34.2-.58v-1.24l.08-8.18c0-.39.52-.83.52-.83l-.55.05-.32.03-5.43.53-5.43.53-.32.03-.55.05Zm.66.23.21-.02 5.43-.53 5.43-.53.21-.02s-.15.2-.16.5l-.07 8.18v1.24c-.01.21-.23.71-1.46 1.44-2.04 1.21-3.6 1.83-4.07 2.45-.46-.53-2.01-.85-4.03-1.67-1.22-.49-1.43-.95-1.43-1.16v-1.24l.08-8.18c0-.3-.15-.47-.15-.47Z" class="cls-8"/></g></g><g id="White_Logo_RGB" data-name="White Logo RGB"><path id="WHITE_ESC_HEART" d="M56.13 129.5c1.03 1.13 2.54.85 3.24-.61C75.9 94 126.12 78.23 126.12 33.78c0-16.16-10.88-32.38-31.78-32.75-19.9-.36-37.77 12.46-39.63 33.22-.56-13.14-9.18-19.2-19.12-19.2C16.03 15.03.01 32.69.82 59.25c1.34 41.78 41.51 54.94 55.31 70.25m-3.56-85.25c.53 2.09 3.07 2.01 3.65-.05 8.61-31.2 48.19-34.61 48.19-3.02 0 24.94-44.21 51.56-47.58 75.24-8-15.53-37.39-24.07-37.39-57.83 0-28.74 27.94-34.77 33.12-14.34Z" style="fill:#fff"/></g></svg>