<svg xmlns="http://www.w3.org/2000/svg" viewBox="0 0 127.18 131.2"><defs><clipPath id="clippath"><path d="m59.39 124.96 1.04-7.35c1.47-10.32 12.12-22.11 22.43-33.52 12.38-13.7 25.18-27.86 25.18-42.12 0-12.41-6.81-24.94-22.03-24.94-9.34 0-20.76 5.46-27.59 17.23l-.56 1a41 41 0 0 0-2.69 6.13c-2.78-7.01-8.54-11.25-15.57-11.25-10.76 0-22.19 10.25-22.19 29.23 0 23.74 13.88 35.81 25.02 45.5 5.5 4.78 10.25 8.91 12.68 13.63l3.79 7.36.49-.91Z" style="fill:none"/></clipPath><style>.cls-5{fill:#ffc600}.cls-9{fill:#00689e}.cls-10{fill:#e17a0e}</style></defs><g id="MONTENEGRO"><g style="clip-path:url(#clippath)"><path d="M-3.65 27.02 115 10.35v102.58L-3.65 129.6z" style="fill:#e60000"/></g><path d="M56.96 116.63c-2.68-5.21-7.62-9.5-13.34-14.47-11.27-9.8-24.05-20.91-24.05-43.36 0-17.15 9.97-26.4 19.35-26.4 5.84 0 10.55 3.45 12.93 9.46l2.81 7.09 2.5-7.2c.69-2 1.54-3.92 2.51-5.71l.54-.96C66.96 23.44 77.96 19.3 85.33 19.3c6.18 0 11.05 2.26 14.48 6.71 3.04 3.95 4.72 9.42 4.72 15.39 0 13.17-12.43 26.92-24.45 40.22-10.59 11.72-21.54 23.84-23.13 35.02Z" style="fill:none;stroke:#ffc600;stroke-linejoin:round;stroke-width:7px"/><path d="M57.46 65.2c-.4.28-.63.26-.61.42s.37.23.37.23-.37.44-.65.66-.62.38-.62.38-.11.03-.05.2c.07.17.18.28.27.31.09.04.14.05.14.05s-.5.6-.72.8-.34.28-.52.37c-.18.1-.09.38-.05.5s.19.28.28.29.12.07 0 .27c-.09.15-.37.54-.5.76-.13-.17-.42-.49-.51-.61-.11-.16-.08-.23 0-.27.09-.04.24-.24.28-.37.04-.14.13-.44-.05-.49s-.3-.09-.52-.23-.72-.6-.72-.6.05-.02.14-.08.2-.2.27-.39c.06-.19-.05-.19-.05-.19s-.33-.07-.62-.21c-.28-.14-.65-.48-.65-.48s.36-.17.37-.34c.02-.17-.21-.08-.61-.25-.4-.16-.53-.42-.53-.42s.46-.22.69-.72c.08-.18.1-.33.09-.45h.02c.74.14 1.61.12 2.38 0s1.64-.33 2.38-.67h.02c0 .12.01.27.09.42.23.43.69.52.69.52s-.13.3-.53.57m-5.36-3.11c-.12.11-.32.08-.48.04s-.33-.06-.33-.06.04-.04.08-.13c.04-.08.04-.21 0-.43-.03-.21-.07-.44-.03-.57.03-.13.03-.27.26-.55.23-.29.61-.52.61-.52s-.05.09-.14.28-.31.69-.28 1.15.3.5.38.55c.07.05.04.12-.07.24m1.46-2.45c.4-.43.69-.53.69-.53-.02.41-.09.75-.15 1.14-.07.46-.03.67.06.88s.32.31.32.31-.08.02-.19.1c-.12.08-.24.19-.45.23-.2.04-.3 0-.43-.08-.13-.07-.28-.11-.28-.11s.07-.17.05-.35-.11-.39-.11-.58.09-.58.5-1m1.96 1.28c.09-.23.12-.45.06-.89-.06-.37-.13-.69-.15-1.09 0 0 .28.02.69.34.4.31.5.68.5.87s-.1.42-.11.61c-.02.18.05.33.05.33s-.15.08-.28.19-.23.18-.43.2c-.21.02-.33-.06-.45-.1-.12-.05-.19-.04-.19-.04s.24-.17.32-.4m2.07-1.58c-.09-.16-.14-.24-.14-.24s.38.13.61.35.22.36.26.48c.03.12 0 .36-.03.58s-.03.35 0 .42c.04.07.08.1.08.1s-.17.07-.33.15c-.16.09-.37.17-.48.09-.12-.08-.14-.14-.07-.22.07-.07.34-.19.38-.66.03-.47-.18-.91-.28-1.08m-8.17 23.07c-.19.38-.7.82-1.07 1.03-.37.22-.78.32-.95.37s-.03.23-.03.23l.18.23s-.03.08-.3.2-.6.22-.89.34c-.28.12.08.3.24.36s.12.16.03.26-.4.32-.56.4c-.16.07-.14.16.03.2.16.05.6.07.6.07s0 .02-.28.26c-.27.24-.75.45-1.06.51-.32.06-.81.15-1.45.21-.63.06-.7.06-.7.06s-.02-.21-.07-.51c-.04-.31-.23-.72-.38-.91-.15-.18-.45-.55-.45-.55s0-.09.03-.19c.02-.1 0-.21-.07-.39s-.44-.41-.44-.41-.01-.2-.01-.4-.13-.93-.25-1.26c-.12-.34-.69-1.19-.96-1.59-.27-.41-.42-1.04-.5-1.54s-.05-.67-.02-.81c.01-.06.04-.12.06-.17.11.13.25.24.43.32.77.36 2.31.19 2.31.19s-.17.07-.72.15-1.28 0-1.28 0-.02.04-.02.17.03.69.84.98c.81.3 1.7-.11 1.7-.11s-.07.07-.3.19-.85.33-.85.33c0 .5.43.71.77.77.57.11 1.23-.11 1.56-.23.34-.12.15.02-.17.2s-.77.27-.77.27c.07.35.78.56 1.05.58.68.05 1.18-.11 1.39-.22.2-.11.17 0 .1.06-.12.14-.33.2-.33.39 0 .06 0 .25 1.01.18 1.01-.08 1.35-.68 1.52-.88.18-.19.17-.1.12-.03-.04.07-.22.3-.37.54s-.08.44.59.32c.49-.09.82-.66.96-.95s.02.03.03.04c-.06.17-.17.45-.29.69m-9.44-4.14-.31.22s-.12-.23-.16-.31c-.03-.07-.02-.11.03-.11s.17-.06.27-.09c.01 0 .03 0 .04-.01.03.09.08.19.14.29h-.01m27.67-5.65c.35-.15 1.55-.67 2.39-1.47.85-.81 1.01-1.38 1.08-1.69s.1-.54-.12-.34-.88.81-1.32 1.12c-.45.31-.86.49-1.1.59s-.44.17-.2.05c.23-.13 1-.5 1.59-1.17s1.05-1.62 1.06-2.16c0-.54-.03-.5-.2-.34s-.79 1.01-1.14 1.35-.91.81-1.19 1.01-.68.44-.13-.01c.55-.46 1.6-1.49 2.02-2.71.43-1.21.35-1.88.34-1.99 0-.11-.11-.33-.2-.11-.1.23-.79 1.72-1.36 2.4-.56.68-.43.54-.55.66-.13.11-.34.32-.07-.06s.83-1.24 1.12-2.06.37-1.6.38-2.05c0-.45-.18-1.04-.27-1.21s-.17-.3-.2-.08-.47 1.66-.72 2.36c-.24.7-.73 1.53-.82 1.68-.1.16-.35.49-.08-.05s.79-2.1.86-3.51-.13-2.16-.32-2.52-.36-.47-.36-.47.03.95-.25 2.37c-.29 1.42-.7 2.2-.7 2.2s-.18.22-.06-.12c.08-.23.25-.75.33-1.59.08-.88.09-1.87-.16-2.68-.28-.88-.76-1.28-.76-1.28-.13 1.34-.11 3.03-.59 4.47-.09-.07-.21-.2-.26.11-.09.46-.26 1.34-.86 2.5-.59 1.16-.84 1.34-.84 1.34s-.11-.25-.19-.38-.12-.2-.22 0c-.1.21-.43 1.02-1.16 1.96s-1.13 1.4-1.11 2.03.35.9.79 1.12.52.37.45.72-.46.53-.8.59-.77.09-.92.2-.16.33-.32.51c-.15.18-.22.27-.36.32-.05.01-.09.03-.12.03-.03-1.65.61-2.48.61-2.48l-1.79-1.86c-.09.06-.19.11-.28.17a.3.3 0 0 0-.05-.07c-.24-.27-.32-.52-.32-.91.09 0 .27.04.43-.02s.04-.2 0-.35c-.05-.15-.1-.68-.07-.89s.05-.29.05-.29.26.25.42.23.15-.18.17-.37c.04-.28.16-.63.37-.85 0 0 .28.16.61.11s.76-.2 1.11-.58.34-.46.34-.46.65.14 1.15.09 1.02-.2 1.28-.76c.25-.56-.07-.99-.13-1.07-.06-.07-.22-.12-.22.03s0 .54-.29.78c-.3.24-.54.26-.82.21s-.68-.11-1.14.02c-.41.12-.46.16-.47.16.02-.02.39-.46.76-.62.37-.17.59-.04.72.09.12.13.23.35.33 0 .1-.36.04-.74-.12-.97s-.51-.34-.88-.25-.5.17-.5.17-.19-.5-.66-.54c-.58-.04-1.21.27-1.71.61 0 0-.39.14-.79.09-.26-.04-.52-.16-.67-.24.05-.16.13-.45.13-.45s.11-.05.23-.11.09-.1.11-.2c.01-.1-.22-.24-.22-.24s-.03-.29.36-.55.35-.22.35-.22.23.01.32-.07.09-.12.09-.12.17-.08.24-.2c.06-.11.08-.27.03-.38-.05-.12-.1-.13-.04-.2s.12-.21.13-.31v-.12s.13-.07.13-.27-.12-.27-.18-.28h-.1s-.01-.12-.12-.27c-.1-.15-.17-.21-.17-.21s.08-.07.03-.2c-.04-.13-.13-.2-.23-.21a.33.33 0 0 0-.19.03s-.31-.14-.45-.2c-.15-.06-.18-.07-.18-.07s0-.13-.06-.19c-.05-.06-.17-.07-.24-.07s-.13.05-.13.05-.52-.06-.74-.07c-.21 0-.23-.02-.23-.02s-.46-.16-.64-.17c-.18 0-.23-.02-.23-.02s.19-.25.2-.52a.61.61 0 0 0-.35-.57c-.1-.05-.16-.05-.2-.07v-.18l.34-.01.03-.56-.34.09.05-.34-.71.09.05.33-.34.02.03.55.36-.1-.03.21s-.13.04-.24.14c-.19.14-.34.37-.33.63s.17.47.17.47-.05.02-.23.08-.64.35-.64.35-.01.02-.23.08c-.21.07-.74.27-.74.27s-.07-.03-.13-.02-.19.06-.24.13c-.05.08-.06.21-.06.21l-.18.12c-.15.1-.45.33-.45.33s-.1-.02-.19.03c-.09.04-.19.14-.23.28s.03.19.03.19-.07.08-.17.26-.12.3-.12.3-.04 0-.1.03-.17.12-.18.33c0 .2.13.23.13.23v.12c0 .1.06.23.13.28.06.05 0 .08-.04.21-.05.13-.03.28.03.37.06.1.24.13.24.13s0 .04.09.1.32-.02.32-.02-.04-.03.35.12.36.45.36.45-.24.21-.22.3c.01.1 0 .14.11.17.12.03.23.05.23.05s.09.27.13.42c-.15.12-.41.32-.67.43-.4.17-.79.14-.79.14-.5-.21-1.13-.34-1.71-.13-.47.16-.66.72-.66.72s-.13-.04-.5-.03-.72.22-.88.5-.22.68-.12 1c.1.33.2.08.33-.09a.71.71 0 0 1 .72-.29c.36.06.73.39.76.41 0 0-.06-.03-.47-.03-.46 0-.85.17-1.14.3-.28.13-.52.17-.82.02s-.29-.55-.29-.69-.16-.06-.22.03-.38.62-.13 1.1c.25.49.78.49 1.28.4s1.15-.41 1.15-.41 0 .08.34.37c.35.29.79.31 1.11.27s.61-.28.61-.28c.21.16.34.48.37.75.02.18 0 .34.17.32s.42-.34.42-.34.02.08.05.28-.02.74-.07.91c-.05.16-.17.34 0 .35.16 0 .34-.08.43-.1 0 .39-.08.66-.32 1-.02.03-.04.06-.05.08l-.27-.09L49 73.36s.64.65.61 2.32-.08 0-.13 0c-.14 0-.21-.08-.36-.21s-.16-.35-.32-.42c-.15-.07-.58.03-.92.06-.34.04-.74-.03-.8-.36-.07-.33.01-.5.45-.85s.77-.71.79-1.35c.02-.63-.39-.98-1.11-1.72-.73-.74-1.06-1.45-1.16-1.63s-.14-.1-.22.05-.19.43-.19.43-.24-.11-.84-1.11c-.59-1-.77-1.82-.86-2.26-.05-.3-.17-.13-.26-.04-.48-1.31-.46-3.01-.59-4.31 0 0-.48.54-.76 1.49-.25.88-.24 1.87-.16 2.73.08.82.24 1.28.33 1.5.12.31-.06.14-.06.14s-.42-.67-.7-2.01c-.29-1.34-.25-2.3-.25-2.3s-.17.16-.36.58c-.19.41-.39 1.22-.32 2.61s.59 2.8.86 3.27.02.2-.08.07-.58-.82-.82-1.45-.69-1.95-.72-2.16-.12-.06-.2.14c-.09.2-.28.84-.27 1.29 0 .44.09 1.21.38 1.94s.85 1.44 1.12 1.74.06.16-.07.08 0 .02-.55-.5c-.56-.52-1.26-1.82-1.36-2.02s-.19.05-.2.16c0 .12-.09.81.34 1.9s1.47 1.84 2.02 2.14.15.17-.13.05a8 8 0 0 1-1.19-.68c-.35-.24-.97-.92-1.14-1.03s-.21-.14-.2.4c0 .54.47 1.36 1.06 1.87s1.35.67 1.59.73c.23.06.04.04-.2 0-.24-.03-.66-.09-1.1-.28-.45-.19-1.1-.61-1.32-.75s-.19.09-.12.38.23.81 1.08 1.38 2.05.75 2.39.8c.35.05.1.08.1.08s-.14 0-.84-.06-1.76-.46-2.05-.6-.33-.2-.29.17.44 1.13 1.09 1.42 1.81.32 2.12.29c.3-.03.22.03.09.06-.14.03-.47.08-1.02.09-.45.01-1.12-.11-1.35-.16-.03-.09-.05-.18-.06-.24-.03-.14-.1-.11-.15-.07s-.08.07-.24.17-.17 0-.17-.04c0-.05-.04-.25-.04-.36s-.06-.1-.14-.06c-.07.04-.43.24-.57.32-.13.08-.01.17.06.29s.18.29.18.29l-.44.18c-.11.04-.07.11-.05.18.03.07.19.42.24.53.04.1.14.02.14.02l.34-.25.12.43s-.16.06-.33.2-.13.29.08.32c.2.03.44.1.71.54.26.44.33 1.29.49 2.63s1.03 1.91 1.15 1.97c.12.07.05.15.05.15s-.12.19-.07.45.28.38.4.41.09.15.09.15-.06.3 0 .82.49 1.06.61 1.14c.12.09.13.14.11.18-.02.05-.09.02-.24.15-.14.13-.31.31-.41.51s-.07.31-.03.56c.03.25.41.43.41.43s-.07.03-.09.22.12.38.29.5c.17.11.49.14.49.14s.03.16.04.27c.02.11.23.19.37.25s.4-.02.51-.09.19-.02.26.08.04.53.04.7-.1.36-.04.44.22 0 .38-.12.2-.05.35.02c.14.07.37.13.43.11s.03-.17.03-.3.02-.42.08-.47c.03-.02.28-.08.47-.19.09-.05.2-.11.21-.19 0-.09-.12-.07-.4-.17-.28-.11-.33-.18-.51-.28-.18-.09-.09-.15-.09-.2s.09-.12.12-.2c.03-.07.02-.22.02-.22s.14-.17.21-.25c.07-.09.15-.22.25-.31.09-.09.24-.48.33-.61s.31-.29.43-.47c.13-.18.47-.49.66-.65.2-.16.72-.48.72-.48s0 .32.13.45c.14.13.32-.16.92-.68.6-.51 1.06-.73 1.06-.73s.13.18.29.36.31-.05 1.05-1.18c.58-.89 1.35-1.74 1.65-2.06.06.02.11.03.16.05-.01.04-.03.09-.04.14-.07.22-.18.37-.32.69s-.36.42-.62.85c-.25.43-.29.71-.31 1.12-.03.41.2.46.2.46s-.37.42-.48.7c-.11.29-.17.85-.17.85s-.06.03-.2.33-.38.38-.74.78c-.36.41-.76.62-.94.75-.19.14-.14.24-.08.38.05.14.31.25.6.31.3.07.4.01.6-.03s.04.15-.04.24c-.08.1-.2.41-.18.74s.26.22.57.12c.31-.09.66-.3.66-.3l-.03.1c-.03.1-.05.17-.05.43s.04.38.12.44.23-.11.34-.16.3-.19.57-.28c.27-.1.37-.23.37-.23s-.07.09-.08.28c-.02.19 0 .47.03.62.04.16.16.33.35.48.19.14.23.06.36-.17.14-.23.42-.54.42-.54s.02.07.2.64c.19.58.8.99.8.99s.61-.59.8-1.22.2-.7.2-.7.28.23.42.43c.14.19.18.26.37.07.19-.2.31-.41.35-.58s.05-.45.03-.63-.09-.26-.09-.26.1.1.37.13c.27.02.46.1.57.12s.26.14.34.06.12-.21.12-.47-.02-.33-.05-.42l-.03-.09s.36.1.66.11c.31 0 .55.05.57-.28s-.09-.61-.18-.69c-.09-.07-.25-.21-.04-.23.2-.02.31 0 .6-.14.3-.15.55-.33.6-.48s.1-.27-.08-.35c-.19-.08-.59-.18-.94-.49-.36-.31-.6-.31-.74-.58-.14-.26-.19-.28-.19-.28s-.06-.54-.17-.8-.48-.57-.48-.57.23-.12.2-.52-.06-.67-.31-1.03-.48-.4-.62-.68-.25-.4-.32-.6c-.01-.04-.03-.08-.04-.12.07-.04.15-.09.22-.13.3.23 1.07.87 1.66 1.59.74.92.89 1.11 1.05.89.16-.23.29-.44.29-.44s.46.09 1.06.43.78.59.92.42c.07-.09.09-.23.1-.33 0 0 .35.05.75.14.24.05.5.12.7.17.52.15.58.25 1 .53.42.27 1.01.16 1.57-.09s2.06-.95 2.66-1.3c.6-.34 1.03-.63 1.09-.76s.13-.47.13-.59-.13-.28-.18-.3c-.04-.03-.02-.12-.01-.2s-.03-.3-.12-.39-.08-.13-.07-.42c.03-.62-.41-1.34-1.04-1.5 0 0-.02-.07-.07-.1-.05-.04-.13-.06-.13-.06s.01-.36 0-.43c0-.08.03-.07.07-.06.04.02.11.09.21.1s.16-.07.19-.19c.02-.12.11-.36.14-.48.04-.12 0-.13-.05-.14h-.27c-.07 0-.07-.01-.05-.05s.04-.1.13-.26 0-.15-.08-.17c-.09-.02-.49-.08-.6-.09-.11 0-.14.1-.14.14v.32c0 .08-.07.06-.11.05-.04-.02-.14-.06-.21-.11-.08-.05-.13.01-.16.1s-.12.45-.15.55c-.03.11-.02.18.02.2.04.01.24-.03.36-.05s.05.06.05.06-.13.22-.17.31-.11.11-.21.12-.26.04-.26.04-.65.12-1.12.54c-.48.42-.61.73-.68.92-.07.18-.16.16-.23.23s-.28.32-.28.46.05.2-.16.36-.38.77-.1 1.04.39.56.48.69 0 .21-.07.22-.23-.09-.35-.17c-.13-.08-.77-.49-1.05-.66s-.07-.17-.07-.17.07 0 .23-.09.19-.18.03-.21-.48-.16-.56-.24c-.09-.07-.13-.16.03-.27s.52-.39.24-.43-.61-.05-.89-.09c-.27-.04-.3-.11-.3-.11l.18-.28s.14-.23-.03-.23-.58 0-.95-.11c-.75-.22-1.22-.7-1.39-1.35v-.02c.15.26.48.73.97.68.67-.07.75-.29.59-.49-.15-.2-.33-.37-.37-.43s-.06-.15.12 0 .51.66 1.52.45 1.01-.41 1.01-.46c0-.19-.21-.2-.33-.3-.06-.05-.1-.14.1-.09s.71.07 1.39-.17c.27-.1.98-.51 1.05-.88 0 0-.45.04-.77-.05s-.51-.18-.17-.16.99.07 1.56-.21c.34-.16.77-.49.77-.99 0 0-.62-.04-.85-.09s-.3-.1-.3-.1.89.16 1.7-.37c.81-.52.84-1.09.84-1.22s-.02-.17-.02-.17-.73.28-1.28.36c-.55.07-.72.05-.72.05s1.54-.26 2.31-.84.82-1.52.82-1.52-.88.43-1.43.58c-.55.14-.89.19-1.02.2-.14 0-.21-.02.09-.08s1.47-.42 2.12-.89 1.05-1.34 1.09-1.73 0-.31-.29-.09-1.35.92-2.05 1.18c-.7.25-.84.29-.84.29s-.24.03.1-.11" class="cls-10"/><path d="M49.28 66.99c-.16-.07-.58-.19-1.02-.17-.45.03-.79.14-1.16.29-.27.11-.48.15-.69.12-.32-.04-.57-.29-.65-.64 0 0-.3.42 0 .79.15.18.33.27.53.29.63.04 1.24-.43 1.76-.54.5-.1.89.16.89.16s.12.08.29-.04.22-.2.06-.27m14.59-2.93c-.08.37-.33.69-.65.82-.21.09-.43.11-.69.07-.37-.05-.72-.07-1.16.03-.45.1-.87.34-1.02.45-.16.11-.11.18.06.26.17.07.29-.04.29-.04s.39-.37.9-.41c.52-.04 1.14.26 1.76.04.19-.07.38-.22.53-.43.3-.45 0-.79 0-.79" style="fill:#e60212"/><path d="M59.88 73.84c0-1.25.58-2.12.58-2.12l-1.57-1.57c-1.49.79-2.86 1.01-4.07.57-1.22.79-2.58.95-4.07.58l-1.57 2.01s.58.71.58 1.96-.24 2.21-.38 2.84-.26 1.77.06 2.53.67 1.42 2.06 1.81 2.12.59 2.6.93.73.62.73.62.24-.36.73-.83c.48-.47 1.21-.88 2.6-1.66s1.74-1.54 2.06-2.39.2-1.97.06-2.55c-.14-.59-.38-1.48-.38-2.73M47.87 85.51s-.51.31-.67.38-.2.07-.2.07-.35.36-.6.55c-.27.19-.57.35-.88.43-.39.1-1.48.24-1.97.29s-.79.21-1 .47-.26.61 0 .83c.27.22.56.05.66-.12s.05-.37 0-.46c-.04-.09.09-.14.22-.16.14-.03.36-.04.57-.04s.58.07.74.14c.16.06.07.09-.04.09s-.23-.03-.43-.08-.36-.06-.49-.05c-.12.01-.08.07-.06.11s.09.14.11.18c.02.05-.04.24-.04.24l.06.11s.07-.13.1-.19c.02-.07 0-.18.02-.24s.13-.07.21 0c.08.08.17.18.22.41.04.23-.04.41-.04.41s.1.07.12.12-.02.28-.02.28.07.03.13-.1c.06-.14.14-.38.15-.46.02-.08.07-.24.17-.14s.17.22.19.29.02.12.02.12.22-.25.3-.38c.07-.13.23-.34.44-.54s.57-.6.75-.74.64-.45.78-.56.17-.12.19-.36.14-.48.2-.65.07-.24.07-.24m-.38-.14h-.15c-.09 0-.27-.04-.33-.05a.18.18 0 0 0-.2.06c-.06.07-.51.4-.51.4l.75-.1c.26-.04.43-.3.43-.3" class="cls-5"/><path d="M49.58 84.96v-.07l-.1-.2s-.12.09-.23.22c-.15.17-.3.41-.37.51-.12.18-.3.35-.15.08.15-.28.2-.39.32-.58s.21-.27.19-.28h-.42c-.31 0-.51-.09-.65-.15l-.4-.17s-.53.3-.73.38-.32.12-.12.19c.19.07.36.07.45.12s.39.1.57.07.48-.06.36.08-.25.4-.38.78-.13.71-.13.87.02.32.02.32.22-.27.8-.73c.59-.45.8-.61.91-.67s.16-.07.14-.21-.08-.47-.08-.54" class="cls-5"/><path d="m51.81 82.86-.11-.03s-.02 0-.03.01c-.07.04-.43.34-.57.59s-.29.3-.13.02.28-.44.4-.57l.12-.12c-.29-.1-.6-.22-.9-.39-.04.08-.11.23-.2.33-.12.15-.4.3-.4.3s.22-.26.3-.44c.05-.12.08-.24.1-.31-.21-.13-.41-.29-.59-.48-.04.15-.16.53-.51.98-.46.58-1.38.97-1.38.97s-.32.08-.06.11.45.12.96-.04.54-.19.61-.22.25-.04 0 .09-.85.3-1.07.32c-.23.01-.54 0-.21.13.32.13.46.18.66.15s.28.02.47 0 .25-.07.38-.12c.14-.05.23-.01.23.04s-.19.23-.18.61c0 .38.03.62.07.73.03.11.12.27.17.37.06.1.08.2.13-.03.06-.23.18-.56.23-.78s.08-.23.1-.34.14-.21.08 0-.12.47-.16.65-.14.53.03.24c.16-.28.78-1.07.89-1.2.1-.14.19-.27.26-.38.08-.11.29-.28.39-.45.09-.15.37-.45.48-.57-.18-.05-.36-.1-.55-.16m-12.03-5.28s-.09-.17-.11-.24-.09-.02-.09-.02-.16.11-.28.16-.14 0-.15-.05l-.06-.38c-.02-.13-.05-.12-.1-.09s-.2.1-.3.16-.07.1-.04.16c.03.05.15.28.21.36.05.08 0 .12-.06.16s-.15.06-.28.12c-.12.06-.12.09-.1.13.01.04.09.2.14.27s.09.01.09.01.13-.14.24-.21.12-.05.15.02c.03.08.16.49.18.57s.07.06.12.03c.06-.03.14-.06.2-.09.07-.03.09-.17.09-.17s-.24-.4-.31-.5 0-.14.05-.15c.05-.02.19-.06.32-.1.12-.05.09-.11.09-.15m2.73 11.48c-.02-.1 0-.21-.08-.28a.9.9 0 0 1-.22-.34c-.04-.12.03-.2.02-.27s-.11-.06-.21.04c-.1.09-.23.19-.23.42s.09.5.41.55c.33.05.32-.02.3-.12m.35-.16s-.07-.03-.1.03c-.03.07-.02.1.06.22s.14.15.24.19c.1.05.03-.07.02-.1-.01-.04 0-.09-.02-.11-.02-.03-.04-.06-.04-.16s-.16-.07-.16-.07" class="cls-5"/><path d="M43.26 89.97c.06-.1.12-.13.27-.22s.42-.16.51-.18.3-.23.27-.41a.273.273 0 0 0-.28-.24c-.12 0-.22 0-.26.07-.04.06-.1.14-.23.21-.13.06-.15.11-.23.14-.08.04-.02.08-.09.14s-.16.02-.27 0c-.1-.02-.11-.03-.23-.02s-.43.04-.43.04h-.08c-.07 0-.07.02-.1.1s0 .26.08.34c.07.08.31.09.47.12s.24.03.38.04c.14 0 .15-.02.22-.12m1.5-.08c.13-.1.06-.24.02-.33-.03-.09-.21-.08-.3-.07s-.14.02-.19.07-.12.12-.25.18c-.14.06-.24.13-.43.23-.18.1-.24.23-.32.29s-.23.03-.23.03-.11-.02-.15.02 0 .09.07.16.22.04.38.07.19-.01.25-.07c.06-.05.11-.15.22-.24.11-.08.35-.13.47-.16s.33-.1.46-.2m0-.54c.06.04.12.1.17.01s.13-.27.07-.36-.12-.17-.12-.17-.09.3-.14.38c-.04.08-.04.09.02.13m-.5-.77c0-.16-.11-.34-.11-.34s-.04.15-.1.29c-.07.14-.14.22-.14.22s.16.02.22.01.13-.02.13-.18m-.93.47c.17-.06.27-.14.34-.21s.12-.25.07-.32c-.05-.08-.17-.16-.22-.15h-.09s-.05.18-.12.27-.15.16-.14.26c0 .1 0 .22.17.16m.34-.85c0-.08-.02-.16-.08-.21s-.09-.08-.09-.08-.01.13-.02.19c-.01.07-.02.08-.02.08s.05.04.09.06c.04.01.12.04.12-.04m-2.13-4.08s.2-.03.12-.75c-.09-.72-.47-1.35-.77-1.79-.3-.43-.61-1.14-.75-1.52s-.23-.91-.23-1.2.12-.45.12-.45.05-.08 0-.13c-.05-.04-.13.01-.2.1-.08.09-.16.24-.19.35s-.03.14-.03.14-.15-.01-.4.04c-.25.06-.37.09-.37.15 0 .05.03.09.21.14s.29.07.38.16.32.59.39.84.22.92.28 1.46.25 1.18.5 1.69c.08.17.55.97.94.74m.45 1.25c-.17.12-.16.81-.09 1.15.07.35.43.74.53.85.11.1.13.1.19.06s.08-.04.08-.04.15-.07.26-.17.07-.32.05-.51-.17-.56-.44-.97-.41-.48-.58-.36m.19-.6c0-.22-.2-.37-.42-.34-.11.01-.2.05-.26.12-.23.24-.09.73.24.68.12-.02.26-.06.34-.15.08-.08.09-.21.09-.31m3.27 6.02c-.09 0-.14-.03-.28-.1-.13-.07-.34-.23-.38-.31s-.04-.09-.16-.03c-.13.06-.31.08-.44.1-.14.02.02.16.11.29.1.13.06.62.06.62s0 .04-.02.11 0 .12.03.13c.04.01.06-.02.15-.15.1-.12.27-.44.27-.44s.03 0 .17.02c.15.02.39-.04.51-.09s.06-.14-.03-.14" class="cls-5"/><path d="M44.88 91.21c-.06 0-.09 0-.12.04-.03.05-.06.13-.07.17-.02.04-.01.08.03.11s.09.06.09.06.05.05.11.07c.05.02.06-.06.06-.12s.03-.17.03-.24-.06-.09-.12-.09m-1.62-23.02c.02.38.44 1.04.67 1.4.24.35.3.5.26.53s-.14-.15-.27-.31c-.13-.15-.39-.52-.6-.8-.21-.27-.53-.96-.57-1.02s-.06-.1-.16 0c-.11.1-.31.93-.07 1.43.25.51.62.85.77 1.02.16.17.36.44.33.46-.03.03-.09-.04-.28-.21s-.5-.46-.71-.68c-.17-.18-.39-.55-.47-.69-.03-.05-.07-.03-.1 0-.07.08-.18.25-.13.68.07.59.38.89.66 1.16s.56.48.52.53-.33-.17-.53-.33-.68-.56-.79-.68-.26-.03-.25.49c0 .52.58.96.82 1.22.24.25.53.39.51.45s-.26-.05-.42-.14-.74-.38-.86-.45-.17.1-.02.57.58.81.83.95c.26.15.67.31.64.37-.02.06-.2.01-.44-.07a5 5 0 0 0-.73-.18c-.21-.03-.21.12-.21.12s-.04.43.26.72c.3.3.65.38.98.39s.38.02.37.07c0 .05-.04.06-.12.07s-.38.09-.66.13-.43.13-.43.25 0 .29.41.51c.42.22.89.2 1.09.21s.21.03.16.09c-.04.06-.13.07-.44.14-.31.08-.5.23-.54.32s.02.33.28.46c.25.14.58.15 1.08.05.49-.1.62-.13.63-.05.02.08-.15.13-.39.2-.25.08-.44.1-.58.24s-.03.36.21.5.83.06 1.08 0c.25-.05.63-.2.65-.13.02.06-.18.19-.44.32s-.33.19-.38.31c-.05.11 0 .21.3.28s.75.01.98-.13.35-.2.39-.16 0 .08-.05.15c-.05.06-.25.25-.5.35-.26.1-.28.11-.37.32-.09.22.14.35.6.3s1.08-.32 1.27-.46c.2-.14.27-.18.3-.14s.02.06-.07.15c-.1.09-.41.35-.57.42-.16.06-.17.18-.17.29s-.04.33.37.37.9-.1 1.34-.48c.14-.12.23-.22.27-.29-.04-.42-.02-.71.03-.98-.09 0-.25 0-.42-.04-.25-.06-.35-.28-.4-.4-.06-.12-.14-.1-.24-.06-.1.05-.2.1-.34.11a.83.83 0 0 1-.65-.25c-.21-.23-.17-.48-.18-.6 0-.12-.21 0-.3.01s-.39.01-.65-.13-.26-.39-.29-.49c-.02-.1-.13-.15-.21-.17s-.21-.04-.39-.16-.25-.4-.25-.5-.12-.09-.49-.23-.34-.54-.32-.7.19-.31.19-.37-.12-.06-.25-.11c-.12-.06-.44-.14-.44-.6s.3-.55.3-.55-.06-.02-.18-.07c-.12-.06-.46-.24-.46-.51s.12-.41.21-.49.34-.18.34-.18-.16-.08-.22-.28-.09-.46.07-.68c.16-.21.42-.25.56-.27s.26.04.31-.01.06-.08 0-.18a.8.8 0 0 1-.02-.46c.04-.1.05-.28.4-.44s.72.02.84.07.07-.1.07-.22-.24-.37-.51-.74-.39-.57-.7-1.15c-.3-.58-.5-1.36-.54-1.56s-.12-.09-.12-.09-.08.04-.27.55c-.19.5-.22.95-.21 1.32" class="cls-5"/><path d="M49.47 75.74c-.21.02-.49-.06-.7-.34s-.53-.31-1.08-.22-.81-.14-.94-.5c-.14-.36.02-.82.58-1.17s.82-.7.84-1.18-.56-.99-1.14-1.58-1.04-1.47-1.04-1.47-.17.25-.17.47.08.44 0 .52-.12-.08-.46-.18-.61-.08-.83.19c-.21.27 0 .67.19.84s.35.3.3.38-.34-.07-.43-.12c-.1-.05-.32-.26-.65-.18s-.45.19-.48.47.3.48.51.55c.21.08.3.16.24.21-.05.05-.11.01-.2 0-.1-.02-.36-.01-.53.07-.17.09-.45.36-.19.61.25.25.78.28.89.29.11 0 .16-.03.17.05s-.22.12-.51.17-.37.34-.33.54c.04.21.52.37.78.38.26 0 .36-.05.38.02s-.03.11-.18.17-.43.14-.49.38c-.05.24-.06.35.16.52s.58.09.69.05.23-.17.34-.08-.1.2-.28.36c-.18.15-.17.4.14.52.31.13.61.02.74-.04s.3-.29.38-.17-.26.21-.41.41-.1.49.2.63.78-.06.87-.14c.08-.09.19-.13.25-.08s-.03.24-.1.4c-.06.16-.18.61.26.72.45.11.85-.33.92-.42.07-.08.15-.11.21-.08.06.02.03.09-.02.17s-.17.42.15.59c.22.12.45.08.58.04.07-.26.15-.54.24-.92 0 0-.19.18-.24.23-.06.05-.11.1-.14.08s.11-.11.15-.17c.04-.05.11-.13.12-.19 0-.05.03-.08.11-.16.02-.02.04-.05.06-.07.05-.25.1-.55.15-.91.03-.24.05-.47.06-.68h-.14Zm-9.05-5.34c.47.89 1.14 1.34 1.14 1.34s-.09-.23-.13-.38c-.04-.16 0-.35 0-.35s-.17-.19-.48-.63c-.31-.43-.47-1.12-.47-1.12s.29.67.51 1.01.48.61.48.61.09-.34.15-.37.11.02.17.08c.06.07.1.05.1.05s-.08-.15-.19-.32c-.05-.08-.13-.16-.19-.24-.18-.25-.56-.73-.75-1.23-.2-.5-.62-1.77-.7-2.15-.07-.38-.15-.16-.22.14s-.18.72-.11 1.33c.07.6.21 1.34.69 2.23m.61 2.5c.18.11.44.25.44.25s-.04-.09-.07-.2-.04-.35-.04-.35-.21-.15-.35-.26-.33-.24-.69-.64-.07-.17.22.11.85.66.85.66v-.1c0-.1.03-.17.09-.25.05-.07.02-.08-.29-.28-.32-.2-1.13-1-1.47-1.5-.33-.5-.7-1.19-.7-1.19s-.18 1.12.49 2.24c.67 1.11 1.33 1.41 1.5 1.52m3.52 6.42c.37-.19.27-.54.27-.55s-.22.1-.43.21-.71.33-.92.36c-.2.03-.2 0-.21-.02 0-.03.15-.02.44-.12.29-.09.8-.43.89-.5s.08-.08-.05-.08-.24-.04-.29-.07-.18.04-.51.17c-.33.12-1.02.34-1.54.41s-1.02.05-1.1.05-.17.05.08.44 1.15.5 1.77.4c.62-.09 1.24-.51 1.61-.7m-1.65-.65c.64-.08.88-.31.88-.31s0-.03-.09-.15-.07-.34-.07-.34-.15.05-.42.12c-.27.08-.57.16-.92.14-.34-.01-.2-.07.08-.08.27 0 .79-.18.96-.26s.1-.13-.02-.15c-.11-.02-.42-.17-.42-.17s-.78.21-1.5.23-1.18-.1-1.32-.1c-.15 0-.14.06-.14.06s-.04.07.21.43.74.54 1.15.6.98.06 1.62-.02m-.17-1.47s-.03-.03-.07-.16.07-.24.07-.24-.15-.02-.62-.02c-.48 0-.5-.03-.8-.05-.29-.02-.49-.08-.48-.12 0-.03.1 0 .27.04s.91.01 1.21.01c.31 0 .48 0 .54-.03.05-.04.24-.12.24-.12s-.13-.02-.29-.02-.31-.05-.4-.1-.11-.06-.5-.05-.7-.07-1.4-.23-1.23-.39-1.37-.48-.13-.01-.09.13.03.33.39.69c.35.36.53.52 1.41.72.89.2 1.89.02 1.89.02m-2.63-1.79c.79.44 1.71.52 1.9.51.04-.06-.05-.23 0-.35.05-.14.14-.15.33-.19s.07-.06.02-.05-.05 0-.37-.03c-.31-.04-.63-.04-1.07-.14-.43-.1-.56-.2-.55-.24.01-.03.2.08.6.17.4.1.87.09 1.12.11s.03-.06-.09-.11-.29-.29-.29-.29-.28 0-.74-.09c-.46-.08-.85-.18-1.23-.34-.13-.06-.26-.13-.4-.21-.26-.15-.53-.31-.63-.37-.16-.09-.11 0-.09.06.02.07.12.38.37.7s.33.42 1.12.86m-.13-1.54c.78.5 1.44.6 1.56.63.11.03.1-.03.08-.09s-.04-.27-.04-.27-.28-.12-.59-.25c-.31-.14-.65-.33-.88-.46s-.09-.13-.02-.08.39.19.7.34.79.37.79.37.01-.1.08-.18c.07-.07.23-.08.23-.08s-.08-.07-.13-.14-.3-.11-.59-.21-.8-.4-1.18-.67-1.12-.97-1.17-1.03-.08-.04-.09.04c0 .08-.03.14.05.5s.42 1.08 1.2 1.59m2.75-6.2c.09.17.18.29.25.4.1.16.16.27.16.27s.02-.07 0-.17c-.02-.11-.03-.25 0-.44.02-.1.04-.2.03-.28 0-.1-.04-.17-.05-.23-.02-.1-.14-.54-.19-.85s-.11-.76-.11-1.16.06-.21.06-.01.02.49.08.94.26 1.13.26 1.13.01-.11.07-.27.15-.35.23-.55c.07-.2.05-.23.05-.23s-.27-1.26-.34-1.87-.19-2.21-.19-2.21c-.4.46-.69 1.55-.75 2.56-.04.76.08 1.44.12 1.71.07.55.17.97.31 1.25m-.88 2.19c.01-.3.08-.53.27-.62 0 0-.17-.27-.32-.67-.1-.27-.18-.63-.23-.91-.1-.68-.19-1.39.02-.24s.46 1.53.46 1.53l.3.45a2.3 2.3 0 0 1-.04-.6c.01-.24.04-.56.11-.82 0 0-.36-.68-.59-1.52s-.36-1.62-.36-2.1c-.02-.46-.03-.63-.03-.63s-.37.33-.5 1.78c-.12 1.45.25 2.76.44 3.25s.47 1.1.47 1.1m4.09 10.32-.24-.12c-.18-.09-.12-.43-.12-.43s-.05.04-.18.15-.28.23-.45.32c-.18.1-.27.16-.38.21s-.08 0 .01-.07.12-.1.36-.23.71-.61.71-.61-.11 0-.31.03c-.19.02-.44-.04-.44-.04s-.19.2-.98.65-1.45.63-1.45.63.08.39.46.47c.31.09.74.11 1.59-.21.84-.32 1.42-.76 1.42-.76m1.03.66c.07-.34-.12-.54-.12-.54s-.04.03-.16.15-.29.35-.62.56-.45.22-.13 0 .79-.77.79-.77l-.12-.03c-.12-.03-.34.08-1.22.74-.89.66-1.41.75-1.41.75s.4.42 1.47.24c1.08-.19 1.46-.76 1.53-1.1m2.03-.67s-.12.18-.28.31-.58.25-.58.25-.02.05-.1.17-.27.4-.45.56c-.19.16-.48.29-.5.26s.17-.13.35-.27.35-.37.47-.53-.05-.11-.05-.11-.22.04-.43.05-.17.02-.22.13c-.06.11-.14.21-.3.41-.19.24-.37.46-.54.7-.12.16-.03.19-.03.19s.05.08.53.07c.3 0 .62-.09.95-.33.21-.15.42-.37.64-.64.57-.71.54-1.22.54-1.22m.25 1.26c-.12.17-.18.24-.18.24s.08-.27.15-.39c.04-.07.08-.13.11-.18-.08-.17-.14-.35-.19-.55-.05.18-.22.7-.42 1.05-.25.43-.47.6-.32.69.14.09.42.07.73-.13.3-.19.39-.46.43-.68q-.075-.105-.15-.24c-.04.03-.1.08-.16.17m17.98-11.1c.25-.22.68-.67.83-1.19s.09-.66-.02-.56c-.12.1-.7.56-.86.69s-.39.31-.42.26c-.02-.05.27-.27.51-.59s.81-.93.82-1.45c0-.52-.15-.56-.25-.42-.11.15-.59.68-.79.9s-.49.51-.53.48c-.04-.04.24-.33.52-.67s.59-.73.66-1.34c.05-.44-.06-.58-.13-.64-.03-.02-.07-.03-.1.03-.08.16-.31.6-.47.82-.21.28-.52.66-.71.88s-.25.31-.28.29.17-.35.33-.56.53-.66.77-1.24c.25-.58.04-1.35-.07-1.42s-.12-.02-.16.05-.35.84-.57 1.18c-.21.33-.47.77-.6.97-.13.19-.23.4-.27.38s.02-.18.26-.61c.24-.42.66-1.2.67-1.59.02-.38-.02-.81-.21-1.26s-.27-.47-.27-.47-.08-.09-.12.12-.24 1.05-.54 1.72-.43.9-.7 1.35-.51.77-.51.89-.05.28.07.2.48-.37.84-.31c.35.07.36.25.4.33s.03.35-.02.46-.04.15 0 .18c.05.03.17-.06.31-.08s.4-.06.56.11.13.43.07.66c-.07.22-.22.34-.22.34s.25.03.34.08.21.16.21.43-.34.55-.46.64-.18.12-.18.12.3 0 .3.47c0 .46-.32.63-.44.72s-.25.13-.25.18.17.17.19.32.05.54-.32.79c-.37.24-.48.26-.49.36 0 .1-.07.4-.25.57s-.31.23-.39.27-.19.13-.21.23-.02.35-.29.57c-.26.22-.55.3-.65.31s-.3-.05-.3.08.03.37-.18.65c-.21.29-.51.4-.65.43s-.24 0-.34-.02-.18 0-.24.12c-.06.13-.16.38-.4.51-.17.09-.33.14-.42.16.05.26.07.55.03.97.05.07.13.14.27.22.44.25.93.26 1.34.1s.37-.37.37-.47-.02-.22-.17-.24c-.16-.02-.47-.2-.57-.26s-.11-.08-.07-.13c.03-.05.11-.03.3.06.2.09.81.18 1.27.1s.69-.28.6-.47-.11-.19-.37-.22a1 1 0 0 1-.5-.21c-.05-.05-.09-.09-.05-.13.04-.05.16-.02.39.05s.67.01.98-.15c.3-.16.35-.26.3-.36s-.12-.15-.38-.2c-.25-.05-.46-.12-.44-.19s.4-.03.65-.05.84-.1 1.08-.31.35-.46.21-.56-.33-.07-.58-.08c-.25 0-.41 0-.39-.09.02-.08.14-.09.63-.13s.82-.14 1.08-.35.32-.46.28-.54-.23-.17-.54-.16-.4.03-.44-.02-.03-.07.16-.14c.2-.07.67-.18 1.09-.52s.41-.5.41-.63-.15-.17-.43-.13-.58.05-.66.06-.11 0-.12-.04c0-.05.04-.07.37-.18.33-.1.67-.28.98-.66.3-.38.26-.79.26-.79s0-.15-.21-.06-.49.23-.73.38-.41.25-.44.19c-.02-.05.39-.33.64-.55" class="cls-5"/><path d="M66.14 69.33c-.17-.04-.43.03-.53.07-.1.05-.15.1-.2.06-.05-.03.03-.14.24-.28s.54-.43.51-.7-.15-.35-.48-.34-.55.29-.65.37-.38.31-.43.24.11-.24.3-.47.4-.68.19-.9c-.21-.21-.49-.15-.83.04-.34.2-.37.36-.46.31-.08-.05 0-.3 0-.52s-.17-.42-.17-.42-.46 1.01-1.04 1.76-1.17 1.43-1.14 1.9c.02.47.28.75.84.94.56.2.72.61.58 1.01s-.39.7-.94.77-.87.19-1.08.52c-.21.34-.49.49-.7.53l-.14.03q0 .315.06.66.075.51.15.87.015.03.06.06c.08.05.1.08.11.13 0 .05.08.11.12.15s.18.1.15.12c-.03.03-.08-.01-.14-.04s-.13-.08-.18-.12l-.06-.04c.09.36.17.61.24.85.13 0 .36-.02.58-.2.32-.27.2-.57.15-.64s-.08-.13-.02-.17.14-.04.21.02.48.39.92.16.33-.65.26-.79c-.06-.14-.16-.3-.1-.37s.17-.06.25 0 .57.12.87-.1.35-.53.2-.69-.5-.15-.41-.29c.08-.14.25.04.38.06s.43.05.74-.17c.31-.21.32-.46.14-.56s-.38-.16-.28-.28c.11-.12.23-.02.34-.02s.47-.01.69-.25c.22-.23.21-.34.16-.56-.05-.23-.34-.22-.49-.24s-.2-.05-.18-.12c.02-.08.12-.05.38-.13s.74-.38.78-.6-.04-.48-.33-.45-.52.06-.51-.02c.01-.09.06-.06.17-.1s.64-.22.89-.54-.02-.52-.19-.56m1.95-1.27s.67-.63 1.14-1.66c.47-1.02.62-1.8.69-2.42s-.04-1.02-.11-1.29c-.07-.28-.15-.48-.22-.08s-.5 1.79-.7 2.35c-.19.56-.58 1.14-.75 1.44l-.19.29c-.12.21-.19.37-.19.37s.05 0 .1-.08c.06-.08.1-.14.17-.13.06 0 .15.33.15.33s.26-.34.48-.75.51-1.15.51-1.15-.16.73-.47 1.25-.48.76-.48.76.03.18 0 .35c-.04.17-.13.42-.13.42m2.52-3.3s-.36.79-.7 1.39c-.33.6-1.15 1.63-1.47 1.92s-.34.3-.29.36.08.13.09.22v.1s.56-.54.85-.9.58-.67.22-.17-.54.68-.69.83c-.14.15-.35.36-.35.36s-.01.24-.04.36-.07.22-.07.22.26-.21.44-.37c.18-.15.84-.64 1.5-1.94.67-1.3.49-2.37.49-2.37m-3.22-3.53c-.05-.99-.35-2-.75-2.35 0 0-.11 1.63-.19 2.26-.07.63-.34 1.97-.34 1.97s-.03.04.05.22c.07.18.17.34.23.49s.07.25.07.25.19-.73.26-1.2c.06-.47.08-.77.08-.97s.06-.41.06 0c0 .4-.05.87-.11 1.19-.05.33-.17.79-.19.9-.01.06-.05.14-.05.24 0 .09.02.18.03.27.03.17.01.33 0 .44-.02.11 0 .17 0 .17l.16-.32c.07-.13.17-.28.25-.47.15-.32.24-.77.31-1.34.03-.29.16-1 .12-1.75m.93 3.79c.19-.55.56-1.97.44-3.38s-.5-1.64-.5-1.64-.01.18-.03.64c0 .48-.14 1.29-.36 2.2-.23.91-.59 1.69-.59 1.69.07.24.1.56.11.79s0 .39-.04.61l.3-.53s.25-.45.46-1.66.12-.48.02.24c-.04.29-.13.67-.23.97-.15.44-.31.76-.31.76.19.04.26.25.27.55 0 0 .28-.69.47-1.23m.27 10.34c-.08.03-.57.19-1.1.26s-1.21.05-1.54.02-.47-.07-.51-.02a.65.65 0 0 1-.29.15c-.13.03-.14.04-.05.09s.6.24.89.25.45-.04.44 0c0 .03 0 .06-.21.08-.2.02-.71-.05-.92-.1s-.43-.09-.43-.09-.1.38.27.47.99.33 1.61.25 1.51-.44 1.77-.9c.25-.46.17-.5.08-.47m1.02-1.86c-.15.04-.6.29-1.32.47s-1.5.19-1.5.19-.31.24-.42.29-.18.12-.02.15c.17.04.69.06.96-.01s.42-.05.08.05c-.34.11-.65.11-.92.11h-.42s.02.22-.07.36-.09.17-.09.17.24.16.88.06 1.2-.26 1.62-.43c.41-.18.9-.5 1.15-.93s.21-.49.21-.49 0-.06-.14-.02m.92-2.19c-.14.13-.67.51-1.37.87-.7.35-1.01.52-1.4.62s-.42.12-.5.19c-.09.07-.23.16-.4.21-.16.05-.29.11-.29.11s.19.02.24.05.23-.03.54-.12 1.04-.27 1.21-.36.27-.15.27-.12-.19.15-.48.25c-.29.11-.32.15-.8.27-.48.13-.62.19-.62.19s.11.08.07.22-.07.18-.07.18 1-.1 1.89-.55 1.06-.65 1.42-1.12c.35-.46.35-.65.38-.8.04-.15.05-.23-.09-.1m.43-1.98c-.1.09-.37.32-.63.55-.14.12-.27.23-.4.33-.38.27-.77.48-1.23.69s-.74.29-.74.29-.17.28-.29.37-.34.23-.09.14.72-.22 1.12-.42c.4-.21.59-.37.6-.34s-.12.17-.55.39-.75.32-1.07.44c-.31.13-.33.13-.37.14s-.17.06.02.05c.19-.02.27-.03.33.1.04.11-.05.3 0 .35.2-.05 1.12-.38 1.9-1.05.79-.66.87-.78 1.12-1.18.25-.39.36-.73.37-.81.02-.07.07-.17-.09-.04m-2.95.92c.07.06.08.16.08.16s.48-.35.79-.59.63-.47.7-.54.21-.1-.02.09-.57.48-.88.7l-.59.42s-.02.21-.04.28-.03.13.08.07.78-.35 1.56-1.07 1.12-1.54 1.2-1.92.05-.43.05-.51-.04-.09-.09-.01c-.05.07-.79.98-1.17 1.35s-.89.83-1.18 1c-.29.18-.54.29-.59.38-.05.08-.13.18-.13.18s.16-.04.23.02m-3.22 6.41s-.25.14-.44.17c-.2.03-.31.06-.31.06s.47.35.71.41.27.09.36.13.12.08.01.06-.2-.05-.38-.1-.32-.13-.45-.2-.18-.1-.18-.1.05.33-.12.47c-.18.14-.24.19-.24.19s.58.27 1.42.36c.84.08 1.28-.06 1.59-.24.38-.19.46-.6.46-.6s-.67 0-1.45-.22c-.79-.23-.98-.38-.98-.38m-1.71 1.29-.12.06s.47.42.79.55.2.16-.13.04-.5-.3-.62-.39-.16-.11-.16-.11-.19.26-.12.58.46.78 1.53.67c1.07-.12 1.47-.65 1.47-.65s-.52.06-1.41-.35-1.1-.46-1.22-.4m-.31 1.28c-.15-.16-.24-.23-.3-.33-.06-.09-.02-.12-.22-.07a4 4 0 0 1-.43.07s-.18 0-.05.13c.12.12.29.31.47.39.18.09.37.13.35.17s-.31 0-.5-.12c-.19-.11-.37-.34-.45-.43s-.1-.14-.1-.14-.43 0-.58-.09a1 1 0 0 1-.28-.23s-.03.52.54 1.07c.22.21.43.37.64.46.34.15.66.14.95.06.48-.12.53-.22.53-.22s.09-.05-.03-.18c-.18-.19-.36-.36-.54-.55m-2.24-.21c-.05.21-.11.41-.19.6.03.04.07.09.11.15.07.11.15.35.15.35s-.06-.06-.18-.19a.5.5 0 0 0-.16-.13c-.05.1-.1.19-.15.28.04.2.13.45.43.56.31.11.59.05.73-.08s-.08-.24-.32-.6c-.2-.3-.37-.77-.42-.94m-.27-14.89c0 .11.1.19.22.17s.22-.12.22-.23-.1-.19-.22-.17-.22.12-.22.23m-2.45.23c.11.05.23.1.35.11.43.06.87-.08 1.21-.27.43-.29.78-.49 1.05-.55.22-.05.33.03.53 0 .07 0 .12-.03.14-.08.04-.09.02-.3-.29-.43-.3-.13-.76-.05-1.16.12-.4.18-.64.37-.8.51s-.35.35-.4.32.09-.14.17-.23.11-.12.11-.12c-.44.09-.92.01-1.31-.21 0 0-.13.6.4.82" class="cls-5"/><path d="M62.29 63.39c-.3-.09-.59-.04-.95.15s-.54.32-.54.32.05.31-.17.48-.44.12-.5-.01c-.06-.14-.08-.21-.08-.21s-.35.24-.82.39c-.27.09-.76.21-1.08.13 0 0-.29.32-.5.52s-.44.37-.44.37.03.06.13.08.13.03.07.15c-.07.12-.56.63-.77.81s-.52.34-.52.34.1.17.24.21.17.13.11.24-.56.74-.78.96c-.21.22-.37.27-.46.31s-.26.16-.08.34c.19.19.62.2 1.06.01s.86-.76.86-.76-.09.76-.09 1.1.04.74.1.93.12.29.12.29.3-.21.5-.75.25-.84.25-.99 0-.24.14-.18c.13.06.24.1.29.1h.08s-.08-.36-.08-.64.09-.9.21-1.03.14.02.15.09c.02.14.15.3.32.33.06-.42.15-.77.49-1.18.06-.07.1-.17.31-.11.31.08.71.1 1.02-.06.31-.17.54-.52.47-.55-.02 0-.48.3-.84.23s-.53-.16-.32-.41.3-.29.72-.69c.42-.41.76-.63 1.13-.62.37 0 .44.22.47.25.03.04.19.14.19-.16s-.14-.69-.44-.78m-3.93 6.55c-.07-.09-.21-.37-.21-.37s-.01.07-.09.29-.29.55-.29.55.17-.06.37-.15c.19-.09.33-.22.33-.22s-.03-.01-.1-.11" class="cls-5"/><path d="M56.83 69.01s-.12.32-.39.63c-.27.3-.47.3-.47.3s.03-.01.23-.18.4-.61.4-.61c-.22.16-.73.36-1 .35 0 0-.04.1-.1.27s-.25.51-.36.66c-.1.15-.02.16-.02.16s.05.05.69.14 1.21-.09 1.21-.09-.02-.05-.13-.47-.05-1.14-.05-1.14m-7.9-3.38c0 .11.1.19.22.17s.22-.12.22-.23-.1-.19-.22-.17-.22.12-.22.23m-.24-.35c.2-.03.31-.14.53-.15.26-.01.62.09 1.05.26.34.1.78.12 1.21-.06.12-.05.24-.13.35-.21.52-.37.4-.94.4-.94-.39.33-.86.55-1.31.58 0 0 .03.02.11.09s.21.13.17.18c-.05.04-.24-.11-.4-.21s-.4-.22-.8-.28-.86 0-1.16.21-.33.43-.29.51c.02.04.08.05.14.04" class="cls-5"/><path d="M54.38 68.76c-.09-.01-.25-.02-.46-.18s-.72-.65-.78-.74-.03-.19.11-.27.24-.28.24-.28-.31-.07-.52-.2c-.21-.12-.7-.49-.77-.59s-.03-.12.07-.17.13-.12.13-.12-.23-.11-.44-.25-.5-.38-.5-.38c-.32.17-.81.19-1.08.18-.47-.02-.82-.16-.82-.16s-.02.08-.08.23-.28.27-.5.15c-.22-.11-.17-.43-.17-.43s-.18-.08-.54-.17c-.36-.08-.66-.06-.95.12-.3.18-.44.6-.44.91s.16.16.19.11.1-.28.47-.39.71.02 1.13.31.51.3.72.49.04.33-.32.5-.83 0-.84 0c-.07.04.16.34.47.41.31.08.71-.06 1.02-.23.21-.11.25-.03.31.02.34.31.43.64.49 1.04.17-.08.3-.27.32-.42.01-.07.03-.22.15-.13s.21.69.21.97-.08.66-.08.66.03 0 .08-.02.15-.09.29-.18c.13-.1.14-.01.14.14s.05.43.25.92.5.61.5.61.06-.11.12-.32.1-.61.1-.96-.09-1.08-.09-1.08.42.46.86.52c.44.07.88-.07 1.06-.31.19-.24.02-.31-.08-.32" class="cls-5"/><path d="M51.5 70.5s-.13.31-.21.43c-.07.12-.1.14-.1.14s.13.09.33.13c.19.03.37.05.37.05s-.22-.27-.29-.47c-.08-.2-.09-.27-.09-.27m2.62-.55c-.06-.16-.1-.24-.1-.24-.27.09-.78.04-1-.07 0 0 .2.38.4.5.2.11.23.12.23.12s-.2.06-.47-.17-.39-.52-.39-.52.06.7-.05 1.15-.13.51-.13.51.57.02 1.21-.25.69-.33.69-.33.08-.03-.02-.15-.29-.4-.36-.56m-2.25 16.3c.13.03.39-.11.51-.28.13-.17.17-.41.26-.56s.15-.26.15-.26-.02.22-.14.54c-.11.3-.13.69-.11.85.05.32.27.35.39.29.1-.05.24-.21.37-.45.04-.08.07-.18.11-.26.09-.17.16-.45.2-.45.08 0 .03.2 0 .33-.06.26-.19.65-.2.87 0 .23.02.63.24.61.22-.01.34-.23.47-.7s.15-.62.21-.63.05.31.05.44c0 .05 0 .17.02.3.03.24.11.52.18.58.11.08.2.05.2.05s.09 0 .2-.11.2-.8.2-.93 0-.45.05-.46.08.13.21.57.24.62.47.57c.22-.05.25-.46.24-.68s-.13-.57-.2-.82c-.06-.24.03-.24.2.06.05.09.11.21.16.29.12.17.24.27.32.29.13.03.34-.06.39-.4s-.2-1.25-.2-1.25.02.02.11.15c.09.12.13.35.26.48s.38.2.51.13c.13-.06.15-.32.05-.75s-.5-.63-.79-.95c-.26-.29-.47-.84-.5-.93-.36.23-.68.48-.96.82-.59.7-.72.88-.72.88s-.13-.14-.72-.67c-.29-.26-.61-.42-.97-.55-.03.08-.28.67-.55 1.04-.13.18-.32.34-.45.51-.15.21-.24.44-.3.69-.1.46-.08.71.05.74" class="cls-5"/><path d="M51.87 87.77c.17-.18.26-.27.26-.27s.13-.12.09.08c-.03.2-.1.62-.06.8.04.17.06.32.28.16s.27-.25.38-.37c.11-.13.22-.19.19-.01s-.11.45-.07.8.21.38.44.04c.23-.33.36-.62.43-.78s.21-.3.21-.03c0 .59.13 1.43.78 1.56.65-.32.78-1.19.78-1.78 0-.27.14-.17.2-.03.07.14.21.39.43.66.23.27.4.19.44-.17s-.04-.61-.07-.78.08-.14.19-.04.16.17.38.27.24-.05.28-.24c.04-.18-.03-.59-.06-.78-.03-.2.09-.11.09-.11l.26.2c.17.13.41.1.41.1s.11-.63-.15-.97c-.26-.33-.35-.44-.35-.44s-.15.01-.26-.02-.22-.09-.22-.09v.34s.32.26.39.33c.07.08.22.21 0 .09s-.39-.24-.39-.24-.04.32-.13.41-.22.12-.27.11h-.05l-.02.11s.19.34.22.48-.02.13-.11-.04c-.09-.18-.26-.39-.34-.51s-.19-.19-.18-.03c.01.17-.06.48-.12.6s-.09.16-.09.16.12.41.14.49 0 .17-.06.08c-.07-.09-.26-.48-.26-.48s-.26.03-.33-.04c-.07-.06-.19-.33-.19-.33s-.11.38-.19.51c-.09.13-.29.27-.29.27s-.01.63-.03.75c-.01.11-.02.16-.07.17s-.05-.04-.07-.15c-.01-.11-.03-.74-.03-.74s-.2-.09-.29-.19-.19-.45-.19-.45-.12.3-.19.38-.33.13-.33.13-.19.45-.26.56-.08.02-.06-.06.14-.52.14-.52-.04-.03-.09-.13c-.06-.1-.13-.4-.12-.57s-.11-.06-.18.08c-.08.14-.25.41-.34.61s-.13.22-.11.07c.03-.15.22-.54.22-.54l-.02-.12-.05.03c-.05.03-.18.04-.27-.03s-.13-.37-.13-.37-.18.17-.39.35c-.22.18-.07 0 0-.1s.39-.44.39-.44v-.34s-.11.1-.22.15c-.11.06-.26.09-.26.09s-.09.13-.35.54-.15 1.01-.15 1.01.24-.04.41-.22" class="cls-5"/><path d="M51.18 89.97c.16-.12.29-.25.64-.53s.48-.56.48-.56l-.12.02c-.07 0-.12-.08-.13-.17 0-.09 0-.29.03-.51.03-.23-.04-.4-.04-.4s-.15.16-.38.31-.32.11-.32.11l-.06-.22s-.1.22-.24.48-.52.59-.79.83-.56.49-.79.6c-.22.11-.09.19-.09.19s.22.19.8.21c.57.02.85-.25 1-.37" class="cls-5"/><path d="M53.19 89.47c-.21 0-.33-.05-.37-.27-.03-.14.01-.7.01-.7s-.07.07-.14.17c-.08.1-.25.15-.25.15s-.03.08-.1.22c-.08.14-.18.3-.37.45-.2.15-.42.33-.57.47-.15.15-.33.32-.52.45-.2.14-.37.34-.44.64s-.02.39.21.34.25-.03.62-.18c.37-.14.89-.63 1.27-.93s.66-.82.66-.82" class="cls-5"/><path d="M54.2 89.66s-.16-.17-.21-.39c-.06-.21-.17-.64-.17-.64s-.05.15-.18.43c-.12.28-.34.37-.34.37s-.01.12-.19.36c-.18.25-.43.49-.7.68-.26.19-.61.45-.79.74-.19.29-.2.57-.11.67.09.11.21-.05.39-.16s.68-.26 1.37-.73.92-1.35.92-1.35" class="cls-5"/><path d="M54.5 91.17c.19-.31.22-1.01.22-1.01s-.07-.04-.16-.1-.27-.31-.27-.31-.11.25-.24.49c-.12.24-.19.33-.44.6-.26.28-.61.56-.76.83-.15.28-.07.77.03.93s.24.08.38-.08.19-.2.44-.46c.25-.25.61-.58.8-.9m5.66-2.73c-.22-.05-.52-.22-.79-.38s-.65-.38-.79-.61c-.14-.22-.24-.42-.24-.42l-.06.24s-.09.07-.32-.02-.38-.21-.38-.21-.06.19-.04.41c.03.22.03.41.03.5s-.06.2-.13.2l-.12.02s.13.24.48.43c.35.18.49.27.64.35.16.08.43.27 1 .09s.8-.44.8-.44.13-.12-.09-.17" class="cls-5"/><path d="M58.77 89.3c-.2-.08-.37-.2-.52-.31-.15-.1-.38-.22-.57-.31a.9.9 0 0 1-.37-.35c-.08-.11-.1-.19-.1-.19s-.18 0-.25-.08c-.08-.08-.14-.13-.14-.13s.04.55.01.7c-.04.23-.16.32-.37.37 0 0 .28.44.66.63s.9.53 1.27.57.39.02.62 0 .28-.12.21-.4a.7.7 0 0 0-.44-.51" class="cls-5"/><path d="M57.2 89.81c-.26-.12-.52-.29-.7-.49s-.19-.31-.19-.31-.21-.03-.34-.28c-.12-.25-.18-.38-.18-.38s-.11.46-.17.69-.21.45-.21.45.23.81.92 1.09 1.19.28 1.37.35c.18.06.3.18.39.05s.07-.4-.11-.64c-.19-.24-.53-.4-.79-.52" class="cls-5"/><path d="M56.02 90.5c-.26-.2-.32-.27-.44-.48s-.24-.43-.24-.43-.18.3-.27.39-.16.15-.16.15.03.69.22.95.54.49.8.67c.25.18.3.21.44.33s.28.16.38-.03c.1-.18.18-.7.03-.94-.15-.23-.5-.42-.76-.62m-.98.95c-.17-.17-.22-.26-.22-.26s-.06.1-.22.32c-.17.22-.55.58-.55.58s.03.51.22.76c.16.21.31.4.55.53.25-.2.4-.43.55-.69.19-.3.22-.82.22-.82s-.39-.25-.55-.42" class="cls-5"/><path d="M68.94 83.18c-.15-.02-.22-.06-.22-.06s-.07 0-.12.1-.25.26-.25.26-.28.11-.32.31.1.24.23.2.46-.15.6-.34.16-.29.19-.36.04-.09-.11-.11m.43-1.58c-.1-.41-.38-.9-.9-1.09 0 0-.2.73-.26.96s-.06.22.11.24.71.06.82.08c.11.01.29.08.23-.19m-2.52-.04c.12 0 .11-.04.15-.22s.26-1.04.26-1.04-.56.06-1.04.36c-.49.3-.7.77-.7.77s.13.03.46.06.74.07.87.08m-1.29 1.32c-.2 0-.27-.02-.27-.02s.12.46.33.7.43.34.86.28c.43-.05.75-.33.8-.52s.14-.34.14-.34-.77 0-1.09-.02c-.32-.03-.57-.06-.77-.07" class="cls-9"/><path d="M59.39 74.42c-.2-1.17.49-2.32.49-2.32l-1.34-1.38c-1.03.73-2.47.85-3.72.45-1.25.75-2.69 1.03-3.72.6l-1.34 1.76s.69.96.49 2.18-.62 3.17-.51 3.93.65 1.57 1.21 1.96 1.39.67 1.98.8 1.16.46 1.44.63c.27.17.45.33.45.33s.18-.21.45-.46.85-.74 1.44-1.03 1.42-.81 1.98-1.35c.56-.55 1.1-1.52 1.21-2.3.11-.79-.32-2.62-.51-3.78m-2.74-6.39c-.2.25-.68.54-.68.54v.04s.18-.06.37-.2c.19-.13.47-.42.53-.53s0-.17 0-.17-.02.06-.22.31m.83.35c0 .13-.05 1.03-.05 1.03 0 .04-.02.31-.09.36.04 0 .1 0 .13-.14.02-.17.19-1.33.19-1.33l-.1-.03s-.08-.02-.08.11m1.5-2.48c-.08.04-.29.22-.4.32-.11.11-.18.12-.29.18-.1.06-.07-.17 0-.36.06-.19.27-.44.42-.64.16-.2 0-.12-.08-.04-.07.08-.24.29-.44.64s-.31 1.09-.31 1.09.12-.09.24-.19.25-.19.49-.4c.23-.2.36-.35.49-.5.12-.15-.03-.15-.12-.12m-6.01 2.67c-.2-.2-.22-.25-.22-.25s-.07.08 0 .17c.06.09.34.3.53.38s.38.09.38.09v-.04s-.49-.15-.69-.35m-.78 1.59s-.05-.89-.05-1.02-.08-.09-.08-.09l-.1.06s.17 1.11.19 1.28c.02.14.09.12.13.1-.07-.03-.08-.3-.09-.34m-1.2-3.68c-.07-.06-.24-.09-.08.06s.36.34.42.52c.06.17.1.39 0 .36s-.18-.02-.29-.1-.32-.2-.4-.21-.24.03-.12.15.25.23.49.36c.23.14.36.19.49.26.12.07.24.12.24.12s-.11-.71-.31-1.01c-.2-.29-.37-.45-.44-.51m3.81 20.17s.03-.05.03-.16c0-.1.02-.35.04-.5.03-.15-.04-.13-.08-.12s-.06.13-.06.19.02.43.02.51.03.08.05.08m2.6-1.68c.1.19.12.16.08 0-.04-.17-.11-.31-.2-.46-.1-.15-.35-.34-.35-.34s.07.14.16.25c.09.12.21.35.31.54m-.98.32c.04.13.25.48.27.47.02-.02-.08-.33-.16-.54-.07-.22-.18-.37-.2-.36s.02.14.02.14.03.17.07.3m-.78.73c.04.09.1.2.12.18s-.05-.21-.07-.27c-.01-.06-.02-.18-.08-.31-.07-.12-.09-.06-.09 0s.08.3.08.3zm-3.41-.32c.1-.22.22-.49.31-.63s.16-.3.16-.3-.25.26-.35.43-.16.34-.2.52-.02.2.08-.02m.98.03c.04-.14.06-.24.06-.24s.04-.14.02-.14-.12.1-.19.34-.18.58-.15.59c.02.01.23-.4.27-.54m.77.51c.04-.1.04-.11.04-.11s.08-.27.08-.32-.03-.11-.09.03c-.07.14-.07.27-.08.33s-.09.27-.07.28.08-.11.12-.22m-2.41 2.71-.1-.05s-.06.09-.15.2-.19.16-.25.25c-.07.1-.17.22-.33.33s-.22.14-.19.16.14-.06.14-.06.05-.01.24-.15.24-.21.36-.34.29-.35.29-.35m.83.88c.07-.09.15-.15.11-.19s-.09-.02-.16.04c-.07.07-.26.27-.35.36s-.16.15-.25.23-.28.21-.37.28 0 .06 0 .06.07-.05.15-.08c.08-.04.3-.17.3-.17s.09-.05.21-.15.29-.29.37-.38m.96.53c.06-.13 0-.09-.11-.03-.1.06-.34.34-.47.46-.13.11-.25.16-.36.24-.11.07-.11.1-.11.13s.05.02.1 0c.05-.03.21-.14.21-.14s.07-.03.13-.04.15-.09.29-.23.26-.23.33-.36m.44.8c-.17.13-.47.4-.54.57-.08.17-.13.28-.1.3s.11-.04.14-.11c.04-.07.11-.17.11-.17s.29-.33.4-.41.28-.3.33-.42c.04-.12.01-.18.01-.18s-.18.29-.35.42m5.05-2.65a.8.8 0 0 1-.33-.23c-.07-.08-.17-.1-.25-.18-.09-.08-.15-.16-.15-.16l-.1.08s.17.17.29.27c.12.09.17.15.36.23.19.09.24.09.24.09s.11.05.14.02-.03-.05-.19-.11m-.67 1.04c-.09-.04-.28-.12-.37-.17-.09-.06-.16-.09-.25-.16s-.28-.22-.35-.27-.12-.05-.16 0 .04.09.11.16.25.21.37.28.21.1.21.1.22.07.3.08c.08.02.15.04.15.04s.09-.02 0-.06m-1.05.77c-.11-.04-.23-.06-.36-.14-.13-.07-.37-.3-.47-.32-.1-.03-.17-.05-.11.06.06.12.19.17.33.27s.23.15.29.15H57s.16.07.21.09c.05.01.09 0 .1-.02 0-.03 0-.06-.11-.1m-1.41.56c-.17-.08-.35-.32-.35-.32s-.03.07.01.17c.04.11.22.28.33.33s.4.3.4.3.08.08.11.14c.04.06.12.1.14.07.03-.03-.03-.13-.1-.28-.08-.14-.37-.34-.54-.42m-1.06 1.25c.02.12 0 .42.08.41s.06-.31.08-.43.02-.41.02-.41l-.2.03s0 .28.02.4" class="cls-10"/><path d="M59.26 74.58c-.19-1.26.39-2.38.39-2.38l-1.21-1.18c-1.02.67-2.27.71-3.62.43-1.35.66-2.6.97-3.62.59l-1.21 1.52s.58.96.39 2.27c-.19 1.32-.49 2.82-.43 3.67 0 .06.01.12.02.18l1.1-.15s.06-.08.19-.15c.12-.07.16-.11.16-.11s.02-.23.16-.29c.13-.07.19-.07.25-.08s.09-.02.16-.1c.06-.07.24-.26.32-.49s.12-.33.12-.47.05-.39.05-.39-.03-.07-.14 0c-.11.06-.13-.05-.14-.16s0-.34.06-.45.09-.15.09-.15l-.05-.17s-.7.24-.82-.29-.15-.79-.16-.84c-.02-.06-.04-.08-.13-.06s-.29-.02-.43-.28-.15-.38-.11-.49c.04-.12.12-.09.14-.05.02.03.21.28.29.19s.04-.08-.07-.28-.07-.27-.06-.38-.03-.24-.03-.3.06-.11.13-.09c.06.02.12.06.15.09s.04.08.1.04.02-.23.02-.3.08-.12.17-.08.14.13.14.2 0 .13.04.13.08-.12.08-.19.05-.18.11-.1.09.2.06.34c-.02.14.02.06-.02.3-.05.24-.07.35-.06.52 0 .17.01.27.1.48.09.2.16.45.32.43s.21-.02.21-.02.18-.38.32-.48.34-.14.48-.18.2-.09.2-.12-.05-.04-.22-.04-.31-.02-.31-.15.03-.24-.08-.23c-.11 0-.39-.04-.48-.21-.1-.17-.08-.21-.06-.31.01-.1.14-.32.22-.14s.13.19.2.22.16.03.12-.09c-.05-.12-.08-.2-.06-.3.01-.1.08-.15.15-.17.08-.03.3-.13.42-.17s.12-.05.12-.05.01-.08.16-.15.25-.09.36-.1.19 0 .34-.1c.15-.09.26-.12.36-.13.09 0 .16.02.23.05.07.04.05.1.05.17s.01.1.11.08.19-.03.28 0c.09.02.22.06.14.17s-.09.22-.14.22-.05.06-.07.1-.04.07.02.1.06.06.15.13c.08.06.2.13.08.27s-.34.27-.34.27-.12.08.02.14.2.22.26.24c.05.02.11.06.14.07s.03.13.03.13-.08.06-.18.12c-.11.06-.22.12-.32.13s-.15.02-.11.11.11.18.13.23.04.14.04.14.16.01.31 0 .21-.02.53-.1.41-.11.72-.11.36-.03.44 0c.08.02.16.05.16.05s.44-.07.68-.15c.24-.09.3-.25.26-.32-.04-.08-.03-.2-.45-.2s-.59.05-.92.03-.85-.11-.95-.52c-.09-.4.25-.63.41-.73.17-.11.54-.29.71-.38s.48-.21.81-.21.51.06.64-.03.23-.05.21.07-.15.38-.52.54-.81.24-1.05.21-.42-.1-.57-.03-.31.28-.15.47.96.15 1.18.14c.22 0 1.02-.18 1.24.19.23.37.05.84-.22.97-.27.14-.5.23-.7.29l-.2.06s.09.2.09.29-.01.25.09.3.24.08.41.04.37.05.39.2c.01.15.06.35.08.66.02.3 0 .56 0 .56s-.01.12-.05.24-.25.58-.25.58l1.18-.17c0-.06.01-.12.02-.18.06-.86-.24-2.28-.43-3.55" class="cls-9"/><path d="M50.1 80.23c.23.63.71 1.23 1.43 1.56 1 .46 1.44.32 2.39.81.95.48.89.59.9.59s-.05-.1.9-.85 1.38-.73 2.39-1.48c.72-.54 1.2-1.27 1.43-1.96l-9.43 1.33Z" style="fill:#6c973a"/><path d="M50.92 75.03c.11.1.19.12.35.08s.2.07.23.2.03.43.15.7.52.23.52.23c.01-.14.06-.33.12-.49.01-.03.06-.16-.08-.14s-.14-.04-.22-.16c-.09-.12-.25-.46-.29-.69s.03-.58.07-.71.05-.22 0-.23c-.05-.02-.14.02-.14.02s.03.1 0 .13c-.04.02-.07-.05-.1-.12-.03-.08-.06-.06-.12-.05s-.06.06-.02.12c.04.05.02.16.02.16s-.13-.07-.18-.09-.17.05-.18.12.05.24.15.31c.11.08.11.26.07.35-.03.09-.19.1-.23.07-.03-.03-.1-.04-.15.02s-.09.09.02.19m-.05-.32s-.06-.04-.09-.07c-.02-.03-.07-.08-.07-.08s-.01.03-.01.1.07.13.07.13l.09-.08Zm.24-.82c.05-.03.09-.05.05-.1s-.07-.11-.11-.11h-.07s.05.1.06.16.03.08.08.05m.28-.28c0 .05 0 .07.05.04s.06-.09.04-.14c-.02-.04-.07-.07-.07-.07l-.03-.02s.02.13.02.18m.42.02c0-.06-.02-.12-.02-.12s0 .07-.03.11-.02.03 0 .06c.03.03.03 0 .04-.06m.67 2.8c.08.18.3-.15.49-.42s.19-.08.16.12.05.41.13.53.14.04.17-.06.06-.3.12-.41.13-.03.14.05c0 .08.11.26.21.35.1.1.14-.06.17-.2s.07-.35.1-.44.12-.03.12-.03.06.06.19.16.14-.09.15-.19-.02-.31.02-.34c.04-.04.15.02.32.09.17.06.16-.1.14-.19a.8.8 0 0 0-.25-.38c-.14-.1-.15-.23-.11-.29s.21-.04.31-.06c.1-.03.15-.05.23-.07s.08-.1.08-.1-.06-.09-.17-.17-.17-.15-.31-.16-.32.05-.32.05l-.02-.04s-.06-.03-.08.01c-.03.04-.09.1-.14.16-.05.05-.08.08-.12.07-.03-.01.03-.07.03-.07s.07-.06.14-.2c.06-.14.08-.26.03-.31s-.19.03-.27.04-.12.03-.13 0c0-.04.08-.03.17-.06.1-.03.15-.15.19-.25.03-.1.06-.09.12-.04s.11.03.12-.01.06-.14.13-.25c.06-.11.1-.25.03-.33s-.24-.04-.31.03-.12.13-.13.28c-.02.14-.06.07-.06.03s-.06-.11-.03-.17 0-.12 0-.12-.01-.12-.15-.13c-.14 0-.29.05-.42.1s-.11.16-.11.16-.1.02-.21.05-.24.09-.34.13-.14.06-.14.11.02.13.02.13.08-.01.13 0c.04.02.02.07-.03.09-.05.03-.07.04-.07.1s.03.07.08.07.16-.02.29.02a.2.2 0 0 1 .15.22c-.01.07-.19.18-.28.19s-.12.04-.12.09.11.04.11.04.11 0 .32-.01c.21 0 .24.04.34.11s.03.1-.02.13-.12.1-.19.14-.12.09-.18.12c-.06.02-.22.04-.52.2s-.4.56-.4.56.04-.02.17-.11.3-.19.46-.31c.15-.12.15.02.08.17-.08.15.07.1.12.05.04-.05.1-.09.25-.19s.1.03.1.03-.04.1-.06.31c-.01.21.21-.02.31-.17s.15-.02.07.14c-.08.17-.22.31-.31.32s-.15-.07-.15-.12.03-.21-.03-.24c-.05-.03-.2.03-.31.11s-.14.03-.16-.02c-.03-.05.04-.08.01-.12s-.08.01-.13.04c-.04.03-.15.1-.35.23s-.19.19-.19.34.04.17.12.35" class="cls-5"/><path d="m54.41 72.93.12-.07s.09-.04.18-.06.07-.07.05-.11-.05-.05-.17-.03-.19.08-.25.12-.14.07-.14.07.02.02.06.07.11.05.15.02m.47.39.09-.04s.08-.05.16-.09.11-.05.15-.15c.05-.1-.05-.08-.18-.1s-.2.04-.21.09c-.02.05-.01.11-.06.21s0 .09.05.08m-.05.12c-.13.02-.27.23-.33.27-.05.04-.02.07-.02.07s.04.07.05.15c.02.07.02.2.02.2h.09c.07 0 .12-.06.19-.12s.13-.09.23-.12.15-.06.27-.14c.11-.08-.06-.16-.18-.24a.4.4 0 0 0-.33-.07m-1.7.69c.1-.03.15-.08.15-.14s-.05-.11-.18-.08c-.32.07-.63 0-.69-.31 0 0-.11.21.09.41.2.19.53.15.63.12m-1.09 5.19s.04.04.06.05l.49-.07c.08-.04.08-.11.09-.17 0-.06.05-.25.12-.59.07-.33.18-.58.23-.72s-.05-.17-.08-.25-.09-.22-.1-.29-.13-.04-.19-.03-.07.12-.08.22c0 .1-.05.39-.1.65-.05.25-.33.62-.41.71-.08.08-.14.12-.19.13s-.17.02-.23.07c-.06.04-.12.14-.12.22 0 .07.11.1.11.1s.09-.07.13-.11c.03-.05.11-.07.19-.09.08-.03.09 0 .06.04s-.02.05.04.15m-.77.06s-.06.06-.08.09l.32-.05s-.01-.06-.03-.08c-.04-.04-.14 0-.21.03" class="cls-5"/><path d="M51.71 79.34s-.09.07-.11.11l.34-.05s.02-.08-.03-.11c-.08-.05-.16.01-.21.05m3-.57s-.07.04-.13.09c-.05.05-.07.11-.08.15v.02l.15-.02v-.02c0-.04.02-.08.08-.14s0-.08-.03-.07m.3.11s-.02-.09-.05-.08c-.03 0-.09.07-.13.11-.03.02-.04.05-.06.07l.22-.03s.03-.06.03-.08" class="cls-5"/><path d="M56.32 77.12c.1-.09.09-.11.09-.19s0-.1-.04-.13c-.04-.02-.2-.07-.34-.05s-.42.09-.52.18-.15.35-.15.48.02.15.06.15.1-.11.1-.11.14.16.22.27.05.17 0 .27c-.04.1-.17.38-.28.44-.11.07-.19.03-.32.03a.3.3 0 0 0-.27.13c-.07.09 0 .13.04.13s.11-.02.16.04c.03.04.01.14 0 .2l.64-.09c.11-.06.18-.22.21-.31.03-.1.17-.24.24-.31s.07-.12.07-.25-.04-.21-.09-.3-.09-.22-.07-.3.15-.19.26-.28" class="cls-5"/><path d="M55.27 75.67c.06.09.03.12-.06.15s-.19.06-.33.07c-.14 0-.14.03-.14.1s-.02.23-.1.35-.19.09-.25.06-.1-.02-.12.06-.07.14-.14.27-.11.14-.16.13c-.05 0-.09-.07-.14-.07s-.12-.08-.19-.19-.11.03-.15.13c-.05.11-.1.18-.19.19-.09 0-.19-.16-.25-.25-.05-.1-.08-.19-.16-.18-.08.02-.21.2-.3.26s-.11.04-.15 0c-.04-.05-.09.03-.14.17s0 .24.08.27c.07.03.21-.1.31-.17.1-.08.14-.07.24-.08s.09.15.14.38c.04.23.18.24.18.24s.05.03.16-.16c.11-.2.12-.38.22-.39s.11 0 .21.14c.1.13.19.22.25.11.06-.12.11-.28.18-.35s.13-.09.06.02-.1.23.04.16c.15-.06.71-.37.93-.45 0 0 .27-.08.57-.14.31-.06.38-.09.5-.11s.12-.03.13-.11c0-.08-.06-.06-.28-.02s-.38.08-.53.13c-.16.05-.23.05-.2 0 .03-.04.07-.08.25-.13s.54-.12.74-.16c.19-.03.13.04.12.17-.02.13.02.31.03.43s.02.15.12.31c.1.15.46.21.56.25s.09-.01.08-.11c0-.1.08-.11.17-.07s.24.06.35.07.12.03.12.09.01.18.02.29 0 .15-.04.23c-.05.08-.25.31-.25.31s-.09.01-.29.09c-.19.08-.25.17-.27.26-.02.08.04.1.04.13v.1h.05s.04-.08.07-.12c.07-.1.24-.14.35-.1.07.02.07.1.07.15l.45-.06c.06-.12.2-.42.24-.51a.7.7 0 0 0 .08-.33c0-.15.02-.72 0-.75-.03-.03 0-.13 0-.29s0-.28-.29-.26c-.29.01-.39-.1-.49-.18-.1-.09-.08-.32-.15-.59-.08-.27-.27-.28-.62-.3s-.6 0-.86.07c-.26.06-.58.14-.76.15-.18 0-.15.06-.09.15" class="cls-5"/><path d="M56.94 78.63s-.05.05-.06.07l.3-.04s0-.05-.03-.08c-.05-.05-.13 0-.21.05m.54-.1s-.08.07-.1.1l.3-.04v-.04c0-.05-.1-.09-.2-.02m-7.51 1.25c.02.09.04.18.07.28l9.55-1.34c.03-.1.05-.2.07-.3l-9.68 1.36Zm6.44-5.47c.3.16 1.26.03 1.71.06s.42.37.28.57-.77.31-.88.34c.06.03.15.15.15.15s.07-.01.26-.06c.19-.04.52-.14.75-.36s.21-.53.01-.7c-.2-.18-.53-.15-.87-.14s-.6.02-.98.01c-.38 0-.57-.14-.57-.36s.21-.37.35-.43c.15-.06.39-.16.6-.11s.46.03.88-.09c.42-.11.51-.42.51-.42s-.05.03-.26.07-.37-.04-.75.01c-.39.05-.52.21-.7.29-.18.09-.66.2-.8.54-.14.33.02.46.32.62" class="cls-5"/><path d="M53.9 73.05c-.1.01-.18.1-.18.2s.08.17.18.15.18-.1.18-.2-.08-.17-.18-.15m3.87-.06c-.24.01-.55.12-.55.12s.06.04.14.02.22-.04.45-.03c.23 0 .4-.13.4-.13s-.21 0-.44.01" class="cls-10"/><path d="M65.42 82.61c.19.02 1.76.1 1.9.11.13.01.24.02.28-.02s.06-.07.2-.14.13-.21.13-.21.04-.14.05-.27.09-.19.24-.05.18.37.21.59.39.23.53.23.21-.05.29-.19.13-.41.15-.59c.02-.17 0-.16-.17-.17-.18-.02-.99-.09-1.14-.1-.15-.02-.12-.12-.1-.22.02-.11.35-1.19.35-1.19-.23-.11-.55-.15-.94-.14 0 0-.24 1.09-.28 1.26s-.15.18-.32.18-1.39-.12-1.39-.12l-.1.24c-.1.24-.14.52-.14.66s.05.13.24.14" class="cls-5"/><path d="M69.6 82.98c-.16-.08-.28-.09-.37.11-.08.21-.09.5-.3.73s-.51.49-.8.51c-.3.02-.46-.03-.39-.37.07-.35.52-.52.63-.71s.08-.39-.08-.5c-.15-.11-.38-.11-.44-.06s-.25.23-.34.5-.15.48-.35.67-.7.42-1.1.39c-.39-.04-.53-.14-.68-.5-.15-.37-.32-.98-.4-1.04s-.18-.1-.34.04c-.17.14-.18.32-.2.47-.02.14 0 .3.17.48s.35.36.41.56.25.5-.01.55c-.27.05-.39.08-.59-.09s-1-.6-1.22-.75-.31-.19-.31-.19c-.37.05-.74-.05-1.11-.25 0 0 .21.51.25.71s.04.31.04.31.8.3 1.12.41.96.39 1.27.53c.31.15.57.41 1.12.22s1.66-.68 2.02-.84 1.35-.54 1.72-.85.4-.3.46-.56 0-.39-.16-.48m-2.14-3.5c.06-.02.09-.03.27-.08.19-.05.12.14.09.21s-.09.22-.17.36.02.15.08.16c.05.01.13.01.28.03s.12-.09.13-.14c0-.06.01-.36.03-.46.02-.11.11-.09.15-.08.04.02.13.05.21.08s.11-.02.13-.07.05-.13.09-.26c.03-.12-.04-.09-.11-.08s-.18.03-.3.04-.04-.12-.04-.12.09-.16.16-.28.05-.13-.02-.14-.28-.03-.35-.04c-.06 0-.09 0-.09.05V79c0 .09 0 .13-.11.15s-.17-.03-.26-.12c-.09-.08-.12-.04-.13 0 0 .04-.08.32-.09.39-.02.08.02.07.09.05" class="cls-5"/><path d="M61.37 83.32c-.12-.11.18-.16.36-.18s.47-.16.57-.23c.09-.07.26-.13.45-.25s.07-.14-.12-.16c-.2-.02-.73-.17-.73-.17s-.26.18-.4.28c-.14.11-.34.25-.65.34-.31.08-.41.11-.42.12s.07.07.19.23c.12.15.17.26.32.49s-.02.11-.15-.03c-.07-.08-.23-.27-.37-.4-.11-.1-.23-.16-.23-.16l-.1.23v.07c0 .07-.06.42-.08.56s.03.13.14.17c.11.03.33.13.91.41.59.29.8.5.8.5s.02-.16.02-.32 0-.48-.13-.83-.26-.57-.38-.67" class="cls-5"/><path d="M60.01 82.7c.14 0 .19.04.38 0s.27-.1.47-.13.34-.12.66-.33c.32-.22.01-.13-.21-.07-.23.05-.82.05-1.07-.01s-.07-.1 0-.09.1.03.61.04c.51.02.69-.13.96-.23.26-.11-.06-.09-.06-.09s-.92-.13-1.38-.58c-.35-.34-.47-.69-.51-.83-.18.24-.38.45-.59.65.02.07.05.18.1.29.08.16.3.36.3.36s-.28-.07-.4-.18c-.09-.08-.16-.21-.2-.28-.3.25-.61.46-.9.64.03.02.08.05.13.09.12.09.24.22.4.45s.01.23-.13.02-.5-.4-.57-.43h-.03c-.04.02-.07.04-.11.06l-.55.32c.12.08.39.31.48.43.1.14.32.24.39.34.08.09.16.2.26.31s.72.72.89.95c.17.24.07-.08.03-.25s-.1-.42-.16-.61.06-.13.08-.02.05.11.1.32.17.51.23.72c.05.21.08.11.13 0 .06-.11.14-.3.17-.42.03-.11.06-.37.07-.75 0-.38-.18-.5-.18-.56 0-.05.09-.12.23-.11m2.63.43c-.06.03-.24.12-.33.14s-.15.04-.15.04.17.22.43.18l.75-.1s-.45-.2-.51-.26c-.06-.05-.14-.04-.2 0m5.42-1.08s0 .21-.03.29c-.02.08-.07.19.01.21.09.02.17.04.22.02s.03-.12 0-.21c-.03-.08-.07-.19-.14-.25l-.07-.06Zm1.3.67c.03.06.09.07.13.08.04 0 .1 0 .1-.08s.01-.19-.05-.26c-.07-.08-.1-.14-.14 0s-.07.21-.04.27m-4.51-.24.18.03s0-.21.03-.35.09-.25.04-.24-.08.06-.12.12-.14.09-.18.27c-.04.17.01.17.05.18" class="cls-5"/><path d="M47.05 79.21c-.15.13-.34.21-.34.21s-.09 0-.09.04.11-.02.22-.05c.11-.04.27-.17.32-.22.06-.05.14-.11.11-.18s-.07.07-.22.2m1.27.5-.28.26s-.08.06-.16.1-.1.09-.1.09.02.02.1-.02c.09-.04.34-.25.42-.34.08-.08.12-.11.09-.13-.03-.03-.05 0-.08.04m-5.14-8.43s.1.12.13.09 0-.05-.07-.11c-.06-.06-.1-.09-.1-.09s-.09-.13-.14-.17-.13-.06-.03.04.16.19.2.24m-.38.92c.06.04.11.08.17.14s.11.12.14.08c.04-.04-.09-.1-.15-.16s-.1-.1-.17-.15a.7.7 0 0 0-.16-.08s.11.13.17.17m.15 1.36c.1.09.24.1.26.06s-.01-.07-.09-.1-.21-.1-.28-.13q-.105-.06-.18-.12c-.05-.04-.1-.07-.12-.05s.13.16.18.18.13.08.22.17m.29 1.06s.01-.06-.07-.06h-.19s-.16-.04-.17 0c-.01.03.13.07.19.08.06 0 .14.01.17.03.04.02.07 0 .07-.04m.12 1.18c-.17.02-.32 0-.33.03s.08.06.17.07c.09.02.25 0 .36 0 .11-.01.13-.04.13-.09 0-.06-.15-.03-.33 0m1.36 1.11s-.09 0-.18.04c-.1.03-.25.09-.35.09-.09 0-.29.03-.29.03s-.11.02-.11.04.15 0 .36 0 .36-.07.46-.1.14-.08.11-.1m.56.86c-.11.06-.18.08-.27.09s-.28.07-.28.07-.09.02-.08.06c.02.03.05 0 .13-.03.08-.02.14-.02.29-.05.14-.03.22-.07.31-.1s.18-.09.14-.14c-.05-.05-.14.03-.24.09m1.09.57c-.06.07-.3.26-.3.26s-.05.04-.14.1-.09.08-.07.1.07-.05.12-.07c.05-.03.22-.16.31-.25.09-.08.2-.16.18-.2-.02-.05-.04 0-.1.06m-1.82-8.94s.02.04.21.25.09 0 .04-.05-.32-.41-.42-.5c-.09-.09-.11-.04-.06.02zm-.39 1.27s-.03-.05-.14-.17-.32-.36-.32-.36-.06-.12-.08-.1.07.2.16.28.2.23.26.29c.06.07.09.09.12.06m.52 2.19c0-.07-.21-.03-.31-.03s-.27-.02-.27-.02-.2 0-.21.02c0 .03.04.04.15.05.11 0 .28.03.41.03s.23.01.23-.05m-.52-1.15c.14.09.24.14.31.17s.13.08.17.03-.03-.08-.15-.11a.8.8 0 0 1-.18-.08s-.07-.02-.13-.05-.16-.05-.02.04m1.21-.98a1 1 0 0 0-.16-.09s-.11-.09-.13-.05.12.12.19.17.19.21.25.17-.06-.13-.15-.19m-.79 3.27-.19.08c-.08.03-.08.07.06.05s.19-.06.33-.11c.14-.04.18-.07.16-.11s-.09-.02-.15 0-.21.09-.21.09m.21 1.11s.1-.01.17-.05.22-.13.31-.17.09-.05.09-.1-.09 0-.2.05-.25.18-.25.18-.09.06-.1.09m1.46.49c.1-.08.12-.12.09-.15-.04-.03-.07-.02-.15.06s-.24.21-.24.21-.08.04-.14.08-.14.1-.12.13.15-.02.21-.09c.07-.07.24-.17.35-.25m.69.83s.16-.1.22-.15.09-.18.05-.19c-.05 0-.07.06-.17.15s-.43.35-.43.35l-.09.05c-.09.05-.05.07.03.05s.13-.03.22-.11.13-.11.17-.15m1.03.73c.09-.05.21-.18.28-.24.06-.06.14-.15.09-.18s-.1.02-.17.1l-.26.3s-.03 0-.13.1 0 .07.04.02c.04-.04.06-.06.15-.11m14.96-.03s-.19-.02-.34-.11-.19-.21-.22-.14c-.03.08.06.11.11.15.06.03.21.12.32.13.11 0 .22.03.22-.01s-.09-.02-.09-.02m-1.18.99a1 1 0 0 1-.16-.06s-.24-.15-.28-.18c-.03-.03-.05-.05-.08-.01-.03.03 0 .05.09.11.08.06.34.2.42.22.09.01.1 0 .1 0s-.02-.04-.1-.06m4.72-10.14c.05-.06.11-.17.2-.3.1-.13.02-.09-.03-.04-.05.06-.14.21-.14.21s-.04.04-.1.12-.09.11-.07.13c.03.02.08-.06.13-.12m.09 1.11s.08-.05.14-.12.11-.13.17-.19.17-.22.17-.22-.09.06-.16.12c-.07.07-.12.12-.17.2-.06.08-.18.17-.15.2m.57.64s-.07.04-.12.09-.11.11-.18.17c-.07.05-.2.16-.28.21s-.11.09-.09.13.16-.01.26-.13.18-.2.22-.24c.05-.03.2-.22.18-.23m-.41 1.49s-.11.03-.19.05-.07.04-.07.08.03.05.07.03c.04-.03.11-.06.17-.08s.2-.1.19-.13-.17.05-.17.05m-.38 1.35c-.17.02-.32.04-.33.1 0 .06.02.08.13.06s.28-.05.36-.1c.09-.04.18-.1.17-.12s-.16.04-.33.06m-.54 1.44s-.2.03-.29.05-.25 0-.35 0-.16-.02-.18.01c-.03.03.01.07.11.07s.24.03.46-.03c.21-.06.36-.07.36-.1s-.11 0-.11 0m-.84 1.1h-.27c-.08 0-.16.01-.27-.01s-.2-.08-.24-.02c-.05.06.05.09.14.1.09 0 .17.03.31.01s.2-.03.29-.04c.08 0 .11.03.13 0 .02-.04-.08-.04-.08-.04m-1.21 1.09a1 1 0 0 1-.14-.06s-.23-.13-.3-.18c-.06-.05-.08-.09-.1-.03-.02.05.09.09.18.15s.25.15.31.16c.05.01.11.07.12.04.02-.03.02-.05-.07-.08m1.17-9.38c.19-.26.21-.31.21-.31s.18-.27.23-.34.03-.13-.06 0c-.09.12-.37.55-.42.62s-.15.3.04.04m1.15.05-.08.13s-.22.31-.32.46c-.11.15-.17.18-.14.21.03.02.06-.02.12-.1s.17-.27.26-.37.18-.31.16-.33m-1.06 3.13c0 .07.1.03.23-.01s.29-.11.41-.15q.165-.06.15-.09c0-.02-.21.04-.21.04s-.17.06-.27.09-.31.05-.31.12m.5-1.34c-.06.04-.13.09-.13.09s-.06.06-.18.13-.19.11-.15.16c.04.04.1-.03.17-.08s.17-.12.31-.25.04-.08-.02-.04m-1.35-.37c.06.03.18-.17.25-.24s.21-.19.19-.22-.13.09-.13.09-.07.05-.16.14-.21.21-.15.24m.75 2.87c.14 0 .19.03.33.01s.13-.05.06-.06c-.08 0-.19-.02-.19-.02s-.15-.02-.21-.03c-.06 0-.13-.01-.15.04s.03.06.16.06m-.12 1.05s-.14-.09-.25-.11-.2-.05-.2 0 0 .07.09.08.23.07.31.08c.07.02.18.03.17 0a.4.4 0 0 0-.1-.06m-.95 1.05c-.06-.02-.14-.04-.14-.04s-.16-.09-.24-.14-.11-.06-.15-.02-.02.08.09.13c.1.05.28.1.35.15s.19.06.21.03-.06-.07-.12-.1m-.72 1.02-.09-.02s-.33-.17-.43-.23-.12-.12-.17-.1-.01.14.05.17.18.06.22.09.08.04.17.1.14.05.22.05.12-.03.03-.05m-1.26.95c-.1-.07-.13-.07-.13-.07s-.19-.17-.26-.23-.12-.09-.17-.05.03.1.09.15.19.14.28.17c.09.02.11.04.15.07s.14.03.04-.04" class="cls-10"/><path d="M54.81 63.92c-.69.11-1.51.13-1.96.02-.16.06-.32.12-.48.17.74.17 1.36.2 2.43.05 1.08-.16 1.7-.36 2.43-.74-.16-.01-.32-.03-.48-.04-.45.23-1.26.44-1.96.53" style="fill:#ebbc2d"/><path d="M57.34 62.99c-.06-.04-.37-.22-.45-.25s-.02-.15 0-.2c.01-.05.37-.2.57-.28s.16-.12.16-.12-.11-.12-.83-.09c-.71.02-1.97.22-1.97.22s-1.25.16-1.97.34c-.71.18-.83.33-.83.33s-.03.05.16.07c.2.02.55.07.57.12.01.04.08.15 0 .2s-.4.32-.45.38c-.05.05-.06.13.03.12.09 0 .09 0 .33-.09.74-.25 1.43-.39 2.16-.5.73-.09 1.43-.15 2.16-.11.25.01.25.02.33 0 .09-.02.08-.09.03-.13" class="cls-5"/><path d="m52.08 63.1-.31.29.39.12.42-.35-.49-.06Zm5.46-.77-.49.19.42.24.39-.22-.31-.21Zm-1.02 1.08c-.49.01-.8 0-1.71.13-.91.14-1.22.23-1.71.35.31.08.81.07 1.71-.05s1.4-.26 1.71-.43" class="cls-5"/><path d="M55.5 77.75c-.06-.08-.08-.07-.14 0-.07.07-.13-.12-.14-.25 0-.12.05-.52.05-.52s-.33.11-.5.2c-.18.08-.34.12-.48.18-.14.05-.22.1-.29.09-.07 0-.23 0-.36.03s-.12.04-.24.18-.16.21-.26.46-.13.47-.17.76c-.02.19-.06.32-.08.39l1.49-.21c.02-.05.04-.11.06-.16.04-.09.12-.16.18-.19.06-.04.11-.04.14-.11s.1-.14.18-.18c.08-.05.22-.05.34-.03.13.02.17-.07.2-.13.04-.05.05-.12.12-.22s.02-.17.02-.17-.06-.03-.12-.12m2.4-.3c-.02-.08-.01-.1-.06-.1s-.14 0-.21-.03c-.07-.02-.07.18-.07.18s-.18.04-.38.05c-.2 0-.43-.14-.52-.19-.08-.05-.17-.17-.17-.17s-.06.07-.13.11-.1.17-.11.3.14.26.16.38c.01.12-.14.4-.21.51-.05.08-.12.23-.15.33l.72-.1s.04-.09.08-.13c.07-.08.2-.12.2-.12s0-.03.03-.1.1-.16.28-.26.4-.14.4-.14.09-.08.15-.19.02-.25 0-.33" class="cls-9"/><path d="m54.66 56.94.37-.08-.03-.32h.4l.02-.33-.42.1.07-.36-.46.06.08.34-.41.02v.32l.4-.1zm.82.41-.5.07v-.43h-.15c-.04 0-.09.02-.13.03v.43l-.52.07q-.03.09-.03.18v.07l1.35-.19v-.07c0-.06 0-.12-.03-.17" class="cls-5"/><path d="M54.83 58.23c.3-.04.55-.25.64-.51l-1.29.18c.09.23.34.37.64.33m.29-1.21v.29l.33-.05a.56.56 0 0 0-.33-.25m-.56.09c-.15.08-.26.2-.33.34l.33-.05z" class="cls-9"/><path d="m55.21 62.47-.4-.12s-.26.17-.41.26c-.14.09-.12.07-.17.18-.04.11 0 .14.07.16.06.02.51.19.51.19s.45-.27.56-.34.09-.11.06-.19c-.03-.07-.09-.09-.22-.14m.93-.25c.22-.03.4.12.4.33s-.18.41-.4.44-.4-.12-.4-.33.18-.41.4-.44m-2.66.37c.22-.03.4.12.4.33s-.18.41-.4.44-.4-.12-.4-.33.18-.41.4-.44" class="cls-10"/><path d="m54.38 62.72.44.16.44-.29-.45-.15-.43.27Zm1.76-.43c-.13.02-.24.14-.24.26s.11.21.24.19.24-.14.24-.26-.11-.21-.24-.19m-2.66.38c-.13.02-.24.14-.24.26s.11.21.24.19.24-.14.24-.26-.11-.21-.24-.19m-.82-.89c.1.02.23-.01.23-.01s.04-.18-.06-.25-.18-.12-.24-.17-.07-.07-.07-.07v.25c0 .1.04.23.14.25m.21.09s-.07.04-.07.08.03.06.07.06.07-.04.07-.08-.03-.06-.07-.06m-.54.07-.1.13s.08 0 .15.03c.07.04.15.07.23.05s.11-.1.09-.15-.05-.1-.18-.13-.16.03-.19.08" class="cls-5"/><path d="M52.6 62.37c-.25.06-.58-.17-.58-.17-.03.22-.17.36-.38.43h.02s.19.08.42.08c.1 0 .2-.03.31-.07.13-.05.29-.11.37-.17.15-.11.11-.35.11-.35s-.02.19-.27.24m-.97-.11c-.1-.02-.25-.08-.32-.07-.06 0-.16 0-.14.12s.14.16.25.14c.12-.01.18-.07.25-.11.07-.05.06-.06-.04-.08m-.77-.31a.6.6 0 0 0-.21-.07s-.07.2-.03.31.13.13.23.11c.11-.02.26-.09.22-.17-.04-.07-.1-.12-.21-.19m.1.47s.09.02.09.05-.04.07-.09.07-.09-.02-.09-.05.04-.07.09-.07m.24-.92c-.07-.32-.06-.67.25-1.17s.85-.76.85-.76.02-.04.19-.24c.17-.21.52-.49.52-.49s-.41.16-.64.26v.01c0 .16-.12.3-.28.32-.06 0-.11 0-.16-.03-.13.04-.54.35-.65.45.03.04.04.09.04.14 0 .16-.12.3-.28.32-.05 0-.09 0-.13-.01-.01.02-.02.04-.04.07-.09.17-.15.34-.2.48.07.04.12.12.12.23 0 .16-.11.3-.24.32v.18c.01.09.05.14.21.17.16.02.38.27.38.27.02 0 .13-.22.05-.54" class="cls-5"/><path d="M52.18 59.25c.06-.06.07-.13.02-.17s-.13-.02-.19.04-.07.13-.02.17.13.02.19-.04m-1.04.84c.07-.07.08-.16.03-.21-.05-.04-.15-.03-.21.04-.07.07-.08.16-.03.21s.15.03.21-.04m-.45.95c0-.09-.07-.15-.16-.14s-.16.09-.16.18.07.15.16.14.16-.09.16-.18m3.3-2.69c-.08.03-.24.1-.47.25.16-.02.29.06.29.19s-.15.3-.31.32-.27-.1-.27-.23c0-.03 0-.06.02-.09-.07.05-.14.11-.22.17-.51.42-.63.6-.88 1.11s-.34 1.04-.24 1.32c.11.29.51.3.52.29s-.05-.04-.05-.1.01-.09.03-.21 0-.25 0-.25.09-.02.14.03c.05.06.13.12.18.18s.19.16.19.16.08-.13.08-.26-.09-.27-.11-.51.11-.69.34-1.04c.24-.35.68-.7.81-.78s.15-.18.16-.24c0-.06.02-.1.03-.24.01-.15-.12-.12-.25-.07" class="cls-5"/><path d="M53.48 58.97c.09-.01.17-.11.17-.18s-.07-.12-.16-.11-.16.08-.16.16.06.14.15.13m.76 2.89c.12.03.26-.01.33-.07.07-.05.09-.17 0-.22-.08-.05-.19-.03-.26.02s-.23.19-.23.19.04.05.16.09" class="cls-5"/><path d="M54.64 61.94c-.04.07-.08.12-.21.15-.14.03-.29.04-.37-.04-.09-.08-.15-.19-.15-.19l-.15.02s-.05.22-.12.29-.31.11-.41.05-.2-.14-.22-.13 0 .09.11.17.18.12.35.1l.98-.14s.2-.02.26-.14c.06-.13.06-.2.03-.23s-.04.03-.09.1" class="cls-5"/><path d="M53.15 61.99c.15.06.23 0 .28-.07s.06-.1.06-.1-.14-.03-.21-.06-.11-.06-.18-.04-.08.03-.08.03-.03.19.12.25m1.9-.49c-.08.07-.06.18 0 .22.07.03.2.04.33-.02.12-.07.16-.13.16-.13s-.16-.09-.23-.12a.24.24 0 0 0-.26.06" class="cls-5"/><path d="M56.41 61.76c-.1.09-.34.12-.41.07s-.12-.26-.12-.26l-.15.02s-.06.13-.15.24c-.09.1-.24.13-.37.15-.14.01-.17-.02-.21-.09-.04-.06-.06-.11-.09-.08s-.02.11.03.22c.06.11.26.07.26.07l.98-.14c.17-.02.25-.09.35-.2.11-.11.12-.19.11-.2-.02 0-.11.1-.22.19" class="cls-5"/><path d="M56.33 61.32c-.07.05-.21.12-.21.12s0 .03.06.09c.05.06.14.1.28 0 .15-.1.12-.29.12-.29h-.08c-.07 0-.11.05-.18.1m.79-.46v-.25s-.01.02-.07.09l-.24.24c-.1.1-.06.27-.06.27s.13 0 .23-.05.15-.2.14-.29m-.28.5s-.03-.06-.07-.06-.07.04-.07.08.03.06.07.06.07-.04.07-.08m.19.13c.08 0 .16-.05.23-.11s.15-.07.15-.07-.07-.06-.1-.1-.06-.09-.19-.02-.17.13-.18.18c-.02.05.02.12.09.12" class="cls-5"/><path d="M57.59 61.41s-.33.32-.58.33-.27-.17-.27-.17-.04.25.1.32c.08.04.23.06.37.06.11 0 .2.01.31-.02.23-.07.42-.19.42-.19h.02c-.21-.02-.35-.12-.38-.34m.72-.2c-.06.01-.22.11-.32.16s-.12.07-.04.09c.07.03.13.06.25.04s.24-.09.25-.21c.02-.12-.08-.09-.14-.08m.46-.37c-.11.1-.16.16-.21.25-.04.09.11.12.22.11s.19-.06.23-.18-.03-.31-.03-.31-.1.04-.21.13m-.1.49s-.09.04-.09.07.04.06.09.05.09-.04.09-.07-.04-.06-.09-.05m.15-1.37c0-.11.05-.2.12-.26a2.7 2.7 0 0 0-.2-.43.2.2 0 0 0-.04-.06c-.04.03-.08.04-.13.05a.242.242 0 0 1-.28-.24c0-.05.02-.11.04-.16-.11-.07-.52-.26-.65-.27-.05.04-.1.06-.16.07a.242.242 0 0 1-.28-.24v-.01c-.23-.04-.64-.08-.64-.08s.35.18.52.34.19.19.19.19.54.11.85.52.32.76.25 1.1c-.08.34.03.53.05.53 0 0 .22-.31.38-.38s.2-.13.21-.22v-.18c-.13.02-.24-.09-.24-.25" class="cls-5"/><path d="M57.44 58.51c.06.04.14.03.19-.02s.04-.12-.02-.16a.15.15 0 0 0-.19.02c-.05.05-.04.12.02.16m1.04.55c.07.05.16.04.21-.02s.04-.15-.03-.2-.16-.04-.21.02-.04.15.03.2m.62.64c-.09.01-.16.09-.16.18s.07.15.16.14.16-.09.16-.18-.07-.15-.16-.14m-3.69-1.2c0 .06.03.15.16.2.13.04.57.27.81.55s.36.7.34.94-.11.41-.11.54.08.24.08.24.14-.14.19-.21.13-.16.18-.23.14-.07.14-.07-.01.14 0 .25c.02.11.03.14.03.2s-.06.11-.05.11c0 0 .41-.12.52-.44s.02-.82-.24-1.26c-.25-.44-.37-.58-.88-.86-.08-.04-.15-.08-.22-.11.01.03.02.05.02.09 0 .13-.11.29-.27.31s-.31-.1-.31-.23.12-.25.29-.28c-.23-.09-.38-.12-.47-.12-.13-.01-.26 0-.25.14s.02.18.03.24m-.59 2.43s-.04.16-.09.23-.09.14-.07.22c.01.08.11.12.16.11s.15-.07.16-.16c.01-.08-.02-.14-.07-.2a.7.7 0 0 1-.09-.21m0 .65s-.08.05-.08.09.04.08.08.07.08-.05.08-.09-.04-.08-.08-.07" class="cls-5"/><path d="M54.52 61.27s.14-.18.2-.29c.05-.11.1-.21.1-.21s.04.08.1.18c.05.09.2.23.2.23s.2-.13.32-.54c.12-.4-.03-.79-.08-1.23-.05-.43-.1-1.19-.1-1.19-.15.11-.3.17-.44.19s-.28 0-.44-.07c0 0-.04.77-.1 1.22-.05.45-.2.88-.08 1.25s.32.45.32.45m1.44-2.8c0 .07.08.14.17.13s.15-.1.15-.17-.07-.12-.16-.11-.16.08-.16.15" class="cls-5"/><path d="M52.44 60.31c.18-.03.33.1.33.28s-.15.34-.33.37-.33-.1-.33-.28.15-.34.33-.37m.56-.88c-.13-.07-.32 0-.43.14-.11.15-.09.32.05.39.13.07.32 0 .43-.14.11-.15.09-.32-.05-.39" class="cls-10"/><path d="M52.42 60.42c-.1.01-.19.11-.19.21s.09.17.19.15.19-.11.19-.21-.09-.17-.19-.15m.45-.93a.24.24 0 0 0-.23.13c-.04.08 0 .15.11.16.21.01.31-.26.12-.29" class="cls-5"/><path d="M54.81 60.01c-.19.03-.35.2-.35.39s.16.31.35.29.35-.2.35-.39-.16-.32-.35-.29m0-.77c.19-.03.34.1.34.28s-.15.35-.34.37-.34-.1-.34-.28.15-.35.34-.37m0-.74c.18-.02.32.09.32.26s-.14.33-.32.35-.32-.09-.32-.26.14-.33.32-.35m2.37 1.14c-.18.03-.33.19-.33.37s.15.3.33.28.33-.19.33-.37-.15-.3-.33-.28m-.13-.7c-.11-.12-.3-.12-.43-.02-.13.11-.15.29-.05.4.11.12.3.12.43.02.13-.11.15-.29.05-.4" class="cls-10"/><path d="M57.2 59.74c-.11.01-.19.11-.19.21s.09.17.19.15.19-.11.19-.21-.09-.17-.19-.15m-.45-.8c-.19.08-.09.32.12.25.11-.04.16-.12.11-.19-.04-.07-.15-.09-.23-.06m-1.94 1.17c-.1.01-.19.11-.19.2s.08.17.19.15.19-.11.19-.2-.08-.17-.19-.15m0-.43c.1-.01.18-.1.18-.2s-.08-.16-.18-.15-.18.1-.18.2.08.16.18.15m0-.78c.09-.01.16-.09.16-.17s-.07-.14-.16-.13-.16.09-.16.17.07.14.16.13" class="cls-5"/><path d="M65.74 81.75c-.16.02-.29.17-.29.33s.13.27.29.25.29-.17.29-.33-.13-.27-.29-.25m.81.08c-.16.02-.29.17-.29.34s.13.28.29.25.29-.17.29-.34-.13-.28-.29-.25m2.35.17c-.16.02-.29.17-.29.34s.13.28.29.25.29-.17.29-.34-.13-.28-.29-.25m-1.54-.1c-.16.02-.29.17-.29.34s.13.28.29.25.29-.17.29-.34-.13-.28-.29-.25m.21-.73c-.16.02-.29.17-.29.34s.13.28.29.25.29-.17.29-.34-.13-.28-.29-.25m.21-.74c-.16.02-.29.17-.29.34s.13.28.29.25.29-.17.29-.34-.13-.28-.29-.25" class="cls-10"/><path d="M65.76 81.86c.08-.01.14.04.14.12s-.06.15-.14.16-.14-.04-.14-.12.06-.15.14-.16m.81.08c-.08.01-.15.09-.15.17s.07.14.15.13.15-.09.15-.17-.07-.14-.15-.13m2.35.17c-.08.01-.15.09-.15.17s.07.14.15.13.15-.09.15-.17-.07-.14-.15-.13m-1.54-.09c-.08.01-.15.09-.15.17s.07.14.15.13.15-.09.15-.17-.07-.14-.15-.13m.21-.74c-.08.01-.15.09-.15.17s.07.14.15.13.15-.09.15-.17-.07-.14-.15-.13m.21-.73c-.08.01-.15.09-.15.17s.07.14.15.13.15-.09.15-.17-.07-.14-.15-.13" class="cls-5"/></g><g id="White_Logo_RGB" data-name="White Logo RGB"><path id="WHITE_ESC_HEART" d="M56.13 129.5c1.03 1.13 2.54.85 3.24-.61C75.9 94 126.12 78.23 126.12 33.78c0-16.16-10.88-32.38-31.78-32.75-19.9-.36-37.77 12.46-39.63 33.22-.56-13.14-9.18-19.2-19.12-19.2C16.03 15.03.01 32.69.82 59.25c1.34 41.78 41.51 54.94 55.31 70.25m-3.56-85.25c.53 2.09 3.07 2.01 3.65-.05 8.61-31.2 48.19-34.61 48.19-3.02 0 24.94-44.21 51.56-47.58 75.24-8-15.53-37.39-24.07-37.39-57.83 0-28.74 27.94-34.77 33.12-14.34Z" style="fill:#fff"/></g></svg>