<svg xmlns="http://www.w3.org/2000/svg" viewBox="0 0 127.18 131.2"><defs><clipPath id="a"><path d="m58.82 124.42 1.04-7.35c1.47-10.32 12.12-22.11 22.43-33.52 12.38-13.7 25.18-27.86 25.18-42.12 0-12.41-6.81-24.94-22.03-24.94-9.34 0-20.76 5.46-27.59 17.23l-.56 1a41 41 0 0 0-2.69 6.13c-2.78-7.01-8.54-11.25-15.57-11.25-10.76 0-22.19 10.25-22.19 29.23 0 23.74 13.88 35.81 25.02 45.5 5.5 4.78 10.25 8.91 12.68 13.63l3.79 7.36.49-.91Z" style="fill:none"/></clipPath></defs><g data-name="NORTH MACEDONIA" style="clip-path:url(#a)"><path d="m70.66 74.62 56.22 22.28V68.22l-54.51.28c.05-.56.08-1.13.08-1.71s-.03-1.14-.08-1.69l54.51-11.22V25.2L70.66 59.34c-.4-.76-.86-1.47-1.37-2.14l52.83-43.44-57.15 6.03-6.19 31.71c-1.08-.1-2.19-.1-3.34.02-1.14.12-2.26.35-3.33.68l-6.19-30.4-57.15 6.03 52.83 32.3c-.52.78-.97 1.59-1.37 2.43l-56.22-22.29v28.68l54.51-.28c-.06.57-.08 1.13-.08 1.71s.03 1.14.08 1.69l-54.51 11.22v28.68l56.22-34.14c.4.76.86 1.47 1.37 2.14l-52.83 43.44 57.15-6.03 6.19-31.71c1.08.1 2.19.1 3.33-.02s2.26-.35 3.34-.68l6.19 30.4 57.15-6.03-52.83-32.3c.51-.78.97-1.59 1.37-2.43Zm-15.22 7.62c-7.51.79-13.61-4.68-13.61-12.22s6.09-14.3 13.61-15.09c7.51-.79 13.61 4.68 13.61 12.22s-6.09 14.3-13.61 15.09" style="fill:#dd1d23"/><path d="M55.44 54.93c-7.51.79-13.61 7.55-13.61 15.09s6.09 13.01 13.61 12.22c7.51-.79 13.61-7.55 13.61-15.09s-6.09-13.02-13.61-12.22M41.6 60.12l-52.83-32.3-4.77.5v11.95l56.22 22.28c.4-.84.86-1.65 1.37-2.43Zm-3.16 10.26c0-.57.03-1.14.08-1.71l-54.51.28v14.34l54.51-11.22c-.06-.55-.08-1.12-.08-1.69m17-18.86c1.14-.12 2.26-.12 3.34-.02l6.19-31.71-19.05 2.01 6.19 30.4c1.08-.33 2.19-.56 3.33-.68m15.22 7.83 56.22-34.14V13.26l-4.76.5-52.83 43.45c.51.67.97 1.38 1.37 2.14M55.44 85.66c-1.14.12-2.26.12-3.33.02l-6.19 31.71 8.49 1.09 10.55-3.1-6.19-30.4c-1.08.33-2.19.56-3.34.68Zm17.01-18.87c0 .57-.03 1.14-.08 1.71l54.51-.28V53.88L72.37 65.1c.05.55.08 1.12.08 1.69M40.23 77.83l-56.22 34.14v11.95l4.77-.5 52.83-43.45c-.52-.67-.97-1.39-1.37-2.14Zm30.43-3.21c-.4.84-.86 1.65-1.37 2.43l52.83 32.3 4.76-.5V96.9z" style="fill:#f9d616"/></g><path d="M56.13 129.5c1.03 1.13 2.54.85 3.24-.61C75.9 94 126.12 78.23 126.12 33.78c0-16.16-10.88-32.38-31.78-32.75-19.9-.36-37.77 12.46-39.63 33.22-.56-13.14-9.18-19.2-19.12-19.2C16.03 15.03.01 32.69.82 59.25c1.34 41.78 41.51 54.94 55.31 70.25m-3.56-85.25c.53 2.09 3.07 2.01 3.65-.05 8.61-31.2 48.19-34.61 48.19-3.02 0 24.94-44.21 51.56-47.58 75.24-8-15.53-37.39-24.07-37.39-57.83 0-28.74 27.94-34.77 33.12-14.34Z" data-name="White Logo RGB" style="fill:#fff"/></svg>