<svg xmlns="http://www.w3.org/2000/svg" viewBox="0 0 127.18 131.2"><defs><clipPath id="clippath"><path d="m58.19 123.15 1.04-7.22c1.46-10.14 12.07-21.71 22.34-32.91 12.33-13.45 25.08-27.36 25.08-41.36 0-12.19-6.78-24.48-21.94-24.48-9.31 0-20.68 5.36-27.48 16.92l-.56.98a40.3 40.3 0 0 0-2.68 6.02c-2.77-6.89-8.5-11.05-15.51-11.05-10.71 0-22.1 10.06-22.1 28.7 0 23.31 13.82 35.16 24.92 44.68 5.48 4.69 10.2 8.75 12.63 13.38l3.77 7.23z" style="fill:none"/></clipPath><style>.cls-4{fill:#fff}.cls-5{fill:#f9f9f9}</style></defs><g id="MALTA" style="clip-path:url(#clippath)"><path d="m6.16 18.63 98.06-10.31v108.73l-98.06 10.3z" class="cls-5"/><path d="m54.51 13.47 55.04-5.15v108.73l-55.04 5.15z" style="fill:#d41431"/><g id="cross"><g id="outer"><path d="m36.91 56.5-5.45.57v-4.61c-.68-.03-1.29-.52-1.43-1.21 0-.03 0-.05-.01-.08l-4.61.48V46.2l4.61-.48c.1-.69.66-1.36 1.36-1.57.03 0 .05-.01.08-.02v-4.61l5.45-.57v4.61c.68.03 1.29.52 1.43 1.21 0 .03 0 .05.01.08l4.61-.48v5.45l-4.61.48c-.1.69-.66 1.36-1.36 1.57-.03 0-.05.01-.08.02zm-4.84-.1 4.24-.45v-4.62h.32c.08-.01.16-.03.24-.05.53-.16.92-.7.89-1.21l-.02-.32 4.62-.49v-4.24l-4.62.49.02-.33c0-.08 0-.16-.02-.24-.1-.51-.6-.86-1.11-.77l-.32.06v-4.62l-4.24.45v4.62h-.32c-.08.01-.16.03-.24.05-.53.16-.92.7-.89 1.21l.02.32-4.62.49v4.24l4.62-.49-.02.33a.973.973 0 0 0 1.13 1.01l.32-.06z" style="fill:#d41431;stroke:#d41431;stroke-miterlimit:10;stroke-width:1.96px"/><path d="M36.58 43.88c.66-.13 1.31.29 1.46.95.03.12.04.25.02.38V50c.06.65-.43 1.35-1.1 1.57-.13.04-.25.06-.38.06l-4.79.5c-.66.13-1.31-.29-1.46-.95a1 1 0 0 1-.02-.38v-4.79c-.06-.65.43-1.35 1.1-1.57.13-.04.25-.06.38-.06z" class="cls-5"/><path d="m31.8 39.81 4.79-.5V56.2l-4.79.5zm-6.06 6.69 16.89-1.78v4.79l-16.89 1.78z" class="cls-5"/><path d="m36.61 56.23-4.84.51v-6.05l-6.05.64v-4.84l6.05-.64V39.8l4.84-.51v6.05l6.05-.64v4.84l-6.05.64zm-4.78.44 4.73-.5v-6l-4.73.5zm4.78-6.55 6-.63v-4.73l-6 .63zm-4.78.5 4.73-.5v-4.73l-4.73.5zm-6.06.64 6-.63V45.9l-6 .63zm6.06-5.42 4.73-.5v-6l-4.73.5z"/><path d="m32.07 40.06 4.24-.45v16.34l-4.24.45zm-6.05 6.69 16.34-1.72v4.24l-16.34 1.72z" class="cls-5"/><path d="m36.37 56.01-4.35.46v-6.05l-6.05.64v-4.35l6.05-.64v-6.05l4.35-.46v6.05l6.05-.64v4.35l-6.05.64zm-4.24.33 4.12-.43v-5.94l-4.12.43zm4.24-6.5 5.94-.62V45.1l-5.94.62zm-4.24.45 4.12-.43v-4.12l-4.12.43zm-6.05.63 5.94-.62v-4.12l-5.94.62zm6.05-4.87 4.12-.43v-5.94l-4.12.43z"/><path d="M34.19 44.23c2.09-.22 3.78 1.3 3.78 3.39s-1.69 3.96-3.78 4.18-3.78-1.3-3.78-3.39 1.69-3.96 3.78-4.18" class="cls-5"/><path d="M34.19 51.85c-2.12.22-3.84-1.32-3.84-3.44s1.72-4.02 3.84-4.24 3.84 1.32 3.84 3.44-1.72 4.02-3.84 4.24m0-7.57c-2.05.22-3.73 2.06-3.73 4.12s1.67 3.55 3.73 3.33 3.73-2.06 3.73-4.12-1.67-3.55-3.73-3.33"/><path d="M34.19 45.21c1.55-.16 2.8.96 2.8 2.51s-1.25 2.93-2.8 3.09-2.8-.96-2.8-2.51 1.25-2.93 2.8-3.09" class="cls-5"/><path d="M34.19 50.86c-1.57.17-2.86-.98-2.86-2.56s1.28-2.99 2.86-3.16c1.57-.17 2.86.98 2.86 2.56s-1.28 2.99-2.86 3.16m0-5.59c-1.51.16-2.74 1.52-2.74 3.03s1.23 2.61 2.74 2.45 2.74-1.52 2.74-3.03-1.23-2.61-2.74-2.45"/><g id="g-vi"><path d="M37.84 44.59c-.13.11-.38.4-.53.6l-.14-.07c.19-.19.46-.46.61-.65l.07.13Zm-.12-.2c-.24.09-.69.28-.89.42l-.04-.06c.08-.13.17-.62.17-.75l.15.02c-.05.12-.1.38-.11.55.15-.04.51-.2.62-.28l.1.11Z" class="cls-4"/><path d="M37.3 45.22h-.02l-.14-.07s-.01-.01-.01-.02v-.02c.2-.19.46-.46.6-.65 0 0 .02-.01.03-.01 0 0 .02 0 .02.01l.07.13v.04c-.13.11-.37.39-.53.6 0 0-.01.01-.02.01Zm-.09-.11.09.04c.15-.2.37-.45.5-.57l-.04-.07c-.14.18-.37.41-.55.59Zm-.38-.28h-.02l-.04-.06v-.03c.07-.11.17-.59.17-.74 0 0 0-.02.01-.02h.02l.15.02s.02 0 .02.01v.02c-.04.11-.09.34-.1.5.17-.05.48-.19.57-.27.01-.01.03 0 .04 0l.1.11v.03s0 .02-.02.02c-.22.09-.69.27-.88.42h-.02Zm-.01-.09.02.02c.2-.14.59-.29.83-.39l-.06-.06c-.13.09-.46.23-.61.27h-.02v-.02c.01-.15.05-.39.1-.52H37c0 .16-.09.56-.16.71Z"/><path d="m38.02 44.9-.19.02c.04-.25-.18-.58-.49-.75s-.6-.11-.64.14.18.58.49.75c.12.07.25.1.36.09l.13-.17.16.15-.18.2c-.66-.03-1.18-.58-1.17-1.23 0-.06 0-.11.01-.16.63-.17 1.29.2 1.48.83l.03.13Z" class="cls-4"/><path d="M37.66 45.35c-.67-.03-1.2-.59-1.19-1.26 0-.06 0-.11.02-.17 0-.01.01-.02.02-.03.64-.17 1.32.21 1.51.85.01.04.02.09.03.14v.02s-.01.01-.02.01l-.19.02h-.02v-.02c.04-.24-.18-.56-.48-.73-.18-.1-.36-.12-.48-.06-.06.03-.1.09-.12.17-.04.24.18.56.48.73.11.06.23.09.33.09l.12-.16s.01-.01.02-.01h.02l.16.15v.04l-.18.2s-.01 0-.02.01Zm-1.13-1.4s-.01.09-.01.14c-.01.63.49 1.17 1.13 1.2l.15-.17-.12-.11-.11.15s-.01.01-.02.01c-.11 0-.24-.03-.37-.1-.32-.17-.55-.52-.51-.78.02-.1.07-.17.15-.22.14-.07.33-.05.53.05.31.17.53.49.51.75h.12s-.02-.08-.02-.11c-.18-.61-.82-.97-1.43-.82Z"/></g><g id="g-vi-2" data-name="g-vi"><path d="M37.22 51.34c-.1-.12-.36-.34-.54-.47l.09-.15c.17.18.41.42.59.55l-.13.08Zm.22-.15c-.07-.23-.2-.67-.33-.85l.06-.05c.12.07.6.11.74.09l-.03.15c-.12-.04-.37-.06-.54-.05.03.15.15.5.22.59l-.12.11Z" class="cls-5"/><path d="M37.22 51.36h-.02c-.1-.12-.35-.34-.54-.47-.01 0-.01-.02 0-.04l.09-.15.02-.02h.02c.17.18.42.42.59.54 0 0 .01.01 0 .02 0 0 0 .02-.02.02l-.13.08h-.01Zm-.51-.51c.18.13.41.33.52.45l.07-.04c-.16-.13-.38-.33-.54-.5zm.73.37s-.02 0-.02-.02c-.07-.22-.2-.67-.32-.84v-.04l.06-.05h.03c.11.06.58.11.72.09h.02v.02l-.03.15s0 .02-.01.02h-.02a2.3 2.3 0 0 0-.49-.05c.04.16.14.46.21.55v.04l-.12.11h-.02Zm-.29-.87c.11.18.23.56.3.8l.07-.07c-.08-.12-.18-.44-.21-.58v-.02s.01-.01.02-.01c.15 0 .38.01.51.05l.02-.08c-.17 0-.56-.03-.7-.09l-.02.02Z"/><path d="M36.9 51.55v-.19c.24.02.6-.24.81-.58.2-.33.17-.62-.07-.63s-.6.24-.81.58c-.08.13-.13.26-.13.37l.16.12-.16.18-.18-.16c.1-.67.7-1.25 1.35-1.31h.16c.1.62-.34 1.33-.99 1.58-.05.02-.09.03-.14.05Z" class="cls-5"/><path d="M36.9 51.58h-.02s-.01-.01-.01-.02v-.19s0-.02.01-.02h.02c.23.02.58-.24.78-.56.12-.2.16-.38.11-.49a.17.17 0 0 0-.16-.1c-.23-.01-.58.24-.78.56-.07.12-.12.24-.13.34l.15.11s0 .01.01.02v.02l-.16.18s-.01 0-.02.01-.01 0-.02 0l-.18-.16v-.02c.1-.68.72-1.28 1.38-1.34h.17c.01 0 .02 0 .02.02.11.63-.34 1.36-1.01 1.62-.05.02-.09.03-.14.05Zm.03-.18v.12s.07-.02.1-.04c.63-.25 1.06-.93.97-1.53h-.14c-.63.05-1.22.62-1.32 1.27l.15.14.12-.13-.13-.1s-.01-.01-.01-.02c0-.11.05-.25.14-.38.21-.34.58-.61.83-.59.1 0 .17.05.2.13.06.13.02.33-.11.55-.2.33-.55.59-.8.59Z"/></g><g id="g-vi-3" data-name="g-vi"><path d="M30.54 51.42c.13-.11.38-.4.53-.6l.14.07c-.19.19-.46.46-.61.65l-.07-.13Zm.12.21c.24-.09.69-.28.89-.42l.04.06c-.08.13-.17.62-.17.75l-.15-.02c.05-.12.1-.38.11-.55-.15.04-.51.2-.62.28l-.1-.11Z" class="cls-5"/><path d="m31.42 52.05-.15-.02s-.02 0-.02-.01V52c.04-.11.09-.34.1-.5-.17.05-.48.19-.57.27h-.04l-.1-.11v-.03s0-.02.02-.02c.22-.09.69-.27.88-.42h.04l.04.06v.03c-.07.11-.17.59-.17.74 0 0 0 .02-.01.02h-.02Zm-.11-.07h.08c0-.16.09-.56.16-.71l-.02-.02c-.2.14-.59.29-.83.39l.06.06c.13-.09.46-.23.61-.27h.02v.02c-.01.15-.05.39-.1.52Zm-.7-.4s-.02 0-.02-.01l-.07-.13v-.04c.13-.11.37-.39.53-.6 0-.01.02-.02.04-.01l.14.07s.01.01.01.02v.02c-.2.19-.46.46-.6.65 0 0-.01.01-.02.01Zm-.03-.15.04.07c.14-.18.37-.41.55-.59l-.09-.04c-.15.2-.37.45-.5.57Z"/><path d="m30.36 51.12.19-.02c-.04.25.18.58.49.75s.6.11.64-.14-.18-.58-.49-.75a.6.6 0 0 0-.36-.09l-.13.17-.16-.15.18-.2c.66.03 1.18.58 1.17 1.23 0 .06 0 .11-.01.16-.63.17-1.29-.2-1.48-.83l-.03-.13Z" class="cls-5"/><path d="M31.68 52.15c-.58.06-1.15-.3-1.32-.88-.01-.04-.02-.09-.03-.14v-.02s.01-.01.02-.01l.19-.02h.02v.02c-.04.24.18.56.48.73.18.1.36.12.48.06.06-.03.1-.09.12-.17.04-.24-.18-.56-.48-.73a.7.7 0 0 0-.33-.09l-.12.16s-.01.01-.02.01h-.02l-.16-.15v-.04l.18-.2.02-.01c.67.03 1.2.59 1.19 1.26 0 .06 0 .11-.02.17 0 .01-.01.02-.02.03-.06.02-.13.03-.19.04Zm-1.29-1s.02.07.02.1c.18.61.82.97 1.43.82 0-.05.01-.09.01-.14a1.19 1.19 0 0 0-1.13-1.2l-.15.17.12.11.11-.15s.01-.01.02-.01c.11 0 .24.03.37.1.32.17.55.52.51.78-.02.1-.07.17-.15.22-.14.07-.34.05-.53-.05-.31-.17-.53-.49-.51-.75z"/></g><g id="g-vi-4" data-name="g-vi"><path d="M31.16 44.68c.1.12.36.34.54.47l-.09.15c-.17-.18-.41-.42-.59-.55l.13-.08Zm-.22.14c.07.23.2.67.33.85l-.06.05c-.12-.07-.6-.11-.74-.09l.03-.15c.12.04.37.06.54.05-.03-.15-.15-.5-.22-.59l.12-.11Z" class="cls-4"/><path d="M31.2 45.75h-.02c-.11-.06-.57-.11-.72-.09h-.02v-.02l.03-.15s0-.02.01-.02h.02c.11.03.33.05.49.05-.04-.16-.14-.46-.21-.55v-.04l.12-.11s.02-.01.03 0c0 0 .02 0 .02.02.07.22.2.67.32.84v.04l-.06.05h-.02Zm-.7-.15c.17 0 .56.03.7.09l.02-.02c-.11-.18-.23-.56-.3-.8l-.07.07c.08.12.18.44.21.58v.02s-.01.01-.02.01c-.15 0-.38-.01-.51-.05l-.02.08Zm1.12-.27h-.02a5 5 0 0 0-.59-.54s-.01-.01 0-.02c0 0 0-.02.02-.02l.13-.08h.04c.1.12.35.34.54.47.01 0 .01.02 0 .04l-.09.15-.02.02Zm-.54-.57c.16.13.38.33.54.5l.05-.09c-.18-.13-.41-.33-.52-.45z"/><path d="M31.48 44.46v.19c-.24-.02-.6.24-.81.58-.2.33-.17.62.07.63s.6-.24.81-.58c.08-.13.13-.26.13-.37l-.16-.12.16-.18.18.16c-.1.67-.7 1.25-1.35 1.31h-.16c-.1-.62.34-1.33.99-1.58.05-.02.09-.03.14-.05Z" class="cls-4"/><path d="M30.54 46.12h-.19c-.01 0-.02 0-.02-.02-.11-.63.34-1.36 1.01-1.62.05-.02.09-.03.14-.05h.02s.01.01.01.02v.19s0 .02-.01.02h-.02c-.23-.01-.58.24-.78.56-.12.2-.16.38-.11.49.03.06.08.1.16.1.23.02.58-.24.78-.56.07-.12.12-.24.13-.34l-.15-.11s0-.01-.01-.02v-.02l.16-.18s.01 0 .02-.01.01 0 .02 0l.18.16v.02c-.1.67-.7 1.27-1.36 1.33Zm-.16-.06h.16c.62-.07 1.2-.63 1.3-1.27l-.15-.14-.12.13.13.1s.01.01.01.02c0 .11-.05.25-.14.38-.21.34-.58.61-.83.59-.1 0-.17-.05-.2-.13-.06-.13-.02-.33.11-.55.2-.33.55-.59.8-.59v-.12s-.07.02-.1.04c-.63.25-1.06.93-.97 1.53Z"/></g></g><g id="inscription"><path d="M31.19 50.44c-.09-.14-.2-.32-.26-.36.04-.03.09-.07.11-.08 0 .09.14.28.14.28l.21-.16c-.06-.08-.11-.15-.15-.17.05-.04.11-.08.12-.09 0 .05.03.12.11.21 0 0 .2-.12.26-.21l.08.13c-.09.03-.51.33-.63.47Zm-.3-1.76a.41.41 0 0 0-.3.47c.04.21.23.34.44.28s.33-.27.29-.49-.21-.33-.43-.26m.04.12c.18-.05.33.02.35.15s-.09.28-.26.33-.32-.05-.34-.16.07-.28.25-.33Zm.43-1.34c-.07.12-.24.25-.38.36-.02-.1-.1-.16-.18-.15-.09 0-.19.09-.21.14-.02.07-.05.37-.05.37.18-.03.59-.04.73 0l.02-.16c-.09.03-.3.01-.3.01v-.07l.22-.19c.03-.02.19-.19.19-.3 0-.03-.03-.02-.03 0Zm-.43.56c-.08.01-.26.02-.31 0 .02-.17.07-.24.16-.24.08 0 .17.04.15.23Zm.81-2.18c-.16.03-.36.2-.36.33 0 .07.02.16.12.22.09.06.18.07.26.05.07-.02.19-.13.19-.19 0-.05-.13-.19-.21-.18l.13-.16c.03.08.17.19.22.2-.06.14-.13.3-.28.38-.15.09-.31.1-.45-.02-.13-.11-.08-.36 0-.47.09-.12.27-.18.27-.26zm.75-.87.03.53s.01.19-.03.31l.17-.13c-.07-.05-.05-.21-.05-.21l.27-.17s.13.07.11.17l.23-.12c-.13-.04-.3-.14-.3-.14l-.42-.25Zm.09.16.25.14-.24.15v-.29Zm1.2-.69c-.03.13 0 .39.05.6.17-.03.29-.06.35-.14l.02.18c-.16.02-.35.06-.51.1 0-.24-.02-.56-.09-.69zm1.25-.05c-.08.12-.14.38-.17.6.16.03.29.05.37 0l-.05.18c-.15-.04-.33-.07-.49-.09.09-.23.18-.55.17-.7l.18.02Zm1.27.44-.47.32s-.17.11-.29.14l.18.08c.02-.08.17-.16.17-.16l.25.15s-.02.15-.11.2l.19.14c-.01-.14.02-.35.02-.35l.07-.52Zm-.11.16-.04.3-.22-.13.26-.16Zm.36 1.06-.07-.13c.12-.02.48-.27.65-.4l.03.04-.16.73c.14-.07.36-.21.42-.28l.08.15c-.15 0-.44.17-.66.32l-.02-.04.13-.71s-.36.2-.4.31Zm1.1.92c-.01-.1-.02-.18-.07-.19v-.04l.12-.03c.05.13.11.51.11.61l-.13.04v-.04c.04-.05 0-.23 0-.23-.2.04-.54.13-.59.2l-.03-.18c.07.02.41-.06.59-.13Zm-.64 1.63c.07-.12.24-.25.38-.36.02.1.09.16.18.15.09 0 .19-.09.21-.14.02-.07.06-.37.06-.37-.18.03-.59.04-.72 0l-.02.16c.09-.03.3-.01.3-.01v.07l-.22.19c-.03.02-.19.19-.2.3 0 .03.03.02.03 0Zm.43-.56c.08-.01.26-.02.31 0-.02.17-.07.24-.16.24-.08 0-.17-.04-.14-.24Zm-.66 1.05-.11.2c.09-.02.2.03.3.09.03.08.16.29.15.5l.14-.26c-.06-.02-.14-.04-.18-.27.19-.09.33-.13.39-.1l.13-.23c-.15.1-.49.23-.54.22-.06-.03-.23-.06-.26-.15Z"/><ellipse cx="35.93" cy="50.62" rx=".16" ry=".14" transform="rotate(-46.5 35.933 50.62)"/><ellipse cx="32.45" cy="50.98" rx=".16" ry=".14" transform="rotate(-46.5 32.453 50.986)"/></g><g id="rose"><path d="M34.42 51.59s-.06 0-.07-.04c0 .01 0 .04-.02.07-.05.05-.1.03-.14.04s-.09.03-.14 0c-.02-.02-.02-.05-.02-.06 0 .03-.05.06-.07.05-.01 0 0-.06.02-.08 0 0-.04.02-.07 0-.06-.03-.05-.08-.07-.12s-.05-.08-.02-.14c.01-.03.04-.04.05-.05-.03 0-.07-.02-.06-.04 0-.02.05-.03.08-.01 0 0-.02-.03-.02-.06.01-.07.07-.09.1-.11.03-.03.06-.08.13-.08.03 0 .05.02.06.03-.01-.03 0-.07.03-.08s.04.04.03.07c0 0 .03-.04.06-.04.07-.02.09.03.13.05.03.02.09.03.1.09 0 .03-.01.06-.02.07.03-.02.07-.02.08 0 0 .02-.03.05-.06.05 0 0 .04.01.05.04.03.06 0 .1-.02.14s0 .1-.07.13c-.02.02-.06.01-.07 0 .03.02.04.06.02.07Zm-.34-.13s-.03.06-.01.11c.02.06.09.03.12.03s.1 0 .12-.06-.03-.09-.01-.11.04.04.1.04c.07-.01.07-.07.08-.11s.05-.09 0-.13c-.04-.03-.1.01-.11-.01s.06-.03.08-.09c.02-.07-.04-.08-.07-.1s-.07-.07-.13-.02c-.05.04-.03.1-.05.1s0-.06-.05-.09c-.06-.03-.09.03-.13.05-.03.03-.09.05-.07.12.02.05.08.05.08.07s-.07 0-.11.03c-.05.05-.02.1 0 .13.01.03.01.1.08.09.06 0 .08-.07.1-.06Z"/><path d="M34.19 51.53s-.02-.02-.02-.04l-.03.03c-.04.01-.06-.02-.08-.03s-.05-.02-.06-.06c0-.02 0-.04.01-.04-.02.01-.04.01-.05 0 0 0 .02-.03.04-.03 0 0-.02 0-.03-.02-.02-.03 0-.06.01-.09 0-.02 0-.06.04-.08h.04c-.02 0-.02-.04-.01-.04 0 0 .03 0 .04.02 0 0 0-.03.01-.04.03-.03.06-.02.09-.02s.06-.02.09 0c.01 0 .01.03.01.04 0-.02.03-.04.04-.03 0 0 0 .03-.01.05h.04c.04.02.03.05.04.07 0 .02.03.05.01.08 0 .01-.02.03-.03.03.02 0 .04.02.04.03s-.03.02-.05 0c0 0 .01.02.01.04 0 .04-.04.05-.06.07s-.04.05-.08.05c-.02 0-.03-.01-.03-.02 0 .02 0 .05-.02.05Zm0-.13s0 .03.03.05.05-.01.07-.03.05-.03.04-.06c0-.03-.04-.03-.04-.04s.03 0 .06-.02c.03-.03 0-.05 0-.07s0-.05-.04-.05c-.03 0-.04.04-.05.03s.02-.03 0-.06c-.01-.03-.05-.02-.07-.02s-.05 0-.07.03c-.01.03.02.05 0 .06s-.02-.02-.05-.02c-.04 0-.04.04-.04.06s-.03.05 0 .07c.02.02.06 0 .06 0 0 .01-.03.02-.04.05-.01.04.02.04.04.05s.04.04.07.01c.02-.02.02-.05.03-.06Z"/><ellipse cx="34.19" cy="51.3" rx=".06" ry=".05" transform="rotate(-46.5 34.19 51.305)"/></g><g id="inner"><path id="ground" d="M36.12 49.87c-1.28.08-2.57.22-3.85.4-.02 0-.03 0-.03-.02q0-.03.03-.03c1.28-.19 2.58-.32 3.86-.41q.03 0 .03.03t-.03.03Z"/><path id="rider-l" d="M34.32 48.54h-.01c-.02-.05-.02-.15-.02-.26 0 0 0-.01.02-.01 0 0 .01 0 .01.01 0 .11 0 .2.01.25v.02Zm-.18.02s-.01 0-.01-.01c0-.05-.04-.18-.08-.22v-.02h.02a.5.5 0 0 1 .09.24s0 .01-.01.01Zm0-1.8h-.01s-.01-.03-.09-.11v-.02h.02c.09.09.1.11.1.12v.02Z"/><g id="dragon"><path d="M34.86 49.95s-.13.07-.13.11.1.04.12.04a.5.5 0 0 1-.28.05c-.05.04-.42 0-.5 0-.05 0-.11-.03-.11-.12 0-.02.01-.07.06-.09-.03-.04.09-.13.2-.21-.17.04-.38 0-.44-.06-.13-.03-.19.02-.24.14 0 .19-.1.3-.23.3-.09 0-.11.04-.13.05l.26.05c.17.15.07.28.03.32-.04.03-.13.03-.19.04s-.06.02-.08.04c-.04.03-.08.04-.1.02.01-.03.03-.14.1-.16.04 0 .12-.04.12-.08s-.14-.02-.25-.05c-.09-.03-.13-.07-.09-.22.03-.17.22-.21.31-.22a.36.36 0 0 1 .08-.28c.13-.13.33-.11.49-.12.1-.06.27-.16.45-.19.16-.02.85-.27 1.16-.27-.07-.1-.05-.35.07-.43.16-.11.34.12.38.07s-.05-.1-.17-.22c-.03-.05-.02-.05-.02-.06 0-.04 0-.09.02-.1.01-.01.11.02.14.05.03.05.07.06.1.03.04-.04-.01-.02-.04-.09-.01-.03-.04-.06-.04-.09.02-.03.12-.12.19-.15.03.03.05.06.07.1.06.08.11.05.15.11.01.02.01.08.04.14.05.09.15.19.28.26.02.01.05.03.05.05 0 .03-.02.06-.03.08-.02.02-.08.03-.13 0-.09-.03-.12-.05-.17-.04-.11.03-.18.21-.34.23-.15 0-.25-.21-.34-.14s.2.22.17.31c.02.02.07.08.06.13a.54.54 0 0 0 .31-.25c.08-.11.14-.18.18-.2s.1 0 .1.03c.02 0 .04.01.07.01.04.02.03.06.01.08 0 0-.02-.01-.05-.02-.02 0-.06.03-.09.06s-.06.1-.09.15c-.03.04-.12.14-.16.19.02.03.01.09.01.12 0 0 .04 0 .05.01.02.01.01.02 0 .06s-.16.23-.2.23c-.07 0-.11-.07-.1-.1-.07.04-.1-.03-.11-.06a.7.7 0 0 1-.17.13c-.04.02-.05.02-.07-.03-.01.04-.11.08-.13.09-.12.04-.25.11-.37.12l-.3.03.03.02Z" class="cls-4"/><path d="M33.13 50.65s-.03 0-.04-.01v-.04c.01-.05.04-.13.11-.16.05-.01.1-.04.11-.06h-.09c-.05 0-.1 0-.15-.02-.11-.03-.14-.09-.11-.25.02-.12.13-.21.31-.23 0-.08.01-.19.09-.27.11-.12.28-.12.43-.12h.08c.08-.05.26-.16.45-.19.05 0 .17-.04.3-.08.26-.08.61-.18.83-.19a.4.4 0 0 1-.01-.24c.02-.08.06-.15.12-.19.11-.08.23 0 .31.04.03.02.06.03.07.03.01-.02-.03-.05-.09-.11a1 1 0 0 0-.08-.07c-.03-.04-.03-.05-.03-.07s0-.11.03-.13.14.02.17.05c.02.02.04.04.05.04h.02c-.01 0-.03-.03-.04-.06 0-.01-.01-.02-.02-.03a.14.14 0 0 1-.02-.07v-.01c.02-.03.12-.12.2-.15h.02c.03.02.04.05.06.08 0 0 0 .02.02.02.03.04.05.05.08.06.02 0 .05.02.07.05 0 .01.01.03.02.05 0 .03.01.06.03.08.05.1.16.19.28.25.01 0 .06.03.06.07s-.03.08-.04.1c-.02.03-.09.04-.16.02h-.04c-.06-.04-.08-.05-.12-.04s-.08.05-.12.09c-.06.06-.12.13-.22.14-.08 0-.14-.05-.2-.09-.06-.05-.1-.07-.13-.05v.01c0 .03.05.08.09.12.05.05.1.1.1.15.02.02.05.06.05.11.13-.05.23-.15.27-.22.08-.12.14-.19.19-.21a.09.09 0 0 1 .1 0c.01 0 .02.02.03.03h.05c.03.01.04.03.04.04 0 .02 0 .05-.02.07 0 0-.01.01-.02 0h-.05s-.06.03-.07.05c-.02.02-.03.05-.05.07-.01.02-.03.05-.04.07-.02.02-.05.06-.08.09s-.06.06-.08.09c.01.02 0 .06 0 .08v.01c.01 0 .03 0 .05.01.03.02.02.04.01.08s-.16.25-.22.25-.06 0-.09-.04c-.01-.02-.02-.03-.03-.05h-.05c-.02 0-.04-.03-.04-.05-.05.04-.12.09-.16.11-.02.01-.04.02-.06.01 0 0-.01 0-.02-.02-.04.04-.11.06-.12.07-.04.01-.09.03-.13.05-.08.03-.16.06-.25.07s-.25.02-.25.02 0 .02-.01.02c-.05.02-.11.07-.11.09 0 0 .01.02.08.02h.03s.01 0 .02.02c0 0 0 .02-.01.02-.05.03-.21.08-.29.05-.05.02-.17.01-.35 0h-.15c-.03 0-.07-.01-.09-.03s-.04-.05-.03-.11c0-.02.02-.07.06-.1 0-.05.06-.1.15-.17-.15.01-.31-.02-.37-.08-.12-.03-.16.02-.21.12 0 .1-.03.19-.08.24s-.11.07-.17.07c-.04 0-.06 0-.08.02l.22.05c.07.06.11.13.1.2 0 .08-.06.14-.07.15-.03.03-.1.04-.16.04h-.04c-.03 0-.04.01-.05.02l-.02.02a.16.16 0 0 1-.08.03Zm0-.04s.03 0 .06-.03l.01-.01c.02-.02.03-.03.08-.03h.05c.05 0 .11 0 .13-.03 0 0 .05-.05.06-.12 0-.06-.03-.11-.09-.16l-.26-.05s-.01 0-.02-.02c0 0 0-.02.01-.02l.01-.01c.02-.02.05-.05.13-.05.06 0 .1-.02.14-.06.05-.05.07-.12.07-.22.05-.12.12-.19.27-.15.05.05.25.1.42.06 0 0 .02 0 .02.01v.03c-.19.13-.2.17-.19.18v.02c0 .01 0 .01-.01.01-.04.02-.04.07-.04.07 0 .03 0 .06.02.08s.05.03.06.02h.16c.1 0 .3.02.33 0h.02c.04.02.12 0 .19-.01-.03 0-.05-.02-.06-.05 0-.04.06-.09.1-.12v-.02l.02-.02.3-.03c.08 0 .16-.04.23-.07.04-.02.09-.03.13-.05.03 0 .11-.05.11-.07 0 0 .01-.02.02-.02 0 0 .02 0 .02.01v.02s.02 0 .03-.01a.7.7 0 0 0 .16-.12s.01-.01.02-.01c0 0 .01 0 .02.02 0 .01.01.04.03.05h.06v.02s0 .03.02.05c0 .01.03.03.06.02.03 0 .17-.18.18-.22v-.03c-.01 0-.04-.01-.04-.01-.01 0-.02 0-.02-.02v-.04c0-.03 0-.06-.01-.07v-.03c.02-.03.05-.07.09-.1.03-.03.06-.07.07-.09s.03-.04.04-.06c.02-.03.04-.07.06-.09.04-.03.08-.07.12-.06h.02s.01 0 .01.01v-.01l-.01-.01h-.08v-.02s0-.01-.01-.02c-.01 0-.04-.01-.06 0-.03.02-.08.06-.17.19-.04.09-.16.21-.32.26h-.02c-.01 0 0-.01 0-.02 0-.04-.03-.1-.05-.11 0 0-.01-.02 0-.03.01-.02-.05-.08-.09-.12-.05-.05-.1-.1-.1-.15 0-.02.01-.03.02-.04.06-.05.12 0 .18.05.05.04.11.08.17.09.08 0 .13-.07.19-.13.05-.05.09-.09.15-.11.05-.01.08 0 .14.02h.04c.05.03.1.02.11.01 0-.01.03-.04.03-.06 0 0-.02-.03-.04-.04a.7.7 0 0 1-.29-.27.2.2 0 0 1-.03-.09c0-.02 0-.03-.01-.04a.06.06 0 0 0-.05-.03.2.2 0 0 1-.1-.07s-.01-.02-.02-.02c-.01-.02-.03-.04-.04-.06-.06.03-.13.1-.16.13 0 .01 0 .03.02.04 0 .01.01.02.02.04 0 .03.02.04.03.04 0 0 .02.01.02.03 0 .01-.01.03-.02.04-.02.01-.03.02-.05.02-.03 0-.06-.02-.08-.06a.25.25 0 0 0-.11-.04c0 .01-.01.04-.01.08l.02.04c.03.03.06.05.08.07.08.07.14.12.09.17-.03.03-.07 0-.12-.02-.07-.04-.17-.1-.27-.04-.04.03-.08.09-.09.16-.02.09 0 .19.03.24v.02s-.01.01-.02.01c-.21 0-.58.11-.85.19-.14.04-.25.07-.31.08-.19.03-.38.15-.44.18h-.09c-.14 0-.29 0-.39.11-.08.08-.09.19-.08.26v.02h-.02c-.12.01-.27.06-.29.2-.03.15 0 .18.08.2.05.01.1.02.15.02.07 0 .12 0 .12.05 0 .06-.09.09-.14.1-.04.01-.06.08-.07.12Z"/><path d="M35.29 48.76s-.07.18.03.25c.06.05.17.08.2.14.03.05-.01.11-.02.11-.07 0-.15.12-.19.2-.04-.11-.11-.07-.2-.05.02-.12-.07-.18-.21-.18.02-.03-.02-.06-.05-.09-.04-.03-.15 0-.16-.01s.05-.08.02-.13-.16 0-.21-.02c0-.06.02-.1-.02-.15-.03-.05-.18-.02-.26-.03.06-.05.09-.11.05-.18-.03-.07-.19.03-.19-.06 0-.03.19-.08.26-.09s.3.02.52.05c.05.04.4.11.4.24Z" class="cls-4"/><path d="M35.31 49.47h-.01c-.03-.08-.08-.07-.16-.05h-.04v-.01c0-.04 0-.07-.02-.1-.03-.04-.1-.06-.18-.07h-.01v-.01c0-.02-.03-.04-.05-.06-.01-.01-.05 0-.08 0-.04 0-.07 0-.08-.01 0-.01 0-.03.01-.05.02-.03.02-.05.01-.07-.02-.03-.07-.02-.12-.01h-.08v-.01c0-.07.01-.1-.02-.15-.02-.03-.09-.03-.16-.02h-.09v-.01c.06-.05.08-.11.05-.16-.01-.02-.05-.02-.09-.02h-.09c-.01 0-.02-.02-.02-.04 0-.06.27-.11.27-.11.07-.01.31.02.53.05.01 0 .05.02.1.04.12.04.31.11.31.21v.05c-.01.06-.03.14.04.19.02.02.05.03.08.04.05.03.11.06.13.1s0 .08 0 .11c-.01.01-.02.02-.03.02-.05 0-.14.11-.17.19h-.01Zm-.1-.09s.08 0 .1.05c.04-.08.12-.18.19-.18 0 0 .01-.01.02-.03v-.06c-.02-.04-.07-.07-.12-.09-.03-.02-.06-.03-.08-.05-.08-.06-.06-.16-.05-.22v-.04c0-.09-.19-.15-.3-.19-.05-.02-.08-.03-.1-.04-.2-.03-.44-.06-.51-.05-.1.02-.24.06-.25.08v.02c.01.01.04 0 .07 0 .04 0 .09-.01.11.03.03.06.02.12-.04.17h.06c.08 0 .15 0 .18.04.03.05.03.09.02.15h.06c.06 0 .12-.01.14.02s0 .07 0 .1c0 0-.01.02-.01.03h.05c.04 0 .08 0 .1.01.03.03.06.05.06.08.08 0 .15.03.18.08.02.03.03.06.03.1h.01c.03 0 .05-.01.08-.02Zm-.38.58h-.01c-.06-.01-.1-.02-.1-.08 0-.02.01-.04.03-.05-.03 0-.07.02-.1.03-.02 0-.05.02-.06.02-.04 0-.12.01-.2.03-.06.01-.13.02-.18.03-.01 0-.02 0-.02-.02s0-.02.02-.02c.25-.09.33-.17.34-.22.01-.03 0-.07-.03-.1-.05-.06-.25-.08-.36-.07-.01 0-.02 0-.02-.02 0-.01 0-.02.02-.02.11 0 .32 0 .39.09.04.05.05.1.03.14q-.03.09-.21.18h.01q.135-.03.21-.03c.01 0 .03-.01.05-.02.07-.02.16-.06.21-.04 0 0 .01 0 .01.02 0 0 0 .02-.01.02h-.02c-.02.01-.07.03-.07.06 0 .02 0 .02.07.04h.01s.02.02.01.03c0 0-.01.02-.02.02Zm.81-.23s-.02 0-.02-.01c-.02-.1-.13-.09-.25-.08h-.13c-.01 0-.02-.01-.02-.02s.01-.02.02-.02h.12c.12 0 .26-.01.29.11 0 .01 0 .02-.02.03Zm.23-.11h-.02v-.03c.12-.07.22-.15.33-.26h.03v.03c-.11.11-.22.19-.34.26m.14-1.1s-.03 0-.06-.02c-.06-.04-.17-.1-.21-.14v-.02h.02c.04.04.15.1.21.14s.05.02.05.01c.01-.01.01-.06-.02-.11v-.02h.02c.04.06.04.11.02.14 0 0-.02.01-.03.02"/><path d="M35.12 49.42v-.02c.03-.04.09-.11.15-.16l.06-.06h.02v.02l-.06.06c-.06.06-.12.12-.15.16h-.01Zm-.22-.18h-.01v-.02c.06-.03.2-.1.32-.14h.02s0 .01-.01.02c-.12.03-.26.1-.32.13Zm-.2-.1h-.01s0-.01.01-.02c.16-.05.37-.1.49-.11 0 0 .01 0 .01.01 0 0 0 .01-.01.01-.12 0-.33.06-.49.11m-.19-.14h-.01v-.02c.19-.07.4-.09.56-.1h.1s.01 0 .01.01c0 0 0 .01-.01.01h-.1c-.16.01-.36.02-.55.09Zm.63-.22h-.11c-.18-.01-.53-.04-.78.04h-.02c-.01 0 0-.01 0-.02.26-.08.61-.06.79-.04h.11s.01 0 .01.01c0 0 0 .01-.01.01Zm.42-.17h-.01c-.03-.04-.05-.06-.04-.09 0-.06.04-.14.06-.18-.02-.05-.05-.12-.01-.19 0-.01.01-.02.02-.04.03-.06.04-.1.13-.12.05-.01.07-.02.08-.03h-.06c-.09 0-.12.03-.15.06-.03.04-.06.07-.09.11-.05.07-.1.13-.16.17s-.11.06-.17.08c-.09.03-.17.06-.24.14h-.02v-.02c.08-.09.17-.12.25-.15.05-.02.11-.04.17-.08.05-.03.1-.09.15-.16.03-.04.06-.08.09-.11.04-.04.07-.07.17-.07.09 0 .09.02.09.03s-.01.03-.11.06c-.07.02-.08.05-.11.1 0 .01-.01.02-.02.04-.03.06 0 .12.02.16s0 .01 0 .02c-.02.04-.05.12-.06.18 0 .02 0 .04.04.07v.02Zm.42 1.06v-.01c.1-.06.14-.1.18-.14l.06-.06h.01v.01l-.06.06c-.04.05-.09.09-.19.15Zm.28-.54v-.01c.05-.03.07-.07.1-.1.04-.05.07-.1.16-.14h.01v.01c-.08.03-.11.08-.15.13-.03.04-.05.08-.1.11Zm-.11-.41c-.05 0-.09-.04-.09-.08 0-.02.01-.05.03-.06.02-.02.06-.03.09-.03s.05.01.07.02.04.02.07.02h.01v.01c-.04 0-.06 0-.08-.02-.02-.01-.03-.02-.06-.02s-.06 0-.08.03c-.02.01-.02.03-.02.05 0 .04.04.07.08.06.02 0 .03 0 .05-.01.03-.01.06-.02.12-.02h-.01c-.05 0-.08.01-.11.02-.02 0-.03.01-.05.01Zm.13-.36c-.02 0-.04 0-.06-.02s-.03-.05-.01-.07.04-.02.07 0c.01.01.02.03.02.04 0 .02 0 .03-.01.04h-.02Zm-.05-.09h-.01s0 .03.01.05c.01.01.03.02.04.02v-.02s0-.02-.02-.03c-.01 0-.03-.02-.04-.01Zm-.16-.13h-.06.03s.09 0 .12-.03h.01v.01c-.02.03-.05.03-.09.04Z"/></g><g id="horse"><path d="M34.26 47.21s-.02 0-.02-.02v-.03s-.02 0-.02-.02v-.03s-.02 0-.02-.02v-.03s-.02 0-.02-.02v-.03s-.02 0-.02-.02v-.04s-.02 0-.02-.02v-.03s-.02 0-.02-.02v-.03s-.02 0-.02-.02 0-.03.01-.04-.02 0-.02-.02 0-.03.01-.03-.02 0-.02-.03c0-.02 0-.03.01-.03s-.02 0-.02-.03c0-.02 0-.03.01-.03 0 0-.02-.01-.01-.03 0-.02 0-.03.02-.03s-.01-.01-.01-.03 0-.03.02-.03-.01-.01-.01-.03 0-.03.02-.03-.01-.01-.01-.03.01-.03.02-.03c0 0-.01-.01 0-.03 0-.02.01-.03.02-.03 0 0-.01-.01 0-.03 0-.02.02-.03.02-.03s-.01-.01 0-.03c0-.02.02-.03.03-.03s-.01-.02 0-.03c0-.02.02-.03.03-.03v-.03c0-.02.02-.03.03-.03s0-.02 0-.03c0-.02.02-.03.03-.02V46c.01-.02.03-.03.04-.02s0-.02 0-.04c.01-.02.03-.02.04-.02s0-.02 0-.04.03-.02.04-.02" class="cls-4"/><path d="m34.26 47.21-.02-.02v-.03l-.02-.02v-.03l-.02-.02v-.03l-.02-.02v-.03l-.02-.02v-.03s-.01-.01-.01-.03v-.03s-.01-.01-.01-.03v-.03s-.01-.01-.01-.03v-.03s-.01-.01-.01-.03v-.03s-.01-.02-.01-.03v-.03s0-.02-.01-.03v-.06c0-.01 0-.03.01-.03v-.03c0-.01 0-.02.01-.03v-.03c0-.01 0-.02.01-.03v-.03c0-.01 0-.03.01-.03v-.03c0-.01 0-.02.02-.03v-.03c0-.01 0-.02.02-.03v-.03c0-.01.01-.02.02-.03v-.03c0-.01.01-.02.02-.03v-.03c0-.01.02-.02.03-.03v-.03c0-.01.02-.02.03-.03v-.03c0-.01.02-.02.03-.03 0 0 0-.02.01-.03 0-.01.02-.02.03-.02 0 0 0-.02.02-.03.02-.02.04-.03.05-.02 0 0-.02 0-.03.02 0 .01-.01.02-.01.02s-.02 0-.03.02c0 .01-.01.02-.01.02s-.02 0-.03.02v.02s-.02 0-.03.02V46s-.02 0-.02.02v.02s-.02 0-.02.03v.02s-.01.01-.02.03v.02s-.01.01-.02.03v.02s-.01.01-.02.03v.02s-.01.01-.01.03v.02s-.01.01-.01.03v.02s-.01.01-.01.03v.02s-.01.01-.01.03v.35c0 .01 0 .02.01.02v.03s0 .02.01.02 0 .01 0 .03c0 0 0 .02.01.02v.03s0 .02.01.02v.03s0 .01.01.02Z"/><path d="m34.26 47.21.07-.03zm-.02-.05.07-.03zm-.01-.05.08-.03zm-.02-.06.08-.03zM34.2 47l.09-.03zm-.01-.06.09-.03zm-.01-.06.1-.03zm-.01-.05.1-.02zm-.01-.06.11-.02zm-.01-.06.11-.02zm0-.06h.12v-.01h-.12zm.12-.07-.12.01zm0-.06h-.13zm.01-.05h-.13zm.01-.06h-.13v-.01h.13zm.01-.05-.14-.02zm.02-.05-.14-.02zm.02-.06-.14-.03zm.02-.05-.14-.05zm.02-.05-.14-.06zm.03-.04-.14-.07zm.03-.05-.14-.08zm.04-.04-.13-.1zm.04-.05-.13-.11zm.04-.04-.12-.13z"/><path d="M35.08 46.32c-.07.02-.11.03-.2.04-.02.04-.02.16-.02.2.19.16.37.37.39.59.06.04.1.09.13.17.14-.08.27-.21.39-.25.08-.03.21-.05.28-.01l.46.23c.09.05.16.12.2.18s.05.18.04.22l-.27-.05s0-.1.02-.14.02-.05-.02-.07c-.03-.02-.06 0-.09 0s-.07 0-.09-.03c-.03-.04-.31-.13-.36-.13s-.12 0-.18.07c-.03.05-.12.21-.2.28-.02.02-.02.05-.01.07 0 0 .18-.03.29-.02.11 0 .25.11.31.17.28.23.38.35.47.43.04.03.08.07.07.14l-.27.02c0-.1-.02-.17-.03-.22-.03-.04-.09-.01-.11 0-.02 0-.06-.04-.08-.08-.03-.07-.18-.16-.25-.19s-.09-.01-.16-.01c-.04 0-.14-.02-.2.02s-.27.12-.46.16c-.07.04-.27.1-.48.17-.16.05-.52.15-.6.16-.02.18-.21.44-.26.47-.05.08-.05.14-.01.17s.31 0 .38 0 .21-.02.23-.01c.05 0 .11.05.18.08.05.02.06.05.09.1.02.03.05.06.06.09l-.33.03c0-.07-.04-.12-.08-.12-.04.04-.1.08-.16.06-.25.01-.41.04-.65.05-.07 0-.13-.09-.1-.18.02-.09.01-.15 0-.21-.02.03-.12.13-.17.19-.08.1-.03.19 0 .24.05.04.32.27.35.34.03.04.13.11.24.19.03.08.1.11.15.15l-.41.04s.02-.05.02-.11c0-.02-.02-.07-.08-.05-.05.01-.1-.04-.12-.09s-.2-.26-.25-.31-.22-.2-.25-.2-.04-.07 0-.11.14-.21.17-.32c.02-.07 0-.08-.02-.1-.18-.11-.34-.28-.43-.43-.03.02-.23.04-.33 0-.07-.03-.17-.03-.23.06-.03.05-.03.15.02.18.08.05.17.14.26.24s.01.18-.1.29c.02.04 0 .04.02.1.04.05.04.19-.01.22-.05.04-.11.07-.17.15-.06.07-.08.01-.06-.11.01-.07-.04-.13-.09-.17-.05-.05-.02-.21 0-.26.03-.05.06-.14 0-.21s-.2-.19-.18-.39c.03-.26.27-.36.42-.31.24.08.38.04.45.02.07-.12.16-.24.31-.34.14-.09.4-.23.67-.3l.65-.3c.09-.04.09-.11.08-.16-.09-.43-.06-.9.3-1.18.04-.04.03-.13.08-.22.01.03.08.11.1.17.15.03.44.1.54.15.05.02.11.02.14.03.03 0 .06.04.08.07.03.05 0 .11-.03.12-.02.01-.15-.02-.18.02 0 .03.04.06.11.08.03.01-.02.08-.05.08-.02 0-.05 0-.07-.01-.08-.01-.16-.04-.24-.06Z" class="cls-4"/><path d="M33.55 50.09h-.02v-.02c.01-.03.02-.05.02-.1 0 0 0-.01-.01-.02 0 0-.02-.01-.04 0-.06.01-.12-.04-.14-.11-.01-.05-.19-.26-.25-.3-.01-.01-.04-.03-.07-.06-.05-.05-.16-.14-.17-.14-.02 0-.03-.02-.04-.04 0-.03 0-.07.03-.1s.13-.2.16-.31c.01-.05 0-.06 0-.07a1.4 1.4 0 0 1-.42-.42c-.07.02-.24.03-.33 0-.03-.01-.14-.04-.2.05-.03.05-.02.13.02.15.08.05.17.14.26.24.1.12 0 .22-.09.31v.09c.03.04.03.12.02.17 0 .04-.02.06-.04.08 0 0-.02.01-.03.02-.04.03-.09.06-.13.12-.03.04-.06.04-.07.04-.05-.02-.03-.12-.02-.16.01-.06-.04-.1-.08-.15-.06-.06-.03-.24 0-.29.03-.04.06-.13 0-.18s-.21-.19-.19-.4c.01-.12.07-.22.16-.28s.2-.08.28-.05c.21.07.34.05.43.02.06-.1.15-.23.31-.34.14-.1.41-.23.68-.3l.65-.3c.06-.02.08-.06.06-.13-.11-.55 0-.96.31-1.2.01-.01.02-.04.02-.07 0-.04.02-.09.05-.14 0 0 .01-.01.02-.01 0 0 .01 0 .02.01 0 .01.02.03.04.06s.05.07.06.1c.14.03.43.1.54.15.03.01.06.02.09.02h.05c.03 0 .06.04.09.08.01.02.02.05 0 .08 0 .03-.03.06-.05.07h-.17c.01.01.03.03.09.05.02 0 .03.02.02.04 0 .03-.05.08-.08.08s-.06 0-.08-.01c-.05 0-.1-.02-.15-.04-.03 0-.05-.01-.08-.02-.06.02-.1.03-.18.04 0 .04-.01.11-.01.17.17.14.37.36.39.59a.3.3 0 0 1 .12.15c.05-.03.09-.06.14-.1.08-.06.16-.12.23-.15.08-.03.22-.05.29-.01l.46.23c.08.04.15.1.21.19.05.07.06.19.04.24 0 0-.02.02-.02.01l-.27-.05s-.01 0-.01-.01c-.02-.04-.01-.09.02-.16 0-.01.01-.03.01-.03s-.02-.01-.02-.02c-.02-.01-.05 0-.07 0-.04.01-.09 0-.11-.04-.02-.03-.29-.12-.34-.13-.07 0-.12.02-.16.06-.02.04-.12.21-.2.29 0 .01-.01.02-.01.03.05 0 .19-.02.28-.02.12 0 .26.11.32.18.19.15.3.26.37.34.04.04.07.07.1.09.04.03.09.08.08.15 0 .01-.01.02-.02.02l-.27.02h-.02c-.01 0 0 0 0-.01 0-.09-.01-.15-.03-.21-.02-.02-.04-.01-.07 0h-.02c-.03 0-.06-.02-.1-.09-.03-.07-.17-.15-.24-.19-.04-.02-.06-.02-.09-.01h-.05c-.05 0-.14-.01-.19.02-.06.03-.26.12-.46.16-.06.03-.19.07-.35.12-.04.01-.09.03-.14.04-.15.05-.48.14-.58.15-.03.17-.2.42-.26.47-.04.06-.05.11-.01.13q.03.015.33 0h.04c.07 0 .21-.02.23-.01.03 0 .07.02.11.05.02.01.05.03.07.04.05.02.06.05.09.08v.02s.03.02.04.03c.02.02.03.04.04.06v.02c0 .01-.01 0-.02.01l-.33.03h-.02v-.01c0-.03 0-.07-.03-.08 0 0-.02-.01-.03-.01-.04.03-.1.08-.17.06-.12 0-.23.02-.32.02-.1 0-.2.02-.32.02a.12.12 0 0 1-.09-.05c-.03-.04-.04-.1-.03-.15.02-.07.02-.12 0-.16l-.02.02c-.04.04-.09.1-.12.15q-.075.09 0 .21c.05.04.32.27.35.34.02.03.1.08.18.14l.05.04c.02.05.06.08.1.11.02.01.03.02.04.04v.02l-.02.02-.41.04Zm-.04-.21s.05 0 .07.02.03.04.03.06c0 .04 0 .07-.01.09l.33-.04c-.04-.03-.08-.06-.11-.12l-.05-.04a1 1 0 0 1-.19-.15c-.03-.07-.3-.3-.35-.34-.08-.12-.04-.21 0-.26.03-.04.09-.1.13-.15.02-.02.03-.04.04-.05h.02s.01 0 .02.01c.02.06.03.13 0 .22-.01.04 0 .09.02.12q.03.03.06.03c.12 0 .21-.01.32-.02.1 0 .2-.02.33-.02.05.01.09-.02.14-.06h.01c.02 0 .05 0 .06.02.02.02.04.06.04.09l.27-.02s0-.01-.01-.02c0-.01-.02-.02-.03-.04v-.02s-.05-.05-.09-.07c-.03-.01-.06-.03-.08-.04a.2.2 0 0 0-.09-.04c-.02 0-.14 0-.22.01h-.04c-.19.02-.32.02-.35 0-.04-.03-.06-.1.01-.2.05-.03.22-.29.25-.45 0-.01.01-.02.02-.02.08 0 .43-.1.59-.16.05-.01.09-.03.14-.04.16-.05.29-.09.34-.12.18-.04.38-.12.45-.16s.17-.03.22-.02h.04c.04 0 .07 0 .12.02.02.01.21.11.25.2.04.07.06.07.06.07h.01c.03 0 .08-.02.12.02.02.05.03.12.03.2l.23-.02s-.03-.07-.07-.1c-.03-.03-.06-.06-.1-.09-.08-.08-.19-.18-.37-.34a.56.56 0 0 0-.3-.17c-.11 0-.29.02-.29.02h-.02c-.02-.03-.01-.06.02-.09.08-.08.19-.26.2-.28.05-.05.12-.08.2-.07.04 0 .34.1.37.14.02.03.05.03.07.03.03-.01.07-.02.11 0 .05.03.05.04.02.1-.02.05-.03.09-.02.12l.24.04s0-.13-.04-.18a.6.6 0 0 0-.2-.18c-.09-.05-.42-.21-.45-.23-.06-.03-.19 0-.26.02s-.14.08-.22.14c-.05.04-.11.08-.16.11h-.02s-.01 0-.01-.01a.3.3 0 0 0-.12-.16v-.01c-.01-.22-.21-.44-.38-.58v-.01s0-.15.02-.21c0 0 .01-.01.02-.01.09-.01.12-.02.19-.04h.01c.03 0 .06.01.08.02.05.01.11.03.16.04.01 0 .04.01.05.01.02 0 .05-.04.05-.04q-.105-.03-.12-.09v-.02c.03-.03.07-.03.14-.02h.05s.02-.02.03-.04v-.05a.2.2 0 0 0-.06-.06h-.04c-.03 0-.06 0-.1-.02-.11-.05-.4-.12-.54-.15 0 0-.01 0-.01-.01 0-.03-.04-.07-.06-.1 0-.01-.02-.02-.02-.03l-.03.09c0 .04-.02.07-.04.1-.37.29-.37.79-.29 1.16.02.12-.05.17-.09.18l-.65.3c-.26.07-.53.2-.66.3-.15.1-.24.23-.3.33l-.01.01c-.06.02-.21.07-.46-.02-.07-.03-.17 0-.24.04-.08.06-.13.14-.14.25-.02.19.12.32.18.37.08.07.04.18 0 .23-.03.04-.05.19 0 .23.05.06.11.11.09.19-.02.07 0 .11 0 .11l.02-.02c.05-.06.1-.1.14-.13 0 0 .02-.01.03-.02.01 0 .02-.02.02-.05.01-.05 0-.12-.02-.14-.01-.04-.01-.06-.01-.07v-.05c.12-.12.17-.18.1-.26-.09-.1-.18-.19-.26-.24-.06-.04-.07-.15-.03-.21.06-.1.17-.1.25-.07.1.04.28.01.31 0h.03c.09.16.25.32.42.43.02.02.04.04.02.11-.03.11-.14.29-.17.33-.02.02-.02.04-.02.06v.01c.02 0 .08.05.19.15q.045.03.06.06c.05.05.24.26.26.32.01.04.05.09.1.08h.01Z"/><path d="M33.4 48.93s-.02 0-.02-.01 0-.02.01-.03c.21-.12.37-.36.37-.49 0-.07-.06-.18-.23-.17-.01 0-.02 0-.02-.02 0-.01 0-.02.02-.02.19-.01.26.11.27.19h.25c.01 0 .02.01.02.02s-.01.02-.02.02h-.25c-.02.16-.19.39-.39.5Zm1.93-.92c-.14.01-.2 0-.25-.02-.03 0-.06-.02-.1-.02-.01 0-.02-.01-.02-.02s.01-.02.03-.02c.04 0 .08.02.11.03.06.02.12.04.31.01.01 0 .02 0 .02.02 0 .01 0 .02-.02.02h-.07Zm.2-.33c-.05 0-.13 0-.21-.02-.09-.01-.18-.03-.26-.02-.01 0-.02 0-.02-.02 0-.01.01-.02.02-.02.08 0 .18.01.27.02h.04q.03-.15 0-.3c0-.01 0-.02.02-.03.01 0 .02 0 .03.01.02.1.03.21 0 .32.05 0 .1.01.13 0 .01 0 .02 0 .02.02 0 .01 0 .02-.02.02Zm-.28-.51h-.01c-.01 0-.02-.01-.04-.02-.08-.04-.16-.09-.29-.08-.01 0-.02 0-.02-.02 0-.01 0-.02.02-.02.14-.01.23.04.31.08.01 0 .02.01.04.02 0 0 .01.02 0 .03 0 0-.01.01-.02.01Zm-.38-.59h-.01c-.17-.09-.25-.25-.25-.5 0-.01 0-.02.02-.02s.02 0 .02.02c0 .24.06.37.23.46 0 0 .01.02 0 .03 0 0-.01.01-.02.01Z"/><path d="M33.75 48.54s-.01 0-.01-.01c0 0 0-.01.01-.01.12-.01.19-.04.23-.13 0 0 .01-.01.02 0v.02c-.05.11-.15.13-.25.15Zm1.14-2.16c-.18-.01-.27-.07-.26-.29 0 0 0-.01.01-.01s.01 0 .01.01c0 .21.07.26.24.27 0 0 .01 0 .01.01 0 0 0 .01-.01.01m-1.37 1.84v-.05c0-.2 0-.5-.15-.55v-.01h.01c.17.06.16.36.16.57v.06Zm1.86-2.01c0-.04-.07-.07-.13-.09-.1-.04-.21-.08-.17-.2h.01v.01c-.04.1.06.14.16.18.07.03.14.05.14.11v.01Zm.17-.08s-.05 0-.06-.01c-.02-.02-.01-.05 0-.08h.01v.08c.01.01.03.01.07 0h.01v.01h-.02Z"/><path d="M35.3 46.21c-.06.12-.18.3-.31.41-.19.15-.39.28-.65.36-.03.01-.08.03-.13.02-.05 0-.1-.03-.14-.1-.02-.03 0-.21.06-.24.07-.03.13-.05.2-.05.04 0 .09 0 .08.05 0 .04-.04.07-.08.06-.05 0-.13-.03-.17 0-.03.02-.05.1-.03.14.03.05.06.07.09.07s.07 0 .1-.02c.25-.08.44-.2.63-.35.12-.1.25-.3.29-.38l.06.02Zm-.97.45c-.07 0-.19.02-.2.05.05-.04.12-.04.2-.02.02 0 .04-.03 0-.03m.48-.65.03-.06s-.02-.14.11-.08.03.13.02.14c0 .01-.03.06-.03.06" class="cls-4"/><path d="M34.25 47.02h-.04a.17.17 0 0 1-.14-.1c-.02-.03-.01-.12.01-.19.01-.03.03-.06.05-.07.07-.03.13-.05.2-.05.04 0 .06 0 .08.02 0 .01.01.02.01.04s-.01.04-.03.05-.04.02-.07.02h-.02c-.05 0-.11-.02-.14 0s-.04.09-.02.13c.03.06.06.07.09.07s.06 0 .1-.02c.23-.08.43-.19.62-.35.12-.1.25-.3.29-.38l.06.02v.01c-.06.13-.19.31-.31.41-.2.17-.41.28-.65.37-.03 0-.05.02-.09.02m.05-.39c-.06 0-.11.02-.17.05-.02 0-.03.03-.04.05-.02.06-.02.15-.01.18.04.07.1.09.13.09.05 0 .09 0 .12-.02.24-.08.44-.2.65-.36.12-.1.24-.27.3-.4l-.04-.02c-.04.09-.17.28-.29.38-.2.16-.4.27-.63.35-.04.01-.07.02-.1.02-.04 0-.07-.03-.1-.07-.02-.04 0-.12.03-.15.04-.03.1-.02.16 0h.02c.02 0 .04 0 .05-.01s.02-.03.02-.04v-.03c-.01-.01-.03-.02-.07-.02zm.03.07c-.07-.01-.14-.02-.19.02.01-.04.14-.07.21-.06.02 0 .02.01.03.02v.02h-.02Zm-.09-.02s.06 0 .09.01h.01-.1Zm.71-.61h-.01s.02-.05.03-.06l.01-.01c.01-.01.04-.04.03-.06 0-.02-.02-.04-.06-.05-.04-.02-.06-.02-.08 0-.02.01-.02.05-.02.07v.02l-.03.06h-.01v-.01l.03-.06v-.01c0-.02 0-.06.03-.08.02-.02.05-.01.1 0 .04.02.07.04.07.07s-.02.06-.04.08c0 .01-.03.06-.03.06Z"/><path d="m35.35 46.25-.76-.32v-.02s.01-.01.02 0l.76.32v.02h-.01Z"/></g><g id="cloak"><path d="M33.62 46.05c-.13.03-.38.03-.52.02-.07 0-.25.28-.35.31s-.19-.18-.33-.11c-.07.06 0 .31-.04.35s-.17-.11-.25-.05.07.4.03.44-.21-.13-.27-.09.06.57 0 .61c-.05.03-.3-.11-.33-.03s.35.21.45.2l.11-.05h.37l.17-.19c.27-.37.56-.73.94-.75v-.65Z" class="cls-4"/><path d="M32.5 47.66h-.37l-.1.05c-.1 0-.4-.1-.46-.18 0-.01-.01-.03 0-.04.02-.06.11-.03.2 0 .05.02.12.04.13.03.02-.02 0-.18 0-.28-.02-.21-.03-.3 0-.32.03-.03.1 0 .16.05.03.02.09.06.1.04.01-.01 0-.09-.02-.15-.03-.12-.06-.25 0-.29.05-.04.12 0 .17.02.03.02.06.04.07.03s0-.08 0-.13c0-.09-.01-.19.03-.22.09-.04.16.01.22.06.04.03.08.06.12.05s.12-.09.18-.16c.08-.09.13-.15.17-.15.13 0 .38.01.51-.02v.65c-.38.02-.68.39-.93.74l-.17.2Zm-.36-.04c.03.01.23 0 .36 0l.17-.19c.25-.35.55-.73.94-.75v-.63c-.14.02-.38.02-.51.01-.03 0-.09.07-.15.14-.07.08-.14.16-.19.17s-.09-.02-.14-.05c-.06-.04-.12-.09-.19-.06-.03.03-.02.12-.02.2s0 .13-.01.15c-.03.02-.06 0-.11-.02-.05-.03-.1-.06-.14-.03s0 .16.01.26c.02.1.03.16.02.18-.02.03-.07 0-.14-.04-.05-.03-.11-.06-.13-.05-.02.02 0 .19 0 .3.02.2.03.29 0 .31s-.08 0-.16-.02c-.07-.02-.16-.05-.17-.02v.02c.05.07.34.17.43.17l.1-.05Z"/><path d="M32.14 47.64v-.02c.14-.26.43-.55.63-.7h.02v.02c-.21.15-.49.43-.63.69h-.01Zm-.23-.11v-.02c.2-.26.74-.7.92-.74h.01s0 .01-.01.02c-.17.04-.71.47-.9.72h-.01Zm-.33-.04v-.02l.32-.32h.02c.01 0 0 .01 0 .02l-.32.32Zm.58-.47h-.01V47c.34-.23.63-.39.93-.52h.02v.02c-.3.13-.59.29-.93.52Zm-.25-.1h-.01v-.02l.23-.12h.02v.02l-.23.12Zm.47-.29h-.01v-.02c.2-.11.47-.16.71-.2.03 0 .07-.01.1-.02 0 0 .01 0 .01.01 0 0 0 .01-.01.02-.03 0-.07.01-.1.02-.24.04-.51.09-.7.2Zm-.24-.06h-.01v-.02l.25-.11h.02v.02l-.25.11Zm.61-.18s-.01 0-.01-.01c0 0 0-.01.01-.02h.02c.35-.08.5-.1.57-.11 0 0 .01 0 .01.01 0 0 0 .01-.01.01-.07 0-.22.02-.57.1h-.02Zm-.3-.12s-.01 0-.01-.01c0 0 0-.01.01-.01l.51-.07s.01 0 .01.01c0 0 0 .01-.01.01z"/></g><g id="weapons"><path d="m34.7 50.42.05.05s-.05.03-.07.03l-2.36-.46c-.07-.01-.04-.12.03-.11zm-2.25-3.07s-.06-.09-.09-.09c-.02 0-.07.06-.07.07 0 .03.07.07.1.08zm.22.07-.2.22s.02.07.04.04l.2-.22s-.02-.06-.04-.04m-.1.2.62.57h.13l-.02-.12-.64-.55z" class="cls-4"/><path d="m34.69 50.52-2.37-.46s-.04-.02-.05-.05c0-.03 0-.05.02-.07s.04-.03.07-.02l2.36.49.06.06v.02c-.01 0-.05.03-.07.03Zm-2.36-.57s-.02 0-.02.01c-.01.01-.02.03-.01.04 0 0 0 .02.03.02l2.36.46s.03 0 .04-.02q-.015-.03-.03-.03l-2.35-.49h-.01Zm.98-1.74h-.13l-.6-.56-.04.05s-.04.02-.06 0q-.03-.03 0-.06l.2-.22s.02-.02.04-.01c.02 0 .03.02.04.03 0 .01 0 .03-.01.04l-.04.05.63.54.02.13v.01h-.01Zm-.12-.04h.1l-.01-.09-.62-.54-.06.07.6.56Zm-.51-.74-.2.22v.02h.02l.2-.22s0-.01-.02-.01Zm-.29 0c-.02 0-.1-.04-.11-.09q0-.03.03-.06c.01-.02.04-.04.06-.04.04 0 .09.05.1.1v.02l-.06.06h-.01Zm-.04-.15s-.05.04-.05.06.05.05.08.06l.04-.05s-.05-.07-.07-.07"/><path d="m33.22 48.12-.61-.55v-.01h.01l.61.55v.01z"/></g><g id="rider-r"><path d="M34.04 46.26s.01-.05.04-.07c.04-.03.03-.02.05 0 .02 0 .05.03.06.04.02.01.03 0 .03 0 .01-.02.01-.05.02-.06 0 0 .02 0 .02-.02.01 0 .02-.01.02-.03 0 0 0-.04.02-.03.02 0 .05.01.05 0 0-.02.01-.08.02-.13.05 0 .03-.05.05-.06.05.01.07-.07.04-.1 0-.07.05-.08.13-.09 0-.04-.07-.05-.11-.1s-.17-.11-.31-.1c-.14.02-.25.16-.3.22s-.16.1-.19.1-.04-.02-.08-.02c0 0-.09.01-.14.02-.05 0-.07.04-.12.04-.03 0-.16.02-.2.03s0 .1.04.1c.02 0 .12 0 .15.01.04.02.16.01.22-.01.1-.05.17.01.28.03h.04c0 .07 0 .1-.03.1h-.1c-.01 0-.07-.03-.11-.04-.05 0-.08.02-.1.03-.13.07-.62.5-.66.59-.05.1-.13.17-.21.32-.04.08-.12.19-.17.33a.8.8 0 0 0-.18.15c-.01.02.01.05.03.05 0 .01.02.04.04.04-.01.02.02.04.04.03 0 .02.02.05.04.05l.2-.22c0-.08.05-.18.08-.23.11-.14.24-.36.28-.43.02-.03.25-.15.31-.21-.02.17-.01.28.01.38.03.16.09.25.12.39.03.13 0 .22 0 .28 0 .05.02.05.07.07s.24-.02.29 0c.11.02.21.01.25.02.14-.03.24 0 .28.02.04.03.13.22.17.3.03.07.21.16.25.2s.07.16.06.21c0 .05 0 .08.06.06.04-.01.2 0 .23.01s.1.06.12.06.14 0 .19-.01.05-.1.03-.1-.11 0-.16-.02c-.05 0-.17-.1-.22-.15s-.07-.13-.1-.19c-.03-.05-.21-.28-.25-.33-.01-.03-.11-.24-.13-.29s-.07-.05-.1-.06c-.15-.03-.2-.04-.35-.05-.11 0-.13-.01-.14-.09 0-.06-.05-.17-.03-.25 0-.03.02-.11.03-.15 0-.04.03-.1.04-.14 0-.05.02-.21.02-.25 0-.07-.01-.13-.02-.19Zm.11.65s-.08.02-.12.01c-.01 0 0-.03 0-.03s-.02-.03 0-.03c0 0-.02-.04 0-.04-.02 0-.02-.03 0-.04.01-.01.09-.02.12-.02.02.04.01.11 0 .15" class="cls-4"/><path d="M35.41 48.54h-.16c-.02 0-.05-.01-.09-.04-.02 0-.03-.02-.04-.02a.8.8 0 0 0-.22-.01h-.07c-.02-.02-.02-.04-.01-.08 0-.05-.02-.16-.05-.19a.4.4 0 0 0-.08-.05c-.07-.05-.15-.1-.17-.15-.03-.07-.12-.26-.15-.29-.03-.02-.13-.05-.27-.02h-.04c-.05 0-.13 0-.21-.02h-.12c-.07 0-.14.02-.18 0h-.01s-.06-.03-.07-.09v-.08c0-.05.01-.12 0-.2a1 1 0 0 0-.05-.16c-.02-.07-.05-.14-.07-.22a.9.9 0 0 1-.01-.33c-.04.03-.1.07-.15.1s-.11.07-.12.08l-.02.03c-.05.08-.17.28-.27.4-.02.03-.07.13-.07.22v.02l-.2.22h-.01c-.02 0-.04-.01-.05-.03v-.02c-.01 0-.03-.01-.03-.02-.01 0-.03-.01-.04-.03v-.01c-.01 0-.02-.01-.03-.02v-.05a.6.6 0 0 1 .18-.15c.03-.09.08-.17.12-.24.02-.03.04-.06.05-.09.04-.09.09-.15.13-.2.03-.04.06-.08.08-.12.05-.1.54-.53.67-.6.02-.01.05-.03.1-.03.02 0 .05.01.07.02.01 0 .03.01.03.01h.1v-.05l-.02-.01c-.04 0-.07-.02-.1-.03-.06-.02-.11-.03-.17 0s-.19.04-.23.02c-.03-.01-.1-.01-.13-.01h-.01s-.07-.04-.07-.08c0-.03 0-.05.03-.06.04-.02.18-.03.21-.03.02 0 .04 0 .06-.02.02 0 .03-.02.06-.02l.14-.02s.04 0 .06.01c0 0 .02 0 .03.01.02 0 .12-.03.17-.09.06-.07.17-.21.32-.23.14-.02.28.04.32.11.02.02.04.03.06.04.03.02.05.03.06.07v.02h-.02c-.08 0-.11.03-.11.06.02.03.02.07 0 .1-.01.02-.03.03-.05.03 0 .01 0 .05-.04.05 0 .03 0 .06-.01.08v.03s0 .02-.02.03-.04 0-.06 0c0 .02 0 .04-.02.04 0 0 0 .01-.01.02 0 0-.01 0-.02.01v.02c0 .01 0 .03-.01.04 0 .01-.02.02-.03.02h-.04c-.02-.01-.04-.03-.06-.03h-.01l-.02.01c-.02.02-.03.03-.03.05v.03c0 .05.01.1.01.16 0 .04 0 .2-.02.25 0 .02 0 .04-.01.06.04 0 .09-.01.1-.01h.02c.03.05.01.14 0 .16 0 0 0 .02-.02.02-.01 0-.09.02-.13.01 0 0-.02-.01-.02-.02 0 .03-.01.05-.01.07-.01.05 0 .12.02.18 0 .03.01.05.01.07 0 .06.02.07.13.07.13.01.19.02.3.04h.07s.08.03.1.08.11.27.13.29c.04.05.22.28.25.33 0 .02.02.04.03.06.02.04.04.09.07.12.05.06.16.14.2.14.05 0 .14.02.16.02s.04.02.03.06c0 .04-.02.07-.06.08h-.03Zm-.5-.11c.06 0 .2 0 .23.02.01 0 .03.01.05.02s.06.03.07.03h.18s.01 0 .02-.02v-.04c-.03 0-.11-.01-.16-.02-.06 0-.18-.11-.23-.16a1 1 0 0 1-.08-.13c0-.02-.02-.04-.03-.06-.03-.05-.21-.28-.25-.33-.02-.03-.11-.25-.13-.3-.01-.04-.04-.04-.07-.05h-.07c-.11-.03-.17-.04-.3-.05-.11 0-.15-.01-.16-.11 0-.02 0-.04-.01-.06a.44.44 0 0 1-.02-.2c0-.02.02-.1.03-.14s.01-.05.02-.07c0-.03.02-.06.02-.08 0-.05.02-.2.02-.24 0-.06 0-.1-.01-.15v-.03s.02-.08.05-.1.05-.04.07-.02c.02 0 .05.03.06.04v-.03c0-.02 0-.03.02-.04h.02c0-.01 0-.02.01-.02 0-.01 0-.03.01-.05 0 0 .02-.01.03-.01h.02v-.02s.01-.07.02-.1v-.02h.02c.01 0 .01 0 .01-.02 0-.01 0-.03.02-.04h.04v-.07c0-.08.07-.1.12-.11 0 0-.02-.01-.03-.02-.02-.01-.04-.03-.07-.05-.03-.05-.15-.11-.28-.09s-.23.15-.28.21c-.06.07-.17.11-.21.11-.02 0-.03 0-.04-.01-.01 0-.02-.01-.04-.01l-.13.02s-.03 0-.04.02c-.02.01-.04.02-.08.02-.03 0-.16.02-.19.03v.03c0 .02.02.03.03.03h.01c.06 0 .12 0 .15.02.03.01.15 0 .2-.01.08-.04.13-.02.2 0 .03 0 .06.02.1.02h.04s.01.02.01.03v.02s0 .09-.05.09h-.1s-.02 0-.05-.02c-.02 0-.04-.02-.06-.02-.04 0-.06 0-.08.02h-.01c-.13.07-.61.49-.65.58-.02.05-.05.09-.08.13-.04.05-.08.11-.12.19-.01.03-.03.06-.05.09-.04.07-.09.14-.12.24 0 0 0 .01-.01.01-.08.04-.16.13-.17.14 0 0 0 .01.01.01h.02v.02s.02.02.02.01h.02v.02h.03v.02l.01.01.18-.2c0-.09.06-.2.08-.23.09-.13.21-.32.26-.4l.02-.03s.05-.04.13-.1c.07-.04.15-.09.18-.12h.02s.01.01.01.02c-.01.16-.01.27.01.37.02.09.04.15.07.22.02.06.04.11.05.17q.03.135 0 .21v.07c0 .03 0 .04.04.05h.16c.05 0 .11-.01.14 0 .08.02.15.02.2.02h.04c.14-.03.25 0 .3.03.04.03.11.16.17.3.02.05.1.1.16.14.04.02.07.04.08.06.04.04.07.17.06.23v.04h.05Zm-.85-1.53h.08v-.11c-.03 0-.08 0-.09.01 0 0 .01.01 0 .02v.01s.01 0 .01.02v.02s.01.01 0 .02Zm.28-.85"/><path d="M33.34 46.56s-.02 0-.02-.01 0-.02.01-.03l.16-.09h.03c0 .01 0 .02-.01.03l-.16.09Zm.77-.41c-.03 0-.05 0-.07-.02-.02-.03 0-.06 0-.09v-.05c-.01-.01-.03-.01-.05 0-.02 0-.03.02-.04.02-.02.01-.04.02-.06 0-.01 0-.01-.02 0-.03 0-.01.02-.02.03 0h.02c.01 0 .03-.02.05-.03.03-.01.07 0 .09.01.02.02.03.06.02.09 0 .03-.01.05 0 .06h.03c.04 0 .05-.03.07-.06v-.01c.01-.02.02-.03.04-.04 0 0 .02-.01.02-.02.02-.08.1-.08.14-.07s.02.01.02.02-.01.02-.02.02c-.06 0-.08 0-.09.04-.01.02-.03.04-.04.04 0 0-.02.01-.02.02v.01c-.01.03-.04.08-.1.09Zm-.26-.15h-.02v-.08c0-.02.03-.03.04-.03h.02c0-.02 0-.06.02-.12.04-.12.21-.18.29-.19.08 0 .14.03.17.11 0 .03.04.06.06.07h.05c.01 0 0 .02 0 .03q-.03.015-.06 0a.13.13 0 0 1-.09-.1c-.02-.06-.06-.09-.13-.08-.07 0-.22.07-.25.15 0 .07-.02.12-.02.13 0 0 0 .02-.01.02-.02 0-.03.01-.04.01 0 .02 0 .05-.02.07h-.01Z"/><path d="M34.43 47.66c-.11-.04-.22-.04-.33-.04-.07 0-.13 0-.19-.01-.05-.01-.09-.03-.14-.04a.6.6 0 0 0-.24-.05s-.01 0-.01-.01c0 0 0-.01.01-.01.11 0 .18.02.25.05.04.02.08.03.13.04s.12.01.19.01c.1 0 .22 0 .33.04v.01Zm-.43-.34c-.11 0-.26-.04-.34-.11v-.01h.02c.08.07.22.11.33.11 0 0 .01 0 .01.01 0 0 0 .01-.01.01Zm-.11-.23h-.01c-.01-.04-.08-.07-.18-.08V47c0-.01 0-.01.01-.01.11 0 .18.04.19.09v.01Zm-.26-.07c-.05 0-.12 0-.16-.04v-.01h.01c.04.03.1.04.15.04h.01s0 .01-.01.01m.2-.28s-.06 0-.1-.01v-.01c0-.01 0 0 .01 0 .06.02.1.01.17 0h.03v.01h-.02s-.06.02-.09.02Zm-.18-.05c-.05-.03-.09-.1-.12-.18 0-.02-.02-.04-.03-.06v-.01h.01c0 .02.02.04.03.06.03.07.06.15.11.17v.01Zm.41-.24c-.19.01-.32-.12-.41-.4v-.01h.01c.06.18.13.29.23.35-.08-.06-.13-.17-.17-.32v-.01h.01q.06.195.15.3c-.03-.05-.05-.12-.08-.21 0-.02-.01-.05-.02-.07v-.01h.01c0 .03.02.05.02.07.06.19.08.27.24.28Zm.93 1.9c-.04-.03-.05-.04-.08-.1l-.06-.11-.03.02s-.03 0-.04-.01c0-.01 0-.03.01-.04l.03-.02-.04-.08s-.01 0-.01-.01c0 0 0-.02.03-.04.02-.01.04-.02.05-.01v.02l.04.08h.02s.02-.02.03-.02c0 0 .01.02.01.03 0 0 0 .02-.01.02l-.03.02.06.12s.04.07.04.12Zm-.14-.24.06.12s.03.06.06.08c0-.03-.01-.05-.03-.09l-.07-.12.04-.02v-.01l-.03.02h-.01l-.05-.09s-.01 0-.02.01c0 0-.02 0-.02.01l.05.09-.03.02h.01l.04-.03Zm-.06.08.19-.12zm-.18-.12.26-.16zm-.04-.04.27-.16zm-2.12-.45.09-.09zm-.04-.03.08-.08zm-.05-.04.09-.09zm1.68-.61h.08v-.01h-.08zm0-.04.08-.02zm-.01-.04h.08v-.01h-.08zm.24-.7c-.02 0-.04 0-.05-.02.01 0 .03.01.05.02"/></g></g></g></g><g id="White_Logo_RGB" data-name="White Logo RGB"><path id="WHITE_ESC_HEART" d="M56.13 129.5c1.03 1.13 2.54.85 3.24-.61C75.9 94 126.12 78.23 126.12 33.78c0-16.16-10.88-32.38-31.78-32.75-19.9-.36-37.77 12.46-39.63 33.22-.56-13.14-9.18-19.2-19.12-19.2C16.03 15.03.01 32.69.82 59.25c1.34 41.78 41.51 54.94 55.31 70.25m-3.56-85.25c.53 2.09 3.07 2.01 3.65-.05 8.61-31.2 48.19-34.61 48.19-3.02 0 24.94-44.21 51.56-47.58 75.24-8-15.53-37.39-24.07-37.39-57.83 0-28.74 27.94-34.77 33.12-14.34Z" class="cls-4"/></g></svg>