<svg xmlns="http://www.w3.org/2000/svg" viewBox="0 0 127.18 131.2"><defs><clipPath id="a"><path d="m58.84 125.27 1.04-7.31c1.46-10.27 12.06-21.99 22.3-33.33 12.31-13.62 25.04-27.71 25.04-41.89 0-12.34-6.77-24.8-21.91-24.8-9.29 0-20.65 5.43-27.44 17.14l-.56.99a41 41 0 0 0-2.68 6.1c-2.76-6.98-8.49-11.19-15.48-11.19-10.7 0-22.06 10.19-22.06 29.07 0 23.61 13.8 35.61 24.89 45.25 5.47 4.75 10.19 8.86 12.61 13.56l3.77 7.32.49-.9Z" style="fill:none"/></clipPath></defs><g style="clip-path:url(#a)"><path d="M117.26 46.5 11.39 57.98l-.12-36.86L117.14 9.64z" style="fill:#ad1d25"/><path d="M117.3 115.76 11.44 127.24l-.13-41.05 105.85-11.48z" style="fill:#1e4785"/><path d="M118 78.06 14.55 89.18V55.9L118 44.96z" style="fill:#f6f6f6"/></g><path d="M56.13 129.5c1.03 1.13 2.54.85 3.24-.61C75.9 94 126.12 78.23 126.12 33.78c0-16.16-10.88-32.38-31.78-32.75-19.9-.36-37.77 12.46-39.63 33.22-.56-13.14-9.18-19.2-19.12-19.2C16.03 15.03.01 32.69.82 59.25c1.34 41.78 41.51 54.94 55.31 70.25m-3.56-85.25c.53 2.09 3.07 2.01 3.65-.05 8.61-31.2 48.19-34.61 48.19-3.02 0 24.94-44.21 51.56-47.58 75.24-8-15.53-37.39-24.07-37.39-57.83 0-28.74 27.94-34.77 33.12-14.34Z" data-name="White Logo RGB" style="fill:#fff"/></svg>