<svg xmlns="http://www.w3.org/2000/svg" viewBox="0 0 127.18 131.2"><defs><clipPath id="a"><path d="m59.82 124.17 1.04-7.35c1.47-10.32 12.12-22.11 22.43-33.52 12.38-13.7 25.18-27.86 25.18-42.12 0-12.41-6.81-24.94-22.03-24.94-9.34 0-20.76 5.46-27.59 17.23l-.56 1a41 41 0 0 0-2.69 6.13c-2.78-7.01-8.54-11.25-15.57-11.25-10.76 0-22.19 10.25-22.19 29.23 0 23.74 13.88 35.81 25.02 45.5 5.5 4.78 10.25 8.91 12.68 13.63l3.79 7.36.49-.91Z" style="fill:none"/></clipPath></defs><g style="clip-path:url(#a)"><path d="M4.41 17.31 124.72 4.66v109.89L4.41 127.19z" style="fill:#bb032c"/><path d="m57.34 121.63-19.25 2.02V76.04L4.41 79.58V60.33l33.68-3.54V13.76l19.25-2.02v43.02l67.38-7.08v19.25l-67.38 7.08z" style="fill:#f4f5f6"/><path d="m52.53 122.14-9.63 1.01V70.72L4.41 74.76v-9.62l38.49-4.05V13.26l9.63-1.01v47.83l72.19-7.59v9.63l-72.19 7.59z" style="fill:#001a5a"/></g><path d="M56.13 129.5c1.03 1.13 2.54.85 3.24-.61C75.9 94 126.12 78.23 126.12 33.78c0-16.16-10.88-32.38-31.78-32.75-19.9-.36-37.77 12.46-39.63 33.22-.56-13.14-9.18-19.2-19.12-19.2C16.03 15.03.01 32.69.82 59.25c1.34 41.78 41.51 54.94 55.31 70.25m-3.56-85.25c.53 2.09 3.07 2.01 3.65-.05 8.61-31.2 48.19-34.61 48.19-3.02 0 24.94-44.21 51.56-47.58 75.24-8-15.53-37.39-24.07-37.39-57.83 0-28.74 27.94-34.77 33.12-14.34Z" data-name="White Logo RGB" style="fill:#fff"/></svg>