<svg xmlns="http://www.w3.org/2000/svg" viewBox="0 0 127.18 131.2"><defs><clipPath id="clippath"><path d="m57.93 120.89 1.01-7.09c1.42-9.96 11.7-21.34 21.65-32.35 11.95-13.22 24.3-26.89 24.3-40.65 0-11.98-6.58-24.07-21.27-24.07-9.02 0-20.04 5.27-26.63 16.63l-.54.96c-.99 1.82-1.86 3.79-2.6 5.92-2.68-6.77-8.24-10.86-15.03-10.86-10.38 0-21.41 9.89-21.41 28.21 0 22.92 13.39 34.56 24.15 43.92 5.31 4.61 9.89 8.6 12.24 13.16l3.66 7.1.48-.88Z" style="fill:none"/></clipPath><style>.cls-3{fill:#003aa2}.cls-4{fill-rule:evenodd}.cls-4,.cls-5{fill:#ff0}.cls-6{fill:#fff}.cls-8{fill:red}</style></defs><g id="PORTUGAL"><g style="clip-path:url(#clippath)"><path d="m7.18 14.18 103.7-10.9v109.43l-103.7 10.9z" class="cls-8"/><path d="m7.18 14.18 41.48-4.36v109.43l-41.48 4.36z" style="fill:#007740"/></g><path d="M62.18 78.33c-5.22.39-29.16-12.04-29.33-14.4l1.32-2.34c2.37 3.2 26.85 15.16 29.26 14.4l-1.25 2.35" class="cls-4"/><path d="M62.18 78.38c-2.78.21-10.67-3.19-16.59-6.17-3.38-1.7-6.52-3.45-8.85-4.93-1.77-1.12-3.89-2.61-3.94-3.34v-.03l1.32-2.34s.02-.03.04-.03.03 0 .04.02c1.22 1.64 8.21 5.54 14.6 8.67 7.54 3.7 13.54 6.05 14.6 5.71.02 0 .04 0 .05.01s.01.04 0 .05l-1.25 2.34s-.03.03-.05.04ZM32.9 63.94c.12 1.08 5.47 4.52 12.74 8.18 5.88 2.96 13.72 6.34 16.51 6.16l1.19-2.23c-1.51.23-8.34-2.68-14.57-5.73-6.33-3.1-13.25-6.96-14.59-8.64l-1.27 2.26Z"/><path d="M33.9 61.32c-.47 1.31 6.25 4.76 14.33 8.82 8.08 4.07 15.05 6.37 15.56 5.88.03-.06.25-.47.23-.46-.1.16-.33.23-.7.16-2.18-.4-7.88-2.42-14.93-5.95-7.05-3.54-13.19-6.83-14.14-8.41-.07-.11-.11-.32-.1-.48h-.02l-.2.38zm28.4 17.07c-.09.17-.25.19-.57.19-1.95-.01-7.88-2.27-14.89-5.73-8.16-4.03-14.9-7.77-14.17-9.01l.2-.37h.04c-.66 2.05 13.3 8.56 14.12 8.98 8.08 4.15 14.88 6.36 15.49 5.54z" class="cls-4"/><path d="M61.98 78.62h-.25c-1.99-.01-7.98-2.32-14.91-5.74-9.26-4.57-13.91-7.42-14.23-8.7a.5.5 0 0 1 .04-.37l.2-.37s.04-.03.06-.03h.04l.03.03v.04c-.51 1.58 8.27 6.1 13.55 8.65.28.14.47.23.55.27 7.97 4.1 14.84 6.35 15.42 5.56.02-.02.05-.03.07-.02s.03.04.02.06l-.22.4c-.08.14-.2.19-.36.21ZM32.84 63.63l-.12.23c-.05.09-.06.18-.03.3.31 1.26 4.95 4.09 14.18 8.65 6.92 3.41 12.89 5.72 14.87 5.73.31 0 .45-.02.52-.16l.12-.22c-1.42.58-9.01-2.37-15.37-5.65l-.54-.27c-9.04-4.37-13.62-7.27-13.62-8.6Zm30.77 12.5c-1.38.15-8.37-2.4-15.41-5.94-8.7-4.38-14.82-7.57-14.35-8.88l.03-.06.2-.38s.03-.03.04-.03h.06s.01.02.01.04c0 .15.03.35.1.45 1.01 1.67 8.08 5.36 14.12 8.39 6.63 3.32 12.52 5.51 14.92 5.95.32.06.56.01.65-.13 0-.01.02-.02.03-.03.02 0 .04 0 .05.02.02.03.03.03-.21.46l-.03.05s0 .01-.01.01c-.04.04-.11.06-.21.07ZM33.94 61.34c-.46 1.33 7.39 5.28 14.31 8.76 8.3 4.18 14.99 6.31 15.5 5.9l.02-.04c.05-.09.09-.16.12-.22-.14.07-.34.08-.58.03-2.4-.44-8.3-2.63-14.94-5.95-11.53-5.78-13.62-7.54-14.16-8.42-.05-.09-.09-.23-.11-.37z"/><path d="M48.69 63.71c5.23-.59 11.68-1.94 15.39-3.81l-.8-1.22c-2.19 1.44-8.68 2.92-14.63 3.67-7.04.68-12.01.54-14.5-.87l-.75 1.46c4.58 1.46 9.27 1.37 15.3.76" class="cls-4"/><path d="M48.69 63.76c-6.04.62-10.71.7-15.32-.76q-.015 0-.03-.03v-.04l.75-1.46.03-.03h.04c2.32 1.31 6.92 1.59 14.47.86 7.67-.96 12.95-2.57 14.61-3.66.02-.02.05-.01.07.01l.8 1.22v.04c0 .01-.02.03-.03.03-2.57 1.29-7.96 2.97-15.4 3.82Zm-15.23-.84c4.57 1.44 9.22 1.35 15.23.74 7.37-.83 12.73-2.49 15.31-3.78l-.74-1.13c-1.71 1.1-6.98 2.7-14.61 3.65-7.53.72-12.13.45-14.48-.85l-.7 1.36Z"/><path d="M64.29 59.91c-.13.22-2.55 1.31-6.11 2.3-2.42.62-5.57 1.27-9.51 1.69-3.74.4-6.79.45-9.11.38-3.74-.19-5.67-.81-6.39-1.02.07-.14.11-.24.18-.38 2.06.6 4 .89 6.27 1 2.3.07 5.31.02 9.04-.37a66.6 66.6 0 0 0 9.44-1.69c3.66-.97 5.65-1.94 5.93-2.32l.26.42Zm-.7-1.25c-.4.36-2.37 1.27-5.85 2.19-2.32.58-5.27 1.18-9.03 1.58-3.58.38-6.5.45-8.73.36-3.53-.09-5.41-.72-6.08-.9.07-.12.14-.25.21-.37.53.21 2.34.76 5.92.89 2.2.08 5.13 0 8.69-.37 3.75-.4 6.66-1.01 8.97-1.58 3.49-.85 5.37-1.94 5.66-2.19l.25.4Z" class="cls-4"/><path d="M48.59 63.95c-3.17.33-6.22.46-9.04.37-3.62-.19-5.58-.78-6.32-1l-.08-.02s-.02-.01-.03-.03 0-.03 0-.04c.03-.06.05-.11.07-.16.03-.07.06-.14.1-.22.01-.02.04-.04.06-.03 1.97.58 3.9.89 6.26 1 2.83.09 5.84-.04 8.96-.36h.07c3.2-.34 6.29-.89 9.43-1.69 3.61-.96 5.63-1.93 5.9-2.3.01-.01.02-.02.04-.02s.03 0 .04.02l.26.42v.06c-.2.27-2.69 1.36-6.14 2.31-2.97.77-6.18 1.33-9.52 1.69h-.07Zm-15.35-.73h.03c.74.23 2.69.82 6.3 1 2.82.09 5.85-.04 9.02-.37h.07c3.34-.35 6.53-.92 9.5-1.69 3.53-.98 5.81-2.02 6.06-2.25l-.21-.34c-.4.4-2.26 1.32-5.92 2.29-3.15.8-6.24 1.35-9.45 1.69-3.15.34-6.19.46-9.04.37-2.35-.11-4.28-.42-6.24-.99-.03.06-.06.12-.08.18-.02.03-.03.07-.05.11Zm15.4-.73c-3.14.33-6.13.45-8.66.35-3.12-.08-4.94-.58-5.81-.82-.11-.03-.21-.06-.29-.08q-.015 0-.03-.03c-.015-.03 0-.03 0-.04.07-.12.14-.25.21-.37.01-.02.04-.03.06-.03.31.12 2.04.74 5.9.88 1.74.06 4.64.05 8.6-.36h.08c4.08-.43 7.07-1.11 8.96-1.58 3.34-.81 5.3-1.88 5.63-2.18.01 0 .03-.02.04-.01.01 0 .03 0 .03.02l.25.4v.02c0 .02 0 .03-.02.04-.39.35-2.33 1.26-5.87 2.2-2.96.73-5.91 1.25-9.04 1.58h-.07Zm-14.67-.63c.07.02.14.04.23.06.87.24 2.67.74 5.79.82 2.52.1 5.51-.02 8.65-.35h.07c3.12-.33 6.08-.85 9.03-1.58 3.43-.91 5.34-1.78 5.79-2.15l-.2-.32c-.38.29-2.18 1.33-5.63 2.17-1.9.47-4.89 1.15-8.97 1.58h-.08c-3.96.43-6.87.44-8.61.37-3.73-.14-5.49-.72-5.89-.87l-.15.27Zm29.62-3.2"/><path d="M31.53 71.81c3.21 1.39 10.35 1.51 17.11.86 6.15-.64 14.17-2.44 17.16-4.34l-.08-1.72c-.94 1.56-9.53 3.87-17.15 4.62-7.62.74-14.7.31-17.06-.97v1.55" class="cls-4"/><path d="M48.73 72.71h-.09c-9.13.88-14.84.13-17.13-.87-.02 0-.03-.02-.03-.04v-1.55s0-.04.01-.05c.02-.01.04-.01.05 0 2.38 1.29 9.54 1.69 17.03.96 7.55-.74 16.18-3.05 17.1-4.59.01-.02.03-.03.05-.03s.04.02.04.04l.08 1.72s0 .04-.03.05c-3.01 1.91-11.03 3.7-17.09 4.34Zm-17.15-.93c2.3.98 7.98 1.72 17.06.85h.09c6.03-.64 14-2.42 17.02-4.32l-.07-1.56c-1.29 1.58-9.58 3.79-17.1 4.52-7.43.72-14.54.33-17.01-.93v1.43Z"/><path d="M65.96 67.94v.41c-.45.59-3.27 1.7-6.82 2.64-2.7.7-6.21 1.38-10.59 1.84-4.16.44-7.48.49-10.05.36-4.07-.16-6.67-.93-7.19-1.18v-.48c1.57.88 5.82 1.19 7.25 1.28 2.56.12 5.85.07 9.99-.36 4.36-.46 7.85-1.13 10.53-1.83 2.54-.63 6.16-1.97 6.87-2.68Zm0-1.46v.41c-.45.59-3.27 1.7-6.82 2.64-2.7.7-6.21 1.38-10.59 1.84-4.16.44-7.48.49-10.05.36-4.07-.16-6.67-.93-7.19-1.18v-.48c1.57.88 5.82 1.19 7.25 1.28 2.56.12 5.85.07 9.99-.36 4.36-.46 7.85-1.14 10.53-1.83 2.54-.63 6.16-1.97 6.87-2.68Z" class="cls-4"/><path d="M48.56 72.89c-3.68.39-7.07.51-10.06.36-3.89-.16-6.58-.88-7.21-1.19-.02 0-.02-.02-.02-.04v-.48s.01-.04.03-.05.04-.01.05 0c1.57.88 5.93 1.2 7.23 1.27 2.97.14 6.32.02 9.98-.36 3.87-.41 7.41-1.02 10.52-1.83 2.52-.63 6.14-1.96 6.85-2.66.01-.01.03-.02.05-.02s.04.02.04.04v.41s0 .02-.01.03c-.47.61-3.35 1.73-6.85 2.66-3.14.81-6.71 1.43-10.6 1.84Zm-17.19-.91c.46.21 2.96 1 7.15 1.17 2.99.14 6.37.02 10.04-.36 3.89-.41 7.45-1.03 10.58-1.84 3.39-.91 6.29-2.02 6.77-2.61v-.29c-.88.73-4.37 2.01-6.82 2.62-3.12.81-6.67 1.42-10.54 1.83-3.67.39-7.03.51-10 .36-1.28-.08-5.54-.38-7.19-1.24v.36Zm17.19-.56c-3.68.39-7.07.51-10.06.37-3.89-.16-6.58-.88-7.21-1.19-.02 0-.02-.02-.02-.04v-.48s.01-.04.03-.05.04-.01.05 0c1.57.88 5.93 1.2 7.23 1.27 2.97.14 6.32.02 9.98-.36 3.87-.41 7.41-1.02 10.52-1.83 2.52-.63 6.14-1.96 6.85-2.66.01-.01.03-.02.04-.02.02 0 .03 0 .03.02v.43s0 .02-.01.03c-.47.61-3.35 1.73-6.85 2.66-3.14.81-6.7 1.43-10.6 1.84Zm-17.19-.9c.46.21 2.96 1 7.15 1.17 2.98.14 6.36.02 10.04-.36 3.89-.41 7.45-1.03 10.58-1.84 3.39-.91 6.29-2.02 6.77-2.61v-.29c-.88.73-4.37 2.01-6.82 2.62-3.12.81-6.67 1.42-10.54 1.83-3.66.39-7.03.51-10 .36-1.28-.07-5.54-.38-7.19-1.24v.36Z"/><path d="M48.62 79.46c-7.39.73-13.73-.57-15.06-.76l.98 1.42c2.36.75 8.54 1.58 14.16.82 5.62-.75 10.53-1.71 13.99-3.75l1-1.69c-2.36 1.36-10.38 3.45-15.06 3.95" class="cls-4"/><path d="M47.83 81.1c-5.3.56-10.99-.2-13.31-.93 0 0-.02 0-.02-.02l-.98-1.42s-.01-.04 0-.06.03-.03.05-.02c.16.02.39.06.68.11 2.15.35 7.86 1.29 14.37.65 4.71-.51 12.72-2.61 15.04-3.94.02-.01.04 0 .06 0 .01.01.02.04 0 .06l-1 1.69s-.01.02-.02.02c-3.61 2.14-8.87 3.07-14.01 3.76-.29.04-.58.07-.87.1Zm-13.26-1.01c2.45.77 8.61 1.55 14.13.82 5.13-.69 10.36-1.62 13.95-3.74l.9-1.53c-2.51 1.34-10.31 3.38-14.93 3.87-6.52.65-12.24-.3-14.4-.65a12 12 0 0 0-.56-.09l.9 1.31Z"/><path d="M63.06 76.8c-.15.24-.3.48-.45.71-1.63.75-4.2 1.62-5.29 1.91-2.22.69-5.65 1.39-8.69 1.71-6.55.59-11.91-.13-14.43-.95l-.2-.33.03-.06.35.1c4.48 1.13 9.52 1.24 14.29.86 3.03-.31 6.07-.98 8.52-1.68 3.76-1.15 5.28-1.88 5.75-2.18l.12-.08Zm.86-1.52.01.01c-.11.2-.22.4-.34.6-.87.4-3.23 1.34-6.68 2.19-2.27.55-3.69 1-8.21 1.56-8.47.67-13.96-.41-15.26-.68l-.19-.35c4.91.77 9.92 1.13 15.45.64 4.14-.52 5.9-1.01 8.15-1.56 4.02-1.05 6.05-1.92 6.66-2.18 0-.01-.02-.02-.03-.03l.44-.21Z" class="cls-4"/><path d="M48.63 81.18c-6.68.6-11.96-.14-14.45-.96 0 0-.02 0-.02-.02l-.2-.33v-.05l.03-.06s.04-.03.06-.02l.35.1c4 1.01 8.81 1.3 14.28.86.04 0 .09 0 .13-.01 3.29-.35 6.36-1.09 8.38-1.67 4.2-1.28 5.45-1.99 5.74-2.18l.12-.08s.04-.01.06 0c.01.01.02.04 0 .06-.15.25-.3.49-.45.71 0 0-.01.02-.02.02-1.62.74-4.18 1.62-5.3 1.91-2.3.72-5.8 1.4-8.7 1.71Zm-14.4-1.04c3.72 1.22 9.91 1.35 14.4.95 2.89-.31 6.38-.99 8.68-1.71 1.11-.3 3.65-1.16 5.27-1.9.11-.17.22-.34.33-.52-.37.23-1.71.94-5.71 2.16-2.05.58-5.19 1.34-8.53 1.68-5.48.44-10.3.16-14.31-.86l-.3-.09.18.28Zm14.48-.45c-7.57.6-12.82-.17-15.27-.68-.01 0-.02-.01-.03-.02l-.19-.35v-.05c.01-.02.03-.02.05-.02 5.61.88 10.52 1.08 15.44.64 3.69-.47 5.5-.91 7.43-1.38.23-.06.47-.12.71-.17 3.88-1.01 5.91-1.87 6.58-2.15s0-.02 0-.02c0-.02.01-.03.03-.04l.44-.21s.04 0 .06.01c.01.01.01.04 0 .05-.11.2-.22.4-.34.6 0 0-.01.02-.02.02-1.17.54-3.62 1.44-6.69 2.19-.34.08-.65.16-.96.24-1.82.45-3.39.84-7.25 1.32Zm-15.23-.77c2.46.51 7.69 1.27 15.23.67 3.85-.48 5.42-.87 7.24-1.32q.465-.12.96-.24c3.05-.75 5.49-1.64 6.66-2.18.09-.16.19-.32.27-.48l-.28.13v.03c0 .01-.02.03-.03.03l-.07.03c-.67.28-2.71 1.14-6.6 2.15-.24.06-.48.12-.71.17-1.93.47-3.75.92-7.44 1.38-4.9.43-9.79.23-15.36-.63l.13.24Zm30.44-3.64.04-.03z"/><path d="M64.01 67.03c.02 4.86-2.46 9.49-4.47 11.62-2.84 3.02-6.6 5.17-10.99 5.71-4.9.61-9.53-2.11-10.77-3.38-2.42-2.49-4.4-5.77-4.46-10.46.3-5.34 2.38-9.26 5.4-12.11s7.04-4.51 10.39-4.77c3.86-.3 8.38 1.12 11.5 4.55 2.04 2.25 2.93 4.83 3.39 8.84ZM48.6 52c9.42-.99 17.16 5.86 17.16 15.26S58.02 85.13 48.6 86.12s-17.1-5.87-17.1-15.26S39.18 52.99 48.6 52" class="cls-4"/><path d="M48.6 86.17c-9.46.99-17.15-5.87-17.15-15.31s7.69-17.92 17.15-18.91c4.57-.48 8.89.85 12.15 3.74 3.27 2.9 5.06 7 5.06 11.56s-1.8 9.04-5.06 12.62-7.58 5.82-12.15 6.3m0-34.12c-9.4.99-17.05 9.42-17.05 18.8S39.2 87.06 48.6 86.07c4.55-.48 8.83-2.7 12.08-6.26s5.04-8.02 5.04-12.55-1.79-8.61-5.04-11.49c-3.24-2.88-7.53-4.2-12.08-3.72m-.25 32.39c-5.03.53-9.51-2.3-10.6-3.42-2.96-3.04-4.42-6.47-4.47-10.49.28-4.93 2.1-9.01 5.42-12.15 2.83-2.67 6.82-4.5 10.42-4.79 4.25-.33 8.67 1.42 11.53 4.57 1.96 2.16 2.91 4.64 3.4 8.86.02 4.7-2.31 9.34-4.48 11.66-3.03 3.23-6.84 5.21-11.02 5.73-.07 0-.14.02-.21.02Zm.43-30.72c-3.49.37-7.3 2.16-10.02 4.73-3.3 3.12-5.11 7.18-5.39 12.07.05 4 1.51 7.41 4.45 10.43 1.07 1.1 5.53 3.91 10.52 3.39.07 0 .14-.02.21-.02 4.15-.51 7.94-2.48 10.95-5.69 2.16-2.3 4.48-6.91 4.45-11.58-.49-4.2-1.43-6.67-3.38-8.81-2.84-3.13-7.23-4.87-11.46-4.54-.11 0-.23.02-.34.03Z"/><path d="M48.64 51.94c9.43-.99 17.11 5.89 17.11 15.32s-7.69 17.92-17.11 18.91c-9.43.99-17.11-5.89-17.11-15.32s7.69-17.92 17.11-18.91M31.91 70.81c0 9.21 7.56 15.94 16.74 14.98s16.74-9.29 16.74-18.5-7.56-15.94-16.74-14.98-16.74 9.29-16.74 18.5" class="cls-4"/><path d="M48.64 86.22c-9.46.99-17.16-5.9-17.16-15.36s7.7-17.97 17.16-18.97c9.46-.99 17.16 5.9 17.16 15.36s-7.7 17.97-17.16 18.97m0-34.23c-9.41.99-17.06 9.45-17.06 18.86s7.65 16.26 17.06 15.27S65.7 76.67 65.7 67.26 58.05 51 48.64 51.99m0 33.85c-4.45.47-8.66-.84-11.84-3.69-3.19-2.85-4.94-6.87-4.94-11.34s1.75-8.86 4.94-12.38c3.18-3.51 7.39-5.71 11.84-6.18s8.66.84 11.84 3.69c3.19 2.85 4.94 6.87 4.94 11.34s-1.75 8.86-4.94 12.38c-3.18 3.51-7.39 5.71-11.84 6.18m0-33.48c-4.43.47-8.61 2.65-11.77 6.14-3.17 3.5-4.91 7.87-4.91 12.3s1.74 8.44 4.91 11.27c3.16 2.83 7.35 4.13 11.77 3.67 4.43-.47 8.61-2.65 11.77-6.14 3.17-3.5 4.91-7.87 4.91-12.3s-1.74-8.44-4.91-11.27c-3.16-2.83-7.35-4.13-11.77-3.66Z"/><path d="M48.66 53.36c8.6-.9 15.68 5.41 15.68 14.03s-7.08 16.42-15.68 17.32-15.68-5.41-15.68-14.03 7.08-16.42 15.68-17.32m-15.3 17.28c0 8.41 6.91 14.57 15.3 13.69s15.3-8.49 15.3-16.91-6.91-14.57-15.3-13.69-15.3 8.49-15.3 16.91" class="cls-4"/><path d="M48.66 84.76c-4.17.44-8.11-.79-11.1-3.45-2.99-2.67-4.63-6.44-4.63-10.62s1.64-8.3 4.63-11.59c2.98-3.29 6.92-5.35 11.1-5.79s8.11.79 11.1 3.45c2.98 2.67 4.63 6.44 4.63 10.62s-1.64 8.3-4.63 11.59c-2.98 3.29-6.92 5.35-11.1 5.79m0-31.35c-4.15.44-8.06 2.48-11.03 5.75-2.97 3.28-4.6 7.37-4.6 11.52s1.63 7.9 4.6 10.55c2.96 2.65 6.88 3.87 11.03 3.43s8.06-2.48 11.03-5.75 4.6-7.37 4.6-11.52-1.63-7.9-4.6-10.55c-2.96-2.65-6.88-3.87-11.03-3.43m0 30.97c-4.07.43-7.92-.77-10.83-3.37s-4.52-6.29-4.52-10.37 1.6-8.1 4.52-11.32c2.91-3.21 6.76-5.22 10.83-5.65s7.92.77 10.83 3.37 4.52 6.29 4.52 10.37-1.6 8.1-4.52 11.32c-2.91 3.21-6.76 5.22-10.83 5.65m0-30.6c-4.05.43-7.87 2.42-10.76 5.61-2.89 3.2-4.49 7.19-4.49 11.24s1.59 7.71 4.49 10.3c2.89 2.59 6.71 3.77 10.76 3.35 4.05-.43 7.87-2.42 10.76-5.61 2.89-3.2 4.49-7.19 4.49-11.24s-1.59-7.71-4.49-10.3c-2.89-2.59-6.71-3.77-10.76-3.35"/><path d="m49.35 51.79-1.47.15v34.39l1.47-.15z" class="cls-4"/><path d="m49.35 86.23-1.47.15s-.05-.02-.05-.04V51.95s0-.03.01-.04.02-.02.04-.02l1.47-.15s.05.02.05.04v34.43c0 .01-.02.02-.04.02Zm-1.42.05 1.37-.14V51.85l-1.37.14z"/><path d="m49.2 51.61.37-.04v34.78l-.37.04zm-1.46.16.38-.04v34.78l-.38.04z" class="cls-4"/><path d="m48.12 86.56-.38.04s-.05-.02-.05-.04V51.78c0-.03.02-.05.05-.05s.38-.04.38-.04c.03 0 .05.02.05.04v34.78s0 .03-.01.04-.02.02-.04.02Zm-.33-.06.28-.03V51.79l-.28.03zm1.79-.09-.37.04s-.05-.02-.05-.04V51.63s0-.03.01-.04.02-.02.03-.02l.37-.04s.05.02.05.04v34.78s0 .03-.01.04-.02.02-.04.02Zm-.33-.07.27-.03V51.63l-.28.03v34.68Z"/><path d="M65.77 67.91v-1.27l-1.04-.86-5.88-.94-8.47.03-10.2 1.59-7.26 2.49-1.47 1.24v1.27l3.71-2.06 8.81-2.31 8.47-.89 6.22.04 4.32.58 2.76 1.08Z" class="cls-4"/><path d="M65.77 67.96h-.02l-2.76-1.08-4.31-.58-6.22-.04-8.46.89-8.8 2.31-3.71 2.05h-.05c-.01 0-.02-.02-.02-.04V70.2s0-.03.02-.04l1.47-1.24s.01 0 .02-.01l7.26-2.49 10.21-1.59 8.48-.03 5.88.94h.02l1.04.86s.02.02.02.03v1.27s0 .03-.02.04c0 0-.02 0-.03.01Zm-13.31-1.8 6.23.04 4.33.58 2.7 1.06v-1.17l-1.01-.84-5.86-.94-8.46.03-10.19 1.59L32.96 69l-1.44 1.22v1.17l3.64-2.02h.01l8.81-2.31 8.48-.89Z"/><path d="M48.65 66.4c4.04-.43 7.96-.45 11.07-.18 3.21.3 5.47.87 6.24 1.69v.45c-.93-1.02-3.97-1.53-6.31-1.75-3.09-.28-6.98-.25-11 .18-4.24.45-8.19 1.27-11.23 2.18-2.44.74-5.7 2.04-6.1 3.04v-.46c.22-.68 2.65-1.92 6.05-2.95 3.06-.92 7.02-1.73 11.29-2.19Zm0-1.47c4.04-.43 7.96-.45 11.07-.18 3.21.3 5.47.87 6.24 1.69v.45c-.93-1.02-3.97-1.53-6.31-1.75-3.09-.28-6.98-.25-11 .18-4.24.45-8.17 1.27-11.21 2.18-2.36.69-5.74 2.05-6.12 3.04v-.47c.22-.67 2.7-1.95 6.05-2.95 3.06-.92 7.02-1.73 11.29-2.19Z" class="cls-4"/><path d="M31.32 72.06c-.02 0-.04-.02-.04-.04v-.48c.24-.73 2.8-1.99 6.08-2.99 3.27-.98 7.28-1.76 11.3-2.19v.05-.05c.04 0 .08 0 .11-.01 3.8-.4 7.69-.46 10.97-.16 3.35.32 5.52.91 6.27 1.7 0 0 .01.02.01.03v.45s-.01.04-.03.05h-.05c-.98-1.08-4.36-1.55-6.28-1.74-3.28-.29-7.18-.23-10.99.18-3.96.42-7.95 1.2-11.22 2.18-2.66.81-5.69 2.09-6.07 3 0 .02-.03.03-.05.03Zm17.44-5.33c3.77-.4 7.64-.45 10.9-.16 1.88.18 5.15.64 6.25 1.68v-.3c-.75-.77-2.89-1.35-6.2-1.66-3.27-.29-7.16-.24-10.95.16-.04 0-.08 0-.11.01-4.01.43-8.01 1.2-11.28 2.18-2.71.83-5.73 2.13-6.01 2.91v.27c.72-1.05 4.08-2.3 6.04-2.9 3.28-.98 7.27-1.76 11.24-2.19.04 0 .08 0 .11-.01Zm-17.44 3.86c-.02 0-.04-.02-.04-.04v-.49c.24-.74 2.86-2.02 6.08-2.99 3.27-.98 7.28-1.76 11.3-2.19s.07 0 .11-.01c3.8-.4 7.69-.46 10.97-.16 3.35.32 5.52.91 6.27 1.7 0 0 .01.02.01.03v.45s-.01.04-.03.05h-.05c-.98-1.08-4.36-1.55-6.28-1.74-3.28-.29-7.18-.23-10.99.18-3.95.42-7.93 1.2-11.2 2.18-2.7.79-5.74 2.12-6.08 3 0 .02-.03.03-.05.04Zm17.45-5.33c3.77-.4 7.64-.45 10.89-.16 1.88.18 5.15.63 6.25 1.68v-.3c-.75-.77-2.89-1.35-6.2-1.66-3.31-.3-7.24-.23-11.06.18-4.01.43-8.01 1.2-11.28 2.18-3.49 1.05-5.79 2.3-6.01 2.91v.27c.69-1.01 3.93-2.27 6.06-2.89 3.28-.98 7.27-1.76 11.22-2.18.04 0 .08 0 .12-.01Z"/><path d="M48.57 57.46c6.37-.7 11.92-.36 14.47.67l.93 1.51c-2.21-.96-8.2-1.57-15.38-.63-5.85.65-12.1 1.92-15.24 3.92l1.11-1.97c2.57-1.61 8.65-2.92 14.12-3.5" class="cls-4"/><path d="M33.34 62.98s-.03 0-.04-.01c-.02-.01-.02-.04 0-.06l1.11-1.97s.01-.02.02-.02c2.68-1.67 9.03-2.97 14.14-3.51 6.13-.67 11.82-.41 14.49.68 0 0 .02 0 .02.02l.93 1.51v.06c-.02.02-.04.02-.06.02-2.32-1.01-8.34-1.54-15.36-.62-9.58 1.07-13.65 2.91-15.22 3.91h-.02Zm1.14-1.99-1.01 1.8c1.68-1.03 5.81-2.8 15.11-3.83 6.89-.9 12.82-.4 15.26.57l-.83-1.36c-2.66-1.08-8.31-1.34-14.42-.66-5.09.54-11.42 1.83-14.09 3.49Z"/><path d="M48.65 58.77c3.63-.39 7.14-.56 9.93-.35 2.6.21 5.08.68 5.43 1.03l.27.46c-.86-.47-3.01-.87-5.76-1.11-2.77-.23-6.27-.03-9.89.36-4.1.42-7.29.97-10.02 1.73-2.89.84-4.9 1.83-5.39 2.25l.27-.54c.96-.59 2.49-1.34 5.05-2.07 2.83-.81 6.05-1.31 10.1-1.75Zm0-1.47c3.48-.37 6.91-.54 9.58-.34 2.11.19 4.2.61 4.96 1.1l.4.6c-.68-.69-3.26-1.14-5.53-1.3-2.65-.18-5.94-.01-9.42.32-3.65.39-7.02.97-9.64 1.72-2.5.74-4.11 1.47-4.79 1.98l.35-.57c.94-.59 2.46-1.21 4.37-1.78 2.64-.76 6.03-1.33 9.7-1.73Z" class="cls-4"/><path d="M64.29 59.96h-.03c-.84-.46-2.94-.86-5.74-1.1-2.46-.2-5.79-.09-9.88.36-4.1.42-7.28.97-10.01 1.73-2.88.84-4.87 1.81-5.37 2.24q-.03.03-.06 0c-.03-.03-.02-.04-.01-.06l.27-.54s.01-.02.02-.02c1.3-.8 2.95-1.48 5.06-2.08 2.56-.74 5.49-1.25 10.11-1.76 3.91-.42 7.35-.54 9.94-.35 2.65.21 5.1.68 5.46 1.04l.28.46v.06s-.02.02-.03.02Zm-15.37-.88c3.97-.42 7.21-.53 9.62-.33 2.65.22 4.68.6 5.62 1.03l-.18-.3c-.34-.33-2.81-.8-5.4-1.01-2.59-.19-6.02-.08-9.92.35-4.61.51-7.53 1.02-10.09 1.75-2.09.6-3.74 1.27-5.02 2.06l-.17.35c.69-.47 2.6-1.36 5.25-2.14 2.74-.77 5.93-1.32 10.03-1.73.09 0 .18-.02.27-.03Zm14.68-.37s-.03 0-.04-.01c-.7-.71-3.4-1.14-5.5-1.29-2.41-.16-5.49-.06-9.41.32-3.81.41-7.14 1.01-9.63 1.72-2.21.65-4 1.39-4.77 1.97-.02.01-.05.01-.06 0-.02-.01-.02-.04 0-.06l.35-.57.02-.02c.93-.59 2.45-1.21 4.39-1.79 2.49-.71 5.84-1.31 9.71-1.73 3.8-.41 7.11-.53 9.59-.34 2.26.2 4.26.65 4.98 1.11l.01.01.4.6s0 .05-.01.07c0 0-.02.01-.03.01m-14.95-1.08c3.93-.38 7.01-.49 9.43-.32 1.91.14 4.32.51 5.3 1.11l-.22-.32c-.71-.45-2.69-.89-4.93-1.09-2.47-.18-5.79-.07-9.57.34-3.86.42-7.21 1.01-9.69 1.73-1.92.57-3.42 1.19-4.35 1.77l-.23.37c.86-.56 2.56-1.25 4.62-1.86 2.5-.72 5.83-1.31 9.65-1.72Z"/><path d="M57.15 75.27c-3.15-.26-6.3-.01-8.51.25-10.61 1.24-14.04 3.66-14.46 4.32l-.79-1.21c2.7-2.24 8.48-3.95 15.31-4.55 3.55-.31 6.61-.4 9.18-.17l-.73 1.37" class="cls-4"/><path d="M34.19 79.89s-.03 0-.04-.02l-.79-1.21s0-.05.01-.07c2.71-2.25 8.44-3.96 15.34-4.57 3.74-.33 6.75-.39 9.19-.17.02 0 .03.01.04.02s0 .03 0 .05l-.73 1.37s-.04.03-.06.03c-2.49-.2-5.35-.12-8.49.25-10.33 1.21-13.96 3.56-14.42 4.3 0 .01-.02.02-.04.03Zm-.73-1.25.73 1.12c.28-.36 1.25-1.1 3.39-1.9 2.74-1.03 6.56-1.85 11.07-2.38 3.13-.37 5.99-.45 8.48-.25l.68-1.27c-2.42-.21-5.4-.15-9.1.18-6.84.61-12.54 2.29-15.24 4.51Z"/><path d="M48.59 75.34c2.95-.27 5.85-.45 8.65-.22l-.2.38c-2.6-.21-5.37-.1-8.43.24-3.92.38-7.88 1.16-11.33 2.52-1.09.42-2.89 1.31-3.07 1.9l-.2-.31c.06-.35 1.15-1.17 3.18-1.96 3.95-1.55 7.65-2.13 11.41-2.55Zm.13-1.5c3.06-.26 6.22-.45 9.29-.17l-.21.39c-2.77-.26-5.42-.16-9.06.16-3.93.42-8.1 1.14-11.89 2.64-1.22.48-3.34 1.48-3.41 2.09l-.2-.34c.05-.56 1.87-1.47 3.52-2.13 3.82-1.51 8-2.24 11.96-2.66Z" class="cls-4"/><path d="M34.19 80.21s-.03 0-.04-.02l-.2-.31v-.03c.07-.39 1.22-1.23 3.22-2 3.77-1.48 7.3-2.09 11.42-2.55 2.8-.25 5.79-.45 8.65-.22.02 0 .03 0 .03.02v.04l-.2.38s-.03.03-.05.03c-2.44-.19-5.2-.12-8.43.24-4.33.42-8.14 1.27-11.32 2.51-1.16.45-2.87 1.32-3.04 1.87 0 .02-.02.03-.04.04m-.15-.38.14.22c.33-.61 2.02-1.45 3.07-1.85 3.19-1.25 7-2.1 11.34-2.52 3.22-.35 5.97-.43 8.41-.24l.15-.29c-2.84-.22-5.8-.02-8.57.23-4.12.46-7.63 1.07-11.39 2.54-2.03.78-3.06 1.58-3.15 1.9Zm-.6-.82s-.03 0-.04-.02l-.2-.34v-.03c.06-.73 2.73-1.85 3.55-2.17 3.27-1.29 7.07-2.14 11.97-2.66 2.99-.26 6.19-.46 9.3-.17.02 0 .03 0 .03.02v.04l-.21.39s-.03.03-.05.03c-2.95-.28-5.75-.13-9.05.16-4.88.52-8.65 1.36-11.87 2.64-1.58.63-3.31 1.54-3.37 2.05 0 .02-.02.04-.04.05Zm-.15-.4.14.23c.34-.79 3.08-1.89 3.41-2.02 3.23-1.28 7.02-2.12 11.9-2.64 3.3-.3 6.09-.44 9.03-.17l.16-.3c-3.08-.28-6.25-.08-9.21.18-4.89.52-8.69 1.37-11.94 2.66-2.06.82-3.42 1.62-3.48 2.07Z"/><path d="m63.79 75.63-1.28 2.11-3.66-2.87-9.51-5.4-10.72-4.75-5.56-1.32 1.19-2.32.4-.26 3.46.5L49.52 66l6.57 3.46 5.53 3.39 2.25 2.36-.07.42Z" class="cls-4"/><path d="M62.52 77.79h-.03l-3.66-2.87-9.5-5.39-10.71-4.75-5.56-1.32s-.02-.01-.03-.03 0-.03 0-.04l1.19-2.32s.01-.02.02-.02l.4-.26s.02-.01.04 0l3.46.5 11.42 4.68 6.57 3.46 5.53 3.4 2.26 2.36s.01.02.01.04l-.07.42v.02l-1.28 2.11-.03.03ZM33.14 63.37l5.51 1.31 10.72 4.75 9.51 5.4 3.63 2.84 1.24-2.05.07-.39-2.23-2.34-5.52-3.39-6.57-3.46-11.4-4.68-3.43-.5-.37.24-1.15 2.26Zm30.65 12.26"/><path d="M32.87 63.48c.98-.76 8.15 1.68 15.65 5.41 7.48 3.75 14.64 8.13 13.99 9.15l-.21.36-.1.09s.13-.16-.01-.5c-.32-1.02-5.39-4.53-13.81-8.73-8.21-4.03-15.04-6.26-15.73-5.35l.22-.44Zm31.19 12.1c.62-1.28-6.03-5.6-14.28-9.61-8.44-3.89-14.52-6.07-15.63-5.11l-.25.48s0-.03.06-.08c.2-.2.54-.22.69-.24 1.91-.17 7.37 1.77 15.04 5.36 3.36 1.6 14.18 7.41 14.14 9.37 0 .17.01.2-.05.29l.28-.45Z" class="cls-4"/><path d="M62.2 78.54s-.03 0-.04-.02c-.02-.02-.01-.05 0-.07s.1-.13-.03-.44c-.33-1.05-5.69-4.67-13.79-8.71-8.61-4.23-15.05-6.19-15.66-5.36-.02.02-.04.03-.07.02-.02-.01-.03-.04-.02-.06l.22-.44s0-.01.02-.02c1.02-.8 8.21 1.68 15.7 5.41 6.74 3.38 13.72 7.53 14.04 8.95.02.11.01.2-.04.28l-.21.36-.01.01-.1.09s-.02.01-.03.01ZM33.12 63.68c1.88-.2 8.24 2.07 15.29 5.54 8.22 4.1 13.49 7.67 13.83 8.75.05.13.07.24.07.32l.16-.27c.03-.05.04-.12.02-.2-.31-1.37-7.44-5.6-14-8.89-7.31-3.64-14.57-6.17-15.59-5.43l-.12.25c.09-.04.2-.07.33-.08Zm30.66 12.39h-.03c-.02-.01-.03-.04-.01-.07l.03-.05s.02-.07.01-.16v-.06c.04-1.95-10.99-7.83-14.12-9.33-7.63-3.57-13.1-5.52-15.01-5.35h-.04c-.16.02-.44.06-.62.22-.03.02-.04.05-.05.06-.01.02-.04.04-.06.04s-.04-.03-.04-.05v-.02l.25-.48s0-.01.01-.02c1.33-1.15 9.26 2.14 15.68 5.11 7.45 3.62 14.99 8.24 14.3 9.67l-.25.4s-.02.03-.03.05c0 .01-.02.02-.04.02ZM34.65 60.96c1.93-.17 7.42 1.78 15.06 5.36 2.21 1.06 14.21 7.27 14.17 9.41v.04l.13-.22c.56-1.19-5.7-5.38-14.26-9.54-9.01-4.16-14.54-5.98-15.56-5.13l-.12.23c.19-.11.41-.13.54-.15zm29.41 14.62"/><path d="M38.36 72.01c0 2.81 1.15 5.23 3.02 6.9s4.41 2.57 7.23 2.28c2.83-.3 5.4-1.72 7.26-3.77s3.01-4.73 3.02-7.56 0-13.69 0-13.69L38.37 58.3V72Z" style="fill:#f9f9f9"/><path d="M48.6 81.25c-2.71.28-5.29-.53-7.27-2.29-1.94-1.73-3.02-4.17-3.03-6.88s0-13.82 0-13.82l20.64-2.14v13.74c0 2.75-1.08 5.44-3.03 7.6-1.95 2.15-4.55 3.5-7.3 3.79Zm-10.19-9.3v.06c0 2.7 1.07 5.13 3 6.86 1.95 1.74 4.51 2.55 7.19 2.27s5.29-1.62 7.22-3.75c1.92-2.12 2.99-4.77 3-7.47V56.25l-20.41 2.12v13.59Z"/><path d="M38.74 71.99c0 2.7 1.11 5.03 2.9 6.62s4.25 2.44 6.95 2.16c2.71-.28 5.17-1.64 6.95-3.6s2.89-4.53 2.89-7.22V56.67l-19.68 2.06V72m15.72-10.95v9.34c0 .24-.01.5-.04.74-.16 1.35-.77 2.58-1.68 3.58-1.07 1.17-2.54 1.98-4.16 2.16s-3.05-.36-4.12-1.31c-1.1-.98-1.73-2.41-1.73-3.96v-9.34l11.74-1.21Z" class="cls-8"/><path d="M48.59 80.81c-2.62.28-5.1-.49-6.98-2.17-1.88-1.67-2.91-4.03-2.91-6.64l.09-.02c0 2.59 1.03 4.93 2.89 6.59s4.32 2.42 6.92 2.15 5.07-1.55 6.92-3.59c1.84-2.03 2.86-4.57 2.87-7.16V56.7L38.8 58.76v13.22h-.1V58.67l19.78-2.07v13.32c0 2.62-1.03 5.2-2.9 7.26s-4.35 3.34-6.98 3.62Zm-.01-3.9c-1.54.16-3.01-.31-4.15-1.32-1.11-.99-1.75-2.44-1.75-3.99v-9.38h.04l11.76-1.21.03.02v9.36c0 .25-.02.52-.05.74-.16 1.31-.74 2.56-1.7 3.61-1.12 1.23-2.61 2.01-4.19 2.17ZM42.77 62.3v9.29c0 1.52.63 2.95 1.72 3.93 1.12 1 2.57 1.46 4.09 1.3s3.02-.92 4.13-2.14c.94-1.04 1.52-2.27 1.67-3.56.03-.22.04-.49.04-.73v-9.3l-11.66 1.2Z"/><g id="castle3"><g id="castle"><path d="M40.01 62.06c.02-.96.7-1.25.71-1.26 0 0 .73.17.73 1.12l-1.43.14" class="cls-5"/><path d="m39.43 60.96-.12 1.11.72-.07c0-.91.69-1.13.7-1.13.02 0 .69.13.71.98l.72-.08-.13-1.09z" class="cls-5"/><path d="m40.07 62.03-.81.08.12-1.17v-.03l2.68-.29.14 1.18-.81.08v-.04c-.02-.83-.66-.94-.67-.94 0 0-.65.2-.65 1.08v.04Zm1.41-.23.63-.07-.12-1.01-1.14.12c.08.03.18.08.28.16.15.13.34.37.36.79Zm-2.12.22.63-.06c.01-.48.22-.76.39-.92.08-.07.16-.12.22-.16l-1.13.12z"/><path d="m39.26 62.08 2.93-.31c.06 0 .11.05.11.12s-.05.14-.11.15l-2.93.31c-.06 0-.11-.05-.11-.12s.05-.14.11-.15" class="cls-5"/><path d="m42.19 62.08-2.93.31c-.09 0-.16-.06-.16-.16s.07-.19.16-.2l2.93-.31c.09 0 .16.06.16.16s-.07.19-.16.19Zm-2.93.04s-.07.05-.07.1.03.09.07.08l2.93-.31s.07-.05.07-.1-.03-.09-.07-.09l-2.93.31Z"/><path d="M40.33 61.96c0-.57.39-.78.39-.78s.4.12.41.69l-.8.08" class="cls-5"/><path d="m41.17 61.91-.84.09v-.04h-.04c0-.37.16-.59.29-.71 0 0 .12-.11.16-.1s.44.15.44.73v.04Zm-.8 0 .71-.07c-.02-.44-.29-.58-.36-.61-.07.04-.33.24-.35.68"/><path d="m39.33 60.51 2.81-.3c.06 0 .11.04.11.11s-.05.13-.11.13l-2.81.3c-.06 0-.11-.04-.11-.11s.05-.13.11-.13" class="cls-5"/><path d="m42.13 60.5-2.81.3c-.08 0-.15-.06-.15-.15s.07-.17.15-.18l2.81-.3c.08 0 .15.06.15.15s-.07.17-.15.18m-2.8.06s-.06.04-.06.09.03.08.06.07l2.81-.3s.06-.04.06-.09-.03-.08-.06-.07z"/><path d="m39.38 60.75 2.69-.28c.06 0 .1.04.1.11s-.05.13-.1.13l-2.69.28c-.06 0-.1-.04-.1-.11s.05-.13.1-.13" class="cls-5"/><path d="m42.07 60.76-2.69.28c-.08 0-.15-.06-.15-.15s.07-.17.15-.18l2.69-.28c.08 0 .15.06.15.15s-.07.17-.15.18m-2.69.03s-.06.04-.06.08.03.08.06.07l2.69-.28s.06-.04.06-.08-.03-.08-.06-.07z"/><path d="m40.25 58.83.21-.02v.15l.15-.02v-.15l.22-.02v.15l.16-.02v-.15l.22-.02v.35c0 .05-.04.09-.1.1l-.76.08c-.05 0-.1-.03-.1-.08v-.34Z" class="cls-5"/><path d="m41.11 59.22-.76.08c-.08 0-.14-.05-.14-.12v-.37l.03-.02h.01l.26-.03v.15h.07v-.16l.3-.03v.15h.07v-.16l.3-.03v.39c0 .08-.06.14-.14.15m-.81-.35v.3s.03.05.06.04l.76-.08s.05-.02.05-.05v-.3l-.13.01v.15l-.24.03v-.15h-.13v.17l-.24.03v-.15z"/><path d="m41.05 59.21.05 1.11-.74.08.05-1.12.65-.07" class="cls-5"/><path d="m41.14 60.36-.83.08.05-1.21.73-.07zm-.74-.01.65-.07-.04-1.02-.56.06z"/><g id="cp1"><path d="m40.14 59.82.02.6-.71.08.02-.6.67-.07Z" class="cls-5"/><path d="m39.41 60.55.02-.69.75-.08.03.68-.8.08Zm.11-.62-.02.52.62-.07-.02-.51-.59.06Z"/></g><g id="cp1-2" data-name="cp1"><path d="m41.98 59.63.02.6-.71.08.02-.6.67-.07Z" class="cls-5"/><path d="m41.24 60.35.02-.69.75-.08.03.68-.8.08Zm.11-.61-.02.52.62-.07-.02-.51-.59.06Z"/></g><g id="cp2"><path d="m39.34 59.47.21-.02v.15l.15-.02v-.15l.21-.02v.15l.15-.02v-.15l.21-.02v.35c0 .05-.04.09-.09.1l-.75.08s-.1-.03-.1-.08v-.34Z" class="cls-5"/><path d="m40.18 59.86-.75.08c-.08 0-.14-.05-.14-.12v-.37l.03-.02h.01l.25-.03v.15h.07v-.16l.3-.03v.15h.07v-.16l.3-.03v.39c0 .07-.06.14-.14.15m-.8-.35v.3s.03.05.05.04l.75-.08s.05-.02.05-.05v-.3l-.13.01v.15l-.24.03v-.15h-.13v.17l-.24.03v-.15h-.12Z"/></g><g id="cp2-2" data-name="cp2"><path d="m41.18 59.28.21-.02v.15l.15-.02v-.15l.21-.02v.15l.15-.02v-.15l.21-.02v.35c0 .05-.04.09-.09.1l-.75.08s-.1-.03-.1-.08v-.34Z" class="cls-5"/><path d="m42.02 59.67-.75.08c-.08 0-.14-.05-.14-.12v-.37l.03-.02h.01l.25-.03v.15h.07v-.16l.3-.03v.15h.07v-.16l.3-.03v.39c0 .07-.06.14-.14.15m-.8-.35v.3s.03.05.05.04l.75-.08s.05-.02.05-.05v-.3l-.13.01v.15l-.24.03v-.15h-.13v.17l-.24.03v-.15h-.12Z"/></g><path d="M40.66 59.61c0-.11.15-.13.15-.02v.27l-.15.02z"/><path id="cp3" d="M39.73 60.09c0-.1.14-.12.14-.02v.21l-.14.02z"/><path id="cp3-2" d="M41.57 59.89c0-.1.14-.12.14-.02v.21l-.14.02z" data-name="cp3"/></g><g id="castle-2" data-name="castle"><path d="M40.01 70.07c.02-.96.7-1.25.71-1.26 0 0 .73.17.73 1.12l-1.43.14" class="cls-5"/><path d="m39.43 68.96-.12 1.11.72-.07c0-.91.69-1.13.7-1.13.02 0 .69.13.71.98l.72-.08-.13-1.09z" class="cls-5"/><path d="m40.07 70.04-.81.08.12-1.17v-.03l2.68-.29.14 1.18-.81.08v-.04c-.02-.83-.66-.94-.67-.94 0 0-.65.2-.65 1.08v.04Zm1.41-.24.63-.07-.12-1.01-1.14.12c.08.03.18.08.28.16.15.13.34.37.36.79Zm-2.12.22.63-.06c.01-.48.22-.76.39-.92.08-.07.16-.12.22-.16l-1.13.12z"/><path d="m39.26 70.08 2.93-.31c.06 0 .11.05.11.12s-.05.14-.11.15l-2.93.31c-.06 0-.11-.05-.11-.12s.05-.14.11-.15" class="cls-5"/><path d="m42.19 70.09-2.93.31c-.09 0-.16-.06-.16-.16s.07-.19.16-.2l2.93-.31c.09 0 .16.06.16.16s-.07.19-.16.19Zm-2.93.04s-.07.05-.07.1.03.09.07.08l2.93-.31s.07-.05.07-.1-.03-.09-.07-.09l-2.93.31Z"/><path d="M40.33 69.96c0-.57.39-.78.39-.78s.4.12.41.69l-.8.08" class="cls-5"/><path d="m41.17 69.92-.84.09v-.04h-.04c0-.37.16-.59.29-.71 0 0 .12-.11.16-.1s.44.15.44.73v.04Zm-.8 0 .71-.07c-.02-.44-.29-.58-.36-.61-.07.04-.33.24-.35.68"/><path d="m39.33 68.52 2.81-.3c.06 0 .11.04.11.11s-.05.13-.11.13l-2.81.3c-.06 0-.11-.04-.11-.11s.05-.13.11-.13" class="cls-5"/><path d="m42.13 68.51-2.81.3c-.08 0-.15-.06-.15-.15s.07-.17.15-.18l2.81-.3c.08 0 .15.06.15.15s-.07.17-.15.18m-2.8.05s-.06.04-.06.09.03.08.06.07l2.81-.3s.06-.04.06-.09-.03-.08-.06-.07z"/><path d="m39.38 68.76 2.69-.28c.06 0 .1.04.1.11s-.05.13-.1.13l-2.69.28c-.06 0-.1-.04-.1-.11s.05-.13.1-.13" class="cls-5"/><path d="m42.07 68.76-2.69.28c-.08 0-.15-.06-.15-.15s.07-.17.15-.18l2.69-.28c.08 0 .15.06.15.15s-.07.17-.15.18m-2.69.04s-.06.04-.06.08.03.08.06.07l2.69-.28s.06-.04.06-.08-.03-.08-.06-.07z"/><path d="m40.25 66.84.21-.02v.15l.15-.02v-.15l.22-.02v.15l.16-.02v-.15l.22-.02v.35c0 .05-.04.09-.1.1l-.76.08c-.05 0-.1-.03-.1-.08v-.34Z" class="cls-5"/><path d="m41.11 67.22-.76.08c-.08 0-.14-.05-.14-.12v-.37l.03-.02h.01l.26-.03v.15h.07v-.16l.3-.03v.15h.07v-.16l.3-.03v.39c0 .08-.06.14-.14.15m-.81-.35v.3s.03.05.06.04l.76-.08s.05-.02.05-.05v-.3l-.13.01v.15l-.24.03v-.15h-.13v.17l-.24.03v-.15z"/><path d="m41.05 67.22.05 1.11-.74.08.05-1.12.65-.07" class="cls-5"/><path d="m41.14 68.37-.83.08.05-1.21.73-.07zm-.74-.02.65-.07-.04-1.02-.56.06z"/><g id="cp1-3" data-name="cp1"><path d="m40.14 67.83.02.6-.71.08.02-.6.67-.07Z" class="cls-5"/><path d="m39.41 68.55.02-.69.75-.08.03.68-.8.08Zm.11-.61-.02.52.62-.07-.02-.51-.59.06Z"/></g><g id="cp1-4" data-name="cp1"><path d="m41.98 67.64.02.6-.71.08.02-.6.67-.07Z" class="cls-5"/><path d="m41.24 68.36.02-.69.75-.08.03.68-.8.08Zm.11-.61-.02.52.62-.07-.02-.51-.59.06Z"/></g><g id="cp2-3" data-name="cp2"><path d="m39.34 67.48.21-.02v.15l.15-.02v-.15l.21-.02v.15l.15-.02v-.15l.21-.02v.35c0 .05-.04.09-.09.1l-.75.08s-.1-.03-.1-.08v-.34Z" class="cls-5"/><path d="m40.18 67.87-.75.08c-.08 0-.14-.05-.14-.12v-.37l.03-.02h.01l.25-.03v.15h.07v-.16l.3-.03v.15h.07v-.16l.3-.03v.39c0 .07-.06.14-.14.15m-.8-.35v.3s.03.05.05.04l.75-.08s.05-.02.05-.05v-.3l-.13.01v.15l-.24.03v-.15h-.13v.17l-.24.03v-.15h-.12Z"/></g><g id="cp2-4" data-name="cp2"><path d="m41.18 67.29.21-.02v.15l.15-.02v-.15l.21-.02v.15l.15-.02v-.15l.21-.02v.35c0 .05-.04.09-.09.1l-.75.08s-.1-.03-.1-.08v-.34Z" class="cls-5"/><path d="m42.02 67.67-.75.08c-.08 0-.14-.05-.14-.12v-.37l.03-.02h.01l.25-.03v.15h.07v-.16l.3-.03v.15h.07v-.16l.3-.03v.39c0 .08-.06.14-.14.15m-.8-.35v.3s.03.05.05.04l.75-.08s.05-.02.05-.05v-.3l-.13.01v.15l-.24.03v-.15h-.13v.17l-.24.03v-.15h-.12Z"/></g><path d="M40.66 67.61c0-.11.15-.13.15-.02v.27l-.15.02z"/><path id="cp3-3" d="M39.73 68.09c0-.1.14-.12.14-.02v.21l-.14.02z" data-name="cp3"/><path id="cp3-4" d="M41.57 67.9c0-.1.14-.12.14-.02v.21l-.14.02z" data-name="cp3"/></g><g id="castle-3" data-name="castle"><path d="M43.14 78.07c-.66-.62-.34-1.29-.34-1.3 0 0 .69-.42 1.36.18z" class="cls-5"/><path d="m41.9 77.8.7.78.51-.56c-.64-.58-.27-1.2-.25-1.22.01-.01.63-.41 1.25.11l.51-.56-.88-.59-1.82 2.04Z" class="cls-5"/><path d="m42.59 78.64-.73-.83v-.05l1.85-2.07.94.64-.57.63-.03-.03a.98.98 0 0 0-1.19-.11s-.36.59.26 1.15l.03.03-.57.63Zm-.63-.85.64.72.44-.49c-.33-.31-.37-.64-.35-.86.01-.1.04-.19.06-.26zm1.33-1.18c.21-.02.5 0 .8.25l.44-.49-.81-.55-.8.9c.08-.04.19-.08.32-.1h.05Z"/><path d="m42.56 78.62 2.06-2.3s.12-.05.18 0 .06.12.02.17l-2.06 2.3s-.12.05-.17 0-.06-.12-.02-.17Z" class="cls-5"/><path d="M42.68 78.87s-.09 0-.13-.04c-.07-.06-.08-.17-.02-.23l2.06-2.3s.07-.05.12-.05c.04 0 .08.02.12.04.07.06.08.17.02.23l-2.06 2.3s-.06.05-.1.05Zm-.09-.22s-.02.08.02.11.09.03.11 0l2.06-2.29s.02-.08-.02-.11c-.02-.02-.04-.03-.06-.02-.02 0-.04 0-.05.02l-2.06 2.3Z"/><path d="M43.31 77.78c-.4-.36-.25-.77-.24-.77 0 0 .4-.21.81.14l-.56.63" class="cls-5"/><path d="m43.31 77.84-.03-.03c-.25-.23-.3-.47-.29-.63 0-.08.02-.18.05-.2h.01s.44-.23.86.14l.03.03-.63.7Zm-.21-.8c-.02.07-.09.38.21.68l.5-.56a.7.7 0 0 0-.71-.12"/><path d="m41.5 77.59 1.98-2.2s.11-.05.16 0 .05.11.01.16l-1.98 2.2s-.11.05-.16 0-.05-.11-.01-.16" class="cls-5"/><path d="M41.6 77.82s-.09 0-.12-.04c-.06-.06-.07-.16-.01-.22l1.98-2.2s.06-.05.1-.05.09 0 .12.04c.06.06.07.16.01.22l-1.98 2.2s-.06.05-.1.05m-.07-.2s-.02.07.01.1.08.03.1 0l1.98-2.2s.02-.07-.01-.1c-.02-.01-.04-.02-.06-.02s-.03 0-.04.02z"/><path d="m41.72 77.7 1.89-2.1s.11-.05.16 0 .05.11.01.16l-1.89 2.1s-.11.05-.16 0-.05-.11-.01-.16" class="cls-5"/><path d="M41.82 77.93s-.09 0-.12-.04c-.06-.06-.07-.16-.01-.22l1.89-2.1c.06-.06.16-.07.22-.01.03.03.05.07.05.12 0 .04-.01.07-.04.1l-1.89 2.1s-.06.05-.1.05m1.86-2.33s-.03 0-.04.02l-1.89 2.1s-.02.07.01.1.07.03.1 0l1.89-2.1s.01-.03.01-.04q0-.03-.03-.06c-.02-.02-.04-.02-.06-.02Z"/><path d="m41.03 75.87.15-.17.11.09.11-.12-.11-.1.15-.17.11.1.11-.12-.11-.1.15-.17.25.22s.03.09 0 .13l-.54.6s-.1.05-.13.02l-.24-.22Z" class="cls-5"/><path d="M41.33 76.14s-.07 0-.09-.03l-.28-.24.03-.03.03.03-.03-.03.18-.2.11.09.05-.05-.11-.1.21-.24.11.1.05-.05-.11-.1.21-.24.28.25s.04.05.04.09-.02.07-.04.1l-.54.6s-.07.05-.1.05m-.24-.28.21.19s.05 0 .07-.01l.54-.6s.02-.03.02-.04 0-.02-.01-.03l-.22-.19-.09.1.11.1-.17.19-.11-.1-.09.1.11.1-.17.19-.11-.09-.09.1Z"/><path d="m41.92 75.53.82.66-.53.58-.76-.74.46-.5" class="cls-5"/><path d="m42.22 76.84-.82-.8.52-.57.89.72zm-.7-.81.7.68.46-.51-.76-.61z"/><g id="cp1-5" data-name="cp1"><path d="m41.65 76.57.44.36-.5.56-.41-.39z" class="cls-5"/><path d="m41.59 77.55-.47-.45.53-.59.51.41zm-.35-.46.35.34.44-.49-.38-.31z"/></g><g id="cp1-6" data-name="cp1"><path d="m42.94 75.13.44.36-.5.56-.41-.39z" class="cls-5"/><path d="m42.88 76.11-.47-.45.53-.59.51.41zm-.35-.46.35.34.44-.49-.38-.31z"/></g><g id="cp2-5" data-name="cp2"><path d="m40.77 76.92.15-.16.11.09.11-.12-.11-.1.15-.17.11.1.11-.12-.11-.1.15-.17.25.22s.03.09 0 .13l-.53.58s-.1.05-.13.02l-.24-.22Z" class="cls-5"/><path d="M41.08 77.2s-.07 0-.09-.03l-.28-.24.03-.03.03.03-.03-.03.18-.2.11.09.05-.05-.11-.1.21-.23.11.1.05-.05-.11-.1.21-.23.28.25c.05.05.05.13 0 .19l-.53.58s-.06.05-.1.05Zm-.24-.28.21.19s.05.01.07-.01l.53-.58s.02-.05 0-.07l-.22-.19-.09.1.11.1-.17.19-.11-.1-.09.1.11.1-.17.19-.11-.1-.09.09Z"/></g><g id="cp2-6" data-name="cp2"><path d="m42.07 75.49.15-.16.11.09.11-.12-.11-.1.15-.17.11.1.11-.12-.11-.1.15-.17.25.22s.03.09 0 .13l-.53.58s-.1.05-.13.02l-.24-.22Z" class="cls-5"/><path d="M42.37 75.76s-.07 0-.09-.03l-.26-.23v-.04l.19-.21.11.09.05-.05-.11-.1.21-.23.11.1.05-.05-.11-.1.21-.23.28.25c.05.05.05.13 0 .19l-.53.58s-.06.05-.1.05Zm-.24-.28.21.19s.05 0 .07-.01l.53-.58s.02-.05 0-.07l-.22-.19-.09.1.11.1-.17.19-.11-.1-.09.1.11.1-.17.19-.11-.1-.09.09Z"/></g><path d="M41.89 76.06c-.08-.06.03-.19.11-.12l.19.17-.11.12z"/><path id="cp3-5" d="M41.52 77.03c-.07-.07.03-.18.1-.11l.15.13-.1.11z" data-name="cp3"/><path id="cp3-6" d="M42.81 75.59c-.07-.07.03-.18.1-.11l.15.13-.1.11z" data-name="cp3"/></g></g><g id="castle-4" data-name="castle"><path d="M47.92 61.23c.02-.96.7-1.25.71-1.26 0 0 .73.17.73 1.12l-1.43.14" class="cls-5"/><path d="m47.33 60.13-.12 1.11.72-.07c0-.91.69-1.13.7-1.13.02 0 .69.13.71.98l.72-.08-.13-1.09z" class="cls-5"/><path d="m47.97 61.2-.81.08.12-1.2 2.68-.29.14 1.18-.81.08v-.04c-.02-.83-.66-.94-.67-.94 0 0-.65.2-.65 1.08v.04Zm1.41-.23.63-.07-.12-1.01-1.14.12c.08.03.18.08.28.16.15.13.34.37.36.79Zm-2.12.22.63-.06c.01-.48.22-.76.39-.92.08-.07.16-.12.22-.16l-1.13.12z"/><path d="m47.17 61.25 2.93-.31c.06 0 .11.05.11.12s-.05.14-.11.15l-2.93.31c-.06 0-.11-.05-.11-.12s.05-.14.11-.15" class="cls-5"/><path d="m50.09 61.25-2.93.31c-.09 0-.16-.06-.16-.16s.07-.19.16-.2l2.93-.31c.09 0 .16.06.16.16s-.07.19-.16.19Zm-2.92.04s-.07.05-.07.1.03.09.07.08l2.93-.31s.07-.05.07-.1-.03-.09-.07-.09l-2.93.31Z"/><path d="M48.23 61.13c0-.57.39-.78.39-.78s.4.12.41.69l-.8.08" class="cls-5"/><path d="m49.07 61.08-.84.09v-.04h-.04c0-.37.16-.59.29-.71 0 0 .12-.11.16-.1s.44.15.44.73v.04Zm-.8 0 .71-.07c-.02-.44-.29-.58-.36-.61-.07.04-.33.24-.35.68"/><path d="m47.23 59.68 2.81-.3c.06 0 .11.04.11.11s-.05.13-.11.13l-2.81.3c-.06 0-.11-.04-.11-.11s.05-.13.11-.13" class="cls-5"/><path d="m50.04 59.67-2.81.3c-.08 0-.15-.06-.15-.15s.07-.17.15-.18l2.81-.3c.08 0 .15.06.15.15s-.07.17-.15.18m-2.81.06s-.06.04-.06.09.03.08.06.07l2.81-.3s.06-.04.06-.09-.03-.08-.06-.07z"/><path d="m47.29 59.92 2.69-.28c.06 0 .1.04.1.11s-.05.13-.1.13l-2.69.28c-.06 0-.1-.04-.1-.11s.05-.13.1-.13" class="cls-5"/><path d="m49.97 59.93-2.69.28c-.08 0-.15-.06-.15-.15s.07-.17.15-.18l2.69-.28c.08 0 .15.06.15.15s-.07.17-.15.18m-2.68.03s-.06.04-.06.08.03.08.06.07l2.69-.28s.06-.04.06-.08-.03-.08-.06-.07z"/><path d="m48.15 58 .21-.02v.15l.15-.02v-.15l.22-.02v.15l.16-.02v-.15l.22-.02v.35c0 .05-.04.09-.1.1l-.76.08c-.05 0-.1-.03-.1-.08v-.34Z" class="cls-5"/><path d="m49.01 58.39-.76.08c-.08 0-.14-.05-.14-.12v-.37l.03-.02h.01l.26-.03v.15h.07v-.16l.3-.03v.15h.07v-.16l.3-.03v.39c0 .08-.06.14-.14.15m-.81-.35v.3s.03.05.06.04l.76-.08s.05-.02.05-.05v-.3l-.13.01v.15l-.24.03v-.15h-.13v.17l-.24.03v-.15z"/><path d="m48.95 58.38.05 1.11-.74.08.05-1.12.65-.07" class="cls-5"/><path d="m49.05 59.53-.83.08.05-1.21.73-.07zm-.75-.01.65-.07-.04-1.02-.56.06z"/><g id="cp1-7" data-name="cp1"><path d="m48.04 58.99.02.6-.71.08.02-.6.67-.07Z" class="cls-5"/><path d="m47.31 59.71.02-.69.75-.08.03.68-.8.08Zm.11-.61-.02.52.62-.07-.02-.51-.59.06Z"/></g><g id="cp1-8" data-name="cp1"><path d="m49.88 58.8.02.6-.71.08.02-.6.67-.07Z" class="cls-5"/><path d="m49.14 59.52.02-.69.75-.08.03.68-.8.08Zm.11-.61-.02.52.62-.07-.02-.51-.59.06Z"/></g><g id="cp2-7" data-name="cp2"><path d="m47.24 58.64.21-.02v.15l.15-.02v-.15l.21-.02v.15l.15-.02v-.15l.21-.02v.35c0 .05-.04.09-.09.1l-.75.08s-.1-.03-.1-.08v-.34Z" class="cls-5"/><path d="m48.09 59.03-.75.08c-.08 0-.14-.05-.14-.12v-.37l.03-.02h.01l.25-.03v.15h.07v-.16l.3-.03v.15h.07v-.16l.3-.03v.39c0 .07-.06.14-.14.15m-.8-.35v.3s.03.05.05.04l.75-.08s.05-.02.05-.05v-.3l-.13.01v.15l-.24.03v-.15h-.13v.17l-.24.03v-.15h-.12Z"/></g><g id="cp2-8" data-name="cp2"><path d="m49.08 58.45.21-.02v.15l.15-.02v-.15l.21-.02v.15l.15-.02v-.15l.21-.02v.35c0 .05-.04.09-.09.1l-.75.08s-.1-.03-.1-.08v-.34Z" class="cls-5"/><path d="m49.92 58.84-.75.08c-.08 0-.14-.05-.14-.12v-.37l.03-.02h.01l.25-.03v.15h.07v-.16l.3-.03v.15h.07v-.16l.3-.03v.39c0 .07-.06.14-.14.15m-.8-.35v.3s.03.05.05.04l.75-.08s.05-.02.05-.05v-.3l-.13.01v.15l-.24.03v-.15h-.13v.17l-.24.03v-.15h-.12Z"/></g><path d="M48.56 58.77c0-.11.15-.13.15-.02v.27l-.15.02z"/><path id="cp3-7" d="M47.64 59.26c0-.1.14-.12.14-.02v.21l-.14.02z" data-name="cp3"/><path id="cp3-8" d="M49.47 59.06c0-.1.14-.12.14-.02v.21l-.14.02z" data-name="cp3"/></g><g id="castle3-2" data-name="castle3"><g id="castle-5" data-name="castle"><path d="M57.2 60.26c-.02-.95-.7-1.11-.71-1.11 0 0-.73.32-.73 1.27l1.43-.16" class="cls-5"/><path d="m57.78 59.03.12 1.08-.72.08c0-.91-.69-.99-.7-.98-.02 0-.69.27-.71 1.13l-.72.08.13-1.12z" class="cls-5"/><path d="M57.14 60.24v-.04c0-.88-.66-.94-.66-.94s-.64.25-.66 1.08v.04l-.81.08.14-1.21 2.68-.27v.04l.12 1.13zm-2.04.13.63-.07c.02-.43.21-.71.36-.87.1-.1.2-.17.28-.21l-1.14.12-.12 1.03Zm1.51-1.18c.07.02.15.06.22.11.17.12.37.36.39.84l.63-.07-.11-1z"/><path d="m57.95 60.11-2.93.31c-.06 0-.11.07-.11.15s.05.13.11.12l2.93-.31c.06 0 .11-.07.11-.15s-.05-.13-.11-.12" class="cls-5"/><path d="m57.95 60.43-2.93.31c-.09 0-.16-.06-.16-.16s.07-.19.16-.2l2.93-.31c.09 0 .16.06.16.16s-.07.19-.16.19Zm-2.93.03s-.07.05-.07.1.03.09.07.08l2.93-.31s.07-.05.07-.1-.03-.09-.07-.09l-2.93.31Z"/><path d="M56.88 60.22c0-.57-.39-.69-.39-.69s-.4.21-.41.78l.8-.08" class="cls-5"/><path d="m56.93 60.26-.89.09v-.04c0-.58.42-.82.45-.82s.15.07.15.07c.13.1.29.29.29.66zm-.81 0 .71-.07c-.02-.44-.29-.58-.35-.61-.05.03-.34.23-.36.68"/><path d="m57.88 58.56-2.81.3c-.06 0-.11.07-.11.13s.05.12.11.11l2.81-.3c.06 0 .11-.07.11-.13s-.05-.12-.11-.11" class="cls-5"/><path d="m57.88 58.85-2.81.3c-.08 0-.15-.06-.15-.15s.07-.17.15-.18l2.81-.3c.08 0 .15.06.15.15s-.07.17-.15.18m-2.8.05s-.06.04-.06.09.03.08.06.07l2.81-.3s.06-.04.06-.09-.03-.08-.06-.07z"/><path d="m57.83 58.81-2.69.28c-.06 0-.1.07-.1.13s.05.12.1.11l2.69-.28c.06 0 .1-.07.1-.13s-.05-.12-.1-.11" class="cls-5"/><path d="m57.83 59.1-2.69.28c-.08 0-.15-.06-.15-.15s.07-.17.15-.18l2.69-.28c.08 0 .15.06.15.15s-.07.17-.15.18m-2.69.04s-.06.04-.06.08.03.08.06.07l2.69-.28s.06-.04.06-.08-.03-.08-.06-.07z"/><path d="m56.96 57.07-.21.02v.15l-.15.02v-.15l-.22.02v.15l-.16.02v-.15l-.22.02v.35c0 .05.04.09.1.08l.76-.08c.05 0 .1-.05.1-.1v-.34Z" class="cls-5"/><path d="m56.86 57.56-.76.08c-.08 0-.14-.04-.14-.12v-.39l.3-.03v.15h.07v-.16l.3-.03v.15h.07v-.16l.27-.03.03.02v.37c0 .07-.07.14-.14.15m-.82-.35v.3s.03.04.05.04l.76-.08s.06-.03.06-.05v-.3l-.13.01v.15l-.24.03v-.15h-.13v.17l-.24.03v-.15z"/><path d="m56.16 57.62-.05 1.12.74-.08-.05-1.11-.65.07" class="cls-5"/><path d="m56.07 58.79.05-1.21.73-.08.05 1.2zm.13-1.13-.04 1.03.65-.07-.05-1.02z"/><g id="cp1-9" data-name="cp1"><path d="m57.07 58.04-.02.6.71-.07-.02-.6z" class="cls-5"/><path d="m57.8 58.61-.8.08.03-.69.75-.08zm-.71-.01.62-.07-.02-.51-.59.06-.02.52Z"/></g><g id="cp1-10" data-name="cp1"><path d="m55.23 58.24-.02.6.71-.07-.02-.6z" class="cls-5"/><path d="m55.97 58.8-.8.08.03-.69.75-.08zm-.71-.01.62-.07-.02-.51-.59.06-.02.52Z"/></g><g id="cp2-9" data-name="cp2"><path d="m57.87 57.52-.21.02v.15l-.15.02v-.15l-.21.02v.15l-.15.02v-.15l-.21.02v.35c0 .05.04.09.09.08l.75-.08s.1-.05.1-.1v-.34Z" class="cls-5"/><path d="m57.77 58.01-.75.08c-.08 0-.14-.04-.14-.12v-.39l.3-.03v.15h.07v-.16l.3-.03v.15h.07v-.16l.26-.03.03.02v.37c0 .07-.06.14-.14.15m-.79-.35v.3s.03.04.05.04l.75-.08s.05-.03.05-.05v-.3l-.12.01v.15l-.24.03v-.15h-.13v.17l-.24.03v-.15h-.13Z"/></g><g id="cp2-10" data-name="cp2"><path d="m56.03 57.72-.21.02v.15l-.15.02v-.15l-.21.02v.15l-.15.02v-.15l-.21.02v.35c0 .05.04.09.09.08l.75-.08s.1-.05.1-.1v-.34Z" class="cls-5"/><path d="m55.94 58.21-.75.08c-.08 0-.14-.04-.14-.12v-.39l.3-.03v.15h.07v-.16l.3-.03v.15h.07v-.16l.26-.03.03.02v.37c0 .07-.06.14-.14.15m-.8-.36v.3s.03.04.05.04l.75-.08s.05-.03.05-.05v-.3l-.12.01v.15l-.24.03v-.15h-.13v.17l-.24.03v-.15h-.13Z"/></g><path d="M56.55 57.93c0-.11-.15-.09-.15.02v.27l.15-.02z"/><path id="cp3-9" d="M57.48 58.22c0-.1-.14-.09-.14.02v.21l.14-.02z" data-name="cp3"/><path id="cp3-10" d="M55.64 58.42c0-.1-.14-.09-.14.02v.21l.14-.02z" data-name="cp3"/></g><g id="castle-6" data-name="castle"><path d="M57.2 68.26c-.02-.95-.7-1.11-.71-1.11 0 0-.73.32-.73 1.27l1.43-.16" class="cls-5"/><path d="m57.78 67.03.12 1.08-.72.08c0-.91-.69-.99-.7-.98-.02 0-.69.27-.71 1.13l-.72.08.13-1.12z" class="cls-5"/><path d="M57.14 68.24v-.04c0-.88-.66-.94-.66-.94s-.64.25-.66 1.08v.04l-.81.08.14-1.21 2.68-.27v.04l.12 1.13zm-2.04.13.63-.07c.02-.43.21-.71.36-.87.1-.1.2-.17.28-.21l-1.14.12-.12 1.03Zm1.51-1.17c.07.02.15.06.22.11.17.12.37.36.39.84l.63-.07-.11-1z"/><path d="m57.95 68.12-2.93.31c-.06 0-.11.07-.11.15s.05.13.11.12l2.93-.31c.06 0 .11-.07.11-.15s-.05-.13-.11-.12" class="cls-5"/><path d="m57.95 68.43-2.93.31c-.09 0-.16-.06-.16-.16s.07-.19.16-.2l2.93-.31c.09 0 .16.06.16.16s-.07.19-.16.19Zm-2.93.04s-.07.05-.07.1.03.09.07.08l2.93-.31s.07-.05.07-.1-.03-.09-.07-.09l-2.93.31Z"/><path d="M56.88 68.23c0-.57-.39-.69-.39-.69s-.4.21-.41.78l.8-.08" class="cls-5"/><path d="m56.93 68.26-.89.09v-.04c0-.58.42-.82.45-.82s.15.07.15.07c.13.1.29.29.29.66zm-.81 0 .71-.07c-.02-.44-.29-.58-.35-.61-.05.03-.34.23-.36.68"/><path d="m57.88 66.57-2.81.3c-.06 0-.11.07-.11.13s.05.12.11.11l2.81-.3c.06 0 .11-.07.11-.13s-.05-.12-.11-.11" class="cls-5"/><path d="m57.88 66.85-2.81.3c-.08 0-.15-.06-.15-.15s.07-.17.15-.18l2.81-.3c.08 0 .15.06.15.15s-.07.17-.15.18m-2.8.06s-.06.04-.06.09.03.08.06.07l2.81-.3s.06-.04.06-.09-.03-.08-.06-.07z"/><path d="m57.83 66.82-2.69.28c-.06 0-.1.07-.1.13s.05.12.1.11l2.69-.28c.06 0 .1-.07.1-.13s-.05-.12-.1-.11" class="cls-5"/><path d="m57.83 67.11-2.69.28c-.08 0-.15-.06-.15-.15s.07-.17.15-.18l2.69-.28c.08 0 .15.06.15.15s-.07.17-.15.18m-2.69.03s-.06.04-.06.08.03.08.06.07l2.69-.28s.06-.04.06-.08-.03-.08-.06-.07z"/><path d="m56.96 65.08-.21.02v.15l-.15.02v-.15l-.22.02v.15l-.16.02v-.15l-.22.02v.35c0 .05.04.09.1.08l.76-.08c.05 0 .1-.05.1-.1v-.34Z" class="cls-5"/><path d="m56.86 65.57-.76.08c-.08 0-.14-.04-.14-.12v-.39l.3-.03v.15h.07v-.16l.3-.03v.15h.07v-.16l.27-.03.03.02v.37c0 .07-.07.14-.14.15m-.82-.35v.3s.03.04.05.04l.76-.08s.06-.03.06-.05v-.3l-.13.01v.15l-.24.03v-.15h-.13v.17l-.24.03v-.15z"/><path d="m56.16 65.63-.05 1.12.74-.08-.05-1.11-.65.07" class="cls-5"/><path d="m56.07 66.8.05-1.21.73-.08.05 1.2zm.13-1.13-.04 1.03.65-.07-.05-1.02z"/><g id="cp1-11" data-name="cp1"><path d="m57.07 66.05-.02.6.71-.07-.02-.6z" class="cls-5"/><path d="m57.8 66.62-.8.08.03-.69.75-.08zm-.71-.01.62-.07-.02-.51-.59.06-.02.52Z"/></g><g id="cp1-12" data-name="cp1"><path d="m55.23 66.24-.02.6.71-.07-.02-.6z" class="cls-5"/><path d="m55.97 66.81-.8.08.03-.69.75-.08zm-.71-.01.62-.07-.02-.51-.59.06-.02.52Z"/></g><g id="cp2-11" data-name="cp2"><path d="m57.87 65.53-.21.02v.15l-.15.02v-.15l-.21.02v.15l-.15.02v-.15l-.21.02v.35c0 .05.04.09.09.08l.75-.08s.1-.05.1-.1v-.34Z" class="cls-5"/><path d="m57.77 66.02-.75.08c-.08 0-.14-.04-.14-.12v-.39l.3-.03v.15h.07v-.16l.3-.03v.15h.07v-.16l.26-.03.03.02v.37c0 .07-.06.14-.14.15m-.79-.36v.3s.03.04.05.04l.75-.08s.05-.03.05-.05v-.3l-.12.01v.15l-.24.03v-.15h-.13v.17l-.24.03v-.15h-.13Z"/></g><g id="cp2-12" data-name="cp2"><path d="m56.03 65.72-.21.02v.15l-.15.02v-.15l-.21.02v.15l-.15.02v-.15l-.21.02v.35c0 .05.04.09.09.08l.75-.08s.1-.05.1-.1v-.34Z" class="cls-5"/><path d="m55.94 66.21-.75.08c-.08 0-.14-.04-.14-.12v-.39l.3-.03v.15h.07v-.16l.3-.03v.15h.07v-.16l.26-.03.03.02v.37c0 .07-.06.14-.14.15m-.8-.35v.3s.03.04.05.04l.75-.08s.05-.03.05-.05v-.3l-.12.01v.15l-.24.03v-.15h-.13v.17l-.24.03v-.15h-.13Z"/></g><path d="M56.55 65.94c0-.11-.15-.09-.15.02v.27l.15-.02z"/><path id="cp3-11" d="M57.48 66.23c0-.1-.14-.09-.14.02v.21l.14-.02z" data-name="cp3"/><path id="cp3-12" d="M55.64 66.42c0-.1-.14-.09-.14.02v.21l.14-.02z" data-name="cp3"/></g><g id="castle-7" data-name="castle"><path d="M54.07 76.92c.66-.76.34-1.36.34-1.37 0 0-.69-.28-1.36.47z" class="cls-5"/><path d="m55.31 76.39-.7.93-.51-.45c.64-.71.27-1.26.25-1.27-.01-.01-.63-.28-1.25.37l-.51-.46.88-.78 1.82 1.66Z" class="cls-5"/><path d="m54.62 77.38-.57-.51.03-.03c.62-.69.26-1.2.25-1.21s-.59-.27-1.19.37l-.03.03-.57-.51.94-.84 1.88 1.7-.02.03-.73.97Zm-.45-.53.44.4.64-.86-.79-.72c.03.06.05.15.06.25.02.22-.02.55-.35.93m-1.49-1.34.44.4c.32-.32.64-.41.85-.42.13 0 .24.01.32.03l-.8-.73z"/><path d="m54.65 77.35-2.06-1.86s-.12-.02-.18.03-.06.14-.02.18l2.06 1.86s.12.02.17-.03.06-.14.02-.18Z" class="cls-5"/><path d="M54.53 77.62s-.08 0-.1-.03l-2.06-1.86c-.06-.05-.05-.16.02-.24.03-.04.07-.06.12-.07.05 0 .09 0 .12.03l2.06 1.86c.06.05.05.16-.02.24-.04.04-.09.07-.13.07Zm-2.02-2.11c-.02 0-.05.02-.06.04-.04.04-.04.09-.02.12l2.06 1.86s.08.01.11-.03c.04-.04.04-.09.02-.12l-2.06-1.86s-.03-.01-.04-.01Z"/><path d="M53.9 76.67c.4-.45.25-.82.24-.82 0 0-.4-.13-.81.31l.56.51" class="cls-5"/><path d="m53.9 76.73-.63-.56.03-.03c.42-.45.84-.33.86-.33h.01s.04.12.05.2c0 .16-.04.41-.29.69zm-.5-.58.5.45c.3-.36.23-.65.21-.72-.08-.02-.39-.06-.71.27"/><path d="m55.71 76.1-1.98-1.78s-.11-.03-.16.03-.05.13-.01.16l1.98 1.78s.11.03.16-.03.05-.13.01-.16" class="cls-5"/><path d="M55.61 76.35s-.08 0-.1-.03l-1.98-1.78c-.06-.05-.05-.15.01-.22.03-.04.08-.06.12-.06s.08 0 .1.03l1.98 1.78c.06.05.05.15-.01.22-.03.04-.08.06-.12.06m-1.95-2.02s-.04.01-.06.03c-.03.03-.04.08-.01.1l1.98 1.78s.07.01.1-.02.03-.08.01-.1l-1.98-1.78s-.03-.01-.04-.01"/><path d="m55.49 76.25-1.89-1.71s-.11-.02-.16.03-.05.12-.01.16l1.89 1.71s.11.02.16-.03.05-.12.01-.16" class="cls-5"/><path d="M55.39 76.5s-.07 0-.1-.03l-1.89-1.71s-.04-.06-.04-.09c0-.04.02-.09.05-.13.03-.03.07-.06.11-.06s.08 0 .11.03l1.89 1.71c.06.05.05.15-.01.22-.03.04-.08.06-.12.06m-1.86-1.93c-.02 0-.04.02-.06.03q-.03.03-.03.06c0 .01 0 .02.01.04l1.89 1.71s.07 0 .1-.02c.03-.03.04-.08.01-.1l-1.89-1.71s-.03-.01-.04 0Z"/><path d="m56.18 74.27-.15-.13-.11.12-.11-.1.11-.12-.15-.14-.11.12-.11-.1.11-.12-.15-.14-.25.27s-.03.1 0 .13l.54.48s.1.03.13 0l.24-.27Z" class="cls-5"/><path d="M55.88 74.61s-.07 0-.1-.03l-.54-.48s-.04-.06-.04-.1c0-.03.01-.07.04-.1l.28-.3.21.19-.11.12.05.04.11-.12.21.19-.11.12.05.04.11-.12.19.17v.03l-.25.29c-.02.03-.06.04-.09.05Zm-.37-.89-.22.24s-.01.02-.01.03 0 .03.02.04l.54.48s.06.02.07 0l.21-.23-.09-.08-.11.12-.17-.15.11-.12-.09-.08-.11.12-.17-.15.11-.12-.09-.08Z"/><path d="m55.29 74.13-.82.84.53.47.76-.9-.46-.41" class="cls-5"/><path d="m54.99 75.5-.59-.53.89-.9.52.46zm-.46-.54.46.41.7-.83-.4-.36-.76.77Z"/><g id="cp1-13" data-name="cp1"><path d="m55.56 75.11-.44.45.5.45.41-.48-.47-.43Z" class="cls-5"/><path d="m55.62 76.08-.57-.51.48-.49.03.03.03-.03.03.03.47.42zm-.44-.52.44.4.35-.41-.41-.37-.38.39Z"/></g><g id="cp1-14" data-name="cp1"><path d="m54.27 73.94-.44.45.5.45.41-.48-.47-.43Z" class="cls-5"/><path d="m54.33 74.91-.57-.51.51-.52.53.48zm-.44-.52.44.4.35-.41-.41-.37-.38.39Z"/></g><g id="cp2-13" data-name="cp2"><path d="m56.44 75.28-.15-.13-.11.12-.11-.1.11-.12-.15-.13-.11.12-.11-.1.11-.12-.15-.13-.25.27s-.03.1 0 .13l.53.47s.1.03.13 0l.24-.27Z" class="cls-5"/><path d="M56.13 75.62s-.07 0-.1-.03l-.53-.47a.13.13 0 0 1 0-.19l.28-.3.21.19-.11.12.05.04.11-.12.21.19-.11.12.05.04.11-.12.19.17v.04l-.26.28s-.06.04-.09.05Zm-.35-.88-.22.24s-.01.05 0 .07l.53.47s.05.02.07 0l.21-.23-.09-.08-.11.12-.17-.15.11-.12-.09-.08-.11.12-.17-.15.11-.12-.09-.08Z"/></g><g id="cp2-14" data-name="cp2"><path d="m55.14 74.11-.15-.13-.11.12-.11-.1.11-.12-.15-.13-.11.12-.11-.1.11-.12-.15-.13-.25.27s-.03.1 0 .13l.53.47s.1.03.13 0l.24-.27Z" class="cls-5"/><path d="M54.84 74.45s-.07 0-.1-.03l-.53-.47a.13.13 0 0 1 0-.19l.28-.3.21.19-.11.12.05.04.11-.12.21.19-.11.12.05.04.11-.12.19.17v.04l-.26.28c-.02.03-.06.04-.09.05Zm-.35-.87-.22.24s-.01.05 0 .07l.53.47s.05.02.07 0l.21-.23-.09-.08-.11.12-.17-.15.11-.12-.09-.08-.11.12-.17-.15.11-.12-.09-.08Z"/></g><path d="M55.32 74.65c.08-.08-.03-.18-.11-.1l-.19.21.11.1z"/><path id="cp3-13" d="M55.69 75.54c.07-.08-.03-.18-.1-.09l-.15.16.1.09z" data-name="cp3"/><path id="cp3-14" d="M54.4 74.37c.07-.08-.03-.18-.1-.09l-.15.16.1.09z" data-name="cp3"/></g></g><g id="quina"><path d="M47.35 69.58c0 .38.15.72.38.94.24.23.56.35.92.31s.68-.23.92-.51c.23-.28.38-.64.38-1.02v-1.86l-2.59.27v1.86" class="cls-3"/><ellipse cx="47.94" cy="68.37" class="cls-6" rx=".27" ry=".24" transform="rotate(-46.5 47.952 68.37)"/><ellipse cx="49.38" cy="68.22" class="cls-6" rx=".27" ry=".24" transform="rotate(-46.5 49.395 68.218)"/><ellipse cx="48.66" cy="68.98" class="cls-6" rx=".27" ry=".24" transform="rotate(-46.5 48.668 68.981)"/><ellipse cx="47.94" cy="69.78" class="cls-6" rx=".27" ry=".24" transform="rotate(-46.5 47.949 69.789)"/><ellipse cx="49.38" cy="69.63" class="cls-6" rx=".27" ry=".24" transform="rotate(-46.5 49.38 69.632)"/></g><g id="quina-2" data-name="quina"><path d="M47.35 65.09c0 .38.15.72.38.94.24.23.56.35.92.31s.68-.23.92-.51c.23-.28.38-.64.38-1.02v-1.86l-2.59.27v1.86" class="cls-3"/><ellipse cx="47.94" cy="63.87" class="cls-6" rx=".27" ry=".24" transform="rotate(-46.5 47.952 63.876)"/><ellipse cx="49.38" cy="63.72" class="cls-6" rx=".27" ry=".24" transform="rotate(-46.5 49.384 63.72)"/><ellipse cx="48.66" cy="64.49" class="cls-6" rx=".27" ry=".24" transform="rotate(-46.5 48.668 64.487)"/><ellipse cx="47.94" cy="65.28" class="cls-6" rx=".27" ry=".24" transform="rotate(-46.5 47.954 65.283)"/><ellipse cx="49.38" cy="65.13" class="cls-6" rx=".27" ry=".24" transform="rotate(-46.5 49.381 65.138)"/></g><g id="quina-3" data-name="quina"><path d="M43.76 69.96c0 .38.15.72.38.94.24.23.56.35.92.31s.68-.23.92-.51c.23-.28.38-.64.38-1.02v-1.86l-2.59.27v1.86" class="cls-3"/><ellipse cx="44.35" cy="68.74" class="cls-6" rx=".27" ry=".24" transform="rotate(-46.5 44.354 68.754)"/><ellipse cx="45.79" cy="68.59" class="cls-6" rx=".27" ry=".24" transform="rotate(-46.5 45.797 68.603)"/><ellipse cx="45.07" cy="69.36" class="cls-6" rx=".27" ry=".24" transform="rotate(-46.5 45.07 69.365)"/><ellipse cx="44.35" cy="70.16" class="cls-6" rx=".27" ry=".24" transform="rotate(-46.5 44.356 70.161)"/><ellipse cx="45.79" cy="70.01" class="cls-6" rx=".27" ry=".24" transform="rotate(-46.5 45.788 70.005)"/></g><g id="quina-4" data-name="quina"><path d="M50.94 69.21c0 .38.15.72.38.94.24.23.56.35.92.31s.68-.23.92-.51c.23-.28.38-.64.38-1.02v-1.86l-2.59.27v1.86" class="cls-3"/><ellipse cx="51.53" cy="67.99" class="cls-6" rx=".27" ry=".24" transform="rotate(-46.5 51.533 67.992)"/><ellipse cx="52.97" cy="67.84" class="cls-6" rx=".27" ry=".24" transform="rotate(-46.5 52.976 67.84)"/><ellipse cx="52.25" cy="68.61" class="cls-6" rx=".27" ry=".24" transform="rotate(-46.5 52.26 68.608)"/><ellipse cx="51.53" cy="69.4" class="cls-6" rx=".27" ry=".24" transform="rotate(-46.5 51.53 69.411)"/><ellipse cx="52.97" cy="69.25" class="cls-6" rx=".27" ry=".24" transform="rotate(-46.5 52.974 69.26)"/></g><g id="quina-5" data-name="quina"><path d="M47.35 74.04c0 .38.15.72.38.94.24.23.56.35.92.31s.68-.23.92-.51c.23-.28.38-.64.38-1.02V71.9l-2.59.27v1.86" class="cls-3"/><ellipse cx="47.94" cy="72.82" class="cls-6" rx=".27" ry=".24" transform="rotate(-46.5 47.954 72.824)"/><ellipse cx="49.38" cy="72.67" class="cls-6" rx=".27" ry=".24" transform="rotate(-46.5 49.393 72.684)"/><ellipse cx="48.66" cy="73.44" class="cls-6" rx=".27" ry=".24" transform="rotate(-46.5 48.665 73.447)"/><ellipse cx="47.94" cy="74.24" class="cls-6" rx=".27" ry=".24" transform="rotate(-46.5 47.951 74.243)"/><ellipse cx="49.38" cy="74.08" class="cls-6" rx=".27" ry=".24" transform="rotate(-46.5 49.383 74.086)"/></g></g><g id="White_Logo_RGB" data-name="White Logo RGB"><path id="WHITE_ESC_HEART" d="M56.13 129.5c1.03 1.13 2.54.85 3.24-.61C75.9 94 126.12 78.23 126.12 33.78c0-16.16-10.88-32.38-31.78-32.75-19.9-.36-37.77 12.46-39.63 33.22-.56-13.14-9.18-19.2-19.12-19.2C16.03 15.03.01 32.69.82 59.25c1.34 41.78 41.51 54.94 55.31 70.25m-3.56-85.25c.53 2.09 3.07 2.01 3.65-.05 8.61-31.2 48.19-34.61 48.19-3.02 0 24.94-44.21 51.56-47.58 75.24-8-15.53-37.39-24.07-37.39-57.83 0-28.74 27.94-34.77 33.12-14.34Z" class="cls-6"/></g></svg>