<svg xmlns="http://www.w3.org/2000/svg" viewBox="0 0 127.18 131.2"><defs><clipPath id="a"><path d="m58.75 129.22 1.12-7.86c1.57-11.04 12.97-23.65 23.99-35.85 13.24-14.65 26.93-29.8 26.93-45.05 0-13.27-7.29-26.67-23.56-26.67-9.99 0-22.21 5.84-29.51 18.43l-.6 1.07a45 45 0 0 0-2.88 6.56c-2.97-7.5-9.13-12.04-16.65-12.04-11.5 0-23.73 10.96-23.73 31.26 0 25.39 14.84 38.3 26.76 48.67 5.88 5.11 10.96 9.53 13.56 14.58l4.05 7.87.53-.97Z" style="fill:none"/></clipPath></defs><g style="clip-path:url(#a)"><path d="M2.56 4.22h39.97v132.81H2.56z" style="fill:#002b7f"/><path d="M65.4 4.22h46.45v132.81H65.4z" style="fill:#ce1026"/><path d="M39.84-1.8h29.93v123.58H39.84z" style="fill:#fde000"/></g><path d="M56.13 129.5c1.03 1.13 2.54.85 3.24-.61C75.9 94 126.12 78.23 126.12 33.78c0-16.16-10.88-32.38-31.78-32.75-19.9-.36-37.77 12.46-39.63 33.22-.56-13.14-9.18-19.2-19.12-19.2C16.03 15.03.01 32.69.82 59.25c1.34 41.78 41.51 54.94 55.31 70.25m-3.56-85.25c.53 2.09 3.07 2.01 3.65-.05 8.61-31.2 48.19-34.61 48.19-3.02 0 24.94-44.21 51.56-47.58 75.24-8-15.53-37.39-24.07-37.39-57.83 0-28.74 27.94-34.77 33.12-14.34Z" data-name="White Logo RGB" style="fill:#fff"/></svg>