<svg xmlns="http://www.w3.org/2000/svg" viewBox="0 0 127.18 131.2"><defs><clipPath id="clippath"><path d="m58.76 125.24 1.07-7.52c1.5-10.56 12.4-22.62 22.94-34.29 12.66-14.01 25.76-28.5 25.76-43.09 0-12.7-6.97-25.51-22.54-25.51-9.56 0-21.24 5.58-28.22 17.63l-.57 1.02a43 43 0 0 0-2.76 6.27c-2.84-7.18-8.73-11.51-15.93-11.51-11 0-22.69 10.48-22.69 29.9 0 24.29 14.19 36.63 25.6 46.54 5.62 4.89 10.48 9.11 12.97 13.94l3.88 7.53.5-.93Z" style="fill:none"/></clipPath><style>.cls-2,.cls-3,.cls-4,.cls-6{fill:none}.cls-10,.cls-11,.cls-7,.cls-8,.cls-9{fill-rule:evenodd}.cls-12,.cls-7{fill:#fff}.cls-2,.cls-3,.cls-4,.cls-6{stroke:#1e201c;stroke-width:.05px}.cls-2,.cls-4{stroke-linejoin:round}.cls-2,.cls-6{stroke-linecap:round}.cls-11,.cls-14{fill:#0f386b}.cls-15,.cls-8{fill:#be2f35}.cls-16,.cls-9{fill:#1e201c}.cls-10,.cls-17{fill:#e9af29}</style></defs><g id="SERBIA"><g id="Elements" style="clip-path:url(#clippath)"><g id="Flag"><g id="Stripes"><path d="m-5.03 41.01 128.04-13.4v98.47L-5.03 139.49z" style="fill:#f6f6ff"/><path d="m-5.03 41.01 128.04-13.4v47.36L-5.03 88.37z" style="fill:#0c4077"/><path d="m-5.03 9.85 128.04-13.4V47.5L-5.03 60.9z" style="fill:#c7303d"/></g><g id="Crest"><path d="M38.98 43.38c.62-.06 1.13.39 1.13 1.01s-.51 1.18-1.13 1.25c-.62.06-1.13-.39-1.13-1.01s.51-1.18 1.13-1.25" class="cls-11"/><path d="M38.98 43.38c.62-.06 1.13.39 1.13 1.01s-.51 1.18-1.13 1.25c-.62.06-1.13-.39-1.13-1.01s.51-1.18 1.13-1.25Z" class="cls-3"/><path d="M39.18 42.03c.11-.01.2-.11.2-.22s-.09-.19-.2-.18c0-.11-.09-.19-.2-.18s-.2.11-.2.22c-.11.01-.2.11-.2.22s.09.19.2.18v.43l-.36.04c0-.11-.09-.19-.2-.18s-.2.11-.2.22c-.11.01-.2.11-.2.22s.09.19.2.18c0 .11.09.19.2.18s.2-.11.2-.22l.36-.04v1.43l.4-.04v-1.43l.36-.04c0 .11.09.19.2.18s.2-.11.2-.22c.11-.01.2-.11.2-.22s-.09-.19-.2-.18c0-.11-.09-.19-.2-.18s-.2.11-.2.22l-.36.04z" class="cls-17"/><path d="M39.18 42.03c.11-.01.2-.11.2-.22s-.09-.19-.2-.18c0-.11-.09-.19-.2-.18s-.2.11-.2.22c-.11.01-.2.11-.2.22s.09.19.2.18v.43l-.36.04c0-.11-.09-.19-.2-.18s-.2.11-.2.22c-.11.01-.2.11-.2.22s.09.19.2.18c0 .11.09.19.2.18s.2-.11.2-.22l.36-.04v1.43l.4-.04v-1.43l.36-.04c0 .11.09.19.2.18s.2-.11.2-.22c.11-.01.2-.11.2-.22s-.09-.19-.2-.18c0-.11-.09-.19-.2-.18s-.2.11-.2.22l-.36.04z" class="cls-4"/><path d="M39.18 43.37c-.13 0-.27 0-.4.04v1.13l.4-.04z" class="cls-17"/><path d="M39.18 43.37c-.13 0-.27 0-.4.04v1.13l.4-.04z" class="cls-4"/><path d="M40.09 44.19c.02.13.02.26 0 .4-.74.04-1.49.12-2.23.23a1.3 1.3 0 0 1 0-.4c.74-.11 1.49-.19 2.23-.23" class="cls-17"/><path d="M40.09 44.19c.02.13.02.26 0 .4-.74.04-1.49.12-2.23.23a1.3 1.3 0 0 1 0-.4c.74-.11 1.49-.19 2.23-.23Z" class="cls-4"/><path d="M45.68 53.22c.27-.56.51-.98.73-1.27-.75.65-1.15.56-1.19-.27-.71 1.05-1.3 1.02-1.79-.08-.84 1.28-1.53 1.31-2.06.08-.88 1.2-1.68 1.24-2.39.12-.71 1.27-1.5 1.39-2.39.38-.53 1.34-1.22 1.45-2.06.35-.49 1.2-1.08 1.35-1.79.45-.04.84-.44 1.02-1.19.52.22.24.46.61.73 1.12l13.39-1.4Z" class="cls-17"/><path d="M45.68 53.22c.27-.56.51-.98.73-1.27-.75.65-1.15.56-1.19-.27-.71 1.05-1.3 1.02-1.79-.08-.84 1.28-1.53 1.31-2.06.08-.88 1.2-1.68 1.24-2.39.12-.71 1.27-1.5 1.39-2.39.38-.53 1.34-1.22 1.45-2.06.35-.49 1.2-1.08 1.35-1.79.45-.04.84-.44 1.02-1.19.52.22.24.46.61.73 1.12l13.39-1.4Z" class="cls-4"/><path d="m32.28 54.67.4 2.01 12.6-1.31.4-2.1-6.7.37z" class="cls-17"/><path d="m32.28 54.67.4 2.01 12.6-1.31.4-2.1-6.7.37z" class="cls-4"/><path d="M46.34 51.28c-.46 1.24-.86 1.28-.93.23.07-.07.05-.26.17-.19.06.03.15-.1.09-.14-.12-.09-.27-.07-.4.08-.03-.2-.17-.25-.33-.16-.07.03-.07.17 0 .16.13-.03.1.1.13.16-.88 1.2-1.26 1.08-1.13-.35l-.66-.06c-.75 1.58-1.33 1.71-1.72.38.07-.07.07-.23.2-.19.07.02.13-.11.05-.16-.16-.12-.32-.03-.45.11-.07-.19-.26-.22-.44-.09-.08.06-.03.2.05.17.16-.06.09.15.19.21-.33 1.36-2.06 1.61-1.76-.35l-.86.09c.3 1.89-1.43 2.01-1.76.71.1-.08.03-.27.19-.24.08.01.13-.13.05-.18-.18-.1-.37-.03-.44.18-.13-.12-.29-.17-.45-.02-.08.07-.01.19.05.15.13-.07.13.09.2.15-.4 1.41-.97 1.41-1.72-.02l-.66.2c.13 1.4-.24 1.59-1.13.58.03-.07 0-.19.13-.19.07 0 .07-.14 0-.16-.17-.05-.3.03-.33.23-.13-.12-.28-.12-.4 0-.06.06.03.17.09.12.12-.09.11.09.17.15-.07 1.07-.46 1.11-.93-.04l-.27.09c0 .27.1.59.27.77.66.73 1.19.54 1.23-.46.9.97 1.62.76 1.76-.38.73 1.38 1.99.52 2.02-.34.36 1.22 2.22 1.03 2.35-.45.13 1.44 1.99 1.25 2.35-.05.03.86 1.29 1.46 2.02-.08.13 1.11.86 1.17 1.76.01.03.99.56 1.07 1.23.2.17-.22.27-.56.27-.82l-.27-.04Z" class="cls-17"/><path d="M46.34 51.28c-.46 1.24-.86 1.28-.93.23.07-.07.05-.26.17-.19.06.03.15-.1.09-.14-.12-.09-.27-.07-.4.08-.03-.2-.17-.25-.33-.16-.07.03-.07.17 0 .16.13-.03.1.1.13.16-.88 1.2-1.26 1.08-1.13-.35l-.66-.06c-.75 1.58-1.33 1.71-1.72.38.07-.07.07-.23.2-.19.07.02.13-.11.05-.16-.16-.12-.32-.03-.45.11-.07-.19-.26-.22-.44-.09-.08.06-.03.2.05.17.16-.06.09.15.19.21-.33 1.36-2.06 1.61-1.76-.35l-.86.09c.3 1.89-1.43 2.01-1.76.71.1-.08.03-.27.19-.24.08.01.13-.13.05-.18-.18-.1-.37-.03-.44.18-.13-.12-.29-.17-.45-.02-.08.07-.01.19.05.15.13-.07.13.09.2.15-.4 1.41-.97 1.41-1.72-.02l-.66.2c.13 1.4-.24 1.59-1.13.58.03-.07 0-.19.13-.19.07 0 .07-.14 0-.16-.17-.05-.3.03-.33.23-.13-.12-.28-.12-.4 0-.06.06.03.17.09.12.12-.09.11.09.17.15-.07 1.07-.46 1.11-.93-.04l-.27.09c0 .27.1.59.27.77.66.73 1.19.54 1.23-.46.9.97 1.62.76 1.76-.38.73 1.38 1.99.52 2.02-.34.36 1.22 2.22 1.03 2.35-.45.13 1.44 1.99 1.25 2.35-.05.03.86 1.29 1.46 2.02-.08.13 1.11.86 1.17 1.76.01.03.99.56 1.07 1.23.2.17-.22.27-.56.27-.82l-.27-.04Z" class="cls-4"/><path d="M32.28 54.86c-.33.07-.33-.26 0-.33 4.46-.91 8.93-1.38 13.39-1.4.33 0 .33.33 0 .33-4.46.02-8.93.49-13.39 1.4" class="cls-17"/><path d="M32.28 54.86c-.33.07-.33-.26 0-.33 4.46-.91 8.93-1.38 13.39-1.4.33 0 .33.33 0 .33-4.46.02-8.93.49-13.39 1.4Z" class="cls-4"/><path d="m38.32 49.72-.46-.55q.195-1.95 0-3.51c-.09-.3 0-.4.27-.29.57.23 1.15.17 1.72-.18.27-.16.35-.08.27.24-.13 1.07-.13 2.25 0 3.51l-.46.65-1.33.14Z" class="cls-17"/><path d="m38.32 49.72-.46-.55q.195-1.95 0-3.51c-.09-.3 0-.4.27-.29.57.23 1.15.17 1.72-.18.27-.16.35-.08.27.24-.13 1.07-.13 2.25 0 3.51l-.46.65-1.33.14Z" class="cls-4"/><path d="m40.51 54.56-1.53.92-1.52-.6 1.52-.92z" class="cls-17"/><path d="m40.51 54.56-1.53.92-1.52-.6 1.52-.92z" class="cls-6"/><path d="m45.59 46.27 1.83.67.2.77-.72 1.21.06.92.59-.06.99-2.76-1.25-.93-2.88-.69z" class="cls-17"/><path d="m45.59 46.27 1.83.67.2.77-.72 1.21.06.92.59-.06.99-2.76-1.25-.93-2.88-.69 1.18.87" class="cls-4"/><path d="M47.02 49.74c.04-.11.06-.22.08-.32.04-.18.02-.37-.04-.54.19-.3.41-.63.57-.94.11-.23.2-.48.13-.71-.07-.25-.29-.41-.5-.55-.24-.16-.56-.3-.89-.4-.73-.23-1.31-.32-1.74-.29l.27.23c.79.18 1.73.42 2.18.73.58.39.57.5-.28 1.8-.03.04-.09.14-.07.18.04.08.12.47 0 .76.07.13.18.05.28.05Z" class="cls-17"/><path d="M47.02 49.74c.04-.11.06-.22.08-.32.04-.18.02-.37-.04-.54.19-.3.41-.63.57-.94.11-.23.2-.48.13-.71-.07-.25-.29-.41-.5-.55-.24-.16-.56-.3-.89-.4-.73-.23-1.31-.32-1.74-.29l.27.23c.79.18 1.73.42 2.18.73.58.39.57.5-.28 1.8-.03.04-.09.14-.07.18.04.08.12.47 0 .76.07.13.18.05.28.05Z" class="cls-4"/><path d="M41.49 49.56c-.23 0-.17.41-.13.49.06.11.11.11.19 0 .06-.09.17-.5-.06-.49" class="cls-17"/><path d="M41.49 49.56c-.23 0-.17.41-.13.49.06.11.11.11.19 0 .06-.09.17-.5-.06-.49Z" class="cls-4"/><path d="M45.77 49.69c-.22-.05-.26.37-.24.46.03.13.08.14.18.04.07-.08.27-.45.06-.5" class="cls-17"/><path d="M45.77 49.69c-.22-.05-.26.37-.24.46.03.13.08.14.18.04.07-.08.27-.45.06-.5Z" class="cls-4"/><path d="M44.75 45c.23-.02.42.15.42.38s-.19.44-.42.47c-.23.02-.42-.15-.42-.38s.19-.44.42-.47" class="cls-7"/><path d="M44.75 45c.23-.02.42.15.42.38s-.19.44-.42.47c-.23.02-.42-.15-.42-.38s.19-.44.42-.47Z" class="cls-4"/><path d="M45.54 45.19c.23-.02.42.15.42.38s-.19.44-.42.47c-.23.02-.42-.15-.42-.38s.19-.44.42-.47" class="cls-7"/><path d="M45.54 45.19c.23-.02.42.15.42.38s-.19.44-.42.47c-.23.02-.42-.15-.42-.38s.19-.44.42-.47Z" class="cls-4"/><path d="M46.34 45.37c.23-.02.42.15.42.38s-.19.44-.42.47c-.23.02-.42-.15-.42-.38s.19-.44.42-.47" class="cls-7"/><path d="M46.34 45.37c.23-.02.42.15.42.38s-.19.44-.42.47c-.23.02-.42-.15-.42-.38s.19-.44.42-.47Z" class="cls-4"/><path d="M47.14 45.65c.23-.02.42.15.42.38s-.19.44-.42.47c-.23.02-.42-.15-.42-.38s.19-.44.42-.47" class="cls-7"/><path d="M47.14 45.65c.23-.02.42.15.42.38s-.19.44-.42.47c-.23.02-.42-.15-.42-.38s.19-.44.42-.47Z" class="cls-4"/><path d="M47.87 46c.23-.02.42.15.42.38s-.19.44-.42.47c-.23.02-.42-.15-.42-.38s.19-.44.42-.47" class="cls-7"/><path d="M47.87 46c.23-.02.42.15.42.38s-.19.44-.42.47c-.23.02-.42-.15-.42-.38s.19-.44.42-.47Z" class="cls-4"/><path d="M47.53 49.02c.23-.02.42.15.42.38s-.19.44-.42.47c-.23.02-.42-.15-.42-.38s.19-.44.42-.47" class="cls-7"/><path d="M47.53 49.02c.23-.02.42.15.42.38s-.19.44-.42.47c-.23.02-.42-.15-.42-.38s.19-.44.42-.47Z" class="cls-4"/><path d="M47.93 48.25c.23-.02.42.15.42.38s-.19.44-.42.47c-.23.02-.42-.15-.42-.38s.19-.44.42-.47" class="cls-7"/><path d="M47.93 48.25c.23-.02.42.15.42.38s-.19.44-.42.47c-.23.02-.42-.15-.42-.38s.19-.44.42-.47Z" class="cls-4"/><path d="M48.26 47.49c.23-.02.42.15.42.38s-.19.44-.42.47c-.23.02-.42-.15-.42-.38s.19-.44.42-.47" class="cls-7"/><path d="M48.26 47.49c.23-.02.42.15.42.38s-.19.44-.42.47c-.23.02-.42-.15-.42-.38s.19-.44.42-.47Z" class="cls-4"/><path d="M48.4 46.61c.23-.02.42.15.42.38s-.19.44-.42.47c-.23.02-.42-.15-.42-.38s.19-.44.42-.47" class="cls-7"/><path d="M48.4 46.61c.23-.02.42.15.42.38s-.19.44-.42.47c-.23.02-.42-.15-.42-.38s.19-.44.42-.47Z" class="cls-4"/><path d="M40.57 54.87c.12-.01.21.07.21.19s-.1.22-.21.23c-.12.01-.21-.07-.21-.19s.1-.22.21-.23" class="cls-7"/><path d="M40.57 54.87c.12-.01.21.07.21.19s-.1.22-.21.23c-.12.01-.21-.07-.21-.19s.1-.22.21-.23Z" class="cls-4"/><path d="M43.82 54.73c.12-.01.21.07.21.19s-.1.22-.21.23c-.12.01-.21-.07-.21-.19s.1-.22.21-.23" class="cls-7"/><path d="M43.82 54.73c.12-.01.21.07.21.19s-.1.22-.21.23c-.12.01-.21-.07-.21-.19s.1-.22.21-.23Z" class="cls-4"/><path d="M43.95 53.72c.12-.01.21.07.21.19s-.1.22-.21.23c-.12.01-.21-.07-.21-.19s.1-.22.21-.23" class="cls-7"/><path d="M43.95 53.72c.12-.01.21.07.21.19s-.1.22-.21.23c-.12.01-.21-.07-.21-.19s.1-.22.21-.23Z" class="cls-4"/><path d="M40.64 53.87c.12-.01.21.07.21.19s-.1.22-.21.23c-.12.01-.21-.07-.21-.19s.1-.22.21-.23" class="cls-7"/><path d="M40.64 53.87c.12-.01.21.07.21.19s-.1.22-.21.23c-.12.01-.21-.07-.21-.19s.1-.22.21-.23Z" class="cls-4"/><path d="M41.62 50.93c.13-.21.38-1.17-.15-1.14-.53.02-.4.97-.3 1.16.13.25.27.26.44-.01Z" class="cls-12"/><path d="M41.62 50.93c.13-.21.38-1.17-.15-1.14-.53.02-.4.97-.3 1.16.13.25.27.26.44-.01Z" class="cls-4"/><path d="M45.15 50.99c.07.29.18.32.42.08.18-.18.64-1.06.13-1.17s-.6.85-.55 1.09" class="cls-12"/><path d="M45.15 50.99c.07.29.18.32.42.08.18-.18.64-1.06.13-1.17s-.6.85-.55 1.09Z" class="cls-4"/><path d="m40.04 45.59 2.32-.18 1.46.32.4.88-1.06 2.17.46 1.28 1.39-1.34.67-2.53-1.79-1.33-3.78.13z" class="cls-17"/><path d="m40.04 45.59 2.32-.18 1.46.32.4.88-1.06 2.17.46 1.28 1.39-1.34.67-2.53-1.79-1.33-3.78.13z" class="cls-4"/><path d="M40.16 45.43c1.14-.22 2.31-.23 3.47.11.97.29.88 1.44-.31 3.14q.165.285.18.72c-.13 0-.21.02-.32.03.09-.2-.01-.43-.12-.58-.07-.1-.09-.08 0-.21.71-1.07 1.18-1.99.9-2.48-.34-.6-1.63-.8-3.83-.52 0-.06 0-.12.01-.18 0 0 .01-.02.02-.03" class="cls-17"/><path d="M40.16 45.43c1.14-.22 2.31-.23 3.47.11.97.29.88 1.44-.31 3.14q.165.285.18.72c-.13 0-.21.02-.32.03.09-.2-.01-.43-.12-.58-.07-.1-.09-.08 0-.21.71-1.07 1.18-1.99.9-2.48-.34-.6-1.63-.8-3.83-.52 0-.06 0-.12.01-.18 0 0 .01-.02.02-.03Z" class="cls-4"/><path d="m44.8 45.36-.12.18c.64.29.91.64.85 1.02-.01.07-.21.78-.64 2.16-.3.24-.52.45-.67.63.02.02-.05.08-.03.1-.04.21.18.14.34.08.07-.2.3-.44.43-.54.03-.02.12-.08.13-.11.23-.78.47-1.5.67-2.17s-.24-1.09-.95-1.34Z" class="cls-17"/><path d="m44.8 45.36-.12.18c.64.29.91.64.85 1.02-.01.07-.21.78-.64 2.16-.3.24-.52.45-.67.63.02.02-.05.08-.03.1-.04.21.18.14.34.08.07-.2.3-.44.43-.54.03-.02.12-.08.13-.11.23-.78.47-1.5.67-2.17s-.24-1.09-.95-1.34Z" class="cls-4"/><path d="M40.44 44.46c.23-.02.42.15.42.38s-.19.44-.42.47c-.23.02-.42-.15-.42-.38s.19-.44.42-.47" class="cls-7"/><path d="M40.44 44.46c.23-.02.42.15.42.38s-.19.44-.42.47c-.23.02-.42-.15-.42-.38s.19-.44.42-.47Z" class="cls-4"/><path d="M41.27 44.38c.23-.02.42.15.42.38s-.19.44-.42.47c-.23.02-.42-.15-.42-.38s.19-.44.42-.47" class="cls-7"/><path d="M41.27 44.38c.23-.02.42.15.42.38s-.19.44-.42.47c-.23.02-.42-.15-.42-.38s.19-.44.42-.47Z" class="cls-4"/><path d="M42.1 44.39c.23-.02.42.15.42.38s-.19.44-.42.47c-.23.02-.42-.15-.42-.38s.19-.44.42-.47" class="cls-7"/><path d="M42.1 44.39c.23-.02.42.15.42.38s-.19.44-.42.47c-.23.02-.42-.15-.42-.38s.19-.44.42-.47Z" class="cls-4"/><path d="M42.89 44.47c.23-.02.42.15.42.38s-.19.44-.42.47c-.23.02-.42-.15-.42-.38s.19-.44.42-.47" class="cls-7"/><path d="M42.89 44.47c.23-.02.42.15.42.38s-.19.44-.42.47c-.23.02-.42-.15-.42-.38s.19-.44.42-.47Z" class="cls-4"/><path d="M43.69 44.65c.23-.02.42.15.42.38s-.19.44-.42.47c-.23.02-.42-.15-.42-.38s.19-.44.42-.47" class="cls-7"/><path d="M43.69 44.65c.23-.02.42.15.42.38s-.19.44-.42.47c-.23.02-.42-.15-.42-.38s.19-.44.42-.47Z" class="cls-4"/><path d="M44.42 44.91c.23-.02.42.15.42.38s-.19.44-.42.47c-.23.02-.42-.15-.42-.38s.19-.44.42-.47" class="cls-7"/><path d="M44.42 44.91c.23-.02.42.15.42.38s-.19.44-.42.47c-.23.02-.42-.15-.42-.38s.19-.44.42-.47Z" class="cls-4"/><path d="M44.88 45.39c.23-.02.42.15.42.38s-.19.44-.42.47c-.23.02-.42-.15-.42-.38s.19-.44.42-.47" class="cls-7"/><path d="M44.88 45.39c.23-.02.42.15.42.38s-.19.44-.42.47c-.23.02-.42-.15-.42-.38s.19-.44.42-.47Z" class="cls-4"/><path d="M44.02 48.53c.23-.02.42.15.42.38s-.19.44-.42.47c-.23.02-.42-.15-.42-.38s.19-.44.42-.47" class="cls-7"/><path d="M44.02 48.53c.23-.02.42.15.42.38s-.19.44-.42.47c-.23.02-.42-.15-.42-.38s.19-.44.42-.47Z" class="cls-4"/><path d="M44.35 47.77c.23-.02.42.15.42.38s-.19.44-.42.47c-.23.02-.42-.15-.42-.38s.19-.44.42-.47" class="cls-7"/><path d="M44.35 47.77c.23-.02.42.15.42.38s-.19.44-.42.47c-.23.02-.42-.15-.42-.38s.19-.44.42-.47Z" class="cls-4"/><path d="M44.68 47c.23-.02.42.15.42.38s-.19.44-.42.47c-.23.02-.42-.15-.42-.38s.19-.44.42-.47" class="cls-7"/><path d="M44.68 47c.23-.02.42.15.42.38s-.19.44-.42.47c-.23.02-.42-.15-.42-.38s.19-.44.42-.47Z" class="cls-4"/><path d="M44.95 46.18c.23-.02.42.15.42.38s-.19.44-.42.47c-.23.02-.42-.15-.42-.38s.19-.44.42-.47" class="cls-7"/><path d="M44.95 46.18c.23-.02.42.15.42.38s-.19.44-.42.47c-.23.02-.42-.15-.42-.38s.19-.44.42-.47Z" class="cls-4"/><path d="m47.2 49.95.02.13c.18.02.34.02.47-.02-.22-.2-.38-.23-.5-.11Z" class="cls-17"/><path d="m47.2 49.95.02.13c.18.02.34.02.47-.02-.22-.2-.38-.23-.5-.11Z" class="cls-4"/><path d="M47.27 49.63c-.12.04-.13.06-.18.08-.07.02-.16.02-.22-.03-.25-.13-.26.15-.16.35.07.14.14.33.07.46-.08.16-.06.23 0 .26.04.02.08.04.11.06.07.07.12.05.13-.05.25-.13.24-.4.31-.62.11-.33.52-.44-.06-.51" class="cls-17"/><path d="M47.27 49.63c-.12.04-.13.06-.18.08-.07.02-.16.02-.22-.03-.25-.13-.26.15-.16.35.07.14.14.33.07.46-.08.16-.06.23 0 .26.04.02.08.04.11.06.07.07.12.05.13-.05.25-.13.24-.4.31-.62.11-.33.52-.44-.06-.51Z" class="cls-4"/><path d="M47.14 49.66c-.22.1-.25-.02-.4 0 .06.33.12.5.47.29.19-.12.44 0 .49.1.02.04.13-.06.17-.15.17-.4-.44-.38-.74-.24Z" class="cls-17"/><path d="M47.14 49.66c-.22.1-.25-.02-.4 0 .06.33.12.5.47.29.19-.12.44 0 .49.1.02.04.13-.06.17-.15.17-.4-.44-.38-.74-.24Z" class="cls-4"/><path d="M46.35 51.39c-.16-.03-.41.35-.47.35-.08-.2.08-.7.37-1.12.19-.08.21-.21.25-.51.01-.09.18-.05.18.1 0 .16.02.24-.02.38-.01.05 0 .11.05.15-.3.15-.38.31-.36.64Z" class="cls-17"/><path d="M46.35 51.39c-.16-.03-.41.35-.47.35-.08-.2.08-.7.37-1.12.19-.08.21-.21.25-.51.01-.09.18-.05.18.1 0 .16.02.24-.02.38-.01.05 0 .11.05.15-.3.15-.38.31-.36.64Z" class="cls-4"/><path d="M46.5 50.12c.03.06.04.12.04.22 0 .08-.02.15-.07.22s-.12.13-.2.19c-.05.03-.11.12-.15.21a.8.8 0 0 0-.08.27c0 .24-.05.45-.16.5-.07.03-.1.03-.15.03.02-.04 0-.1.05-.17.05-.08.09-.17.1-.25 0-.06.03-.1 0-.22-.01-.07-.06-.1-.06-.17.02-.14.12-.41.28-.43s.23-.04.31-.26c.03-.07.06-.11.09-.15Z" class="cls-17"/><path d="M46.5 50.12c.03.06.04.12.04.22 0 .08-.02.15-.07.22s-.12.13-.2.19c-.05.03-.11.12-.15.21a.8.8 0 0 0-.08.27c0 .24-.05.45-.16.5-.07.03-.1.03-.15.03.02-.04 0-.1.05-.17.05-.08.09-.17.1-.25 0-.06.03-.1 0-.22-.01-.07-.06-.1-.06-.17.02-.14.12-.41.28-.43s.23-.04.31-.26c.03-.07.06-.11.09-.15Z" class="cls-4"/><path d="M47.08 50.63s-.09-.05-.14-.06a.36.36 0 0 0-.25.02c-.37.15-.54.83-.13.95.08 0 .15-.08.23-.25q.135-.33.27-.48c.06-.08.06-.14.02-.18" class="cls-17"/><path d="M47.08 50.63s-.09-.05-.14-.06a.36.36 0 0 0-.25.02c-.37.15-.54.83-.13.95.08 0 .15-.08.23-.25q.135-.33.27-.48c.06-.08.06-.14.02-.18Z" class="cls-4"/><path d="M46.9 50.69c-.36-.1-.62.61-.29.71.18.05.2-.18.23-.3.05-.17.4-.3.06-.4Z" class="cls-17"/><path d="M46.9 50.69c-.36-.1-.62.61-.29.71.18.05.2-.18.23-.3.05-.17.4-.3.06-.4Z" class="cls-4"/><path d="M39.49 49.49c.18-.35.37-.59.57-.7-.28-.84-.34-1.96-.18-3.37.02-.21.07-.3.15-.31.07 0 .11.1.12.33-.05.77-.11 1.44-.08 2.01.03.5.15.91.28 1.37.02.06-.03.12-.26.27-.17.11-.27.24-.31.37-.05-.01-.08 0-.1 0-.17.07-.24.06-.2.02Z" class="cls-17"/><path d="M39.49 49.49c.18-.35.37-.59.57-.7-.28-.84-.34-1.96-.18-3.37.02-.21.07-.3.15-.31.07 0 .11.1.12.33-.05.77-.11 1.44-.08 2.01.03.5.15.91.28 1.37.02.06-.03.12-.26.27-.17.11-.27.24-.31.37-.05-.01-.08 0-.1 0-.17.07-.24.06-.2.02Z" class="cls-4"/><path d="M40.55 50.48c-.1-.05-.12-.04-.16-.07-.04-.05-.04-.14-.03-.23.05-.36-.15-.29-.39-.11-.12.09-.24.28-.34.39-.1.1-.18.12-.21.16v.6c.03.03.11.03.21.12.1.08.22.25.34.32.24.13.44.16.39-.19-.01-.09-.01-.18.03-.24.03-.05.05-.03.16-.11a.6.6 0 0 0 .15-.16c.03-.06.02-.12.02-.18s.02-.12-.02-.17a.32.32 0 0 0-.15-.13" class="cls-17"/><path d="M40.55 50.48c-.1-.05-.12-.04-.16-.07-.04-.05-.04-.14-.03-.23.05-.36-.15-.29-.39-.11-.12.09-.24.28-.34.39-.1.1-.18.12-.21.16v.6c.03.03.11.03.21.12.1.08.22.25.34.32.24.13.44.16.39-.19-.01-.09-.01-.18.03-.24.03-.05.05-.03.16-.11a.6.6 0 0 0 .15-.16c.03-.06.02-.12.02-.18s.02-.12-.02-.17a.32.32 0 0 0-.15-.13Z" class="cls-4"/><path d="M40.37 50.02c-.08.04-.16.08-.23.16-.11.11-.04.28.1.43.04.05.06.14.06.23s-.02.19-.06.24c-.14.18-.21.36-.1.45.07.06.15.09.23.11v-.16c-.01-.09-.01-.18.03-.24.03-.05.05-.03.16-.11a.6.6 0 0 0 .15-.16c.03-.06.02-.12.02-.18s.02-.12-.02-.17a.32.32 0 0 0-.15-.13c-.1-.05-.12-.04-.16-.07-.04-.05-.04-.14-.03-.23.01-.07.01-.12 0-.16Z" class="cls-17"/><path d="M40.37 50.02c-.08.04-.16.08-.23.16-.11.11-.04.28.1.43.04.05.06.14.06.23s-.02.19-.06.24c-.14.18-.21.36-.1.45.07.06.15.09.23.11v-.16c-.01-.09-.01-.18.03-.24.03-.05.05-.03.16-.11a.6.6 0 0 0 .15-.16c.03-.06.02-.12.02-.18s.02-.12-.02-.17a.32.32 0 0 0-.15-.13c-.1-.05-.12-.04-.16-.07-.04-.05-.04-.14-.03-.23.01-.07.01-.12 0-.16Z" class="cls-4"/><path d="M43.71 49.18c-.09.12-.08.15-.13.18-.06.05-.15.04-.23.02-.32-.09-.32.17-.23.45.05.14.18.28.24.39s.05.2.07.23c.12 0 .22.01.26.01h.26c.04-.03.07-.11.17-.22.11-.1.29-.22.39-.35.2-.25.31-.48 0-.44-.08.01-.16 0-.19-.05-.03-.04 0-.06-.03-.19a.4.4 0 0 0-.09-.19c-.04-.05-.1-.03-.15-.03-.06 0-.11-.03-.17 0-.06.04-.12.09-.18.17Z" class="cls-17"/><path d="M43.71 49.18c-.09.12-.08.15-.13.18-.06.05-.15.04-.23.02-.32-.09-.32.17-.23.45.05.14.18.28.24.39s.05.2.07.23c.12 0 .22.01.26.01h.26c.04-.03.07-.11.17-.22.11-.1.29-.22.39-.35.2-.25.31-.48 0-.44-.08.01-.16 0-.19-.05-.03-.04 0-.06-.03-.19a.4.4 0 0 0-.09-.19c-.04-.05-.1-.03-.15-.03-.06 0-.11-.03-.17 0-.06.04-.12.09-.18.17Z" class="cls-4"/><path d="M43.21 49.37c.01.09.02.19.07.28.07.13.24.06.43-.09a.3.3 0 0 1 .23-.06c.08 0 .16.04.19.09.11.16.23.25.35.14.08-.07.13-.17.18-.25a.3.3 0 0 0-.14 0c-.08 0-.16 0-.19-.05-.03-.04 0-.06-.03-.19a.4.4 0 0 0-.09-.19c-.04-.05-.1-.03-.15-.03-.06 0-.11-.03-.17 0-.06.04-.12.09-.18.17-.09.12-.08.15-.13.18-.06.05-.15.04-.23.02-.06-.02-.11-.02-.15-.02Z" class="cls-17"/><path d="M43.21 49.37c.01.09.02.19.07.28.07.13.24.06.43-.09a.3.3 0 0 1 .23-.06c.08 0 .16.04.19.09.11.16.23.25.35.14.08-.07.13-.17.18-.25a.3.3 0 0 0-.14 0c-.08 0-.16 0-.19-.05-.03-.04 0-.06-.03-.19a.4.4 0 0 0-.09-.19c-.04-.05-.1-.03-.15-.03-.06 0-.11-.03-.17 0-.06.04-.12.09-.18.17-.09.12-.08.15-.13.18-.06.05-.15.04-.23.02-.06-.02-.11-.02-.15-.02Z" class="cls-4"/><path d="M44.97 50.46c-.05-.06-.07-.04-.08-.08-.01-.05.02-.13.06-.21.15-.32 0-.28-.23-.13-.06.04-.12.1-.19.16s-.13.13-.19.17c-.11.09-.18.1-.21.14l-.11.29c-.02.05-.06.16-.1.29 0 .03.07.04.12.12s.08.23.14.3c.08.1.16.16.22.14s.1-.11.12-.3c0-.08.05-.16.1-.21.04-.04.05-.03.14-.09.06-.04.11-.09.16-.14.04-.05.05-.1.07-.16.02-.05.05-.11.05-.16s-.02-.09-.06-.13Z" class="cls-17"/><path d="M44.97 50.46c-.05-.06-.07-.04-.08-.08-.01-.05.02-.13.06-.21.15-.32 0-.28-.23-.13-.06.04-.12.1-.19.16s-.13.13-.19.17c-.11.09-.18.1-.21.14l-.11.29c-.02.05-.06.16-.1.29 0 .03.07.04.12.12s.08.23.14.3c.08.1.16.16.22.14s.1-.11.12-.3c0-.08.05-.16.1-.21.04-.04.05-.03.14-.09.06-.04.11-.09.16-.14.04-.05.05-.1.07-.16.02-.05.05-.11.05-.16s-.02-.09-.06-.13Z" class="cls-4"/><path d="M45 49.97c-.07.03-.11.07-.19.14-.06.05-.09.13-.1.21s0 .17.02.26c.01.05 0 .15-.04.25-.03.1-.08.19-.13.25-.16.18-.28.36-.23.46.03.07.05.08.1.11.02-.04.07-.08.08-.15a.6.6 0 0 1 .1-.24c.04-.05.05-.09.15-.17.06-.05.12-.04.16-.09.08-.11.19-.38.09-.48-.11-.1-.14-.16-.05-.37.03-.07.03-.12.04-.16Z" class="cls-17"/><path d="M45 49.97c-.07.03-.11.07-.19.14-.06.05-.09.13-.1.21s0 .17.02.26c.01.05 0 .15-.04.25-.03.1-.08.19-.13.25-.16.18-.28.36-.23.46.03.07.05.08.1.11.02-.04.07-.08.08-.15a.6.6 0 0 1 .1-.24c.04-.05.05-.09.15-.17.06-.05.12-.04.16-.09.08-.11.19-.38.09-.48-.11-.1-.14-.16-.05-.37.03-.07.03-.12.04-.16Z" class="cls-4"/><path d="M42.17 51.08c.08.06.11.05.13.09.03.05.02.14 0 .22-.1.33.09.28.32.13.11-.07.25-.24.35-.33s.18-.09.21-.13c.03-.13.05-.24.06-.29s.03-.16.06-.3c-.01-.04-.09-.05-.16-.15s-.14-.29-.24-.38c-.19-.18-.38-.25-.39.14 0 .09-.02.19-.07.25-.04.04-.06.02-.16.09-.07.04-.13.09-.17.15s-.03.12-.04.18c0 .06-.04.12-.01.18q.03.09.12.15Z" class="cls-17"/><path d="M42.17 51.08c.08.06.11.05.13.09.03.05.02.14 0 .22-.1.33.09.28.32.13.11-.07.25-.24.35-.33s.18-.09.21-.13c.03-.13.05-.24.06-.29s.03-.16.06-.3c-.01-.04-.09-.05-.16-.15s-.14-.29-.24-.38c-.19-.18-.38-.25-.39.14 0 .09-.02.19-.07.25-.04.04-.06.02-.16.09-.07.04-.13.09-.17.15s-.03.12-.04.18c0 .06-.04.12-.01.18q.03.09.12.15Z" class="cls-4"/><path d="M42.26 51.54c.07-.03.15-.06.22-.12.11-.1.08-.26-.02-.42-.03-.05-.03-.14-.02-.23.02-.09.05-.18.1-.23.16-.17.25-.34.17-.45-.05-.08-.12-.11-.19-.15-.01.04-.02.1-.03.17 0 .09-.02.19-.07.25-.04.04-.06.03-.16.09-.07.04-.13.09-.17.15s-.03.12-.04.18c0 .06-.04.12-.01.18q.03.09.12.15c.08.06.11.05.13.09.03.05.02.14 0 .22q-.03.09-.03.15Z" class="cls-17"/><path d="M42.26 51.54c.07-.03.15-.06.22-.12.11-.1.08-.26-.02-.42-.03-.05-.03-.14-.02-.23.02-.09.05-.18.1-.23.16-.17.25-.34.17-.45-.05-.08-.12-.11-.19-.15-.01.04-.02.1-.03.17 0 .09-.02.19-.07.25-.04.04-.06.03-.16.09-.07.04-.13.09-.17.15s-.03.12-.04.18c0 .06-.04.12-.01.18q.03.09.12.15c.08.06.11.05.13.09.03.05.02.14 0 .22q-.03.09-.03.15Z" class="cls-4"/><path d="m43.84 54.42-1.46-.71-1.55.84 1.46.69z" class="cls-17"/><path d="m43.84 54.42-1.46-.71-1.55.84 1.46.69z" class="cls-6"/><path d="m45.6 53.62-1.58.79 1.3.72c.34-.15.6-1.33.28-1.51" class="cls-17"/><path d="m45.6 53.62-1.58.79 1.3.72c.34-.15.6-1.33.28-1.51z" class="cls-6"/><path d="M39.42 51.03c.24 0 .45.08.64.22-.13-.17-.34-.26-.64-.28zm0-.22c.24-.06.45-.17.64-.35-.13.2-.34.34-.64.41zm7.5-.25c.1-.15.13-.29.09-.43.09.1.08.25-.04.44l-.05-.02Zm-3.11-.1c.09-.25.23-.48.42-.68-.2.13-.36.36-.47.69h.05Zm-.19-.01c.03-.26 0-.5-.11-.71q.21.225.15.72h-.05Zm.36.5c.18.03.31.12.4.28-.04-.19-.17-.31-.38-.34v.06Zm.08-.24c.21-.04.41-.15.61-.32-.18.2-.39.33-.64.38zm-.82-.04a.82.82 0 0 1-.52-.3c.08.19.25.32.51.36v-.06Zm-.04.22c-.21.03-.42.12-.61.28q.225-.27.63-.33l-.02.06Z" class="cls-16"/><path d="M42.36 54c.37-.01.65.19.63.44-.02.26-.33.48-.69.49-.37.01-.65-.19-.63-.44.02-.26.33-.48.69-.49" class="cls-8"/><path d="M42.36 54c.37-.01.65.19.63.44-.02.26-.33.48-.69.49-.37.01-.65-.19-.63-.44.02-.26.33-.48.69-.49Z" class="cls-3"/><path d="M43.73 50.28c-.27.01-.52.28-.56.56-.04.29.15.49.4.47.26-.02.49-.26.54-.54s-.12-.51-.38-.49" class="cls-17"/><path d="M43.73 50.28c-.27.01-.52.28-.56.56-.04.29.15.49.4.47.26-.02.49-.26.54-.54s-.12-.51-.38-.49Z" class="cls-4"/><path d="M43.71 50.42c-.2.01-.38.2-.41.41s.11.36.3.35c.19-.02.37-.19.4-.4.04-.21-.09-.37-.28-.36Z" class="cls-17"/><path d="M43.71 50.42c-.2.01-.38.2-.41.41s.11.36.3.35c.19-.02.37-.19.4-.4.04-.21-.09-.37-.28-.36Z" class="cls-4"/><path d="M46.86 50.8c-.17-.05-.41.38-.2.45.15.05.26-.05.31-.18s0-.24-.12-.28Z" class="cls-14"/><path d="M46.86 50.8c-.17-.05-.41.38-.2.45.15.05.26-.05.31-.18s0-.24-.12-.28Z" class="cls-3"/><path d="M45.54 53.9c-.38 0-.7.21-.72.46-.03.25.26.45.64.45.25 0 .39-.17.42-.43.03-.25-.08-.48-.33-.48Z" class="cls-14"/><path d="M45.54 53.9c-.38 0-.7.21-.72.46-.03.25.26.45.64.45.25 0 .39-.17.42-.43.03-.25-.08-.48-.33-.48Z" class="cls-3"/><path d="M43.69 50.56c-.12 0-.24.13-.26.26s.07.23.18.22c.12-.01.23-.12.25-.25s-.06-.23-.18-.23Z" class="cls-14"/><path d="M43.69 50.56c-.12 0-.24.13-.26.26s.07.23.18.22c.12-.01.23-.12.25-.25s-.06-.23-.18-.23Z" class="cls-3"/><path d="m32.37 47.65-1.83 1.06-.2.81.72 1.06-.06.93-.59.06-.98-2.55 1.24-1.19 2.88-1.29z" class="cls-17"/><path d="m32.37 47.65-1.83 1.06-.2.81.72 1.06-.06.93-.59.06-.98-2.55 1.24-1.19 2.88-1.29-1.18 1.11" class="cls-4"/><path d="M30.94 51.42c-.04-.11-.06-.21-.08-.3a1 1 0 0 1 .04-.54c-.19-.26-.41-.54-.57-.82-.11-.2-.2-.43-.13-.69.07-.27.29-.47.5-.65.24-.21.56-.41.89-.59.73-.38 1.31-.59 1.74-.65l-.27.28c-.79.34-1.73.78-2.18 1.18-.58.52-.57.62.28 1.75.03.04.09.12.07.17-.04.09-.12.5 0 .76-.07.15-.18.09-.28.11Z" class="cls-17"/><path d="M30.94 51.42c-.04-.11-.06-.21-.08-.3a1 1 0 0 1 .04-.54c-.19-.26-.41-.54-.57-.82-.11-.2-.2-.43-.13-.69.07-.27.29-.47.5-.65.24-.21.56-.41.89-.59.73-.38 1.31-.59 1.74-.65l-.27.28c-.79.34-1.73.78-2.18 1.18-.58.52-.57.62.28 1.75.03.04.09.12.07.17-.04.09-.12.5 0 .76-.07.15-.18.09-.28.11Z" class="cls-4"/><path d="M36.47 50.09c.23-.04.17.37.13.47-.06.12-.11.13-.19.03-.06-.08-.17-.46.06-.5" class="cls-17"/><path d="M36.47 50.09c.23-.04.17.37.13.47-.06.12-.11.13-.19.03-.06-.08-.17-.46.06-.5Z" class="cls-4"/><path d="M32.19 51.11c.22-.09.26.31.24.41-.03.13-.08.15-.18.08-.07-.06-.27-.4-.06-.49" class="cls-17"/><path d="M32.19 51.11c.22-.09.26.31.24.41-.03.13-.08.15-.18.08-.07-.06-.27-.4-.06-.49Z" class="cls-4"/><path d="M33.21 46.21c-.23.02-.42.23-.42.47s.19.4.42.38.42-.23.42-.47-.19-.4-.42-.38" class="cls-7"/><path d="M33.21 46.21c-.23.02-.42.23-.42.47s.19.4.42.38.42-.23.42-.47-.19-.4-.42-.38Z" class="cls-4"/><path d="M32.42 46.56c-.23.02-.42.23-.42.47s.19.4.42.38.42-.23.42-.47-.19-.4-.42-.38" class="cls-7"/><path d="M32.42 46.56c-.23.02-.42.23-.42.47s.19.4.42.38.42-.23.42-.47-.19-.4-.42-.38Z" class="cls-4"/><path d="M31.62 46.91c-.23.02-.42.23-.42.47s.19.4.42.38.42-.23.42-.47-.19-.4-.42-.38" class="cls-7"/><path d="M31.62 46.91c-.23.02-.42.23-.42.47s.19.4.42.38.42-.23.42-.47-.19-.4-.42-.38Z" class="cls-4"/><path d="M30.83 47.36c-.23.02-.42.23-.42.47s.19.4.42.38.42-.23.42-.47-.19-.4-.42-.38" class="cls-7"/><path d="M30.83 47.36c-.23.02-.42.23-.42.47s.19.4.42.38.42-.23.42-.47-.19-.4-.42-.38Z" class="cls-4"/><path d="M30.1 47.87c-.23.02-.42.23-.42.47s.19.4.42.38.42-.23.42-.47-.19-.4-.42-.38" class="cls-7"/><path d="M30.1 47.87c-.23.02-.42.23-.42.47s.19.4.42.38.42-.23.42-.47-.19-.4-.42-.38Z" class="cls-4"/><path d="M30.43 50.81c-.23.02-.42.23-.42.47s.19.4.42.38.42-.23.42-.47-.19-.4-.42-.38" class="cls-7"/><path d="M30.43 50.81c-.23.02-.42.23-.42.47s.19.4.42.38.42-.23.42-.47-.19-.4-.42-.38Z" class="cls-4"/><path d="M30.03 50.13c-.23.02-.42.23-.42.47s.19.4.42.38.42-.23.42-.47-.19-.4-.42-.38" class="cls-7"/><path d="M30.03 50.13c-.23.02-.42.23-.42.47s.19.4.42.38.42-.23.42-.47-.19-.4-.42-.38Z" class="cls-4"/><path d="M29.7 49.43c-.23.02-.42.23-.42.47s.19.4.42.38.42-.23.42-.47-.19-.4-.42-.38" class="cls-7"/><path d="M29.7 49.43c-.23.02-.42.23-.42.47s.19.4.42.38.42-.23.42-.47-.19-.4-.42-.38Z" class="cls-4"/><path d="M29.57 48.58c-.23.02-.42.23-.42.47s.19.4.42.38.42-.23.42-.47-.19-.4-.42-.38" class="cls-7"/><path d="M29.57 48.58c-.23.02-.42.23-.42.47s.19.4.42.38.42-.23.42-.47-.19-.4-.42-.38Z" class="cls-4"/><path d="M37.39 55.2c-.12.01-.21.12-.21.23s.1.2.21.19c.12-.01.21-.12.21-.23s-.1-.2-.21-.19" class="cls-7"/><path d="M37.39 55.2c-.12.01-.21.12-.21.23s.1.2.21.19c.12-.01.21-.12.21-.23s-.1-.2-.21-.19Z" class="cls-4"/><path d="M34.14 55.74c-.12.01-.21.12-.21.23s.1.2.21.19c.12-.01.21-.12.21-.23s-.1-.2-.21-.19" class="cls-7"/><path d="M34.14 55.74c-.12.01-.21.12-.21.23s.1.2.21.19c.12-.01.21-.12.21-.23s-.1-.2-.21-.19Z" class="cls-4"/><path d="M34.01 54.76c-.12.01-.21.12-.21.23s.1.2.21.19c.12-.01.21-.12.21-.23s-.1-.2-.21-.19" class="cls-7"/><path d="M34.01 54.76c-.12.01-.21.12-.21.23s.1.2.21.19c.12-.01.21-.12.21-.23s-.1-.2-.21-.19Z" class="cls-4"/><path d="M37.32 54.22c-.12.01-.21.12-.21.23s.1.2.21.19c.12-.01.21-.12.21-.23s-.1-.2-.21-.19" class="cls-7"/><path d="M37.32 54.22c-.12.01-.21.12-.21.23s.1.2.21.19c.12-.01.21-.12.21-.23s-.1-.2-.21-.19Z" class="cls-4"/><path d="M36.34 51.48c-.13-.19-.38-1.09.15-1.18s.4.89.3 1.1c-.13.28-.27.32-.44.08Z" class="cls-12"/><path d="M36.34 51.48c-.13-.19-.38-1.09.15-1.18s.4.89.3 1.1c-.13.28-.27.32-.44.08Z" class="cls-4"/><path d="M32.81 52.28c-.07.31-.18.36-.42.17-.18-.14-.64-.92-.13-1.14s.6.73.55.97" class="cls-12"/><path d="M32.81 52.28c-.07.31-.18.36-.42.17-.18-.14-.64-.92-.13-1.14s.6.73.55.97Z" class="cls-4"/><path d="m37.92 45.81-2.32.31-1.46.62-.4.97 1.06 1.94-.46 1.38-1.39-1.05-.67-2.38 1.79-1.72 3.78-.66z" class="cls-17"/><path d="m37.92 45.81-2.32.31-1.46.62-.4.97 1.06 1.94-.46 1.38-1.39-1.05-.67-2.38 1.79-1.72 3.78-.66z" class="cls-4"/><path d="M37.8 45.68c-1.14.02-2.31.26-3.47.84-.97.49-.88 1.62.31 3.08-.11.21-.17.47-.18.76.13-.02.21-.03.32-.04-.09-.18.01-.43.12-.6.07-.12.09-.1 0-.21-.71-.92-1.18-1.74-.9-2.3.34-.67 1.63-1.14 3.83-1.32 0-.06 0-.12-.01-.18l-.02-.02Z" class="cls-17"/><path d="M37.8 45.68c-1.14.02-2.31.26-3.47.84-.97.49-.88 1.62.31 3.08-.11.21-.17.47-.18.76.13-.02.21-.03.32-.04-.09-.18.01-.43.12-.6.07-.12.09-.1 0-.21-.71-.92-1.18-1.74-.9-2.3.34-.67 1.63-1.14 3.83-1.32 0-.06 0-.12-.01-.18l-.02-.02Z" class="cls-4"/><path d="m33.16 46.58.12.15c-.64.42-.91.83-.85 1.2.01.06.21.73.64 2.02.3.18.52.34.67.49-.02.02.05.07.03.09.04.2-.18.18-.34.15-.07-.19-.3-.37-.43-.45-.03-.02-.12-.05-.13-.08-.23-.73-.47-1.4-.67-2.03s.24-1.14.95-1.54Z" class="cls-17"/><path d="m33.16 46.58.12.15c-.64.42-.91.83-.85 1.2.01.06.21.73.64 2.02.3.18.52.34.67.49-.02.02.05.07.03.09.04.2-.18.18-.34.15-.07-.19-.3-.37-.43-.45-.03-.02-.12-.05-.13-.08-.23-.73-.47-1.4-.67-2.03s.24-1.14.95-1.54Z" class="cls-4"/><path d="M37.52 44.77c-.23.02-.42.23-.42.47s.19.4.42.38.42-.23.42-.47-.19-.4-.42-.38" class="cls-7"/><path d="M37.52 44.77c-.23.02-.42.23-.42.47s.19.4.42.38.42-.23.42-.47-.19-.4-.42-.38Z" class="cls-4"/><path d="M36.69 44.85c-.23.02-.42.23-.42.47s.19.4.42.38.42-.23.42-.47-.19-.4-.42-.38" class="cls-7"/><path d="M36.69 44.85c-.23.02-.42.23-.42.47s.19.4.42.38.42-.23.42-.47-.19-.4-.42-.38Z" class="cls-4"/><path d="M35.86 45.04c-.23.02-.42.23-.42.47s.19.4.42.38.42-.23.42-.47-.19-.4-.42-.38" class="cls-7"/><path d="M35.86 45.04c-.23.02-.42.23-.42.47s.19.4.42.38.42-.23.42-.47-.19-.4-.42-.38Z" class="cls-4"/><path d="M35.07 45.29c-.23.02-.42.23-.42.47s.19.4.42.38.42-.23.42-.47-.19-.4-.42-.38" class="cls-7"/><path d="M35.07 45.29c-.23.02-.42.23-.42.47s.19.4.42.38.42-.23.42-.47-.19-.4-.42-.38Z" class="cls-4"/><path d="M34.27 45.64c-.23.02-.42.23-.42.47s.19.4.42.38.42-.23.42-.47-.19-.4-.42-.38" class="cls-7"/><path d="M34.27 45.64c-.23.02-.42.23-.42.47s.19.4.42.38.42-.23.42-.47-.19-.4-.42-.38Z" class="cls-4"/><path d="M33.54 46.05c-.23.02-.42.23-.42.47s.19.4.42.38.42-.23.42-.47-.19-.4-.42-.38" class="cls-7"/><path d="M33.54 46.05c-.23.02-.42.23-.42.47s.19.4.42.38.42-.23.42-.47-.19-.4-.42-.38Z" class="cls-4"/><path d="M33.08 46.62c-.23.02-.42.23-.42.47s.19.4.42.38.42-.23.42-.47-.19-.4-.42-.38" class="cls-7"/><path d="M33.08 46.62c-.23.02-.42.23-.42.47s.19.4.42.38.42-.23.42-.47-.19-.4-.42-.38Z" class="cls-4"/><path d="M33.94 49.58c-.23.02-.42.23-.42.47s.19.4.42.38.42-.23.42-.47-.19-.4-.42-.38" class="cls-7"/><path d="M33.94 49.58c-.23.02-.42.23-.42.47s.19.4.42.38.42-.23.42-.47-.19-.4-.42-.38Z" class="cls-4"/><path d="M33.61 48.89c-.23.02-.42.23-.42.47s.19.4.42.38.42-.23.42-.47-.19-.4-.42-.38" class="cls-7"/><path d="M33.61 48.89c-.23.02-.42.23-.42.47s.19.4.42.38.42-.23.42-.47-.19-.4-.42-.38Z" class="cls-4"/><path d="M33.28 48.19c-.23.02-.42.23-.42.47s.19.4.42.38.42-.23.42-.47-.19-.4-.42-.38" class="cls-7"/><path d="M33.28 48.19c-.23.02-.42.23-.42.47s.19.4.42.38.42-.23.42-.47-.19-.4-.42-.38Z" class="cls-4"/><path d="M33.01 47.43c-.23.02-.42.23-.42.47s.19.4.42.38.42-.23.42-.47-.19-.4-.42-.38" class="cls-7"/><path d="M33.01 47.43c-.23.02-.42.23-.42.47s.19.4.42.38.42-.23.42-.47-.19-.4-.42-.38Z" class="cls-4"/><path d="m30.76 51.67-.02.13c-.18.06-.34.09-.47.08.22-.24.38-.31.5-.22Z" class="cls-17"/><path d="m30.76 51.67-.02.13c-.18.06-.34.09-.47.08.22-.24.38-.31.5-.22Z" class="cls-4"/><path d="M30.69 51.36c.12.02.13.04.18.04.07 0 .16 0 .22-.07.25-.18.26.1.16.31-.07.16-.14.36-.07.48.08.14.06.21 0 .26-.04.03-.08.06-.11.08-.07.09-.12.08-.13-.03-.25-.08-.24-.35-.31-.56-.11-.3-.52-.34.06-.52Z" class="cls-17"/><path d="M30.69 51.36c.12.02.13.04.18.04.07 0 .16 0 .22-.07.25-.18.26.1.16.31-.07.16-.14.36-.07.48.08.14.06.21 0 .26-.04.03-.08.06-.11.08-.07.09-.12.08-.13-.03-.25-.08-.24-.35-.31-.56-.11-.3-.52-.34.06-.52Z" class="cls-4"/><path d="M30.83 51.36c.22.06.25-.07.4-.08-.06.35-.12.53-.47.38-.19-.08-.44.09-.49.21-.02.04-.13-.03-.17-.12-.17-.36.44-.47.74-.4Z" class="cls-17"/><path d="M30.83 51.36c.22.06.25-.07.4-.08-.06.35-.12.53-.47.38-.19-.08-.44.09-.49.21-.02.04-.13-.03-.17-.12-.17-.36.44-.47.74-.4Z" class="cls-4"/><path d="M31.61 52.93c.16-.07.41.26.47.25.08-.21-.08-.68-.37-1.04-.19-.04-.21-.17-.25-.45-.01-.09-.18 0-.18.14 0 .16-.02.25.02.38.01.05 0 .1-.05.16.3.09.38.23.36.56" class="cls-17"/><path d="M31.61 52.93c.16-.07.41.26.47.25.08-.21-.08-.68-.37-1.04-.19-.04-.21-.17-.25-.45-.01-.09-.18 0-.18.14 0 .16-.02.25.02.38.01.05 0 .1-.05.16.3.09.38.23.36.56Z" class="cls-4"/><path d="M31.46 51.69c-.03.07-.04.13-.04.23 0 .08.02.15.07.21s.12.11.2.15c.05.02.11.1.15.18s.08.18.08.25c0 .24.05.44.16.47.07.02.1.01.15 0-.02-.04 0-.1-.05-.16a.6.6 0 0 1-.1-.23c0-.06-.03-.1 0-.22.01-.08.06-.11.06-.18-.02-.13-.12-.39-.28-.37s-.23 0-.31-.19c-.03-.07-.06-.1-.09-.13Z" class="cls-17"/><path d="M31.46 51.69c-.03.07-.04.13-.04.23 0 .08.02.15.07.21s.12.11.2.15c.05.02.11.1.15.18s.08.18.08.25c0 .24.05.44.16.47.07.02.1.01.15 0-.02-.04 0-.1-.05-.16a.6.6 0 0 1-.1-.23c0-.06-.03-.1 0-.22.01-.08.06-.11.06-.18-.02-.13-.12-.39-.28-.37s-.23 0-.31-.19c-.03-.07-.06-.1-.09-.13Z" class="cls-4"/><path d="M30.88 52.33s.09-.07.14-.09c.08-.04.17-.05.25-.04.37.07.54.72.13.92-.08.02-.15-.05-.23-.2q-.135-.3-.27-.42c-.06-.07-.06-.13-.02-.17" class="cls-17"/><path d="M30.88 52.33s.09-.07.14-.09c.08-.04.17-.05.25-.04.37.07.54.72.13.92-.08.02-.15-.05-.23-.2q-.135-.3-.27-.42c-.06-.07-.06-.13-.02-.17Z" class="cls-4"/><path d="M31.06 52.35c.36-.18.62.48.29.65-.18.09-.2-.13-.23-.26-.05-.16-.4-.22-.06-.39" class="cls-17"/><path d="M31.06 52.35c.36-.18.62.48.29.65-.18.09-.2-.13-.23-.26-.05-.16-.4-.22-.06-.39Z" class="cls-4"/><path d="M38.47 49.6c-.18-.31-.37-.51-.57-.58.28-.9.34-2.03.18-3.41-.02-.21-.07-.29-.15-.28q-.105 0-.12.36c.05.76.11 1.42.08 1.99-.03.51-.15.94-.28 1.43-.02.07.03.11.26.22.17.08.27.18.31.3.05-.02.08-.02.1-.02.17.03.24.01.2-.02Z" class="cls-17"/><path d="M38.47 49.6c-.18-.31-.37-.51-.57-.58.28-.9.34-2.03.18-3.41-.02-.21-.07-.29-.15-.28q-.105 0-.12.36c.05.76.11 1.42.08 1.99-.03.51-.15.94-.28 1.43-.02.07.03.11.26.22.17.08.27.18.31.3.05-.02.08-.02.1-.02.17.03.24.01.2-.02Z" class="cls-4"/><path d="M37.41 50.81c.1-.08.12-.06.16-.11.04-.06.04-.15.03-.24-.05-.34.15-.32.39-.19.12.06.24.23.34.32.1.08.18.08.21.12v.6c-.03.04-.11.06-.21.16s-.22.3-.34.39c-.24.18-.44.25-.39-.11.01-.09.01-.18-.03-.23-.03-.04-.05-.02-.16-.07a.4.4 0 0 1-.15-.13c-.03-.05-.02-.11-.02-.17s-.02-.12.02-.18c.03-.06.08-.12.15-.16" class="cls-17"/><path d="M37.41 50.81c.1-.08.12-.06.16-.11.04-.06.04-.15.03-.24-.05-.34.15-.32.39-.19.12.06.24.23.34.32.1.08.18.08.21.12v.6c-.03.04-.11.06-.21.16s-.22.3-.34.39c-.24.18-.44.25-.39-.11.01-.09.01-.18-.03-.23-.03-.04-.05-.02-.16-.07a.4.4 0 0 1-.15-.13c-.03-.05-.02-.11-.02-.17s-.02-.12.02-.18c.03-.06.08-.12.15-.16Z" class="cls-4"/><path d="M37.59 50.31c.08.02.16.05.23.11.11.09.04.27-.1.45a.45.45 0 0 0-.06.24c0 .09.02.18.06.23.14.15.21.31.1.43-.07.08-.15.12-.23.16v-.16c.01-.09.01-.18-.03-.23-.03-.04-.05-.02-.16-.07a.4.4 0 0 1-.15-.13c-.03-.05-.02-.11-.02-.17s-.02-.12.02-.18c.03-.06.08-.12.15-.16.1-.08.12-.06.16-.11.04-.06.04-.15.03-.24a.4.4 0 0 1 0-.16Z" class="cls-17"/><path d="M37.59 50.31c.08.02.16.05.23.11.11.09.04.27-.1.45a.45.45 0 0 0-.06.24c0 .09.02.18.06.23.14.15.21.31.1.43-.07.08-.15.12-.23.16v-.16c.01-.09.01-.18-.03-.23-.03-.04-.05-.02-.16-.07a.4.4 0 0 1-.15-.13c-.03-.05-.02-.11-.02-.17s-.02-.12.02-.18c.03-.06.08-.12.15-.16.1-.08.12-.06.16-.11.04-.06.04-.15.03-.24a.4.4 0 0 1 0-.16Z" class="cls-4"/><path d="M34.25 50.18c.09.1.08.13.13.16.06.04.15.01.23-.03.32-.16.32.1.23.4-.05.15-.18.32-.24.44s-.05.21-.07.25c-.12.03-.22.06-.26.07s-.14.04-.26.06c-.04-.02-.07-.1-.17-.18-.11-.08-.29-.16-.39-.27-.2-.21-.31-.42 0-.44.08 0 .16-.03.19-.09.03-.05 0-.07.03-.2q.03-.135.09-.21c.04-.05.1-.05.15-.07.06-.02.11-.05.17-.03s.12.07.18.14Z" class="cls-17"/><path d="M34.25 50.18c.09.1.08.13.13.16.06.04.15.01.23-.03.32-.16.32.1.23.4-.05.15-.18.32-.24.44s-.05.21-.07.25c-.12.03-.22.06-.26.07s-.14.04-.26.06c-.04-.02-.07-.1-.17-.18-.11-.08-.29-.16-.39-.27-.2-.21-.31-.42 0-.44.08 0 .16-.03.19-.09.03-.05 0-.07.03-.2q.03-.135.09-.21c.04-.05.1-.05.15-.07.06-.02.11-.05.17-.03s.12.07.18.14Z" class="cls-4"/><path d="M34.75 50.26c-.01.1-.02.2-.07.29-.07.14-.24.11-.43 0a.3.3 0 0 0-.23-.01c-.08.02-.16.07-.19.13-.11.19-.23.3-.35.21-.08-.06-.13-.14-.18-.21.03-.02.08-.03.14-.03.08 0 .16-.03.19-.09.03-.05 0-.07.03-.2q.03-.135.09-.21c.04-.05.1-.05.15-.06.06-.02.11-.05.17-.03s.12.07.18.14c.09.1.08.13.13.16.06.03.15.01.23-.03.06-.03.11-.04.15-.05Z" class="cls-17"/><path d="M34.75 50.26c-.01.1-.02.2-.07.29-.07.14-.24.11-.43 0a.3.3 0 0 0-.23-.01c-.08.02-.16.07-.19.13-.11.19-.23.3-.35.21-.08-.06-.13-.14-.18-.21.03-.02.08-.03.14-.03.08 0 .16-.03.19-.09.03-.05 0-.07.03-.2q.03-.135.09-.21c.04-.05.1-.05.15-.06.06-.02.11-.05.17-.03s.12.07.18.14c.09.1.08.13.13.16.06.03.15.01.23-.03.06-.03.11-.04.15-.05Z" class="cls-4"/><path d="M32.99 51.71c.05-.07.07-.06.08-.1.01-.05-.02-.13-.06-.2-.15-.29 0-.28.23-.18.06.02.12.07.19.12s.13.1.19.13c.11.07.18.06.21.09.05.12.09.22.11.27s.06.15.1.27c0 .03-.07.05-.12.14s-.08.25-.14.33c-.08.12-.16.19-.22.19s-.1-.09-.12-.28c0-.07-.05-.15-.1-.19-.04-.03-.05-.02-.14-.06-.06-.03-.11-.07-.16-.11-.04-.04-.05-.09-.07-.14s-.05-.1-.05-.15.02-.1.06-.14Z" class="cls-17"/><path d="M32.99 51.71c.05-.07.07-.06.08-.1.01-.05-.02-.13-.06-.2-.15-.29 0-.28.23-.18.06.02.12.07.19.12s.13.1.19.13c.11.07.18.06.21.09.05.12.09.22.11.27s.06.15.1.27c0 .03-.07.05-.12.14s-.08.25-.14.33c-.08.12-.16.19-.22.19s-.1-.09-.12-.28c0-.07-.05-.15-.1-.19-.04-.03-.05-.02-.14-.06-.06-.03-.11-.07-.16-.11-.04-.04-.05-.09-.07-.14s-.05-.1-.05-.15.02-.1.06-.14Z" class="cls-4"/><path d="M32.96 51.23c.07.02.11.04.19.1.06.04.09.11.1.18.01.08 0 .17-.02.26-.01.06 0 .15.04.24.03.09.08.17.13.22.16.15.28.31.23.42-.03.07-.05.09-.1.13-.02-.04-.07-.07-.08-.13a.5.5 0 0 0-.1-.22c-.04-.04-.05-.08-.15-.14-.06-.03-.12-.01-.16-.06-.08-.09-.19-.34-.09-.46.11-.13.14-.19.05-.38-.03-.06-.03-.11-.04-.15Z" class="cls-17"/><path d="M32.96 51.23c.07.02.11.04.19.1.06.04.09.11.1.18.01.08 0 .17-.02.26-.01.06 0 .15.04.24.03.09.08.17.13.22.16.15.28.31.23.42-.03.07-.05.09-.1.13-.02-.04-.07-.07-.08-.13a.5.5 0 0 0-.1-.22c-.04-.04-.05-.08-.15-.14-.06-.03-.12-.01-.16-.06-.08-.09-.19-.34-.09-.46.11-.13.14-.19.05-.38-.03-.06-.03-.11-.04-.15Z" class="cls-4"/><path d="M35.79 51.75c-.08.08-.11.07-.13.12-.03.06-.02.14 0 .22.1.3-.09.3-.32.2-.11-.05-.25-.19-.35-.25-.1-.07-.18-.06-.21-.09-.03-.12-.05-.23-.06-.28s-.03-.16-.06-.29c.01-.04.09-.07.16-.18s.14-.32.24-.43c.19-.22.38-.33.39.06 0 .09.02.18.07.23.04.04.06.01.16.06.07.03.13.07.17.12s.03.11.04.17c0 .06.04.11.01.17-.02.06-.06.12-.12.17Z" class="cls-17"/><path d="M35.79 51.75c-.08.08-.11.07-.13.12-.03.06-.02.14 0 .22.1.3-.09.3-.32.2-.11-.05-.25-.19-.35-.25-.1-.07-.18-.06-.21-.09-.03-.12-.05-.23-.06-.28s-.03-.16-.06-.29c.01-.04.09-.07.16-.18s.14-.32.24-.43c.19-.22.38-.33.39.06 0 .09.02.18.07.23.04.04.06.01.16.06.07.03.13.07.17.12s.03.11.04.17c0 .06.04.11.01.17-.02.06-.06.12-.12.17Z" class="cls-4"/><path d="M35.7 52.23a.5.5 0 0 1-.22-.08c-.11-.07-.08-.24.02-.42.03-.06.03-.15.02-.24-.02-.09-.05-.17-.1-.21-.16-.13-.25-.29-.17-.42.05-.09.12-.14.19-.19.01.04.02.1.03.17 0 .09.02.18.07.23.04.04.06.01.16.06.07.03.13.07.17.12s.03.11.04.17c0 .06.04.11.01.17-.02.06-.06.12-.12.17-.08.08-.11.07-.13.12-.03.06-.02.14 0 .22.02.06.03.11.03.14Z" class="cls-17"/><path d="M35.7 52.23a.5.5 0 0 1-.22-.08c-.11-.07-.08-.24.02-.42.03-.06.03-.15.02-.24-.02-.09-.05-.17-.1-.21-.16-.13-.25-.29-.17-.42.05-.09.12-.14.19-.19.01.04.02.1.03.17 0 .09.02.18.07.23.04.04.06.01.16.06.07.03.13.07.17.12s.03.11.04.17c0 .06.04.11.01.17-.02.06-.06.12-.12.17-.08.08-.11.07-.13.12-.03.06-.02.14 0 .22.02.06.03.11.03.14Z" class="cls-4"/><path d="m34.12 55.43 1.46-1 1.55.5-1.46 1z" class="cls-17"/><path d="m34.12 55.43 1.46-1 1.55.5-1.46 1z" class="cls-6"/><path d="m32.36 55.01 1.58.46-1.3.99c-.34-.08-.6-1.2-.28-1.45" class="cls-17"/><path d="m32.36 55.01 1.58.46-1.3.99c-.34-.08-.6-1.2-.28-1.45z" class="cls-6"/><path d="M38.54 51.13c-.24.06-.45.17-.64.35.13-.2.34-.34.64-.41zm0-.23c-.24 0-.45-.08-.64-.22.13.17.34.26.64.28zm-7.5 1.32a.44.44 0 0 1-.09-.41c-.09.12-.08.27.04.43zm3.11-.75c-.09-.23-.23-.43-.42-.59.2.09.36.29.47.59zm.19-.04c-.03-.25 0-.5.11-.73q-.21.27-.15.75l.05-.02Zm-.36.56c-.18.07-.31.19-.4.37.04-.2.17-.35.38-.42V52Zm-.08-.21c-.21 0-.41-.07-.61-.19.18.17.39.25.64.25zm.82-.21c.2-.07.38-.21.52-.41-.08.21-.25.37-.51.47v-.06Zm.04.2c.21-.02.42.03.61.15-.15-.15-.36-.22-.63-.2z" class="cls-16"/><path d="M35.6 54.71c-.37.06-.65.32-.63.58.02.25.33.41.69.34s.65-.32.63-.58c-.02-.25-.33-.41-.69-.34" class="cls-8"/><path d="M35.6 54.71c-.37.06-.65.32-.63.58.02.25.33.41.69.34s.65-.32.63-.58c-.02-.25-.33-.41-.69-.34Z" class="cls-3"/><path d="M34.23 51.27c.27-.04.52.17.56.45s-.15.52-.4.55c-.26.03-.49-.15-.54-.43-.05-.27.12-.53.38-.57" class="cls-17"/><path d="M34.23 51.27c.27-.04.52.17.56.45s-.15.52-.4.55c-.26.03-.49-.15-.54-.43-.05-.27.12-.53.38-.57Z" class="cls-4"/><path d="M34.25 51.41c.2-.03.38.12.41.33s-.11.39-.3.41a.373.373 0 0 1-.4-.31.35.35 0 0 1 .28-.42Z" class="cls-17"/><path d="M34.25 51.41c.2-.03.38.12.41.33s-.11.39-.3.41a.373.373 0 0 1-.4-.31.35.35 0 0 1 .28-.42Z" class="cls-4"/><path d="M31.1 52.45c.17-.09.41.3.2.41-.15.08-.26 0-.31-.11-.05-.12 0-.24.12-.3Z" class="cls-14"/><path d="M31.1 52.45c.17-.09.41.3.2.41-.15.08-.26 0-.31-.11-.05-.12 0-.24.12-.3Z" class="cls-3"/><path d="M32.42 55.27c.38-.08.7.06.72.31.03.25-.26.5-.64.58-.25.05-.39-.09-.42-.34s.08-.5.33-.55Z" class="cls-14"/><path d="M32.42 55.27c.38-.08.7.06.72.31.03.25-.26.5-.64.58-.25.05-.39-.09-.42-.34s.08-.5.33-.55Z" class="cls-3"/><path d="M34.27 51.55c.12-.02.24.08.26.2.02.13-.07.24-.18.26a.23.23 0 0 1-.25-.2c-.02-.13.06-.25.18-.26Z" class="cls-14"/><path d="M34.27 51.55c.12-.02.24.08.26.2.02.13-.07.24-.18.26a.23.23 0 0 1-.25-.2c-.02-.13.06-.25.18-.26Z" class="cls-3"/><path d="M38.98 48.53c.23-.02.42.15.42.38s-.19.44-.42.47c-.23.02-.42-.15-.42-.38s.19-.44.42-.47" class="cls-7"/><path d="M38.98 48.53c.23-.02.42.15.42.38s-.19.44-.42.47c-.23.02-.42-.15-.42-.38s.19-.44.42-.47Z" class="cls-4"/><path d="M38.98 47.73c.23-.02.42.15.42.38s-.19.44-.42.47c-.23.02-.42-.15-.42-.38s.19-.44.42-.47" class="cls-7"/><path d="M38.98 47.73c.23-.02.42.15.42.38s-.19.44-.42.47c-.23.02-.42-.15-.42-.38s.19-.44.42-.47Z" class="cls-4"/><path d="M38.98 46.97c.23-.02.42.15.42.38s-.19.44-.42.47c-.23.02-.42-.15-.42-.38s.19-.44.42-.47" class="cls-7"/><path d="M38.98 46.97c.23-.02.42.15.42.38s-.19.44-.42.47c-.23.02-.42-.15-.42-.38s.19-.44.42-.47Z" class="cls-4"/><path d="M38.98 44.81c.23-.02.42.15.42.38s-.19.44-.42.47c-.23.02-.42-.15-.42-.38s.19-.44.42-.47" class="cls-7"/><path d="M38.98 44.81c.23-.02.42.15.42.38s-.19.44-.42.47c-.23.02-.42-.15-.42-.38s.19-.44.42-.47Z" class="cls-4"/><path d="M38.98 45.48c.23-.02.42.15.42.38s-.19.44-.42.47c-.23.02-.42-.15-.42-.38s.19-.44.42-.47" class="cls-7"/><path d="M38.98 45.48c.23-.02.42.15.42.38s-.19.44-.42.47c-.23.02-.42-.15-.42-.38s.19-.44.42-.47Z" class="cls-4"/><path d="M38.98 46.21c.23-.02.42.15.42.38s-.19.44-.42.47c-.23.02-.42-.15-.42-.38s.19-.44.42-.47" class="cls-7"/><path d="M38.98 46.21c.23-.02.42.15.42.38s-.19.44-.42.47c-.23.02-.42-.15-.42-.38s.19-.44.42-.47Z" class="cls-4"/><path d="M38.98 49.22c.06 0 .12-.03.17 0s.11.07.15.14c.06.09.04.13.09.15.07.03.15.03.23 0 .34-.09.31.12.15.38-.08.13-.26.27-.35.37s-.1.2-.14.23l-.6.06s-.05-.11-.14-.2-.27-.19-.35-.3c-.16-.22-.2-.42.15-.41.09 0 .17-.02.23-.06.05-.03.03-.06.09-.17.04-.07.09-.13.15-.17.05-.04.11-.02.17-.03" class="cls-17"/><path d="M38.98 49.22c.06 0 .12-.03.17 0s.11.07.15.14c.06.09.04.13.09.15.07.03.15.03.23 0 .34-.09.31.12.15.38-.08.13-.26.27-.35.37s-.1.2-.14.23l-.6.06s-.05-.11-.14-.2-.27-.19-.35-.3c-.16-.22-.2-.42.15-.41.09 0 .17-.02.23-.06.05-.03.03-.06.09-.17.04-.07.09-.13.15-.17.05-.04.11-.02.17-.03" class="cls-4"/><path d="M39.09 50.5c.03-.24.13-.46.29-.67-.19.15-.31.38-.35.69zm-.22.03c-.03-.24-.13-.44-.29-.61.19.11.31.31.35.61z" class="cls-16"/><path d="M38.98 49.22c.06 0 .12-.03.17 0s.11.07.15.14c.06.09.04.13.09.15.07.03.15.03.23 0 .07-.02.12-.03.16-.02-.03.08-.07.17-.13.25-.1.11-.24.05-.44-.06a.4.4 0 0 0-.23-.04c-.09 0-.17.04-.23.08-.2.15-.34.24-.44.15-.07-.06-.1-.15-.13-.22.04-.01.09-.02.16 0 .09 0 .17-.02.23-.06.05-.03.03-.06.09-.17.04-.07.09-.13.15-.17.05-.04.11-.02.17-.03" class="cls-17"/><path d="M38.98 49.22c.06 0 .12-.03.17 0s.11.07.15.14c.06.09.04.13.09.15.07.03.15.03.23 0 .07-.02.12-.03.16-.02-.03.08-.07.17-.13.25-.1.11-.24.05-.44-.06a.4.4 0 0 0-.23-.04c-.09 0-.17.04-.23.08-.2.15-.34.24-.44.15-.07-.06-.1-.15-.13-.22.04-.01.09-.02.16 0 .09 0 .17-.02.23-.06.05-.03.03-.06.09-.17.04-.07.09-.13.15-.17.05-.04.11-.02.17-.03Z" class="cls-4"/><path d="M38.98 50.45c.28-.03.51.18.51.46s-.23.54-.51.57-.51-.18-.51-.46.23-.54.51-.57" class="cls-17"/><path d="M38.98 50.45c.28-.03.51.18.51.46s-.23.54-.51.57-.51-.18-.51-.46.23-.54.51-.57Z" class="cls-4"/><path d="M45.48 55.4c0-.12-.11-.18-.32-.17-4.12.09-8.23.53-12.35 1.29-.22.04-.32.12-.32.24s.11.18.32.17c4.12-.09 8.23-.53 12.35-1.29.22-.04.32-.12.32-.24" class="cls-17"/><path d="M45.48 55.4c0-.12-.11-.18-.32-.17-4.12.09-8.23.53-12.35 1.29-.22.04-.32.12-.32.24s.11.18.32.17c4.12-.09 8.23-.53 12.35-1.29.22-.04.32-.12.32-.24" class="cls-4"/><path d="M38.98 50.46c.28-.03.51.18.51.46s-.23.53-.51.56-.51-.18-.51-.46.23-.53.51-.56" class="cls-10"/><path d="M38.98 50.46c.28-.03.51.18.51.46s-.23.53-.51.56-.51-.18-.51-.46.23-.53.51-.56Z" class="cls-4"/><path d="M38.98 50.59c.21-.02.38.13.38.34s-.17.4-.38.42-.38-.13-.38-.34.17-.4.38-.42" class="cls-10"/><path d="M38.98 50.59c.21-.02.38.13.38.34s-.17.4-.38.42-.38-.13-.38-.34.17-.4.38-.42Z" class="cls-4"/><path d="M38.98 54.26c.37-.04.66.14.66.39s-.3.5-.66.53c-.37.04-.66-.14-.66-.39s.3-.5.66-.53" class="cls-11"/><path d="M38.98 54.26c.37-.04.66.14.66.39s-.3.5-.66.53c-.37.04-.66-.14-.66-.39s.3-.5.66-.53Z" class="cls-3"/><path d="M38.98 50.72c.14-.01.25.08.25.22s-.11.26-.25.27-.25-.08-.25-.22.11-.26.25-.27" class="cls-11"/><path d="M38.98 50.72c.14-.01.25.08.25.22s-.11.26-.25.27-.25-.08-.25-.22.11-.26.25-.27Z" class="cls-3"/><path d="M35.86 56.64c-.47.01-.98.02-1.53.02 3.09-.54 6.19-.87 9.28-.97q-.825.165-1.53.3" class="cls-6"/><path d="M50.17 55.22v18.22c0 2.98-1.33 6.04-3.32 8.37s-4.77 4.08-7.87 4.4-5.88-.84-7.87-2.76c-1.99-1.91-3.32-4.69-3.32-7.68V57.55l22.38-2.34Z" class="cls-15"/><path d="M50.17 55.22v18.22c0 2.98-1.33 6.04-3.32 8.37s-4.77 4.08-7.87 4.4-5.88-.84-7.87-2.76c-1.99-1.91-3.32-4.69-3.32-7.68V57.55l22.38-2.34Z" style="fill:none;stroke:#fff;stroke-width:.2px"/><path d="M38.88 85.15c-.1 0-.26.03-.38-.05-.16-.11-.1-.64-.08-.97.08-1.69.14-4.53.23-8.51.14-.03.24-.03.34-.03.1-.02.2-.05.34-.04.09 3.97.15 6.79.23 8.46.01.33.08.84-.08.99-.12.11-.29.11-.38.13l-.2.02Z" class="cls-12"/><path d="M38.88 85.15c-.1 0-.26.03-.38-.05-.16-.11-.1-.64-.08-.97.08-1.69.14-4.53.23-8.51.14-.03.24-.03.34-.03.1-.02.2-.05.34-.04.09 3.97.15 6.79.23 8.46.01.33.08.84-.08.99-.12.11-.29.11-.38.13l-.2.02Z" class="cls-4"/><path d="M37.83 85.21c.1-.02.26 0 .39-.1.17-.13.19-.67.2-1 .08-1.69.23-4.52.51-8.52-.14-.02-.24 0-.34 0h-.05c-.63 3.99-.87 6.8-1.3 8.52-.06.24-.19.83.01 1 .11.1.28.07.37.09h.2Z" class="cls-12"/><path d="M37.83 85.21c.1-.02.26 0 .39-.1.17-.13.19-.67.2-1 .08-1.69.23-4.52.51-8.52-.14-.02-.24 0-.34 0h-.05c-.63 3.99-.87 6.8-1.3 8.52-.06.24-.19.83.01 1 .11.1.28.07.37.09h.2Z" class="cls-4"/><path d="M36.59 85.16c.1 0 .25.02.39-.06.18-.12.18-.65.26-.97.43-1.72.67-4.53 1.3-8.52a1 1 0 0 0-.33-.02c-1 3.92-1.31 6.64-2.09 8.38-.07.24-.27.87-.08 1.06.1.11.27.1.36.12l.2.02h-.01Z" class="cls-12"/><path d="M36.59 85.16c.1 0 .25.02.39-.06.18-.12.18-.65.26-.97.43-1.72.67-4.53 1.3-8.52a1 1 0 0 0-.33-.02c-1 3.92-1.31 6.64-2.09 8.38-.07.24-.27.87-.08 1.06.1.11.27.1.36.12l.2.02h-.01Z" class="cls-4"/><path d="M35.34 84.94c.1 0 .26.07.41 0 .19-.1.22-.67.36-.98.78-1.75 1.08-4.49 2.1-8.44a1 1 0 0 0-.33-.05c-.09-.03-.07-.05-.21-.06-1.18 3.92-1.56 6.6-2.68 8.35-.18.28-.31.83-.19.98.09.12.25.13.34.16l.19.04Z" class="cls-12"/><path d="M35.34 84.94c.1 0 .26.07.41 0 .19-.1.22-.67.36-.98.78-1.75 1.08-4.49 2.1-8.44a1 1 0 0 0-.33-.05c-.09-.03-.07-.05-.21-.06-1.18 3.92-1.56 6.6-2.68 8.35-.18.28-.31.83-.19.98.09.12.25.13.34.16l.19.04Z" class="cls-4"/><path d="M40.13 84.97c-.1 0-.26.06-.39-.02-.17-.1-.19-.63-.2-.95-.08-1.67-.23-4.47-.51-8.41.14-.05.24-.06.34-.06.02 0 .03-.01.05-.02.63 3.86.87 6.61 1.3 8.25.06.23.19.79-.01 1-.11.12-.28.13-.37.17l-.2.04Z" class="cls-12"/><path d="M40.13 84.97c-.1 0-.26.06-.39-.02-.17-.1-.19-.63-.2-.95-.08-1.67-.23-4.47-.51-8.41.14-.05.24-.06.34-.06.02 0 .03-.01.05-.02.63 3.86.87 6.61 1.3 8.25.06.23.19.79-.01 1-.11.12-.28.13-.37.17l-.2.04Z" class="cls-4"/><path d="M41.37 84.66c-.1.01-.25.08-.39.02-.18-.08-.18-.61-.26-.92-.43-1.63-.67-4.39-1.3-8.25.13-.06.24-.08.33-.09 1 3.71 1.31 6.37 2.09 7.95.07.22.27.81.08 1.05-.1.13-.27.15-.36.2l-.2.06h.01Z" class="cls-12"/><path d="M41.37 84.66c-.1.01-.25.08-.39.02-.18-.08-.18-.61-.26-.92-.43-1.63-.67-4.39-1.3-8.25.13-.06.24-.08.33-.09 1 3.71 1.31 6.37 2.09 7.95.07.22.27.81.08 1.05-.1.13-.27.15-.36.2l-.2.06h.01Z" class="cls-4"/><path d="M42.62 84.18c-.1.02-.26.13-.41.09-.19-.06-.22-.62-.36-.9-.78-1.59-1.08-4.26-2.1-8 .13-.07.23-.1.33-.12.09-.05.07-.07.21-.1 1.18 3.67 1.56 6.27 2.68 7.79.18.25.31.76.19.94-.09.14-.25.18-.34.23l-.19.08Z" class="cls-12"/><path d="M42.62 84.18c-.1.02-.26.13-.41.09-.19-.06-.22-.62-.36-.9-.78-1.59-1.08-4.26-2.1-8 .13-.07.23-.1.33-.12.09-.05.07-.07.21-.1 1.18 3.67 1.56 6.27 2.68 7.79.18.25.31.76.19.94-.09.14-.25.18-.34.23l-.19.08Z" class="cls-4"/><path d="M36 82.01c.09 0 .22.04.36-.04.19-.11.31-.63.41-.96.79-1.64 1.51-4.49 2.69-8.47-.11-.04-.21-.04-.29-.04a.8.8 0 0 0-.29-.05c-1.27 3.95-1.85 6.76-3.09 8.41-.21.27-.36.83-.26.98.07.11.22.11.3.14L36 82Z" class="cls-12"/><path d="M36 82.01c.09 0 .22.04.36-.04.19-.11.31-.63.41-.96.79-1.64 1.51-4.49 2.69-8.47-.11-.04-.21-.04-.29-.04a.8.8 0 0 0-.29-.05c-1.27 3.95-1.85 6.76-3.09 8.41-.21.27-.36.83-.26.98.07.11.22.11.3.14L36 82Z" class="cls-4"/><path d="M37.01 82.1c.09-.01.23.02.36-.07.17-.12.24-.65.3-.98.32-1.69.91-4.54 1.74-8.54-.12-.03-.21-.02-.3-.01-.08-.02-.17-.03-.3-.02-.99 3.99-1.21 6.93-2.15 8.52-.17.29-.27.85-.15.99.09.1.24.09.32.11zv.01Z" class="cls-12"/><path d="M37.01 82.1c.09-.01.23.02.36-.07.17-.12.24-.65.3-.98.32-1.69.91-4.54 1.74-8.54-.12-.03-.21-.02-.3-.01-.08-.02-.17-.03-.3-.02-.99 3.99-1.21 6.93-2.15 8.52-.17.29-.27.85-.15.99.09.1.24.09.32.11h.18v.01Z" class="cls-4"/><path d="M38.04 82.11c.09-.02.23 0 .35-.1.16-.13.16-.66.19-.99.13-1.69.39-4.54.77-8.54-.12-.02-.22 0-.3.01a1 1 0 0 0-.3 0c-.53 4.01-.84 6.9-1.18 8.55-.07.33-.17.86-.04.98.1.09.25.07.33.08h.18Z" class="cls-12"/><path d="M38.04 82.11c.09-.02.23 0 .35-.1.16-.13.16-.66.19-.99.13-1.69.39-4.54.77-8.54-.12-.02-.22 0-.3.01a1 1 0 0 0-.3 0c-.53 4.01-.84 6.9-1.18 8.55-.07.33-.17.86-.04.98.1.09.25.07.33.08h.18Z" class="cls-4"/><path d="M41.96 81.38c-.09.01-.22.08-.36.03-.19-.07-.31-.57-.41-.88-.79-1.48-1.51-4.17-2.69-7.9.11-.06.21-.08.29-.1.08-.04.16-.08.29-.11 1.27 3.68 1.85 6.38 3.09 7.76.21.23.36.76.26.93-.07.13-.22.16-.3.2l-.17.06Z" class="cls-12"/><path d="M41.96 81.38c-.09.01-.22.08-.36.03-.19-.07-.31-.57-.41-.88-.79-1.48-1.51-4.17-2.69-7.9.11-.06.21-.08.29-.1.08-.04.16-.08.29-.11 1.27 3.68 1.85 6.38 3.09 7.76.21.23.36.76.26.93-.07.13-.22.16-.3.2l-.17.06Z" class="cls-4"/><path d="M40.95 81.69c-.09 0-.23.07-.36 0-.17-.08-.24-.6-.3-.92-.32-1.63-.91-4.35-1.74-8.18.12-.05.21-.07.3-.07.08-.04.17-.07.3-.08.99 3.79 1.21 6.67 2.15 8.07.17.25.27.79.15.96-.09.12-.24.14-.32.18l-.18.05Z" class="cls-12"/><path d="M40.95 81.69c-.09 0-.23.07-.36 0-.17-.08-.24-.6-.3-.92-.32-1.63-.91-4.35-1.74-8.18.12-.05.21-.07.3-.07.08-.04.17-.07.3-.08.99 3.79 1.21 6.67 2.15 8.07.17.25.27.79.15.96-.09.12-.24.14-.32.18l-.18.05Z" class="cls-4"/><path d="M39.92 81.91c-.09 0-.23.05-.35-.03-.16-.1-.16-.62-.19-.95-.13-1.67-.39-4.46-.77-8.38.12-.04.22-.05.3-.05.08-.03.17-.06.3-.06.53 3.89.84 6.72 1.18 8.31.07.32.17.82.04.98-.1.12-.25.12-.33.15z" class="cls-12"/><path d="M39.92 81.91c-.09 0-.23.05-.35-.03-.16-.1-.16-.62-.19-.95-.13-1.67-.39-4.46-.77-8.38.12-.04.22-.05.3-.05.08-.03.17-.06.3-.06.53 3.89.84 6.72 1.18 8.31.07.32.17.82.04.98-.1.12-.25.12-.33.15z" class="cls-4"/><path d="M38.89 82.05c-.09 0-.23.03-.34-.06-.15-.11-.09-.64-.08-.97.07-1.69.13-4.52.21-8.51.13-.03.22-.03.3-.03.09-.02.18-.04.3-.04.08 3.97.14 6.79.21 8.46.01.33.07.84-.08.99-.11.11-.26.1-.35.13l-.18.02Z" class="cls-12"/><path d="M38.89 82.05c-.09 0-.23.03-.34-.06-.15-.11-.09-.64-.08-.97.07-1.69.13-4.52.21-8.51.13-.03.22-.03.3-.03.09-.02.18-.04.3-.04.08 3.97.14 6.79.21 8.46.01.33.07.84-.08.99-.11.11-.26.1-.35.13l-.18.02Z" class="cls-4"/><path d="M36.7 79.62c.07 0 .17.04.28-.04.14-.1.23-.63.31-.95.61-1.62 1.16-4.45 2.06-8.4l-.45-.1c-.98 3.91-1.41 6.72-2.37 8.33-.16.27-.27.83-.2.98.06.11.17.12.23.15.04 0 .09.02.13.03Z" class="cls-12"/><path d="M36.7 79.62c.07 0 .17.04.28-.04.14-.1.23-.63.31-.95.61-1.62 1.16-4.45 2.06-8.4l-.45-.1c-.98 3.91-1.41 6.72-2.37 8.33-.16.27-.27.83-.2.98.06.11.17.12.23.15.04 0 .09.02.13.03Z" class="cls-4"/><path d="M37.47 79.74c.07 0 .18.02.28-.06.13-.12.18-.64.23-.97.24-1.69.69-4.52 1.33-8.5l-.46-.05c-.76 3.97-.93 6.9-1.64 8.47-.13.29-.2.84-.11.98.07.11.18.1.24.12.05 0 .09 0 .14.01Z" class="cls-12"/><path d="M37.47 79.74c.07 0 .18.02.28-.06.13-.12.18-.64.23-.97.24-1.69.69-4.52 1.33-8.5l-.46-.05c-.76 3.97-.93 6.9-1.64 8.47-.13.29-.2.84-.11.98.07.11.18.1.24.12.05 0 .09 0 .14.01Z" class="cls-4"/><path d="M38.26 79.77c.07-.02.18 0 .27-.09.12-.13.13-.65.14-.98.1-1.69.3-4.53.59-8.52h-.46c-.41 3.99-.65 6.88-.91 8.52-.05.33-.13.85-.03.98.08.1.19.08.25.09h.14Z" class="cls-12"/><path d="M38.26 79.77c.07-.02.18 0 .27-.09.12-.13.13-.65.14-.98.1-1.69.3-4.53.59-8.52h-.46c-.41 3.99-.65 6.88-.91 8.52-.05.33-.13.85-.03.98.08.1.19.08.25.09h.14Z" class="cls-4"/><path d="M41.26 79.14c-.07.01-.17.08-.28.02-.14-.07-.23-.58-.31-.89-.61-1.5-1.16-4.21-2.06-7.97l.45-.19c.98 3.71 1.41 6.42 2.37 7.84.16.23.27.77.2.93-.06.13-.17.15-.23.19-.04.02-.09.04-.13.06Z" class="cls-12"/><path d="M41.26 79.14c-.07.01-.17.08-.28.02-.14-.07-.23-.58-.31-.89-.61-1.5-1.16-4.21-2.06-7.97l.45-.19c.98 3.71 1.41 6.42 2.37 7.84.16.23.27.77.2.93-.06.13-.17.15-.23.19-.04.02-.09.04-.13.06Z" class="cls-4"/><path d="M40.49 79.42c-.07 0-.18.06-.28 0-.13-.09-.18-.6-.23-.92-.24-1.64-.69-4.38-1.33-8.22l.46-.14c.76 3.81.93 6.7 1.64 8.12.13.26.2.8.11.96-.07.12-.18.13-.24.17-.05.01-.09.03-.14.04Z" class="cls-12"/><path d="M40.49 79.42c-.07 0-.18.06-.28 0-.13-.09-.18-.6-.23-.92-.24-1.64-.69-4.38-1.33-8.22l.46-.14c.76 3.81.93 6.7 1.64 8.12.13.26.2.8.11.96-.07.12-.18.13-.24.17-.05.01-.09.03-.14.04Z" class="cls-4"/><path d="M39.7 79.62c-.07 0-.18.04-.27-.04-.12-.1-.13-.63-.14-.95-.1-1.67-.3-4.47-.59-8.4l.46-.1c.41 3.91.65 6.74.91 8.34.05.32.13.83.03.98-.08.11-.19.12-.25.15-.05 0-.09.02-.14.03Z" class="cls-12"/><path d="M39.7 79.62c-.07 0-.18.04-.27-.04-.12-.1-.13-.63-.14-.95-.1-1.67-.3-4.47-.59-8.4l.46-.1c.41 3.91.65 6.74.91 8.34.05.32.13.83.03.98-.08.11-.19.12-.25.15-.05 0-.09.02-.14.03Z" class="cls-4"/><path d="M38.91 79.74c-.07 0-.18.02-.26-.06-.11-.12-.07-.64-.06-.97.05-1.69.1-4.52.16-8.5l.47-.05c.06 3.97.11 6.79.16 8.47.01.33.06.84-.06.98-.09.11-.2.1-.26.12h-.14Z" class="cls-12"/><path d="M38.91 79.74c-.07 0-.18.02-.26-.06-.11-.12-.07-.64-.06-.97.05-1.69.1-4.52.16-8.5l.47-.05c.06 3.97.11 6.79.16 8.47.01.33.06.84-.06.98-.09.11-.2.1-.26.12h-.14Z" class="cls-4"/><path d="M40.18 74.43c0 .32-.79 3.76-1.2 3.8s-1.2-3.23-1.2-3.55z" class="cls-12"/><path d="M40.18 74.43c0 .32-.79 3.76-1.2 3.8s-1.2-3.23-1.2-3.55z" class="cls-4"/><path d="M44.42 78.15s.04.04.05.06c.07.19.32.5.52.67.31.28.23.77.03 1.06-.22.31-.34.65-.39.88-.03.17-.08.51-.04 1.04.02.26.18.37.32.48.07.05-.05.22-.29.43-.03.02-.09.07-.13.21 0 .02-.13.03-.13.01-.04-.14-.11-.17-.13-.18-.24-.15-.36-.3-.29-.37.15-.13.3-.28.32-.54.04-.53 0-.87-.04-1.03a1.96 1.96 0 0 0-.39-.8c-.2-.24-.29-.72.03-1.06.2-.22.46-.58.52-.78 0-.02.03-.07.05-.07Z" class="cls-17"/><path d="M44.42 78.15s.04.04.05.06c.07.19.32.5.52.67.31.28.23.77.03 1.06-.22.31-.34.65-.39.88-.03.17-.08.51-.04 1.04.02.26.18.37.32.48.07.05-.05.22-.29.43-.03.02-.09.07-.13.21 0 .02-.13.03-.13.01-.04-.14-.11-.17-.13-.18-.24-.15-.36-.3-.29-.37.15-.13.3-.28.32-.54.04-.53 0-.87-.04-1.03a1.96 1.96 0 0 0-.39-.8c-.2-.24-.29-.72.03-1.06.2-.22.46-.58.52-.78 0-.02.03-.07.05-.07Z" class="cls-4"/><path d="M45.26 82.25c-.53.45-1.02-.45-.54-1.77.36-.99 2.08-.77 1.1.58-.05.06-.11.04-.1-.02.05-.27-.09-.41-.37-.33-.7.21-.72 1.53.04 1.16.14-.03 0 .27-.13.38" class="cls-17"/><path d="M45.26 82.25c-.53.45-1.02-.45-.54-1.77.36-.99 2.08-.77 1.1.58-.05.06-.11.04-.1-.02.05-.27-.09-.41-.37-.33-.7.21-.72 1.53.04 1.16.14-.03 0 .27-.13.38" class="cls-4"/><path d="M43.58 82.43c.53.34 1.02-.66.54-1.89-.36-.92-2.08-.34-1.1.81.05.05.11.02.1-.04-.05-.26.09-.43.37-.4.7.06.72 1.38-.04 1.16-.14 0 0 .27.13.36" class="cls-17"/><path d="M43.58 82.43c.53.34 1.02-.66.54-1.89-.36-.92-2.08-.34-1.1.81.05.05.11.02.1-.04-.05-.26.09-.43.37-.4.7.06.72 1.38-.04 1.16-.14 0 0 .27.13.36" class="cls-4"/><path d="M44.02 81.34c-.13.01-.23.13-.23.26s.1.22.23.21l.8-.08c.13-.01.23-.13.23-.26s-.1-.22-.23-.21z" class="cls-17"/><path d="M44.02 81.34c-.13.01-.23.13-.23.26s.1.22.23.21l.8-.08c.13-.01.23-.13.23-.26s-.1-.22-.23-.21z" class="cls-4"/><path d="M44.82 75.33c.33.69.73 1.32 1.13 1.87.2.05.33.13.46.16s1.06-.08 1.09-.15c.3-.26.76-.11.56.17.13.12-.13.5-.33.37s-.86.09-1.06.04c.07.19.73.24 1.13.21s.33.36.2.71l-.13.08c-.13.28-.52.24-.53-.01s-.93-.5-1.06-.68c.13.38.53.74.73 1.12.2.18.33.16.07.59l-.46.11c-.4.04-.46-.08-.4-.42.07-.34-.25-.9-.33-1.07-.08-.15-.1-.31-.18-.4-.14-.17-.85-.4-1.01-.3-.33.21-.56.13-.6-.2.07-.07 0-.53.24-.6.2-.05.29.04.46.15.27.18.41.29.49.26.21-.08-.38-.3-.91-.95s-.74-1.67.45-1.07Z" class="cls-17"/><path d="M44.82 75.33c.33.69.73 1.32 1.13 1.87.2.05.33.13.46.16s1.06-.08 1.09-.15c.3-.26.76-.11.56.17.13.12-.13.5-.33.37s-.86.09-1.06.04c.07.19.73.24 1.13.21s.33.36.2.71l-.13.08c-.13.28-.52.24-.53-.01s-.93-.5-1.06-.68c.13.38.53.74.73 1.12.2.18.33.16.07.59l-.46.11c-.4.04-.46-.08-.4-.42.07-.34-.25-.9-.33-1.07-.08-.15-.1-.31-.18-.4-.14-.17-.85-.4-1.01-.3-.33.21-.56.13-.6-.2.07-.07 0-.53.24-.6.2-.05.29.04.46.15.27.18.41.29.49.26.21-.08-.38-.3-.91-.95s-.74-1.67.45-1.07Z" class="cls-4"/><path d="M48.06 77.54c.27-.18.42-.19.52-.09.06.06.13.02.09-.08-.18-.4-.46-.42-.71-.2-.07.07-.13.14-.18.2.04.06.25.12.29.17Z" class="cls-17"/><path d="M48.06 77.54c.27-.18.42-.19.52-.09.06.06.13.02.09-.08-.18-.4-.46-.42-.71-.2-.07.07-.13.14-.18.2.04.06.25.12.29.17Z" class="cls-4"/><path d="M44.25 77.57c-.28-.16-.55-.17-.69-.05-.08.07-.16.03-.09-.07.29-.44.64-.5.9-.29.07.07.13.13.18.19-.09.11-.28.24-.3.23Z" class="cls-17"/><path d="M44.25 77.57c-.28-.16-.55-.17-.69-.05-.08.07-.16.03-.09-.07.29-.44.64-.5.9-.29.07.07.13.13.18.19-.09.11-.28.24-.3.23Z" class="cls-4"/><path d="M46.47 79.7s.06-.37.18-.49c.09.06.19.12.28.2.28.27.28.7-.16 1.13-.11.11-.16.01-.11-.1.08-.19-.02-.42-.19-.74" class="cls-17"/><path d="M46.47 79.7s.06-.37.18-.49c.09.06.19.12.28.2.28.27.28.7-.16 1.13-.11.11-.16.01-.11-.1.08-.19-.02-.42-.19-.74Z" class="cls-4"/><path d="M47.57 78.68c.26.08.35.21.34.39 0 .1.06.13.1.01.32-.78-.01-.88-.49-.81-.03.13.04.4.05.4Z" class="cls-17"/><path d="M47.57 78.68c.26.08.35.21.34.39 0 .1.06.13.1.01.32-.78-.01-.88-.49-.81-.03.13.04.4.05.4Z" class="cls-4"/><path d="M44.04 75.93c.13-.13.26-.27.38-.14.13.13.06.28-.13.49.12-.09.27-.37.4-.2s.01.34-.13.51c.15-.14.27-.35.4-.2s0 .32-.12.45c.13-.12.27-.23.34-.15.12.13.02.23-.11.36.15-.12.25-.24.35-.13.11.11-.03.27-.11.33" class="cls-6"/><path d="M44.06 66.98c-.01.58.09 4.4.12 4.94s.27.88.53 1.06c.23-.35.37-.79.41-1.31.02-.26-.03-3.89-.05-4.64l-1-.06Z" class="cls-12"/><path d="M44.06 66.98c-.01.58.09 4.4.12 4.94s.27.88.53 1.06c.23-.35.37-.79.41-1.31.02-.26-.03-3.89-.05-4.64l-1-.06Z" class="cls-4"/><path d="m46.56 65.78.16 5.26c.05.46-.56 3.31-.89 3.9-.82-.27-1-2.14-.84-4s-.03-3.43-.15-3.75z" class="cls-12"/><path d="m46.56 65.78.16 5.26c.05.46-.56 3.31-.89 3.9-.82-.27-1-2.14-.84-4s-.03-3.43-.15-3.75z" class="cls-4"/><path d="m47.53 66.54-.11 5.29c.03.47-.73 3.29-1.09 3.86-.84-.56-.67-3.23-.54-4.05.26-1.63.21-3.48.12-3.77l1.62-1.34Z" class="cls-12"/><path d="m47.53 66.54-.11 5.29c.03.47-.73 3.29-1.09 3.86-.84-.56-.67-3.23-.54-4.05.26-1.63.21-3.48.12-3.77l1.62-1.34Z" class="cls-4"/><path d="m48.26 67.72-1.39.11c.12.56.02 2.36-.22 3.75-.22 1.3-.54 4.65.79 5.31.83-1.84.2-3.47.61-5.03l.2-4.13Z" class="cls-12"/><path d="m48.26 67.72-1.39.11c.12.56.02 2.36-.22 3.75-.22 1.3-.54 4.65.79 5.31.83-1.84.2-3.47.61-5.03l.2-4.13Z" class="cls-4"/><path d="m42.96 66.13.27 4.92c.05.53.3.87.56 1.04.22-.35.35-.8.37-1.32 0-.26-.15-3.88-.19-4.62l-1.01-.03Z" class="cls-12"/><path d="m42.96 66.13.27 4.92c.05.53.3.87.56 1.04.22-.35.35-.8.37-1.32 0-.26-.15-3.88-.19-4.62l-1.01-.03Z" class="cls-4"/><path d="M45.42 62.75c.04 1.23.06 3.91.05 4.14-.02.52-.22 1.19-.44 1.55-.26-.18-.51-.51-.56-1.04-.04-.44-.05-2.61-.06-3.7l1.01-.94Z" class="cls-12"/><path d="M45.42 62.75c.04 1.23.06 3.91.05 4.14-.02.52-.22 1.19-.44 1.55-.26-.18-.51-.51-.56-1.04-.04-.44-.05-2.61-.06-3.7l1.01-.94Z" class="cls-4"/><path d="M44.43 63.65c.02 1.33.01 3.43 0 3.6-.02.52-.14.97-.37 1.32a1.41 1.41 0 0 1-.59-1.05c-.03-.33-.12-1.74-.13-2.83l1.08-1.04Z" class="cls-12"/><path d="M44.43 63.65c.02 1.33.01 3.43 0 3.6-.02.52-.14.97-.37 1.32a1.41 1.41 0 0 1-.59-1.05c-.03-.33-.12-1.74-.13-2.83l1.08-1.04Z" class="cls-4"/><path d="m45.28 62.65.94-1.46c.19.65.42 5.44.15 5.87-.02.52-.2.97-.43 1.33-.26-.18-.65-.5-.54-1.06s-.01-4.13-.13-4.68Z" class="cls-12"/><path d="m45.28 62.65.94-1.46c.19.65.42 5.44.15 5.87-.02.52-.2.97-.43 1.33-.26-.18-.65-.5-.54-1.06s-.01-4.13-.13-4.68Z" class="cls-4"/><path d="m47.22 65.48.06 1.51c-.02.52-.14.97-.37 1.32-.26-.18-.59-.5-.56-1.04.13-2.1-.1-4.04-.36-5.9l.83-.59.4 4.71Z" class="cls-12"/><path d="m47.22 65.48.06 1.51c-.02.52-.14.97-.37 1.32-.26-.18-.59-.5-.56-1.04.13-2.1-.1-4.04-.36-5.9l.83-.59.4 4.71Z" class="cls-4"/><path d="m48.16 66.74-.26 1c-.02.52-.34.98-.56 1.33-.26-.18-.5-.48-.43-1.03.38-3.12.25-5.14-.4-7.59 1.46.84 2.14 2.88 1.65 6.29" class="cls-12"/><path d="m48.16 66.74-.26 1c-.02.52-.34.98-.56 1.33-.26-.18-.5-.48-.43-1.03.38-3.12.25-5.14-.4-7.59 1.46.84 2.14 2.88 1.65 6.29Z" class="cls-4"/><path d="m48.09 67.7 1.34-.59c.17 1.32-.09 3.03-.45 5.29-.31 1.94-.15 3.43.09 4.37-1.43-.05-2.04-1.83-1.32-5.37.19-.93.38-2.11.34-3.71Z" class="cls-12"/><path d="m48.09 67.7 1.34-.59c.17 1.32-.09 3.03-.45 5.29-.31 1.94-.15 3.43.09 4.37-1.43-.05-2.04-1.83-1.32-5.37.19-.93.38-2.11.34-3.71Z" class="cls-4"/><path d="M47.57 61.56c.33 1.58.55 3.45.3 5.55-.09.78-.26 1.43-.5 1.94.97-.21 1.58-1.22 1.5-2.85l-.22-4.57-1.09-.07Z" class="cls-12"/><path d="M47.57 61.56c.33 1.58.55 3.45.3 5.55-.09.78-.26 1.43-.5 1.94.97-.21 1.58-1.22 1.5-2.85l-.22-4.57-1.09-.07Z" class="cls-4"/><path d="M48.27 61.7c.07.41.32.88.37 1.4.17 1.75.17 3.95-.36 5.42.97-.21 1.3-1.12 1.33-2.77.03-1.36.03-2.97-.31-4.79l-1.03.73Z" class="cls-12"/><path d="M48.27 61.7c.07.41.32.88.37 1.4.17 1.75.17 3.95-.36 5.42.97-.21 1.3-1.12 1.33-2.77.03-1.36.03-2.97-.31-4.79l-1.03.73Z" class="cls-4"/><path d="m46.26 61.51.89-.2c.16.83.29 1.41.32 1.7.06.58-.12 1.14-.32 1.56-.33-.16-.48-.58-.62-1.17l-.27-1.9Z" class="cls-12"/><path d="m46.26 61.51.89-.2c.16.83.29 1.41.32 1.7.06.58-.12 1.14-.32 1.56-.33-.16-.48-.58-.62-1.17l-.27-1.9Z" class="cls-4"/><path d="m43.95 63.65.79-.07c.03.72.05 1.21.03 1.47-.03.5-.15.94-.37 1.28-.24-.18-.47-.5-.5-1.03-.04-.52.04-1.09.04-1.65Z" class="cls-12"/><path d="m43.95 63.65.79-.07c.03.72.05 1.21.03 1.47-.03.5-.15.94-.37 1.28-.24-.18-.47-.5-.5-1.03-.04-.52.04-1.09.04-1.65Z" class="cls-4"/><path d="M43.89 64.07c0 .73 0 1.22-.02 1.48-.04.51-.18.94-.41 1.28-.23-.18-.45-.52-.47-1.05l.89-1.71Z" class="cls-12"/><path d="M43.89 64.07c0 .73 0 1.22-.02 1.48-.04.51-.18.94-.41 1.28-.23-.18-.45-.52-.47-1.05l.89-1.71Z" class="cls-4"/><path d="m44.76 63.16.79-.14c.09.71.15 1.2.15 1.45.02.5-.07.94-.26 1.3-.26-.15-.51-.46-.59-.97s-.05-1.08-.09-1.64" class="cls-12"/><path d="m44.76 63.16.79-.14c.09.71.15 1.2.15 1.45.02.5-.07.94-.26 1.3-.26-.15-.51-.46-.59-.97s-.05-1.08-.09-1.64Z" class="cls-4"/><path d="M46.36 61.78c.15.57.35 2.47 0 3.32-.29-.17-.58-.5-.68-1.07s-.13-1.19-.18-1.8l.87-.45Z" class="cls-12"/><path d="M46.36 61.78c.15.57.35 2.47 0 3.32-.29-.17-.58-.5-.68-1.07s-.13-1.19-.18-1.8l.87-.45Z" class="cls-4"/><path d="m43.27 73.65 1.31.54c.38.79.73 1.2 1.19 1.54-.65.19-1.21.12-1.57-.32-.48-.6-.74-.96-.9-1.03l-.03-.72Z" class="cls-12"/><path d="m43.27 73.65 1.31.54c.38.79.73 1.2 1.19 1.54-.65.19-1.21.12-1.57-.32-.48-.6-.74-.96-.9-1.03l-.03-.72Z" class="cls-4"/><path d="M43.54 74.11c.32.62.54 1.04.63 1.27.18.45.23.89.14 1.28-.32-.05-.68-.24-.93-.68z" class="cls-12"/><path d="M43.54 74.11c.32.62.54 1.04.63 1.27.18.45.23.89.14 1.28-.32-.05-.68-.24-.93-.68z" class="cls-4"/><path d="M43.37 74.33c.15.7.26 1.17.29 1.42.06.49 0 .94-.18 1.31-.29-.13-.59-.4-.72-.9s-.14-1.07-.23-1.61z" class="cls-12"/><path d="M43.37 74.33c.15.7.26 1.17.29 1.42.06.49 0 .94-.18 1.31-.29-.13-.59-.4-.72-.9s-.14-1.07-.23-1.61z" class="cls-4"/><path d="M41.67 74.94c.44.75.58 1.29.63 1.88.49-.5.72-1.05.55-1.61-.23-.75-.45-1.62-.43-1.8l-.74 1.53Z" class="cls-12"/><path d="M41.67 74.94c.44.75.58 1.29.63 1.88.49-.5.72-1.05.55-1.61-.23-.75-.45-1.62-.43-1.8l-.74 1.53Z" class="cls-4"/><path d="M42.99 72.72c.28.64.47 1.07.55 1.31.15.46.17.91.07 1.29-.31-.07-.71-.23-.93-.68-.22-.46-.3-1.05-.49-1.55z" class="cls-12"/><path d="M42.99 72.72c.28.64.47 1.07.55 1.31.15.46.17.91.07 1.29-.31-.07-.71-.23-.93-.68-.22-.46-.3-1.05-.49-1.55z" class="cls-4"/><path d="M42.9 71.37c.18-.07.43.34.67.56.06.05.12.1.17.17.1.14.18.31.23.5.2.87.49 1.3.85 1.74-.67.06-1.18-.13-1.44-.65-.34-.7-.51-1.12-.65-1.22l.18-1.11Z" class="cls-12"/><path d="M42.9 71.37c.18-.07.43.34.67.56.06.05.12.1.17.17.1.14.18.31.23.5.2.87.49 1.3.85 1.74-.67.06-1.18-.13-1.44-.65-.34-.7-.51-1.12-.65-1.22l.18-1.11Z" class="cls-4"/><path d="M40.91 75.83c-.56.78-.79 1.32-.93 1.92-.41-.48-.55-1.02-.29-1.59.96-1.21.96-1.2 1.22-.33" class="cls-12"/><path d="M40.91 75.83c-.56.78-.79 1.32-.93 1.92-.41-.48-.55-1.02-.29-1.59.96-1.21.96-1.2 1.22-.33Z" class="cls-4"/><path d="M40.76 75.32c-.56.78-1.15 1.38-1.29 1.98-.41-.48-.59-1.02-.32-1.58l1.61-.39Z" class="cls-12"/><path d="M40.76 75.32c-.56.78-1.15 1.38-1.29 1.98-.41-.48-.59-1.02-.32-1.58l1.61-.39Z" class="cls-4"/><path d="M41.79 74.98c-.56.78-.79 1.32-.93 1.92-.41-.48-.55-1.02-.29-1.59z" class="cls-12"/><path d="M41.79 74.98c-.56.78-.79 1.32-.93 1.92-.41-.48-.55-1.02-.29-1.59z" class="cls-4"/><path d="M33.54 79.29s-.04.05-.05.07c-.07.21-.32.56-.52.78-.31.34-.23.82-.03 1.06.22.27.34.57.39.8.03.16.08.5.04 1.03-.02.27-.18.41-.32.54-.07.07.05.21.29.37.03.02.09.05.13.19 0 .02.13 0 .13-.01.04-.14.11-.19.13-.21.24-.2.36-.38.29-.43-.15-.1-.3-.21-.32-.48-.04-.53 0-.87.04-1.04.05-.24.17-.57.39-.88.2-.29.29-.78-.03-1.06-.2-.18-.46-.48-.52-.67 0-.02-.03-.06-.05-.06Z" class="cls-17"/><path d="M33.54 79.29s-.04.05-.05.07c-.07.21-.32.56-.52.78-.31.34-.23.82-.03 1.06.22.27.34.57.39.8.03.16.08.5.04 1.03-.02.27-.18.41-.32.54-.07.07.05.21.29.37.03.02.09.05.13.19 0 .02.13 0 .13-.01.04-.14.11-.19.13-.21.24-.2.36-.38.29-.43-.15-.1-.3-.21-.32-.48-.04-.53 0-.87.04-1.04.05-.24.17-.57.39-.88.2-.29.29-.78-.03-1.06-.2-.18-.46-.48-.52-.67 0-.02-.03-.06-.05-.06Z" class="cls-4"/><path d="M32.7 83.57c.53.34 1.02-.66.54-1.89-.36-.92-2.08-.34-1.1.81.05.05.11.02.1-.04-.05-.26.09-.43.37-.4.7.06.72 1.38-.04 1.16-.14 0 0 .27.13.36" class="cls-17"/><path d="M32.7 83.57c.53.34 1.02-.66.54-1.89-.36-.92-2.08-.34-1.1.81.05.05.11.02.1-.04-.05-.26.09-.43.37-.4.7.06.72 1.38-.04 1.16-.14 0 0 .27.13.36" class="cls-4"/><path d="M34.39 83.39c-.53.45-1.02-.45-.54-1.77.36-.99 2.08-.77 1.1.58-.05.06-.11.04-.1-.02.05-.27-.09-.41-.37-.33-.7.21-.72 1.53.04 1.16.14-.03 0 .27-.13.38" class="cls-17"/><path d="M34.39 83.39c-.53.45-1.02-.45-.54-1.77.36-.99 2.08-.77 1.1.58-.05.06-.11.04-.1-.02.05-.27-.09-.41-.37-.33-.7.21-.72 1.53.04 1.16.14-.03 0 .27-.13.38" class="cls-4"/><path d="M33.94 82.4c.13-.01.23.08.23.21s-.1.24-.23.26l-.8.08c-.13.01-.23-.08-.23-.21s.1-.24.23-.26z" class="cls-17"/><path d="M33.94 82.4c.13-.01.23.08.23.21s-.1.24-.23.26l-.8.08c-.13.01-.23-.08-.23-.21s.1-.24.23-.26z" class="cls-4"/><path d="M33.14 76.55c-.33.76-.73 1.47-1.13 2.11-.2.09-.33.2-.46.25s-1.06.14-1.09.07c-.3-.2-.76.05-.56.29-.13.15.13.48.33.3s.86-.09 1.06-.18c-.07.21-.73.39-1.13.45s-.33.43-.2.75l.13.05c.13.25.52.13.53-.12s.93-.69 1.06-.91c-.13.41-.53.85-.73 1.27-.2.22-.33.23-.07.6l.46.02c.4-.04.46-.18.4-.51s.25-.95.33-1.14c.08-.17.1-.34.18-.44.14-.2.85-.58 1.01-.51.33.14.56 0 .6-.33-.07-.06 0-.53-.24-.55-.2-.01-.29.1-.46.25-.27.24-.41.37-.49.36-.21-.03.38-.38.91-1.14s.74-1.83-.45-.97Z" class="cls-17"/><path d="M33.14 76.55c-.33.76-.73 1.47-1.13 2.11-.2.09-.33.2-.46.25s-1.06.14-1.09.07c-.3-.2-.76.05-.56.29-.13.15.13.48.33.3s.86-.09 1.06-.18c-.07.21-.73.39-1.13.45s-.33.43-.2.75l.13.05c.13.25.52.13.53-.12s.93-.69 1.06-.91c-.13.41-.53.85-.73 1.27-.2.22-.33.23-.07.6l.46.02c.4-.04.46-.18.4-.51s.25-.95.33-1.14c.08-.17.1-.34.18-.44.14-.2.85-.58 1.01-.51.33.14.56 0 .6-.33-.07-.06 0-.53-.24-.55-.2-.01-.29.1-.46.25-.27.24-.41.37-.49.36-.21-.03.38-.38.91-1.14s.74-1.83-.45-.97Z" class="cls-4"/><path d="M29.9 79.44c-.27-.13-.42-.11-.52.02-.06.07-.13.04-.09-.06.18-.44.46-.52.71-.35.07.06.13.11.18.16-.04.07-.25.18-.29.23Z" class="cls-17"/><path d="M29.9 79.44c-.27-.13-.42-.11-.52.02-.06.07-.13.04-.09-.06.18-.44.46-.52.71-.35.07.06.13.11.18.16-.04.07-.25.18-.29.23Z" class="cls-4"/><path d="M33.71 78.67c.28-.22.55-.29.69-.19.08.05.16 0 .09-.09-.29-.38-.64-.37-.9-.11-.07.08-.13.15-.18.23.09.09.28.18.3.17Z" class="cls-17"/><path d="M33.71 78.67c.28-.22.55-.29.69-.19.08.05.16 0 .09-.09-.29-.38-.64-.37-.9-.11-.07.08-.13.15-.18.23.09.09.28.18.3.17Z" class="cls-4"/><path d="M31.49 81.27s-.06-.35-.18-.45c-.09.08-.19.15-.28.26-.28.32-.28.76.16 1.09.11.08.16-.02.11-.12-.08-.18.02-.42.19-.78" class="cls-17"/><path d="M31.49 81.27s-.06-.35-.18-.45c-.09.08-.19.15-.28.26-.28.32-.28.76.16 1.09.11.08.16-.02.11-.12-.08-.18.02-.42.19-.78Z" class="cls-4"/><path d="M30.39 80.48c-.26.14-.35.28-.34.46 0 .1-.06.14-.1.03-.32-.71.01-.89.49-.91.03.13-.04.41-.05.41Z" class="cls-17"/><path d="M30.39 80.48c-.26.14-.35.28-.34.46 0 .1-.06.14-.1.03-.32-.71.01-.89.49-.91.03.13-.04.41-.05.41Z" class="cls-4"/><path d="M33.92 76.99c-.13-.11-.26-.22-.38-.06-.13.16-.06.29.13.46-.12-.07-.27-.32-.4-.12s-.01.35.13.48c-.15-.11-.27-.29-.4-.12s0 .32.12.43c-.13-.09-.27-.18-.34-.08-.12.15-.02.23.11.34-.15-.09-.25-.19-.35-.06-.11.13.03.26.11.31" class="cls-6"/><path d="M33.9 68.05c.01.57-.09 4.42-.12 4.97-.03.54-.27.94-.53 1.17-.23-.3-.37-.72-.41-1.23-.02-.26.03-3.9.05-4.65l1-.27Z" class="cls-12"/><path d="M33.9 68.05c.01.57-.09 4.42-.12 4.97-.03.54-.27.94-.53 1.17-.23-.3-.37-.72-.41-1.23-.02-.26.03-3.9.05-4.65l1-.27Z" class="cls-4"/><path d="m31.4 67.37-.16 5.29c-.05.47.56 3.2.89 3.71.82-.44 1-2.35.84-4.17-.16-1.83.03-3.43.15-3.78z" class="cls-12"/><path d="m31.4 67.37-.16 5.29c-.05.47.56 3.2.89 3.71.82-.44 1-2.35.84-4.17-.16-1.83.03-3.43.15-3.78z" class="cls-4"/><path d="m30.43 68.34.11 5.27c-.03.47.73 3.14 1.09 3.64.84-.74.67-3.37.54-4.16-.26-1.57-.21-3.43-.12-3.74l-1.62-1Z" class="cls-12"/><path d="m30.43 68.34.11 5.27c-.03.47.73 3.14 1.09 3.64.84-.74.67-3.37.54-4.16-.26-1.57-.21-3.43-.12-3.74l-1.62-1Z" class="cls-4"/><path d="m29.7 69.66 1.39-.18c-.12.59-.02 2.37.22 3.7.22 1.25.54 4.54-.79 5.47-.83-1.66-.2-3.43-.61-4.9l-.2-4.09Z" class="cls-12"/><path d="m29.7 69.66 1.39-.18c-.12.59-.02 2.37.22 3.7.22 1.25.54 4.54-.79 5.47-.83-1.66-.2-3.43-.61-4.9l-.2-4.09Z" class="cls-4"/><path d="m35 66.96-.27 4.98c-.05.54-.3.93-.56 1.16-.22-.31-.35-.73-.37-1.24 0-.26.15-3.91.19-4.66z" class="cls-12"/><path d="m35 66.96-.27 4.98c-.05.54-.3.93-.56 1.16-.22-.31-.35-.73-.37-1.24 0-.26.15-3.91.19-4.66z" class="cls-4"/><path d="M32.54 64.09c-.04 1.24-.06 3.93-.05 4.15.02.51.22 1.15.44 1.45.26-.23.51-.62.56-1.16.04-.45.05-2.62.06-3.71z" class="cls-12"/><path d="M32.54 64.09c-.04 1.24-.06 3.93-.05 4.15.02.51.22 1.15.44 1.45.26-.23.51-.62.56-1.16.04-.45.05-2.62.06-3.71z" class="cls-4"/><path d="M33.53 64.79c-.02 1.33-.01 3.43 0 3.6.02.51.14.94.37 1.24.26-.23.54-.63.59-1.18.03-.33.12-1.77.13-2.86l-1.08-.81Z" class="cls-12"/><path d="M33.53 64.79c-.02 1.33-.01 3.43 0 3.6.02.51.14.94.37 1.24.26-.23.54-.63.59-1.18.03-.33.12-1.77.13-2.86l-1.08-.81Z" class="cls-4"/><path d="m32.68 63.97-.94-1.26c-.19.69-.42 5.53-.15 5.9.02.51.2.93.43 1.24.26-.23.65-.64.54-1.17s.01-4.13.13-4.7Z" class="cls-12"/><path d="m32.68 63.97-.94-1.26c-.19.69-.42 5.53-.15 5.9.02.51.2.93.43 1.24.26-.23.65-.64.54-1.17s.01-4.13.13-4.7Z" class="cls-4"/><path d="m30.74 67.2-.06 1.52c.02.51.14.94.37 1.24.26-.23.59-.62.56-1.16-.13-2.07.1-4.06.36-5.98l-.83-.42-.4 4.79Z" class="cls-12"/><path d="m30.74 67.2-.06 1.52c.02.51.14.94.37 1.24.26-.23.59-.62.56-1.16-.13-2.07.1-4.06.36-5.98l-.83-.42-.4 4.79Z" class="cls-4"/><path d="m29.8 68.66.26.94c.02.51.34.91.56 1.21.26-.23.5-.59.43-1.12-.38-3.04-.25-5.09.4-7.67-1.46 1.15-2.14 3.33-1.65 6.63Z" class="cls-12"/><path d="m29.8 68.66.26.94c.02.51.34.91.56 1.21.26-.23.5-.59.43-1.12-.38-3.04-.25-5.09.4-7.67-1.46 1.15-2.14 3.33-1.65 6.63Z" class="cls-4"/><path d="m29.87 69.61-1.34-.31c-.17 1.36.09 3.02.45 5.2.31 1.87.15 3.4-.09 4.39 1.43-.35 2.04-2.25 1.32-5.65-.19-.89-.38-2.03-.34-3.64Z" class="cls-12"/><path d="m29.87 69.61-1.34-.31c-.17 1.36.09 3.02.45 5.2.31 1.87.15 3.4-.09 4.39 1.43-.35 2.04-2.25 1.32-5.65-.19-.89-.38-2.03-.34-3.64Z" class="cls-4"/><path d="M30.39 63.36c-.33 1.64-.55 3.56-.3 5.62.09.76.26 1.38.5 1.84-.97 0-1.58-.89-1.5-2.54l.22-4.62 1.09-.3Z" class="cls-12"/><path d="M30.39 63.36c-.33 1.64-.55 3.56-.3 5.62.09.76.26 1.38.5 1.84-.97 0-1.58-.89-1.5-2.54l.22-4.62 1.09-.3Z" class="cls-4"/><path d="M29.69 63.64c-.07.42-.32.94-.37 1.48-.17 1.78-.17 3.99.36 5.35-.97 0-1.3-.85-1.33-2.49-.03-1.36-.03-2.96.31-4.85l1.03.52Z" class="cls-12"/><path d="M29.69 63.64c-.07.42-.32.94-.37 1.48-.17 1.78-.17 3.99.36 5.35-.97 0-1.3-.85-1.33-2.49-.03-1.36-.03-2.96.31-4.85l1.03.52Z" class="cls-4"/><path d="M31.7 63.04h-.89c-.16.85-.29 1.46-.32 1.76-.06.59.12 1.12.32 1.5.33-.23.48-.68.62-1.3l.27-1.95Z" class="cls-12"/><path d="M31.7 63.04h-.89c-.16.85-.29 1.46-.32 1.76-.06.59.12 1.12.32 1.5.33-.23.48-.68.62-1.3l.27-1.95Z" class="cls-4"/><path d="m34.01 64.69-.79.09c-.03.73-.05 1.22-.03 1.48.03.5.15.91.37 1.21.24-.23.47-.6.5-1.13.04-.53-.04-1.09-.04-1.65Z" class="cls-12"/><path d="m34.01 64.69-.79.09c-.03.73-.05 1.22-.03 1.48.03.5.15.91.37 1.21.24-.23.47-.6.5-1.13.04-.53-.04-1.09-.04-1.65Z" class="cls-4"/><path d="M34.07 65.1c0 .73 0 1.22.02 1.47.04.5.18.9.41 1.19.23-.23.45-.62.47-1.14l-.89-1.52Z" class="cls-12"/><path d="M34.07 65.1c0 .73 0 1.22.02 1.47.04.5.18.9.41 1.19.23-.23.45-.62.47-1.14l-.89-1.52Z" class="cls-4"/><path d="m33.2 64.37-.79.03c-.09.73-.15 1.23-.15 1.48-.02.5.07.93.26 1.24.26-.21.51-.57.59-1.1s.05-1.09.09-1.66Z" class="cls-12"/><path d="m33.2 64.37-.79.03c-.09.73-.15 1.23-.15 1.48-.02.5.07.93.26 1.24.26-.21.51-.57.59-1.1s.05-1.09.09-1.66Z" class="cls-4"/><path d="M31.6 63.33c-.15.6-.35 2.55 0 3.32.29-.23.58-.62.68-1.21s.13-1.21.18-1.84l-.87-.27Z" class="cls-12"/><path d="M31.6 63.33c-.15.6-.35 2.55 0 3.32.29-.23.58-.62.68-1.21s.13-1.21.18-1.84l-.87-.27Z" class="cls-4"/><path d="m34.7 74.55-1.31.81c-.38.87-.73 1.35-1.19 1.79.65.05 1.21-.13 1.57-.65.48-.7.74-1.12.9-1.22z" class="cls-12"/><path d="m34.7 74.55-1.31.81c-.38.87-.73 1.35-1.19 1.79.65.05 1.21-.13 1.57-.65.48-.7.74-1.12.9-1.22z" class="cls-4"/><path d="M34.42 75.07c-.32.69-.54 1.15-.63 1.4-.18.49-.23.94-.14 1.31.32-.11.68-.38.93-.87z" class="cls-12"/><path d="M34.42 75.07c-.32.69-.54 1.15-.63 1.4-.18.49-.23.94-.14 1.31.32-.11.68-.38.93-.87z" class="cls-4"/><path d="M34.59 75.25c-.15.73-.26 1.22-.29 1.48-.06.51 0 .94.18 1.27.29-.19.59-.53.72-1.05.13-.53.14-1.1.23-1.66z" class="cls-12"/><path d="M34.59 75.25c-.15.73-.26 1.22-.29 1.48-.06.51 0 .94.18 1.27.29-.19.59-.53.72-1.05.13-.53.14-1.1.23-1.66z" class="cls-4"/><path d="M36.3 75.51c-.44.85-.58 1.41-.63 2.01-.49-.4-.72-.9-.55-1.49.23-.8.45-1.71.43-1.89l.74 1.37Z" class="cls-12"/><path d="M36.3 75.51c-.44.85-.58 1.41-.63 2.01-.49-.4-.72-.9-.55-1.49.23-.8.45-1.71.43-1.89l.74 1.37Z" class="cls-4"/><path d="M34.98 73.56c-.28.7-.48 1.17-.55 1.43-.15.5-.17.94-.07 1.31.31-.13.71-.38.93-.88s.3-1.11.49-1.66z" class="cls-12"/><path d="M34.98 73.56c-.28.7-.48 1.17-.55 1.43-.15.5-.17.94-.07 1.31.31-.13.71-.38.93-.88s.3-1.11.49-1.66z" class="cls-4"/><path d="M35.06 72.19c-.18-.03-.43.42-.67.7-.06.06-.12.12-.17.2-.1.16-.18.35-.23.55-.2.91-.49 1.41-.85 1.92.67-.08 1.18-.38 1.44-.95.34-.77.51-1.22.65-1.36l-.18-1.07Z" class="cls-12"/><path d="M35.06 72.19c-.18-.03-.43.42-.67.7-.06.06-.12.12-.17.2-.1.16-.18.35-.23.55-.2.91-.49 1.41-.85 1.92.67-.08 1.18-.38 1.44-.95.34-.77.51-1.22.65-1.36l-.18-1.07Z" class="cls-4"/><path d="M37.05 76.23c.56.66.79 1.16.93 1.72.41-.57.55-1.14.29-1.65-.96-1.01-.96-1-1.22-.08Z" class="cls-12"/><path d="M37.05 76.23c.56.66.79 1.16.93 1.72.41-.57.55-1.14.29-1.65-.96-1.01-.96-1-1.22-.08Z" class="cls-4"/><path d="M37.21 75.69c.56.66 1.15 1.14 1.29 1.71.41-.57.59-1.14.32-1.65z" class="cls-12"/><path d="M37.21 75.69c.56.66 1.15 1.14 1.29 1.71.41-.57.59-1.14.32-1.65z" class="cls-4"/><path d="M36.17 75.57c.56.66.79 1.16.93 1.72.41-.57.55-1.14.29-1.65l-1.22-.08Z" class="cls-12"/><path d="M36.17 75.57c.56.66.79 1.16.93 1.72.41-.57.55-1.14.29-1.65l-1.22-.08Z" class="cls-4"/><path d="M38.98 62.11c-.13-1.41-.38-2.38-1-3.31.29 0 .58-.09.44-.76-.4-.05-.56.12-1.68-.3-.92-.33-2.27-.35-2.19.1.17.91.78 1.51 1.41 1.91.3.71 1.03 2.04.52 2.87-.5.83-.92 1.24-1.43 1.61.11.03.22.05.32.06-.08.11-.73.38-.81.34-.52-.29-.99-1.08-1.42-1.52-1.21-1.25-1.85-2.25-1.6-3.12.27-.96 1.39-2.1-.05-1.77s-2.65 2.47-3 4.84c-.13.88-.23 1.64-.32 2.26.78-.36 1.13-.68 1.34-1.05-.09.34-.17.66-.21.96.64-.18 1.09-.55 1.27-1.13.07-.23.15-.44.24-.62.2.05.45.02.76-.09.12.27 1 1.16 1.48 1.83.53.76 1.34 1.3 1.6 1.31l8.63-.9c.27-.07 1.07-.78 1.6-1.65.48-.77 1.36-1.85 1.48-2.14.31.04.56.02.76-.07q.135.24.24.57c.19.54.63.82 1.27.87-.05-.29-.12-.59-.21-.91.21.32.56.57 1.34.77-.1-.59-.19-1.34-.32-2.19-.36-2.29-1.56-4.18-3-4.21s-.32.88-.05 1.78c.25.82-.39 1.96-1.6 3.46-.42.53-.9 1.42-1.42 1.82-.08.06-.73-.07-.81-.17.11-.03.21-.08.32-.13-.5-.27-.92-.59-1.43-1.32-.5-.72.23-2.21.52-2.98.63-.54 1.24-1.26 1.41-2.21.09-.47-1.27-.17-2.19.35-1.13.66-1.28.52-1.68.65-.14.7.16.73.44.67-.62 1.06-.88 2.08-1 3.52Z" class="cls-12"/><path d="M38.98 62.11c-.13-1.41-.38-2.38-1-3.31.29 0 .58-.09.44-.76-.4-.05-.56.12-1.68-.3-.92-.33-2.27-.35-2.19.1.17.91.78 1.51 1.41 1.91.3.71 1.03 2.04.52 2.87-.5.83-.92 1.24-1.43 1.61.11.03.22.05.32.06-.08.11-.73.38-.81.34-.52-.29-.99-1.08-1.42-1.52-1.21-1.25-1.85-2.25-1.6-3.12.27-.96 1.39-2.1-.05-1.77s-2.65 2.47-3 4.84c-.13.88-.23 1.64-.32 2.26.78-.36 1.13-.68 1.34-1.05-.09.34-.17.66-.21.96.64-.18 1.09-.55 1.27-1.13.07-.23.15-.44.24-.62.2.05.45.02.76-.09.12.27 1 1.16 1.48 1.83.53.76 1.34 1.3 1.6 1.31l8.63-.9c.27-.07 1.07-.78 1.6-1.65.48-.77 1.36-1.85 1.48-2.14.31.04.56.02.76-.07q.135.24.24.57c.19.54.63.82 1.27.87-.05-.29-.12-.59-.21-.91.21.32.56.57 1.34.77-.1-.59-.19-1.34-.32-2.19-.36-2.29-1.56-4.18-3-4.21s-.32.88-.05 1.78c.25.82-.39 1.96-1.6 3.46-.42.53-.9 1.42-1.42 1.82-.08.06-.73-.07-.81-.17.11-.03.21-.08.32-.13-.5-.27-.92-.59-1.43-1.32-.5-.72.23-2.21.52-2.98.63-.54 1.24-1.26 1.41-2.21.09-.47-1.27-.17-2.19.35-1.13.66-1.28.52-1.68.65-.14.7.16.73.44.67-.62 1.06-.88 2.08-1 3.52Z" class="cls-4"/><path d="m41.66 59.77 1.27.05c.98-.06 1.55-.43 1.68-1.07-.36.48-.82.74-1.31.67-.66-.09-1.08-.19-1.23-.14l-.4.48Z" class="cls-17"/><path d="m41.66 59.77 1.27.05c.98-.06 1.55-.43 1.68-1.07-.36.48-.82.74-1.31.67-.66-.09-1.08-.19-1.23-.14l-.4.48Z" class="cls-4"/><path d="M44.03 56.96c1.1 0 1.05.72.02 1.85-.21.23-.25.23-.31.02-.09-.36-.47-.5-.67-.22-.13.19-.11.3-.58.28-.59.56-1.06.96-.3.85.3-.05.6.12 1.04.06-.13.27-.15.31-.23.33-.44.11-.88-.09-1.31.04-.95.27 1.52-2.72 1.49-2.83-.07-.26.59-.83.84-.37Z" class="cls-17"/><path d="M44.03 56.96c1.1 0 1.05.72.02 1.85-.21.23-.25.23-.31.02-.09-.36-.47-.5-.67-.22-.13.19-.11.3-.58.28-.59.56-1.06.96-.3.85.3-.05.6.12 1.04.06-.13.27-.15.31-.23.33-.44.11-.88-.09-1.31.04-.95.27 1.52-2.72 1.49-2.83-.07-.26.59-.83.84-.37Z" class="cls-4"/><path d="m42.46 57.99.15-.16c.07-.1.03-.21-.12-.35-.11.06-.2.11-.29.15.06.2.15.31.27.35Z" class="cls-16"/><path d="M44.15 57.4c.05 0 .09.03.09.08s-.04.1-.09.1-.09-.03-.09-.08.04-.1.09-.1" class="cls-9"/><path d="M48.77 68.33c-.05 1.2-.13 2.14-.36 3.15-.23 1.02-.27 1.69-.3 2.68m.17-5.64c.56-1.54.54-3.82.35-5.31s-1.14-3.37-1.49-3.56m-3.11-2.69c-.04.23-.23.48-.56.76m-2.39 5.48c.47.48 1.08.56 1.82.23" class="cls-2"/><path d="M41 62.8c0 .2.1.55.31 1.06-.44-.06-.77-.22-.99-.5m.09-.55c-.06.46-.18.83-.36 1.1-.25-.16-.42-.4-.52-.74m2.29-5.33c.11.19.3.44.53.28.33-.23.39-.49.54-.74" class="cls-2"/><path d="M41.51 57.92c.14 0 .29-.08.63-.24.34-.15.7-.34 1.05-.35m-2.57 1.06c-.17.07-.39.14-.64.2" class="cls-2"/><path d="m36.3 60.33-1.27.32c-.98.15-1.55-.1-1.68-.72.36.4.82.57 1.31.4.66-.23 1.08-.42 1.23-.39l.4.4Z" class="cls-17"/><path d="m36.3 60.33-1.27.32c-.98.15-1.55-.1-1.68-.72.36.4.82.57 1.31.4.66-.23 1.08-.42 1.23-.39l.4.4Z" class="cls-4"/><path d="M33.93 58.02c-1.1.23-1.05.94-.02 1.86.21.18.25.17.3-.05.09-.38.47-.6.67-.36.13.16.11.27.58.16.59.44 1.06.74.3.78-.3.02-.6.25-1.04.27.13.25.15.28.23.28.44.02.88-.27 1.31-.24.95.07-1.52-2.41-1.49-2.52.07-.27-.59-.71-.84-.2Z" class="cls-17"/><path d="M33.93 58.02c-1.1.23-1.05.94-.02 1.86.21.18.25.17.3-.05.09-.38.47-.6.67-.36.13.16.11.27.58.16.59.44 1.06.74.3.78-.3.02-.6.25-1.04.27.13.25.15.28.23.28.44.02.88-.27 1.31-.24.95.07-1.52-2.41-1.49-2.52.07-.27-.59-.71-.84-.2Z" class="cls-4"/><path d="m35.5 58.72-.15-.13c-.07-.08-.03-.21.12-.37.11.04.2.06.29.09-.06.21-.15.34-.27.41Z" class="cls-16"/><path d="M33.81 58.48c-.05 0-.09.05-.09.1s.04.09.09.08c.05 0 .09-.05.09-.1s-.04-.09-.09-.08" class="cls-9"/><path d="M29.19 70.38c.05 1.19.13 2.11.36 3.08s.27 1.63.3 2.62m-.17-5.61c-.56-1.42-.54-3.71-.35-5.24s1.14-3.61 1.49-3.88m3.11-3.33c.04.22.23.43.56.64m2.4 4.98c-.47.58-1.08.78-1.82.61" class="cls-2"/><path d="M36.96 63.22c0 .2-.1.57-.31 1.13.44-.15.77-.38.99-.71" class="cls-2"/><path d="M37.55 63.11q.09.675.36 1.02c.25-.21.42-.49.52-.85m-2.29-4.84c-.11.22-.3.5-.53.39-.33-.16-.39-.41-.54-.63" class="cls-2"/><path d="M36.45 58.44c-.14.02-.29-.02-.63-.11-.34-.08-.7-.19-1.05-.13m2.57.54c.17.04.39.06.64.07" class="cls-2"/><path d="M38.39 62.92c.04.51.23.98.59 1.41.36-.5.56-1.01.59-1.53" class="cls-12"/><path d="M38.39 62.92c.04.51.23.98.59 1.41.36-.5.56-1.01.59-1.53" class="cls-4"/><path d="M43.46 63.93v7.19c0 1.29-.53 2.52-1.33 3.44s-1.96 1.64-3.15 1.77c-1.19.12-2.35-.35-3.15-1.11s-1.33-1.88-1.33-3.16v-7.19l8.95-.94Z" class="cls-15"/><path d="M43.46 63.93v7.19c0 1.29-.53 2.52-1.33 3.44s-1.96 1.64-3.15 1.77c-1.19.12-2.35-.35-3.15-1.11s-1.33-1.88-1.33-3.16v-7.19l8.95-.94Z" class="cls-3"/><path d="M43.42 68.34v1.86l-3.55.37v5.5c-.6.2-1.19.26-1.79.19v-5.5l-3.55.37v-1.86l3.55-.37v-4.38l1.79-.19v4.38z" class="cls-12"/><path d="M43.42 68.34v1.86l-3.55.37v5.5c-.6.2-1.19.26-1.79.19v-5.5l-3.55.37v-1.86l3.55-.37v-4.38l1.79-.19v4.38z" class="cls-6"/><path d="M40.51 71.27c.53-.25 1.99-.87 1.99.29 0 .56-.68.99-.86.52-.09-.24 0-.41.15-.47.14-.07.29.04.25.22.58-.37-.55-.89-1.03 0-.13.25.25.48.25.66s-.38.5-.25.72c.48.79 1.61.03 1.03-.22.04.17-.11.31-.25.27s-.24-.19-.15-.44c.19-.51.86-.22.86.34 0 1.16-1.46.85-1.99.71v-2.59Z" class="cls-12"/><path d="M40.51 71.27c.53-.25 1.99-.87 1.99.29 0 .56-.68.99-.86.52-.09-.24 0-.41.15-.47.14-.07.29.04.25.22.58-.37-.55-.89-1.03 0-.13.25.25.48.25.66s-.38.5-.25.72c.48.79 1.61.03 1.03-.22.04.17-.11.31-.25.27s-.24-.19-.15-.44c.19-.51.86-.22.86.34 0 1.16-1.46.85-1.99.71v-2.59Z" class="cls-4"/><path d="M37.46 65.62c-.53-.14-1.99-.45-1.99.71 0 .56.68.85.86.34.09-.26 0-.4-.15-.44-.14-.04-.29.1-.25.27-.58-.25.55-1.01 1.03-.22.13.22-.25.53-.25.72s.38.42.25.66c-.48.89-1.61.37-1.03 0-.04.18.11.29.25.22s.24-.24.15-.47c-.19-.47-.86-.04-.86.52 0 1.16 1.46.54 1.99.29v-2.59Z" class="cls-12"/><path d="M37.46 65.62c-.53-.14-1.99-.45-1.99.71 0 .56.68.85.86.34.09-.26 0-.4-.15-.44-.14-.04-.29.1-.25.27-.58-.25.55-1.01 1.03-.22.13.22-.25.53-.25.72s.38.42.25.66c-.48.89-1.61.37-1.03 0-.04.18.11.29.25.22s.24-.24.15-.47c-.19-.47-.86-.04-.86.52 0 1.16 1.46.54 1.99.29v-2.59Z" class="cls-4"/><path d="M40.51 65.3c.53-.25 1.99-.87 1.99.29 0 .56-.68.99-.86.52-.09-.24 0-.41.15-.47.14-.07.29.04.25.22.58-.37-.55-.89-1.03 0-.13.25.25.48.25.66s-.38.5-.25.72c.48.79 1.61.03 1.03-.22.04.17-.11.31-.25.27s-.24-.19-.15-.44c.19-.51.86-.22.86.34 0 1.16-1.46.85-1.99.71v-2.59Z" class="cls-12"/><path d="M40.51 65.3c.53-.25 1.99-.87 1.99.29 0 .56-.68.99-.86.52-.09-.24 0-.41.15-.47.14-.07.29.04.25.22.58-.37-.55-.89-1.03 0-.13.25.25.48.25.66s-.38.5-.25.72c.48.79 1.61.03 1.03-.22.04.17-.11.31-.25.27s-.24-.19-.15-.44c.19-.51.86-.22.86.34 0 1.16-1.46.85-1.99.71v-2.59Z" class="cls-4"/><path d="M37.46 71.59c-.53-.14-1.99-.45-1.99.71 0 .56.68.85.86.34.09-.26 0-.4-.15-.44-.14-.04-.29.1-.25.27-.58-.25.55-1.01 1.03-.22.13.22-.25.53-.25.72s.38.42.25.66c-.48.89-1.61.37-1.03 0-.04.18.11.29.25.22s.24-.24.15-.47c-.19-.47-.86-.04-.86.52 0 1.16 1.46.54 1.99.29V71.6Z" class="cls-12"/><path d="M37.46 71.59c-.53-.14-1.99-.45-1.99.71 0 .56.68.85.86.34.09-.26 0-.4-.15-.44-.14-.04-.29.1-.25.27-.58-.25.55-1.01 1.03-.22.13.22-.25.53-.25.72s.38.42.25.66c-.48.89-1.61.37-1.03 0-.04.18.11.29.25.22s.24-.24.15-.47c-.19-.47-.86-.04-.86.52 0 1.16 1.46.54 1.99.29V71.6Z" class="cls-4"/></g></g></g></g><g id="White_Logo_RGB" data-name="White Logo RGB"><path id="WHITE_ESC_HEART" d="M56.13 129.5c1.03 1.13 2.54.85 3.24-.61C75.9 94 126.12 78.23 126.12 33.78c0-16.16-10.88-32.38-31.78-32.75-19.9-.36-37.77 12.46-39.63 33.22-.56-13.14-9.18-19.2-19.12-19.2C16.03 15.03.01 32.69.82 59.25c1.34 41.78 41.51 54.94 55.31 70.25m-3.56-85.25c.53 2.09 3.07 2.01 3.65-.05 8.61-31.2 48.19-34.61 48.19-3.02 0 24.94-44.21 51.56-47.58 75.24-8-15.53-37.39-24.07-37.39-57.83 0-28.74 27.94-34.77 33.12-14.34Z" class="cls-12"/></g></svg>