<svg xmlns="http://www.w3.org/2000/svg" viewBox="0 0 127.18 131.2"><defs><clipPath id="clippath"><path d="m58.76 127.47 1.06-7.49c1.5-10.52 12.35-22.53 22.85-34.15 12.61-13.95 25.65-28.38 25.65-42.91 0-12.64-6.94-25.4-22.45-25.4-9.52 0-21.15 5.56-28.11 17.56l-.57 1.02a42.4 42.4 0 0 0-2.75 6.25c-2.83-7.15-8.7-11.46-15.86-11.46-10.96 0-22.6 10.44-22.6 29.78 0 24.19 14.13 36.48 25.49 46.35 5.6 4.87 10.44 9.08 12.91 13.89l3.86 7.5.5-.92Z" style="fill:none"/></clipPath><style>.cls-2{fill:#00f}.cls-5{fill:#f9f9f9}</style></defs><g id="SLOVENIA" style="clip-path:url(#clippath)"><g id="SLOVENIA-2" data-name="SLOVENIA"><path d="M119.18 44.96 14.24 55.99V19.46L119.18 8.43z" style="fill:#f9f9f9"/><path d="M118 78.06 14.24 89.51l.31-33.56 103.14-10.99z" class="cls-2"/><path d="M119.16 119.16 14.24 130.19V89.18L118 78.06zM30.35 49.7l19.37-2.18.9.36c-.17 2.16-.58 7.86-.81 11.13-.08 1.15-.14 2-.17 2.29-1.07 7.53-7.9 12.03-9.6 12.22s-8.54-2.77-9.6-10.06c-.02-.28-.08-1.12-.17-2.25-.24-3.22-.64-8.83-.81-10.95l.9-.56Z" style="fill:red"/><path d="M31.27 62.94c.84 7.11 7.06 10 8.77 9.81 1.7-.19 7.93-4.48 8.77-11.78.09-1.11.68-10.52.92-13.44-6.32-1.98-13.56-.96-19.37 2.18.23 2.87.83 12.15.92 13.24Zm8.76 9.04c-1.03.12-3.52-.98-5.46-3.21 1.06-.29 1.21-1.03 2.54-1.18 1.47-.16 1.51.72 2.92.6 1.41-.2 1.44-1.09 2.92-1.25 1.32-.15 1.48.54 2.51.6-1.93 2.66-4.4 4.33-5.43 4.44m5.94-5.18c-1.5.17-1.5-.76-3.01-.59-1.47.17-1.51 1.06-2.92 1.25-1.41.12-1.44-.76-2.92-.6-1.5.17-1.5 1.1-3.01 1.27h-.04c-.17-.23-.33-.46-.49-.71.16 0 .33 0 .53-.02 1.51-.17 1.51-1.09 3.01-1.26 1.47-.17 1.51.72 2.92.6 1.41-.2 1.44-1.09 2.92-1.25 1.51-.17 1.51.76 3.01.59.19-.02.35-.05.49-.09-.15.28-.32.55-.49.81m-2.2-18.83-.41.52.41.43-.61-.05-.2.61-.2-.57-.61.19.41-.52-.41-.42.61.05.2-.61.2.57.61-.19Zm-3.53 4.44.61-.19-.41.52.41.42-.61-.05-.2.61-.2-.57-.61.19.41-.52-.41-.42.61.05.2-.61zm-3.94-3.55.61.05.2-.61.2.57.61-.19-.41.52.41.43-.61-.05-.2.61-.2-.57-.61.19.41-.52zm1.39 11.44c.02.1 2.4-5.01 2.4-5.01.04-.11 1.85 4.11 2.27 4.5.42-.45 1.52-2.31 1.6-2.26.56.75 3.85 4.87 3.86 4.82-.19.96-.5 1.87-.89 2.72-.25.13-.55.24-.96.29-1.5.17-1.5-.76-3.01-.59-1.47.17-1.51 1.06-2.92 1.25-1.41.12-1.44-.76-2.92-.6-1.5.17-1.5 1.09-3.01 1.26-.44.05-.75 0-1-.09-.38-.75-.69-1.58-.87-2.48 0 0 3.31-4.87 3.88-5.65.08-.07 1.58 1.89 1.58 1.83Z" class="cls-2"/><path d="M40.03 68.19c-1.41.12-1.44-.76-2.92-.6-1.33.15-1.48.89-2.54 1.18C36.51 71 39 72.1 40.03 71.98c1.02-.11 3.5-1.78 5.43-4.44-1.03-.06-1.19-.75-2.51-.6-1.47.16-1.51 1.06-2.92 1.25" class="cls-5"/><path d="M42.95 65.49c-1.47.17-1.51 1.06-2.92 1.25-1.41.12-1.44-.76-2.92-.6-1.5.17-1.5 1.09-3.01 1.26-.2.02-.38.03-.53.02.16.24.32.48.49.71h.04c1.51-.17 1.51-1.09 3.01-1.27 1.47-.16 1.51.72 2.92.6 1.41-.2 1.44-1.09 2.92-1.25 1.51-.17 1.51.76 3.01.59.17-.26.33-.54.49-.81-.14.04-.31.07-.49.09-1.5.17-1.5-.76-3.01-.59" class="cls-5"/><path d="M32.23 64.12c.19.9.49 1.73.87 2.48.26.09.57.14 1 .09 1.51-.17 1.51-1.09 3.01-1.26 1.47-.17 1.51.72 2.92.6 1.41-.2 1.44-1.09 2.92-1.25 1.51-.17 1.51.76 3.01.59.41-.05.71-.15.96-.29.39-.85.7-1.76.89-2.72-.01.06-3.3-4.07-3.86-4.82-.08-.05-1.17 1.81-1.6 2.26-.42-.4-2.23-4.61-2.27-4.5 0 0-2.38 5.11-2.4 5.01 0 .06-1.5-1.9-1.58-1.83-.58.78-3.88 5.65-3.88 5.65Z" class="cls-5"/><path d="m39.83 52.46-.61-.05.41.42-.41.52.61-.19.2.56.21-.61.61.05-.41-.42.41-.52-.61.19-.21-.57zm-2.92-2.85.2.57.2-.62.61.06-.41-.43.41-.52-.61.19-.2-.57-.2.62-.61-.05.4.42-.4.52zm5.85-1.4-.61-.05.41.42-.41.52.61-.19.2.56.2-.61.61.05-.41-.42.41-.52-.61.19-.2-.57z" style="fill:#ff0"/></g></g><g id="White_Logo_RGB" data-name="White Logo RGB"><path id="WHITE_ESC_HEART" d="M56.13 129.5c1.03 1.13 2.54.85 3.24-.61C75.9 94 126.12 78.23 126.12 33.78c0-16.16-10.88-32.38-31.78-32.75-19.9-.36-37.77 12.46-39.63 33.22-.56-13.14-9.18-19.2-19.12-19.2C16.03 15.03.01 32.69.82 59.25c1.34 41.78 41.51 54.94 55.31 70.25m-3.56-85.25c.53 2.09 3.07 2.01 3.65-.05 8.61-31.2 48.19-34.61 48.19-3.02 0 24.94-44.21 51.56-47.58 75.24-8-15.53-37.39-24.07-37.39-57.83 0-28.74 27.94-34.77 33.12-14.34Z" style="fill:#fff"/></g></svg>