<svg xmlns="http://www.w3.org/2000/svg" viewBox="0 0 127.18 131.2"><defs><clipPath id="clippath"><path d="m58.48 123.71 1.06-7.44c1.49-10.45 12.27-22.39 22.71-33.93 12.53-13.87 25.49-28.21 25.49-42.64 0-12.57-6.9-25.24-22.31-25.24-9.46 0-21.02 5.53-27.93 17.45l-.57 1.01a42 42 0 0 0-2.73 6.21c-2.81-7.1-8.64-11.39-15.76-11.39-10.89 0-22.46 10.37-22.46 29.59 0 24.04 14.05 36.25 25.33 46.07 5.57 4.84 10.37 9.02 12.83 13.8l3.84 7.45.5-.92Z" style="fill:none"/></clipPath><style>.cls-2{fill:#f4f5f6}.cls-3{fill:#fff}.cls-4{fill:#124ea2}.cls-5{fill:#eb302e}</style></defs><g id="SLOVAKIA" style="clip-path:url(#clippath)"><path d="m13.48 83.41 79.61-8.37 3.2 51.74-74.99 6.61z" class="cls-5"/><path d="M93.09 75.04 2.44 84.57 14.55 55.9 118 44.96z" class="cls-4"/><path d="m18.42 14.45 95.74-12.42-.83 49.13L1.38 62.6z" class="cls-2"/><path d="m53.39 55.29-11.34 1.27-11.34 1.28s-1.54 11.92.65 18.58c3.44 8.49 10.69 9.82 10.69 9.82s7.25-2.96 10.69-12.23c2.2-7.16.65-18.73.65-18.73Z" class="cls-5"/><path d="M50.73 78.17c-.05-.88-.33-2.26-1.62-2.78-2.32-.69-3.5 1.11-3.5 1.11s-.71-2.9-3.56-2.4c-2.85.14-3.56 3.2-3.56 3.2s-1.19-1.54-3.5-.32c-1.29.81-1.57 2.26-1.62 3.15 3.67 5.21 8.69 6.13 8.69 6.13s5.02-2.05 8.69-8.08Z" class="cls-4"/><path d="M40.8 70.36v4.02c.36-.16.77-.26 1.25-.28.47-.08.89-.07 1.25 0v-4.02s3.03-.58 5.94-.19c-.59-1.28-.3-2.29 0-3.58-1.93.81-5.94 1.2-5.94 1.2v-2.92s2.23-.25 4.69 0c-.71-1.53 0-3.63 0-3.63s-2.02.79-4.69 1.12c-.09-1.36.5-4.56.5-4.56s-1.25.47-1.75.52c-.5.06-1.75-.13-1.75-.13s.59 3.06.51 4.44c-2.67.27-4.69-.07-4.69-.07s.71 1.95 0 3.64a26 26 0 0 1 4.69-1.06v2.92s-4.01.51-5.94.13c.3 1.22.59 2.17 0 3.58 2.91-1.04 5.94-1.15 5.94-1.15Z" class="cls-2"/><path d="m53.98 55.15-.07-.51-23.73 2.67-.07.52c-.06.49-1.54 12.12.68 18.84v.04c1.84 4.51 4.74 7.03 6.85 8.34 2.3 1.43 4.16 1.78 4.24 1.8l.17.03.17-.07c.08-.03 1.94-.8 4.23-2.75 2.11-1.79 5.01-4.95 6.84-9.88v-.04c2.22-7.21.75-18.51.69-18.99m-1.25 18.87c-3.44 9.27-10.69 12.23-10.69 12.23s-7.24-1.33-10.69-9.82c-2.2-6.67-.65-18.58-.65-18.58l11.34-1.28 11.34-1.27s1.54 11.57-.65 18.73Z" class="cls-3"/></g><g id="White_Logo_RGB" data-name="White Logo RGB"><path id="WHITE_ESC_HEART" d="M56.13 129.5c1.03 1.13 2.54.85 3.24-.61C75.9 94 126.12 78.23 126.12 33.78c0-16.16-10.88-32.38-31.78-32.75-19.9-.36-37.77 12.46-39.63 33.22-.56-13.14-9.18-19.2-19.12-19.2C16.03 15.03.01 32.69.82 59.25c1.34 41.78 41.51 54.94 55.31 70.25m-3.56-85.25c.53 2.09 3.07 2.01 3.65-.05 8.61-31.2 48.19-34.61 48.19-3.02 0 24.94-44.21 51.56-47.58 75.24-8-15.53-37.39-24.07-37.39-57.83 0-28.74 27.94-34.77 33.12-14.34Z" class="cls-3"/></g></svg>