<svg xmlns="http://www.w3.org/2000/svg" viewBox="0 0 127.18 131.2"><defs><clipPath id="clippath"><path d="m58.65 122.6 1.1-7.35c1.54-10.32 12.75-22.11 23.58-33.52 13.01-13.7 26.47-27.86 26.47-42.12 0-12.41-7.16-24.94-23.16-24.94-9.82 0-21.83 5.46-29.01 17.23l-.59 1a40.6 40.6 0 0 0-2.83 6.13c-2.92-7.01-8.97-11.25-16.37-11.25-11.31 0-23.33 10.25-23.33 29.23 0 23.74 14.59 35.81 26.31 45.5 5.78 4.78 10.77 8.91 13.33 13.63l3.98 7.36.52-.91Z" style="fill:none"/></clipPath><style>.cls-4{fill:#ac8a51}.cls-6{fill:#cac7c6}.cls-8{fill:#99c9df}.cls-9{fill:#4b6b3c}.cls-11{fill:#fff}.cls-13{fill:#1f1f1d}.cls-14{fill:#dfaa26}.cls-15{fill:#6c9555}.cls-17{fill:#edc11b}</style></defs><g id="SAN_MARINO" data-name="SAN MARINO" style="clip-path:url(#clippath)"><path d="M106.01 60.96 10.31 71l.79-55.23 95.68-8.25z" style="fill:#f9f9f9"/><path d="M104.95 124.21 9.24 134.42 10.31 71l96.11-10.08z" style="fill:#5eb7e5"/><path d="M54.91 77.29c2.97-1.17 7.69-4.91 8.33-11.41.11-7.57-3.59-7.69-4.11-7.64-1.49.15-3.47 1.51-3.62 1.62a.62.62 0 0 0-.54-.22c-.22.02-.42.15-.54.33-.15-.07-2.12-1.03-3.61-.88-.52.05-4.22.93-4.17 8.48.59 6.38 5.28 9.16 8.25 9.73Z" class="cls-13"/><path d="M48.99 67.84s-.34-3.77 1.23-5.64c.08.2.83.56 1.15.49.48-.09.75-.29.75-.29l2.18-1.47s0-.04.17.05.42.1.5.1.34-.08.46-.23c.12-.16.17-.08.25-.05s2 1.11 2.52 1.14c.54.07 1.13-.16 1.51-.7.44.37.6.84.71 1.16s.7 1.98.51 3.79c-.2 1.82-11.94 1.65-11.94 1.65" style="fill:#5487a1"/><path d="M51.33 62s.25-.23.27-.55-.31-.68-.64-.62c-.33.05-.73.45-.69.82s.35.97 1.15.89c.79-.08 1.38-.87 1.44-1.02s.19-.5.15-.89-.41-1.55-1.77-1.43-2.87 1.27-3.61 3.21c-.74 1.93-.79 4.11-.77 4.97.02.85.37 7.7 8.05 9.8v-.33s-7.11-2.08-7.54-9.42c.01-3.16.5-4.04.67-4.73s1.22-2.84 3.17-3.04c1.17-.08 1.33.83 1.33 1.06s-.07 1.14-1.2 1.29Z" class="cls-17"/><path d="M53.35 76.05s-5.63-2.31-5.86-8.88c-.15-3.39 1.13-5.67 1.78-6.39.65-.71 1.57-.95 1.95-.97s.81.1.81.17-.33-.09-.84 0c-.61.04-2.11.63-2.89 2.91h.1s.82-2.58 2.77-2.8c1.09-.05 1.02.08 1.02.08s.17.13.15.26-.35-.24-1.19-.11-1.86.73-2.5 2.62l.08.05s.71-2.35 2.37-2.54c.36-.06 1.04.06 1.26.19.08.05.02.29.02.29s-.4-.48-1.29-.31c-.9.17-1.76 1.31-2.12 2.39l.08.03s.59-1.38 1.09-1.78c.02.06-.04.4-.04.4s-.57.52-.88 1.45h.08s.51-1.1.8-1.26l.06.2s-1.17.81-1.38 4.86c.2 3.03.58 5.63 4.56 9.13Z" class="cls-14"/><path d="M51.36 60.74s.4.19.39.48.02.44-.11.58.44-.11.36-.54-.08-.47-.64-.52m.63.06s.27.33.1.76c.08-.05.21-.31.25-.44s-.1-.16-.35-.32m3.52-.39v.05h.11s-.05.08-.04.1c.01.06.31.23.22.12-.01-.18-.04-.09 0-.33.04.18.14.38.22.47-.02-.21-.04-.32.02-.5.12.33.09.62.32.65-.15-.14-.15-.93-.11-.67s.16.61.36.77c-.14-.25-.1-.84-.1-.84s.14.72.25.91c.11.18.42.25.42.25s-.39-.45-.39-1.12c-.08-.61.49-1.25.49-1.25l-1.68.91.04.25-.11.02v.05c-.02-.29-.09.41-.02.17Z" class="cls-14"/><path d="M58.61 61.26s-.25-.18-.27-.5c-.02-.31.32-.74.65-.76.34-.01.73.3.69.68s-.36 1.04-1.15 1.12-1.38-.59-1.44-.73-.18-.46-.14-.86.42-1.63 1.78-1.79 2.86.69 3.58 2.48.76 3.96.73 4.82c-.02.86-.43 7.78-8.13 11.44v-.33s7.14-3.53 7.63-10.95c.01-3.16-.46-3.95-.63-4.6s-1.2-2.6-3.15-2.4c-1.17.16-1.34 1.1-1.34 1.33s.06 1.12 1.19 1.05" class="cls-17"/><path d="M56.48 75.73s5.65-3.46 5.93-10.07c.18-3.43-1.08-5.45-1.73-6.03-.64-.58-1.56-.64-1.94-.58s-.82.27-.82.33.34-.16.84-.17c.61-.08 2.11.2 2.88 2.32l-.11.03s-.8-2.43-2.75-2.25c-1.09.17-1.02.29-1.02.29s-.17.16-.15.29c.02.12.35-.31 1.19-.35s1.86.36 2.48 2.11l-.08.07s-.69-2.21-2.35-2.06c-.35.01-1.04.27-1.25.44-.08.07-.02.29-.02.29s.4-.56 1.3-.57c.9 0 1.75.96 2.1 1.96l-.08.05s-.58-1.26-1.08-1.56c-.02.06.04.39.04.39s.56.4.87 1.27l-.08.03s-.5-1.02-.79-1.11l-.06.22s1.17.57 1.34 4.59c-.22 3.07-.63 5.75-4.64 10.06Z" class="cls-14"/><path d="M58.59 60.01s-.4.27-.4.56-.02.44.1.55-.44-.02-.35-.47.09-.49.65-.65Zm-.63.19s-.27.38-.11.78c-.08-.03-.21-.27-.25-.39s.1-.18.36-.39" class="cls-14"/><path d="M57.33 71.8h-.13l-.4-.34s-.85-.58-1.88-.46c-1.02.08-1.76.97-1.76.97l.54.36-.13.06c-1.98-1.28-3.28-.13-3.28-.13 2.26 3.87 4.6 4.45 4.6 4.45s2.34-1.05 4.64-5.38c0 0-.8-.67-2.4.22.03.01-.05-.08.19.25Z" style="fill:#a0be78"/><path d="M54.98 59.77c-.38.03-.56.54-.56.54h-.11l.04-.26-1.67-.57s.57.53.48 1.15c0 .67-.39 1.2-.39 1.2s.31-.13.42-.34.25-.96.25-.96.04.58-.1.86c.2-.2.32-.58.37-.84.04-.27.04.52-.11.69.22-.08.19-.35.32-.72.05.18.04.29.01.5.09-.11.18-.33.23-.51.04.23.01.15 0 .33-.09.13.21-.1.22-.16 0-.03-.04-.09-.04-.09l.11-.02s.1.36.54.32c.42-.05.55-.31.55-.62s-.25-.53-.55-.5Zm-.19.6s.05.18.25.13v.06c-.27.05-.31-.17-.31-.17l.06-.03Zm-.15-.28v.03l.01.03s-.07.07-.08.19l-.06-.04c.01-.17.11-.21.12-.21Zm.69.46c-.03.09-.15.24-.42.26-.32 0-.43-.36-.39-.38l.04-.02s.11.35.35.34c.2-.01.3-.1.36-.17.01-.02.07-.1.08-.11v.05s-.01.01-.02.03" class="cls-14"/><path d="m50.43 62.38-.39.04c-.06.09-.12.18-.18.29l.98-.1c-.17-.06-.31-.15-.41-.23m-.2-.19c-.06.05-.11.11-.16.18l.31-.03a.6.6 0 0 1-.15-.15m10.3.53c-.03-.1-.06-.19-.09-.28l-5.47.55-5.47.55c-.03.1-.07.2-.1.3l5.57-.56 5.57-.56Zm.1.34-.09-.31-5.58.57-5.58.57c-.03.1-.06.21-.09.32l5.67-.57 5.67-.57Zm-.21-.67c-.04-.11-.09-.22-.13-.32l-5.32.54-5.32.54c-.05.11-.09.23-.13.35l5.45-.55 5.46-.55Zm-4.3-1.38c-.24-.13-.44-.23-.56-.26-.21.13-.22.26-.58.31-.44.04-.44-.11-.58-.19-.12.05-.32.19-.56.37l1.15-.12 1.15-.12Zm4.6 2.42c-.02-.11-.05-.22-.08-.33l-5.68.58-5.68.58c-.03.11-.05.23-.08.34l5.76-.58 5.76-.58Zm.06.31c-.02-.09-.03-.18-.05-.26l-5.77.58-5.77.58c-.02.09-.04.18-.05.28l5.82-.59zm-.87-2.32-.39.04c-.1.1-.24.22-.41.31l.98-.1c-.06-.1-.12-.18-.18-.25m-.2-.19s-.07.09-.15.18l.31-.03a1 1 0 0 0-.16-.15m-3.01.1c-.18-.1-.36-.2-.51-.28l-1.21.12-1.21.12c-.16.12-.33.25-.52.39l1.72-.18 1.72-.18Zm4.24 4.54v-.29l-.9.09v-.04l.9-.09v-.33l-1.48.15v-.04l1.47-.15c0-.11-.01-.22-.02-.33l-2.06.21v-.04l2.06-.21c0-.1-.02-.19-.03-.29l-2.49.25v-.04l2.48-.25c-.01-.1-.03-.21-.04-.31l-4.22.43v-.04l4.21-.43c-.02-.11-.03-.22-.05-.33l-5.83.59-5.83.59c-.02.11-.04.22-.06.34l4.21-.43v.04l-4.22.43c-.01.1-.03.21-.04.32l2.48-.25v.04l-2.49.25-.03.29 2.06-.21v.04l-2.06.21c0 .11-.02.22-.02.34l1.47-.15v.04l-1.48.15v.34l.9-.09v.04l-.9.09v.29l.49-.05v.04l-.49.05c.09 2.11.39 3.3 1.24 4.97.4-.46 1.97-.6 2.82-.22.73-.76 1.38-1 1.91-1.05.52-.05 1.23-.04 1.96.57.86-.55 2.36-.64 2.76-.26.87-1.85 1.18-3.1 1.28-5.23l-.49.05v-.04l.49-.05Zm-3.61-4.23c-.19-.09-.38-.18-.56-.28l-1.79.18-1.79.18c-.18.13-.37.27-.57.39l2.36-.24 2.36-.24Zm2.94.39c-.05-.12-.11-.22-.16-.32l-1.1.11c-.13.06-.28.11-.44.13-.14 0-.28-.01-.43-.04l-3.16.32-3.16.32c-.15.06-.3.11-.43.13-.16.02-.31 0-.44-.04l-1.11.11c-.06.11-.11.22-.17.35l5.3-.54 5.3-.54Zm-2.26-.14q-.3-.075-.6-.21l-2.43.25-2.44.25c-.2.13-.41.24-.6.33l3.04-.31 3.04-.31Z" class="cls-8"/><path d="M55.8 76.12s0-.02-.01-.03c-.25-.58-2.92-2.19-3.38-2.35s-.02-.35-.02-.35.42 0 .77-.1c.17-.06.15-.35 0-.48-.36-.55-.88-.86-1.34-1.02-.95-.03-1.52.48-1.52.48 2.26 3.87 4.6 4.45 4.6 4.45s.34-.15.89-.58Zm-.29-3.51c-.21-.04-.35-.21.06-.3.42-.08 1.07-.09.73-.53-.2-.27-.61-.6-1.12-.8-.08 0-.17 0-.26.02-1.02.08-1.76.97-1.76.97l.54.36-.13.06c-.14-.09 2.68 1.81 3.44 2.59.22-.24.46-.51.7-.82-.5-.37-2.04-1.51-2.22-1.54Zm2.89-1.51c-.34.04-.76.17-1.25.45.03.01-.05-.08.19.25h-.1c.38.44.9 1.04 1.19 1.4.3-.45.61-.95.92-1.5-.15-.15-.45-.39-.95-.6" style="fill:#6c9052"/><path d="m50.43 62.38-.39.04c-.06.09-.12.18-.18.29l.98-.1c-.17-.06-.31-.15-.41-.23m-.2-.19c-.06.05-.11.11-.16.18l.31-.03a.6.6 0 0 1-.15-.15m10.3.53c-.03-.1-.06-.19-.09-.28l-5.47.55-5.47.55c-.03.1-.07.2-.1.3l5.57-.56 5.57-.56Zm.1.34-.09-.31-5.58.57-5.58.57c-.03.1-.06.21-.09.32l5.67-.57 5.67-.57Zm-.21-.67c-.04-.11-.09-.22-.13-.32l-5.32.54-5.32.54c-.05.11-.09.23-.13.35l5.45-.55 5.46-.55Zm-4.3-1.38c-.24-.13-.44-.23-.56-.26-.21.13-.22.26-.58.31-.44.04-.44-.11-.58-.19-.12.05-.32.19-.56.37l1.15-.12 1.15-.12Zm4.6 2.42c-.02-.11-.05-.22-.08-.33l-5.68.58-5.68.58c-.03.11-.05.23-.08.34l5.76-.58 5.76-.58Zm.06.31c-.02-.09-.03-.18-.05-.26l-5.77.58-5.77.58c-.02.09-.04.18-.05.28l5.82-.59zm-.87-2.32-.39.04c-.1.1-.24.22-.41.31l.98-.1c-.06-.1-.12-.18-.18-.25m-.2-.19s-.07.09-.15.18l.31-.03a1 1 0 0 0-.16-.15m-3.01.1c-.18-.1-.36-.2-.51-.28l-1.21.12-1.21.12c-.16.12-.33.25-.52.39l1.72-.18 1.72-.18Zm.63.31c-.19-.09-.38-.18-.56-.28l-1.79.18-1.79.18c-.18.13-.37.27-.57.39l2.36-.24 2.36-.24Zm2.94.39c-.05-.12-.11-.22-.16-.32l-1.1.11c-.13.06-.28.11-.44.13-.14 0-.28-.01-.43-.04l-3.16.32-3.16.32c-.15.06-.3.11-.43.13-.16.02-.31 0-.44-.04l-1.11.11c-.06.11-.11.22-.17.35l5.3-.54 5.3-.54Zm-2.26-.14q-.3-.075-.6-.21l-2.43.25-2.44.25c-.2.13-.41.24-.6.33l3.04-.31 3.04-.31Z" class="cls-8"/><path d="M56.69 80.67c-.08-.16-.93-1.36-1.01-1.43-.08-.08-1.93-1.92-2.18-2.11-.25-.18-1.68-.79-1.82-.79s-1.34-.31-1.56-.43-.37-.59-.46-.97c-.08-.38-.33-.68-.46-.85-.12-.17-1.04-.68-1.19-.8q-.15-.12-.42-.4c-.26 1.39.2 1.97.71 2.45s1.21.43 1.34.48c.12.04.28.15.22.21-.32 0-1.2-.39-1.52-.47s-.64-.52-.75-.68-.18-.55-.22-.73-.16-.18-.33-.4c.18-.25.31-1.47.29-1.7-.03-.23-.47-1.29-.52-1.45-.06-.16-.01-.51-.1-.49-.08.02-.59.83-.66 1.01-.07.19-.15.66-.15.66s-.11-.09-.36.02-.28.27-.31.49c-.04.17.07.36.07.36l-.22-.21s-.11-.18.11-.58c.67-.58.95-1.48 1.04-1.72.08-.24.07-1.12.02-1.45s-.3-.93-.3-.93-.09.19-.2.4-.45.74-.66 1.07-.3.95-.33 1.23.15 1.06.15 1.06l-.04.53s-.47-.85-.48-.96-.01-.42 0-.56c.02-.14.11-.54.16-.69.04-.14.11-.36.1-1.08 1.54-1.16 1.53-2.15 1.54-2.53.02-.38-.27-1.17-.27-1.17s-.2.34-.25.44c-.06.1-.25.33-.38.41s-.61.58-.74.83-.38.75-.38.75-.04-.16-.07-.29c-.03-.12 0-.49-.05-.48-.06 0-.22.19-.22.19s.02-.24.02-.38-.1-.24.56-.63c2.02-.89 2.13-2.4 2.17-2.64s-.06-1.23-.06-1.18-.14.18-.42.42-.85.78-1.29 1.58c-.43.8-.6 1.72-.77 1.85s-.14.04-.14.04.1-.5.13-.71.3-1.22.45-1.52c.16-.31.71-.8 1.23-1.31s.83-1.57.83-1.84.09-1.15-.04-1.13c-.13.03-1.1.99-1.64 1.73-.53.74-.62 2.52-.62 2.52l-.27.63-.03-.21s.18-.3.17-.48-.18-.34-.33-.34-.2.05-.22 0c-.05-.3-.43-1.13-.51-1.27-.08-.15-.14-.23-.22-.45-.87.99-.85 2.51-.69 3.03.15.51 1.09 1.38 1.23 1.52s.14.24.14.24.05.82.01.92-.25.5-.25.5-.04.14-.1.08c0-.4-.43-1.68-.6-1.9-.18-.22-.75-.77-.94-.85s-.32-.27-.53-.5c-.13.54-.2 1.83.2 2.52.4.68 1.35.95 1.53.95s.28.07.28.07l-.08.23s-.1-.09-.38-.04c-.28.04-.43.32-.42.6s.31.4.43.39c.13-.01.28-.04.28-.04s-.06.09.14.68c.19.59.94 1.21.96 1.25.01.04.25.5.25.5s-.35-.1-.51-.28c-.17-.18-.86-1.45-1.03-1.62-.17-.18-1.3-.94-1.56-1.11-.25-.17-.24-.13-.53-.35.13 2.23.31 2.34.8 2.79s1.81.54 1.95.56c.14.01.18.07.32.07s.62.28.62.28l.72 1.08s.12.32 0 .18-.96-.84-1.46-1.02c-.5-.19-1.56-.22-1.78-.24s-.31-.05-.74-.16c.42 2.12 2.34 2.06 2.72 2.02s.96-.21 1.03-.22c.07 0 .28-.04.33.08.08.38.28.59.22.58-.06 0-.76-.12-.99-.08-.22.04-1.23.38-1.49.5-.27.12-.45.12-.74.24 1.61 1.47 2.56.97 2.89.91s1.14-.67 1.21-.71c.07-.03.2.02.28.04s.36-.02.08.08-.35.31-.38.5c-.03.18.14.38.14.38s-.31.16-.57.32c-.26.17-.83.87-1.13 1.04-.1.11-.32.22-.22.34 1.82.62 2.77-.68 2.92-.86.16-.18.66-.86 1.02-.91s.31.07.43.09c.12.03.07.08-.25.12-.32.05-.43.28-.45.57-.01.29.36.42.61.39.25-.04.42-.36.45-.5s-.14-.28-.18-.37.04-.12.14-.13c.52-.07 2.57.53 2.96.66.4.13 2.81 2.12 3.06 2.39s.85 1.42.95 1.55c.11.14.28.24.51.22.19-.02.14-.28.06-.44ZM43.52 65.93c-.01-.18.01-.45.04-.59s.16-.63.13-.7-.01-.32-.01-.32.19.29.18.36-.26 1.29-.26 1.29-.07.13-.08-.05Zm1.95 6.91c-.11-.11.13 0 .27-.03s.27-.1.27-.1-.06.29.07.47c0 0-.49-.23-.6-.34Zm2.39 3.18h-.68s.06-.08.08-.3c.03-.22-.35-.42-.14-.35.21.08 1.07.59 1.07.59s-.22.06-.34.06Z" class="cls-13"/><path d="M69.16 64.64c-.07-.02-.24.04-.08-.13.15-.17.2-.28.14-.35s-.13-.09-.08-.24c.04-.16.15-.45 0-.52-.14-.07-.39.09-.47.2-.03.11-.1.16-.17.13-.15-.05-.36.13-.42.26s-.17.1-.34.12-.29.45-.29.45-.24.05-.31.06c-.07 0-.15.35-.18.31s-.01-.22-.07-.24-.25.09-.25.09l-.03-.12.15-.21s.49-.12.65-.21c.17-.09.16-.3.32-.59.17-.3.03-.69-.22-.66-.64.02-.92.85-.92.85l-.03.53-.08.12s-.05-.65.06-.95.57-.56.69-.61c.11-.05.31 0 .25-.25-.06-.24.36-.38.46-.41.1-.02.31-.42.1-.44s-.08-.17-.03-.19c.06-.02.24-.32.27-.5s-.47 0-.21-.29c.13-.14.11-.55.04-.6-.11-.1-.39.16-.39-.16 0-.17-.3-.57-.43-.57-.12 0-.31.14-.31.3s-.11.47-.16.52c-.06.05-.11-.02-.11-.02s.02-.17-.31-.3c-.32-.14-.63.77-.63.77l-.06.41s-.12-.17-.1-.49c.03-.32.16-.94.12-1.09s-.32-.08-.32-.08.07-.7.02-.82c-.06-.12-.42.1-.42-.04 0-.07-.04-.55-.17-.54s-.42.11-.4.06c.01-.06-.08-.38-.22-.4-.14-.01-.28.2-.36.15s-.5-.21-.7-.05.22.66.21.72-.17.21-.18.3.3.25.22.31-.14.21-.14.35.49.3.46.41c-.03.12-.01.38.13.46s.39.03.33.12.1.23.21.23.25.11.38.1.38.02.72.4c.35.38.62 2.45.62 2.45s-.08-.17-.14-.19-.12-.38-.1-.53c.03-.16 0-.42-.21-.45-.21-.04-.11-.28-.18-.72s-.36-.37-.47-.26-.14.03-.19-.16c-.06-.19-.21-.24-.37-.13-.17.11-.17-.01-.22-.09s-.21-.13-.26-.07c-.06.06-.18.16-.27.14-.08-.02-.29-.1-.43-.05-.14.04-.02.28.03.35.04.07.25.1.12.25s-.18.27-.06.34.49.13.35.24-.08.23-.03.36c.05.12.34.09.4.09 0 .02 0 .05-.02.13-.01.2.18.33.26.33.45 0 .53 0 .54.1s-.01.22.1.2c.11-.03.72.07.81.09.08.02.39.41.39.41l.04.3h-.11c-.11.02-.18.49-.18.49s-.15.03-.17-.02c-.01-.05-.03-.42-.15-.46-.13-.04-.26.08-.26-.04s-.07-.45-.24-.49-.25.03-.33-.02-.26-.32-.54-.34c-.08-.03-.19.2-.26.12-.28-.1-.45-.11-.56.1s.3.29.17.53c-.14.24.08.46.18.54.1.07.17-.07.04.41-.13.49.71.4.67.52s-.04.28.14.31c.18.02.64-.04.64-.04s.07 0 .03.19.18.44-.02.54.18.55.13.5c-.06-.05-.15-.03-.21-.08.04-.56-.18-.61-.3-.51-.13.1-.15.02-.24-.16-.08-.17-.25-.07-.29-.04s-.22.18-.31.07c-.08-.1-.43-.18-.53-.07s-.16.25-.09.33.25.16.05.25-.01.35.06.38.15.03-.02.25c-.17.23.1.49.24.52s.18.09.14.28.1.35.19.34c.1-.01.45.01.47.06.03.05.01.19.07.24s.43 0 .51-.01c.08 0 .11.04.17.18.05.13 0 .24-.03.28s-.34 0-.41.07c-.07.06-.2.51-.28.53s-.07-.06-.07-.19.11-.29-.12-.68c-.36-.47-1.02-.34-1.04-.26-.03.09.05.86.26 1.06s.6.18.6.18.04.05-.01.06c-.06 0-.1.12-.1.12s0 .56-.02.67c-.01.11-.1.09-.18.13s-.2-.17-.2-.17.11-.51.04-.51c-.06 0-.27-.04-.27-.04s.06-.29 0-.37c-.07-.09-.28.06-.34-.04-.04-.07-.17-.46-.38-.44s-.23.44-.23.59-.19 0-.29.09c-.11.09.02.35.08.45s-.13.1-.31.16c-.19.06.27.45.12.55s-.13.2-.11.34.42.29.31.35c-.1.05-.13.22-.04.32.08.1.42.36.42.36s0 .15-.04.3c-.36.41-1.18.96-1.18.96s.02-.29.13-.37c.1-.07.35-.22.4-.29.04-.07-.15-.32-.15-.32s.19-.21.21-.33c.02-.13-.19-.19-.15-.28s-.06-.37-.21-.4-.36.41-.48.38c-.13-.03-.38-.05-.46 0s-.13.56-.13.56-.31.07-.48.15-.09.7-.17.69-.18.03-.27.1c-.08.07-.03.78-.03.78s-.32.23-.55.39c-.31.14-1.76.66-2.57 1.4-.87.62-2.38 2.61-2.38 2.61s-.9 1.44-1.04 1.68-.11.53.05.54c.17.01.34-.1.45-.23.11-.12.64-1.26.8-1.53.15-.27 2.76-3.02 2.94-3.16.18-.13.91-.51 1.16-.63s1.25-.49 1.55-.59c.29-.1.38.02.43.04.06.02-.1.41.27.71.38.3.9.09.99.04.08-.05 0-.45-.11-.66s-.46-.34-.64-.31-.38 0-.33-.06c.04-.06.52-.23.73-.27s.32.15.39.34.11.49.28.49.22 0 .26.15.24.49.39.42.29-.09.39.06c.1.14.38.24.54.18.17-.06.21-.2.29-.22s.21.09.36.03c.16-.06.09-.36 0-.49-.07-.07-.18-.13-.18-.19s.09-.27-.01-.35c-.1-.07-.46-.08-.42-.15s.07-.26-.15-.33c-.15-.12-.61-.04-.6-.11s-.03-.08-.18-.12-.5.05-.64.09-.64 0-.64 0 .46-.34.64-.5.33-.41.38-.18c.19.58.72.54.9.55s.45 0 .63-.36c.18-.35-.47-.66-.72-.68s-.43.03-.43.03.34-.27.43-.31c.1-.04.29.01.33.08s.38.42.42.46.13-.14.13-.14.07.09.1.16.33.34.47.34.13-.12.2-.1.11.16.21.2.25.07.28-.14.15-.04.24-.01c.08.03.26.08.42-.03s-.05-.14.06-.12.32 0 .42-.15c.1-.16-.18-.27-.15-.37s.06-.27 0-.26c-.36-.08-.35-.19-.33-.34s-.25-.16-.4-.14-.15-.11-.19-.26-.31-.01-.43-.03c-.12-.01-.03-.21-.01-.35.01-.14.14-.03.38-.03s.35-.13.38-.27.05-.17.05-.17.46 0 .59-.06c.13-.07.04-.18.08-.27s.1-.04.28-.04.42-.11.46-.26c.04-.14.04-.24.04-.24s.29-.06.38-.19c.08-.13.15-.18.04-.2s-.25-.1-.05-.27c.38-.39.28-.63.17-.73s-.22.12-.43.13c-.21 0-.05-.09-.19-.13s-.28.2-.42.24-.12-.07-.21-.06c-.08 0-.31.27-.25.15s0-.43-.15-.43-.49.29-.42.1.36-.37.48-.44c.11-.07.72-.05.84-.03.11.02.19-.02.19-.15s.17-.13.17-.13.32-.09.43-.1.25-.12.22-.24.08-.13.15-.14c.07 0 .35-.18.36-.32s-.1-.18-.07-.26c.03-.07.18-.31.17-.42s-.12-.04-.14-.14c-.01-.1.04-.63-.09-.69-.14-.06-.46.41-.53.47s-.17-.01-.28.03-.13.15-.18.23c-.06.08-.11 0-.29.06s-.34.51-.39.57c-.06.06-.15.02-.28.07s-.16.74-.16.74-.45.45-.36.32c.08-.13.27-.81.27-.81s.49-.7.63-.8.06-.25-.02-.24c-.09 0-.04-.14.02-.16s.31-.07.51-.08c.34 0 .36-.14.42-.37s.31-.1.51-.11c.19-.02.54-.36.4-.49s-.01-.25-.01-.25.33-.33.38-.39c.04-.06.08-.29.02-.31ZM59.59 75.1s.08-.15.22-.19.35-.02.35-.02zm1.29-.59s-.04-.19.04-.18c.08 0 .29-.03.29-.03s-.17.16-.34.21Zm2.74-2.83s.07.16-.03.23l-.11-.1zm-.76 1.3.03-.18s.49-.43.53-.46-.49.61-.56.64m.87-.18c-.12.1-.22.19-.22.19h-.16s.32-.36.45-.36.05.07-.07.17m2.08-4.6c-.05.17-.22.71-.25.76s-.08.11-.11.13c-.06.05-.04-.14.02-.3s.29-.78.16-.87c-.12-.09-.19-.09-.19-.09s.01-.35.01-.39.31.11.38.22c.07.1.01.36-.04.53Zm.18-6.46-.06-.04-.07-.21.15.12-.02.12Zm.45 1.61s-.03.06-.1 0c0 0-.2-1.13-.26-1.29s.03-.23.05-.27.13.06.18.19.1.13.06.24c-.04.1-.16.13-.1.33.05.2.13.3.15.47s.08.29.03.33Z" class="cls-13"/><path d="M53.25 81.3c-.1-.02-.04-.35.27-.37.19-.02.04.18 0 .26s-.17.13-.27.11m.45-.51s-.22.03-.3.05.55-1.09.59-1.09.23.05.19.12-.47.93-.47.93Zm.52-1.07-.2-.05.11-.15.23.04zm.16-.22-.22-.03.1-.18.21.05zm2.18 1.49c.11-.04.04-.36-.27-.32-.19.02-.04.19 0 .26s.17.1.27.06m-.45-.41s.22-.01.3-.01-.54-.98-.58-.98-.23.1-.19.16.47.83.47.83m-.5-.98.2-.08-.1-.11-.2.09zm-.16-.18.22-.08-.1-.15-.21.09zm1.49-2.71-.41.07s1.33-1 2.35-1.3c1.01-.3 1.9-.67 2.55-1.18s1-.79 1.22-.98 1-1.09 1-1.09l.03.1-.39.44.2-.05s-.57.58-.74.71-1.11 1.09-2.28 1.64l.07.1s.04.06-.03.07c-.07 0-.16-.1-.16-.1s-.57.17-.8.26-1.24.41-1.67.68c-.42.27-.93.64-.93.64Zm3.93-.73s-.42-.42-.19-.7c.12-.17.64 0 .75.05.12.04-.25.1-.41.34-.16.25-.16.31-.16.31Z" class="cls-4"/><path d="M61.51 75.47s.09.07.14.21c.04.14.1.3.02.35s-.16.09-.31.03c-.16-.06-.3-.63.16-.6Z" class="cls-17"/><path d="M59.76 74.72s-.06-.64.21-.68.18-.07.18-.22-.11-.52.5-.65c.26-.17-.02-.54.22-.59s.15.04.31.08c.17.05.37-.41.47-.37s.1.21.11.34c0 .14.16.03.16.13.01.1-.09.19-.14.3a.34.34 0 0 0 .04.3c.05.07-.02.21-.15.24-.57.16-.25.18-.34.36-.08.18-.27.24-.4.24-.24 0-.12.13-.18.3-.05.17-.04.17-.23.21s-.64.07-.64.07 1.54-1.49 1.61-2.03c-.73.98-1.27 1.6-1.76 1.96Z" class="cls-15"/><path d="M61.78 74.86s.12.05.15.18c.02.13.02.43.11.46s.26-.05.33.04.1.5.26.53.31-.09.38-.08c.06.01.35.37.5.35.15-.03.26-.18.38-.21.12-.02.33.08.37-.02s-.02-.29-.11-.4-.08-.23-.08-.32-.02-.14-.19-.17-.28-.09-.24-.26.07-.1-.23-.15-.35.03-.45-.05c-.09-.08 0-.19-.16-.17s-1.03.11-1.03.11 1.41.19 2.06.99c-.98-.63-1.53-.76-2.04-.85Z" class="cls-9"/><path d="M62.74 73.74c-.1.09 0 .54.32.64.05-.17 0-.3.08-.47.09-.17.17-.34.23-.35.06 0-.19-.21-.64.18Z" class="cls-4"/><path d="M63.9 73.97s.18.22-.1.31c-.27.09-.43-.33-.37-.45.05-.12.04-.19.14-.17.09.02.26.18.33.31" class="cls-17"/><path d="M62.74 72.83s-.58-.41-.36-.58.05-.17-.05-.24-.36-.29-.13-.45-.04-.25-.06-.37-.07-.16.08-.2c.16-.04.23-.22.07-.41s.15-.19.2-.18c.05.02.12-.06.13-.2s0-.38.13-.37c.14 0 .17.23.25.32s.16.14.28.08c.13-.07.1.17.1.29s.09.17.25.14-.01.22 0 .35c0 .13.08.13.07.23-.01.11.05.12-.09.26-.15.14-.23.33-.14.39s.24.11.1.21-.66.59-.66.59.03-2.39-.09-2.58c-.12-.2.17 2.02-.09 2.73Zm.96.11s.29-.32.49-.34.7-.06.76-.11.39-.22.47-.12.04.24.07.26c.03.03.4-.03.47.08s-.04.2.04.3.34.06.34.22-.04.24.15.34-.1.24-.2.21-.18-.08-.23.01-.16.22-.29.12c-.14-.1-.29-.14-.35-.03-.05.11-.13.21-.25.07s-.12-.24-.23-.12c-.1.11-.39.14-.55-.22-.17-.36-.14-.14-.18-.12-.04.03-.06.12-.15.06-.08-.06-.26-.43-.39-.44-.13 0 1.32-.29 2.35.44-.47-.65-1.59-.65-2.34-.61Zm.04-.55s-.07-1.04.05-1.05c.11-.01.32 0 .36-.21.03-.21-.1-.84.25-.85.35-.02.5-.38.58-.51.07-.13.21-.11.36-.09.16.03.21-.02.38-.18.17-.15.38-.36.48-.31.11.05.14.28.06.39-.07.11-.02.21.02.39s0 .27-.05.38-.03.3.03.35c.06.06.15.18-.03.26-.19.08-.39.06-.45.24s.09.52-.25.54c-.34.01-.5 0-.54.2-.04.19.09.36-.35.45-.44.1-.86.15-.86.15s2.14-2.43 2.32-3.07c-.59.74-1.67 2.33-2.35 2.89Z" class="cls-15"/><path d="M66.29 70.44s.09-.03.13-.22c.03-.19.01-.34-.06-.36s-.1-.05.01-.12c.11-.06.13-.25.22-.24.09 0 .31.12.37.04.05-.09.18-.27.25-.23.07.03.12.16.22.15.09-.02.34-.21.4-.08.05.13.05.21-.05.35s-.28.32-.22.42.16.19.06.26c-.09.06-.38.09-.43.22s.2.27-.16.37-.37-.02-.5.08c-.14.11 0 .2-.09.25s-.42.13-.48.11c-.06-.01-.13-.16 0-.2.14-.03.55-.25.53-.39-.02-.13-.1-.25-.1-.25s1.15-.79 1.22-.96c.06-.17-.69.62-1.29.81Zm-1.06-1.46s-.52.11-.55.05.05-.14-.04-.2-.41-.08-.53-.12-.18-.15-.13-.22c.04-.07.17-.16.03-.27s-.48-.14-.43-.33.2-.39.1-.46c-.09-.07-.33-.23-.12-.34s.04-.24.01-.32c-.03-.07-.11-.21.07-.22.19 0 .26.07.39.09.12.02.24-.02.41-.12.17-.09.13.19.17.21.04.03.07.04.18.02.1-.02.24-.12.28.13s-.08.38.05.39c.14 0 .28 0 .28.1s-.11.52-.07.58.16-.08.2.02-.01.57-.15.89c-.13-.61-.74-1.63-1.54-2.14-.08-.07-.04.06-.04.06s1.21.9 1.42 2.21Z" class="cls-9"/><path d="M65.34 69.57s.38-.67.5-1.12c.12-.15.13-.35.18-.37s.08 0 .04.18c-.04.17-.4 1.18-.48 1.24s-.07.1-.24.07" class="cls-4"/><path d="M66.27 68.55s.19-.11.22-.27-.03-.6.19-.63c.21-.02.32-.09.33-.19 0-.1.1-.41.22-.43.12-.01.34-.01.4-.12.06-.1-.01-.2.3-.17.13-.03.16-.08.22-.14s.17-.33.27-.29.12.11.12.36-.07.26.03.26.09.12.05.19c-.03.07-.1.22-.15.28-.04.06-.1.17-.04.19s.12.13-.04.22-.36.06-.38.27-.07.22-.2.23-.49.05-.49.05-.08 0-.08.11.03.15-.14.17-.72.03-.72.03 1.82-1.38 1.89-1.91c-.55.64-2.04 2.06-2.01 1.8Zm-.2-.47h-.06s-.02-.15-.06-.26.04-.14-.43-.52c-.35-.48-.14-.53-.1-.55s.23-.14.13-.25-.37-.42-.03-.51c.33-.1.23-.61.18-.79v-.01c-.04-.17.08-.19.2-.2.12 0 .15-.08.14-.17 0-.08.01-.41.32-.19s.02.3.36.21c.17-.13.16-.03.16.16v.56s.17-.14.25-.02c.07.12-.11.69-.21.86s-.23.28-.15.37.22.08.08.23-.5.65-.57.73c-.06.08.33-2 .07-2.62 0 1.31-.19 2.68-.28 2.96Z" class="cls-15"/><path d="M67.28 65.84s.09-.25.02-.32-.15-.09-.25-.1-.03-.58.14-.67.22 0 .29-.11c.07-.1.1-.28.18-.37.08-.08.19-.13.26-.09.08.04.2-.14.32-.26.13-.12.13-.09.27-.05.14.03.24-.38.42-.32.17.06.1.27.09.42s0 .13.07.2c.06.07.07.1 0 .19s-.26.31-.13.34c.12.03.17.16.03.27-.13.11-.31.26-.36.33s-.18.22-.04.29.01.29-.19.34-.45 0-.57.12c-.08.18-.06.38-.21.38s-.43.12-.62.06c.09-.23 1.63-1.98 1.78-2.43-.89 1.1-1.54 2.03-1.51 1.78Z" class="cls-15"/><path d="m66.62 64.4-.14.23.06.02.16-.22zm-.16.05-.16-.1s-.29-1.82-.34-2.04-.29-.91-.37-1.03.06-.1.06-.1.36.66.49 1.41.21 1.12.33 1.86Zm.3-.11c-.11-.03-.04-.59.06-.74s.12.2.28.28c.16.09.57.17.28.28s-.41.23-.62.17Z" class="cls-4"/><path d="M67.64 63.21s.12.42-.03.54-.31-.25-.26-.37.04-.21.16-.23.13.06.13.06" class="cls-17"/><path d="M65.77 63.59s-.52-.13-.74-.06c-.1.05-.05-.08-.06-.17s.06-.19-.08-.18-.49.05-.52.03-.26-.13-.22-.29c.05-.15.06-.2-.1-.2-.17 0-.38 0-.3-.17s.11-.3.01-.34c-.1-.05-.52-.1-.33-.33.2-.23.09-.18.06-.24-.03-.05-.26-.23-.15-.31.1-.07.19-.03.34 0s.2-.18.36-.12.12.16.22.19c.1.02.19-.09.33-.06.15.03.1.1.17.21.06.11.06.14.23.1s.25-.19.34.11c.09.31.06.63.15.75s.22.11.26.17.09.5.07.58-1.18-1.52-2.19-1.83c-.04.02 1.36.89 2.14 2.14Zm.76-.44s-.03-.49-.19-.66c.05-.16.07-.12.11-.23.04-.1.04-.21-.02-.3s-.33-.24-.03-.43c.29-.18.34-.61.36-.84.02-.24-.03-.25.1-.3.14-.05.2-.39.24-.56.03-.17.28-.24.41.03.12.27.12.59.28.55.15-.04.36-.1.26.28s-.33.46-.09.46.08.26-.02.37c-.1.12-.17.32-.07.35s.17.14-.08.3c-.26.17-.49.24-.45.41s.05.19-.13.25-.33.25-.43.29-.06-.1-.04-.13.54-.46.59-2.81c-.2 1.67-.35 2.2-.8 2.97" class="cls-15"/><path d="M66.14 61.53c-.16.04-.32-.41-.28-.59.04-.19.09.11.31.09s.49-.1.38.08c-.1.18-.28.39-.41.43Z" class="cls-4"/><path d="M66.56 60.24s.15.42.07.57-.49-.05-.49-.2.04-.42.18-.45c.13-.03.19.04.24.08" class="cls-17"/><path d="M65.49 61.11s-.44-.31-.94-.36c-.25-.02-.26-.18-.26-.23s.08-.06-.03-.1-.25-.03-.33-.09c-.08-.05-.15-.26-.06-.34.09-.07.04-.16-.08-.21-.12-.04-.5-.26-.35-.4.15-.15.12-.27.02-.36s-.18-.13-.02-.32 0-.22-.06-.32c-.06-.09-.21-.3-.05-.35s.13-.03.56.07c.22-.04.1-.13.27-.14s.09.07.14.19c.05.11.07.17.25.15.18-.03.33.02.35.3s.03.32.24.24.21.34.19.58c-.03.24-.11.28.11.27.21 0 .17.07.14.27-.02.2-.03.69-.05.8-.01.11-.85-1.69-1.92-2.49.89.98 1.69 2.34 1.85 2.84Z" class="cls-15"/><path d="M64.32 69.38s.2.46.11.62c-.09.15-.66.14-.74.03s.01-.08.22-.21.34-.41.41-.44" class="cls-4"/><path d="M63.97 69.12c.13.05.33.2.14.35s-.62-.05-.62-.15-.02-.24-.02-.24.16-.1.49.03Z" class="cls-17"/><path d="M65.62 65.82s-.87.14-.98.11 0-.14-.07-.23c-.06-.1-.32-.21-.48-.21s-.15-.25-.14-.39-.03-.31-.11-.38-.26-.2-.19-.37c.07-.16-.03-.38-.09-.43-.06-.04-.01-.24.12-.25.14-.01.23.13.36.09.12-.05.1-.16.27-.1s.29.25.42.27.45 0 .45.11-.02.39.12.42c.15.03.37-.07.37.25s-.09.57-.09.57-1.04-1.17-1.65-1.42c.64.63 1.15.93 1.64 1.71.05.06.04.25.04.25Z" class="cls-15"/><path d="M63.51 73.62s-.28.18-.32.41c-.03.23-.01.4.34.34s.32-.12.32-.12-.3-.11-.34-.27.06-.3.06-.33-.06-.04-.06-.04Zm.64-4.18s-.3.36-.47.42c-.17.07-.29-.58-.25-.72s.47.17.55.2c.08.02.17.1.17.1m2.79-5.92s.09.16.19.28c.12.08.24.18.36.08s.15-.15.13-.18c-.1-.07-.18-.21-.18-.32s0-.22.07-.24c.06-.02-.24-.09-.57.38m-1.03-2.71s.15-.57.36-.61.07.12.14.32c.08.2.35.31.17.36s-.51.1-.67-.06Zm-4.96 15.16s.13-.33.29-.42c.17-.09-.02.1.04.31s.2.26.06.26-.4-.15-.4-.15Z" class="cls-14"/><path d="m53.18 77.11-.34.02s-2.11-.78-3.56-.95c-.11-.02-.31.06-.31.06l.06-.12s-.26-.08-.4-.08-.5.06-.5.06l.24-.14-.86-.54.32.02.95.36s.65.24 1.38.35c.72.11 2.59.5 3.03.95Z" class="cls-4"/><path d="M48.9 76.54c-.15-.15-.33-.09-.42-.08 0 0-.04.16 0 .39s.39.25.39.25c.27-.17.03-.56.03-.56" class="cls-17"/><path d="M46.57 75.46s-.43.49-.06.65c.38.16.63-.12.61-.28-.01-.17-.17.07-.33-.02-.17-.09-.22-.19-.22-.34Z" class="cls-14"/><path d="M46.8 75.8c.14.08.27-.08.32-.03.03-.32-.26-.38-.26-.38s-.14-.01-.28.07c0 .15.06.24.22.34" class="cls-17"/><path d="M47.93 76.27s-.36.41-.55.61c-.18.2-1.23 1.43-2.72.97-.17-.11.03-.09.17-.21.14-.13.35-.31.53-.53.18-.21.84-.81 1.09-.82s.34.05.49-.02.22-.13.22-.13.46-.07.64-.02c.27.07-.29.09-.84.46-.41.33-1.76 1.11-2.01 1.08.5-.05.63-.12 1.04-.32.42-.2.71-.42.85-.53s.7-.46 1.07-.54Z" class="cls-9"/><path d="M49.55 75.71s-.79.01-1.38-.63c-.58-.64-.55-1.64-.51-1.86.04-.21.07.13.28.21s.89.48 1.04.6.51.59.64 1.13l.12.54s-1.36-.92-1.77-1.9c-.01.39.9 1.54 1.58 1.89Zm-1.84-.33s-1.54-.18-1.89-.56-.77-1.34-.58-1.93c.47.23 1.09.53 1.29.64.21.1.63.48.69.58.07.1.14.56.21.66s.27.52.27.52-1.66-1.18-2.1-1.74c.1.42 1.37 1.45 2.11 1.83m-1.55-.22s-.82.56-1.1.64c-.61.23-1.94.07-2.62-.72.22-.08.73-.25.9-.33.17-.09.66-.28.98-.34s.75-.21 1.64.61c-.55.26-3.03.13-3.2.11s1.03.45 3.41.03Z" class="cls-15"/><path d="M45.57 71.96s-.47.3-.06.65c.37.16.63-.12.61-.29-.01-.17-.17.07-.33-.02-.17-.09-.22-.19-.22-.34" class="cls-14"/><path d="M45.79 72.3c.14.08.27-.08.32-.03.03-.32-.26-.38-.26-.38s-.14-.01-.28.07c0 .15.05.25.22.34" class="cls-17"/><path d="M46.47 73.38s-.43-.26-.39-.56.11-.25.14-.35.03-.24.01-.34c-.01-.1-.23-.35-.23-.35s.23-1 .6-1.3c.14-.21.04.39.24.52.08.21.34.87.36 1.12.01.25.08 1.08-.22 1.58-.15-.1-.38-.28-.38-.28s-.26-1.88-.02-2.8c-.33.89-.2 2.15-.12 2.76Z" class="cls-9"/><path d="M45.07 72.96s-.9-1.53-.91-1.61.15.03.15.03v-.18l.82 1.48-.05.29Zm-.75-1.02-.57-.24.01-.08.53.18zm-.72-4.81v-.71l-.07-.17v-.08l.11.03.31-1.54-.14-.29.17.12.18-.41h.08s-.34 1.25-.4 1.58-.13 1.32-.13 1.32l-.13.15Z" class="cls-4"/><path d="M44.88 73.57s-.7.22-1.23.25c-.53.02-2.02-.24-2.38-1.61-.03-.14.2-.03.56-.04.36 0 1.04.06 1.32.13s1.28.5 1.82 1.1c.08.23-2.53-.43-3.4-1.06-.43-.23.87 1 3.3 1.24Zm.13-1.69-.05-.59c-.03-.25-.11-.95-.08-1.11s.17-.85.46-1.22c.29-.36.56-.73.56-.82s.07-.03.15.26c.08.3.22 1.39.12 1.65-.1.33-.32 1.04-.85 1.55.61-1.82.58-2.73.61-3.09.03-.35-.36 2.67-.92 3.37m-1.42-.3s-1.53-.07-2.04-.47c-.51-.39-.87-1.5-.81-2.33.07-.2.25.02.43.11s.92.53 1.14.71c.22.17.64.77.85 1.06.21.28.44.82.44.82s-1.57-.79-2.66-2.55c-.13-.02 0 .19.08.3.08.1 1.65 2.13 2.57 2.35m.63-.38s-1.05-.78-1.14-1.64c-.09-.87.2-1.87.84-2.5.09-.12.01.26.14.42.06.22.39 1.02.43 1.23.04.2.12.92-.13 1.62-.1.47-.06.74-.06.74s-.79-.9-.53-3.57c-.25.88-.24 2.69.45 3.71Z" class="cls-15"/><path d="M42.74 68.43s-.31-.07-.42.27c-.11.35.1.5.22.5.13 0 .35-.06.35-.06v-.19s-.22-.06-.19-.2.04-.31.04-.31Z" class="cls-14"/><path d="M42.7 68.74c-.03.14.19.2.19.2v.03c.07-.14.08-.41 0-.52-.03-.05-.1-.05-.15-.03 0 .01-.02.17-.04.31Z" class="cls-17"/><path d="m44.44 68.17-.18-.64s.34-.76.51-.89.42-.49.67-.71.46-.49.46-.49.21.73.18 1-.07 1.3-1.44 2.25c-.07.02-.15-.41-.15-.41s1.36-1.36 1.38-2.49c-.31.83-.61 1.62-1.43 2.38" class="cls-9"/><path d="M42.93 67.98s-1.17-.16-1.6-.98-.2-1.64-.2-2c-.01-.17.15.14.34.24.18.11 1.01.75 1.08.89.07.15.44 1.34.52 1.69s-1.39-1.32-1.56-1.92c-.21-.31-.02.18.05.33s.69 1.34 1.37 1.74Zm1.3-2.17s.23-.59.31-.8c.08-.2.31-.91.49-1.16.18-.26.95-1.04 1.15-1.22.2-.17.28-.25.28-.25s-.03.28-.02.43-.02.84-.17 1.21c-.15.38-.85 1.38-1.95 1.83.52-.57 1.6-1.83 2.01-3.12-.7 1.24-1.13 2.12-2.11 3.07Z" class="cls-15"/><path d="M43.5 63.48s-.27.16-.26.42c.03.21.16.32.36.3s.38-.19.39-.3-.13 0-.29-.06c-.17-.05-.11-.31-.2-.36" class="cls-14"/><path d="M43.86 63.51c-.18-.09-.25-.06-.36-.03.08.05.03.3.2.36.17.05.31-.06.29.06.11-.19-.13-.38-.13-.38Zm-.4-.01.04-.03c-.01 0-.03.01-.04.03" class="cls-17"/><path d="M43.39 65.98s-1.19-1.11-1.24-1.67c-.05-.61 0-1.34.29-1.84s.38-.58.38-.58.61 1.18.62 1.33-.06.19-.17.29c-.11.11-.18.35-.13.47s.28.35.35.34c.07 0 .15.33.1.48-.06.15-.14.93-.14.93s-.46-.9-.49-1.43c-.04-.52-.17-2.04-.17-2.04s-.29 2.18.62 3.71Zm.97-2.51s.08-1.8.67-2.36c.43-.49.77-.89.96-1 .2-.12.36-.33.36-.33s.09.73.01 1.07c-.09.34-.27.9-.7 1.44-.43.53-1.28 1.35-1.28 1.35s.47-1.3.64-1.62 1.16-1.92 1.16-1.92-.53.58-1 1.38c-.46.8-.71 1.7-.83 1.99Z" class="cls-15"/><path d="M48.51 76.44s-.29.21-.27.46.28.32.35.31c.15.01.37-.16.37-.16s-.42.01-.46-.22 0-.39 0-.39Z" class="cls-14"/><path d="M63.52 78.56s.67-.99.48-1.33c-.57.3-.69.37-1.06.56-.32.12-.44.16-.79.13-.31.03-1.23-.29-1.61-.25.03-.14.2-1.22.2-1.22s.09-.59-.75-.54c-.84.06-4.03.99-5.09 1.19-1.06.02-4.25-.27-5.08-.15-.84.11-.75.69-.75.69s.17 1.02.2 1.16c-.39.04-1.17.5-1.47.56-.33.06-.37.11-.82.09-.5-.07-.47-.2-1.17-.36-.2.38.47 1.24.47 1.24s-.42.04-1.62.14c1.94 1.92 3.67 1.19 4.03 1.01s1.28-.6 1.67-.64 1.7.11 2.06.04c.36-.06.57-.52.6-.88s-.31-.62-.06-.59 1.45.02 1.94-.03 1.69-.28 1.94-.36-.07.3-.05.66c.03.36.21.72.57.71.36 0 1.67-.42 2.06-.46s1.31.2 1.67.3 2.09.49 4.05-1.83c-1.2.15-1.62.19-1.62.19Z" class="cls-13"/><path d="M50.88 79.93s.35-.13.44-.11c.28.02.95.04 1.1 0 0 0 .14.1-.04.12-.12.04-.68.05-.77.04s-.58-.08-.73-.05m.71-.19s.17-.07.42-.05.36.07.36.07-.2.02-.32.02-.46-.04-.46-.04" class="cls-11"/><path d="M64.75 78.56c-.27.15-1.7.21-1.6.13.11-.07.91-1.3.63-1.19-.27.11-.96.49-1.17.52-.21.02-.81.02-1.13-.05-.31-.07-.94-.2-.94-.2l-.02.13.54.15-.02.11-.56-.15-.02.17.55.14-.03.1-.52-.15-.05.17.55.14-.04.11-.52-.14-.03.17.55.15v.11l-.57-.16-.06.18.6.13s.04.08-.06.09-.34-.1-.66-.12c-.47-.03-1.29.13-1.39.16a33 33 0 0 1-1.21.29c-.25.05-.29-.03-.29-.03s-.04.28.27.2c.21.02.98-.26 1.8-.42.73-.04 1.48.17 1.48.17s.1.09-.1.05c-.6-.11-1.11-.18-1.4-.15s-1.09.28-1.4.37-.54.05-.54.05.21.15.42.12c.21-.02 1.05-.33 1.55-.38.4-.08 1.44.14 1.44.14l-.07.06s-.78-.14-1.3-.15c-.55.1-1.52.42-1.72.4-.21-.02-.32.03-.47-.19-.25-.42.31-.73.48-.77s1.06-.05 1.53-.02c.47.04.75.02.92-.15.11-.09.42-1.74.4-2.33-.03-.58-.44-.48-.95-.43-.57.05-1.98.48-2.34.57s-1.74.43-2.33.49-1.96 0-2.33-.01c-.36-.02-1.77-.16-2.34-.1-.51.06-.92.04-.95.62-.03.59.27 2.18.38 2.25.11.15.44.09.92-.04.47-.13 1.36-.3 1.53-.29s.72.2.47.68c-.15.25-.26.22-.47.29-.21.06-1.17-.07-1.72-.06-.52.11-1.31.41-1.31.41l-.07-.04s1.05-.43 1.44-.43c.5-.05 1.34.08 1.54.06.21-.02.42-.21.42-.21s-.23.09-.54.06-1.1-.12-1.4-.09c-.29.03-.81.21-1.4.43-.21.08-.11-.03-.11-.03s.75-.37 1.49-.48c.81 0 1.59.12 1.8.06.31.02.27-.26.27-.26s-.04.09-.29.09-1.11-.03-1.21-.04-.91 0-1.39.12c-.32.09-.55.24-.66.26-.1 0-.06-.08-.06-.08l.6-.25-.06-.17-.55.27-.03-.1.55-.26-.03-.16-.52.24-.04-.1.56-.25-.05-.16-.52.25-.03-.09.55-.26-.02-.16-.57.27-.02-.1.55-.26-.02-.12s-.63.25-.94.39-.92.26-1.13.28-.9-.22-1.17-.28.52 1.01.62 1.07c.11.05-1.32.29-1.6.19-.27-.1.78.62 1.15.8.37.17.77.28 1.42.21s1.47-.52 1.78-.62c.31-.09.77-.29 1.09-.28.31.01 1.06.08 1.42.07s.57-.06.73-.22c.17-.16.19-.31.19-.52s0-.58-.38-.65-.82-.06-1.18-.03c-.35.04-1.02.02-1.13.16-.1.14-.16.28-.03.24.09-.09.09.16-.14.17-.16 0-.25-.25-.04-.43.21-.19.69-.3 1.15-.31.46 0 2.13.1 2.36.09.23 0 1.1 0 1.46-.04.37-.04 1.23-.21 1.46-.25s1.9-.49 2.36-.57c.46-.09.94-.07 1.15.07s.16.39-.04.44c-.23.03-.23-.22-.14-.14.13 0 .07-.12-.03-.24-.11-.12-.77.04-1.13.07-.35.04-.8.12-1.18.27-.38.14-.39.52-.39.73s.02.35.19.48.38.13.73.07c.36-.06 1.11-.28 1.42-.35s.77.03 1.09.06c.31.03 1.13.33 1.78.26s1.04-.25 1.42-.5 1.43-1.18 1.16-1.03Z" style="fill:#f4f5f6"/><path d="M58.92 79.11s-.35-.06-.44-.02c-.26.11-.95.23-1.11.23 0 0-.15.17.05.13.12.02.67-.11.76-.14s.59-.2.73-.2Zm-.71-.04s-.16-.04-.42.03c-.25.07-.29.1-.29.1s.07.06.25 0c.12-.02.46-.13.46-.13" class="cls-11"/><path d="m50.74 77.49.05 1.2.77-.01.01-.22h-.51l-.07-.93zm1.08.05.03 1.12h.25l-.03-1.09zm1.85.15v1.07l.76.01.01-.21-.51.01v-.24l.37-.01-.01-.18h-.36v-.27h.35l.01-.21zm-.42.46s.06-.12.07-.23-.04-.23-.19-.29-.63 0-.63 0v1.06s.56.02.69-.03c.14-.05.32-.43.06-.52Zm-.32-.36c.08 0 .13.08.11.16-.01.07-.11.09-.11.09l-.17.02v-.25s.08 0 .17-.02m.04.75h-.21v-.25s.11-.01.18-.02c.1 0 .17.05.17.15 0 .12-.19.12-.15.12Zm2.42-.35s.13-.11.14-.17.04-.22.03-.29c0-.07-.07-.2-.19-.19-.13.01-.68.07-.68.07v1.11l.29-.01v-.36l.15-.02.4.32h.17l.03-.2-.33-.26Zm-.29-.07h-.13l-.01-.35.15-.02s.17-.02.18.13-.07.22-.2.23Zm1.03.39-.02-.9-.36.08v-.21s.87-.23.96-.24c.1 0 .05.2.05.2l-.4.11.06.91-.29.04Zm1.58-1.37.11-.04-.05-.16c-.18.05-.73.21-.73.21v.2l.13-.01-.34.98.25-.04.16-.35.39-.11.14.29.28-.1-.33-.87Zm-.44.57.15-.45.14.36-.28.09Zm.94.02s.32.04.5-.07c.06-.09.04-.16-.07-.2-.21-.1-.38 0-.43-.32s.28-.42.41-.43.36.03.36.03l-.06.19s-.21-.04-.31-.02c-.1.01-.31.21-.04.3.31.04.45.19.45.36s-.17.32-.42.38a.94.94 0 0 1-.45-.02l.06-.19Zm3.28-24.99c-.08-.51-.49-.42-.55-.42s-.28-.28-.28-.28.02-.43-.25-.53c-.49-.19-.68.13-.75.22-.04-.03-.44 0-.44 0s-.14-.48-.5-.43c-.27.03-.44.18-.5.43l-.47.03s0-.48-.42-.42c-.34.01-.5.28-.5.28s-.51-.21-.61-.3c0 0 .37-.21.33-.41-.28.03-.35-.03-.43-.08-.17-.05-.12-.36-.14-.61-.08-.26-.28-.26-.28-.26s.2-.3.16-.62c-.04-.26-.26-.57-.57-.57v-.69s.11.02.19.06c.06.02.08.06.26.04.2-.04.31-.16.33-.34.02-.23-.15-.35-.27-.35-.22 0-.24.07-.46.11-.18.08-.06-.11-.06-.11.02-.09.11-.11.11-.39-.05-.25-.22-.27-.38-.27-.17.04-.31.08-.36.36 0 .28.07.28.09.36 0 0 .11.16-.06.12-.22 0-.23-.06-.46-.02-.12.02-.29.18-.28.4.03.17.13.28.33.27.19-.03.21-.07.27-.1.08-.05.19-.09.19-.1v.69c-.31.06-.53.42-.57.69-.05.33.15.58.15.58s-.2.05-.28.32c-.03.25.02.56-.15.64-.08.06-.14.13-.42.16-.04.21.33.34.33.34-.1.12-.61.43-.61.43s-.17-.23-.5-.18c-.41.02-.42.5-.42.5l-.47.07c-.06-.23-.22-.35-.49-.33-.35.02-.5.53-.5.53s-.4.05-.44.09c-.07-.08-.26-.36-.75-.07-.27.15-.25.58-.25.58s-.22.33-.28.34c-.06 0-.47 0-.56.53s.46.64.46.64.13.27.08.33c-.04.07-.36.36-.13.7.17.28.54.15.54.15s.37.26.21.29c-.17.04-.4.1-.5.29.44-.04 1.33.75 1.33.75s-.13.1-.04.33c.08.21.27.19.27.19s-.06.13.06.31c.14.21.3.15.3.15s-.11.34-.07.54c.04.85 3.32.67 3.94.58.63-.04 3.91-.52 3.95-1.38.04-.21-.07-.52-.07-.52s.17.02.31-.21c.12-.2.06-.32.06-.32s.19-.01.27-.24c.09-.24-.04-.32-.04-.32s.9-.98 1.34-1.02c-.1-.18-.33-.19-.5-.19s.21-.33.21-.33.38.04.54-.27c.24-.39-.08-.61-.12-.67s.08-.35.08-.35.55-.22.46-.74Zm-7.42 1.56s-.6-.61-.85-.62c-.25-.02-.45.62-.53.96-.04.1-.71-.39-.95-.32-.2.16-.24.62-.3.95 0 0-.29-.08-.61-.23-.17-.23-.31-.28-.38-.52s-.18-.61.16-.8 1.02-.38 1.45-.5c.7 0 1.74-.69 1.83-.88s-.04.36.28.84-.02.76-.11 1.12Zm5.47-.7c-.07.26-.21.33-.38.59-.32.21-.62.36-.62.36-.05-.31-.09-.77-.29-.89-.24-.02-.91.61-.95.51-.08-.33-.28-.92-.53-.85s-.83.75-.85.8c-.08-.34-.42-.55-.1-1.1s.21-1.07.29-.9 1.13.65 1.82.51c.43.03 1.11.08 1.45.2.33.12.22.51.15.77Z" class="cls-13"/><path d="M51.2 57.76c0 .12-.08.23-.18.24s-.18-.08-.18-.21.08-.23.18-.24.18.08.18.2Zm1.97-1c0 .06-.05.11-.1.11-.06 0-.11-.04-.11-.09s.05-.11.11-.12c.06 0 .1.04.1.09Zm.35.21c0 .06-.05.11-.11.11s-.1-.04-.1-.09.05-.11.1-.12c.06 0 .11.04.11.09Zm.32-.34c0 .06-.05.11-.1.12-.06 0-.1-.04-.1-.09s.05-.11.1-.11c.06 0 .1.04.1.09Zm-.39-.24c0 .06-.05.11-.11.12-.06 0-.1-.04-.1-.09s.05-.11.1-.12c.06 0 .11.04.11.09" class="cls-17"/><path d="m54.32 56.65-.01-.26.23-.24-.02.41zm.03.11.18-.12-.04.22z" class="cls-14"/><path d="M49.4 55.74s-.31.04-.42-.15c-.11-.2.04-.32.11-.43l.3.58Zm-.5-1.28s-.26-.1-.26-.36.17-.37.34-.47l-.07.83Zm.58-1.42s.03-.31.21-.4.45-.05.53 0c-.04.02-.74.4-.74.4m1.5-.54s.11-.33.32-.35.4.28.4.28l-.73.07Zm1.43-.3s.03-.25.24-.3.36.14.36.14z" class="cls-11"/><path d="m50.37 55.67.03.46-.56-.06s-.71-1.07-.75-1.43-.01-.52-.01-.52 0-.54.34-.8.63-.58 1.37-.66c.74-.07 2.13-.2 3.15-1.13h.18s-.38.5-.9.79-1.39.45-2.06.57-1.06.19-1.37.65-.22.58-.17.87c.06.29.33.84.75 1.23Z" class="cls-17"/><path d="m50.29 55.35.15.13.07-.21zm.16-.2-.28.02-.24-.38.3-.03z" class="cls-17"/><path d="m50.39 54.65.25.31-.19.19-.22-.39z" class="cls-14"/><path d="M50.16 54.61h-.28s-.17-.35-.11-.58c.14.06.15.12.3.12 0 0-.1.26.09.46" class="cls-17"/><path d="M50.25 54.16s.03.29.08.39-.15.08-.15.08-.2-.09-.12-.47c.06.04.18 0 .18 0Z" class="cls-14"/><path d="M49.81 53.82s.17-.31.29-.36c0 0 .12.09.15.12.04.03-.13.33-.17.37s-.27-.13-.27-.13" class="cls-17"/><path d="m50.4 53.72-.16.31-.16-.09.17-.37z" class="cls-14"/><path d="M50.24 53.35s.27-.2.49-.22c.03.02.03.06.03.06l-.45.25-.06-.08Z" class="cls-17"/><path d="m50.85 53.39-.35.23-.2-.19.46-.24zm0-.28s.42-.06.55-.08c.13-.01.12.13.17.16.05.04-.54.18-.54.18s-.16-.19-.18-.27Zm.71-.11s.45-.08.52-.09.18.09.17.11c0 .03-.47.12-.54.14-.07.03-.16-.16-.16-.16Zm.71-.13s.36-.13.41-.13c.04 0 .23.07.17.12-.06.04-.41.13-.41.13l-.16-.12Zm.56-.21s.4-.22.47-.23c.07 0 .18.07.18.07s-.33.24-.4.24-.24-.09-.24-.09Zm.6-.32s.24-.16.28-.19.1-.01.15 0c.04 0-.1.2-.2.24-.09.04-.23-.05-.23-.05m.42-.32.23-.24-.13.32z" class="cls-14"/><path d="M55.33 52.59c0 .18-.15.34-.33.36s-.33-.11-.33-.3.15-.34.33-.36.33.11.33.29Zm-.02-.73c0 .12-.13.23-.3.25-.16.02-.3-.07-.29-.19s.13-.23.3-.25c.16-.02.3.07.29.19" class="cls-11"/><path d="M54.4 53.64s-.03-.48-.15-.67-.21-.37-.19-.59c.03-.22.2-.86.35-.99.1.01.07.08.05.14s-.2.4-.16.83.14.4.16.59.09.44.04.55 0 .12-.1.13Z" class="cls-14"/><path d="m54.93 53.08-.29.29c-.04.02-.06-.42-.12-.51s-.22-.74.04-1.33c.24-.01.39.07.39.07s-.26.02-.31.24c-.01.13-.03.32.23.37 0 0-.23.06-.29.31-.04.33.03.37.14.47s.11.06.21.09" class="cls-14"/><path d="M54.06 52.38c.03-.22.2-.86.35-.99.1.01.07.08.05.14s-.2.4-.16.83zm.36.02c-.02-.25 0-.58.14-.88.24-.01.39.07.39.07s-.26.02-.31.24c-.01.13-.03.32.23.37 0 0-.12.03-.21.15-.03.04-.1 0-.24.05m-.11-4.69c.16-.02.43.1.48.14.06.04-.16.17-.37.19s-.35-.02-.38-.06c-.02-.04.1-.24.27-.27m-2.78 9.39.76-.36.03.39-.68.31-.09.05z" class="cls-17"/><path d="m52.31 56.81.09.04.02.19.12.04.01-.2-.25-.13zm-.73.74.15.05.77-.33v-.1l-.08-.04-.68.35h-.12l-.07.01zm-.61.45s.19-.27.16-.41c.07.11.1.09.07.22-.03.21-.23.19-.23.19m2.08-1.12s.09-.13.08-.2c.04.05.05.05.04.11-.02.1-.11.09-.11.09Zm.35.2s.09-.13.08-.2c.04.05.05.05.04.11-.02.1-.11.09-.11.09Zm-.07-.58s.09-.13.08-.2c.04.05.05.05.04.11-.02.1-.11.09-.11.09Zm.39.24s.09-.13.08-.2c.04.05.05.05.04.11-.02.1-.11.09-.11.09Zm1.26 2.21c-1.91.24-2.27.08-3.3.02 1.18.51 3.3.25 3.3.25s2.12-.17 3.3-.92c-1.03.27-1.39.5-3.3.66Z" class="cls-14"/><path d="M58.3 57.92c-.14.06-1.17.47-3.32.67-2.14.23-3.18.03-3.32 0s-.21.11-.08.19c1.02.33 3.4.09 3.4.09s2.38-.24 3.4-.78c.13-.11.06-.23-.08-.17" class="cls-14"/><path d="M57.98 57.73c-.1.04-.94.35-3 .6-2.06.17-2.9.03-2.99.01-.1-.02-.45.06-.27.17 1.05.19 3.26-.02 3.26-.02s2.22-.24 3.26-.64c.18-.14-.17-.15-.26-.11Z" class="cls-14"/><path d="M57.49 57.58c-.24.05-1.36.35-2.51.45-1.14.13-2.27.06-2.51.06s-.43.09-.38.12c.74.2 2.88 0 2.88 0s2.15-.23 2.89-.59c.06-.05-.14-.1-.38-.05Z" class="cls-14"/><path d="M56.62 57.52c-.27.04-1.63.21-1.63.21s-1.37.11-1.63.12c-.27.01-.88.13-.72.16.15.03 2.35-.1 2.35-.1s2.2-.32 2.36-.38c.15-.06-.46-.05-.72 0Zm-1.63-.02c-.81.08-1.57.26-1.51.25.05 0 1.3-.1 1.5-.11s0 0 .01 0H55c.19-.03 1.45-.19 1.5-.19.06 0-.7-.03-1.51.06Z" class="cls-14"/><path d="M58.71 57.64c-.29-.37-1.31-.77-3.72-.52-2.41.23-3.43.84-3.72 1.27s.36.69.26.6-.36-.4.32-.81c1.05-.64 3.14-.75 3.14-.75s2.09-.31 3.13.11c.68.28.41.64.32.75-.1.11.56-.28.27-.65m.07-.65c0 .12.08.21.18.21.1-.01.18-.12.18-.24s-.08-.21-.18-.2-.18.12-.18.24Zm-1.96-.6c0 .06.05.1.1.09.06 0 .1-.06.1-.11s-.05-.1-.1-.09c-.06 0-.1.06-.1.12Zm-.36.28c0 .06.05.1.1.09.06 0 .11-.06.11-.11s-.05-.1-.11-.09c-.06 0-.1.06-.1.12Zm-.32-.27c0 .06.05.1.1.09.06 0 .11-.06.11-.11s-.05-.1-.11-.09c-.06 0-.1.06-.1.11m.39-.32c0 .06.05.1.1.09.06 0 .11-.06.11-.11s-.05-.1-.11-.09c-.06 0-.1.06-.1.12Z" class="cls-17"/><path d="M57.96 55.97c-.54-.13-2.02-.17-2.97-.06-.95.08-2.42.43-2.97.66-.54.24-1.12.78-1.02.79.1 0 .22.03.33.27s-.16.43-.16.43 0 .1.04.09c.92-.9 3.77-1.16 3.77-1.16s2.84-.32 3.76.4c.04 0 .04-.1.04-.1s-.26-.14-.15-.4.24-.32.33-.34c.1-.02-.47-.45-1.01-.58Zm-1.32-.07c.1-.01.18.06.18.16s-.08.19-.18.2c-.1 0-.18-.06-.18-.16s.08-.19.18-.2m-3.29.33c.1 0 .18.06.18.16s-.08.19-.18.2-.18-.06-.18-.16.08-.19.18-.2m-.8 1.09-.85.38h-.13l-.14-.13-.04-.43.11-.15.82-.35.21.05.1.16.03.32zm.5-.36c-.1 0-.18-.06-.18-.16s.08-.19.18-.2.18.06.18.16-.08.19-.18.2m.35.22c-.1 0-.18-.06-.18-.16s.08-.19.18-.2.18.06.18.16-.08.19-.18.2m.34-.36c-.1.01-.18-.06-.18-.16s.08-.19.18-.2.18.06.18.16-.08.19-.18.2m2.02-.23-.19.21-.57.09-.57.03-.2-.18v-.43l.21-.2.56-.1h.56l.21.15v.43Zm.48-.02c-.1.01-.18-.06-.18-.16s.08-.19.18-.2.18.06.18.16-.08.19-.18.2m.34.28c-.1 0-.18-.06-.18-.16s.08-.19.18-.2.18.06.18.16-.08.19-.18.2m.35-.28c-.1 0-.18-.06-.18-.16s.08-.19.18-.2.18.06.18.16-.08.19-.18.2m1.61.28-.14.15-.13.03-.85-.21-.11-.13.03-.32.1-.18.21-.09.82.18.11.13z" class="cls-17"/><path d="m55.66 56.51.01-.26-.23-.19.03.4zm-.03.12-.18-.08.04.2zm-.3-.01-.34.02-.33.05-.07.16.4-.05.4-.04z" class="cls-14"/><path d="m54.99 56.11-.37.05.01.43.36-.05.36-.02.02-.44z" class="cls-17"/><path d="M59.32 56.39c-.08-.16-.39-.62-1.83-.82-1.68-.16-2.49-.03-2.49-.03s-.81.03-2.5.53c-1.45.5-1.76 1.02-1.84 1.19-.08.18.03.22.13.22.46-.84 1.24-1.02 2.16-1.33.8-.22 2.05-.35 2.05-.35s1.25-.13 2.05-.07c.92.13 1.7.15 2.15.9.1-.02.21-.09.13-.25Z" class="cls-17"/><path d="M59.45 55.36c-.06-.29.18-.31-.1-1.03-.49.06-.84.42-.95.46-.04-.14 0-.68-.2-.94-.26-.06-.67.49-.94.63-.15-.15-.23-.87-.46-.94-.22-.08-.8.67-.92.85-.27-.32-.34-.93-.89-1.09-.54.28-.63.9-.9 1.28-.13-.15-.69-.78-.92-.66-.22.12-.31.85-.46 1.04-.26-.08-.67-.55-.93-.44-.21.3-.17.84-.21.98-.11-.02-.46-.3-.95-.27-.28.78-.04.76-.1 1.05-.17-.01-.76.01-1.08.13.47.05 1.09.7 1.12.63s.64-.58.64-.58l-.21-.55.39.45.96-.39-.29-.79.53.71.86-.25-.08-.97.33.93 1.16-.16c.03-.48.13-1.34.13-1.34s.09.84.12 1.31l1.16-.08.34-1-.09.98.86.08.53-.82-.3.85.96.2.39-.53-.21.59s.61.38.64.45.65-.71 1.12-.86c-.32-.05-.91.04-1.08.09Z" class="cls-17"/><path d="M60.6 54.61s.31-.02.42-.24-.04-.32-.11-.41l-.31.64Zm.5-1.39s.27-.15.27-.42-.17-.33-.33-.4l.07.82Zm-.56-1.3s-.03-.3-.21-.36c-.18-.05-.45.05-.53.11.04 0 .74.25.74.25m-1.5-.24s-.11-.31-.32-.29-.41.36-.41.36zm-1.42 0s-.03-.25-.24-.25-.36.22-.36.22l.6.04Z" class="cls-11"/><path d="m59.62 54.73-.03.47.56-.17s.72-1.22.76-1.58c.04-.37.02-.52.02-.52s0-.54-.33-.73-.62-.45-1.36-.38c-.74.08-2.13.23-3.14-.49-.07 0-.18.05-.18.05s.37.42.89.61c.51.19 1.39.17 2.06.15.67-.01 1.06-.02 1.36.38.31.4.22.54.16.83-.06.3-.34.91-.76 1.39Z" class="cls-17"/><path d="m59.71 54.4-.16.16-.07-.2zm-.16-.17.28-.04.24-.43-.31.03z" class="cls-17"/><path d="m59.61 53.71-.26.37.2.15.21-.44z" class="cls-14"/><path d="m59.84 53.63.28-.05s.17-.39.11-.61c-.14.09-.15.15-.3.18 0 0 .1.24-.09.48" class="cls-17"/><path d="M59.75 53.19s-.03.29-.08.41c-.06.11.15.05.15.05s.2-.13.12-.49c-.06.05-.18.04-.18.04Z" class="cls-14"/><path d="M60.19 52.76s-.16-.27-.28-.3c0 0-.12.11-.15.15s.13.31.17.34.26-.18.26-.18Z" class="cls-17"/><path d="m59.61 52.78.15.28.17-.11-.18-.34z" class="cls-14"/><path d="M59.77 52.38s-.27-.15-.49-.13c-.04.03-.03.07-.03.07l.45.16.06-.1Z" class="cls-17"/><path d="m59.16 52.55.35.15.2-.22-.45-.16zm.01-.29s-.42.02-.55.04c-.13.01-.13.15-.18.2s.54.07.54.07.16-.23.18-.3Zm-.72.04s-.45.01-.52.01-.18.12-.17.15c0 .03.47.02.53.04.07.01.16-.2.16-.2m-.71.01s-.36-.06-.4-.05-.23.12-.17.15.41.05.41.05zm-.56-.09s-.4-.14-.47-.13c-.07 0-.18.11-.18.11s.33.17.4.16c.07 0 .24-.14.24-.14Zm-.6-.2s-.24-.12-.28-.13c-.04-.02-.1.01-.15.03-.04.02.1.18.19.2s.23-.09.23-.09Zm-.41-.23-.23-.2.13.29z" class="cls-14"/><path d="M54.68 52.66c0 .18.15.31.33.3.18-.02.33-.18.33-.36s-.14-.31-.33-.29c-.18.02-.33.18-.33.36Zm.03-.74c0 .12.13.2.29.19.16-.02.3-.13.3-.25s-.13-.2-.29-.19c-.16.02-.3.13-.3.25" class="cls-11"/><path d="M55.61 53.52s.04-.49.16-.71c.12-.21.22-.41.19-.63-.03-.21-.19-.82-.35-.92-.1.03-.07.1-.05.15s.2.35.16.8c-.04.44-.14.43-.16.62s-.09.46-.04.56 0 .12.09.12Z" class="cls-14"/><path d="M55.07 53.06s.26.21.29.23.06-.43.13-.54c.06-.1.23-.78-.03-1.33-.24.04-.39.15-.39.15s.26-.03.3.18c.01.12.03.31-.23.42 0 0 .23.01.29.26.03.32-.04.37-.15.5-.11.12-.1.08-.21.13" class="cls-14"/><path d="M55.96 52.19c-.03-.21-.19-.82-.35-.92-.1.03-.07.1-.05.15s.2.35.16.8zm-.36.1c.02-.26 0-.58-.13-.86-.24.04-.39.15-.39.15s.26-.03.3.18c.01.12.03.31-.23.42 0 0 .12 0 .21.11.03.04.1-.02.24 0" class="cls-17"/><path d="M56.03 50.9c-.26-.14 0-.94-.59-.86-.31.03-.43.26-.43.26s-.11-.21-.42-.17c-.6.05-.33.79-.6.98-.13.1-.18.14-.32.18.31.3.52.11.61.02.03-.08 0-.14.02-.34.19.5.71.47.71.47s.52-.07.71-.61c.02.2 0 .26.02.34.09.07.3.23.61-.14-.14 0-.19-.03-.32-.11Z" class="cls-17"/><path d="M56.02 50.99c-.13-.03-.17-.17-.2-.21-.04-.07.06-.49-.05-.53-.07.33-.18.42-.42.56-.23.12-.35.08-.35.08s-.12.06-.35-.01c-.24-.09-.35-.16-.42-.47-.1.05-.01.45-.05.53-.02.05-.06.19-.2.25-.13.1-.19.05-.33.09.31.3.52.11.61.02.03-.08 0-.14.02-.34.14.26.71.41.71.41s.57-.26.71-.55c.02.2 0 .26.02.34.09.07.3.23.61-.14-.14 0-.2.06-.33-.02Z" class="cls-14"/><path d="M55.74 47.56c-.16.01-.43.18-.49.23s.16.14.37.12c.22-.02.36-.09.38-.14.03-.05-.1-.22-.27-.21Zm-.51-.55c-.11-.1-.18-.09-.2-.08-.01 0-.08 0-.2.12s-.02.28-.02.28l.22-.24.22.19s.1-.18-.02-.27m3.22 9.39-.76-.21-.02.4.66.18.09.02z" class="cls-17"/><path d="m57.67 56.27-.09.06-.02.19-.13.07.01-.21.24-.18zm.72.59-.14.08-.77-.17v-.11l.08-.05.67.21.13-.03h.06zm.61.33s-.19-.23-.15-.38c-.07.12-.11.11-.07.24.03.21.23.14.23.14Zm-2.07-.71s-.09-.11-.07-.19c-.04.06-.05.06-.04.12.01.1.11.07.11.07m-.36.28s-.09-.11-.07-.19c-.03.06-.05.06-.03.12.01.1.11.07.11.07Zm.08-.6s-.09-.11-.07-.19c-.04.06-.05.06-.04.12.01.1.11.07.11.07m-.39.32s-.09-.11-.07-.19c-.04.06-.05.06-.04.12.01.1.11.07.11.07" class="cls-14"/><path d="M55.02 48.88c-.35.04-.64.32-.68.67v.04l.06-.05s.03-.01.04 0v.04l-.1.08v.07l.15-.12h.04c.01.01 0 .03 0 .04 0 0-.15.12-.17.14-.01.04 0 .09.04.1.05-.04.24-.2.24-.2.01-.01.03 0 .04 0 .01.01 0 .03 0 .05 0 0-.19.17-.22.22 0 .05.08.04.12.02.07-.03.22-.21.22-.21a.03.03 0 0 1 .04 0c.01.01.01.03 0 .04 0 0-.09.11-.09.16.05.03.06.05.13-.02l.16-.21c0-.01.06-.04.07-.03.01 0 0 .07 0 .09 0 0-.11.13-.15.23-.03.07.02.04.08.04l.22-.28s.05-.06.06-.05c.01 0 .03.06.02.07 0 0-.03.07-.02.09.03.02.06.04.09-.01.03-.02.07-.12.07-.12 0-.02.03-.02.04-.02.02 0 .02.03.01.04 0 0-.03.08 0 .1 0 0 .16-.13.17-.39 0-.38-.3-.65-.68-.61Z" class="cls-11"/><path d="M56 47.73s-.11.12-.27.14c-.15.02-.26.06-.43-.06-.16-.12-.16-.14-.15-.24 0-.1.06-.18.1-.26.03-.08-.04-.14-.08-.17s-.07-.04-.14-.03c-.08 0-.08.03-.13.07-.04.04-.13.11-.1.18s.09.15.1.24c0 .1.01.12-.16.27-.17.16-.28.13-.43.15s-.26-.08-.26-.08-.03.05-.03.1c0 .17.18.31.4.21.17-.06.34-.19.34-.19l.1.04v.72l.17-.03h.17v-.73l.1-.06s.17.09.34.12c.22.05.41-.12.4-.29 0-.06-.03-.09-.03-.09Z" class="cls-14"/><path d="m50.26 72.2.42-1.35-.03-2.66-.37-.38.02-.96.56-.32s.08 0 .06.11v.22l.25-.12v-.34s.16-.17.36-.19c.22-.01.36.1.36.1v.31h.22v-.22s.01-.08.1-.07c.15 0 .55.1.55.1v.99l-.31.46-.04 2.72.41 1.3s-.73-.2-1.32-.13c-.51-.02-1.23.45-1.23.45Z" class="cls-13"/><path d="m50.47 71.99.09-.34.85-.24v.27zm.14-.46.1-.31.7-.23v.32zm.16-.47.02-.28.62-.18v.28zm.01-.37v-.26l.63-.19v.27zm0-.36-.01-.3.11-.04v.31zm.17-.05.01-.31.46-.17-.01.33zm-.18-.34v-.27l.47-.18.01.29zm.54-.46.11-.05-.01.29-.09.04zm-.55.11.01-.29.65-.26v.29zm.01-.41.01-.27.44-.18.01.29zm.52-.19v-.28l.13-.05-.01.29zm-.54-.14.01-.31.14-.07v.31zm.22-.1v-.32l.45-.17v.29zm-.2-.29-.01-.26.46-.22.01.27zm.55-.24v-.28l.1-.07v.31zm.1-.45-.64.33-.34-.32.98-.47zm0-.58-1 .49v-.81l.34-.19.04.54.46-.22.01-.6.16-.04z" class="cls-6"/><path d="M51.62 71.65v-.28l.91.07.05.3zm-.01-1.43v1.05l.89.08-.21-.65v-.42l-.18-.03.01.47-.34-.04.01-.43zm0-.1.01-.35.16.04v.34zm.49-.32.19.04-.02.34-.15-.02zm-.48-.1.01-.28.18.02-.02.3zm.49-.26.17.03.01.31-.19-.04zm-.49-.13v-.28l.66.07v.26l-.23-.02s-.03-.02-.12-.04a.5.5 0 0 0-.11.03l-.21-.03Zm0-.39v-.3l.36.06.01.28zm.44-.23.24.03v.26l-.24-.04zm-.45-.17v-.26l.11.01v.26zm.19.03v-.27l.5.07v.26zm-.18-.67.39.04-.01.3-.38-.04zm.44.34.01-.28.23.02v.3zm-.41-.45-.01-.49.95.14-.3.43zm-.01-1.42v.83l.98.17.01-.84-.33-.09-.04.54-.1.06-.39-.08-.02-.57z" class="cls-11"/><path d="M51.55 66c-.14 0-.05-.31-.19-.48-.07-.22-.21-.43-.33-.71-.14-.37-.33-.99.08-1.39.17-.19.35-.24.59-.27s.74.02.72.56c-.02.45-.19.66-.36.7-.08-.06-.08-.24-.17-.4-.07-.16-.23-.21-.27-.02.04.28.06.41.13.61.08.38.14.82.02 1.17-.09.17-.11.22-.22.23" class="cls-13"/><path d="M51.7 64.92s.02.72-.03.81-.12.27-.19-.24c-.11-.39-.54-.94-.5-1.41 0-.34.24-.6.4-.63.14-.04.48-.11.6.07.11.09.07-.04.07-.04s-.05-.2-.47-.16c-.14 0-.05-.05-.05-.05s.47-.13.66.1.19.43.06.68c-.08.24-.13.2-.17.14-.05-.1 0-.16-.14-.3-.12-.14-.32-.33-.8.14-.1.11-.07.18-.02.16s.35-.19.35-.19.06.04.03.07c-.03.04-.45.2-.39.25s.3-.16.37-.13c.06.03 0 .05-.1.11-.16.08-.27.16-.19.18.16-.04.2-.07.35-.16.03-.02.04.06-.01.08-.05.03-.28.15-.28.15s-.05.11.04.08c.08-.03.27-.21.3-.16l-.05.09c-.08.04-.19.13-.18.16.04.09.19-.09.24-.09.03 0 .04.06 0 .1-.07.06-.1.12-.02.12s.11-.09.11-.05.03.11.03.11Z" class="cls-11"/><path d="M51.15 64.09s.08-.1.18-.15c.1-.04.13-.05.11-.01s-.26.19-.28.19-.01-.03-.01-.03" class="cls-11"/><path d="M54.91 65.14c-.15 0-.05-.31-.19-.48-.07-.22-.21-.43-.33-.71-.15-.37-.33-.99.08-1.39.17-.19.35-.24.59-.27.24-.02.74.02.72.57-.02.44-.19.66-.36.69-.08-.07-.08-.24-.17-.4-.07-.16-.23-.21-.27-.02.04.28.06.41.13.61.08.38.14.82.02 1.17-.09.17-.11.22-.21.22Z" class="cls-13"/><path d="M55.06 64.06s.02.72-.03.81-.12.27-.19-.24c-.11-.39-.54-.94-.51-1.41 0-.34.24-.59.4-.63.15-.04.48-.11.61.07.11.09.07-.04.07-.04s-.05-.2-.48-.15c-.14 0-.05-.05-.05-.05s.47-.13.66.1.18.43.06.68c-.07.24-.13.2-.17.14-.05-.1 0-.16-.14-.3-.12-.14-.32-.33-.8.14-.1.11-.08.17-.02.16.05-.02.35-.19.35-.19s.06.03.03.07c-.03.03-.45.2-.39.25s.3-.16.37-.13c.06.02.01.05-.1.11-.16.08-.27.16-.19.18.16-.04.2-.07.36-.16.03-.02.04.06-.01.09s-.28.15-.28.15-.05.11.04.08c.08-.03.27-.21.3-.16l-.05.09c-.08.04-.19.13-.18.16.04.09.19-.09.24-.09.03 0 .04.06 0 .1-.07.06-.1.11-.02.12.08 0 .11-.09.11-.05s.03.11.03.11Z" class="cls-11"/><path d="M54.51 63.24s.08-.1.18-.14c.1-.05.13-.06.11-.01-.02.04-.26.19-.28.19s-.01-.03-.01-.03Z" class="cls-11"/><path d="M58.28 65.34c-.15 0-.05-.31-.19-.48-.07-.22-.21-.43-.33-.71-.15-.37-.33-.99.08-1.39.17-.2.35-.24.59-.27.24-.02.74.02.72.57-.02.45-.19.66-.36.69-.08-.06-.08-.24-.17-.4-.07-.16-.23-.21-.27-.02.04.28.06.41.13.61.08.38.14.82.02 1.17-.09.17-.11.22-.22.23" class="cls-13"/><path d="M58.43 64.26s.02.72-.03.81-.12.27-.19-.24c-.11-.39-.54-.94-.51-1.41 0-.34.24-.59.4-.63.15-.04.48-.11.61.07.11.09.07-.04.07-.04s-.05-.2-.48-.16c-.14 0-.05-.05-.05-.05s.47-.13.66.1.19.43.06.68c-.07.24-.13.2-.17.14-.05-.1-.01-.16-.13-.3-.13-.14-.32-.33-.81.14-.1.11-.07.17-.02.16.05-.02.35-.19.35-.19s.06.04.03.07-.45.2-.39.25.3-.16.37-.13c.06.02.01.05-.1.11-.16.08-.27.16-.19.18.16-.04.2-.07.36-.16.03-.02.04.06 0 .09-.05.03-.28.15-.28.15s-.05.11.04.08c.08-.03.27-.21.3-.16l-.05.09c-.08.04-.19.14-.18.16.04.09.19-.09.24-.09.03 0 .04.07 0 .1-.07.06-.1.12-.02.12s.11-.09.11-.05.03.11.03.11Z" class="cls-11"/><path d="M57.88 63.44s.09-.1.18-.14c.1-.04.13-.05.11-.01s-.26.19-.28.19-.01-.03-.01-.03Z" class="cls-11"/><path d="m56.91 71.47.42-1.35-.03-2.66-.38-.38.02-.96.56-.32s.09 0 .06.11v.22l.25-.12v-.34s.15-.17.36-.19c.22-.01.36.1.36.1v.31h.22v-.22s.01-.09.1-.07c.15 0 .55.1.55.1v.99l-.31.46-.04 2.72.41 1.3s-.73-.2-1.32-.13c-.47.11-1.23.45-1.23.45Z" class="cls-13"/><path d="m57.12 71.27.08-.34.85-.24v.26zm.14-.46.1-.32.7-.22-.01.32zm.15-.47.03-.28.62-.18v.28zm.01-.37v-.26l.64-.2v.28zm0-.36-.01-.3.12-.04v.31zm.18-.05v-.31l.46-.17v.33zm-.19-.34v-.28l.48-.17.01.29zm.55-.47.1-.04V69l-.1.04zm-.55.12v-.29l.66-.26-.01.28zm.01-.41.01-.27.44-.18.01.29zm.52-.19v-.28l.12-.05-.01.29zm-.54-.14.01-.32.13-.07v.32zm.21-.1.01-.32.45-.17-.01.29zm-.2-.29-.01-.26.46-.22.01.27zm.55-.24v-.29l.11-.06v.3zm.11-.45-.64.32-.34-.31.98-.47zm0-.58-1.01.49v-.81l.35-.2.04.54.46-.21.01-.6.15-.04z" class="cls-6"/><path d="M58.27 70.93v-.28l.86.03.09.34zm-.01-1.43v1.05l.83.01-.15-.58v-.46l-.19-.03-.01.5-.34-.02.01-.45zm0-.1.01-.35.14.04-.01.35zm.49-.33.19.05-.01.32-.17-.02zm-.48-.09.01-.29.17.03-.04.3zm.48-.26.17.03.01.3-.18-.03zm-.48-.14v-.28l.66.07v.26l-.22-.02s-.03-.02-.12-.04a.5.5 0 0 0-.11.03l-.21-.03Zm0-.39v-.3l.36.06v.28zm.44-.22.24.03v.26l-.24-.04zm-.45-.17-.01-.27.12.02-.01.26zm.18.03.01-.27.49.06v.27zm-.17-.67.38.04v.3l-.38-.04zm.44.34v-.28l.24.02-.01.29zm-.42-.45v-.5l.94.15-.29.43zm0-1.42v.83l.97.17.02-.85-.34-.09-.03.54-.1.06-.39-.07-.03-.58z" class="cls-11"/><path d="m53.55 71.48.46-1.48-.03-2.66-.37-.38.02-.96.56-.32s.08 0 .05.11v.22l.25-.12v-.34s.15-.17.36-.19c.22-.01.36.1.36.1v.31h.22v-.22s.01-.09.1-.07c.14 0 .55.1.55.1v.99l-.31.46-.04 2.72.41 1.3s-.57-.21-1.28-.1c-.51-.02-1.31.54-1.31.54Z" class="cls-13"/><path d="m53.78 71.22.1-.41.85-.24v.27zm.16-.52.1-.32.69-.22v.32zm.15-.48.03-.28.61-.18v.28zm.01-.77v-.26l.64-.2v.28zm.55.25-.01-.31.11-.03v.31zm-.55.18v-.31l.46-.17v.33zm.17-.83v-.28l.47-.17.01.29zm-.15-.22.1-.05v.29l-.09.05zm-.03-.08v-.29l.66-.26-.01.29zm.01-.4.01-.28.44-.18.01.29zm.52-.2v-.28l.12-.05-.01.29zm-.54-.14.01-.31.13-.07v.31zm.21-.1.01-.32.44-.17v.29zm-.2-.29-.01-.26.47-.22v.27zm.55-.24v-.28l.11-.07-.01.31zm.11-.45-.64.33-.34-.31.98-.48zm0-.57-1.01.48v-.81l.35-.19.04.54.46-.22.01-.59.15-.05z" class="cls-6"/><path d="M54.94 70.82v-.29l.91.08.04.29zm-.01-1.44v1.05l.88.06-.2-.63v-.46l-.18-.03.01.5-.37-.01.01-.45zm0-.1.01-.34.15.03-.01.34zm.5-.32.19.05-.01.32-.17-.03zm-.49-.09.01-.29.17.02-.01.3zm.49-.27.17.03.01.31-.18-.03zm-.49-.13v-.28l.66.07v.26l-.22-.02s-.03-.03-.12-.04a.5.5 0 0 0-.11.03l-.21-.03Zm0-.39v-.3l.36.06v.28zm.44-.23.25.03v.26l-.24-.04zm-.45-.17-.01-.26.12.01v.26zm.19.03.01-.26.49.06v.26zm-.18-.66.38.03-.01.3-.37-.03zm.45.33v-.28l.23.02v.3zm-.43-.45v-.49l.94.14-.29.43zm0-1.42v.83l.97.17.02-.84-.34-.09-.03.54-.1.06-.39-.07-.02-.58z" class="cls-11"/></g><g id="White_Logo_RGB" data-name="White Logo RGB"><path id="WHITE_ESC_HEART" d="M56.13 129.5c1.03 1.13 2.54.85 3.24-.61C75.9 94 126.12 78.23 126.12 33.78c0-16.16-10.88-32.38-31.78-32.75-19.9-.36-37.77 12.46-39.63 33.22-.56-13.14-9.18-19.2-19.12-19.2C16.03 15.03.01 32.69.82 59.25c1.34 41.78 41.51 54.94 55.31 70.25m-3.56-85.25c.53 2.09 3.07 2.01 3.65-.05 8.61-31.2 48.19-34.61 48.19-3.02 0 24.94-44.21 51.56-47.58 75.24-8-15.53-37.39-24.07-37.39-57.83 0-28.74 27.94-34.77 33.12-14.34Z" class="cls-11"/></g></svg>