<svg xmlns="http://www.w3.org/2000/svg" viewBox="0 0 127.18 131.2"><defs><clipPath id="clippath"><path d="m58.82 125.08 1.04-7.35c1.47-10.32 12.12-22.11 22.43-33.52 12.38-13.7 25.18-27.86 25.18-42.12 0-12.41-6.81-24.94-22.03-24.94-9.34 0-20.76 5.46-27.59 17.23l-.56 1a41 41 0 0 0-2.69 6.13c-2.78-7.01-8.54-11.25-15.57-11.25-10.76 0-22.19 10.25-22.19 29.23 0 23.74 13.88 35.81 25.02 45.5 5.5 4.78 10.25 8.91 12.68 13.63l3.79 7.36.49-.91Z" style="fill:none"/></clipPath><style>.cls-3{fill:#f9f9f9}</style></defs><g id="TÜRKİYE" style="clip-path:url(#clippath)"><path d="M109.84 117.03 7.03 127.84V19.36l102.81-10.8z" style="fill:#e30a17"/><path d="M57.23 76.79c-5.28 5.3-13.4 5.72-18.14.94s-4.31-12.94.97-18.24 13.4-5.72 18.14-.94c-1.27-1.87-2.97-3.4-4.98-4.46-7.49-3.95-17.41-.68-22.15 7.31s-2.51 17.67 4.98 21.63c7.49 3.95 17.41.68 22.15-7.31-.31.37-.63.73-.97 1.07" class="cls-3"/><path d="m68.3 66.07 3.43 4.36-5.55-1.22-3.43 5.08v-5.83l-5.54-1.22 5.54-2.38v-5.84l3.43 4.36L71.73 61z" class="cls-3"/></g><g id="White_Logo_RGB" data-name="White Logo RGB"><path id="WHITE_ESC_HEART" d="M56.13 129.5c1.03 1.13 2.54.85 3.24-.61C75.9 94 126.12 78.23 126.12 33.78c0-16.16-10.88-32.38-31.78-32.75-19.9-.36-37.77 12.46-39.63 33.22-.56-13.14-9.18-19.2-19.12-19.2C16.03 15.03.01 32.69.82 59.25c1.34 41.78 41.51 54.94 55.31 70.25m-3.56-85.25c.53 2.09 3.07 2.01 3.65-.05 8.61-31.2 48.19-34.61 48.19-3.02 0 24.94-44.21 51.56-47.58 75.24-8-15.53-37.39-24.07-37.39-57.83 0-28.74 27.94-34.77 33.12-14.34Z" style="fill:#fff"/></g></svg>