<?xml version="1.0" encoding="UTF-8"?>
<svg xmlns="http://www.w3.org/2000/svg" xmlns:xlink="http://www.w3.org/1999/xlink" viewBox="0 0 127.18 131.2"><defs><style>.cls-1{fill:none;}.cls-2{fill:#5a22a9;}.cls-3{fill:#fff;}.cls-4{clip-path:url(#clippath);}</style><clipPath id="clippath"><path class="cls-1" d="M57.72,126.52l1.16-7.48c1.64-10.5,12.66-22.38,23.32-33.87,12.8-13.8,26.05-28.07,26.24-42.6.17-12.65-6.61-25.51-22.13-25.72-9.53-.13-21.24,5.29-28.36,17.2l-.58,1.01c-1.07,1.91-2.02,3.98-2.83,6.21-2.74-7.19-8.55-11.59-15.72-11.68-10.96-.15-22.76,10.15-23.01,29.5-.32,24.21,13.66,36.69,24.9,46.73,5.54,4.95,10.33,9.22,12.74,14.07l3.76,7.55.51-.92Z"/></clipPath></defs><g id="REST_OF_THE_WORLD"><g class="cls-4"><rect class="cls-2" x="-22.86" y="11.78" width="167.9" height="111.94"/><path class="cls-3" d="M71.58,72.87c-2.17,5.58-6.76,10.16-12.41,12.25,1.84-2.66,3.26-6.67,3.99-11.36l8.42-.89ZM45.74,75.6c.72,4.54,2.15,8.25,3.99,10.52-5.66-.9-10.25-4.51-12.41-9.63l8.42-.89ZM50.02,81.97c-.84-1.79-1.51-4.04-1.95-6.62l12.75-1.34c-.44,2.67-1.12,5.07-1.95,7.03-.76,1.78-1.6,3.11-2.42,3.97-.81.86-1.48,1.16-2.01,1.21s-1.2-.1-2.01-.78c-.82-.69-1.66-1.84-2.42-3.46h0ZM36.56,65.02l8.88-.94c-.15,1.5-.23,3.06-.23,4.64s.08,3.12.23,4.59l-8.88.94c-.38-1.44-.58-2.96-.58-4.56s.2-3.16.58-4.68ZM45.74,61.74l-8.42.89c2.17-5.58,6.76-10.16,12.41-12.25-1.84,2.66-3.27,6.67-3.99,11.36ZM60.82,60.15l-12.75,1.34c.44-2.67,1.12-5.07,1.95-7.04.76-1.78,1.6-3.11,2.42-3.97.81-.85,1.48-1.15,2.01-1.21s1.2.1,2.01.78c.82.69,1.66,1.84,2.42,3.46.84,1.79,1.51,4.04,1.95,6.63ZM71.58,59.01l-8.42.89c-.72-4.54-2.15-8.25-3.99-10.52,5.65.9,10.25,4.51,12.41,9.63h0ZM63.46,62.18l8.88-.94c.38,1.44.58,2.96.58,4.56s-.2,3.16-.58,4.68l-8.88.94c.15-1.5.23-3.06.23-4.64s-.08-3.12-.23-4.59ZM61.38,67.02c0,1.6-.09,3.16-.24,4.64l-13.38,1.41c-.16-1.46-.24-2.99-.24-4.59s.09-3.16.24-4.64l13.38-1.41c.16,1.46.24,2.99.24,4.59Z"/></g></g><g id="White_Logo_RGB"><g id="WHITE_ESC_HEART"><path class="cls-3" d="M56.13,129.5c1.03,1.13,2.54.85,3.24-.61,16.53-34.89,66.75-50.66,66.75-95.11,0-16.16-10.88-32.38-31.78-32.75-19.9-.36-37.77,12.46-39.63,33.22-.56-13.14-9.18-19.2-19.12-19.2C16.03,15.03.01,32.69.82,59.25c1.34,41.78,41.51,54.94,55.31,70.25ZM52.57,44.25c.53,2.09,3.07,2.01,3.65-.05,8.61-31.2,48.19-34.61,48.19-3.02,0,24.94-44.21,51.56-47.58,75.24-8-15.53-37.39-24.07-37.39-57.83,0-28.74,27.94-34.77,33.12-14.34Z"/></g></g></svg>