<svg xmlns="http://www.w3.org/2000/svg" viewBox="0 0 127.18 131.2"><defs><clipPath id="a"><path d="m59.45 124.23 1.18-7.75c1.65-10.88 13.66-23.31 25.28-35.32 13.95-14.44 28.38-29.36 28.38-44.39 0-13.08-7.68-26.28-24.83-26.28-10.53 0-23.4 5.75-31.1 18.16l-.63 1.05a42 42 0 0 0-3.04 6.46c-3.13-7.39-9.62-11.86-17.55-11.86-12.12 0-25.01 10.8-25.01 30.81 0 25.02 15.64 37.74 28.21 47.95 6.2 5.04 11.55 9.39 14.29 14.36l4.27 7.75.55-.96Z" style="fill:none"/></clipPath></defs><g style="clip-path:url(#a)"><path d="m-28.99-8.94 167.61-17.62v131.38l-167.61 17.61z" style="fill:#00409c"/><path d="m6.78 87.38 167.61-17.62v64.4L6.78 151.78z" style="fill:#de0000"/><path d="M9.92 56.33 118 44.95v33.1L14.55 89.17z" style="fill:#f9f9f9"/><path d="m54.94 49.65 4.39 13.04 14.19-1.49-11.48 9.55 4.39 13.04-11.48-7.14-11.48 9.55 4.39-13.96-11.48-7.14 14.19-1.49 4.39-13.96Z" style="fill-rule:evenodd;fill:#de0000"/><path d="m67.5 85.16-12.57-7.81L42.36 87.8l4.8-15.28-12.57-7.81 15.53-1.63 4.8-15.28 4.8 14.27 15.53-1.63-12.57 10.45 4.8 14.27Zm-12.56-9.21 10.4 6.46-3.97-11.81 10.4-8.65-12.85 1.35-3.97-11.81-3.97 12.64-12.85 1.35 10.4 6.46-3.97 12.64 10.4-8.65Z" style="fill:#fbd615"/></g><path d="M56.13 129.5c1.03 1.13 2.54.85 3.24-.61C75.9 94 126.12 78.23 126.12 33.78c0-16.16-10.88-32.38-31.78-32.75-19.9-.36-37.77 12.46-39.63 33.22-.56-13.14-9.18-19.2-19.12-19.2C16.03 15.03.01 32.69.82 59.25c1.34 41.78 41.51 54.94 55.31 70.25m-3.56-85.25c.53 2.09 3.07 2.01 3.65-.05 8.61-31.2 48.19-34.61 48.19-3.02 0 24.94-44.21 51.56-47.58 75.24-8-15.53-37.39-24.07-37.39-57.83 0-28.74 27.94-34.77 33.12-14.34Z" data-name="White Logo RGB" style="fill:#fff"/></svg>